%TF.GenerationSoftware,KiCad,Pcbnew,5.1.8-db9833491~88~ubuntu20.04.1*%
%TF.CreationDate,2020-12-06T21:40:22+00:00*%
%TF.ProjectId,driva-x2,64726976-612d-4783-922e-6b696361645f,rev?*%
%TF.SameCoordinates,Original*%
%TF.FileFunction,Legend,Top*%
%TF.FilePolarity,Positive*%
%FSLAX46Y46*%
G04 Gerber Fmt 4.6, Leading zero omitted, Abs format (unit mm)*
G04 Created by KiCad (PCBNEW 5.1.8-db9833491~88~ubuntu20.04.1) date 2020-12-06 21:40:22*
%MOMM*%
%LPD*%
G01*
G04 APERTURE LIST*
%ADD10C,0.125000*%
%ADD11C,0.150000*%
%ADD12C,0.300000*%
%ADD13C,0.120000*%
G04 APERTURE END LIST*
D10*
X147000476Y-54636190D02*
X147000476Y-54993333D01*
X146976666Y-55064761D01*
X146929047Y-55112380D01*
X146857619Y-55136190D01*
X146810000Y-55136190D01*
X147476666Y-55136190D02*
X147238571Y-55136190D01*
X147238571Y-54636190D01*
X147929047Y-55088571D02*
X147905238Y-55112380D01*
X147833809Y-55136190D01*
X147786190Y-55136190D01*
X147714761Y-55112380D01*
X147667142Y-55064761D01*
X147643333Y-55017142D01*
X147619523Y-54921904D01*
X147619523Y-54850476D01*
X147643333Y-54755238D01*
X147667142Y-54707619D01*
X147714761Y-54660000D01*
X147786190Y-54636190D01*
X147833809Y-54636190D01*
X147905238Y-54660000D01*
X147929047Y-54683809D01*
X148286190Y-54636190D02*
X148286190Y-54993333D01*
X148262380Y-55064761D01*
X148214761Y-55112380D01*
X148143333Y-55136190D01*
X148095714Y-55136190D01*
X148762380Y-55136190D02*
X148524285Y-55136190D01*
X148524285Y-54636190D01*
X149214761Y-55088571D02*
X149190952Y-55112380D01*
X149119523Y-55136190D01*
X149071904Y-55136190D01*
X149000476Y-55112380D01*
X148952857Y-55064761D01*
X148929047Y-55017142D01*
X148905238Y-54921904D01*
X148905238Y-54850476D01*
X148929047Y-54755238D01*
X148952857Y-54707619D01*
X149000476Y-54660000D01*
X149071904Y-54636190D01*
X149119523Y-54636190D01*
X149190952Y-54660000D01*
X149214761Y-54683809D01*
X149571904Y-54636190D02*
X149571904Y-54993333D01*
X149548095Y-55064761D01*
X149500476Y-55112380D01*
X149429047Y-55136190D01*
X149381428Y-55136190D01*
X150048095Y-55136190D02*
X149810000Y-55136190D01*
X149810000Y-54636190D01*
X150500476Y-55088571D02*
X150476666Y-55112380D01*
X150405238Y-55136190D01*
X150357619Y-55136190D01*
X150286190Y-55112380D01*
X150238571Y-55064761D01*
X150214761Y-55017142D01*
X150190952Y-54921904D01*
X150190952Y-54850476D01*
X150214761Y-54755238D01*
X150238571Y-54707619D01*
X150286190Y-54660000D01*
X150357619Y-54636190D01*
X150405238Y-54636190D01*
X150476666Y-54660000D01*
X150500476Y-54683809D01*
X150857619Y-54636190D02*
X150857619Y-54993333D01*
X150833809Y-55064761D01*
X150786190Y-55112380D01*
X150714761Y-55136190D01*
X150667142Y-55136190D01*
X151333809Y-55136190D02*
X151095714Y-55136190D01*
X151095714Y-54636190D01*
X151786190Y-55088571D02*
X151762380Y-55112380D01*
X151690952Y-55136190D01*
X151643333Y-55136190D01*
X151571904Y-55112380D01*
X151524285Y-55064761D01*
X151500476Y-55017142D01*
X151476666Y-54921904D01*
X151476666Y-54850476D01*
X151500476Y-54755238D01*
X151524285Y-54707619D01*
X151571904Y-54660000D01*
X151643333Y-54636190D01*
X151690952Y-54636190D01*
X151762380Y-54660000D01*
X151786190Y-54683809D01*
D11*
X138439523Y-41375714D02*
X138439523Y-42185238D01*
X138391904Y-42280476D01*
X138344285Y-42328095D01*
X138249047Y-42375714D01*
X138106190Y-42375714D01*
X138010952Y-42328095D01*
X138439523Y-41994761D02*
X138344285Y-42042380D01*
X138153809Y-42042380D01*
X138058571Y-41994761D01*
X138010952Y-41947142D01*
X137963333Y-41851904D01*
X137963333Y-41566190D01*
X138010952Y-41470952D01*
X138058571Y-41423333D01*
X138153809Y-41375714D01*
X138344285Y-41375714D01*
X138439523Y-41423333D01*
X138915714Y-42042380D02*
X138915714Y-41375714D01*
X138915714Y-41042380D02*
X138868095Y-41090000D01*
X138915714Y-41137619D01*
X138963333Y-41090000D01*
X138915714Y-41042380D01*
X138915714Y-41137619D01*
X139249047Y-41375714D02*
X139630000Y-41375714D01*
X139391904Y-41042380D02*
X139391904Y-41899523D01*
X139439523Y-41994761D01*
X139534761Y-42042380D01*
X139630000Y-42042380D01*
X139963333Y-42042380D02*
X139963333Y-41042380D01*
X140391904Y-42042380D02*
X140391904Y-41518571D01*
X140344285Y-41423333D01*
X140249047Y-41375714D01*
X140106190Y-41375714D01*
X140010952Y-41423333D01*
X139963333Y-41470952D01*
X141296666Y-41375714D02*
X141296666Y-42042380D01*
X140868095Y-41375714D02*
X140868095Y-41899523D01*
X140915714Y-41994761D01*
X141010952Y-42042380D01*
X141153809Y-42042380D01*
X141249047Y-41994761D01*
X141296666Y-41947142D01*
X141772857Y-42042380D02*
X141772857Y-41042380D01*
X141772857Y-41423333D02*
X141868095Y-41375714D01*
X142058571Y-41375714D01*
X142153809Y-41423333D01*
X142201428Y-41470952D01*
X142249047Y-41566190D01*
X142249047Y-41851904D01*
X142201428Y-41947142D01*
X142153809Y-41994761D01*
X142058571Y-42042380D01*
X141868095Y-42042380D01*
X141772857Y-41994761D01*
X142677619Y-41947142D02*
X142725238Y-41994761D01*
X142677619Y-42042380D01*
X142630000Y-41994761D01*
X142677619Y-41947142D01*
X142677619Y-42042380D01*
X143582380Y-41994761D02*
X143487142Y-42042380D01*
X143296666Y-42042380D01*
X143201428Y-41994761D01*
X143153809Y-41947142D01*
X143106190Y-41851904D01*
X143106190Y-41566190D01*
X143153809Y-41470952D01*
X143201428Y-41423333D01*
X143296666Y-41375714D01*
X143487142Y-41375714D01*
X143582380Y-41423333D01*
X144153809Y-42042380D02*
X144058571Y-41994761D01*
X144010952Y-41947142D01*
X143963333Y-41851904D01*
X143963333Y-41566190D01*
X144010952Y-41470952D01*
X144058571Y-41423333D01*
X144153809Y-41375714D01*
X144296666Y-41375714D01*
X144391904Y-41423333D01*
X144439523Y-41470952D01*
X144487142Y-41566190D01*
X144487142Y-41851904D01*
X144439523Y-41947142D01*
X144391904Y-41994761D01*
X144296666Y-42042380D01*
X144153809Y-42042380D01*
X144915714Y-42042380D02*
X144915714Y-41375714D01*
X144915714Y-41470952D02*
X144963333Y-41423333D01*
X145058571Y-41375714D01*
X145201428Y-41375714D01*
X145296666Y-41423333D01*
X145344285Y-41518571D01*
X145344285Y-42042380D01*
X145344285Y-41518571D02*
X145391904Y-41423333D01*
X145487142Y-41375714D01*
X145630000Y-41375714D01*
X145725238Y-41423333D01*
X145772857Y-41518571D01*
X145772857Y-42042380D01*
X146963333Y-40994761D02*
X146106190Y-42280476D01*
X147439523Y-42042380D02*
X147344285Y-41994761D01*
X147296666Y-41947142D01*
X147249047Y-41851904D01*
X147249047Y-41566190D01*
X147296666Y-41470952D01*
X147344285Y-41423333D01*
X147439523Y-41375714D01*
X147582380Y-41375714D01*
X147677619Y-41423333D01*
X147725238Y-41470952D01*
X147772857Y-41566190D01*
X147772857Y-41851904D01*
X147725238Y-41947142D01*
X147677619Y-41994761D01*
X147582380Y-42042380D01*
X147439523Y-42042380D01*
X148106190Y-41375714D02*
X148296666Y-42042380D01*
X148487142Y-41566190D01*
X148677619Y-42042380D01*
X148868095Y-41375714D01*
X149630000Y-41994761D02*
X149534761Y-42042380D01*
X149344285Y-42042380D01*
X149249047Y-41994761D01*
X149201428Y-41899523D01*
X149201428Y-41518571D01*
X149249047Y-41423333D01*
X149344285Y-41375714D01*
X149534761Y-41375714D01*
X149630000Y-41423333D01*
X149677619Y-41518571D01*
X149677619Y-41613809D01*
X149201428Y-41709047D01*
X150106190Y-41375714D02*
X150106190Y-42042380D01*
X150106190Y-41470952D02*
X150153809Y-41423333D01*
X150249047Y-41375714D01*
X150391904Y-41375714D01*
X150487142Y-41423333D01*
X150534761Y-41518571D01*
X150534761Y-42042380D01*
X151010952Y-41375714D02*
X151010952Y-42042380D01*
X151010952Y-41470952D02*
X151058571Y-41423333D01*
X151153809Y-41375714D01*
X151296666Y-41375714D01*
X151391904Y-41423333D01*
X151439523Y-41518571D01*
X151439523Y-42042380D01*
X152296666Y-41994761D02*
X152201428Y-42042380D01*
X152010952Y-42042380D01*
X151915714Y-41994761D01*
X151868095Y-41899523D01*
X151868095Y-41518571D01*
X151915714Y-41423333D01*
X152010952Y-41375714D01*
X152201428Y-41375714D01*
X152296666Y-41423333D01*
X152344285Y-41518571D01*
X152344285Y-41613809D01*
X151868095Y-41709047D01*
X152677619Y-41375714D02*
X152868095Y-42042380D01*
X153058571Y-41566190D01*
X153249047Y-42042380D01*
X153439523Y-41375714D01*
X153963333Y-42042380D02*
X153868095Y-41994761D01*
X153820476Y-41947142D01*
X153772857Y-41851904D01*
X153772857Y-41566190D01*
X153820476Y-41470952D01*
X153868095Y-41423333D01*
X153963333Y-41375714D01*
X154106190Y-41375714D01*
X154201428Y-41423333D01*
X154249047Y-41470952D01*
X154296666Y-41566190D01*
X154296666Y-41851904D01*
X154249047Y-41947142D01*
X154201428Y-41994761D01*
X154106190Y-42042380D01*
X153963333Y-42042380D01*
X90592857Y-67668571D02*
X90592857Y-66168571D01*
X90950000Y-66168571D01*
X91164285Y-66240000D01*
X91307142Y-66382857D01*
X91378571Y-66525714D01*
X91450000Y-66811428D01*
X91450000Y-67025714D01*
X91378571Y-67311428D01*
X91307142Y-67454285D01*
X91164285Y-67597142D01*
X90950000Y-67668571D01*
X90592857Y-67668571D01*
X92950000Y-67668571D02*
X92450000Y-66954285D01*
X92092857Y-67668571D02*
X92092857Y-66168571D01*
X92664285Y-66168571D01*
X92807142Y-66240000D01*
X92878571Y-66311428D01*
X92950000Y-66454285D01*
X92950000Y-66668571D01*
X92878571Y-66811428D01*
X92807142Y-66882857D01*
X92664285Y-66954285D01*
X92092857Y-66954285D01*
X93592857Y-67668571D02*
X93592857Y-66168571D01*
X94092857Y-66168571D02*
X94592857Y-67668571D01*
X95092857Y-66168571D01*
X95521428Y-67240000D02*
X96235714Y-67240000D01*
X95378571Y-67668571D02*
X95878571Y-66168571D01*
X96378571Y-67668571D01*
X97878571Y-67668571D02*
X98664285Y-66668571D01*
X97878571Y-66668571D02*
X98664285Y-67668571D01*
X99164285Y-66311428D02*
X99235714Y-66240000D01*
X99378571Y-66168571D01*
X99735714Y-66168571D01*
X99878571Y-66240000D01*
X99950000Y-66311428D01*
X100021428Y-66454285D01*
X100021428Y-66597142D01*
X99950000Y-66811428D01*
X99092857Y-67668571D01*
X100021428Y-67668571D01*
X101664285Y-66668571D02*
X102021428Y-67668571D01*
X102378571Y-66668571D01*
X103235714Y-66168571D02*
X103378571Y-66168571D01*
X103521428Y-66240000D01*
X103592857Y-66311428D01*
X103664285Y-66454285D01*
X103735714Y-66740000D01*
X103735714Y-67097142D01*
X103664285Y-67382857D01*
X103592857Y-67525714D01*
X103521428Y-67597142D01*
X103378571Y-67668571D01*
X103235714Y-67668571D01*
X103092857Y-67597142D01*
X103021428Y-67525714D01*
X102950000Y-67382857D01*
X102878571Y-67097142D01*
X102878571Y-66740000D01*
X102950000Y-66454285D01*
X103021428Y-66311428D01*
X103092857Y-66240000D01*
X103235714Y-66168571D01*
X104378571Y-67525714D02*
X104450000Y-67597142D01*
X104378571Y-67668571D01*
X104307142Y-67597142D01*
X104378571Y-67525714D01*
X104378571Y-67668571D01*
X105807142Y-66168571D02*
X105092857Y-66168571D01*
X105021428Y-66882857D01*
X105092857Y-66811428D01*
X105235714Y-66740000D01*
X105592857Y-66740000D01*
X105735714Y-66811428D01*
X105807142Y-66882857D01*
X105878571Y-67025714D01*
X105878571Y-67382857D01*
X105807142Y-67525714D01*
X105735714Y-67597142D01*
X105592857Y-67668571D01*
X105235714Y-67668571D01*
X105092857Y-67597142D01*
X105021428Y-67525714D01*
X107592857Y-67240000D02*
X108307142Y-67240000D01*
X107450000Y-67668571D02*
X107950000Y-66168571D01*
X108450000Y-67668571D01*
X109664285Y-67668571D02*
X108950000Y-67668571D01*
X108950000Y-66168571D01*
X110164285Y-67668571D02*
X110164285Y-66168571D01*
X110735714Y-66168571D01*
X110878571Y-66240000D01*
X110950000Y-66311428D01*
X111021428Y-66454285D01*
X111021428Y-66668571D01*
X110950000Y-66811428D01*
X110878571Y-66882857D01*
X110735714Y-66954285D01*
X110164285Y-66954285D01*
X111664285Y-67668571D02*
X111664285Y-66168571D01*
X111664285Y-66882857D02*
X112521428Y-66882857D01*
X112521428Y-67668571D02*
X112521428Y-66168571D01*
X113164285Y-67240000D02*
X113878571Y-67240000D01*
X113021428Y-67668571D02*
X113521428Y-66168571D01*
X114021428Y-67668571D01*
D12*
X127100000Y-33888571D02*
X127600000Y-35388571D01*
X128100000Y-33888571D01*
X129100000Y-34602857D02*
X129314285Y-34674285D01*
X129385714Y-34745714D01*
X129457142Y-34888571D01*
X129457142Y-35102857D01*
X129385714Y-35245714D01*
X129314285Y-35317142D01*
X129171428Y-35388571D01*
X128600000Y-35388571D01*
X128600000Y-33888571D01*
X129100000Y-33888571D01*
X129242857Y-33960000D01*
X129314285Y-34031428D01*
X129385714Y-34174285D01*
X129385714Y-34317142D01*
X129314285Y-34460000D01*
X129242857Y-34531428D01*
X129100000Y-34602857D01*
X128600000Y-34602857D01*
X130100000Y-33888571D02*
X130100000Y-35102857D01*
X130171428Y-35245714D01*
X130242857Y-35317142D01*
X130385714Y-35388571D01*
X130671428Y-35388571D01*
X130814285Y-35317142D01*
X130885714Y-35245714D01*
X130957142Y-35102857D01*
X130957142Y-33888571D01*
X131600000Y-35317142D02*
X131814285Y-35388571D01*
X132171428Y-35388571D01*
X132314285Y-35317142D01*
X132385714Y-35245714D01*
X132457142Y-35102857D01*
X132457142Y-34960000D01*
X132385714Y-34817142D01*
X132314285Y-34745714D01*
X132171428Y-34674285D01*
X131885714Y-34602857D01*
X131742857Y-34531428D01*
X131671428Y-34460000D01*
X131600000Y-34317142D01*
X131600000Y-34174285D01*
X131671428Y-34031428D01*
X131742857Y-33960000D01*
X131885714Y-33888571D01*
X132242857Y-33888571D01*
X132457142Y-33960000D01*
X90280857Y-34014571D02*
X90280857Y-35228857D01*
X90352285Y-35371714D01*
X90423714Y-35443142D01*
X90566571Y-35514571D01*
X90852285Y-35514571D01*
X90995142Y-35443142D01*
X91066571Y-35371714D01*
X91138000Y-35228857D01*
X91138000Y-34014571D01*
X91780857Y-35443142D02*
X91995142Y-35514571D01*
X92352285Y-35514571D01*
X92495142Y-35443142D01*
X92566571Y-35371714D01*
X92638000Y-35228857D01*
X92638000Y-35086000D01*
X92566571Y-34943142D01*
X92495142Y-34871714D01*
X92352285Y-34800285D01*
X92066571Y-34728857D01*
X91923714Y-34657428D01*
X91852285Y-34586000D01*
X91780857Y-34443142D01*
X91780857Y-34300285D01*
X91852285Y-34157428D01*
X91923714Y-34086000D01*
X92066571Y-34014571D01*
X92423714Y-34014571D01*
X92638000Y-34086000D01*
X93209428Y-35086000D02*
X93923714Y-35086000D01*
X93066571Y-35514571D02*
X93566571Y-34014571D01*
X94066571Y-35514571D01*
X95423714Y-35514571D02*
X94923714Y-34800285D01*
X94566571Y-35514571D02*
X94566571Y-34014571D01*
X95138000Y-34014571D01*
X95280857Y-34086000D01*
X95352285Y-34157428D01*
X95423714Y-34300285D01*
X95423714Y-34514571D01*
X95352285Y-34657428D01*
X95280857Y-34728857D01*
X95138000Y-34800285D01*
X94566571Y-34800285D01*
X95852285Y-34014571D02*
X96709428Y-34014571D01*
X96280857Y-35514571D02*
X96280857Y-34014571D01*
X98280857Y-33943142D02*
X96995142Y-35871714D01*
X98780857Y-35514571D02*
X98780857Y-34014571D01*
X99352285Y-34014571D01*
X99495142Y-34086000D01*
X99566571Y-34157428D01*
X99638000Y-34300285D01*
X99638000Y-34514571D01*
X99566571Y-34657428D01*
X99495142Y-34728857D01*
X99352285Y-34800285D01*
X98780857Y-34800285D01*
X100138000Y-34014571D02*
X100495142Y-35514571D01*
X100780857Y-34443142D01*
X101066571Y-35514571D01*
X101423714Y-34014571D01*
X101995142Y-35514571D02*
X101995142Y-34014571D01*
X102495142Y-35086000D01*
X102995142Y-34014571D01*
X102995142Y-35514571D01*
X107103714Y-35371714D02*
X107032285Y-35443142D01*
X106818000Y-35514571D01*
X106675142Y-35514571D01*
X106460857Y-35443142D01*
X106318000Y-35300285D01*
X106246571Y-35157428D01*
X106175142Y-34871714D01*
X106175142Y-34657428D01*
X106246571Y-34371714D01*
X106318000Y-34228857D01*
X106460857Y-34086000D01*
X106675142Y-34014571D01*
X106818000Y-34014571D01*
X107032285Y-34086000D01*
X107103714Y-34157428D01*
X107675142Y-35086000D02*
X108389428Y-35086000D01*
X107532285Y-35514571D02*
X108032285Y-34014571D01*
X108532285Y-35514571D01*
X109032285Y-35514571D02*
X109032285Y-34014571D01*
X109889428Y-35514571D01*
X109889428Y-34014571D01*
X138861714Y-35006571D02*
X138861714Y-33506571D01*
X139504571Y-33649428D02*
X139576000Y-33578000D01*
X139718857Y-33506571D01*
X140076000Y-33506571D01*
X140218857Y-33578000D01*
X140290285Y-33649428D01*
X140361714Y-33792285D01*
X140361714Y-33935142D01*
X140290285Y-34149428D01*
X139433142Y-35006571D01*
X140361714Y-35006571D01*
X141861714Y-34863714D02*
X141790285Y-34935142D01*
X141576000Y-35006571D01*
X141433142Y-35006571D01*
X141218857Y-34935142D01*
X141076000Y-34792285D01*
X141004571Y-34649428D01*
X140933142Y-34363714D01*
X140933142Y-34149428D01*
X141004571Y-33863714D01*
X141076000Y-33720857D01*
X141218857Y-33578000D01*
X141433142Y-33506571D01*
X141576000Y-33506571D01*
X141790285Y-33578000D01*
X141861714Y-33649428D01*
X149331428Y-35006571D02*
X149331428Y-33506571D01*
X149902857Y-33506571D01*
X150045714Y-33578000D01*
X150117142Y-33649428D01*
X150188571Y-33792285D01*
X150188571Y-34006571D01*
X150117142Y-34149428D01*
X150045714Y-34220857D01*
X149902857Y-34292285D01*
X149331428Y-34292285D01*
X151688571Y-35006571D02*
X151188571Y-34292285D01*
X150831428Y-35006571D02*
X150831428Y-33506571D01*
X151402857Y-33506571D01*
X151545714Y-33578000D01*
X151617142Y-33649428D01*
X151688571Y-33792285D01*
X151688571Y-34006571D01*
X151617142Y-34149428D01*
X151545714Y-34220857D01*
X151402857Y-34292285D01*
X150831428Y-34292285D01*
X152617142Y-33506571D02*
X152902857Y-33506571D01*
X153045714Y-33578000D01*
X153188571Y-33720857D01*
X153260000Y-34006571D01*
X153260000Y-34506571D01*
X153188571Y-34792285D01*
X153045714Y-34935142D01*
X152902857Y-35006571D01*
X152617142Y-35006571D01*
X152474285Y-34935142D01*
X152331428Y-34792285D01*
X152260000Y-34506571D01*
X152260000Y-34006571D01*
X152331428Y-33720857D01*
X152474285Y-33578000D01*
X152617142Y-33506571D01*
X154688571Y-33578000D02*
X154545714Y-33506571D01*
X154331428Y-33506571D01*
X154117142Y-33578000D01*
X153974285Y-33720857D01*
X153902857Y-33863714D01*
X153831428Y-34149428D01*
X153831428Y-34363714D01*
X153902857Y-34649428D01*
X153974285Y-34792285D01*
X154117142Y-34935142D01*
X154331428Y-35006571D01*
X154474285Y-35006571D01*
X154688571Y-34935142D01*
X154760000Y-34863714D01*
X154760000Y-34363714D01*
X154474285Y-34363714D01*
X150712571Y-75067142D02*
X150926857Y-75138571D01*
X151284000Y-75138571D01*
X151426857Y-75067142D01*
X151498285Y-74995714D01*
X151569714Y-74852857D01*
X151569714Y-74710000D01*
X151498285Y-74567142D01*
X151426857Y-74495714D01*
X151284000Y-74424285D01*
X150998285Y-74352857D01*
X150855428Y-74281428D01*
X150784000Y-74210000D01*
X150712571Y-74067142D01*
X150712571Y-73924285D01*
X150784000Y-73781428D01*
X150855428Y-73710000D01*
X150998285Y-73638571D01*
X151355428Y-73638571D01*
X151569714Y-73710000D01*
X152212571Y-75138571D02*
X152212571Y-73638571D01*
X152784000Y-73638571D01*
X152926857Y-73710000D01*
X152998285Y-73781428D01*
X153069714Y-73924285D01*
X153069714Y-74138571D01*
X152998285Y-74281428D01*
X152926857Y-74352857D01*
X152784000Y-74424285D01*
X152212571Y-74424285D01*
X153712571Y-75138571D02*
X153712571Y-73638571D01*
X155498285Y-73781428D02*
X155569714Y-73710000D01*
X155712571Y-73638571D01*
X156069714Y-73638571D01*
X156212571Y-73710000D01*
X156284000Y-73781428D01*
X156355428Y-73924285D01*
X156355428Y-74067142D01*
X156284000Y-74281428D01*
X155426857Y-75138571D01*
X156355428Y-75138571D01*
X128372571Y-75138571D02*
X128372571Y-73638571D01*
X128372571Y-74352857D02*
X129229714Y-74352857D01*
X129229714Y-75138571D02*
X129229714Y-73638571D01*
X129872571Y-74710000D02*
X130586857Y-74710000D01*
X129729714Y-75138571D02*
X130229714Y-73638571D01*
X130729714Y-75138571D01*
X131944000Y-75138571D02*
X131229714Y-75138571D01*
X131229714Y-73638571D01*
X133158285Y-75138571D02*
X132444000Y-75138571D01*
X132444000Y-73638571D01*
X134729714Y-73781428D02*
X134801142Y-73710000D01*
X134944000Y-73638571D01*
X135301142Y-73638571D01*
X135444000Y-73710000D01*
X135515428Y-73781428D01*
X135586857Y-73924285D01*
X135586857Y-74067142D01*
X135515428Y-74281428D01*
X134658285Y-75138571D01*
X135586857Y-75138571D01*
X106020571Y-75392571D02*
X106020571Y-73892571D01*
X106020571Y-74606857D02*
X106877714Y-74606857D01*
X106877714Y-75392571D02*
X106877714Y-73892571D01*
X107520571Y-74964000D02*
X108234857Y-74964000D01*
X107377714Y-75392571D02*
X107877714Y-73892571D01*
X108377714Y-75392571D01*
X109592000Y-75392571D02*
X108877714Y-75392571D01*
X108877714Y-73892571D01*
X110806285Y-75392571D02*
X110092000Y-75392571D01*
X110092000Y-73892571D01*
X113234857Y-75392571D02*
X112377714Y-75392571D01*
X112806285Y-75392571D02*
X112806285Y-73892571D01*
X112663428Y-74106857D01*
X112520571Y-74249714D01*
X112377714Y-74321142D01*
X88747142Y-76101428D02*
X88818571Y-75887142D01*
X88818571Y-75530000D01*
X88747142Y-75387142D01*
X88675714Y-75315714D01*
X88532857Y-75244285D01*
X88390000Y-75244285D01*
X88247142Y-75315714D01*
X88175714Y-75387142D01*
X88104285Y-75530000D01*
X88032857Y-75815714D01*
X87961428Y-75958571D01*
X87890000Y-76030000D01*
X87747142Y-76101428D01*
X87604285Y-76101428D01*
X87461428Y-76030000D01*
X87390000Y-75958571D01*
X87318571Y-75815714D01*
X87318571Y-75458571D01*
X87390000Y-75244285D01*
X88818571Y-74601428D02*
X87318571Y-74601428D01*
X87318571Y-74030000D01*
X87390000Y-73887142D01*
X87461428Y-73815714D01*
X87604285Y-73744285D01*
X87818571Y-73744285D01*
X87961428Y-73815714D01*
X88032857Y-73887142D01*
X88104285Y-74030000D01*
X88104285Y-74601428D01*
X88818571Y-73101428D02*
X87318571Y-73101428D01*
X88818571Y-70458571D02*
X88818571Y-71315714D01*
X88818571Y-70887142D02*
X87318571Y-70887142D01*
X87532857Y-71030000D01*
X87675714Y-71172857D01*
X87747142Y-71315714D01*
X74887142Y-43234761D02*
X74887142Y-44853809D01*
X74958571Y-45044285D01*
X75030000Y-45139523D01*
X75172857Y-45234761D01*
X75458571Y-45234761D01*
X75601428Y-45139523D01*
X75672857Y-45044285D01*
X75744285Y-44853809D01*
X75744285Y-43234761D01*
X77244285Y-45234761D02*
X76387142Y-45234761D01*
X76815714Y-45234761D02*
X76815714Y-43234761D01*
X76672857Y-43520476D01*
X76530000Y-43710952D01*
X76387142Y-43806190D01*
X74975714Y-51304761D02*
X75475714Y-53304761D01*
X75975714Y-51304761D01*
X77261428Y-53304761D02*
X76404285Y-53304761D01*
X76832857Y-53304761D02*
X76832857Y-51304761D01*
X76690000Y-51590476D01*
X76547142Y-51780952D01*
X76404285Y-51876190D01*
X75092857Y-59424761D02*
X75450000Y-61424761D01*
X75735714Y-59996190D01*
X76021428Y-61424761D01*
X76378571Y-59424761D01*
X77735714Y-61424761D02*
X76878571Y-61424761D01*
X77307142Y-61424761D02*
X77307142Y-59424761D01*
X77164285Y-59710476D01*
X77021428Y-59900952D01*
X76878571Y-59996190D01*
X166452857Y-59094761D02*
X166810000Y-61094761D01*
X167095714Y-59666190D01*
X167381428Y-61094761D01*
X167738571Y-59094761D01*
X168238571Y-59285238D02*
X168310000Y-59190000D01*
X168452857Y-59094761D01*
X168810000Y-59094761D01*
X168952857Y-59190000D01*
X169024285Y-59285238D01*
X169095714Y-59475714D01*
X169095714Y-59666190D01*
X169024285Y-59951904D01*
X168167142Y-61094761D01*
X169095714Y-61094761D01*
X166685714Y-51034761D02*
X167185714Y-53034761D01*
X167685714Y-51034761D01*
X168114285Y-51225238D02*
X168185714Y-51130000D01*
X168328571Y-51034761D01*
X168685714Y-51034761D01*
X168828571Y-51130000D01*
X168900000Y-51225238D01*
X168971428Y-51415714D01*
X168971428Y-51606190D01*
X168900000Y-51891904D01*
X168042857Y-53034761D01*
X168971428Y-53034761D01*
X163667142Y-47724761D02*
X163667142Y-49343809D01*
X163738571Y-49534285D01*
X163810000Y-49629523D01*
X163952857Y-49724761D01*
X164238571Y-49724761D01*
X164381428Y-49629523D01*
X164452857Y-49534285D01*
X164524285Y-49343809D01*
X164524285Y-47724761D01*
X165167142Y-47915238D02*
X165238571Y-47820000D01*
X165381428Y-47724761D01*
X165738571Y-47724761D01*
X165881428Y-47820000D01*
X165952857Y-47915238D01*
X166024285Y-48105714D01*
X166024285Y-48296190D01*
X165952857Y-48581904D01*
X165095714Y-49724761D01*
X166024285Y-49724761D01*
D13*
%TO.C,R58*%
X108061359Y-70090000D02*
X108368641Y-70090000D01*
X108061359Y-70850000D02*
X108368641Y-70850000D01*
%TO.C,R57*%
X108065359Y-71716000D02*
X108372641Y-71716000D01*
X108065359Y-72476000D02*
X108372641Y-72476000D01*
%TO.C,R56*%
X108061359Y-68490000D02*
X108368641Y-68490000D01*
X108061359Y-69250000D02*
X108368641Y-69250000D01*
%TO.C,C47*%
X106959420Y-45540000D02*
X107240580Y-45540000D01*
X106959420Y-46560000D02*
X107240580Y-46560000D01*
%TO.C,C42*%
X125765000Y-61628748D02*
X125765000Y-62151252D01*
X124295000Y-61628748D02*
X124295000Y-62151252D01*
%TO.C,C30*%
X78540000Y-72882164D02*
X78540000Y-73097836D01*
X79260000Y-72882164D02*
X79260000Y-73097836D01*
%TO.C,D11*%
X125850000Y-33885000D02*
X125850000Y-35885000D01*
X125850000Y-35885000D02*
X129750000Y-35885000D01*
X125850000Y-33885000D02*
X129750000Y-33885000D01*
%TO.C,J9*%
X127610000Y-76880000D02*
X127610000Y-79540000D01*
X137830000Y-76880000D02*
X127610000Y-76880000D01*
X137830000Y-79540000D02*
X127610000Y-79540000D01*
X137830000Y-76880000D02*
X137830000Y-79540000D01*
X139100000Y-76880000D02*
X140430000Y-76880000D01*
X140430000Y-76880000D02*
X140430000Y-78210000D01*
%TO.C,J5*%
X126955000Y-33150000D02*
X126955000Y-31820000D01*
X128285000Y-33150000D02*
X126955000Y-33150000D01*
X129555000Y-33150000D02*
X129555000Y-30490000D01*
X129555000Y-30490000D02*
X132155000Y-30490000D01*
X129555000Y-33150000D02*
X132155000Y-33150000D01*
X132155000Y-33150000D02*
X132155000Y-30490000D01*
%TO.C,TH2*%
X153172500Y-49997742D02*
X153172500Y-50472258D01*
X152127500Y-49997742D02*
X152127500Y-50472258D01*
%TO.C,TH1*%
X101847500Y-51222742D02*
X101847500Y-51697258D01*
X100802500Y-51222742D02*
X100802500Y-51697258D01*
%TO.C,C33*%
X128710000Y-49957836D02*
X128710000Y-49742164D01*
X129430000Y-49957836D02*
X129430000Y-49742164D01*
%TO.C,U15*%
X117165000Y-51260000D02*
X117165000Y-52600000D01*
X116215000Y-51260000D02*
X117165000Y-51260000D01*
X116215000Y-50310000D02*
X116215000Y-51260000D01*
X116215000Y-41040000D02*
X117165000Y-41040000D01*
X116215000Y-41990000D02*
X116215000Y-41040000D01*
X126435000Y-51260000D02*
X125485000Y-51260000D01*
X126435000Y-50310000D02*
X126435000Y-51260000D01*
X126435000Y-41040000D02*
X125485000Y-41040000D01*
X126435000Y-41990000D02*
X126435000Y-41040000D01*
%TO.C,U7*%
X77000000Y-39200000D02*
X73400000Y-39200000D01*
X77000000Y-39200000D02*
X79200000Y-39200000D01*
X77000000Y-42420000D02*
X74800000Y-42420000D01*
X77000000Y-42420000D02*
X79200000Y-42420000D01*
%TO.C,R64*%
X79466359Y-67982000D02*
X79773641Y-67982000D01*
X79466359Y-67222000D02*
X79773641Y-67222000D01*
%TO.C,R63*%
X89933641Y-44362000D02*
X89626359Y-44362000D01*
X89933641Y-45122000D02*
X89626359Y-45122000D01*
%TO.C,R62*%
X79556359Y-38890000D02*
X79863641Y-38890000D01*
X79556359Y-38130000D02*
X79863641Y-38130000D01*
%TO.C,R61*%
X164863641Y-71286000D02*
X164556359Y-71286000D01*
X164863641Y-72046000D02*
X164556359Y-72046000D01*
%TO.C,R60*%
X156708000Y-65467641D02*
X156708000Y-65160359D01*
X155948000Y-65467641D02*
X155948000Y-65160359D01*
%TO.C,R59*%
X167376000Y-43119641D02*
X167376000Y-42812359D01*
X166616000Y-43119641D02*
X166616000Y-42812359D01*
%TO.C,C68*%
X77507836Y-71750000D02*
X77292164Y-71750000D01*
X77507836Y-72470000D02*
X77292164Y-72470000D01*
%TO.C,C67*%
X77695836Y-67242000D02*
X77480164Y-67242000D01*
X77695836Y-67962000D02*
X77480164Y-67962000D01*
%TO.C,C66*%
X79307836Y-42750000D02*
X79092164Y-42750000D01*
X79307836Y-43470000D02*
X79092164Y-43470000D01*
%TO.C,C65*%
X90648000Y-43325836D02*
X90648000Y-43110164D01*
X89928000Y-43325836D02*
X89928000Y-43110164D01*
%TO.C,C64*%
X89207836Y-45906000D02*
X88992164Y-45906000D01*
X89207836Y-46626000D02*
X88992164Y-46626000D01*
%TO.C,C63*%
X77907836Y-38150000D02*
X77692164Y-38150000D01*
X77907836Y-38870000D02*
X77692164Y-38870000D01*
%TO.C,C62*%
X166692164Y-67490000D02*
X166907836Y-67490000D01*
X166692164Y-66770000D02*
X166907836Y-66770000D01*
%TO.C,C61*%
X166606164Y-72026000D02*
X166821836Y-72026000D01*
X166606164Y-71306000D02*
X166821836Y-71306000D01*
%TO.C,C60*%
X153386000Y-62093836D02*
X153386000Y-61878164D01*
X152666000Y-62093836D02*
X152666000Y-61878164D01*
%TO.C,C59*%
X155672000Y-65423836D02*
X155672000Y-65208164D01*
X154952000Y-65423836D02*
X154952000Y-65208164D01*
%TO.C,C58*%
X165646164Y-38244000D02*
X165861836Y-38244000D01*
X165646164Y-37524000D02*
X165861836Y-37524000D01*
%TO.C,C57*%
X168372000Y-43099836D02*
X168372000Y-42884164D01*
X167652000Y-43099836D02*
X167652000Y-42884164D01*
%TO.C,J6*%
X101380000Y-33210000D02*
X101380000Y-30550000D01*
X91160000Y-33210000D02*
X101380000Y-33210000D01*
X91160000Y-30550000D02*
X101380000Y-30550000D01*
X91160000Y-33210000D02*
X91160000Y-30550000D01*
X89890000Y-33210000D02*
X88560000Y-33210000D01*
X88560000Y-33210000D02*
X88560000Y-31880000D01*
%TO.C,U2*%
X147870000Y-40135000D02*
X149820000Y-40135000D01*
X147870000Y-40135000D02*
X145920000Y-40135000D01*
X147870000Y-35015000D02*
X149820000Y-35015000D01*
X147870000Y-35015000D02*
X144420000Y-35015000D01*
%TO.C,J12*%
X126150000Y-79560000D02*
X126150000Y-66710000D01*
X123600000Y-63860000D02*
X120450000Y-63860000D01*
X117850000Y-66710000D02*
X117850000Y-79560000D01*
X117850000Y-79560000D02*
X126150000Y-79560000D01*
X126150000Y-66710000D02*
X123600000Y-63860000D01*
X120450000Y-63860000D02*
X117850000Y-66710000D01*
%TO.C,J10*%
X141470000Y-76880000D02*
X141470000Y-79540000D01*
X154230000Y-76880000D02*
X141470000Y-76880000D01*
X154230000Y-79540000D02*
X141470000Y-79540000D01*
X154230000Y-76880000D02*
X154230000Y-79540000D01*
X155500000Y-76880000D02*
X156830000Y-76880000D01*
X156830000Y-76880000D02*
X156830000Y-78210000D01*
%TO.C,J11*%
X113970000Y-33140000D02*
X113970000Y-30480000D01*
X106290000Y-33140000D02*
X113970000Y-33140000D01*
X106290000Y-30480000D02*
X113970000Y-30480000D01*
X106290000Y-33140000D02*
X106290000Y-30480000D01*
X105020000Y-33140000D02*
X103690000Y-33140000D01*
X103690000Y-33140000D02*
X103690000Y-31810000D01*
%TO.C,J8*%
X86970000Y-76880000D02*
X86970000Y-79540000D01*
X99730000Y-76880000D02*
X86970000Y-76880000D01*
X99730000Y-79540000D02*
X86970000Y-79540000D01*
X99730000Y-76880000D02*
X99730000Y-79540000D01*
X101000000Y-76880000D02*
X102330000Y-76880000D01*
X102330000Y-76880000D02*
X102330000Y-78210000D01*
%TO.C,J4*%
X143875000Y-33140000D02*
X143875000Y-30480000D01*
X136195000Y-33140000D02*
X143875000Y-33140000D01*
X136195000Y-30480000D02*
X143875000Y-30480000D01*
X136195000Y-33140000D02*
X136195000Y-30480000D01*
X134925000Y-33140000D02*
X133595000Y-33140000D01*
X133595000Y-33140000D02*
X133595000Y-31810000D01*
%TO.C,J2*%
X157690000Y-33140000D02*
X157690000Y-30480000D01*
X147470000Y-33140000D02*
X157690000Y-33140000D01*
X147470000Y-30480000D02*
X157690000Y-30480000D01*
X147470000Y-33140000D02*
X147470000Y-30480000D01*
X146200000Y-33140000D02*
X144870000Y-33140000D01*
X144870000Y-33140000D02*
X144870000Y-31810000D01*
%TO.C,J1*%
X103310000Y-76880000D02*
X103310000Y-79540000D01*
X113530000Y-76880000D02*
X103310000Y-76880000D01*
X113530000Y-79540000D02*
X103310000Y-79540000D01*
X113530000Y-76880000D02*
X113530000Y-79540000D01*
X114800000Y-76880000D02*
X116130000Y-76880000D01*
X116130000Y-76880000D02*
X116130000Y-78210000D01*
%TO.C,C44*%
X123947164Y-54510000D02*
X124162836Y-54510000D01*
X123947164Y-53790000D02*
X124162836Y-53790000D01*
%TO.C,C43*%
X123987164Y-55510000D02*
X124202836Y-55510000D01*
X123987164Y-54790000D02*
X124202836Y-54790000D01*
%TO.C,SW3*%
X103040000Y-64210000D02*
X102740000Y-64210000D01*
X99900000Y-60070000D02*
X100200000Y-60070000D01*
X102740000Y-60070000D02*
X103040000Y-60070000D01*
X99900000Y-64210000D02*
X99900000Y-60070000D01*
X100200000Y-64210000D02*
X99900000Y-64210000D01*
X103040000Y-60070000D02*
X103040000Y-64210000D01*
%TO.C,SW2*%
X106780000Y-65770000D02*
X106780000Y-65470000D01*
X110920000Y-62630000D02*
X110920000Y-62930000D01*
X110920000Y-65470000D02*
X110920000Y-65770000D01*
X106780000Y-62630000D02*
X110920000Y-62630000D01*
X106780000Y-62930000D02*
X106780000Y-62630000D01*
X110920000Y-65770000D02*
X106780000Y-65770000D01*
%TO.C,SW1*%
X110920000Y-58780000D02*
X110920000Y-59080000D01*
X106780000Y-61920000D02*
X106780000Y-61620000D01*
X106780000Y-59080000D02*
X106780000Y-58780000D01*
X110920000Y-61920000D02*
X106780000Y-61920000D01*
X110920000Y-61620000D02*
X110920000Y-61920000D01*
X106780000Y-58780000D02*
X110920000Y-58780000D01*
%TO.C,C1*%
X154330580Y-38970000D02*
X154049420Y-38970000D01*
X154330580Y-39990000D02*
X154049420Y-39990000D01*
%TO.C,C2*%
X143077836Y-37190000D02*
X142862164Y-37190000D01*
X143077836Y-36470000D02*
X142862164Y-36470000D01*
%TO.C,C3*%
X143147836Y-35330000D02*
X142932164Y-35330000D01*
X143147836Y-36050000D02*
X142932164Y-36050000D01*
%TO.C,C4*%
X143740000Y-38714420D02*
X143740000Y-38995580D01*
X142720000Y-38714420D02*
X142720000Y-38995580D01*
%TO.C,C5*%
X163440000Y-34537836D02*
X163440000Y-34322164D01*
X164160000Y-34537836D02*
X164160000Y-34322164D01*
%TO.C,C6*%
X143410000Y-56194420D02*
X143410000Y-56475580D01*
X142390000Y-56194420D02*
X142390000Y-56475580D01*
%TO.C,C7*%
X133095836Y-54570000D02*
X132880164Y-54570000D01*
X133095836Y-53850000D02*
X132880164Y-53850000D01*
%TO.C,C8*%
X133067836Y-52875000D02*
X132852164Y-52875000D01*
X133067836Y-53595000D02*
X132852164Y-53595000D01*
%TO.C,C9*%
X133466000Y-56780420D02*
X133466000Y-57061580D01*
X134486000Y-56780420D02*
X134486000Y-57061580D01*
%TO.C,C10*%
X152158000Y-59874164D02*
X152158000Y-60089836D01*
X152878000Y-59874164D02*
X152878000Y-60089836D01*
%TO.C,C11*%
X150990000Y-71294420D02*
X150990000Y-71575580D01*
X152010000Y-71294420D02*
X152010000Y-71575580D01*
%TO.C,C12*%
X142407836Y-69150000D02*
X142192164Y-69150000D01*
X142407836Y-69870000D02*
X142192164Y-69870000D01*
%TO.C,C13*%
X142407836Y-68670000D02*
X142192164Y-68670000D01*
X142407836Y-67950000D02*
X142192164Y-67950000D01*
%TO.C,C14*%
X143010000Y-71344420D02*
X143010000Y-71625580D01*
X141990000Y-71344420D02*
X141990000Y-71625580D01*
%TO.C,C15*%
X164260000Y-76802164D02*
X164260000Y-77017836D01*
X163540000Y-76802164D02*
X163540000Y-77017836D01*
%TO.C,C16*%
X86470000Y-36500580D02*
X86470000Y-36219420D01*
X87490000Y-36500580D02*
X87490000Y-36219420D01*
%TO.C,C17*%
X100592164Y-38850000D02*
X100807836Y-38850000D01*
X100592164Y-39570000D02*
X100807836Y-39570000D01*
%TO.C,C18*%
X100592164Y-42470000D02*
X100807836Y-42470000D01*
X100592164Y-41750000D02*
X100807836Y-41750000D01*
%TO.C,C19*%
X99510000Y-37605580D02*
X99510000Y-37324420D01*
X98490000Y-37605580D02*
X98490000Y-37324420D01*
%TO.C,C20*%
X79840000Y-32917836D02*
X79840000Y-32702164D01*
X80560000Y-32917836D02*
X80560000Y-32702164D01*
%TO.C,C21*%
X97148000Y-49949580D02*
X97148000Y-49668420D01*
X96128000Y-49949580D02*
X96128000Y-49668420D01*
%TO.C,C22*%
X109092164Y-56820000D02*
X109307836Y-56820000D01*
X109092164Y-56100000D02*
X109307836Y-56100000D01*
%TO.C,C23*%
X109092164Y-57100000D02*
X109307836Y-57100000D01*
X109092164Y-57820000D02*
X109307836Y-57820000D01*
%TO.C,C24*%
X107558000Y-54575580D02*
X107558000Y-54294420D01*
X108578000Y-54575580D02*
X108578000Y-54294420D01*
%TO.C,C25*%
X89940000Y-60902164D02*
X89940000Y-61117836D01*
X90660000Y-60902164D02*
X90660000Y-61117836D01*
%TO.C,C26*%
X91184420Y-69300000D02*
X91465580Y-69300000D01*
X91184420Y-70320000D02*
X91465580Y-70320000D01*
%TO.C,C27*%
X101072164Y-74770000D02*
X101287836Y-74770000D01*
X101072164Y-74050000D02*
X101287836Y-74050000D01*
%TO.C,C28*%
X101092164Y-75970000D02*
X101307836Y-75970000D01*
X101092164Y-75250000D02*
X101307836Y-75250000D01*
%TO.C,C29*%
X100810000Y-72475580D02*
X100810000Y-72194420D01*
X99790000Y-72475580D02*
X99790000Y-72194420D01*
%TO.C,C31*%
X115730000Y-52490580D02*
X115730000Y-52209420D01*
X114710000Y-52490580D02*
X114710000Y-52209420D01*
%TO.C,C32*%
X130415000Y-49907836D02*
X130415000Y-49692164D01*
X129695000Y-49907836D02*
X129695000Y-49692164D01*
%TO.C,C34*%
X127660000Y-40552164D02*
X127660000Y-40767836D01*
X126940000Y-40552164D02*
X126940000Y-40767836D01*
%TO.C,C35*%
X127915000Y-40552164D02*
X127915000Y-40767836D01*
X128635000Y-40552164D02*
X128635000Y-40767836D01*
%TO.C,C36*%
X116017164Y-39990000D02*
X116232836Y-39990000D01*
X116017164Y-40710000D02*
X116232836Y-40710000D01*
%TO.C,C37*%
X116017164Y-39510000D02*
X116232836Y-39510000D01*
X116017164Y-38790000D02*
X116232836Y-38790000D01*
%TO.C,C38*%
X114485000Y-49742164D02*
X114485000Y-49957836D01*
X113765000Y-49742164D02*
X113765000Y-49957836D01*
%TO.C,C39*%
X112765000Y-49722164D02*
X112765000Y-49937836D01*
X113485000Y-49722164D02*
X113485000Y-49937836D01*
%TO.C,C40*%
X116165000Y-52637836D02*
X116165000Y-52422164D01*
X116885000Y-52637836D02*
X116885000Y-52422164D01*
%TO.C,C41*%
X133041252Y-68155000D02*
X132518748Y-68155000D01*
X133041252Y-69625000D02*
X132518748Y-69625000D01*
%TO.C,C45*%
X116240000Y-58837836D02*
X116240000Y-58622164D01*
X116960000Y-58837836D02*
X116960000Y-58622164D01*
%TO.C,C46*%
X121615000Y-58712164D02*
X121615000Y-58927836D01*
X122335000Y-58712164D02*
X122335000Y-58927836D01*
%TO.C,C48*%
X110847836Y-48280000D02*
X110632164Y-48280000D01*
X110847836Y-47560000D02*
X110632164Y-47560000D01*
%TO.C,C49*%
X105960000Y-63787836D02*
X105960000Y-63572164D01*
X105240000Y-63787836D02*
X105240000Y-63572164D01*
%TO.C,C50*%
X110190000Y-41350580D02*
X110190000Y-41069420D01*
X111210000Y-41350580D02*
X111210000Y-41069420D01*
%TO.C,C51*%
X131059420Y-41950000D02*
X131340580Y-41950000D01*
X131059420Y-42970000D02*
X131340580Y-42970000D01*
%TO.C,C52*%
X115944000Y-34976580D02*
X115944000Y-34695420D01*
X114924000Y-34976580D02*
X114924000Y-34695420D01*
%TO.C,C53*%
X101315000Y-49167836D02*
X101315000Y-48952164D01*
X102035000Y-49167836D02*
X102035000Y-48952164D01*
%TO.C,C54*%
X135640580Y-46010000D02*
X135359420Y-46010000D01*
X135640580Y-47030000D02*
X135359420Y-47030000D01*
%TO.C,C55*%
X152710000Y-47897836D02*
X152710000Y-47682164D01*
X151990000Y-47897836D02*
X151990000Y-47682164D01*
%TO.C,C56*%
X98777836Y-64152000D02*
X98562164Y-64152000D01*
X98777836Y-63432000D02*
X98562164Y-63432000D01*
%TO.C,D1*%
X156350000Y-42430000D02*
X156350000Y-40430000D01*
X156350000Y-40430000D02*
X152450000Y-40430000D01*
X156350000Y-42430000D02*
X152450000Y-42430000D01*
%TO.C,D2*%
X140575000Y-59810000D02*
X140575000Y-57810000D01*
X140575000Y-57810000D02*
X136675000Y-57810000D01*
X140575000Y-59810000D02*
X136675000Y-59810000D01*
%TO.C,D3*%
X149100000Y-75060000D02*
X145200000Y-75060000D01*
X149100000Y-73060000D02*
X145200000Y-73060000D01*
X149100000Y-75060000D02*
X149100000Y-73060000D01*
%TO.C,D4*%
X88260000Y-38940000D02*
X88260000Y-35040000D01*
X90260000Y-38940000D02*
X90260000Y-35040000D01*
X88260000Y-38940000D02*
X90260000Y-38940000D01*
%TO.C,D5*%
X97670000Y-51692000D02*
X99670000Y-51692000D01*
X99670000Y-51692000D02*
X99670000Y-47792000D01*
X97670000Y-51692000D02*
X97670000Y-47792000D01*
%TO.C,D6*%
X93250000Y-68810000D02*
X97150000Y-68810000D01*
X93250000Y-70810000D02*
X97150000Y-70810000D01*
X93250000Y-68810000D02*
X93250000Y-70810000D01*
%TO.C,D7*%
X127950000Y-70110000D02*
X131850000Y-70110000D01*
X127950000Y-72110000D02*
X131850000Y-72110000D01*
X127950000Y-70110000D02*
X127950000Y-72110000D01*
%TO.C,D8*%
X112140000Y-68135000D02*
X109855000Y-68135000D01*
X109855000Y-68135000D02*
X109855000Y-69605000D01*
X109855000Y-69605000D02*
X112140000Y-69605000D01*
%TO.C,D9*%
X109855000Y-72905000D02*
X112140000Y-72905000D01*
X109855000Y-71435000D02*
X109855000Y-72905000D01*
X112140000Y-71435000D02*
X109855000Y-71435000D01*
%TO.C,D10*%
X109855000Y-71205000D02*
X112140000Y-71205000D01*
X109855000Y-69735000D02*
X109855000Y-71205000D01*
X112140000Y-69735000D02*
X109855000Y-69735000D01*
%TO.C,FB1*%
X129309622Y-69320000D02*
X128510378Y-69320000D01*
X129309622Y-68200000D02*
X128510378Y-68200000D01*
%TO.C,FB2*%
X126412878Y-56010000D02*
X127212122Y-56010000D01*
X126412878Y-54890000D02*
X127212122Y-54890000D01*
%TO.C,HSE1*%
X117400000Y-60460000D02*
X121400000Y-60460000D01*
X117400000Y-57160000D02*
X117400000Y-60460000D01*
%TO.C,J3*%
X122685000Y-35420000D02*
X122685000Y-35030000D01*
X122685000Y-35420000D02*
X122235000Y-35420000D01*
X117115000Y-34720000D02*
X117765000Y-34720000D01*
X117115000Y-32990000D02*
X117115000Y-34720000D01*
X124735000Y-30420000D02*
X124735000Y-30630000D01*
X117115000Y-30420000D02*
X117115000Y-30630000D01*
X124735000Y-32990000D02*
X124735000Y-34720000D01*
X124735000Y-34720000D02*
X124075000Y-34720000D01*
%TO.C,Q1*%
X163225000Y-47780000D02*
X163225000Y-42205000D01*
X163225000Y-47780000D02*
X163225000Y-50065000D01*
X158195000Y-47780000D02*
X158195000Y-45495000D01*
X158195000Y-47780000D02*
X158195000Y-50065000D01*
%TO.C,Q2*%
X158195000Y-36070000D02*
X158195000Y-38355000D01*
X158195000Y-36070000D02*
X158195000Y-33785000D01*
X163225000Y-36070000D02*
X163225000Y-38355000D01*
X163225000Y-36070000D02*
X163225000Y-30495000D01*
%TO.C,Q3*%
X151815000Y-60710000D02*
X151815000Y-55135000D01*
X151815000Y-60710000D02*
X151815000Y-62995000D01*
X146785000Y-60710000D02*
X146785000Y-58425000D01*
X146785000Y-60710000D02*
X146785000Y-62995000D01*
%TO.C,Q4*%
X146785000Y-49010000D02*
X146785000Y-51295000D01*
X146785000Y-49010000D02*
X146785000Y-46725000D01*
X151815000Y-49010000D02*
X151815000Y-51295000D01*
X151815000Y-49010000D02*
X151815000Y-43435000D01*
%TO.C,Q5*%
X163305000Y-73420000D02*
X163305000Y-67845000D01*
X163305000Y-73420000D02*
X163305000Y-75705000D01*
X158275000Y-73420000D02*
X158275000Y-71135000D01*
X158275000Y-73420000D02*
X158275000Y-75705000D01*
%TO.C,Q6*%
X163300000Y-61720000D02*
X163300000Y-56145000D01*
X163300000Y-61720000D02*
X163300000Y-64005000D01*
X158270000Y-61720000D02*
X158270000Y-59435000D01*
X158270000Y-61720000D02*
X158270000Y-64005000D01*
%TO.C,Q7*%
X81085000Y-36110000D02*
X81085000Y-41685000D01*
X81085000Y-36110000D02*
X81085000Y-33825000D01*
X86115000Y-36110000D02*
X86115000Y-38395000D01*
X86115000Y-36110000D02*
X86115000Y-33825000D01*
%TO.C,Q8*%
X86115000Y-47810000D02*
X86115000Y-45525000D01*
X86115000Y-47810000D02*
X86115000Y-50095000D01*
X81085000Y-47810000D02*
X81085000Y-45525000D01*
X81085000Y-47810000D02*
X81085000Y-53385000D01*
%TO.C,Q9*%
X95815000Y-47810000D02*
X95815000Y-45525000D01*
X95815000Y-47810000D02*
X95815000Y-50095000D01*
X90785000Y-47810000D02*
X90785000Y-45525000D01*
X90785000Y-47810000D02*
X90785000Y-53385000D01*
%TO.C,Q10*%
X95850000Y-59560000D02*
X95850000Y-57275000D01*
X95850000Y-59560000D02*
X95850000Y-61845000D01*
X90820000Y-59560000D02*
X90820000Y-57275000D01*
X90820000Y-59560000D02*
X90820000Y-65135000D01*
%TO.C,Q11*%
X86005000Y-62160000D02*
X86005000Y-59875000D01*
X86005000Y-62160000D02*
X86005000Y-64445000D01*
X80975000Y-62160000D02*
X80975000Y-59875000D01*
X80975000Y-62160000D02*
X80975000Y-67735000D01*
%TO.C,Q12*%
X81085000Y-73910000D02*
X81085000Y-79485000D01*
X81085000Y-73910000D02*
X81085000Y-71625000D01*
X86115000Y-73910000D02*
X86115000Y-76195000D01*
X86115000Y-73910000D02*
X86115000Y-71625000D01*
%TO.C,R1*%
X119143641Y-36740000D02*
X118836359Y-36740000D01*
X119143641Y-35980000D02*
X118836359Y-35980000D01*
%TO.C,R2*%
X120388000Y-36853641D02*
X120388000Y-36546359D01*
X121148000Y-36853641D02*
X121148000Y-36546359D01*
%TO.C,R3*%
X122164000Y-36853641D02*
X122164000Y-36546359D01*
X121404000Y-36853641D02*
X121404000Y-36546359D01*
%TO.C,R4*%
X103160000Y-71416359D02*
X103160000Y-71723641D01*
X103920000Y-71416359D02*
X103920000Y-71723641D01*
%TO.C,R5*%
X105020000Y-71416359D02*
X105020000Y-71723641D01*
X104260000Y-71416359D02*
X104260000Y-71723641D01*
%TO.C,R6*%
X105360000Y-71416359D02*
X105360000Y-71723641D01*
X106120000Y-71416359D02*
X106120000Y-71723641D01*
%TO.C,R7*%
X137893641Y-73750000D02*
X137586359Y-73750000D01*
X137893641Y-72990000D02*
X137586359Y-72990000D01*
%TO.C,R8*%
X137893641Y-74102000D02*
X137586359Y-74102000D01*
X137893641Y-74862000D02*
X137586359Y-74862000D01*
%TO.C,R9*%
X137893641Y-75950000D02*
X137586359Y-75950000D01*
X137893641Y-75190000D02*
X137586359Y-75190000D01*
%TO.C,R10*%
X154392258Y-37447500D02*
X153917742Y-37447500D01*
X154392258Y-38492500D02*
X153917742Y-38492500D01*
%TO.C,R11*%
X156610000Y-37286359D02*
X156610000Y-37593641D01*
X155850000Y-37286359D02*
X155850000Y-37593641D01*
%TO.C,R12*%
X165366000Y-45977064D02*
X165366000Y-44522936D01*
X163546000Y-45977064D02*
X163546000Y-44522936D01*
%TO.C,R13*%
X153297258Y-36172500D02*
X152822742Y-36172500D01*
X153297258Y-35127500D02*
X152822742Y-35127500D01*
%TO.C,R14*%
X163517500Y-36647742D02*
X163517500Y-37122258D01*
X164562500Y-36647742D02*
X164562500Y-37122258D01*
%TO.C,R15*%
X156933641Y-34500000D02*
X156626359Y-34500000D01*
X156933641Y-33740000D02*
X156626359Y-33740000D01*
%TO.C,R16*%
X145412258Y-56132500D02*
X144937742Y-56132500D01*
X145412258Y-55087500D02*
X144937742Y-55087500D01*
%TO.C,R17*%
X145310000Y-53576359D02*
X145310000Y-53883641D01*
X146070000Y-53576359D02*
X146070000Y-53883641D01*
%TO.C,R18*%
X154929564Y-54796000D02*
X153475436Y-54796000D01*
X154929564Y-52976000D02*
X153475436Y-52976000D01*
%TO.C,R19*%
X140977500Y-50372742D02*
X140977500Y-50847258D01*
X142022500Y-50372742D02*
X142022500Y-50847258D01*
%TO.C,R20*%
X153294500Y-57679258D02*
X153294500Y-57204742D01*
X152249500Y-57679258D02*
X152249500Y-57204742D01*
%TO.C,R21*%
X144436359Y-49830000D02*
X144743641Y-49830000D01*
X144436359Y-50590000D02*
X144743641Y-50590000D01*
%TO.C,R22*%
X154037258Y-70187500D02*
X153562742Y-70187500D01*
X154037258Y-71232500D02*
X153562742Y-71232500D01*
%TO.C,R23*%
X151856359Y-69760000D02*
X152163641Y-69760000D01*
X151856359Y-69000000D02*
X152163641Y-69000000D01*
%TO.C,R24*%
X163830000Y-63702936D02*
X163830000Y-65157064D01*
X165650000Y-63702936D02*
X165650000Y-65157064D01*
%TO.C,R25*%
X152512258Y-67870500D02*
X152037742Y-67870500D01*
X152512258Y-66825500D02*
X152037742Y-66825500D01*
%TO.C,R26*%
X163587500Y-74117258D02*
X163587500Y-73642742D01*
X164632500Y-74117258D02*
X164632500Y-73642742D01*
%TO.C,R27*%
X154676000Y-68009641D02*
X154676000Y-67702359D01*
X153916000Y-68009641D02*
X153916000Y-67702359D01*
%TO.C,R28*%
X86457500Y-39645258D02*
X86457500Y-39170742D01*
X87502500Y-39645258D02*
X87502500Y-39170742D01*
%TO.C,R29*%
X87393641Y-41060000D02*
X87086359Y-41060000D01*
X87393641Y-41820000D02*
X87086359Y-41820000D01*
%TO.C,R30*%
X78890000Y-47737064D02*
X78890000Y-46282936D01*
X80710000Y-47737064D02*
X80710000Y-46282936D01*
%TO.C,R31*%
X87508500Y-44725258D02*
X87508500Y-44250742D01*
X86463500Y-44725258D02*
X86463500Y-44250742D01*
%TO.C,R32*%
X80722500Y-35097742D02*
X80722500Y-35572258D01*
X79677500Y-35097742D02*
X79677500Y-35572258D01*
%TO.C,R33*%
X88636000Y-43826359D02*
X88636000Y-44133641D01*
X87876000Y-43826359D02*
X87876000Y-44133641D01*
%TO.C,R34*%
X96115500Y-53044258D02*
X96115500Y-52569742D01*
X97160500Y-53044258D02*
X97160500Y-52569742D01*
%TO.C,R35*%
X96512000Y-56325641D02*
X96512000Y-56018359D01*
X97272000Y-56325641D02*
X97272000Y-56018359D01*
%TO.C,R36*%
X87672936Y-56620000D02*
X89127064Y-56620000D01*
X87672936Y-54800000D02*
X89127064Y-54800000D01*
%TO.C,R37*%
X98938500Y-61552258D02*
X98938500Y-61077742D01*
X97893500Y-61552258D02*
X97893500Y-61077742D01*
%TO.C,R38*%
X89477500Y-58747258D02*
X89477500Y-58272742D01*
X90522500Y-58747258D02*
X90522500Y-58272742D01*
%TO.C,R39*%
X96512000Y-61608359D02*
X96512000Y-61915641D01*
X97272000Y-61608359D02*
X97272000Y-61915641D01*
%TO.C,R40*%
X89962742Y-73632500D02*
X90437258Y-73632500D01*
X89962742Y-72587500D02*
X90437258Y-72587500D01*
%TO.C,R41*%
X86420000Y-66063641D02*
X86420000Y-65756359D01*
X87180000Y-66063641D02*
X87180000Y-65756359D01*
%TO.C,R42*%
X80530000Y-63064936D02*
X80530000Y-64519064D01*
X78710000Y-63064936D02*
X78710000Y-64519064D01*
%TO.C,R43*%
X90062742Y-75087500D02*
X90537258Y-75087500D01*
X90062742Y-76132500D02*
X90537258Y-76132500D01*
%TO.C,R44*%
X80722500Y-73447258D02*
X80722500Y-72972742D01*
X79677500Y-73447258D02*
X79677500Y-72972742D01*
%TO.C,R45*%
X87080000Y-75146359D02*
X87080000Y-75453641D01*
X86320000Y-75146359D02*
X86320000Y-75453641D01*
%TO.C,R46*%
X119620000Y-55256359D02*
X119620000Y-55563641D01*
X120380000Y-55256359D02*
X120380000Y-55563641D01*
%TO.C,R47*%
X103727500Y-63747258D02*
X103727500Y-63272742D01*
X104772500Y-63747258D02*
X104772500Y-63272742D01*
%TO.C,R48*%
X130853641Y-44130000D02*
X130546359Y-44130000D01*
X130853641Y-44890000D02*
X130546359Y-44890000D01*
%TO.C,R49*%
X110586359Y-49400000D02*
X110893641Y-49400000D01*
X110586359Y-48640000D02*
X110893641Y-48640000D01*
%TO.C,R50*%
X108343641Y-35980000D02*
X108036359Y-35980000D01*
X108343641Y-36740000D02*
X108036359Y-36740000D01*
%TO.C,R51*%
X133846000Y-46748359D02*
X133846000Y-47055641D01*
X133086000Y-46748359D02*
X133086000Y-47055641D01*
%TO.C,R52*%
X102295000Y-48981359D02*
X102295000Y-49288641D01*
X103055000Y-48981359D02*
X103055000Y-49288641D01*
%TO.C,R53*%
X132830000Y-47055641D02*
X132830000Y-46748359D01*
X132070000Y-47055641D02*
X132070000Y-46748359D01*
%TO.C,R54*%
X154605000Y-47666359D02*
X154605000Y-47973641D01*
X153845000Y-47666359D02*
X153845000Y-47973641D01*
%TO.C,R55*%
X98819641Y-65358000D02*
X98512359Y-65358000D01*
X98819641Y-64598000D02*
X98512359Y-64598000D01*
%TO.C,U1*%
X167504000Y-38560000D02*
X165304000Y-38560000D01*
X167504000Y-38560000D02*
X169704000Y-38560000D01*
X167504000Y-41780000D02*
X165304000Y-41780000D01*
X167504000Y-41780000D02*
X171104000Y-41780000D01*
%TO.C,U3*%
X153847000Y-59950500D02*
X153847000Y-62150500D01*
X153847000Y-59950500D02*
X153847000Y-57750500D01*
X157067000Y-59950500D02*
X157067000Y-62150500D01*
X157067000Y-59950500D02*
X157067000Y-56350500D01*
%TO.C,U4*%
X138425000Y-52340000D02*
X134975000Y-52340000D01*
X138425000Y-52340000D02*
X140375000Y-52340000D01*
X138425000Y-57460000D02*
X136475000Y-57460000D01*
X138425000Y-57460000D02*
X140375000Y-57460000D01*
%TO.C,U5*%
X167504000Y-70990000D02*
X171104000Y-70990000D01*
X167504000Y-70990000D02*
X165304000Y-70990000D01*
X167504000Y-67770000D02*
X169704000Y-67770000D01*
X167504000Y-67770000D02*
X165304000Y-67770000D01*
%TO.C,U6*%
X147025000Y-67615000D02*
X143575000Y-67615000D01*
X147025000Y-67615000D02*
X148975000Y-67615000D01*
X147025000Y-72735000D02*
X145075000Y-72735000D01*
X147025000Y-72735000D02*
X148975000Y-72735000D01*
%TO.C,U8*%
X94500000Y-36305000D02*
X92550000Y-36305000D01*
X94500000Y-36305000D02*
X96450000Y-36305000D01*
X94500000Y-41425000D02*
X92550000Y-41425000D01*
X94500000Y-41425000D02*
X97950000Y-41425000D01*
%TO.C,U9*%
X90010000Y-50610000D02*
X90010000Y-48410000D01*
X90010000Y-50610000D02*
X90010000Y-52810000D01*
X86790000Y-50610000D02*
X86790000Y-48410000D01*
X86790000Y-50610000D02*
X86790000Y-54210000D01*
%TO.C,U10*%
X103496000Y-53240000D02*
X101546000Y-53240000D01*
X103496000Y-53240000D02*
X105446000Y-53240000D01*
X103496000Y-58360000D02*
X101546000Y-58360000D01*
X103496000Y-58360000D02*
X106946000Y-58360000D01*
%TO.C,U11*%
X76600000Y-68278000D02*
X73000000Y-68278000D01*
X76600000Y-68278000D02*
X78800000Y-68278000D01*
X76600000Y-71498000D02*
X74400000Y-71498000D01*
X76600000Y-71498000D02*
X78800000Y-71498000D01*
%TO.C,U12*%
X95500000Y-76270000D02*
X98950000Y-76270000D01*
X95500000Y-76270000D02*
X93550000Y-76270000D01*
X95500000Y-71150000D02*
X97450000Y-71150000D01*
X95500000Y-71150000D02*
X93550000Y-71150000D01*
%TO.C,U13*%
X127280000Y-60830000D02*
X133290000Y-60830000D01*
X129530000Y-67650000D02*
X133290000Y-67650000D01*
X133290000Y-60830000D02*
X133290000Y-62090000D01*
X133290000Y-67650000D02*
X133290000Y-66390000D01*
%TO.C,U14*%
X104540000Y-41350000D02*
X104540000Y-44800000D01*
X104540000Y-41350000D02*
X104540000Y-39400000D01*
X109660000Y-41350000D02*
X109660000Y-43300000D01*
X109660000Y-41350000D02*
X109660000Y-39400000D01*
%TO.C,C47*%
D11*
X106457142Y-44977142D02*
X106409523Y-45024761D01*
X106266666Y-45072380D01*
X106171428Y-45072380D01*
X106028571Y-45024761D01*
X105933333Y-44929523D01*
X105885714Y-44834285D01*
X105838095Y-44643809D01*
X105838095Y-44500952D01*
X105885714Y-44310476D01*
X105933333Y-44215238D01*
X106028571Y-44120000D01*
X106171428Y-44072380D01*
X106266666Y-44072380D01*
X106409523Y-44120000D01*
X106457142Y-44167619D01*
X107314285Y-44405714D02*
X107314285Y-45072380D01*
X107076190Y-44024761D02*
X106838095Y-44739047D01*
X107457142Y-44739047D01*
X107742857Y-44072380D02*
X108409523Y-44072380D01*
X107980952Y-45072380D01*
%TO.C,J9*%
X140882380Y-78543333D02*
X141596666Y-78543333D01*
X141739523Y-78590952D01*
X141834761Y-78686190D01*
X141882380Y-78829047D01*
X141882380Y-78924285D01*
X141882380Y-78019523D02*
X141882380Y-77829047D01*
X141834761Y-77733809D01*
X141787142Y-77686190D01*
X141644285Y-77590952D01*
X141453809Y-77543333D01*
X141072857Y-77543333D01*
X140977619Y-77590952D01*
X140930000Y-77638571D01*
X140882380Y-77733809D01*
X140882380Y-77924285D01*
X140930000Y-78019523D01*
X140977619Y-78067142D01*
X141072857Y-78114761D01*
X141310952Y-78114761D01*
X141406190Y-78067142D01*
X141453809Y-78019523D01*
X141501428Y-77924285D01*
X141501428Y-77733809D01*
X141453809Y-77638571D01*
X141406190Y-77590952D01*
X141310952Y-77543333D01*
%TD*%
M02*
