%TF.GenerationSoftware,KiCad,Pcbnew,5.1.8-db9833491~88~ubuntu20.04.1*%
%TF.CreationDate,2020-12-06T21:40:22+00:00*%
%TF.ProjectId,driva-x2,64726976-612d-4783-922e-6b696361645f,rev?*%
%TF.SameCoordinates,Original*%
%TF.FileFunction,Soldermask,Bot*%
%TF.FilePolarity,Negative*%
%FSLAX46Y46*%
G04 Gerber Fmt 4.6, Leading zero omitted, Abs format (unit mm)*
G04 Created by KiCad (PCBNEW 5.1.8-db9833491~88~ubuntu20.04.1) date 2020-12-06 21:40:22*
%MOMM*%
%LPD*%
G01*
G04 APERTURE LIST*
%ADD10C,0.500000*%
%ADD11O,1.700000X1.700000*%
%ADD12R,1.700000X1.700000*%
%ADD13C,0.800000*%
%ADD14C,6.400000*%
%ADD15C,6.000000*%
%ADD16O,1.050000X1.900000*%
G04 APERTURE END LIST*
D10*
X171300000Y-44490000D02*
G75*
G03*
X171300000Y-44490000I-751066J0D01*
G01*
X171250000Y-52410000D02*
G75*
G03*
X171250000Y-52410000I-751066J0D01*
G01*
X171250000Y-60490000D02*
G75*
G03*
X171250000Y-60490000I-751066J0D01*
G01*
X74350000Y-60740000D02*
G75*
G03*
X74350000Y-60740000I-751066J0D01*
G01*
X74351066Y-52910000D02*
G75*
G03*
X74351066Y-52910000I-751066J0D01*
G01*
X74351066Y-44738934D02*
G75*
G03*
X74351066Y-44738934I-751066J0D01*
G01*
X118751066Y-70608934D02*
G75*
G03*
X118751066Y-70608934I-751066J0D01*
G01*
X119150001Y-77610000D02*
G75*
G03*
X119150001Y-77610000I-751066J0D01*
G01*
D11*
%TO.C,J9*%
X128940000Y-78210000D03*
X131480000Y-78210000D03*
X134020000Y-78210000D03*
X136560000Y-78210000D03*
D12*
X139100000Y-78210000D03*
%TD*%
D11*
%TO.C,J5*%
X130825000Y-31820000D03*
D12*
X128285000Y-31820000D03*
%TD*%
D13*
%TO.C,H3*%
X77522056Y-32112944D03*
X75825000Y-31410000D03*
X74127944Y-32112944D03*
X73425000Y-33810000D03*
X74127944Y-35507056D03*
X75825000Y-36210000D03*
X77522056Y-35507056D03*
X78225000Y-33810000D03*
D14*
X75825000Y-33810000D03*
%TD*%
D13*
%TO.C,H4*%
X77497056Y-74512944D03*
X75800000Y-73810000D03*
X74102944Y-74512944D03*
X73400000Y-76210000D03*
X74102944Y-77907056D03*
X75800000Y-78610000D03*
X77497056Y-77907056D03*
X78200000Y-76210000D03*
D14*
X75800000Y-76210000D03*
%TD*%
D11*
%TO.C,J6*%
X100050000Y-31880000D03*
X97510000Y-31880000D03*
X94970000Y-31880000D03*
X92430000Y-31880000D03*
D12*
X89890000Y-31880000D03*
%TD*%
%TO.C,J12*%
G36*
G01*
X120500000Y-65110000D02*
X123500000Y-65110000D01*
G75*
G02*
X125000000Y-66610000I0J-1500000D01*
G01*
X125000000Y-69610000D01*
G75*
G02*
X123500000Y-71110000I-1500000J0D01*
G01*
X120500000Y-71110000D01*
G75*
G02*
X119000000Y-69610000I0J1500000D01*
G01*
X119000000Y-66610000D01*
G75*
G02*
X120500000Y-65110000I1500000J0D01*
G01*
G37*
D15*
X122000000Y-75310000D03*
%TD*%
%TO.C,H10*%
G36*
G01*
X166828000Y-65742001D02*
X166828000Y-61841999D01*
G75*
G02*
X167077999Y-61592000I249999J0D01*
G01*
X170978001Y-61592000D01*
G75*
G02*
X171228000Y-61841999I0J-249999D01*
G01*
X171228000Y-65742001D01*
G75*
G02*
X170978001Y-65992000I-249999J0D01*
G01*
X167077999Y-65992000D01*
G75*
G02*
X166828000Y-65742001I0J249999D01*
G01*
G37*
%TD*%
%TO.C,H9*%
G36*
G01*
X166800000Y-57760001D02*
X166800000Y-53859999D01*
G75*
G02*
X167049999Y-53610000I249999J0D01*
G01*
X170950001Y-53610000D01*
G75*
G02*
X171200000Y-53859999I0J-249999D01*
G01*
X171200000Y-57760001D01*
G75*
G02*
X170950001Y-58010000I-249999J0D01*
G01*
X167049999Y-58010000D01*
G75*
G02*
X166800000Y-57760001I0J249999D01*
G01*
G37*
%TD*%
%TO.C,H8*%
G36*
G01*
X166828000Y-49740001D02*
X166828000Y-45839999D01*
G75*
G02*
X167077999Y-45590000I249999J0D01*
G01*
X170978001Y-45590000D01*
G75*
G02*
X171228000Y-45839999I0J-249999D01*
G01*
X171228000Y-49740001D01*
G75*
G02*
X170978001Y-49990000I-249999J0D01*
G01*
X167077999Y-49990000D01*
G75*
G02*
X166828000Y-49740001I0J249999D01*
G01*
G37*
%TD*%
%TO.C,H7*%
G36*
G01*
X72800000Y-49994001D02*
X72800000Y-46093999D01*
G75*
G02*
X73049999Y-45844000I249999J0D01*
G01*
X76950001Y-45844000D01*
G75*
G02*
X77200000Y-46093999I0J-249999D01*
G01*
X77200000Y-49994001D01*
G75*
G02*
X76950001Y-50244000I-249999J0D01*
G01*
X73049999Y-50244000D01*
G75*
G02*
X72800000Y-49994001I0J249999D01*
G01*
G37*
%TD*%
%TO.C,H6*%
G36*
G01*
X72800000Y-58260001D02*
X72800000Y-54359999D01*
G75*
G02*
X73049999Y-54110000I249999J0D01*
G01*
X76950001Y-54110000D01*
G75*
G02*
X77200000Y-54359999I0J-249999D01*
G01*
X77200000Y-58260001D01*
G75*
G02*
X76950001Y-58510000I-249999J0D01*
G01*
X73049999Y-58510000D01*
G75*
G02*
X72800000Y-58260001I0J249999D01*
G01*
G37*
%TD*%
%TO.C,H5*%
G36*
G01*
X72800000Y-65996001D02*
X72800000Y-62095999D01*
G75*
G02*
X73049999Y-61846000I249999J0D01*
G01*
X76950001Y-61846000D01*
G75*
G02*
X77200000Y-62095999I0J-249999D01*
G01*
X77200000Y-65996001D01*
G75*
G02*
X76950001Y-66246000I-249999J0D01*
G01*
X73049999Y-66246000D01*
G75*
G02*
X72800000Y-65996001I0J249999D01*
G01*
G37*
%TD*%
D11*
%TO.C,J10*%
X142800000Y-78210000D03*
X145340000Y-78210000D03*
X147880000Y-78210000D03*
X150420000Y-78210000D03*
X152960000Y-78210000D03*
D12*
X155500000Y-78210000D03*
%TD*%
D11*
%TO.C,J11*%
X112640000Y-31810000D03*
X110100000Y-31810000D03*
X107560000Y-31810000D03*
D12*
X105020000Y-31810000D03*
%TD*%
D11*
%TO.C,J8*%
X88300000Y-78210000D03*
X90840000Y-78210000D03*
X93380000Y-78210000D03*
X95920000Y-78210000D03*
X98460000Y-78210000D03*
D12*
X101000000Y-78210000D03*
%TD*%
D11*
%TO.C,J4*%
X142545000Y-31810000D03*
X140005000Y-31810000D03*
X137465000Y-31810000D03*
D12*
X134925000Y-31810000D03*
%TD*%
D11*
%TO.C,J2*%
X156360000Y-31810000D03*
X153820000Y-31810000D03*
X151280000Y-31810000D03*
X148740000Y-31810000D03*
D12*
X146200000Y-31810000D03*
%TD*%
D11*
%TO.C,J1*%
X104640000Y-78210000D03*
X107180000Y-78210000D03*
X109720000Y-78210000D03*
X112260000Y-78210000D03*
D12*
X114800000Y-78210000D03*
%TD*%
D13*
%TO.C,H2*%
X169897056Y-74512944D03*
X168200000Y-73810000D03*
X166502944Y-74512944D03*
X165800000Y-76210000D03*
X166502944Y-77907056D03*
X168200000Y-78610000D03*
X169897056Y-77907056D03*
X170600000Y-76210000D03*
D14*
X168200000Y-76210000D03*
%TD*%
D13*
%TO.C,H1*%
X169897056Y-32112944D03*
X168200000Y-31410000D03*
X166502944Y-32112944D03*
X165800000Y-33810000D03*
X166502944Y-35507056D03*
X168200000Y-36210000D03*
X169897056Y-35507056D03*
X170600000Y-33810000D03*
D14*
X168200000Y-33810000D03*
%TD*%
D16*
%TO.C,J3*%
X124500000Y-31810000D03*
X117350000Y-31810000D03*
%TD*%
M02*
