%TF.GenerationSoftware,KiCad,Pcbnew,5.1.9-73d0e3b20d~88~ubuntu20.04.1*%
%TF.CreationDate,2021-01-12T21:49:49+00:00*%
%TF.ProjectId,driva-x2,64726976-612d-4783-922e-6b696361645f,rev?*%
%TF.SameCoordinates,Original*%
%TF.FileFunction,Copper,L2,Inr*%
%TF.FilePolarity,Positive*%
%FSLAX46Y46*%
G04 Gerber Fmt 4.6, Leading zero omitted, Abs format (unit mm)*
G04 Created by KiCad (PCBNEW 5.1.9-73d0e3b20d~88~ubuntu20.04.1) date 2021-01-12 21:49:49*
%MOMM*%
%LPD*%
G01*
G04 APERTURE LIST*
%TA.AperFunction,ComponentPad*%
%ADD10R,2.000000X2.000000*%
%TD*%
%TA.AperFunction,ComponentPad*%
%ADD11C,2.000000*%
%TD*%
%TA.AperFunction,ComponentPad*%
%ADD12C,6.400000*%
%TD*%
%TA.AperFunction,ComponentPad*%
%ADD13C,0.800000*%
%TD*%
%TA.AperFunction,ComponentPad*%
%ADD14O,1.700000X1.700000*%
%TD*%
%TA.AperFunction,ComponentPad*%
%ADD15R,1.700000X1.700000*%
%TD*%
%TA.AperFunction,ComponentPad*%
%ADD16O,1.050000X1.900000*%
%TD*%
%TA.AperFunction,ComponentPad*%
%ADD17O,3.960000X1.980000*%
%TD*%
%TA.AperFunction,ComponentPad*%
%ADD18R,3.960000X1.980000*%
%TD*%
%TA.AperFunction,ComponentPad*%
%ADD19R,1.980000X3.960000*%
%TD*%
%TA.AperFunction,ComponentPad*%
%ADD20O,1.980000X3.960000*%
%TD*%
%TA.AperFunction,ViaPad*%
%ADD21C,0.800000*%
%TD*%
%TA.AperFunction,Conductor*%
%ADD22C,0.500000*%
%TD*%
%TA.AperFunction,Conductor*%
%ADD23C,0.300000*%
%TD*%
%TA.AperFunction,Conductor*%
%ADD24C,0.250000*%
%TD*%
%TA.AperFunction,Conductor*%
%ADD25C,0.254000*%
%TD*%
%TA.AperFunction,Conductor*%
%ADD26C,0.100000*%
%TD*%
G04 APERTURE END LIST*
D10*
%TO.N,VCC*%
%TO.C,C11*%
X114450000Y-69225000D03*
D11*
%TO.N,GND*%
X109450000Y-69225000D03*
%TD*%
D12*
%TO.N,N/C*%
%TO.C,H1*%
X76000000Y-34000000D03*
D13*
X78400000Y-34000000D03*
X77697056Y-35697056D03*
X76000000Y-36400000D03*
X74302944Y-35697056D03*
X73600000Y-34000000D03*
X74302944Y-32302944D03*
X76000000Y-31600000D03*
X77697056Y-32302944D03*
%TD*%
%TO.N,N/C*%
%TO.C,H2*%
X149697056Y-32302944D03*
X148000000Y-31600000D03*
X146302944Y-32302944D03*
X145600000Y-34000000D03*
X146302944Y-35697056D03*
X148000000Y-36400000D03*
X149697056Y-35697056D03*
X150400000Y-34000000D03*
D12*
X148000000Y-34000000D03*
%TD*%
%TO.N,N/C*%
%TO.C,H3*%
X148000000Y-105800000D03*
D13*
X150400000Y-105800000D03*
X149697056Y-107497056D03*
X148000000Y-108200000D03*
X146302944Y-107497056D03*
X145600000Y-105800000D03*
X146302944Y-104102944D03*
X148000000Y-103400000D03*
X149697056Y-104102944D03*
%TD*%
%TO.N,N/C*%
%TO.C,H4*%
X77897056Y-104102944D03*
X76200000Y-103400000D03*
X74502944Y-104102944D03*
X73800000Y-105800000D03*
X74502944Y-107497056D03*
X76200000Y-108200000D03*
X77897056Y-107497056D03*
X78600000Y-105800000D03*
D12*
X76200000Y-105800000D03*
%TD*%
D14*
%TO.N,+3V3*%
%TO.C,J1*%
X75000000Y-76660000D03*
%TO.N,/mcu/HALL_W1*%
X75000000Y-74120000D03*
%TO.N,/mcu/HALL_V1*%
X75000000Y-71580000D03*
%TO.N,/mcu/HALL_U1*%
X75000000Y-69040000D03*
D15*
%TO.N,GND*%
X75000000Y-66500000D03*
%TD*%
%TO.N,/mcu/SWO*%
%TO.C,J2*%
X120900000Y-106600000D03*
D14*
%TO.N,/mcu/SWCLK*%
X123440000Y-106600000D03*
%TO.N,GND*%
X125980000Y-106600000D03*
%TO.N,/mcu/SWDIO*%
X128520000Y-106600000D03*
%TD*%
D16*
%TO.N,GND*%
%TO.C,J3*%
X109225000Y-106600000D03*
X116375000Y-106600000D03*
%TD*%
D17*
%TO.N,/driver-1/OUT_U*%
%TO.C,J4*%
X78600000Y-45900000D03*
%TO.N,/driver-1/OUT_V*%
X78600000Y-50900000D03*
D18*
%TO.N,/driver-1/OUT_W*%
X78600000Y-55900000D03*
%TD*%
D15*
%TO.N,GND*%
%TO.C,J5*%
X133520000Y-106600000D03*
D14*
%TO.N,/mcu/USART1_TX*%
X136060000Y-106600000D03*
%TO.N,/mcu/USART1_RX*%
X138600000Y-106600000D03*
%TO.N,+3V3*%
X141140000Y-106600000D03*
%TD*%
D18*
%TO.N,/driver-2/OUT_W*%
%TO.C,J6*%
X145700000Y-55900000D03*
D17*
%TO.N,/driver-2/OUT_V*%
X145700000Y-50900000D03*
%TO.N,/driver-2/OUT_U*%
X145700000Y-45900000D03*
%TD*%
D14*
%TO.N,+3V3*%
%TO.C,J7*%
X75000000Y-96000000D03*
%TO.N,SPI3_SCLK*%
X75000000Y-93460000D03*
%TO.N,SPI3_MISO*%
X75000000Y-90920000D03*
%TO.N,SPI3_MOSI*%
X75000000Y-88380000D03*
%TO.N,/mcu/SPI3_SS1*%
X75000000Y-85840000D03*
D15*
%TO.N,GND*%
X75000000Y-83300000D03*
%TD*%
%TO.N,GND*%
%TO.C,J8*%
X149200000Y-95800000D03*
D14*
%TO.N,/mcu/SPI3_SS2*%
X149200000Y-93260000D03*
%TO.N,SPI3_MOSI*%
X149200000Y-90720000D03*
%TO.N,SPI3_MISO*%
X149200000Y-88180000D03*
%TO.N,SPI3_SCLK*%
X149200000Y-85640000D03*
%TO.N,+3V3*%
X149200000Y-83100000D03*
%TD*%
D15*
%TO.N,GND*%
%TO.C,J9*%
X149200000Y-76620000D03*
D14*
%TO.N,/mcu/HALL_U2*%
X149200000Y-74080000D03*
%TO.N,/mcu/HALL_V2*%
X149200000Y-71540000D03*
%TO.N,/mcu/HALL_W2*%
X149200000Y-69000000D03*
%TO.N,+3V3*%
X149200000Y-66460000D03*
%TD*%
%TO.N,+3V3*%
%TO.C,J10*%
X90420000Y-106300000D03*
%TO.N,/mcu/CAN_H*%
X87880000Y-106300000D03*
%TO.N,/mcu/CAN_L*%
X85340000Y-106300000D03*
D15*
%TO.N,GND*%
X82800000Y-106300000D03*
%TD*%
D19*
%TO.N,GND*%
%TO.C,J11*%
X110000000Y-36400000D03*
D20*
%TO.N,VCC*%
X115000000Y-36400000D03*
%TD*%
D21*
%TO.N,GND*%
X132400000Y-44300000D03*
X118700000Y-88500000D03*
X113400000Y-98600000D03*
X86300000Y-89100000D03*
X99800000Y-105300000D03*
X96300000Y-104900000D03*
X100900000Y-88700000D03*
X108700000Y-78400000D03*
X126700000Y-88500000D03*
X126800000Y-86900000D03*
X128500000Y-86100000D03*
X124900000Y-85700000D03*
X124200000Y-58900000D03*
X97900000Y-30949990D03*
X104700000Y-34600000D03*
X118900000Y-39900000D03*
X118800000Y-46200000D03*
X104600000Y-62900000D03*
X101000000Y-75500000D03*
X105200000Y-77300000D03*
X115000000Y-75800000D03*
X116300000Y-78300000D03*
X119000000Y-66300000D03*
X104500000Y-41500000D03*
X104900000Y-48900000D03*
X99900000Y-56200000D03*
X103200000Y-54800000D03*
X99600000Y-69500000D03*
X98400000Y-69500000D03*
X120200000Y-73100000D03*
X118700000Y-52800000D03*
X115000000Y-94200000D03*
X116000000Y-80800000D03*
X96400000Y-67900000D03*
X96300000Y-69000000D03*
X96300000Y-66500000D03*
X97300000Y-69400000D03*
X122400000Y-59300000D03*
X126000000Y-59300000D03*
X125200000Y-58400000D03*
X123200000Y-58400000D03*
X124000000Y-44700000D03*
X125200000Y-45200000D03*
X126000000Y-45900000D03*
X124200000Y-45900000D03*
X122500000Y-46000000D03*
X123200000Y-45400000D03*
X122000000Y-32700000D03*
X122000000Y-31800000D03*
X123400000Y-31800000D03*
X124900000Y-31700000D03*
X126200000Y-31700000D03*
X126200000Y-32800000D03*
X124100000Y-32800000D03*
X96200000Y-40000000D03*
X96200000Y-41200000D03*
X96100000Y-42600000D03*
X97600000Y-42900000D03*
X99300000Y-43100000D03*
X100900000Y-43000000D03*
X96100000Y-52600000D03*
X96100000Y-54200000D03*
X96300000Y-55200000D03*
X97300000Y-56200000D03*
X98700000Y-56400000D03*
X100300000Y-57300000D03*
X120700000Y-60100000D03*
X119600000Y-60400000D03*
X120200000Y-47300000D03*
X120900000Y-46800000D03*
X104200000Y-55100000D03*
X103000000Y-41400000D03*
X122300000Y-71600000D03*
X123500000Y-71600000D03*
X86200000Y-76600000D03*
X93400000Y-77500000D03*
X94800000Y-77500000D03*
X87000000Y-91800000D03*
X81500000Y-101300000D03*
X82500000Y-102300000D03*
X101200000Y-101600000D03*
X132100000Y-104600000D03*
X108200000Y-74200000D03*
X107700000Y-75900000D03*
X79500000Y-87100000D03*
X144200000Y-93900000D03*
X122000000Y-88800000D03*
X133000000Y-57600000D03*
X78600000Y-39600000D03*
X73700000Y-51100000D03*
X78200000Y-60300000D03*
X90800000Y-57800000D03*
X89100000Y-44200000D03*
X96500000Y-62100000D03*
X95900000Y-47800000D03*
X96200000Y-35100000D03*
X127700000Y-35500000D03*
X127500000Y-39200000D03*
%TO.N,VCC*%
X106175000Y-73325000D03*
X111300000Y-75900000D03*
%TO.N,+3V3*%
X86400000Y-74850000D03*
X137800000Y-91400000D03*
X141950000Y-81150000D03*
X145300000Y-72500000D03*
X114900000Y-99900000D03*
X122500000Y-82900000D03*
X113640000Y-79940000D03*
X106700000Y-82300000D03*
X105700000Y-82200000D03*
X84000000Y-92400000D03*
X81700000Y-98300000D03*
X103180000Y-94720000D03*
X102300000Y-95600000D03*
X102812500Y-105412500D03*
X118150000Y-95250000D03*
X116800000Y-95000000D03*
X76700000Y-70200000D03*
X132300000Y-94300000D03*
%TO.N,BOOT0*%
X112100000Y-97200000D03*
X137220000Y-83080000D03*
%TO.N,/mcu/SWCLK*%
X105500000Y-98400000D03*
X91900000Y-94200000D03*
%TO.N,/mcu/SWDIO*%
X109100000Y-94000000D03*
%TO.N,/mcu/USART1_RX*%
X113000000Y-94000000D03*
X118400000Y-101400000D03*
%TO.N,/mcu/USART1_TX*%
X111750000Y-93950000D03*
X118600000Y-102500000D03*
%TO.N,/mcu/SPI3_SS1*%
X111600000Y-92000000D03*
X100700000Y-84300000D03*
%TO.N,/mcu/USB_OTG_FS_DL*%
X110000000Y-93307120D03*
X114100000Y-101100000D03*
%TO.N,/mcu/USB_OTG_FS_DM*%
X109650000Y-91750000D03*
X111900000Y-100500000D03*
%TO.N,/driver-2/SENSE_U*%
X127400000Y-47800000D03*
X113200000Y-90800000D03*
X120300000Y-42600000D03*
%TO.N,/driver-2/SENSE_V*%
X114100000Y-90000000D03*
X119000000Y-55500000D03*
%TO.N,/driver-2/SENSE_W*%
X114900000Y-88900000D03*
X119000000Y-68900000D03*
%TO.N,/driver-1/SENSE_U*%
X103350000Y-33200000D03*
X118600000Y-78400000D03*
X113000000Y-46300000D03*
%TO.N,Net-(C48-Pad1)*%
X103075000Y-38325000D03*
%TO.N,/driver-1/SENSE_V*%
X103200000Y-46400000D03*
X110400000Y-52100000D03*
X117350000Y-78350000D03*
%TO.N,/driver-1/SENSE_W*%
X103900000Y-60000000D03*
X107500000Y-93900000D03*
%TO.N,/mcu/SWO*%
X109600000Y-100300000D03*
%TO.N,SPI3_SCLK*%
X106600000Y-98400000D03*
X91600000Y-95600000D03*
X137800000Y-95800000D03*
%TO.N,SPI3_MISO*%
X108900000Y-98400000D03*
X138100000Y-97700000D03*
%TO.N,SPI3_MOSI*%
X107800000Y-98400000D03*
X137900000Y-99200000D03*
%TO.N,/driver-2/IN_U*%
X119200000Y-35400000D03*
X108200000Y-88800000D03*
%TO.N,/driver-2/EN_U*%
X119200000Y-36400000D03*
X115950000Y-77150000D03*
%TO.N,/driver-2/IN_V*%
X119000000Y-48500000D03*
X111600000Y-89000000D03*
%TO.N,/driver-2/EN_V*%
X119000000Y-49500000D03*
X101950000Y-87250000D03*
X111800000Y-41200000D03*
%TO.N,/driver-2/IN_W*%
X119000000Y-61900000D03*
X112800000Y-89700000D03*
%TO.N,/driver-2/EN_W*%
X119000000Y-62900000D03*
X108550000Y-87750000D03*
X102900000Y-88700000D03*
X113000000Y-62700000D03*
%TO.N,/driver-1/IN_U*%
X99500000Y-89300000D03*
X104700000Y-40300000D03*
%TO.N,/driver-1/EN_U*%
X104700000Y-39300000D03*
X109800000Y-76500000D03*
%TO.N,/driver-1/IN_V*%
X97800000Y-89600000D03*
X105000000Y-53400000D03*
%TO.N,/driver-1/EN_V*%
X105200000Y-52400000D03*
X108800000Y-76800000D03*
%TO.N,/driver-1/IN_W*%
X94600000Y-90300000D03*
X94400000Y-83400000D03*
%TO.N,/driver-1/EN_W*%
X110100000Y-82300000D03*
X107512954Y-69487046D03*
%TO.N,/imu/INT*%
X112900000Y-86200000D03*
X136000000Y-94800000D03*
%TO.N,/mcu/HALL_W1*%
X110100000Y-87800000D03*
X95700000Y-81700000D03*
%TO.N,/mcu/HALL_V1*%
X111100000Y-87900000D03*
X97299980Y-81900000D03*
%TO.N,/mcu/HALL_U1*%
X112300000Y-87900000D03*
X97400000Y-80500000D03*
%TO.N,/mcu/HALL_U2*%
X127200000Y-77500000D03*
X107900000Y-79100000D03*
%TO.N,/mcu/HALL_V2*%
X126600000Y-76700000D03*
X106900000Y-79100000D03*
%TO.N,/mcu/HALL_W2*%
X127200000Y-75800000D03*
X111900000Y-90800000D03*
%TO.N,/mcu/I2C1_SCL*%
X128800000Y-101100000D03*
X131000000Y-87400000D03*
%TO.N,/mcu/I2C1_SDA*%
X129000000Y-100000000D03*
X132500000Y-88200000D03*
%TD*%
D22*
%TO.N,VCC*%
X110350000Y-73325000D02*
X114450000Y-69225000D01*
X106175000Y-73325000D02*
X110350000Y-73325000D01*
X111300000Y-74275000D02*
X110350000Y-73325000D01*
X111300000Y-75900000D02*
X111300000Y-74275000D01*
D23*
%TO.N,BOOT0*%
X137910001Y-96800001D02*
X139000000Y-95710002D01*
X112499999Y-96800001D02*
X137910001Y-96800001D01*
X112100000Y-97200000D02*
X112499999Y-96800001D01*
D24*
X139000000Y-84860000D02*
X137220000Y-83080000D01*
X139000000Y-95710002D02*
X139000000Y-84860000D01*
D23*
%TO.N,/mcu/SWCLK*%
X105500000Y-98400000D02*
X110100000Y-103000000D01*
X123440000Y-106600000D02*
X121640000Y-108400000D01*
X114969998Y-103000000D02*
X110100000Y-103000000D01*
X120369998Y-108400000D02*
X114969998Y-103000000D01*
X121640000Y-108400000D02*
X120369998Y-108400000D01*
%TO.N,/driver-2/SENSE_U*%
X124400000Y-42600000D02*
X120300000Y-42600000D01*
X124600000Y-72907120D02*
X127300010Y-70207110D01*
X127300010Y-45500010D02*
X124400000Y-42600000D01*
X127300010Y-70207110D02*
X127300010Y-45500010D01*
X114817122Y-90800000D02*
X117700000Y-87917122D01*
X113200000Y-90800000D02*
X114817122Y-90800000D01*
X124564998Y-79700000D02*
X124600000Y-79700000D01*
X117700000Y-86564998D02*
X124564998Y-79700000D01*
X117700000Y-87917122D02*
X117700000Y-86564998D01*
X124600000Y-79700000D02*
X124600000Y-72907120D01*
%TO.N,/driver-2/SENSE_V*%
X124300000Y-55500000D02*
X119000000Y-55500000D01*
X126800000Y-70000000D02*
X126800000Y-58000000D01*
X126800000Y-58000000D02*
X124300000Y-55500000D01*
X114910002Y-90000000D02*
X117099990Y-87810012D01*
X114100000Y-90000000D02*
X114910002Y-90000000D01*
X124099990Y-72700010D02*
X126800000Y-70000000D01*
X117099990Y-87810012D02*
X117099990Y-86331372D01*
X124099990Y-79399990D02*
X124099990Y-72700010D01*
X117099990Y-86331372D02*
X124031372Y-79399990D01*
%TO.N,/driver-2/SENSE_W*%
X119399999Y-69299999D02*
X119000000Y-68900000D01*
X118400038Y-69499962D02*
X119000000Y-68900000D01*
X118400038Y-73778678D02*
X118400038Y-69499962D01*
X114900000Y-88900000D02*
X114900000Y-87824242D01*
X114900000Y-87824242D02*
X120350021Y-82374221D01*
X120350021Y-75728661D02*
X118400038Y-73778678D01*
X120350021Y-82374221D02*
X120350021Y-75728661D01*
%TO.N,/driver-1/SENSE_U*%
X113000000Y-50700000D02*
X113000000Y-46300000D01*
X116900010Y-54600010D02*
X113000000Y-50700000D01*
X116900010Y-74400010D02*
X116900010Y-54600010D01*
X118600000Y-76100000D02*
X116900010Y-74400010D01*
X118600000Y-78400000D02*
X118600000Y-76100000D01*
%TO.N,/driver-1/SENSE_V*%
X117350000Y-76250000D02*
X117350000Y-78350000D01*
X116400000Y-75300000D02*
X117350000Y-76250000D01*
X116400000Y-58100000D02*
X116400000Y-75300000D01*
X110400000Y-52100000D02*
X116400000Y-58100000D01*
%TO.N,/driver-1/SENSE_W*%
X105449991Y-61549991D02*
X103900000Y-60000000D01*
X105449991Y-65242889D02*
X105449991Y-61549991D01*
X105292880Y-65400000D02*
X105449991Y-65242889D01*
X98499980Y-72185780D02*
X105285760Y-65400000D01*
X98499980Y-87000020D02*
X98499980Y-72185780D01*
X105285760Y-65400000D02*
X105292880Y-65400000D01*
X97049999Y-88450001D02*
X98499980Y-87000020D01*
X97049999Y-89960001D02*
X97049999Y-88450001D01*
X100989998Y-93900000D02*
X97049999Y-89960001D01*
X107500000Y-93900000D02*
X100989998Y-93900000D01*
%TO.N,/mcu/SWO*%
X119999998Y-106600000D02*
X120900000Y-106600000D01*
X115249999Y-101850001D02*
X119999998Y-106600000D01*
X113739999Y-101850001D02*
X115249999Y-101850001D01*
X112650001Y-99667123D02*
X112650001Y-100760003D01*
X112650001Y-100760003D02*
X113739999Y-101850001D01*
X112182878Y-99200000D02*
X112650001Y-99667123D01*
X110000000Y-99200000D02*
X112182878Y-99200000D01*
X109602904Y-99597096D02*
X110000000Y-99200000D01*
X109600000Y-99702904D02*
X109602904Y-99700000D01*
X109602904Y-99700000D02*
X109602904Y-99597096D01*
X109600000Y-100300000D02*
X109600000Y-99702904D01*
%TO.N,SPI3_SCLK*%
X137400001Y-96199999D02*
X108800001Y-96199999D01*
X108800001Y-96199999D02*
X106600000Y-98400000D01*
X137800000Y-95800000D02*
X137400001Y-96199999D01*
X77140000Y-95600000D02*
X75000000Y-93460000D01*
X91600000Y-95600000D02*
X77140000Y-95600000D01*
%TO.N,SPI3_MISO*%
X113189998Y-97700000D02*
X138100000Y-97700000D01*
X112690018Y-98199980D02*
X113189998Y-97700000D01*
X109100020Y-98199980D02*
X112690018Y-98199980D01*
X108900000Y-98400000D02*
X109100020Y-98199980D01*
%TO.N,SPI3_MOSI*%
X137500001Y-98800001D02*
X137900000Y-99200000D01*
X114149999Y-99539999D02*
X114889997Y-98800001D01*
X114889997Y-98800001D02*
X137500001Y-98800001D01*
X113229997Y-99539999D02*
X114149999Y-99539999D01*
X112389988Y-98699990D02*
X113229997Y-99539999D01*
X109792890Y-98699990D02*
X112389988Y-98699990D01*
X109342879Y-99150001D02*
X109792890Y-98699990D01*
X108550001Y-99150001D02*
X109342879Y-99150001D01*
X107800000Y-98400000D02*
X108550001Y-99150001D01*
%TO.N,/driver-2/IN_U*%
X119200000Y-35400000D02*
X119089998Y-35400000D01*
X107500000Y-67900000D02*
X103300000Y-72100000D01*
X103300000Y-83600000D02*
X107500000Y-87800000D01*
X103300000Y-72100000D02*
X103300000Y-83600000D01*
X107500000Y-46785060D02*
X107500000Y-67900000D01*
X118885060Y-35400000D02*
X107500000Y-46785060D01*
X119200000Y-35400000D02*
X118885060Y-35400000D01*
X107500000Y-88100000D02*
X108200000Y-88800000D01*
X107500000Y-87800000D02*
X107500000Y-88100000D01*
%TO.N,/driver-2/EN_U*%
X109649999Y-57649999D02*
X115899990Y-63899990D01*
X109649999Y-45950001D02*
X109649999Y-57649999D01*
X119200000Y-36400000D02*
X109649999Y-45950001D01*
X115899990Y-77099990D02*
X115950000Y-77150000D01*
X115899990Y-63899990D02*
X115899990Y-77099990D01*
%TO.N,/driver-2/IN_V*%
X119350001Y-81960001D02*
X119350001Y-76142881D01*
X112360003Y-88949999D02*
X119350001Y-81960001D01*
X111650001Y-88949999D02*
X112360003Y-88949999D01*
X111600000Y-89000000D02*
X111650001Y-88949999D01*
X117400018Y-74192898D02*
X117400018Y-48800018D01*
X119350001Y-76142881D02*
X117400018Y-74192898D01*
X117700036Y-48500000D02*
X119000000Y-48500000D01*
X117400018Y-48800018D02*
X117700036Y-48500000D01*
%TO.N,/driver-2/EN_V*%
X106999990Y-65814250D02*
X106999990Y-45300010D01*
X101950000Y-70864240D02*
X106999990Y-65814250D01*
X101950000Y-87250000D02*
X101950000Y-70864240D01*
X106999990Y-45300010D02*
X106999990Y-44900010D01*
X106999990Y-44900010D02*
X110700000Y-41200000D01*
X110700000Y-41200000D02*
X111800000Y-41200000D01*
X111800000Y-41200000D02*
X111800000Y-41200000D01*
%TO.N,/driver-2/IN_W*%
X118434315Y-61900000D02*
X119000000Y-61900000D01*
X117900028Y-62434287D02*
X118434315Y-61900000D01*
X117900028Y-73985788D02*
X117900028Y-62434287D01*
X112800000Y-89700000D02*
X112800000Y-89217122D01*
X119850011Y-75935771D02*
X117900028Y-73985788D01*
X119850011Y-82167111D02*
X119850011Y-75935771D01*
X112800000Y-89217122D02*
X119850011Y-82167111D01*
%TO.N,/driver-2/EN_W*%
X110098001Y-70575001D02*
X114000000Y-66673002D01*
X104900000Y-75400000D02*
X104900000Y-73489998D01*
X107149999Y-77649999D02*
X104900000Y-75400000D01*
X109060001Y-77649999D02*
X107149999Y-77649999D01*
X107814997Y-70575001D02*
X110098001Y-70575001D01*
X110850001Y-79439999D02*
X109060001Y-77649999D01*
X104900000Y-73489998D02*
X107814997Y-70575001D01*
X110850001Y-82660001D02*
X110850001Y-79439999D01*
X108550000Y-84960002D02*
X110850001Y-82660001D01*
X108550000Y-87750000D02*
X108550000Y-84960002D01*
X114000000Y-66673002D02*
X114000000Y-64500000D01*
X114000000Y-64500000D02*
X114000000Y-63700000D01*
X114000000Y-63700000D02*
X113000000Y-62700000D01*
X113000000Y-62700000D02*
X113000000Y-62700000D01*
%TO.N,/driver-1/IN_U*%
X99500000Y-89300000D02*
X99500000Y-72600000D01*
X99500000Y-72600000D02*
X105300000Y-66800000D01*
X106450011Y-42050011D02*
X104700000Y-40300000D01*
X106450011Y-65657109D02*
X106450011Y-42050011D01*
X105307120Y-66800000D02*
X106450011Y-65657109D01*
X105300000Y-66800000D02*
X105307120Y-66800000D01*
%TO.N,/driver-1/IN_V*%
X105950001Y-54350001D02*
X105000000Y-53400000D01*
X105950001Y-65449999D02*
X105950001Y-54350001D01*
X105100008Y-66299992D02*
X105950001Y-65449999D01*
X97800000Y-89600000D02*
X98999990Y-88400010D01*
X105092888Y-66299992D02*
X105100008Y-66299992D01*
X98999990Y-72392890D02*
X105092888Y-66299992D01*
X98999990Y-88400010D02*
X98999990Y-72392890D01*
%TO.N,/driver-1/IN_W*%
X94400000Y-90100000D02*
X94600000Y-90300000D01*
X94400000Y-83400000D02*
X94400000Y-90100000D01*
D22*
%TO.N,/driver-1/EN_W*%
X107512954Y-69487046D02*
X104300000Y-72700000D01*
X108841998Y-82300000D02*
X110100000Y-82300000D01*
X104300000Y-77758002D02*
X108841998Y-82300000D01*
X104300000Y-72700000D02*
X104300000Y-77758002D01*
D23*
%TO.N,/imu/INT*%
X135562980Y-94900000D02*
X135700000Y-94762980D01*
X118349999Y-93249999D02*
X120000000Y-94900000D01*
X112160001Y-93249999D02*
X118349999Y-93249999D01*
X111689997Y-93199999D02*
X112110001Y-93199999D01*
X110849999Y-92360001D02*
X111689997Y-93199999D01*
X110849999Y-91639999D02*
X110849999Y-92360001D01*
X109349999Y-90139999D02*
X110849999Y-91639999D01*
X109349999Y-87439999D02*
X109349999Y-90139999D01*
X112110001Y-93199999D02*
X112160001Y-93249999D01*
X110589998Y-86200000D02*
X109349999Y-87439999D01*
X112900000Y-86200000D02*
X110589998Y-86200000D01*
X125500000Y-94900000D02*
X126299989Y-95699989D01*
X120000000Y-94900000D02*
X125500000Y-94900000D01*
X134762991Y-95699989D02*
X135700000Y-94762980D01*
X126299989Y-95699989D02*
X134762991Y-95699989D01*
%TD*%
D25*
%TO.N,+3V3*%
X83148189Y-72400000D02*
X83150629Y-72424776D01*
X83157856Y-72448601D01*
X83169592Y-72470557D01*
X83185386Y-72489803D01*
X83204632Y-72505597D01*
X83226588Y-72517333D01*
X83250413Y-72524560D01*
X83275189Y-72527000D01*
X97714981Y-72527000D01*
X97714981Y-79510193D01*
X97701898Y-79504774D01*
X97501939Y-79465000D01*
X97298061Y-79465000D01*
X97098102Y-79504774D01*
X96909744Y-79582795D01*
X96740226Y-79696063D01*
X96596063Y-79840226D01*
X96482795Y-80009744D01*
X96404774Y-80198102D01*
X96365000Y-80398061D01*
X96365000Y-80601939D01*
X96404774Y-80801898D01*
X96482795Y-80990256D01*
X96588225Y-81148044D01*
X96580884Y-81155385D01*
X96503937Y-81040226D01*
X96359774Y-80896063D01*
X96190256Y-80782795D01*
X96001898Y-80704774D01*
X95801939Y-80665000D01*
X95598061Y-80665000D01*
X95398102Y-80704774D01*
X95209744Y-80782795D01*
X95040226Y-80896063D01*
X94896063Y-81040226D01*
X94782795Y-81209744D01*
X94704774Y-81398102D01*
X94665000Y-81598061D01*
X94665000Y-81801939D01*
X94704774Y-82001898D01*
X94782795Y-82190256D01*
X94896063Y-82359774D01*
X95040226Y-82503937D01*
X95209744Y-82617205D01*
X95398102Y-82695226D01*
X95598061Y-82735000D01*
X95801939Y-82735000D01*
X96001898Y-82695226D01*
X96190256Y-82617205D01*
X96359774Y-82503937D01*
X96419096Y-82444615D01*
X96496043Y-82559774D01*
X96640206Y-82703937D01*
X96809724Y-82817205D01*
X96998082Y-82895226D01*
X97198041Y-82935000D01*
X97401919Y-82935000D01*
X97601878Y-82895226D01*
X97714980Y-82848377D01*
X97714980Y-86674863D01*
X96522184Y-87867659D01*
X96492236Y-87892237D01*
X96467658Y-87922185D01*
X96467654Y-87922189D01*
X96447422Y-87946842D01*
X96394138Y-88011768D01*
X96362473Y-88071010D01*
X96321245Y-88148142D01*
X96276358Y-88296115D01*
X96261202Y-88450001D01*
X96265000Y-88488563D01*
X96264999Y-89921448D01*
X96261202Y-89960001D01*
X96264999Y-89998554D01*
X96264999Y-89998561D01*
X96276358Y-90113887D01*
X96321245Y-90261860D01*
X96394137Y-90398233D01*
X96492235Y-90517765D01*
X96522189Y-90542348D01*
X100407656Y-94427816D01*
X100432234Y-94457764D01*
X100462182Y-94482342D01*
X100462185Y-94482345D01*
X100471825Y-94490256D01*
X100551765Y-94555862D01*
X100688138Y-94628754D01*
X100836111Y-94673641D01*
X100951437Y-94685000D01*
X100951444Y-94685000D01*
X100989997Y-94688797D01*
X101028550Y-94685000D01*
X106821289Y-94685000D01*
X106840226Y-94703937D01*
X107009744Y-94817205D01*
X107198102Y-94895226D01*
X107398061Y-94935000D01*
X107601939Y-94935000D01*
X107801898Y-94895226D01*
X107990256Y-94817205D01*
X108159774Y-94703937D01*
X108259163Y-94604548D01*
X108296063Y-94659774D01*
X108440226Y-94803937D01*
X108609744Y-94917205D01*
X108798102Y-94995226D01*
X108998061Y-95035000D01*
X109201939Y-95035000D01*
X109401898Y-94995226D01*
X109590256Y-94917205D01*
X109759774Y-94803937D01*
X109903937Y-94659774D01*
X110017205Y-94490256D01*
X110078565Y-94342120D01*
X110101939Y-94342120D01*
X110301898Y-94302346D01*
X110490256Y-94224325D01*
X110659774Y-94111057D01*
X110715646Y-94055185D01*
X110754774Y-94251898D01*
X110832795Y-94440256D01*
X110946063Y-94609774D01*
X111090226Y-94753937D01*
X111259744Y-94867205D01*
X111448102Y-94945226D01*
X111648061Y-94985000D01*
X111851939Y-94985000D01*
X112051898Y-94945226D01*
X112240256Y-94867205D01*
X112338110Y-94801821D01*
X112340226Y-94803937D01*
X112509744Y-94917205D01*
X112698102Y-94995226D01*
X112898061Y-95035000D01*
X113101939Y-95035000D01*
X113301898Y-94995226D01*
X113490256Y-94917205D01*
X113659774Y-94803937D01*
X113803937Y-94659774D01*
X113917205Y-94490256D01*
X113974800Y-94351209D01*
X114004774Y-94501898D01*
X114082795Y-94690256D01*
X114196063Y-94859774D01*
X114340226Y-95003937D01*
X114509744Y-95117205D01*
X114698102Y-95195226D01*
X114898061Y-95235000D01*
X115101939Y-95235000D01*
X115301898Y-95195226D01*
X115490256Y-95117205D01*
X115659774Y-95003937D01*
X115803937Y-94859774D01*
X115917205Y-94690256D01*
X115995226Y-94501898D01*
X116035000Y-94301939D01*
X116035000Y-94098061D01*
X116022456Y-94034999D01*
X118024842Y-94034999D01*
X119404842Y-95414999D01*
X108838553Y-95414999D01*
X108800000Y-95411202D01*
X108761447Y-95414999D01*
X108761440Y-95414999D01*
X108660491Y-95424942D01*
X108646113Y-95426358D01*
X108611673Y-95436805D01*
X108498141Y-95471245D01*
X108361768Y-95544137D01*
X108301560Y-95593549D01*
X108272188Y-95617654D01*
X108272185Y-95617657D01*
X108242237Y-95642235D01*
X108217659Y-95672183D01*
X106524843Y-97365000D01*
X106498061Y-97365000D01*
X106298102Y-97404774D01*
X106109744Y-97482795D01*
X106050000Y-97522715D01*
X105990256Y-97482795D01*
X105801898Y-97404774D01*
X105601939Y-97365000D01*
X105398061Y-97365000D01*
X105198102Y-97404774D01*
X105009744Y-97482795D01*
X104840226Y-97596063D01*
X104696063Y-97740226D01*
X104582795Y-97909744D01*
X104504774Y-98098102D01*
X104465000Y-98298061D01*
X104465000Y-98501939D01*
X104504774Y-98701898D01*
X104582795Y-98890256D01*
X104696063Y-99059774D01*
X104840226Y-99203937D01*
X105009744Y-99317205D01*
X105198102Y-99395226D01*
X105398061Y-99435000D01*
X105424843Y-99435000D01*
X109517658Y-103527816D01*
X109542236Y-103557764D01*
X109572184Y-103582342D01*
X109572187Y-103582345D01*
X109599517Y-103604774D01*
X109661767Y-103655862D01*
X109798140Y-103728754D01*
X109911672Y-103763194D01*
X109946112Y-103773641D01*
X109960490Y-103775057D01*
X110061439Y-103785000D01*
X110061446Y-103785000D01*
X110099999Y-103788797D01*
X110138552Y-103785000D01*
X114644841Y-103785000D01*
X115951202Y-105091362D01*
X115928940Y-105098115D01*
X115727421Y-105205829D01*
X115550788Y-105350788D01*
X115405829Y-105527422D01*
X115298115Y-105728941D01*
X115231785Y-105947601D01*
X115215000Y-106118022D01*
X115215000Y-107081979D01*
X115231785Y-107252400D01*
X115298115Y-107471060D01*
X115405830Y-107672579D01*
X115550789Y-107849212D01*
X115727422Y-107994171D01*
X115928941Y-108101885D01*
X116147601Y-108168215D01*
X116375000Y-108190612D01*
X116602400Y-108168215D01*
X116821060Y-108101885D01*
X117022579Y-107994171D01*
X117199212Y-107849212D01*
X117344171Y-107672579D01*
X117451885Y-107471060D01*
X117518215Y-107252400D01*
X117535000Y-107081978D01*
X117535000Y-106675160D01*
X119787656Y-108927816D01*
X119812234Y-108957764D01*
X119842182Y-108982342D01*
X119842185Y-108982345D01*
X119856376Y-108993991D01*
X119931765Y-109055862D01*
X120068138Y-109128754D01*
X120181670Y-109163194D01*
X120216110Y-109173641D01*
X120230488Y-109175057D01*
X120331437Y-109185000D01*
X120331444Y-109185000D01*
X120369997Y-109188797D01*
X120408550Y-109185000D01*
X121601447Y-109185000D01*
X121640000Y-109188797D01*
X121678553Y-109185000D01*
X121678561Y-109185000D01*
X121793887Y-109173641D01*
X121941860Y-109128754D01*
X122078233Y-109055862D01*
X122197764Y-108957764D01*
X122222347Y-108927810D01*
X123103082Y-108047075D01*
X123293740Y-108085000D01*
X123586260Y-108085000D01*
X123873158Y-108027932D01*
X124143411Y-107915990D01*
X124386632Y-107753475D01*
X124593475Y-107546632D01*
X124710000Y-107372240D01*
X124826525Y-107546632D01*
X125033368Y-107753475D01*
X125276589Y-107915990D01*
X125546842Y-108027932D01*
X125833740Y-108085000D01*
X126126260Y-108085000D01*
X126413158Y-108027932D01*
X126683411Y-107915990D01*
X126926632Y-107753475D01*
X127133475Y-107546632D01*
X127250000Y-107372240D01*
X127366525Y-107546632D01*
X127573368Y-107753475D01*
X127816589Y-107915990D01*
X128086842Y-108027932D01*
X128373740Y-108085000D01*
X128666260Y-108085000D01*
X128953158Y-108027932D01*
X129223411Y-107915990D01*
X129466632Y-107753475D01*
X129673475Y-107546632D01*
X129835990Y-107303411D01*
X129947932Y-107033158D01*
X130005000Y-106746260D01*
X130005000Y-106453740D01*
X129947932Y-106166842D01*
X129835990Y-105896589D01*
X129673475Y-105653368D01*
X129466632Y-105446525D01*
X129223411Y-105284010D01*
X128953158Y-105172068D01*
X128666260Y-105115000D01*
X128373740Y-105115000D01*
X128086842Y-105172068D01*
X127816589Y-105284010D01*
X127573368Y-105446525D01*
X127366525Y-105653368D01*
X127250000Y-105827760D01*
X127133475Y-105653368D01*
X126926632Y-105446525D01*
X126683411Y-105284010D01*
X126413158Y-105172068D01*
X126126260Y-105115000D01*
X125833740Y-105115000D01*
X125546842Y-105172068D01*
X125276589Y-105284010D01*
X125033368Y-105446525D01*
X124826525Y-105653368D01*
X124710000Y-105827760D01*
X124593475Y-105653368D01*
X124386632Y-105446525D01*
X124143411Y-105284010D01*
X123873158Y-105172068D01*
X123586260Y-105115000D01*
X123293740Y-105115000D01*
X123006842Y-105172068D01*
X122736589Y-105284010D01*
X122493368Y-105446525D01*
X122361513Y-105578380D01*
X122339502Y-105505820D01*
X122280537Y-105395506D01*
X122201185Y-105298815D01*
X122104494Y-105219463D01*
X121994180Y-105160498D01*
X121874482Y-105124188D01*
X121750000Y-105111928D01*
X120050000Y-105111928D01*
X119925518Y-105124188D01*
X119805820Y-105160498D01*
X119717736Y-105207580D01*
X119008217Y-104498061D01*
X131065000Y-104498061D01*
X131065000Y-104701939D01*
X131104774Y-104901898D01*
X131182795Y-105090256D01*
X131296063Y-105259774D01*
X131440226Y-105403937D01*
X131609744Y-105517205D01*
X131798102Y-105595226D01*
X131998061Y-105635000D01*
X132043254Y-105635000D01*
X132031928Y-105750000D01*
X132031928Y-107450000D01*
X132044188Y-107574482D01*
X132080498Y-107694180D01*
X132139463Y-107804494D01*
X132218815Y-107901185D01*
X132315506Y-107980537D01*
X132425820Y-108039502D01*
X132545518Y-108075812D01*
X132670000Y-108088072D01*
X134370000Y-108088072D01*
X134494482Y-108075812D01*
X134614180Y-108039502D01*
X134724494Y-107980537D01*
X134821185Y-107901185D01*
X134900537Y-107804494D01*
X134959502Y-107694180D01*
X134981513Y-107621620D01*
X135113368Y-107753475D01*
X135356589Y-107915990D01*
X135626842Y-108027932D01*
X135913740Y-108085000D01*
X136206260Y-108085000D01*
X136493158Y-108027932D01*
X136763411Y-107915990D01*
X137006632Y-107753475D01*
X137213475Y-107546632D01*
X137330000Y-107372240D01*
X137446525Y-107546632D01*
X137653368Y-107753475D01*
X137896589Y-107915990D01*
X138166842Y-108027932D01*
X138453740Y-108085000D01*
X138746260Y-108085000D01*
X139033158Y-108027932D01*
X139303411Y-107915990D01*
X139546632Y-107753475D01*
X139753475Y-107546632D01*
X139875195Y-107364466D01*
X139944822Y-107481355D01*
X140139731Y-107697588D01*
X140373080Y-107871641D01*
X140635901Y-107996825D01*
X140783110Y-108041476D01*
X141013000Y-107920155D01*
X141013000Y-106727000D01*
X141267000Y-106727000D01*
X141267000Y-107920155D01*
X141496890Y-108041476D01*
X141644099Y-107996825D01*
X141906920Y-107871641D01*
X142140269Y-107697588D01*
X142335178Y-107481355D01*
X142484157Y-107231252D01*
X142581481Y-106956891D01*
X142460814Y-106727000D01*
X141267000Y-106727000D01*
X141013000Y-106727000D01*
X140993000Y-106727000D01*
X140993000Y-106473000D01*
X141013000Y-106473000D01*
X141013000Y-105279845D01*
X141267000Y-105279845D01*
X141267000Y-106473000D01*
X142460814Y-106473000D01*
X142581481Y-106243109D01*
X142484157Y-105968748D01*
X142335178Y-105718645D01*
X142140269Y-105502412D01*
X141906920Y-105328359D01*
X141644099Y-105203175D01*
X141496890Y-105158524D01*
X141267000Y-105279845D01*
X141013000Y-105279845D01*
X140783110Y-105158524D01*
X140635901Y-105203175D01*
X140373080Y-105328359D01*
X140139731Y-105502412D01*
X139944822Y-105718645D01*
X139875195Y-105835534D01*
X139753475Y-105653368D01*
X139546632Y-105446525D01*
X139303411Y-105284010D01*
X139033158Y-105172068D01*
X138746260Y-105115000D01*
X138453740Y-105115000D01*
X138166842Y-105172068D01*
X137896589Y-105284010D01*
X137653368Y-105446525D01*
X137446525Y-105653368D01*
X137330000Y-105827760D01*
X137213475Y-105653368D01*
X137006632Y-105446525D01*
X136763411Y-105284010D01*
X136493158Y-105172068D01*
X136206260Y-105115000D01*
X135913740Y-105115000D01*
X135626842Y-105172068D01*
X135356589Y-105284010D01*
X135113368Y-105446525D01*
X134981513Y-105578380D01*
X134959502Y-105505820D01*
X134900537Y-105395506D01*
X134821185Y-105298815D01*
X134724494Y-105219463D01*
X134614180Y-105160498D01*
X134494482Y-105124188D01*
X134370000Y-105111928D01*
X133002724Y-105111928D01*
X133017205Y-105090256D01*
X133095226Y-104901898D01*
X133135000Y-104701939D01*
X133135000Y-104498061D01*
X133095226Y-104298102D01*
X133017205Y-104109744D01*
X132903937Y-103940226D01*
X132759774Y-103796063D01*
X132590256Y-103682795D01*
X132401898Y-103604774D01*
X132201939Y-103565000D01*
X131998061Y-103565000D01*
X131798102Y-103604774D01*
X131609744Y-103682795D01*
X131440226Y-103796063D01*
X131296063Y-103940226D01*
X131182795Y-104109744D01*
X131104774Y-104298102D01*
X131065000Y-104498061D01*
X119008217Y-104498061D01*
X115832346Y-101322191D01*
X115812543Y-101298061D01*
X117365000Y-101298061D01*
X117365000Y-101501939D01*
X117404774Y-101701898D01*
X117482795Y-101890256D01*
X117596063Y-102059774D01*
X117642738Y-102106449D01*
X117604774Y-102198102D01*
X117565000Y-102398061D01*
X117565000Y-102601939D01*
X117604774Y-102801898D01*
X117682795Y-102990256D01*
X117796063Y-103159774D01*
X117940226Y-103303937D01*
X118109744Y-103417205D01*
X118298102Y-103495226D01*
X118498061Y-103535000D01*
X118701939Y-103535000D01*
X118901898Y-103495226D01*
X119090256Y-103417205D01*
X119259774Y-103303937D01*
X119403937Y-103159774D01*
X119517205Y-102990256D01*
X119595226Y-102801898D01*
X119635000Y-102601939D01*
X119635000Y-102398061D01*
X119595226Y-102198102D01*
X119517205Y-102009744D01*
X119403937Y-101840226D01*
X119357262Y-101793551D01*
X119395226Y-101701898D01*
X119435000Y-101501939D01*
X119435000Y-101298061D01*
X119395226Y-101098102D01*
X119317205Y-100909744D01*
X119203937Y-100740226D01*
X119059774Y-100596063D01*
X118890256Y-100482795D01*
X118701898Y-100404774D01*
X118501939Y-100365000D01*
X118298061Y-100365000D01*
X118098102Y-100404774D01*
X117909744Y-100482795D01*
X117740226Y-100596063D01*
X117596063Y-100740226D01*
X117482795Y-100909744D01*
X117404774Y-101098102D01*
X117365000Y-101298061D01*
X115812543Y-101298061D01*
X115807763Y-101292237D01*
X115688232Y-101194139D01*
X115551859Y-101121247D01*
X115403886Y-101076360D01*
X115288560Y-101065001D01*
X115288552Y-101065001D01*
X115249999Y-101061204D01*
X115211446Y-101065001D01*
X115135000Y-101065001D01*
X115135000Y-100998061D01*
X115095226Y-100798102D01*
X115017205Y-100609744D01*
X114903937Y-100440226D01*
X114759774Y-100296063D01*
X114597916Y-100187913D01*
X114707763Y-100097763D01*
X114732346Y-100067810D01*
X115215155Y-99585001D01*
X128051622Y-99585001D01*
X128004774Y-99698102D01*
X127965000Y-99898061D01*
X127965000Y-100101939D01*
X128004774Y-100301898D01*
X128042738Y-100393551D01*
X127996063Y-100440226D01*
X127882795Y-100609744D01*
X127804774Y-100798102D01*
X127765000Y-100998061D01*
X127765000Y-101201939D01*
X127804774Y-101401898D01*
X127882795Y-101590256D01*
X127996063Y-101759774D01*
X128140226Y-101903937D01*
X128309744Y-102017205D01*
X128498102Y-102095226D01*
X128698061Y-102135000D01*
X128901939Y-102135000D01*
X129101898Y-102095226D01*
X129290256Y-102017205D01*
X129459774Y-101903937D01*
X129603937Y-101759774D01*
X129717205Y-101590256D01*
X129795226Y-101401898D01*
X129835000Y-101201939D01*
X129835000Y-100998061D01*
X129795226Y-100798102D01*
X129757262Y-100706449D01*
X129803937Y-100659774D01*
X129917205Y-100490256D01*
X129995226Y-100301898D01*
X130035000Y-100101939D01*
X130035000Y-99898061D01*
X129995226Y-99698102D01*
X129948378Y-99585001D01*
X136939197Y-99585001D01*
X136982795Y-99690256D01*
X137096063Y-99859774D01*
X137240226Y-100003937D01*
X137409744Y-100117205D01*
X137598102Y-100195226D01*
X137798061Y-100235000D01*
X138001939Y-100235000D01*
X138201898Y-100195226D01*
X138390256Y-100117205D01*
X138559774Y-100003937D01*
X138703937Y-99859774D01*
X138817205Y-99690256D01*
X138895226Y-99501898D01*
X138935000Y-99301939D01*
X138935000Y-99098061D01*
X138895226Y-98898102D01*
X138817205Y-98709744D01*
X138704408Y-98540931D01*
X138759774Y-98503937D01*
X138903937Y-98359774D01*
X139017205Y-98190256D01*
X139095226Y-98001898D01*
X139135000Y-97801939D01*
X139135000Y-97598061D01*
X139095226Y-97398102D01*
X139017205Y-97209744D01*
X138903937Y-97040226D01*
X138841935Y-96978224D01*
X139582345Y-96237815D01*
X139655861Y-96148235D01*
X139728753Y-96011862D01*
X139773641Y-95863890D01*
X139788797Y-95710003D01*
X139773641Y-95556116D01*
X139760000Y-95511149D01*
X139760000Y-94950000D01*
X147711928Y-94950000D01*
X147711928Y-96650000D01*
X147724188Y-96774482D01*
X147760498Y-96894180D01*
X147819463Y-97004494D01*
X147898815Y-97101185D01*
X147995506Y-97180537D01*
X148105820Y-97239502D01*
X148225518Y-97275812D01*
X148350000Y-97288072D01*
X150050000Y-97288072D01*
X150174482Y-97275812D01*
X150294180Y-97239502D01*
X150404494Y-97180537D01*
X150501185Y-97101185D01*
X150580537Y-97004494D01*
X150639502Y-96894180D01*
X150675812Y-96774482D01*
X150688072Y-96650000D01*
X150688072Y-94950000D01*
X150675812Y-94825518D01*
X150639502Y-94705820D01*
X150580537Y-94595506D01*
X150501185Y-94498815D01*
X150404494Y-94419463D01*
X150294180Y-94360498D01*
X150221620Y-94338487D01*
X150353475Y-94206632D01*
X150515990Y-93963411D01*
X150627932Y-93693158D01*
X150685000Y-93406260D01*
X150685000Y-93113740D01*
X150627932Y-92826842D01*
X150515990Y-92556589D01*
X150353475Y-92313368D01*
X150146632Y-92106525D01*
X149972240Y-91990000D01*
X150146632Y-91873475D01*
X150353475Y-91666632D01*
X150515990Y-91423411D01*
X150627932Y-91153158D01*
X150685000Y-90866260D01*
X150685000Y-90573740D01*
X150627932Y-90286842D01*
X150515990Y-90016589D01*
X150353475Y-89773368D01*
X150146632Y-89566525D01*
X149972240Y-89450000D01*
X150146632Y-89333475D01*
X150353475Y-89126632D01*
X150515990Y-88883411D01*
X150627932Y-88613158D01*
X150685000Y-88326260D01*
X150685000Y-88033740D01*
X150627932Y-87746842D01*
X150515990Y-87476589D01*
X150353475Y-87233368D01*
X150146632Y-87026525D01*
X149972240Y-86910000D01*
X150146632Y-86793475D01*
X150353475Y-86586632D01*
X150515990Y-86343411D01*
X150627932Y-86073158D01*
X150685000Y-85786260D01*
X150685000Y-85493740D01*
X150627932Y-85206842D01*
X150515990Y-84936589D01*
X150353475Y-84693368D01*
X150146632Y-84486525D01*
X149964466Y-84364805D01*
X150081355Y-84295178D01*
X150297588Y-84100269D01*
X150471641Y-83866920D01*
X150596825Y-83604099D01*
X150641476Y-83456890D01*
X150520155Y-83227000D01*
X149327000Y-83227000D01*
X149327000Y-83247000D01*
X149073000Y-83247000D01*
X149073000Y-83227000D01*
X147879845Y-83227000D01*
X147758524Y-83456890D01*
X147803175Y-83604099D01*
X147928359Y-83866920D01*
X148102412Y-84100269D01*
X148318645Y-84295178D01*
X148435534Y-84364805D01*
X148253368Y-84486525D01*
X148046525Y-84693368D01*
X147884010Y-84936589D01*
X147772068Y-85206842D01*
X147715000Y-85493740D01*
X147715000Y-85786260D01*
X147772068Y-86073158D01*
X147884010Y-86343411D01*
X148046525Y-86586632D01*
X148253368Y-86793475D01*
X148427760Y-86910000D01*
X148253368Y-87026525D01*
X148046525Y-87233368D01*
X147884010Y-87476589D01*
X147772068Y-87746842D01*
X147715000Y-88033740D01*
X147715000Y-88326260D01*
X147772068Y-88613158D01*
X147884010Y-88883411D01*
X148046525Y-89126632D01*
X148253368Y-89333475D01*
X148427760Y-89450000D01*
X148253368Y-89566525D01*
X148046525Y-89773368D01*
X147884010Y-90016589D01*
X147772068Y-90286842D01*
X147715000Y-90573740D01*
X147715000Y-90866260D01*
X147772068Y-91153158D01*
X147884010Y-91423411D01*
X148046525Y-91666632D01*
X148253368Y-91873475D01*
X148427760Y-91990000D01*
X148253368Y-92106525D01*
X148046525Y-92313368D01*
X147884010Y-92556589D01*
X147772068Y-92826842D01*
X147715000Y-93113740D01*
X147715000Y-93406260D01*
X147772068Y-93693158D01*
X147884010Y-93963411D01*
X148046525Y-94206632D01*
X148178380Y-94338487D01*
X148105820Y-94360498D01*
X147995506Y-94419463D01*
X147898815Y-94498815D01*
X147819463Y-94595506D01*
X147760498Y-94705820D01*
X147724188Y-94825518D01*
X147711928Y-94950000D01*
X139760000Y-94950000D01*
X139760000Y-93798061D01*
X143165000Y-93798061D01*
X143165000Y-94001939D01*
X143204774Y-94201898D01*
X143282795Y-94390256D01*
X143396063Y-94559774D01*
X143540226Y-94703937D01*
X143709744Y-94817205D01*
X143898102Y-94895226D01*
X144098061Y-94935000D01*
X144301939Y-94935000D01*
X144501898Y-94895226D01*
X144690256Y-94817205D01*
X144859774Y-94703937D01*
X145003937Y-94559774D01*
X145117205Y-94390256D01*
X145195226Y-94201898D01*
X145235000Y-94001939D01*
X145235000Y-93798061D01*
X145195226Y-93598102D01*
X145117205Y-93409744D01*
X145003937Y-93240226D01*
X144859774Y-93096063D01*
X144690256Y-92982795D01*
X144501898Y-92904774D01*
X144301939Y-92865000D01*
X144098061Y-92865000D01*
X143898102Y-92904774D01*
X143709744Y-92982795D01*
X143540226Y-93096063D01*
X143396063Y-93240226D01*
X143282795Y-93409744D01*
X143204774Y-93598102D01*
X143165000Y-93798061D01*
X139760000Y-93798061D01*
X139760000Y-84897322D01*
X139763676Y-84859999D01*
X139760000Y-84822676D01*
X139760000Y-84822667D01*
X139749003Y-84711014D01*
X139705546Y-84567753D01*
X139639482Y-84444157D01*
X139634974Y-84435723D01*
X139563799Y-84348997D01*
X139540001Y-84319999D01*
X139511003Y-84296201D01*
X138255000Y-83040199D01*
X138255000Y-82978061D01*
X138215226Y-82778102D01*
X138200732Y-82743110D01*
X147758524Y-82743110D01*
X147879845Y-82973000D01*
X149073000Y-82973000D01*
X149073000Y-81779186D01*
X149327000Y-81779186D01*
X149327000Y-82973000D01*
X150520155Y-82973000D01*
X150641476Y-82743110D01*
X150596825Y-82595901D01*
X150471641Y-82333080D01*
X150297588Y-82099731D01*
X150081355Y-81904822D01*
X149831252Y-81755843D01*
X149556891Y-81658519D01*
X149327000Y-81779186D01*
X149073000Y-81779186D01*
X148843109Y-81658519D01*
X148568748Y-81755843D01*
X148318645Y-81904822D01*
X148102412Y-82099731D01*
X147928359Y-82333080D01*
X147803175Y-82595901D01*
X147758524Y-82743110D01*
X138200732Y-82743110D01*
X138137205Y-82589744D01*
X138023937Y-82420226D01*
X137879774Y-82276063D01*
X137710256Y-82162795D01*
X137521898Y-82084774D01*
X137321939Y-82045000D01*
X137118061Y-82045000D01*
X136918102Y-82084774D01*
X136729744Y-82162795D01*
X136560226Y-82276063D01*
X136416063Y-82420226D01*
X136302795Y-82589744D01*
X136224774Y-82778102D01*
X136185000Y-82978061D01*
X136185000Y-83181939D01*
X136224774Y-83381898D01*
X136302795Y-83570256D01*
X136416063Y-83739774D01*
X136560226Y-83883937D01*
X136729744Y-83997205D01*
X136918102Y-84075226D01*
X137118061Y-84115000D01*
X137180199Y-84115000D01*
X138240001Y-85174803D01*
X138240000Y-94861978D01*
X138101898Y-94804774D01*
X137901939Y-94765000D01*
X137698061Y-94765000D01*
X137498102Y-94804774D01*
X137309744Y-94882795D01*
X137140226Y-94996063D01*
X136996063Y-95140226D01*
X136952090Y-95206036D01*
X136995226Y-95101898D01*
X137035000Y-94901939D01*
X137035000Y-94698061D01*
X136995226Y-94498102D01*
X136917205Y-94309744D01*
X136803937Y-94140226D01*
X136659774Y-93996063D01*
X136490256Y-93882795D01*
X136301898Y-93804774D01*
X136101939Y-93765000D01*
X135898061Y-93765000D01*
X135698102Y-93804774D01*
X135509744Y-93882795D01*
X135340226Y-93996063D01*
X135196063Y-94140226D01*
X135162769Y-94190054D01*
X134437834Y-94914989D01*
X128002189Y-94914989D01*
X128002189Y-93301087D01*
X128102170Y-87502189D01*
X128100157Y-87477374D01*
X128093342Y-87453429D01*
X128081986Y-87431273D01*
X128066526Y-87411759D01*
X128047556Y-87395635D01*
X128025805Y-87383523D01*
X128002109Y-87375886D01*
X127975189Y-87373000D01*
X127724353Y-87373000D01*
X127755393Y-87298061D01*
X129965000Y-87298061D01*
X129965000Y-87501939D01*
X130004774Y-87701898D01*
X130082795Y-87890256D01*
X130196063Y-88059774D01*
X130340226Y-88203937D01*
X130509744Y-88317205D01*
X130698102Y-88395226D01*
X130898061Y-88435000D01*
X131101939Y-88435000D01*
X131301898Y-88395226D01*
X131469728Y-88325708D01*
X131504774Y-88501898D01*
X131582795Y-88690256D01*
X131696063Y-88859774D01*
X131840226Y-89003937D01*
X131943586Y-89073000D01*
X131575189Y-89073000D01*
X131550413Y-89075440D01*
X131526588Y-89082667D01*
X131504632Y-89094403D01*
X131485386Y-89110197D01*
X131469592Y-89129443D01*
X131457856Y-89151399D01*
X131450629Y-89175224D01*
X131448189Y-89200000D01*
X131448189Y-93300000D01*
X131450629Y-93324776D01*
X131457856Y-93348601D01*
X131469592Y-93370557D01*
X131485386Y-93389803D01*
X131504632Y-93405597D01*
X131526588Y-93417333D01*
X131550413Y-93424560D01*
X131575189Y-93427000D01*
X136175189Y-93427000D01*
X136199965Y-93424560D01*
X136223790Y-93417333D01*
X136245746Y-93405597D01*
X136264992Y-93389803D01*
X136280786Y-93370557D01*
X136292522Y-93348601D01*
X136299749Y-93324776D01*
X136302189Y-93300000D01*
X136302189Y-89200000D01*
X136299749Y-89175224D01*
X136292522Y-89151399D01*
X136280786Y-89129443D01*
X136264992Y-89110197D01*
X136245746Y-89094403D01*
X136223790Y-89082667D01*
X136199965Y-89075440D01*
X136175189Y-89073000D01*
X133056414Y-89073000D01*
X133159774Y-89003937D01*
X133303937Y-88859774D01*
X133417205Y-88690256D01*
X133495226Y-88501898D01*
X133535000Y-88301939D01*
X133535000Y-88098061D01*
X133495226Y-87898102D01*
X133417205Y-87709744D01*
X133303937Y-87540226D01*
X133159774Y-87396063D01*
X132990256Y-87282795D01*
X132801898Y-87204774D01*
X132601939Y-87165000D01*
X132398061Y-87165000D01*
X132198102Y-87204774D01*
X132030272Y-87274292D01*
X131995226Y-87098102D01*
X131917205Y-86909744D01*
X131803937Y-86740226D01*
X131659774Y-86596063D01*
X131490256Y-86482795D01*
X131301898Y-86404774D01*
X131101939Y-86365000D01*
X130898061Y-86365000D01*
X130698102Y-86404774D01*
X130509744Y-86482795D01*
X130340226Y-86596063D01*
X130196063Y-86740226D01*
X130082795Y-86909744D01*
X130004774Y-87098102D01*
X129965000Y-87298061D01*
X127755393Y-87298061D01*
X127795226Y-87201898D01*
X127835000Y-87001939D01*
X127835000Y-86898711D01*
X127840226Y-86903937D01*
X128009744Y-87017205D01*
X128198102Y-87095226D01*
X128398061Y-87135000D01*
X128601939Y-87135000D01*
X128801898Y-87095226D01*
X128990256Y-87017205D01*
X129159774Y-86903937D01*
X129303937Y-86759774D01*
X129417205Y-86590256D01*
X129495226Y-86401898D01*
X129535000Y-86201939D01*
X129535000Y-85998061D01*
X129495226Y-85798102D01*
X129417205Y-85609744D01*
X129303937Y-85440226D01*
X129159774Y-85296063D01*
X128990256Y-85182795D01*
X128801898Y-85104774D01*
X128601939Y-85065000D01*
X128398061Y-85065000D01*
X128198102Y-85104774D01*
X128009744Y-85182795D01*
X127840226Y-85296063D01*
X127696063Y-85440226D01*
X127582795Y-85609744D01*
X127504774Y-85798102D01*
X127465000Y-85998061D01*
X127465000Y-86101289D01*
X127459774Y-86096063D01*
X127290256Y-85982795D01*
X127101898Y-85904774D01*
X126901939Y-85865000D01*
X126698061Y-85865000D01*
X126498102Y-85904774D01*
X126309744Y-85982795D01*
X126140226Y-86096063D01*
X125996063Y-86240226D01*
X125882795Y-86409744D01*
X125804774Y-86598102D01*
X125765000Y-86798061D01*
X125765000Y-87001939D01*
X125804774Y-87201898D01*
X125875647Y-87373000D01*
X119875189Y-87373000D01*
X119850413Y-87375440D01*
X119826588Y-87382667D01*
X119804632Y-87394403D01*
X119785386Y-87410197D01*
X119769592Y-87429443D01*
X119757856Y-87451399D01*
X119750629Y-87475224D01*
X119748189Y-87500000D01*
X119748189Y-90273000D01*
X116454279Y-90273000D01*
X117769389Y-88957891D01*
X117782795Y-88990256D01*
X117896063Y-89159774D01*
X118040226Y-89303937D01*
X118209744Y-89417205D01*
X118398102Y-89495226D01*
X118598061Y-89535000D01*
X118801939Y-89535000D01*
X119001898Y-89495226D01*
X119190256Y-89417205D01*
X119359774Y-89303937D01*
X119503937Y-89159774D01*
X119617205Y-88990256D01*
X119695226Y-88801898D01*
X119735000Y-88601939D01*
X119735000Y-88398061D01*
X119695226Y-88198102D01*
X119617205Y-88009744D01*
X119503937Y-87840226D01*
X119359774Y-87696063D01*
X119190256Y-87582795D01*
X119001898Y-87504774D01*
X118801939Y-87465000D01*
X118598061Y-87465000D01*
X118485000Y-87487489D01*
X118485000Y-86890155D01*
X119777094Y-85598061D01*
X123865000Y-85598061D01*
X123865000Y-85801939D01*
X123904774Y-86001898D01*
X123982795Y-86190256D01*
X124096063Y-86359774D01*
X124240226Y-86503937D01*
X124409744Y-86617205D01*
X124598102Y-86695226D01*
X124798061Y-86735000D01*
X125001939Y-86735000D01*
X125201898Y-86695226D01*
X125390256Y-86617205D01*
X125559774Y-86503937D01*
X125703937Y-86359774D01*
X125817205Y-86190256D01*
X125895226Y-86001898D01*
X125935000Y-85801939D01*
X125935000Y-85598061D01*
X125895226Y-85398102D01*
X125817205Y-85209744D01*
X125703937Y-85040226D01*
X125559774Y-84896063D01*
X125390256Y-84782795D01*
X125201898Y-84704774D01*
X125001939Y-84665000D01*
X124798061Y-84665000D01*
X124598102Y-84704774D01*
X124409744Y-84782795D01*
X124240226Y-84896063D01*
X124096063Y-85040226D01*
X123982795Y-85209744D01*
X123904774Y-85398102D01*
X123865000Y-85598061D01*
X119777094Y-85598061D01*
X124997547Y-80377609D01*
X125038233Y-80355862D01*
X125157764Y-80257764D01*
X125255862Y-80138233D01*
X125328754Y-80001860D01*
X125373641Y-79853887D01*
X125388798Y-79700000D01*
X125385000Y-79661439D01*
X125385000Y-75327000D01*
X126275647Y-75327000D01*
X126204774Y-75498102D01*
X126165000Y-75698061D01*
X126165000Y-75759907D01*
X126109744Y-75782795D01*
X125940226Y-75896063D01*
X125796063Y-76040226D01*
X125682795Y-76209744D01*
X125604774Y-76398102D01*
X125565000Y-76598061D01*
X125565000Y-76801939D01*
X125604774Y-77001898D01*
X125682795Y-77190256D01*
X125796063Y-77359774D01*
X125940226Y-77503937D01*
X126109744Y-77617205D01*
X126173271Y-77643519D01*
X126204774Y-77801898D01*
X126282795Y-77990256D01*
X126396063Y-78159774D01*
X126540226Y-78303937D01*
X126709744Y-78417205D01*
X126898102Y-78495226D01*
X127098061Y-78535000D01*
X127301939Y-78535000D01*
X127501898Y-78495226D01*
X127690256Y-78417205D01*
X127859774Y-78303937D01*
X128003937Y-78159774D01*
X128117205Y-77990256D01*
X128195226Y-77801898D01*
X128235000Y-77601939D01*
X128235000Y-77398061D01*
X128195226Y-77198102D01*
X128117205Y-77009744D01*
X128003937Y-76840226D01*
X127859774Y-76696063D01*
X127790836Y-76650000D01*
X127859774Y-76603937D01*
X128003937Y-76459774D01*
X128117205Y-76290256D01*
X128195226Y-76101898D01*
X128235000Y-75901939D01*
X128235000Y-75770000D01*
X147711928Y-75770000D01*
X147711928Y-77470000D01*
X147724188Y-77594482D01*
X147760498Y-77714180D01*
X147819463Y-77824494D01*
X147898815Y-77921185D01*
X147995506Y-78000537D01*
X148105820Y-78059502D01*
X148225518Y-78095812D01*
X148350000Y-78108072D01*
X150050000Y-78108072D01*
X150174482Y-78095812D01*
X150294180Y-78059502D01*
X150404494Y-78000537D01*
X150501185Y-77921185D01*
X150580537Y-77824494D01*
X150639502Y-77714180D01*
X150675812Y-77594482D01*
X150688072Y-77470000D01*
X150688072Y-75770000D01*
X150675812Y-75645518D01*
X150639502Y-75525820D01*
X150580537Y-75415506D01*
X150501185Y-75318815D01*
X150404494Y-75239463D01*
X150294180Y-75180498D01*
X150221620Y-75158487D01*
X150353475Y-75026632D01*
X150515990Y-74783411D01*
X150627932Y-74513158D01*
X150685000Y-74226260D01*
X150685000Y-73933740D01*
X150627932Y-73646842D01*
X150515990Y-73376589D01*
X150353475Y-73133368D01*
X150146632Y-72926525D01*
X149972240Y-72810000D01*
X150146632Y-72693475D01*
X150353475Y-72486632D01*
X150515990Y-72243411D01*
X150627932Y-71973158D01*
X150685000Y-71686260D01*
X150685000Y-71393740D01*
X150627932Y-71106842D01*
X150515990Y-70836589D01*
X150353475Y-70593368D01*
X150146632Y-70386525D01*
X149972240Y-70270000D01*
X150146632Y-70153475D01*
X150353475Y-69946632D01*
X150515990Y-69703411D01*
X150627932Y-69433158D01*
X150685000Y-69146260D01*
X150685000Y-68853740D01*
X150627932Y-68566842D01*
X150515990Y-68296589D01*
X150353475Y-68053368D01*
X150146632Y-67846525D01*
X149964466Y-67724805D01*
X150081355Y-67655178D01*
X150297588Y-67460269D01*
X150471641Y-67226920D01*
X150596825Y-66964099D01*
X150641476Y-66816890D01*
X150520155Y-66587000D01*
X149327000Y-66587000D01*
X149327000Y-66607000D01*
X149073000Y-66607000D01*
X149073000Y-66587000D01*
X147879845Y-66587000D01*
X147758524Y-66816890D01*
X147803175Y-66964099D01*
X147928359Y-67226920D01*
X148102412Y-67460269D01*
X148318645Y-67655178D01*
X148435534Y-67724805D01*
X148253368Y-67846525D01*
X148046525Y-68053368D01*
X147884010Y-68296589D01*
X147772068Y-68566842D01*
X147715000Y-68853740D01*
X147715000Y-69146260D01*
X147772068Y-69433158D01*
X147884010Y-69703411D01*
X148046525Y-69946632D01*
X148253368Y-70153475D01*
X148427760Y-70270000D01*
X148253368Y-70386525D01*
X148046525Y-70593368D01*
X147884010Y-70836589D01*
X147772068Y-71106842D01*
X147715000Y-71393740D01*
X147715000Y-71686260D01*
X147772068Y-71973158D01*
X147884010Y-72243411D01*
X148046525Y-72486632D01*
X148253368Y-72693475D01*
X148427760Y-72810000D01*
X148253368Y-72926525D01*
X148046525Y-73133368D01*
X147884010Y-73376589D01*
X147772068Y-73646842D01*
X147715000Y-73933740D01*
X147715000Y-74226260D01*
X147772068Y-74513158D01*
X147884010Y-74783411D01*
X148046525Y-75026632D01*
X148178380Y-75158487D01*
X148105820Y-75180498D01*
X147995506Y-75239463D01*
X147898815Y-75318815D01*
X147819463Y-75415506D01*
X147760498Y-75525820D01*
X147724188Y-75645518D01*
X147711928Y-75770000D01*
X128235000Y-75770000D01*
X128235000Y-75698061D01*
X128195226Y-75498102D01*
X128124353Y-75327000D01*
X141075189Y-75327000D01*
X141099965Y-75324560D01*
X141123790Y-75317333D01*
X141145746Y-75305597D01*
X141164992Y-75289803D01*
X141180786Y-75270557D01*
X141192522Y-75248601D01*
X141199749Y-75224776D01*
X141202185Y-75201050D01*
X141277374Y-66103110D01*
X147758524Y-66103110D01*
X147879845Y-66333000D01*
X149073000Y-66333000D01*
X149073000Y-65139186D01*
X149327000Y-65139186D01*
X149327000Y-66333000D01*
X150520155Y-66333000D01*
X150641476Y-66103110D01*
X150596825Y-65955901D01*
X150471641Y-65693080D01*
X150297588Y-65459731D01*
X150081355Y-65264822D01*
X149831252Y-65115843D01*
X149556891Y-65018519D01*
X149327000Y-65139186D01*
X149073000Y-65139186D01*
X148843109Y-65018519D01*
X148568748Y-65115843D01*
X148318645Y-65264822D01*
X148102412Y-65459731D01*
X147928359Y-65693080D01*
X147803175Y-65955901D01*
X147758524Y-66103110D01*
X141277374Y-66103110D01*
X141301144Y-63227000D01*
X151290000Y-63227000D01*
X151290001Y-103821016D01*
X150978839Y-103355330D01*
X150444670Y-102821161D01*
X149816554Y-102401467D01*
X149118628Y-102112377D01*
X148377715Y-101965000D01*
X147622285Y-101965000D01*
X146881372Y-102112377D01*
X146183446Y-102401467D01*
X145555330Y-102821161D01*
X145021161Y-103355330D01*
X144601467Y-103983446D01*
X144312377Y-104681372D01*
X144165000Y-105422285D01*
X144165000Y-106177715D01*
X144312377Y-106918628D01*
X144601467Y-107616554D01*
X145021161Y-108244670D01*
X145555330Y-108778839D01*
X146183446Y-109198533D01*
X146404267Y-109290000D01*
X77795733Y-109290000D01*
X78016554Y-109198533D01*
X78644670Y-108778839D01*
X79178839Y-108244670D01*
X79598533Y-107616554D01*
X79887623Y-106918628D01*
X80035000Y-106177715D01*
X80035000Y-105450000D01*
X81311928Y-105450000D01*
X81311928Y-107150000D01*
X81324188Y-107274482D01*
X81360498Y-107394180D01*
X81419463Y-107504494D01*
X81498815Y-107601185D01*
X81595506Y-107680537D01*
X81705820Y-107739502D01*
X81825518Y-107775812D01*
X81950000Y-107788072D01*
X83650000Y-107788072D01*
X83774482Y-107775812D01*
X83894180Y-107739502D01*
X84004494Y-107680537D01*
X84101185Y-107601185D01*
X84180537Y-107504494D01*
X84239502Y-107394180D01*
X84261513Y-107321620D01*
X84393368Y-107453475D01*
X84636589Y-107615990D01*
X84906842Y-107727932D01*
X85193740Y-107785000D01*
X85486260Y-107785000D01*
X85773158Y-107727932D01*
X86043411Y-107615990D01*
X86286632Y-107453475D01*
X86493475Y-107246632D01*
X86610000Y-107072240D01*
X86726525Y-107246632D01*
X86933368Y-107453475D01*
X87176589Y-107615990D01*
X87446842Y-107727932D01*
X87733740Y-107785000D01*
X88026260Y-107785000D01*
X88313158Y-107727932D01*
X88583411Y-107615990D01*
X88826632Y-107453475D01*
X89033475Y-107246632D01*
X89155195Y-107064466D01*
X89224822Y-107181355D01*
X89419731Y-107397588D01*
X89653080Y-107571641D01*
X89915901Y-107696825D01*
X90063110Y-107741476D01*
X90293000Y-107620155D01*
X90293000Y-106427000D01*
X90547000Y-106427000D01*
X90547000Y-107620155D01*
X90776890Y-107741476D01*
X90924099Y-107696825D01*
X91186920Y-107571641D01*
X91420269Y-107397588D01*
X91615178Y-107181355D01*
X91764157Y-106931252D01*
X91861481Y-106656891D01*
X91740814Y-106427000D01*
X90547000Y-106427000D01*
X90293000Y-106427000D01*
X90273000Y-106427000D01*
X90273000Y-106173000D01*
X90293000Y-106173000D01*
X90293000Y-104979845D01*
X90547000Y-104979845D01*
X90547000Y-106173000D01*
X91740814Y-106173000D01*
X91861481Y-105943109D01*
X91764157Y-105668748D01*
X91615178Y-105418645D01*
X91420269Y-105202412D01*
X91186920Y-105028359D01*
X90924099Y-104903175D01*
X90776890Y-104858524D01*
X90547000Y-104979845D01*
X90293000Y-104979845D01*
X90063110Y-104858524D01*
X89915901Y-104903175D01*
X89653080Y-105028359D01*
X89419731Y-105202412D01*
X89224822Y-105418645D01*
X89155195Y-105535534D01*
X89033475Y-105353368D01*
X88826632Y-105146525D01*
X88583411Y-104984010D01*
X88313158Y-104872068D01*
X88026260Y-104815000D01*
X87733740Y-104815000D01*
X87446842Y-104872068D01*
X87176589Y-104984010D01*
X86933368Y-105146525D01*
X86726525Y-105353368D01*
X86610000Y-105527760D01*
X86493475Y-105353368D01*
X86286632Y-105146525D01*
X86043411Y-104984010D01*
X85773158Y-104872068D01*
X85486260Y-104815000D01*
X85193740Y-104815000D01*
X84906842Y-104872068D01*
X84636589Y-104984010D01*
X84393368Y-105146525D01*
X84261513Y-105278380D01*
X84239502Y-105205820D01*
X84180537Y-105095506D01*
X84101185Y-104998815D01*
X84004494Y-104919463D01*
X83894180Y-104860498D01*
X83774482Y-104824188D01*
X83650000Y-104811928D01*
X81950000Y-104811928D01*
X81825518Y-104824188D01*
X81705820Y-104860498D01*
X81595506Y-104919463D01*
X81498815Y-104998815D01*
X81419463Y-105095506D01*
X81360498Y-105205820D01*
X81324188Y-105325518D01*
X81311928Y-105450000D01*
X80035000Y-105450000D01*
X80035000Y-105422285D01*
X79910834Y-104798061D01*
X95265000Y-104798061D01*
X95265000Y-105001939D01*
X95304774Y-105201898D01*
X95382795Y-105390256D01*
X95496063Y-105559774D01*
X95640226Y-105703937D01*
X95809744Y-105817205D01*
X95998102Y-105895226D01*
X96198061Y-105935000D01*
X96401939Y-105935000D01*
X96601898Y-105895226D01*
X96790256Y-105817205D01*
X96959774Y-105703937D01*
X97103937Y-105559774D01*
X97217205Y-105390256D01*
X97295226Y-105201898D01*
X97295989Y-105198061D01*
X98765000Y-105198061D01*
X98765000Y-105401939D01*
X98804774Y-105601898D01*
X98882795Y-105790256D01*
X98996063Y-105959774D01*
X99140226Y-106103937D01*
X99309744Y-106217205D01*
X99498102Y-106295226D01*
X99698061Y-106335000D01*
X99901939Y-106335000D01*
X100101898Y-106295226D01*
X100290256Y-106217205D01*
X100438695Y-106118021D01*
X108065000Y-106118021D01*
X108065000Y-107081978D01*
X108081785Y-107252399D01*
X108148115Y-107471059D01*
X108255829Y-107672578D01*
X108400788Y-107849212D01*
X108577421Y-107994171D01*
X108778940Y-108101885D01*
X108997600Y-108168215D01*
X109225000Y-108190612D01*
X109452399Y-108168215D01*
X109671059Y-108101885D01*
X109872578Y-107994171D01*
X110049212Y-107849212D01*
X110194171Y-107672579D01*
X110301885Y-107471060D01*
X110368215Y-107252400D01*
X110385000Y-107081979D01*
X110385000Y-106118022D01*
X110368215Y-105947600D01*
X110301885Y-105728940D01*
X110194171Y-105527421D01*
X110049212Y-105350788D01*
X109872579Y-105205829D01*
X109671060Y-105098115D01*
X109452400Y-105031785D01*
X109225000Y-105009388D01*
X108997601Y-105031785D01*
X108778941Y-105098115D01*
X108577422Y-105205829D01*
X108400789Y-105350788D01*
X108255830Y-105527421D01*
X108148115Y-105728940D01*
X108081785Y-105947600D01*
X108065000Y-106118021D01*
X100438695Y-106118021D01*
X100459774Y-106103937D01*
X100603937Y-105959774D01*
X100717205Y-105790256D01*
X100795226Y-105601898D01*
X100835000Y-105401939D01*
X100835000Y-105198061D01*
X100795226Y-104998102D01*
X100717205Y-104809744D01*
X100603937Y-104640226D01*
X100459774Y-104496063D01*
X100290256Y-104382795D01*
X100101898Y-104304774D01*
X99901939Y-104265000D01*
X99698061Y-104265000D01*
X99498102Y-104304774D01*
X99309744Y-104382795D01*
X99140226Y-104496063D01*
X98996063Y-104640226D01*
X98882795Y-104809744D01*
X98804774Y-104998102D01*
X98765000Y-105198061D01*
X97295989Y-105198061D01*
X97335000Y-105001939D01*
X97335000Y-104798061D01*
X97295226Y-104598102D01*
X97217205Y-104409744D01*
X97103937Y-104240226D01*
X96959774Y-104096063D01*
X96790256Y-103982795D01*
X96601898Y-103904774D01*
X96401939Y-103865000D01*
X96198061Y-103865000D01*
X95998102Y-103904774D01*
X95809744Y-103982795D01*
X95640226Y-104096063D01*
X95496063Y-104240226D01*
X95382795Y-104409744D01*
X95304774Y-104598102D01*
X95265000Y-104798061D01*
X79910834Y-104798061D01*
X79887623Y-104681372D01*
X79598533Y-103983446D01*
X79178839Y-103355330D01*
X78644670Y-102821161D01*
X78016554Y-102401467D01*
X77318628Y-102112377D01*
X76577715Y-101965000D01*
X75822285Y-101965000D01*
X75081372Y-102112377D01*
X74383446Y-102401467D01*
X73755330Y-102821161D01*
X73221161Y-103355330D01*
X72801467Y-103983446D01*
X72710000Y-104204267D01*
X72710000Y-101198061D01*
X80465000Y-101198061D01*
X80465000Y-101401939D01*
X80504774Y-101601898D01*
X80582795Y-101790256D01*
X80696063Y-101959774D01*
X80840226Y-102103937D01*
X81009744Y-102217205D01*
X81198102Y-102295226D01*
X81398061Y-102335000D01*
X81465000Y-102335000D01*
X81465000Y-102401939D01*
X81504774Y-102601898D01*
X81582795Y-102790256D01*
X81696063Y-102959774D01*
X81840226Y-103103937D01*
X82009744Y-103217205D01*
X82198102Y-103295226D01*
X82398061Y-103335000D01*
X82601939Y-103335000D01*
X82801898Y-103295226D01*
X82990256Y-103217205D01*
X83159774Y-103103937D01*
X83303937Y-102959774D01*
X83417205Y-102790256D01*
X83495226Y-102601898D01*
X83535000Y-102401939D01*
X83535000Y-102198061D01*
X83495226Y-101998102D01*
X83417205Y-101809744D01*
X83303937Y-101640226D01*
X83161772Y-101498061D01*
X100165000Y-101498061D01*
X100165000Y-101701939D01*
X100204774Y-101901898D01*
X100282795Y-102090256D01*
X100396063Y-102259774D01*
X100540226Y-102403937D01*
X100709744Y-102517205D01*
X100898102Y-102595226D01*
X101098061Y-102635000D01*
X101301939Y-102635000D01*
X101501898Y-102595226D01*
X101690256Y-102517205D01*
X101859774Y-102403937D01*
X102003937Y-102259774D01*
X102117205Y-102090256D01*
X102195226Y-101901898D01*
X102235000Y-101701939D01*
X102235000Y-101498061D01*
X102195226Y-101298102D01*
X102117205Y-101109744D01*
X102003937Y-100940226D01*
X101859774Y-100796063D01*
X101690256Y-100682795D01*
X101501898Y-100604774D01*
X101301939Y-100565000D01*
X101098061Y-100565000D01*
X100898102Y-100604774D01*
X100709744Y-100682795D01*
X100540226Y-100796063D01*
X100396063Y-100940226D01*
X100282795Y-101109744D01*
X100204774Y-101298102D01*
X100165000Y-101498061D01*
X83161772Y-101498061D01*
X83159774Y-101496063D01*
X82990256Y-101382795D01*
X82801898Y-101304774D01*
X82601939Y-101265000D01*
X82535000Y-101265000D01*
X82535000Y-101198061D01*
X82495226Y-100998102D01*
X82417205Y-100809744D01*
X82303937Y-100640226D01*
X82159774Y-100496063D01*
X81990256Y-100382795D01*
X81801898Y-100304774D01*
X81601939Y-100265000D01*
X81398061Y-100265000D01*
X81198102Y-100304774D01*
X81009744Y-100382795D01*
X80840226Y-100496063D01*
X80696063Y-100640226D01*
X80582795Y-100809744D01*
X80504774Y-100998102D01*
X80465000Y-101198061D01*
X72710000Y-101198061D01*
X72710000Y-96356890D01*
X73558524Y-96356890D01*
X73603175Y-96504099D01*
X73728359Y-96766920D01*
X73902412Y-97000269D01*
X74118645Y-97195178D01*
X74368748Y-97344157D01*
X74643109Y-97441481D01*
X74873000Y-97320814D01*
X74873000Y-96127000D01*
X73679845Y-96127000D01*
X73558524Y-96356890D01*
X72710000Y-96356890D01*
X72710000Y-82450000D01*
X73511928Y-82450000D01*
X73511928Y-84150000D01*
X73524188Y-84274482D01*
X73560498Y-84394180D01*
X73619463Y-84504494D01*
X73698815Y-84601185D01*
X73795506Y-84680537D01*
X73905820Y-84739502D01*
X73978380Y-84761513D01*
X73846525Y-84893368D01*
X73684010Y-85136589D01*
X73572068Y-85406842D01*
X73515000Y-85693740D01*
X73515000Y-85986260D01*
X73572068Y-86273158D01*
X73684010Y-86543411D01*
X73846525Y-86786632D01*
X74053368Y-86993475D01*
X74227760Y-87110000D01*
X74053368Y-87226525D01*
X73846525Y-87433368D01*
X73684010Y-87676589D01*
X73572068Y-87946842D01*
X73515000Y-88233740D01*
X73515000Y-88526260D01*
X73572068Y-88813158D01*
X73684010Y-89083411D01*
X73846525Y-89326632D01*
X74053368Y-89533475D01*
X74227760Y-89650000D01*
X74053368Y-89766525D01*
X73846525Y-89973368D01*
X73684010Y-90216589D01*
X73572068Y-90486842D01*
X73515000Y-90773740D01*
X73515000Y-91066260D01*
X73572068Y-91353158D01*
X73684010Y-91623411D01*
X73846525Y-91866632D01*
X74053368Y-92073475D01*
X74227760Y-92190000D01*
X74053368Y-92306525D01*
X73846525Y-92513368D01*
X73684010Y-92756589D01*
X73572068Y-93026842D01*
X73515000Y-93313740D01*
X73515000Y-93606260D01*
X73572068Y-93893158D01*
X73684010Y-94163411D01*
X73846525Y-94406632D01*
X74053368Y-94613475D01*
X74235534Y-94735195D01*
X74118645Y-94804822D01*
X73902412Y-94999731D01*
X73728359Y-95233080D01*
X73603175Y-95495901D01*
X73558524Y-95643110D01*
X73679845Y-95873000D01*
X74873000Y-95873000D01*
X74873000Y-95853000D01*
X75127000Y-95853000D01*
X75127000Y-95873000D01*
X75147000Y-95873000D01*
X75147000Y-96127000D01*
X75127000Y-96127000D01*
X75127000Y-97320814D01*
X75356891Y-97441481D01*
X75631252Y-97344157D01*
X75881355Y-97195178D01*
X76097588Y-97000269D01*
X76271641Y-96766920D01*
X76396825Y-96504099D01*
X76441476Y-96356890D01*
X76320156Y-96127002D01*
X76485000Y-96127002D01*
X76485000Y-96055158D01*
X76557658Y-96127816D01*
X76582236Y-96157764D01*
X76612184Y-96182342D01*
X76612187Y-96182345D01*
X76633699Y-96199999D01*
X76701767Y-96255862D01*
X76838140Y-96328754D01*
X76986113Y-96373641D01*
X77101439Y-96385000D01*
X77101446Y-96385000D01*
X77139999Y-96388797D01*
X77178552Y-96385000D01*
X90921289Y-96385000D01*
X90940226Y-96403937D01*
X91109744Y-96517205D01*
X91298102Y-96595226D01*
X91498061Y-96635000D01*
X91701939Y-96635000D01*
X91901898Y-96595226D01*
X92090256Y-96517205D01*
X92259774Y-96403937D01*
X92403937Y-96259774D01*
X92517205Y-96090256D01*
X92595226Y-95901898D01*
X92635000Y-95701939D01*
X92635000Y-95498061D01*
X92595226Y-95298102D01*
X92517205Y-95109744D01*
X92481468Y-95056259D01*
X92559774Y-95003937D01*
X92703937Y-94859774D01*
X92817205Y-94690256D01*
X92895226Y-94501898D01*
X92935000Y-94301939D01*
X92935000Y-94098061D01*
X92895226Y-93898102D01*
X92817205Y-93709744D01*
X92703937Y-93540226D01*
X92559774Y-93396063D01*
X92390256Y-93282795D01*
X92201898Y-93204774D01*
X92001939Y-93165000D01*
X91798061Y-93165000D01*
X91598102Y-93204774D01*
X91409744Y-93282795D01*
X91240226Y-93396063D01*
X91096063Y-93540226D01*
X90982795Y-93709744D01*
X90904774Y-93898102D01*
X90865000Y-94098061D01*
X90865000Y-94301939D01*
X90904774Y-94501898D01*
X90982795Y-94690256D01*
X91018532Y-94743741D01*
X90940226Y-94796063D01*
X90921289Y-94815000D01*
X77465158Y-94815000D01*
X76447075Y-93796918D01*
X76485000Y-93606260D01*
X76485000Y-93313740D01*
X76427932Y-93026842D01*
X76315990Y-92756589D01*
X76153475Y-92513368D01*
X75946632Y-92306525D01*
X75772240Y-92190000D01*
X75946632Y-92073475D01*
X76153475Y-91866632D01*
X76266110Y-91698061D01*
X85965000Y-91698061D01*
X85965000Y-91901939D01*
X86004774Y-92101898D01*
X86082795Y-92290256D01*
X86196063Y-92459774D01*
X86340226Y-92603937D01*
X86509744Y-92717205D01*
X86698102Y-92795226D01*
X86898061Y-92835000D01*
X87101939Y-92835000D01*
X87301898Y-92795226D01*
X87490256Y-92717205D01*
X87659774Y-92603937D01*
X87803937Y-92459774D01*
X87917205Y-92290256D01*
X87995226Y-92101898D01*
X88035000Y-91901939D01*
X88035000Y-91698061D01*
X87995226Y-91498102D01*
X87917205Y-91309744D01*
X87803937Y-91140226D01*
X87659774Y-90996063D01*
X87490256Y-90882795D01*
X87301898Y-90804774D01*
X87101939Y-90765000D01*
X86898061Y-90765000D01*
X86698102Y-90804774D01*
X86509744Y-90882795D01*
X86340226Y-90996063D01*
X86196063Y-91140226D01*
X86082795Y-91309744D01*
X86004774Y-91498102D01*
X85965000Y-91698061D01*
X76266110Y-91698061D01*
X76315990Y-91623411D01*
X76427932Y-91353158D01*
X76485000Y-91066260D01*
X76485000Y-90773740D01*
X76427932Y-90486842D01*
X76315990Y-90216589D01*
X76153475Y-89973368D01*
X75946632Y-89766525D01*
X75772240Y-89650000D01*
X75946632Y-89533475D01*
X76153475Y-89326632D01*
X76315990Y-89083411D01*
X76351342Y-88998061D01*
X85265000Y-88998061D01*
X85265000Y-89201939D01*
X85304774Y-89401898D01*
X85382795Y-89590256D01*
X85496063Y-89759774D01*
X85640226Y-89903937D01*
X85809744Y-90017205D01*
X85998102Y-90095226D01*
X86198061Y-90135000D01*
X86401939Y-90135000D01*
X86601898Y-90095226D01*
X86790256Y-90017205D01*
X86959774Y-89903937D01*
X87103937Y-89759774D01*
X87217205Y-89590256D01*
X87295226Y-89401898D01*
X87335000Y-89201939D01*
X87335000Y-88998061D01*
X87295226Y-88798102D01*
X87217205Y-88609744D01*
X87103937Y-88440226D01*
X86959774Y-88296063D01*
X86790256Y-88182795D01*
X86601898Y-88104774D01*
X86401939Y-88065000D01*
X86198061Y-88065000D01*
X85998102Y-88104774D01*
X85809744Y-88182795D01*
X85640226Y-88296063D01*
X85496063Y-88440226D01*
X85382795Y-88609744D01*
X85304774Y-88798102D01*
X85265000Y-88998061D01*
X76351342Y-88998061D01*
X76427932Y-88813158D01*
X76485000Y-88526260D01*
X76485000Y-88233740D01*
X76427932Y-87946842D01*
X76315990Y-87676589D01*
X76153475Y-87433368D01*
X75946632Y-87226525D01*
X75772240Y-87110000D01*
X75939768Y-86998061D01*
X78465000Y-86998061D01*
X78465000Y-87201939D01*
X78504774Y-87401898D01*
X78582795Y-87590256D01*
X78696063Y-87759774D01*
X78840226Y-87903937D01*
X79009744Y-88017205D01*
X79198102Y-88095226D01*
X79398061Y-88135000D01*
X79601939Y-88135000D01*
X79801898Y-88095226D01*
X79990256Y-88017205D01*
X80159774Y-87903937D01*
X80303937Y-87759774D01*
X80417205Y-87590256D01*
X80495226Y-87401898D01*
X80535000Y-87201939D01*
X80535000Y-86998061D01*
X80495226Y-86798102D01*
X80417205Y-86609744D01*
X80303937Y-86440226D01*
X80159774Y-86296063D01*
X79990256Y-86182795D01*
X79801898Y-86104774D01*
X79601939Y-86065000D01*
X79398061Y-86065000D01*
X79198102Y-86104774D01*
X79009744Y-86182795D01*
X78840226Y-86296063D01*
X78696063Y-86440226D01*
X78582795Y-86609744D01*
X78504774Y-86798102D01*
X78465000Y-86998061D01*
X75939768Y-86998061D01*
X75946632Y-86993475D01*
X76153475Y-86786632D01*
X76315990Y-86543411D01*
X76427932Y-86273158D01*
X76485000Y-85986260D01*
X76485000Y-85693740D01*
X76427932Y-85406842D01*
X76315990Y-85136589D01*
X76153475Y-84893368D01*
X76021620Y-84761513D01*
X76094180Y-84739502D01*
X76204494Y-84680537D01*
X76301185Y-84601185D01*
X76380537Y-84504494D01*
X76439502Y-84394180D01*
X76475812Y-84274482D01*
X76488072Y-84150000D01*
X76488072Y-83298061D01*
X93365000Y-83298061D01*
X93365000Y-83501939D01*
X93404774Y-83701898D01*
X93482795Y-83890256D01*
X93596063Y-84059774D01*
X93615000Y-84078711D01*
X93615001Y-89973412D01*
X93604774Y-89998102D01*
X93565000Y-90198061D01*
X93565000Y-90401939D01*
X93604774Y-90601898D01*
X93682795Y-90790256D01*
X93796063Y-90959774D01*
X93940226Y-91103937D01*
X94109744Y-91217205D01*
X94298102Y-91295226D01*
X94498061Y-91335000D01*
X94701939Y-91335000D01*
X94901898Y-91295226D01*
X95090256Y-91217205D01*
X95259774Y-91103937D01*
X95403937Y-90959774D01*
X95517205Y-90790256D01*
X95595226Y-90601898D01*
X95635000Y-90401939D01*
X95635000Y-90198061D01*
X95595226Y-89998102D01*
X95517205Y-89809744D01*
X95403937Y-89640226D01*
X95259774Y-89496063D01*
X95185000Y-89446101D01*
X95185000Y-84078711D01*
X95203937Y-84059774D01*
X95317205Y-83890256D01*
X95395226Y-83701898D01*
X95435000Y-83501939D01*
X95435000Y-83298061D01*
X95395226Y-83098102D01*
X95317205Y-82909744D01*
X95203937Y-82740226D01*
X95059774Y-82596063D01*
X94890256Y-82482795D01*
X94701898Y-82404774D01*
X94501939Y-82365000D01*
X94298061Y-82365000D01*
X94098102Y-82404774D01*
X93909744Y-82482795D01*
X93740226Y-82596063D01*
X93596063Y-82740226D01*
X93482795Y-82909744D01*
X93404774Y-83098102D01*
X93365000Y-83298061D01*
X76488072Y-83298061D01*
X76488072Y-82450000D01*
X76475812Y-82325518D01*
X76439502Y-82205820D01*
X76380537Y-82095506D01*
X76301185Y-81998815D01*
X76204494Y-81919463D01*
X76094180Y-81860498D01*
X75974482Y-81824188D01*
X75850000Y-81811928D01*
X74150000Y-81811928D01*
X74025518Y-81824188D01*
X73905820Y-81860498D01*
X73795506Y-81919463D01*
X73698815Y-81998815D01*
X73619463Y-82095506D01*
X73560498Y-82205820D01*
X73524188Y-82325518D01*
X73511928Y-82450000D01*
X72710000Y-82450000D01*
X72710000Y-77016890D01*
X73558524Y-77016890D01*
X73603175Y-77164099D01*
X73728359Y-77426920D01*
X73902412Y-77660269D01*
X74118645Y-77855178D01*
X74368748Y-78004157D01*
X74643109Y-78101481D01*
X74873000Y-77980814D01*
X74873000Y-76787000D01*
X75127000Y-76787000D01*
X75127000Y-77980814D01*
X75356891Y-78101481D01*
X75631252Y-78004157D01*
X75881355Y-77855178D01*
X76097588Y-77660269D01*
X76271641Y-77426920D01*
X76396825Y-77164099D01*
X76441476Y-77016890D01*
X76320155Y-76787000D01*
X75127000Y-76787000D01*
X74873000Y-76787000D01*
X73679845Y-76787000D01*
X73558524Y-77016890D01*
X72710000Y-77016890D01*
X72710000Y-65650000D01*
X73511928Y-65650000D01*
X73511928Y-67350000D01*
X73524188Y-67474482D01*
X73560498Y-67594180D01*
X73619463Y-67704494D01*
X73698815Y-67801185D01*
X73795506Y-67880537D01*
X73905820Y-67939502D01*
X73978380Y-67961513D01*
X73846525Y-68093368D01*
X73684010Y-68336589D01*
X73572068Y-68606842D01*
X73515000Y-68893740D01*
X73515000Y-69186260D01*
X73572068Y-69473158D01*
X73684010Y-69743411D01*
X73846525Y-69986632D01*
X74053368Y-70193475D01*
X74227760Y-70310000D01*
X74053368Y-70426525D01*
X73846525Y-70633368D01*
X73684010Y-70876589D01*
X73572068Y-71146842D01*
X73515000Y-71433740D01*
X73515000Y-71726260D01*
X73572068Y-72013158D01*
X73684010Y-72283411D01*
X73846525Y-72526632D01*
X74053368Y-72733475D01*
X74227760Y-72850000D01*
X74053368Y-72966525D01*
X73846525Y-73173368D01*
X73684010Y-73416589D01*
X73572068Y-73686842D01*
X73515000Y-73973740D01*
X73515000Y-74266260D01*
X73572068Y-74553158D01*
X73684010Y-74823411D01*
X73846525Y-75066632D01*
X74053368Y-75273475D01*
X74235534Y-75395195D01*
X74118645Y-75464822D01*
X73902412Y-75659731D01*
X73728359Y-75893080D01*
X73603175Y-76155901D01*
X73558524Y-76303110D01*
X73679845Y-76533000D01*
X74873000Y-76533000D01*
X74873000Y-76513000D01*
X75127000Y-76513000D01*
X75127000Y-76533000D01*
X76320155Y-76533000D01*
X76338593Y-76498061D01*
X85165000Y-76498061D01*
X85165000Y-76701939D01*
X85204774Y-76901898D01*
X85282795Y-77090256D01*
X85396063Y-77259774D01*
X85540226Y-77403937D01*
X85709744Y-77517205D01*
X85898102Y-77595226D01*
X86098061Y-77635000D01*
X86301939Y-77635000D01*
X86501898Y-77595226D01*
X86690256Y-77517205D01*
X86859774Y-77403937D01*
X86865650Y-77398061D01*
X92365000Y-77398061D01*
X92365000Y-77601939D01*
X92404774Y-77801898D01*
X92482795Y-77990256D01*
X92596063Y-78159774D01*
X92740226Y-78303937D01*
X92909744Y-78417205D01*
X93098102Y-78495226D01*
X93298061Y-78535000D01*
X93501939Y-78535000D01*
X93701898Y-78495226D01*
X93890256Y-78417205D01*
X94059774Y-78303937D01*
X94100000Y-78263711D01*
X94140226Y-78303937D01*
X94309744Y-78417205D01*
X94498102Y-78495226D01*
X94698061Y-78535000D01*
X94901939Y-78535000D01*
X95101898Y-78495226D01*
X95290256Y-78417205D01*
X95459774Y-78303937D01*
X95603937Y-78159774D01*
X95717205Y-77990256D01*
X95795226Y-77801898D01*
X95835000Y-77601939D01*
X95835000Y-77398061D01*
X95795226Y-77198102D01*
X95717205Y-77009744D01*
X95603937Y-76840226D01*
X95459774Y-76696063D01*
X95290256Y-76582795D01*
X95101898Y-76504774D01*
X94901939Y-76465000D01*
X94698061Y-76465000D01*
X94498102Y-76504774D01*
X94309744Y-76582795D01*
X94140226Y-76696063D01*
X94100000Y-76736289D01*
X94059774Y-76696063D01*
X93890256Y-76582795D01*
X93701898Y-76504774D01*
X93501939Y-76465000D01*
X93298061Y-76465000D01*
X93098102Y-76504774D01*
X92909744Y-76582795D01*
X92740226Y-76696063D01*
X92596063Y-76840226D01*
X92482795Y-77009744D01*
X92404774Y-77198102D01*
X92365000Y-77398061D01*
X86865650Y-77398061D01*
X87003937Y-77259774D01*
X87117205Y-77090256D01*
X87195226Y-76901898D01*
X87235000Y-76701939D01*
X87235000Y-76498061D01*
X87195226Y-76298102D01*
X87117205Y-76109744D01*
X87003937Y-75940226D01*
X86859774Y-75796063D01*
X86690256Y-75682795D01*
X86501898Y-75604774D01*
X86301939Y-75565000D01*
X86098061Y-75565000D01*
X85898102Y-75604774D01*
X85709744Y-75682795D01*
X85540226Y-75796063D01*
X85396063Y-75940226D01*
X85282795Y-76109744D01*
X85204774Y-76298102D01*
X85165000Y-76498061D01*
X76338593Y-76498061D01*
X76441476Y-76303110D01*
X76396825Y-76155901D01*
X76271641Y-75893080D01*
X76097588Y-75659731D01*
X75881355Y-75464822D01*
X75764466Y-75395195D01*
X75946632Y-75273475D01*
X76153475Y-75066632D01*
X76315990Y-74823411D01*
X76427932Y-74553158D01*
X76485000Y-74266260D01*
X76485000Y-73973740D01*
X76427932Y-73686842D01*
X76315990Y-73416589D01*
X76153475Y-73173368D01*
X75946632Y-72966525D01*
X75772240Y-72850000D01*
X75946632Y-72733475D01*
X76153475Y-72526632D01*
X76315990Y-72283411D01*
X76427932Y-72013158D01*
X76485000Y-71726260D01*
X76485000Y-71433740D01*
X76427932Y-71146842D01*
X76315990Y-70876589D01*
X76153475Y-70633368D01*
X75946632Y-70426525D01*
X75772240Y-70310000D01*
X75946632Y-70193475D01*
X76153475Y-69986632D01*
X76315990Y-69743411D01*
X76427932Y-69473158D01*
X76485000Y-69186260D01*
X76485000Y-68893740D01*
X76427932Y-68606842D01*
X76315990Y-68336589D01*
X76153475Y-68093368D01*
X76021620Y-67961513D01*
X76094180Y-67939502D01*
X76204494Y-67880537D01*
X76301185Y-67801185D01*
X76380537Y-67704494D01*
X76439502Y-67594180D01*
X76475812Y-67474482D01*
X76488072Y-67350000D01*
X76488072Y-65650000D01*
X76475812Y-65525518D01*
X76439502Y-65405820D01*
X76380537Y-65295506D01*
X76301185Y-65198815D01*
X76204494Y-65119463D01*
X76094180Y-65060498D01*
X75974482Y-65024188D01*
X75850000Y-65011928D01*
X74150000Y-65011928D01*
X74025518Y-65024188D01*
X73905820Y-65060498D01*
X73795506Y-65119463D01*
X73698815Y-65198815D01*
X73619463Y-65295506D01*
X73560498Y-65405820D01*
X73524188Y-65525518D01*
X73511928Y-65650000D01*
X72710000Y-65650000D01*
X72710000Y-63027000D01*
X83148189Y-63027000D01*
X83148189Y-72400000D01*
%TA.AperFunction,Conductor*%
D26*
G36*
X83148189Y-72400000D02*
G01*
X83150629Y-72424776D01*
X83157856Y-72448601D01*
X83169592Y-72470557D01*
X83185386Y-72489803D01*
X83204632Y-72505597D01*
X83226588Y-72517333D01*
X83250413Y-72524560D01*
X83275189Y-72527000D01*
X97714981Y-72527000D01*
X97714981Y-79510193D01*
X97701898Y-79504774D01*
X97501939Y-79465000D01*
X97298061Y-79465000D01*
X97098102Y-79504774D01*
X96909744Y-79582795D01*
X96740226Y-79696063D01*
X96596063Y-79840226D01*
X96482795Y-80009744D01*
X96404774Y-80198102D01*
X96365000Y-80398061D01*
X96365000Y-80601939D01*
X96404774Y-80801898D01*
X96482795Y-80990256D01*
X96588225Y-81148044D01*
X96580884Y-81155385D01*
X96503937Y-81040226D01*
X96359774Y-80896063D01*
X96190256Y-80782795D01*
X96001898Y-80704774D01*
X95801939Y-80665000D01*
X95598061Y-80665000D01*
X95398102Y-80704774D01*
X95209744Y-80782795D01*
X95040226Y-80896063D01*
X94896063Y-81040226D01*
X94782795Y-81209744D01*
X94704774Y-81398102D01*
X94665000Y-81598061D01*
X94665000Y-81801939D01*
X94704774Y-82001898D01*
X94782795Y-82190256D01*
X94896063Y-82359774D01*
X95040226Y-82503937D01*
X95209744Y-82617205D01*
X95398102Y-82695226D01*
X95598061Y-82735000D01*
X95801939Y-82735000D01*
X96001898Y-82695226D01*
X96190256Y-82617205D01*
X96359774Y-82503937D01*
X96419096Y-82444615D01*
X96496043Y-82559774D01*
X96640206Y-82703937D01*
X96809724Y-82817205D01*
X96998082Y-82895226D01*
X97198041Y-82935000D01*
X97401919Y-82935000D01*
X97601878Y-82895226D01*
X97714980Y-82848377D01*
X97714980Y-86674863D01*
X96522184Y-87867659D01*
X96492236Y-87892237D01*
X96467658Y-87922185D01*
X96467654Y-87922189D01*
X96447422Y-87946842D01*
X96394138Y-88011768D01*
X96362473Y-88071010D01*
X96321245Y-88148142D01*
X96276358Y-88296115D01*
X96261202Y-88450001D01*
X96265000Y-88488563D01*
X96264999Y-89921448D01*
X96261202Y-89960001D01*
X96264999Y-89998554D01*
X96264999Y-89998561D01*
X96276358Y-90113887D01*
X96321245Y-90261860D01*
X96394137Y-90398233D01*
X96492235Y-90517765D01*
X96522189Y-90542348D01*
X100407656Y-94427816D01*
X100432234Y-94457764D01*
X100462182Y-94482342D01*
X100462185Y-94482345D01*
X100471825Y-94490256D01*
X100551765Y-94555862D01*
X100688138Y-94628754D01*
X100836111Y-94673641D01*
X100951437Y-94685000D01*
X100951444Y-94685000D01*
X100989997Y-94688797D01*
X101028550Y-94685000D01*
X106821289Y-94685000D01*
X106840226Y-94703937D01*
X107009744Y-94817205D01*
X107198102Y-94895226D01*
X107398061Y-94935000D01*
X107601939Y-94935000D01*
X107801898Y-94895226D01*
X107990256Y-94817205D01*
X108159774Y-94703937D01*
X108259163Y-94604548D01*
X108296063Y-94659774D01*
X108440226Y-94803937D01*
X108609744Y-94917205D01*
X108798102Y-94995226D01*
X108998061Y-95035000D01*
X109201939Y-95035000D01*
X109401898Y-94995226D01*
X109590256Y-94917205D01*
X109759774Y-94803937D01*
X109903937Y-94659774D01*
X110017205Y-94490256D01*
X110078565Y-94342120D01*
X110101939Y-94342120D01*
X110301898Y-94302346D01*
X110490256Y-94224325D01*
X110659774Y-94111057D01*
X110715646Y-94055185D01*
X110754774Y-94251898D01*
X110832795Y-94440256D01*
X110946063Y-94609774D01*
X111090226Y-94753937D01*
X111259744Y-94867205D01*
X111448102Y-94945226D01*
X111648061Y-94985000D01*
X111851939Y-94985000D01*
X112051898Y-94945226D01*
X112240256Y-94867205D01*
X112338110Y-94801821D01*
X112340226Y-94803937D01*
X112509744Y-94917205D01*
X112698102Y-94995226D01*
X112898061Y-95035000D01*
X113101939Y-95035000D01*
X113301898Y-94995226D01*
X113490256Y-94917205D01*
X113659774Y-94803937D01*
X113803937Y-94659774D01*
X113917205Y-94490256D01*
X113974800Y-94351209D01*
X114004774Y-94501898D01*
X114082795Y-94690256D01*
X114196063Y-94859774D01*
X114340226Y-95003937D01*
X114509744Y-95117205D01*
X114698102Y-95195226D01*
X114898061Y-95235000D01*
X115101939Y-95235000D01*
X115301898Y-95195226D01*
X115490256Y-95117205D01*
X115659774Y-95003937D01*
X115803937Y-94859774D01*
X115917205Y-94690256D01*
X115995226Y-94501898D01*
X116035000Y-94301939D01*
X116035000Y-94098061D01*
X116022456Y-94034999D01*
X118024842Y-94034999D01*
X119404842Y-95414999D01*
X108838553Y-95414999D01*
X108800000Y-95411202D01*
X108761447Y-95414999D01*
X108761440Y-95414999D01*
X108660491Y-95424942D01*
X108646113Y-95426358D01*
X108611673Y-95436805D01*
X108498141Y-95471245D01*
X108361768Y-95544137D01*
X108301560Y-95593549D01*
X108272188Y-95617654D01*
X108272185Y-95617657D01*
X108242237Y-95642235D01*
X108217659Y-95672183D01*
X106524843Y-97365000D01*
X106498061Y-97365000D01*
X106298102Y-97404774D01*
X106109744Y-97482795D01*
X106050000Y-97522715D01*
X105990256Y-97482795D01*
X105801898Y-97404774D01*
X105601939Y-97365000D01*
X105398061Y-97365000D01*
X105198102Y-97404774D01*
X105009744Y-97482795D01*
X104840226Y-97596063D01*
X104696063Y-97740226D01*
X104582795Y-97909744D01*
X104504774Y-98098102D01*
X104465000Y-98298061D01*
X104465000Y-98501939D01*
X104504774Y-98701898D01*
X104582795Y-98890256D01*
X104696063Y-99059774D01*
X104840226Y-99203937D01*
X105009744Y-99317205D01*
X105198102Y-99395226D01*
X105398061Y-99435000D01*
X105424843Y-99435000D01*
X109517658Y-103527816D01*
X109542236Y-103557764D01*
X109572184Y-103582342D01*
X109572187Y-103582345D01*
X109599517Y-103604774D01*
X109661767Y-103655862D01*
X109798140Y-103728754D01*
X109911672Y-103763194D01*
X109946112Y-103773641D01*
X109960490Y-103775057D01*
X110061439Y-103785000D01*
X110061446Y-103785000D01*
X110099999Y-103788797D01*
X110138552Y-103785000D01*
X114644841Y-103785000D01*
X115951202Y-105091362D01*
X115928940Y-105098115D01*
X115727421Y-105205829D01*
X115550788Y-105350788D01*
X115405829Y-105527422D01*
X115298115Y-105728941D01*
X115231785Y-105947601D01*
X115215000Y-106118022D01*
X115215000Y-107081979D01*
X115231785Y-107252400D01*
X115298115Y-107471060D01*
X115405830Y-107672579D01*
X115550789Y-107849212D01*
X115727422Y-107994171D01*
X115928941Y-108101885D01*
X116147601Y-108168215D01*
X116375000Y-108190612D01*
X116602400Y-108168215D01*
X116821060Y-108101885D01*
X117022579Y-107994171D01*
X117199212Y-107849212D01*
X117344171Y-107672579D01*
X117451885Y-107471060D01*
X117518215Y-107252400D01*
X117535000Y-107081978D01*
X117535000Y-106675160D01*
X119787656Y-108927816D01*
X119812234Y-108957764D01*
X119842182Y-108982342D01*
X119842185Y-108982345D01*
X119856376Y-108993991D01*
X119931765Y-109055862D01*
X120068138Y-109128754D01*
X120181670Y-109163194D01*
X120216110Y-109173641D01*
X120230488Y-109175057D01*
X120331437Y-109185000D01*
X120331444Y-109185000D01*
X120369997Y-109188797D01*
X120408550Y-109185000D01*
X121601447Y-109185000D01*
X121640000Y-109188797D01*
X121678553Y-109185000D01*
X121678561Y-109185000D01*
X121793887Y-109173641D01*
X121941860Y-109128754D01*
X122078233Y-109055862D01*
X122197764Y-108957764D01*
X122222347Y-108927810D01*
X123103082Y-108047075D01*
X123293740Y-108085000D01*
X123586260Y-108085000D01*
X123873158Y-108027932D01*
X124143411Y-107915990D01*
X124386632Y-107753475D01*
X124593475Y-107546632D01*
X124710000Y-107372240D01*
X124826525Y-107546632D01*
X125033368Y-107753475D01*
X125276589Y-107915990D01*
X125546842Y-108027932D01*
X125833740Y-108085000D01*
X126126260Y-108085000D01*
X126413158Y-108027932D01*
X126683411Y-107915990D01*
X126926632Y-107753475D01*
X127133475Y-107546632D01*
X127250000Y-107372240D01*
X127366525Y-107546632D01*
X127573368Y-107753475D01*
X127816589Y-107915990D01*
X128086842Y-108027932D01*
X128373740Y-108085000D01*
X128666260Y-108085000D01*
X128953158Y-108027932D01*
X129223411Y-107915990D01*
X129466632Y-107753475D01*
X129673475Y-107546632D01*
X129835990Y-107303411D01*
X129947932Y-107033158D01*
X130005000Y-106746260D01*
X130005000Y-106453740D01*
X129947932Y-106166842D01*
X129835990Y-105896589D01*
X129673475Y-105653368D01*
X129466632Y-105446525D01*
X129223411Y-105284010D01*
X128953158Y-105172068D01*
X128666260Y-105115000D01*
X128373740Y-105115000D01*
X128086842Y-105172068D01*
X127816589Y-105284010D01*
X127573368Y-105446525D01*
X127366525Y-105653368D01*
X127250000Y-105827760D01*
X127133475Y-105653368D01*
X126926632Y-105446525D01*
X126683411Y-105284010D01*
X126413158Y-105172068D01*
X126126260Y-105115000D01*
X125833740Y-105115000D01*
X125546842Y-105172068D01*
X125276589Y-105284010D01*
X125033368Y-105446525D01*
X124826525Y-105653368D01*
X124710000Y-105827760D01*
X124593475Y-105653368D01*
X124386632Y-105446525D01*
X124143411Y-105284010D01*
X123873158Y-105172068D01*
X123586260Y-105115000D01*
X123293740Y-105115000D01*
X123006842Y-105172068D01*
X122736589Y-105284010D01*
X122493368Y-105446525D01*
X122361513Y-105578380D01*
X122339502Y-105505820D01*
X122280537Y-105395506D01*
X122201185Y-105298815D01*
X122104494Y-105219463D01*
X121994180Y-105160498D01*
X121874482Y-105124188D01*
X121750000Y-105111928D01*
X120050000Y-105111928D01*
X119925518Y-105124188D01*
X119805820Y-105160498D01*
X119717736Y-105207580D01*
X119008217Y-104498061D01*
X131065000Y-104498061D01*
X131065000Y-104701939D01*
X131104774Y-104901898D01*
X131182795Y-105090256D01*
X131296063Y-105259774D01*
X131440226Y-105403937D01*
X131609744Y-105517205D01*
X131798102Y-105595226D01*
X131998061Y-105635000D01*
X132043254Y-105635000D01*
X132031928Y-105750000D01*
X132031928Y-107450000D01*
X132044188Y-107574482D01*
X132080498Y-107694180D01*
X132139463Y-107804494D01*
X132218815Y-107901185D01*
X132315506Y-107980537D01*
X132425820Y-108039502D01*
X132545518Y-108075812D01*
X132670000Y-108088072D01*
X134370000Y-108088072D01*
X134494482Y-108075812D01*
X134614180Y-108039502D01*
X134724494Y-107980537D01*
X134821185Y-107901185D01*
X134900537Y-107804494D01*
X134959502Y-107694180D01*
X134981513Y-107621620D01*
X135113368Y-107753475D01*
X135356589Y-107915990D01*
X135626842Y-108027932D01*
X135913740Y-108085000D01*
X136206260Y-108085000D01*
X136493158Y-108027932D01*
X136763411Y-107915990D01*
X137006632Y-107753475D01*
X137213475Y-107546632D01*
X137330000Y-107372240D01*
X137446525Y-107546632D01*
X137653368Y-107753475D01*
X137896589Y-107915990D01*
X138166842Y-108027932D01*
X138453740Y-108085000D01*
X138746260Y-108085000D01*
X139033158Y-108027932D01*
X139303411Y-107915990D01*
X139546632Y-107753475D01*
X139753475Y-107546632D01*
X139875195Y-107364466D01*
X139944822Y-107481355D01*
X140139731Y-107697588D01*
X140373080Y-107871641D01*
X140635901Y-107996825D01*
X140783110Y-108041476D01*
X141013000Y-107920155D01*
X141013000Y-106727000D01*
X141267000Y-106727000D01*
X141267000Y-107920155D01*
X141496890Y-108041476D01*
X141644099Y-107996825D01*
X141906920Y-107871641D01*
X142140269Y-107697588D01*
X142335178Y-107481355D01*
X142484157Y-107231252D01*
X142581481Y-106956891D01*
X142460814Y-106727000D01*
X141267000Y-106727000D01*
X141013000Y-106727000D01*
X140993000Y-106727000D01*
X140993000Y-106473000D01*
X141013000Y-106473000D01*
X141013000Y-105279845D01*
X141267000Y-105279845D01*
X141267000Y-106473000D01*
X142460814Y-106473000D01*
X142581481Y-106243109D01*
X142484157Y-105968748D01*
X142335178Y-105718645D01*
X142140269Y-105502412D01*
X141906920Y-105328359D01*
X141644099Y-105203175D01*
X141496890Y-105158524D01*
X141267000Y-105279845D01*
X141013000Y-105279845D01*
X140783110Y-105158524D01*
X140635901Y-105203175D01*
X140373080Y-105328359D01*
X140139731Y-105502412D01*
X139944822Y-105718645D01*
X139875195Y-105835534D01*
X139753475Y-105653368D01*
X139546632Y-105446525D01*
X139303411Y-105284010D01*
X139033158Y-105172068D01*
X138746260Y-105115000D01*
X138453740Y-105115000D01*
X138166842Y-105172068D01*
X137896589Y-105284010D01*
X137653368Y-105446525D01*
X137446525Y-105653368D01*
X137330000Y-105827760D01*
X137213475Y-105653368D01*
X137006632Y-105446525D01*
X136763411Y-105284010D01*
X136493158Y-105172068D01*
X136206260Y-105115000D01*
X135913740Y-105115000D01*
X135626842Y-105172068D01*
X135356589Y-105284010D01*
X135113368Y-105446525D01*
X134981513Y-105578380D01*
X134959502Y-105505820D01*
X134900537Y-105395506D01*
X134821185Y-105298815D01*
X134724494Y-105219463D01*
X134614180Y-105160498D01*
X134494482Y-105124188D01*
X134370000Y-105111928D01*
X133002724Y-105111928D01*
X133017205Y-105090256D01*
X133095226Y-104901898D01*
X133135000Y-104701939D01*
X133135000Y-104498061D01*
X133095226Y-104298102D01*
X133017205Y-104109744D01*
X132903937Y-103940226D01*
X132759774Y-103796063D01*
X132590256Y-103682795D01*
X132401898Y-103604774D01*
X132201939Y-103565000D01*
X131998061Y-103565000D01*
X131798102Y-103604774D01*
X131609744Y-103682795D01*
X131440226Y-103796063D01*
X131296063Y-103940226D01*
X131182795Y-104109744D01*
X131104774Y-104298102D01*
X131065000Y-104498061D01*
X119008217Y-104498061D01*
X115832346Y-101322191D01*
X115812543Y-101298061D01*
X117365000Y-101298061D01*
X117365000Y-101501939D01*
X117404774Y-101701898D01*
X117482795Y-101890256D01*
X117596063Y-102059774D01*
X117642738Y-102106449D01*
X117604774Y-102198102D01*
X117565000Y-102398061D01*
X117565000Y-102601939D01*
X117604774Y-102801898D01*
X117682795Y-102990256D01*
X117796063Y-103159774D01*
X117940226Y-103303937D01*
X118109744Y-103417205D01*
X118298102Y-103495226D01*
X118498061Y-103535000D01*
X118701939Y-103535000D01*
X118901898Y-103495226D01*
X119090256Y-103417205D01*
X119259774Y-103303937D01*
X119403937Y-103159774D01*
X119517205Y-102990256D01*
X119595226Y-102801898D01*
X119635000Y-102601939D01*
X119635000Y-102398061D01*
X119595226Y-102198102D01*
X119517205Y-102009744D01*
X119403937Y-101840226D01*
X119357262Y-101793551D01*
X119395226Y-101701898D01*
X119435000Y-101501939D01*
X119435000Y-101298061D01*
X119395226Y-101098102D01*
X119317205Y-100909744D01*
X119203937Y-100740226D01*
X119059774Y-100596063D01*
X118890256Y-100482795D01*
X118701898Y-100404774D01*
X118501939Y-100365000D01*
X118298061Y-100365000D01*
X118098102Y-100404774D01*
X117909744Y-100482795D01*
X117740226Y-100596063D01*
X117596063Y-100740226D01*
X117482795Y-100909744D01*
X117404774Y-101098102D01*
X117365000Y-101298061D01*
X115812543Y-101298061D01*
X115807763Y-101292237D01*
X115688232Y-101194139D01*
X115551859Y-101121247D01*
X115403886Y-101076360D01*
X115288560Y-101065001D01*
X115288552Y-101065001D01*
X115249999Y-101061204D01*
X115211446Y-101065001D01*
X115135000Y-101065001D01*
X115135000Y-100998061D01*
X115095226Y-100798102D01*
X115017205Y-100609744D01*
X114903937Y-100440226D01*
X114759774Y-100296063D01*
X114597916Y-100187913D01*
X114707763Y-100097763D01*
X114732346Y-100067810D01*
X115215155Y-99585001D01*
X128051622Y-99585001D01*
X128004774Y-99698102D01*
X127965000Y-99898061D01*
X127965000Y-100101939D01*
X128004774Y-100301898D01*
X128042738Y-100393551D01*
X127996063Y-100440226D01*
X127882795Y-100609744D01*
X127804774Y-100798102D01*
X127765000Y-100998061D01*
X127765000Y-101201939D01*
X127804774Y-101401898D01*
X127882795Y-101590256D01*
X127996063Y-101759774D01*
X128140226Y-101903937D01*
X128309744Y-102017205D01*
X128498102Y-102095226D01*
X128698061Y-102135000D01*
X128901939Y-102135000D01*
X129101898Y-102095226D01*
X129290256Y-102017205D01*
X129459774Y-101903937D01*
X129603937Y-101759774D01*
X129717205Y-101590256D01*
X129795226Y-101401898D01*
X129835000Y-101201939D01*
X129835000Y-100998061D01*
X129795226Y-100798102D01*
X129757262Y-100706449D01*
X129803937Y-100659774D01*
X129917205Y-100490256D01*
X129995226Y-100301898D01*
X130035000Y-100101939D01*
X130035000Y-99898061D01*
X129995226Y-99698102D01*
X129948378Y-99585001D01*
X136939197Y-99585001D01*
X136982795Y-99690256D01*
X137096063Y-99859774D01*
X137240226Y-100003937D01*
X137409744Y-100117205D01*
X137598102Y-100195226D01*
X137798061Y-100235000D01*
X138001939Y-100235000D01*
X138201898Y-100195226D01*
X138390256Y-100117205D01*
X138559774Y-100003937D01*
X138703937Y-99859774D01*
X138817205Y-99690256D01*
X138895226Y-99501898D01*
X138935000Y-99301939D01*
X138935000Y-99098061D01*
X138895226Y-98898102D01*
X138817205Y-98709744D01*
X138704408Y-98540931D01*
X138759774Y-98503937D01*
X138903937Y-98359774D01*
X139017205Y-98190256D01*
X139095226Y-98001898D01*
X139135000Y-97801939D01*
X139135000Y-97598061D01*
X139095226Y-97398102D01*
X139017205Y-97209744D01*
X138903937Y-97040226D01*
X138841935Y-96978224D01*
X139582345Y-96237815D01*
X139655861Y-96148235D01*
X139728753Y-96011862D01*
X139773641Y-95863890D01*
X139788797Y-95710003D01*
X139773641Y-95556116D01*
X139760000Y-95511149D01*
X139760000Y-94950000D01*
X147711928Y-94950000D01*
X147711928Y-96650000D01*
X147724188Y-96774482D01*
X147760498Y-96894180D01*
X147819463Y-97004494D01*
X147898815Y-97101185D01*
X147995506Y-97180537D01*
X148105820Y-97239502D01*
X148225518Y-97275812D01*
X148350000Y-97288072D01*
X150050000Y-97288072D01*
X150174482Y-97275812D01*
X150294180Y-97239502D01*
X150404494Y-97180537D01*
X150501185Y-97101185D01*
X150580537Y-97004494D01*
X150639502Y-96894180D01*
X150675812Y-96774482D01*
X150688072Y-96650000D01*
X150688072Y-94950000D01*
X150675812Y-94825518D01*
X150639502Y-94705820D01*
X150580537Y-94595506D01*
X150501185Y-94498815D01*
X150404494Y-94419463D01*
X150294180Y-94360498D01*
X150221620Y-94338487D01*
X150353475Y-94206632D01*
X150515990Y-93963411D01*
X150627932Y-93693158D01*
X150685000Y-93406260D01*
X150685000Y-93113740D01*
X150627932Y-92826842D01*
X150515990Y-92556589D01*
X150353475Y-92313368D01*
X150146632Y-92106525D01*
X149972240Y-91990000D01*
X150146632Y-91873475D01*
X150353475Y-91666632D01*
X150515990Y-91423411D01*
X150627932Y-91153158D01*
X150685000Y-90866260D01*
X150685000Y-90573740D01*
X150627932Y-90286842D01*
X150515990Y-90016589D01*
X150353475Y-89773368D01*
X150146632Y-89566525D01*
X149972240Y-89450000D01*
X150146632Y-89333475D01*
X150353475Y-89126632D01*
X150515990Y-88883411D01*
X150627932Y-88613158D01*
X150685000Y-88326260D01*
X150685000Y-88033740D01*
X150627932Y-87746842D01*
X150515990Y-87476589D01*
X150353475Y-87233368D01*
X150146632Y-87026525D01*
X149972240Y-86910000D01*
X150146632Y-86793475D01*
X150353475Y-86586632D01*
X150515990Y-86343411D01*
X150627932Y-86073158D01*
X150685000Y-85786260D01*
X150685000Y-85493740D01*
X150627932Y-85206842D01*
X150515990Y-84936589D01*
X150353475Y-84693368D01*
X150146632Y-84486525D01*
X149964466Y-84364805D01*
X150081355Y-84295178D01*
X150297588Y-84100269D01*
X150471641Y-83866920D01*
X150596825Y-83604099D01*
X150641476Y-83456890D01*
X150520155Y-83227000D01*
X149327000Y-83227000D01*
X149327000Y-83247000D01*
X149073000Y-83247000D01*
X149073000Y-83227000D01*
X147879845Y-83227000D01*
X147758524Y-83456890D01*
X147803175Y-83604099D01*
X147928359Y-83866920D01*
X148102412Y-84100269D01*
X148318645Y-84295178D01*
X148435534Y-84364805D01*
X148253368Y-84486525D01*
X148046525Y-84693368D01*
X147884010Y-84936589D01*
X147772068Y-85206842D01*
X147715000Y-85493740D01*
X147715000Y-85786260D01*
X147772068Y-86073158D01*
X147884010Y-86343411D01*
X148046525Y-86586632D01*
X148253368Y-86793475D01*
X148427760Y-86910000D01*
X148253368Y-87026525D01*
X148046525Y-87233368D01*
X147884010Y-87476589D01*
X147772068Y-87746842D01*
X147715000Y-88033740D01*
X147715000Y-88326260D01*
X147772068Y-88613158D01*
X147884010Y-88883411D01*
X148046525Y-89126632D01*
X148253368Y-89333475D01*
X148427760Y-89450000D01*
X148253368Y-89566525D01*
X148046525Y-89773368D01*
X147884010Y-90016589D01*
X147772068Y-90286842D01*
X147715000Y-90573740D01*
X147715000Y-90866260D01*
X147772068Y-91153158D01*
X147884010Y-91423411D01*
X148046525Y-91666632D01*
X148253368Y-91873475D01*
X148427760Y-91990000D01*
X148253368Y-92106525D01*
X148046525Y-92313368D01*
X147884010Y-92556589D01*
X147772068Y-92826842D01*
X147715000Y-93113740D01*
X147715000Y-93406260D01*
X147772068Y-93693158D01*
X147884010Y-93963411D01*
X148046525Y-94206632D01*
X148178380Y-94338487D01*
X148105820Y-94360498D01*
X147995506Y-94419463D01*
X147898815Y-94498815D01*
X147819463Y-94595506D01*
X147760498Y-94705820D01*
X147724188Y-94825518D01*
X147711928Y-94950000D01*
X139760000Y-94950000D01*
X139760000Y-93798061D01*
X143165000Y-93798061D01*
X143165000Y-94001939D01*
X143204774Y-94201898D01*
X143282795Y-94390256D01*
X143396063Y-94559774D01*
X143540226Y-94703937D01*
X143709744Y-94817205D01*
X143898102Y-94895226D01*
X144098061Y-94935000D01*
X144301939Y-94935000D01*
X144501898Y-94895226D01*
X144690256Y-94817205D01*
X144859774Y-94703937D01*
X145003937Y-94559774D01*
X145117205Y-94390256D01*
X145195226Y-94201898D01*
X145235000Y-94001939D01*
X145235000Y-93798061D01*
X145195226Y-93598102D01*
X145117205Y-93409744D01*
X145003937Y-93240226D01*
X144859774Y-93096063D01*
X144690256Y-92982795D01*
X144501898Y-92904774D01*
X144301939Y-92865000D01*
X144098061Y-92865000D01*
X143898102Y-92904774D01*
X143709744Y-92982795D01*
X143540226Y-93096063D01*
X143396063Y-93240226D01*
X143282795Y-93409744D01*
X143204774Y-93598102D01*
X143165000Y-93798061D01*
X139760000Y-93798061D01*
X139760000Y-84897322D01*
X139763676Y-84859999D01*
X139760000Y-84822676D01*
X139760000Y-84822667D01*
X139749003Y-84711014D01*
X139705546Y-84567753D01*
X139639482Y-84444157D01*
X139634974Y-84435723D01*
X139563799Y-84348997D01*
X139540001Y-84319999D01*
X139511003Y-84296201D01*
X138255000Y-83040199D01*
X138255000Y-82978061D01*
X138215226Y-82778102D01*
X138200732Y-82743110D01*
X147758524Y-82743110D01*
X147879845Y-82973000D01*
X149073000Y-82973000D01*
X149073000Y-81779186D01*
X149327000Y-81779186D01*
X149327000Y-82973000D01*
X150520155Y-82973000D01*
X150641476Y-82743110D01*
X150596825Y-82595901D01*
X150471641Y-82333080D01*
X150297588Y-82099731D01*
X150081355Y-81904822D01*
X149831252Y-81755843D01*
X149556891Y-81658519D01*
X149327000Y-81779186D01*
X149073000Y-81779186D01*
X148843109Y-81658519D01*
X148568748Y-81755843D01*
X148318645Y-81904822D01*
X148102412Y-82099731D01*
X147928359Y-82333080D01*
X147803175Y-82595901D01*
X147758524Y-82743110D01*
X138200732Y-82743110D01*
X138137205Y-82589744D01*
X138023937Y-82420226D01*
X137879774Y-82276063D01*
X137710256Y-82162795D01*
X137521898Y-82084774D01*
X137321939Y-82045000D01*
X137118061Y-82045000D01*
X136918102Y-82084774D01*
X136729744Y-82162795D01*
X136560226Y-82276063D01*
X136416063Y-82420226D01*
X136302795Y-82589744D01*
X136224774Y-82778102D01*
X136185000Y-82978061D01*
X136185000Y-83181939D01*
X136224774Y-83381898D01*
X136302795Y-83570256D01*
X136416063Y-83739774D01*
X136560226Y-83883937D01*
X136729744Y-83997205D01*
X136918102Y-84075226D01*
X137118061Y-84115000D01*
X137180199Y-84115000D01*
X138240001Y-85174803D01*
X138240000Y-94861978D01*
X138101898Y-94804774D01*
X137901939Y-94765000D01*
X137698061Y-94765000D01*
X137498102Y-94804774D01*
X137309744Y-94882795D01*
X137140226Y-94996063D01*
X136996063Y-95140226D01*
X136952090Y-95206036D01*
X136995226Y-95101898D01*
X137035000Y-94901939D01*
X137035000Y-94698061D01*
X136995226Y-94498102D01*
X136917205Y-94309744D01*
X136803937Y-94140226D01*
X136659774Y-93996063D01*
X136490256Y-93882795D01*
X136301898Y-93804774D01*
X136101939Y-93765000D01*
X135898061Y-93765000D01*
X135698102Y-93804774D01*
X135509744Y-93882795D01*
X135340226Y-93996063D01*
X135196063Y-94140226D01*
X135162769Y-94190054D01*
X134437834Y-94914989D01*
X128002189Y-94914989D01*
X128002189Y-93301087D01*
X128102170Y-87502189D01*
X128100157Y-87477374D01*
X128093342Y-87453429D01*
X128081986Y-87431273D01*
X128066526Y-87411759D01*
X128047556Y-87395635D01*
X128025805Y-87383523D01*
X128002109Y-87375886D01*
X127975189Y-87373000D01*
X127724353Y-87373000D01*
X127755393Y-87298061D01*
X129965000Y-87298061D01*
X129965000Y-87501939D01*
X130004774Y-87701898D01*
X130082795Y-87890256D01*
X130196063Y-88059774D01*
X130340226Y-88203937D01*
X130509744Y-88317205D01*
X130698102Y-88395226D01*
X130898061Y-88435000D01*
X131101939Y-88435000D01*
X131301898Y-88395226D01*
X131469728Y-88325708D01*
X131504774Y-88501898D01*
X131582795Y-88690256D01*
X131696063Y-88859774D01*
X131840226Y-89003937D01*
X131943586Y-89073000D01*
X131575189Y-89073000D01*
X131550413Y-89075440D01*
X131526588Y-89082667D01*
X131504632Y-89094403D01*
X131485386Y-89110197D01*
X131469592Y-89129443D01*
X131457856Y-89151399D01*
X131450629Y-89175224D01*
X131448189Y-89200000D01*
X131448189Y-93300000D01*
X131450629Y-93324776D01*
X131457856Y-93348601D01*
X131469592Y-93370557D01*
X131485386Y-93389803D01*
X131504632Y-93405597D01*
X131526588Y-93417333D01*
X131550413Y-93424560D01*
X131575189Y-93427000D01*
X136175189Y-93427000D01*
X136199965Y-93424560D01*
X136223790Y-93417333D01*
X136245746Y-93405597D01*
X136264992Y-93389803D01*
X136280786Y-93370557D01*
X136292522Y-93348601D01*
X136299749Y-93324776D01*
X136302189Y-93300000D01*
X136302189Y-89200000D01*
X136299749Y-89175224D01*
X136292522Y-89151399D01*
X136280786Y-89129443D01*
X136264992Y-89110197D01*
X136245746Y-89094403D01*
X136223790Y-89082667D01*
X136199965Y-89075440D01*
X136175189Y-89073000D01*
X133056414Y-89073000D01*
X133159774Y-89003937D01*
X133303937Y-88859774D01*
X133417205Y-88690256D01*
X133495226Y-88501898D01*
X133535000Y-88301939D01*
X133535000Y-88098061D01*
X133495226Y-87898102D01*
X133417205Y-87709744D01*
X133303937Y-87540226D01*
X133159774Y-87396063D01*
X132990256Y-87282795D01*
X132801898Y-87204774D01*
X132601939Y-87165000D01*
X132398061Y-87165000D01*
X132198102Y-87204774D01*
X132030272Y-87274292D01*
X131995226Y-87098102D01*
X131917205Y-86909744D01*
X131803937Y-86740226D01*
X131659774Y-86596063D01*
X131490256Y-86482795D01*
X131301898Y-86404774D01*
X131101939Y-86365000D01*
X130898061Y-86365000D01*
X130698102Y-86404774D01*
X130509744Y-86482795D01*
X130340226Y-86596063D01*
X130196063Y-86740226D01*
X130082795Y-86909744D01*
X130004774Y-87098102D01*
X129965000Y-87298061D01*
X127755393Y-87298061D01*
X127795226Y-87201898D01*
X127835000Y-87001939D01*
X127835000Y-86898711D01*
X127840226Y-86903937D01*
X128009744Y-87017205D01*
X128198102Y-87095226D01*
X128398061Y-87135000D01*
X128601939Y-87135000D01*
X128801898Y-87095226D01*
X128990256Y-87017205D01*
X129159774Y-86903937D01*
X129303937Y-86759774D01*
X129417205Y-86590256D01*
X129495226Y-86401898D01*
X129535000Y-86201939D01*
X129535000Y-85998061D01*
X129495226Y-85798102D01*
X129417205Y-85609744D01*
X129303937Y-85440226D01*
X129159774Y-85296063D01*
X128990256Y-85182795D01*
X128801898Y-85104774D01*
X128601939Y-85065000D01*
X128398061Y-85065000D01*
X128198102Y-85104774D01*
X128009744Y-85182795D01*
X127840226Y-85296063D01*
X127696063Y-85440226D01*
X127582795Y-85609744D01*
X127504774Y-85798102D01*
X127465000Y-85998061D01*
X127465000Y-86101289D01*
X127459774Y-86096063D01*
X127290256Y-85982795D01*
X127101898Y-85904774D01*
X126901939Y-85865000D01*
X126698061Y-85865000D01*
X126498102Y-85904774D01*
X126309744Y-85982795D01*
X126140226Y-86096063D01*
X125996063Y-86240226D01*
X125882795Y-86409744D01*
X125804774Y-86598102D01*
X125765000Y-86798061D01*
X125765000Y-87001939D01*
X125804774Y-87201898D01*
X125875647Y-87373000D01*
X119875189Y-87373000D01*
X119850413Y-87375440D01*
X119826588Y-87382667D01*
X119804632Y-87394403D01*
X119785386Y-87410197D01*
X119769592Y-87429443D01*
X119757856Y-87451399D01*
X119750629Y-87475224D01*
X119748189Y-87500000D01*
X119748189Y-90273000D01*
X116454279Y-90273000D01*
X117769389Y-88957891D01*
X117782795Y-88990256D01*
X117896063Y-89159774D01*
X118040226Y-89303937D01*
X118209744Y-89417205D01*
X118398102Y-89495226D01*
X118598061Y-89535000D01*
X118801939Y-89535000D01*
X119001898Y-89495226D01*
X119190256Y-89417205D01*
X119359774Y-89303937D01*
X119503937Y-89159774D01*
X119617205Y-88990256D01*
X119695226Y-88801898D01*
X119735000Y-88601939D01*
X119735000Y-88398061D01*
X119695226Y-88198102D01*
X119617205Y-88009744D01*
X119503937Y-87840226D01*
X119359774Y-87696063D01*
X119190256Y-87582795D01*
X119001898Y-87504774D01*
X118801939Y-87465000D01*
X118598061Y-87465000D01*
X118485000Y-87487489D01*
X118485000Y-86890155D01*
X119777094Y-85598061D01*
X123865000Y-85598061D01*
X123865000Y-85801939D01*
X123904774Y-86001898D01*
X123982795Y-86190256D01*
X124096063Y-86359774D01*
X124240226Y-86503937D01*
X124409744Y-86617205D01*
X124598102Y-86695226D01*
X124798061Y-86735000D01*
X125001939Y-86735000D01*
X125201898Y-86695226D01*
X125390256Y-86617205D01*
X125559774Y-86503937D01*
X125703937Y-86359774D01*
X125817205Y-86190256D01*
X125895226Y-86001898D01*
X125935000Y-85801939D01*
X125935000Y-85598061D01*
X125895226Y-85398102D01*
X125817205Y-85209744D01*
X125703937Y-85040226D01*
X125559774Y-84896063D01*
X125390256Y-84782795D01*
X125201898Y-84704774D01*
X125001939Y-84665000D01*
X124798061Y-84665000D01*
X124598102Y-84704774D01*
X124409744Y-84782795D01*
X124240226Y-84896063D01*
X124096063Y-85040226D01*
X123982795Y-85209744D01*
X123904774Y-85398102D01*
X123865000Y-85598061D01*
X119777094Y-85598061D01*
X124997547Y-80377609D01*
X125038233Y-80355862D01*
X125157764Y-80257764D01*
X125255862Y-80138233D01*
X125328754Y-80001860D01*
X125373641Y-79853887D01*
X125388798Y-79700000D01*
X125385000Y-79661439D01*
X125385000Y-75327000D01*
X126275647Y-75327000D01*
X126204774Y-75498102D01*
X126165000Y-75698061D01*
X126165000Y-75759907D01*
X126109744Y-75782795D01*
X125940226Y-75896063D01*
X125796063Y-76040226D01*
X125682795Y-76209744D01*
X125604774Y-76398102D01*
X125565000Y-76598061D01*
X125565000Y-76801939D01*
X125604774Y-77001898D01*
X125682795Y-77190256D01*
X125796063Y-77359774D01*
X125940226Y-77503937D01*
X126109744Y-77617205D01*
X126173271Y-77643519D01*
X126204774Y-77801898D01*
X126282795Y-77990256D01*
X126396063Y-78159774D01*
X126540226Y-78303937D01*
X126709744Y-78417205D01*
X126898102Y-78495226D01*
X127098061Y-78535000D01*
X127301939Y-78535000D01*
X127501898Y-78495226D01*
X127690256Y-78417205D01*
X127859774Y-78303937D01*
X128003937Y-78159774D01*
X128117205Y-77990256D01*
X128195226Y-77801898D01*
X128235000Y-77601939D01*
X128235000Y-77398061D01*
X128195226Y-77198102D01*
X128117205Y-77009744D01*
X128003937Y-76840226D01*
X127859774Y-76696063D01*
X127790836Y-76650000D01*
X127859774Y-76603937D01*
X128003937Y-76459774D01*
X128117205Y-76290256D01*
X128195226Y-76101898D01*
X128235000Y-75901939D01*
X128235000Y-75770000D01*
X147711928Y-75770000D01*
X147711928Y-77470000D01*
X147724188Y-77594482D01*
X147760498Y-77714180D01*
X147819463Y-77824494D01*
X147898815Y-77921185D01*
X147995506Y-78000537D01*
X148105820Y-78059502D01*
X148225518Y-78095812D01*
X148350000Y-78108072D01*
X150050000Y-78108072D01*
X150174482Y-78095812D01*
X150294180Y-78059502D01*
X150404494Y-78000537D01*
X150501185Y-77921185D01*
X150580537Y-77824494D01*
X150639502Y-77714180D01*
X150675812Y-77594482D01*
X150688072Y-77470000D01*
X150688072Y-75770000D01*
X150675812Y-75645518D01*
X150639502Y-75525820D01*
X150580537Y-75415506D01*
X150501185Y-75318815D01*
X150404494Y-75239463D01*
X150294180Y-75180498D01*
X150221620Y-75158487D01*
X150353475Y-75026632D01*
X150515990Y-74783411D01*
X150627932Y-74513158D01*
X150685000Y-74226260D01*
X150685000Y-73933740D01*
X150627932Y-73646842D01*
X150515990Y-73376589D01*
X150353475Y-73133368D01*
X150146632Y-72926525D01*
X149972240Y-72810000D01*
X150146632Y-72693475D01*
X150353475Y-72486632D01*
X150515990Y-72243411D01*
X150627932Y-71973158D01*
X150685000Y-71686260D01*
X150685000Y-71393740D01*
X150627932Y-71106842D01*
X150515990Y-70836589D01*
X150353475Y-70593368D01*
X150146632Y-70386525D01*
X149972240Y-70270000D01*
X150146632Y-70153475D01*
X150353475Y-69946632D01*
X150515990Y-69703411D01*
X150627932Y-69433158D01*
X150685000Y-69146260D01*
X150685000Y-68853740D01*
X150627932Y-68566842D01*
X150515990Y-68296589D01*
X150353475Y-68053368D01*
X150146632Y-67846525D01*
X149964466Y-67724805D01*
X150081355Y-67655178D01*
X150297588Y-67460269D01*
X150471641Y-67226920D01*
X150596825Y-66964099D01*
X150641476Y-66816890D01*
X150520155Y-66587000D01*
X149327000Y-66587000D01*
X149327000Y-66607000D01*
X149073000Y-66607000D01*
X149073000Y-66587000D01*
X147879845Y-66587000D01*
X147758524Y-66816890D01*
X147803175Y-66964099D01*
X147928359Y-67226920D01*
X148102412Y-67460269D01*
X148318645Y-67655178D01*
X148435534Y-67724805D01*
X148253368Y-67846525D01*
X148046525Y-68053368D01*
X147884010Y-68296589D01*
X147772068Y-68566842D01*
X147715000Y-68853740D01*
X147715000Y-69146260D01*
X147772068Y-69433158D01*
X147884010Y-69703411D01*
X148046525Y-69946632D01*
X148253368Y-70153475D01*
X148427760Y-70270000D01*
X148253368Y-70386525D01*
X148046525Y-70593368D01*
X147884010Y-70836589D01*
X147772068Y-71106842D01*
X147715000Y-71393740D01*
X147715000Y-71686260D01*
X147772068Y-71973158D01*
X147884010Y-72243411D01*
X148046525Y-72486632D01*
X148253368Y-72693475D01*
X148427760Y-72810000D01*
X148253368Y-72926525D01*
X148046525Y-73133368D01*
X147884010Y-73376589D01*
X147772068Y-73646842D01*
X147715000Y-73933740D01*
X147715000Y-74226260D01*
X147772068Y-74513158D01*
X147884010Y-74783411D01*
X148046525Y-75026632D01*
X148178380Y-75158487D01*
X148105820Y-75180498D01*
X147995506Y-75239463D01*
X147898815Y-75318815D01*
X147819463Y-75415506D01*
X147760498Y-75525820D01*
X147724188Y-75645518D01*
X147711928Y-75770000D01*
X128235000Y-75770000D01*
X128235000Y-75698061D01*
X128195226Y-75498102D01*
X128124353Y-75327000D01*
X141075189Y-75327000D01*
X141099965Y-75324560D01*
X141123790Y-75317333D01*
X141145746Y-75305597D01*
X141164992Y-75289803D01*
X141180786Y-75270557D01*
X141192522Y-75248601D01*
X141199749Y-75224776D01*
X141202185Y-75201050D01*
X141277374Y-66103110D01*
X147758524Y-66103110D01*
X147879845Y-66333000D01*
X149073000Y-66333000D01*
X149073000Y-65139186D01*
X149327000Y-65139186D01*
X149327000Y-66333000D01*
X150520155Y-66333000D01*
X150641476Y-66103110D01*
X150596825Y-65955901D01*
X150471641Y-65693080D01*
X150297588Y-65459731D01*
X150081355Y-65264822D01*
X149831252Y-65115843D01*
X149556891Y-65018519D01*
X149327000Y-65139186D01*
X149073000Y-65139186D01*
X148843109Y-65018519D01*
X148568748Y-65115843D01*
X148318645Y-65264822D01*
X148102412Y-65459731D01*
X147928359Y-65693080D01*
X147803175Y-65955901D01*
X147758524Y-66103110D01*
X141277374Y-66103110D01*
X141301144Y-63227000D01*
X151290000Y-63227000D01*
X151290001Y-103821016D01*
X150978839Y-103355330D01*
X150444670Y-102821161D01*
X149816554Y-102401467D01*
X149118628Y-102112377D01*
X148377715Y-101965000D01*
X147622285Y-101965000D01*
X146881372Y-102112377D01*
X146183446Y-102401467D01*
X145555330Y-102821161D01*
X145021161Y-103355330D01*
X144601467Y-103983446D01*
X144312377Y-104681372D01*
X144165000Y-105422285D01*
X144165000Y-106177715D01*
X144312377Y-106918628D01*
X144601467Y-107616554D01*
X145021161Y-108244670D01*
X145555330Y-108778839D01*
X146183446Y-109198533D01*
X146404267Y-109290000D01*
X77795733Y-109290000D01*
X78016554Y-109198533D01*
X78644670Y-108778839D01*
X79178839Y-108244670D01*
X79598533Y-107616554D01*
X79887623Y-106918628D01*
X80035000Y-106177715D01*
X80035000Y-105450000D01*
X81311928Y-105450000D01*
X81311928Y-107150000D01*
X81324188Y-107274482D01*
X81360498Y-107394180D01*
X81419463Y-107504494D01*
X81498815Y-107601185D01*
X81595506Y-107680537D01*
X81705820Y-107739502D01*
X81825518Y-107775812D01*
X81950000Y-107788072D01*
X83650000Y-107788072D01*
X83774482Y-107775812D01*
X83894180Y-107739502D01*
X84004494Y-107680537D01*
X84101185Y-107601185D01*
X84180537Y-107504494D01*
X84239502Y-107394180D01*
X84261513Y-107321620D01*
X84393368Y-107453475D01*
X84636589Y-107615990D01*
X84906842Y-107727932D01*
X85193740Y-107785000D01*
X85486260Y-107785000D01*
X85773158Y-107727932D01*
X86043411Y-107615990D01*
X86286632Y-107453475D01*
X86493475Y-107246632D01*
X86610000Y-107072240D01*
X86726525Y-107246632D01*
X86933368Y-107453475D01*
X87176589Y-107615990D01*
X87446842Y-107727932D01*
X87733740Y-107785000D01*
X88026260Y-107785000D01*
X88313158Y-107727932D01*
X88583411Y-107615990D01*
X88826632Y-107453475D01*
X89033475Y-107246632D01*
X89155195Y-107064466D01*
X89224822Y-107181355D01*
X89419731Y-107397588D01*
X89653080Y-107571641D01*
X89915901Y-107696825D01*
X90063110Y-107741476D01*
X90293000Y-107620155D01*
X90293000Y-106427000D01*
X90547000Y-106427000D01*
X90547000Y-107620155D01*
X90776890Y-107741476D01*
X90924099Y-107696825D01*
X91186920Y-107571641D01*
X91420269Y-107397588D01*
X91615178Y-107181355D01*
X91764157Y-106931252D01*
X91861481Y-106656891D01*
X91740814Y-106427000D01*
X90547000Y-106427000D01*
X90293000Y-106427000D01*
X90273000Y-106427000D01*
X90273000Y-106173000D01*
X90293000Y-106173000D01*
X90293000Y-104979845D01*
X90547000Y-104979845D01*
X90547000Y-106173000D01*
X91740814Y-106173000D01*
X91861481Y-105943109D01*
X91764157Y-105668748D01*
X91615178Y-105418645D01*
X91420269Y-105202412D01*
X91186920Y-105028359D01*
X90924099Y-104903175D01*
X90776890Y-104858524D01*
X90547000Y-104979845D01*
X90293000Y-104979845D01*
X90063110Y-104858524D01*
X89915901Y-104903175D01*
X89653080Y-105028359D01*
X89419731Y-105202412D01*
X89224822Y-105418645D01*
X89155195Y-105535534D01*
X89033475Y-105353368D01*
X88826632Y-105146525D01*
X88583411Y-104984010D01*
X88313158Y-104872068D01*
X88026260Y-104815000D01*
X87733740Y-104815000D01*
X87446842Y-104872068D01*
X87176589Y-104984010D01*
X86933368Y-105146525D01*
X86726525Y-105353368D01*
X86610000Y-105527760D01*
X86493475Y-105353368D01*
X86286632Y-105146525D01*
X86043411Y-104984010D01*
X85773158Y-104872068D01*
X85486260Y-104815000D01*
X85193740Y-104815000D01*
X84906842Y-104872068D01*
X84636589Y-104984010D01*
X84393368Y-105146525D01*
X84261513Y-105278380D01*
X84239502Y-105205820D01*
X84180537Y-105095506D01*
X84101185Y-104998815D01*
X84004494Y-104919463D01*
X83894180Y-104860498D01*
X83774482Y-104824188D01*
X83650000Y-104811928D01*
X81950000Y-104811928D01*
X81825518Y-104824188D01*
X81705820Y-104860498D01*
X81595506Y-104919463D01*
X81498815Y-104998815D01*
X81419463Y-105095506D01*
X81360498Y-105205820D01*
X81324188Y-105325518D01*
X81311928Y-105450000D01*
X80035000Y-105450000D01*
X80035000Y-105422285D01*
X79910834Y-104798061D01*
X95265000Y-104798061D01*
X95265000Y-105001939D01*
X95304774Y-105201898D01*
X95382795Y-105390256D01*
X95496063Y-105559774D01*
X95640226Y-105703937D01*
X95809744Y-105817205D01*
X95998102Y-105895226D01*
X96198061Y-105935000D01*
X96401939Y-105935000D01*
X96601898Y-105895226D01*
X96790256Y-105817205D01*
X96959774Y-105703937D01*
X97103937Y-105559774D01*
X97217205Y-105390256D01*
X97295226Y-105201898D01*
X97295989Y-105198061D01*
X98765000Y-105198061D01*
X98765000Y-105401939D01*
X98804774Y-105601898D01*
X98882795Y-105790256D01*
X98996063Y-105959774D01*
X99140226Y-106103937D01*
X99309744Y-106217205D01*
X99498102Y-106295226D01*
X99698061Y-106335000D01*
X99901939Y-106335000D01*
X100101898Y-106295226D01*
X100290256Y-106217205D01*
X100438695Y-106118021D01*
X108065000Y-106118021D01*
X108065000Y-107081978D01*
X108081785Y-107252399D01*
X108148115Y-107471059D01*
X108255829Y-107672578D01*
X108400788Y-107849212D01*
X108577421Y-107994171D01*
X108778940Y-108101885D01*
X108997600Y-108168215D01*
X109225000Y-108190612D01*
X109452399Y-108168215D01*
X109671059Y-108101885D01*
X109872578Y-107994171D01*
X110049212Y-107849212D01*
X110194171Y-107672579D01*
X110301885Y-107471060D01*
X110368215Y-107252400D01*
X110385000Y-107081979D01*
X110385000Y-106118022D01*
X110368215Y-105947600D01*
X110301885Y-105728940D01*
X110194171Y-105527421D01*
X110049212Y-105350788D01*
X109872579Y-105205829D01*
X109671060Y-105098115D01*
X109452400Y-105031785D01*
X109225000Y-105009388D01*
X108997601Y-105031785D01*
X108778941Y-105098115D01*
X108577422Y-105205829D01*
X108400789Y-105350788D01*
X108255830Y-105527421D01*
X108148115Y-105728940D01*
X108081785Y-105947600D01*
X108065000Y-106118021D01*
X100438695Y-106118021D01*
X100459774Y-106103937D01*
X100603937Y-105959774D01*
X100717205Y-105790256D01*
X100795226Y-105601898D01*
X100835000Y-105401939D01*
X100835000Y-105198061D01*
X100795226Y-104998102D01*
X100717205Y-104809744D01*
X100603937Y-104640226D01*
X100459774Y-104496063D01*
X100290256Y-104382795D01*
X100101898Y-104304774D01*
X99901939Y-104265000D01*
X99698061Y-104265000D01*
X99498102Y-104304774D01*
X99309744Y-104382795D01*
X99140226Y-104496063D01*
X98996063Y-104640226D01*
X98882795Y-104809744D01*
X98804774Y-104998102D01*
X98765000Y-105198061D01*
X97295989Y-105198061D01*
X97335000Y-105001939D01*
X97335000Y-104798061D01*
X97295226Y-104598102D01*
X97217205Y-104409744D01*
X97103937Y-104240226D01*
X96959774Y-104096063D01*
X96790256Y-103982795D01*
X96601898Y-103904774D01*
X96401939Y-103865000D01*
X96198061Y-103865000D01*
X95998102Y-103904774D01*
X95809744Y-103982795D01*
X95640226Y-104096063D01*
X95496063Y-104240226D01*
X95382795Y-104409744D01*
X95304774Y-104598102D01*
X95265000Y-104798061D01*
X79910834Y-104798061D01*
X79887623Y-104681372D01*
X79598533Y-103983446D01*
X79178839Y-103355330D01*
X78644670Y-102821161D01*
X78016554Y-102401467D01*
X77318628Y-102112377D01*
X76577715Y-101965000D01*
X75822285Y-101965000D01*
X75081372Y-102112377D01*
X74383446Y-102401467D01*
X73755330Y-102821161D01*
X73221161Y-103355330D01*
X72801467Y-103983446D01*
X72710000Y-104204267D01*
X72710000Y-101198061D01*
X80465000Y-101198061D01*
X80465000Y-101401939D01*
X80504774Y-101601898D01*
X80582795Y-101790256D01*
X80696063Y-101959774D01*
X80840226Y-102103937D01*
X81009744Y-102217205D01*
X81198102Y-102295226D01*
X81398061Y-102335000D01*
X81465000Y-102335000D01*
X81465000Y-102401939D01*
X81504774Y-102601898D01*
X81582795Y-102790256D01*
X81696063Y-102959774D01*
X81840226Y-103103937D01*
X82009744Y-103217205D01*
X82198102Y-103295226D01*
X82398061Y-103335000D01*
X82601939Y-103335000D01*
X82801898Y-103295226D01*
X82990256Y-103217205D01*
X83159774Y-103103937D01*
X83303937Y-102959774D01*
X83417205Y-102790256D01*
X83495226Y-102601898D01*
X83535000Y-102401939D01*
X83535000Y-102198061D01*
X83495226Y-101998102D01*
X83417205Y-101809744D01*
X83303937Y-101640226D01*
X83161772Y-101498061D01*
X100165000Y-101498061D01*
X100165000Y-101701939D01*
X100204774Y-101901898D01*
X100282795Y-102090256D01*
X100396063Y-102259774D01*
X100540226Y-102403937D01*
X100709744Y-102517205D01*
X100898102Y-102595226D01*
X101098061Y-102635000D01*
X101301939Y-102635000D01*
X101501898Y-102595226D01*
X101690256Y-102517205D01*
X101859774Y-102403937D01*
X102003937Y-102259774D01*
X102117205Y-102090256D01*
X102195226Y-101901898D01*
X102235000Y-101701939D01*
X102235000Y-101498061D01*
X102195226Y-101298102D01*
X102117205Y-101109744D01*
X102003937Y-100940226D01*
X101859774Y-100796063D01*
X101690256Y-100682795D01*
X101501898Y-100604774D01*
X101301939Y-100565000D01*
X101098061Y-100565000D01*
X100898102Y-100604774D01*
X100709744Y-100682795D01*
X100540226Y-100796063D01*
X100396063Y-100940226D01*
X100282795Y-101109744D01*
X100204774Y-101298102D01*
X100165000Y-101498061D01*
X83161772Y-101498061D01*
X83159774Y-101496063D01*
X82990256Y-101382795D01*
X82801898Y-101304774D01*
X82601939Y-101265000D01*
X82535000Y-101265000D01*
X82535000Y-101198061D01*
X82495226Y-100998102D01*
X82417205Y-100809744D01*
X82303937Y-100640226D01*
X82159774Y-100496063D01*
X81990256Y-100382795D01*
X81801898Y-100304774D01*
X81601939Y-100265000D01*
X81398061Y-100265000D01*
X81198102Y-100304774D01*
X81009744Y-100382795D01*
X80840226Y-100496063D01*
X80696063Y-100640226D01*
X80582795Y-100809744D01*
X80504774Y-100998102D01*
X80465000Y-101198061D01*
X72710000Y-101198061D01*
X72710000Y-96356890D01*
X73558524Y-96356890D01*
X73603175Y-96504099D01*
X73728359Y-96766920D01*
X73902412Y-97000269D01*
X74118645Y-97195178D01*
X74368748Y-97344157D01*
X74643109Y-97441481D01*
X74873000Y-97320814D01*
X74873000Y-96127000D01*
X73679845Y-96127000D01*
X73558524Y-96356890D01*
X72710000Y-96356890D01*
X72710000Y-82450000D01*
X73511928Y-82450000D01*
X73511928Y-84150000D01*
X73524188Y-84274482D01*
X73560498Y-84394180D01*
X73619463Y-84504494D01*
X73698815Y-84601185D01*
X73795506Y-84680537D01*
X73905820Y-84739502D01*
X73978380Y-84761513D01*
X73846525Y-84893368D01*
X73684010Y-85136589D01*
X73572068Y-85406842D01*
X73515000Y-85693740D01*
X73515000Y-85986260D01*
X73572068Y-86273158D01*
X73684010Y-86543411D01*
X73846525Y-86786632D01*
X74053368Y-86993475D01*
X74227760Y-87110000D01*
X74053368Y-87226525D01*
X73846525Y-87433368D01*
X73684010Y-87676589D01*
X73572068Y-87946842D01*
X73515000Y-88233740D01*
X73515000Y-88526260D01*
X73572068Y-88813158D01*
X73684010Y-89083411D01*
X73846525Y-89326632D01*
X74053368Y-89533475D01*
X74227760Y-89650000D01*
X74053368Y-89766525D01*
X73846525Y-89973368D01*
X73684010Y-90216589D01*
X73572068Y-90486842D01*
X73515000Y-90773740D01*
X73515000Y-91066260D01*
X73572068Y-91353158D01*
X73684010Y-91623411D01*
X73846525Y-91866632D01*
X74053368Y-92073475D01*
X74227760Y-92190000D01*
X74053368Y-92306525D01*
X73846525Y-92513368D01*
X73684010Y-92756589D01*
X73572068Y-93026842D01*
X73515000Y-93313740D01*
X73515000Y-93606260D01*
X73572068Y-93893158D01*
X73684010Y-94163411D01*
X73846525Y-94406632D01*
X74053368Y-94613475D01*
X74235534Y-94735195D01*
X74118645Y-94804822D01*
X73902412Y-94999731D01*
X73728359Y-95233080D01*
X73603175Y-95495901D01*
X73558524Y-95643110D01*
X73679845Y-95873000D01*
X74873000Y-95873000D01*
X74873000Y-95853000D01*
X75127000Y-95853000D01*
X75127000Y-95873000D01*
X75147000Y-95873000D01*
X75147000Y-96127000D01*
X75127000Y-96127000D01*
X75127000Y-97320814D01*
X75356891Y-97441481D01*
X75631252Y-97344157D01*
X75881355Y-97195178D01*
X76097588Y-97000269D01*
X76271641Y-96766920D01*
X76396825Y-96504099D01*
X76441476Y-96356890D01*
X76320156Y-96127002D01*
X76485000Y-96127002D01*
X76485000Y-96055158D01*
X76557658Y-96127816D01*
X76582236Y-96157764D01*
X76612184Y-96182342D01*
X76612187Y-96182345D01*
X76633699Y-96199999D01*
X76701767Y-96255862D01*
X76838140Y-96328754D01*
X76986113Y-96373641D01*
X77101439Y-96385000D01*
X77101446Y-96385000D01*
X77139999Y-96388797D01*
X77178552Y-96385000D01*
X90921289Y-96385000D01*
X90940226Y-96403937D01*
X91109744Y-96517205D01*
X91298102Y-96595226D01*
X91498061Y-96635000D01*
X91701939Y-96635000D01*
X91901898Y-96595226D01*
X92090256Y-96517205D01*
X92259774Y-96403937D01*
X92403937Y-96259774D01*
X92517205Y-96090256D01*
X92595226Y-95901898D01*
X92635000Y-95701939D01*
X92635000Y-95498061D01*
X92595226Y-95298102D01*
X92517205Y-95109744D01*
X92481468Y-95056259D01*
X92559774Y-95003937D01*
X92703937Y-94859774D01*
X92817205Y-94690256D01*
X92895226Y-94501898D01*
X92935000Y-94301939D01*
X92935000Y-94098061D01*
X92895226Y-93898102D01*
X92817205Y-93709744D01*
X92703937Y-93540226D01*
X92559774Y-93396063D01*
X92390256Y-93282795D01*
X92201898Y-93204774D01*
X92001939Y-93165000D01*
X91798061Y-93165000D01*
X91598102Y-93204774D01*
X91409744Y-93282795D01*
X91240226Y-93396063D01*
X91096063Y-93540226D01*
X90982795Y-93709744D01*
X90904774Y-93898102D01*
X90865000Y-94098061D01*
X90865000Y-94301939D01*
X90904774Y-94501898D01*
X90982795Y-94690256D01*
X91018532Y-94743741D01*
X90940226Y-94796063D01*
X90921289Y-94815000D01*
X77465158Y-94815000D01*
X76447075Y-93796918D01*
X76485000Y-93606260D01*
X76485000Y-93313740D01*
X76427932Y-93026842D01*
X76315990Y-92756589D01*
X76153475Y-92513368D01*
X75946632Y-92306525D01*
X75772240Y-92190000D01*
X75946632Y-92073475D01*
X76153475Y-91866632D01*
X76266110Y-91698061D01*
X85965000Y-91698061D01*
X85965000Y-91901939D01*
X86004774Y-92101898D01*
X86082795Y-92290256D01*
X86196063Y-92459774D01*
X86340226Y-92603937D01*
X86509744Y-92717205D01*
X86698102Y-92795226D01*
X86898061Y-92835000D01*
X87101939Y-92835000D01*
X87301898Y-92795226D01*
X87490256Y-92717205D01*
X87659774Y-92603937D01*
X87803937Y-92459774D01*
X87917205Y-92290256D01*
X87995226Y-92101898D01*
X88035000Y-91901939D01*
X88035000Y-91698061D01*
X87995226Y-91498102D01*
X87917205Y-91309744D01*
X87803937Y-91140226D01*
X87659774Y-90996063D01*
X87490256Y-90882795D01*
X87301898Y-90804774D01*
X87101939Y-90765000D01*
X86898061Y-90765000D01*
X86698102Y-90804774D01*
X86509744Y-90882795D01*
X86340226Y-90996063D01*
X86196063Y-91140226D01*
X86082795Y-91309744D01*
X86004774Y-91498102D01*
X85965000Y-91698061D01*
X76266110Y-91698061D01*
X76315990Y-91623411D01*
X76427932Y-91353158D01*
X76485000Y-91066260D01*
X76485000Y-90773740D01*
X76427932Y-90486842D01*
X76315990Y-90216589D01*
X76153475Y-89973368D01*
X75946632Y-89766525D01*
X75772240Y-89650000D01*
X75946632Y-89533475D01*
X76153475Y-89326632D01*
X76315990Y-89083411D01*
X76351342Y-88998061D01*
X85265000Y-88998061D01*
X85265000Y-89201939D01*
X85304774Y-89401898D01*
X85382795Y-89590256D01*
X85496063Y-89759774D01*
X85640226Y-89903937D01*
X85809744Y-90017205D01*
X85998102Y-90095226D01*
X86198061Y-90135000D01*
X86401939Y-90135000D01*
X86601898Y-90095226D01*
X86790256Y-90017205D01*
X86959774Y-89903937D01*
X87103937Y-89759774D01*
X87217205Y-89590256D01*
X87295226Y-89401898D01*
X87335000Y-89201939D01*
X87335000Y-88998061D01*
X87295226Y-88798102D01*
X87217205Y-88609744D01*
X87103937Y-88440226D01*
X86959774Y-88296063D01*
X86790256Y-88182795D01*
X86601898Y-88104774D01*
X86401939Y-88065000D01*
X86198061Y-88065000D01*
X85998102Y-88104774D01*
X85809744Y-88182795D01*
X85640226Y-88296063D01*
X85496063Y-88440226D01*
X85382795Y-88609744D01*
X85304774Y-88798102D01*
X85265000Y-88998061D01*
X76351342Y-88998061D01*
X76427932Y-88813158D01*
X76485000Y-88526260D01*
X76485000Y-88233740D01*
X76427932Y-87946842D01*
X76315990Y-87676589D01*
X76153475Y-87433368D01*
X75946632Y-87226525D01*
X75772240Y-87110000D01*
X75939768Y-86998061D01*
X78465000Y-86998061D01*
X78465000Y-87201939D01*
X78504774Y-87401898D01*
X78582795Y-87590256D01*
X78696063Y-87759774D01*
X78840226Y-87903937D01*
X79009744Y-88017205D01*
X79198102Y-88095226D01*
X79398061Y-88135000D01*
X79601939Y-88135000D01*
X79801898Y-88095226D01*
X79990256Y-88017205D01*
X80159774Y-87903937D01*
X80303937Y-87759774D01*
X80417205Y-87590256D01*
X80495226Y-87401898D01*
X80535000Y-87201939D01*
X80535000Y-86998061D01*
X80495226Y-86798102D01*
X80417205Y-86609744D01*
X80303937Y-86440226D01*
X80159774Y-86296063D01*
X79990256Y-86182795D01*
X79801898Y-86104774D01*
X79601939Y-86065000D01*
X79398061Y-86065000D01*
X79198102Y-86104774D01*
X79009744Y-86182795D01*
X78840226Y-86296063D01*
X78696063Y-86440226D01*
X78582795Y-86609744D01*
X78504774Y-86798102D01*
X78465000Y-86998061D01*
X75939768Y-86998061D01*
X75946632Y-86993475D01*
X76153475Y-86786632D01*
X76315990Y-86543411D01*
X76427932Y-86273158D01*
X76485000Y-85986260D01*
X76485000Y-85693740D01*
X76427932Y-85406842D01*
X76315990Y-85136589D01*
X76153475Y-84893368D01*
X76021620Y-84761513D01*
X76094180Y-84739502D01*
X76204494Y-84680537D01*
X76301185Y-84601185D01*
X76380537Y-84504494D01*
X76439502Y-84394180D01*
X76475812Y-84274482D01*
X76488072Y-84150000D01*
X76488072Y-83298061D01*
X93365000Y-83298061D01*
X93365000Y-83501939D01*
X93404774Y-83701898D01*
X93482795Y-83890256D01*
X93596063Y-84059774D01*
X93615000Y-84078711D01*
X93615001Y-89973412D01*
X93604774Y-89998102D01*
X93565000Y-90198061D01*
X93565000Y-90401939D01*
X93604774Y-90601898D01*
X93682795Y-90790256D01*
X93796063Y-90959774D01*
X93940226Y-91103937D01*
X94109744Y-91217205D01*
X94298102Y-91295226D01*
X94498061Y-91335000D01*
X94701939Y-91335000D01*
X94901898Y-91295226D01*
X95090256Y-91217205D01*
X95259774Y-91103937D01*
X95403937Y-90959774D01*
X95517205Y-90790256D01*
X95595226Y-90601898D01*
X95635000Y-90401939D01*
X95635000Y-90198061D01*
X95595226Y-89998102D01*
X95517205Y-89809744D01*
X95403937Y-89640226D01*
X95259774Y-89496063D01*
X95185000Y-89446101D01*
X95185000Y-84078711D01*
X95203937Y-84059774D01*
X95317205Y-83890256D01*
X95395226Y-83701898D01*
X95435000Y-83501939D01*
X95435000Y-83298061D01*
X95395226Y-83098102D01*
X95317205Y-82909744D01*
X95203937Y-82740226D01*
X95059774Y-82596063D01*
X94890256Y-82482795D01*
X94701898Y-82404774D01*
X94501939Y-82365000D01*
X94298061Y-82365000D01*
X94098102Y-82404774D01*
X93909744Y-82482795D01*
X93740226Y-82596063D01*
X93596063Y-82740226D01*
X93482795Y-82909744D01*
X93404774Y-83098102D01*
X93365000Y-83298061D01*
X76488072Y-83298061D01*
X76488072Y-82450000D01*
X76475812Y-82325518D01*
X76439502Y-82205820D01*
X76380537Y-82095506D01*
X76301185Y-81998815D01*
X76204494Y-81919463D01*
X76094180Y-81860498D01*
X75974482Y-81824188D01*
X75850000Y-81811928D01*
X74150000Y-81811928D01*
X74025518Y-81824188D01*
X73905820Y-81860498D01*
X73795506Y-81919463D01*
X73698815Y-81998815D01*
X73619463Y-82095506D01*
X73560498Y-82205820D01*
X73524188Y-82325518D01*
X73511928Y-82450000D01*
X72710000Y-82450000D01*
X72710000Y-77016890D01*
X73558524Y-77016890D01*
X73603175Y-77164099D01*
X73728359Y-77426920D01*
X73902412Y-77660269D01*
X74118645Y-77855178D01*
X74368748Y-78004157D01*
X74643109Y-78101481D01*
X74873000Y-77980814D01*
X74873000Y-76787000D01*
X75127000Y-76787000D01*
X75127000Y-77980814D01*
X75356891Y-78101481D01*
X75631252Y-78004157D01*
X75881355Y-77855178D01*
X76097588Y-77660269D01*
X76271641Y-77426920D01*
X76396825Y-77164099D01*
X76441476Y-77016890D01*
X76320155Y-76787000D01*
X75127000Y-76787000D01*
X74873000Y-76787000D01*
X73679845Y-76787000D01*
X73558524Y-77016890D01*
X72710000Y-77016890D01*
X72710000Y-65650000D01*
X73511928Y-65650000D01*
X73511928Y-67350000D01*
X73524188Y-67474482D01*
X73560498Y-67594180D01*
X73619463Y-67704494D01*
X73698815Y-67801185D01*
X73795506Y-67880537D01*
X73905820Y-67939502D01*
X73978380Y-67961513D01*
X73846525Y-68093368D01*
X73684010Y-68336589D01*
X73572068Y-68606842D01*
X73515000Y-68893740D01*
X73515000Y-69186260D01*
X73572068Y-69473158D01*
X73684010Y-69743411D01*
X73846525Y-69986632D01*
X74053368Y-70193475D01*
X74227760Y-70310000D01*
X74053368Y-70426525D01*
X73846525Y-70633368D01*
X73684010Y-70876589D01*
X73572068Y-71146842D01*
X73515000Y-71433740D01*
X73515000Y-71726260D01*
X73572068Y-72013158D01*
X73684010Y-72283411D01*
X73846525Y-72526632D01*
X74053368Y-72733475D01*
X74227760Y-72850000D01*
X74053368Y-72966525D01*
X73846525Y-73173368D01*
X73684010Y-73416589D01*
X73572068Y-73686842D01*
X73515000Y-73973740D01*
X73515000Y-74266260D01*
X73572068Y-74553158D01*
X73684010Y-74823411D01*
X73846525Y-75066632D01*
X74053368Y-75273475D01*
X74235534Y-75395195D01*
X74118645Y-75464822D01*
X73902412Y-75659731D01*
X73728359Y-75893080D01*
X73603175Y-76155901D01*
X73558524Y-76303110D01*
X73679845Y-76533000D01*
X74873000Y-76533000D01*
X74873000Y-76513000D01*
X75127000Y-76513000D01*
X75127000Y-76533000D01*
X76320155Y-76533000D01*
X76338593Y-76498061D01*
X85165000Y-76498061D01*
X85165000Y-76701939D01*
X85204774Y-76901898D01*
X85282795Y-77090256D01*
X85396063Y-77259774D01*
X85540226Y-77403937D01*
X85709744Y-77517205D01*
X85898102Y-77595226D01*
X86098061Y-77635000D01*
X86301939Y-77635000D01*
X86501898Y-77595226D01*
X86690256Y-77517205D01*
X86859774Y-77403937D01*
X86865650Y-77398061D01*
X92365000Y-77398061D01*
X92365000Y-77601939D01*
X92404774Y-77801898D01*
X92482795Y-77990256D01*
X92596063Y-78159774D01*
X92740226Y-78303937D01*
X92909744Y-78417205D01*
X93098102Y-78495226D01*
X93298061Y-78535000D01*
X93501939Y-78535000D01*
X93701898Y-78495226D01*
X93890256Y-78417205D01*
X94059774Y-78303937D01*
X94100000Y-78263711D01*
X94140226Y-78303937D01*
X94309744Y-78417205D01*
X94498102Y-78495226D01*
X94698061Y-78535000D01*
X94901939Y-78535000D01*
X95101898Y-78495226D01*
X95290256Y-78417205D01*
X95459774Y-78303937D01*
X95603937Y-78159774D01*
X95717205Y-77990256D01*
X95795226Y-77801898D01*
X95835000Y-77601939D01*
X95835000Y-77398061D01*
X95795226Y-77198102D01*
X95717205Y-77009744D01*
X95603937Y-76840226D01*
X95459774Y-76696063D01*
X95290256Y-76582795D01*
X95101898Y-76504774D01*
X94901939Y-76465000D01*
X94698061Y-76465000D01*
X94498102Y-76504774D01*
X94309744Y-76582795D01*
X94140226Y-76696063D01*
X94100000Y-76736289D01*
X94059774Y-76696063D01*
X93890256Y-76582795D01*
X93701898Y-76504774D01*
X93501939Y-76465000D01*
X93298061Y-76465000D01*
X93098102Y-76504774D01*
X92909744Y-76582795D01*
X92740226Y-76696063D01*
X92596063Y-76840226D01*
X92482795Y-77009744D01*
X92404774Y-77198102D01*
X92365000Y-77398061D01*
X86865650Y-77398061D01*
X87003937Y-77259774D01*
X87117205Y-77090256D01*
X87195226Y-76901898D01*
X87235000Y-76701939D01*
X87235000Y-76498061D01*
X87195226Y-76298102D01*
X87117205Y-76109744D01*
X87003937Y-75940226D01*
X86859774Y-75796063D01*
X86690256Y-75682795D01*
X86501898Y-75604774D01*
X86301939Y-75565000D01*
X86098061Y-75565000D01*
X85898102Y-75604774D01*
X85709744Y-75682795D01*
X85540226Y-75796063D01*
X85396063Y-75940226D01*
X85282795Y-76109744D01*
X85204774Y-76298102D01*
X85165000Y-76498061D01*
X76338593Y-76498061D01*
X76441476Y-76303110D01*
X76396825Y-76155901D01*
X76271641Y-75893080D01*
X76097588Y-75659731D01*
X75881355Y-75464822D01*
X75764466Y-75395195D01*
X75946632Y-75273475D01*
X76153475Y-75066632D01*
X76315990Y-74823411D01*
X76427932Y-74553158D01*
X76485000Y-74266260D01*
X76485000Y-73973740D01*
X76427932Y-73686842D01*
X76315990Y-73416589D01*
X76153475Y-73173368D01*
X75946632Y-72966525D01*
X75772240Y-72850000D01*
X75946632Y-72733475D01*
X76153475Y-72526632D01*
X76315990Y-72283411D01*
X76427932Y-72013158D01*
X76485000Y-71726260D01*
X76485000Y-71433740D01*
X76427932Y-71146842D01*
X76315990Y-70876589D01*
X76153475Y-70633368D01*
X75946632Y-70426525D01*
X75772240Y-70310000D01*
X75946632Y-70193475D01*
X76153475Y-69986632D01*
X76315990Y-69743411D01*
X76427932Y-69473158D01*
X76485000Y-69186260D01*
X76485000Y-68893740D01*
X76427932Y-68606842D01*
X76315990Y-68336589D01*
X76153475Y-68093368D01*
X76021620Y-67961513D01*
X76094180Y-67939502D01*
X76204494Y-67880537D01*
X76301185Y-67801185D01*
X76380537Y-67704494D01*
X76439502Y-67594180D01*
X76475812Y-67474482D01*
X76488072Y-67350000D01*
X76488072Y-65650000D01*
X76475812Y-65525518D01*
X76439502Y-65405820D01*
X76380537Y-65295506D01*
X76301185Y-65198815D01*
X76204494Y-65119463D01*
X76094180Y-65060498D01*
X75974482Y-65024188D01*
X75850000Y-65011928D01*
X74150000Y-65011928D01*
X74025518Y-65024188D01*
X73905820Y-65060498D01*
X73795506Y-65119463D01*
X73698815Y-65198815D01*
X73619463Y-65295506D01*
X73560498Y-65405820D01*
X73524188Y-65525518D01*
X73511928Y-65650000D01*
X72710000Y-65650000D01*
X72710000Y-63027000D01*
X83148189Y-63027000D01*
X83148189Y-72400000D01*
G37*
%TD.AperFunction*%
D25*
X108185468Y-82895049D02*
X108213181Y-82928817D01*
X108246949Y-82956530D01*
X108246951Y-82956532D01*
X108273184Y-82978061D01*
X108347939Y-83039411D01*
X108501685Y-83121589D01*
X108668508Y-83172195D01*
X108798521Y-83185000D01*
X108798531Y-83185000D01*
X108841997Y-83189281D01*
X108885463Y-83185000D01*
X109214845Y-83185000D01*
X108022185Y-84377660D01*
X107992237Y-84402238D01*
X107967659Y-84432186D01*
X107967655Y-84432190D01*
X107964756Y-84435723D01*
X107894139Y-84521769D01*
X107855177Y-84594662D01*
X107821246Y-84658143D01*
X107776359Y-84806116D01*
X107761203Y-84960002D01*
X107765001Y-84998565D01*
X107765000Y-86954842D01*
X104085000Y-83274843D01*
X104085000Y-78794580D01*
X108185468Y-82895049D01*
%TA.AperFunction,Conductor*%
D26*
G36*
X108185468Y-82895049D02*
G01*
X108213181Y-82928817D01*
X108246949Y-82956530D01*
X108246951Y-82956532D01*
X108273184Y-82978061D01*
X108347939Y-83039411D01*
X108501685Y-83121589D01*
X108668508Y-83172195D01*
X108798521Y-83185000D01*
X108798531Y-83185000D01*
X108841997Y-83189281D01*
X108885463Y-83185000D01*
X109214845Y-83185000D01*
X108022185Y-84377660D01*
X107992237Y-84402238D01*
X107967659Y-84432186D01*
X107967655Y-84432190D01*
X107964756Y-84435723D01*
X107894139Y-84521769D01*
X107855177Y-84594662D01*
X107821246Y-84658143D01*
X107776359Y-84806116D01*
X107761203Y-84960002D01*
X107765001Y-84998565D01*
X107765000Y-86954842D01*
X104085000Y-83274843D01*
X104085000Y-78794580D01*
X108185468Y-82895049D01*
G37*
%TD.AperFunction*%
D25*
X114004774Y-75498102D02*
X113965000Y-75698061D01*
X113965000Y-75901939D01*
X114004774Y-76101898D01*
X114082795Y-76290256D01*
X114196063Y-76459774D01*
X114340226Y-76603937D01*
X114509744Y-76717205D01*
X114698102Y-76795226D01*
X114898061Y-76835000D01*
X114960201Y-76835000D01*
X114954774Y-76848102D01*
X114915000Y-77048061D01*
X114915000Y-77251939D01*
X114954774Y-77451898D01*
X115032795Y-77640256D01*
X115146063Y-77809774D01*
X115290226Y-77953937D01*
X115315949Y-77971124D01*
X115304774Y-77998102D01*
X115265000Y-78198061D01*
X115265000Y-78401939D01*
X115304774Y-78601898D01*
X115382795Y-78790256D01*
X115496063Y-78959774D01*
X115640226Y-79103937D01*
X115809744Y-79217205D01*
X115998102Y-79295226D01*
X116198061Y-79335000D01*
X116401939Y-79335000D01*
X116601898Y-79295226D01*
X116786958Y-79218571D01*
X116859744Y-79267205D01*
X117048102Y-79345226D01*
X117248061Y-79385000D01*
X117451939Y-79385000D01*
X117651898Y-79345226D01*
X117840256Y-79267205D01*
X117938110Y-79201821D01*
X117940226Y-79203937D01*
X118109744Y-79317205D01*
X118298102Y-79395226D01*
X118498061Y-79435000D01*
X118565001Y-79435000D01*
X118565001Y-81634843D01*
X113935000Y-86264845D01*
X113935000Y-86098061D01*
X113895226Y-85898102D01*
X113817205Y-85709744D01*
X113703937Y-85540226D01*
X113559774Y-85396063D01*
X113390256Y-85282795D01*
X113201898Y-85204774D01*
X113001939Y-85165000D01*
X112798061Y-85165000D01*
X112598102Y-85204774D01*
X112409744Y-85282795D01*
X112240226Y-85396063D01*
X112221289Y-85415000D01*
X110628550Y-85415000D01*
X110589997Y-85411203D01*
X110551444Y-85415000D01*
X110551437Y-85415000D01*
X110450488Y-85424943D01*
X110436110Y-85426359D01*
X110401670Y-85436806D01*
X110288138Y-85471246D01*
X110151765Y-85544138D01*
X110125680Y-85565546D01*
X110062185Y-85617655D01*
X110062182Y-85617658D01*
X110032234Y-85642236D01*
X110007656Y-85672185D01*
X109335000Y-86344841D01*
X109335000Y-85285159D01*
X111377812Y-83242347D01*
X111407765Y-83217765D01*
X111505863Y-83098234D01*
X111578755Y-82961861D01*
X111588779Y-82928817D01*
X111623643Y-82813888D01*
X111632409Y-82724875D01*
X111635001Y-82698562D01*
X111635001Y-82698557D01*
X111638798Y-82660001D01*
X111635001Y-82621445D01*
X111635001Y-80698061D01*
X114965000Y-80698061D01*
X114965000Y-80901939D01*
X115004774Y-81101898D01*
X115082795Y-81290256D01*
X115196063Y-81459774D01*
X115340226Y-81603937D01*
X115509744Y-81717205D01*
X115698102Y-81795226D01*
X115898061Y-81835000D01*
X116101939Y-81835000D01*
X116301898Y-81795226D01*
X116490256Y-81717205D01*
X116659774Y-81603937D01*
X116803937Y-81459774D01*
X116917205Y-81290256D01*
X116995226Y-81101898D01*
X117035000Y-80901939D01*
X117035000Y-80698061D01*
X116995226Y-80498102D01*
X116917205Y-80309744D01*
X116803937Y-80140226D01*
X116659774Y-79996063D01*
X116490256Y-79882795D01*
X116301898Y-79804774D01*
X116101939Y-79765000D01*
X115898061Y-79765000D01*
X115698102Y-79804774D01*
X115509744Y-79882795D01*
X115340226Y-79996063D01*
X115196063Y-80140226D01*
X115082795Y-80309744D01*
X115004774Y-80498102D01*
X114965000Y-80698061D01*
X111635001Y-80698061D01*
X111635001Y-79478551D01*
X111638798Y-79439998D01*
X111635001Y-79401445D01*
X111635001Y-79401438D01*
X111623642Y-79286112D01*
X111578755Y-79138139D01*
X111505863Y-79001766D01*
X111407765Y-78882235D01*
X111377817Y-78857657D01*
X110029739Y-77509579D01*
X110101898Y-77495226D01*
X110290256Y-77417205D01*
X110459774Y-77303937D01*
X110603937Y-77159774D01*
X110717205Y-76990256D01*
X110793407Y-76806289D01*
X110809744Y-76817205D01*
X110998102Y-76895226D01*
X111198061Y-76935000D01*
X111401939Y-76935000D01*
X111601898Y-76895226D01*
X111790256Y-76817205D01*
X111959774Y-76703937D01*
X112103937Y-76559774D01*
X112217205Y-76390256D01*
X112295226Y-76201898D01*
X112335000Y-76001939D01*
X112335000Y-75798061D01*
X112295226Y-75598102D01*
X112217205Y-75409744D01*
X112185000Y-75361546D01*
X112185000Y-75327000D01*
X114075647Y-75327000D01*
X114004774Y-75498102D01*
%TA.AperFunction,Conductor*%
D26*
G36*
X114004774Y-75498102D02*
G01*
X113965000Y-75698061D01*
X113965000Y-75901939D01*
X114004774Y-76101898D01*
X114082795Y-76290256D01*
X114196063Y-76459774D01*
X114340226Y-76603937D01*
X114509744Y-76717205D01*
X114698102Y-76795226D01*
X114898061Y-76835000D01*
X114960201Y-76835000D01*
X114954774Y-76848102D01*
X114915000Y-77048061D01*
X114915000Y-77251939D01*
X114954774Y-77451898D01*
X115032795Y-77640256D01*
X115146063Y-77809774D01*
X115290226Y-77953937D01*
X115315949Y-77971124D01*
X115304774Y-77998102D01*
X115265000Y-78198061D01*
X115265000Y-78401939D01*
X115304774Y-78601898D01*
X115382795Y-78790256D01*
X115496063Y-78959774D01*
X115640226Y-79103937D01*
X115809744Y-79217205D01*
X115998102Y-79295226D01*
X116198061Y-79335000D01*
X116401939Y-79335000D01*
X116601898Y-79295226D01*
X116786958Y-79218571D01*
X116859744Y-79267205D01*
X117048102Y-79345226D01*
X117248061Y-79385000D01*
X117451939Y-79385000D01*
X117651898Y-79345226D01*
X117840256Y-79267205D01*
X117938110Y-79201821D01*
X117940226Y-79203937D01*
X118109744Y-79317205D01*
X118298102Y-79395226D01*
X118498061Y-79435000D01*
X118565001Y-79435000D01*
X118565001Y-81634843D01*
X113935000Y-86264845D01*
X113935000Y-86098061D01*
X113895226Y-85898102D01*
X113817205Y-85709744D01*
X113703937Y-85540226D01*
X113559774Y-85396063D01*
X113390256Y-85282795D01*
X113201898Y-85204774D01*
X113001939Y-85165000D01*
X112798061Y-85165000D01*
X112598102Y-85204774D01*
X112409744Y-85282795D01*
X112240226Y-85396063D01*
X112221289Y-85415000D01*
X110628550Y-85415000D01*
X110589997Y-85411203D01*
X110551444Y-85415000D01*
X110551437Y-85415000D01*
X110450488Y-85424943D01*
X110436110Y-85426359D01*
X110401670Y-85436806D01*
X110288138Y-85471246D01*
X110151765Y-85544138D01*
X110125680Y-85565546D01*
X110062185Y-85617655D01*
X110062182Y-85617658D01*
X110032234Y-85642236D01*
X110007656Y-85672185D01*
X109335000Y-86344841D01*
X109335000Y-85285159D01*
X111377812Y-83242347D01*
X111407765Y-83217765D01*
X111505863Y-83098234D01*
X111578755Y-82961861D01*
X111588779Y-82928817D01*
X111623643Y-82813888D01*
X111632409Y-82724875D01*
X111635001Y-82698562D01*
X111635001Y-82698557D01*
X111638798Y-82660001D01*
X111635001Y-82621445D01*
X111635001Y-80698061D01*
X114965000Y-80698061D01*
X114965000Y-80901939D01*
X115004774Y-81101898D01*
X115082795Y-81290256D01*
X115196063Y-81459774D01*
X115340226Y-81603937D01*
X115509744Y-81717205D01*
X115698102Y-81795226D01*
X115898061Y-81835000D01*
X116101939Y-81835000D01*
X116301898Y-81795226D01*
X116490256Y-81717205D01*
X116659774Y-81603937D01*
X116803937Y-81459774D01*
X116917205Y-81290256D01*
X116995226Y-81101898D01*
X117035000Y-80901939D01*
X117035000Y-80698061D01*
X116995226Y-80498102D01*
X116917205Y-80309744D01*
X116803937Y-80140226D01*
X116659774Y-79996063D01*
X116490256Y-79882795D01*
X116301898Y-79804774D01*
X116101939Y-79765000D01*
X115898061Y-79765000D01*
X115698102Y-79804774D01*
X115509744Y-79882795D01*
X115340226Y-79996063D01*
X115196063Y-80140226D01*
X115082795Y-80309744D01*
X115004774Y-80498102D01*
X114965000Y-80698061D01*
X111635001Y-80698061D01*
X111635001Y-79478551D01*
X111638798Y-79439998D01*
X111635001Y-79401445D01*
X111635001Y-79401438D01*
X111623642Y-79286112D01*
X111578755Y-79138139D01*
X111505863Y-79001766D01*
X111407765Y-78882235D01*
X111377817Y-78857657D01*
X110029739Y-77509579D01*
X110101898Y-77495226D01*
X110290256Y-77417205D01*
X110459774Y-77303937D01*
X110603937Y-77159774D01*
X110717205Y-76990256D01*
X110793407Y-76806289D01*
X110809744Y-76817205D01*
X110998102Y-76895226D01*
X111198061Y-76935000D01*
X111401939Y-76935000D01*
X111601898Y-76895226D01*
X111790256Y-76817205D01*
X111959774Y-76703937D01*
X112103937Y-76559774D01*
X112217205Y-76390256D01*
X112295226Y-76201898D01*
X112335000Y-76001939D01*
X112335000Y-75798061D01*
X112295226Y-75598102D01*
X112217205Y-75409744D01*
X112185000Y-75361546D01*
X112185000Y-75327000D01*
X114075647Y-75327000D01*
X114004774Y-75498102D01*
G37*
%TD.AperFunction*%
%TD*%
D25*
%TO.N,GND*%
X127073000Y-94273000D02*
X125973401Y-94273000D01*
X125938233Y-94244138D01*
X125801860Y-94171246D01*
X125653887Y-94126359D01*
X125538561Y-94115000D01*
X125538553Y-94115000D01*
X125500000Y-94111203D01*
X125461447Y-94115000D01*
X120926385Y-94115000D01*
X120921813Y-91999726D01*
X120919319Y-91974954D01*
X120912040Y-91951146D01*
X120900257Y-91929215D01*
X120884421Y-91910004D01*
X120865142Y-91894251D01*
X120843160Y-91882563D01*
X120819320Y-91875387D01*
X120794813Y-91873000D01*
X115821813Y-91873000D01*
X115821813Y-91127000D01*
X120794813Y-91127000D01*
X120819589Y-91124560D01*
X120843414Y-91117333D01*
X120865370Y-91105597D01*
X120884616Y-91089803D01*
X120900410Y-91070557D01*
X120912146Y-91048601D01*
X120919373Y-91024776D01*
X120921813Y-91000227D01*
X120926773Y-88227000D01*
X127073000Y-88227000D01*
X127073000Y-94273000D01*
%TA.AperFunction,Conductor*%
D26*
G36*
X127073000Y-94273000D02*
G01*
X125973401Y-94273000D01*
X125938233Y-94244138D01*
X125801860Y-94171246D01*
X125653887Y-94126359D01*
X125538561Y-94115000D01*
X125538553Y-94115000D01*
X125500000Y-94111203D01*
X125461447Y-94115000D01*
X120926385Y-94115000D01*
X120921813Y-91999726D01*
X120919319Y-91974954D01*
X120912040Y-91951146D01*
X120900257Y-91929215D01*
X120884421Y-91910004D01*
X120865142Y-91894251D01*
X120843160Y-91882563D01*
X120819320Y-91875387D01*
X120794813Y-91873000D01*
X115821813Y-91873000D01*
X115821813Y-91127000D01*
X120794813Y-91127000D01*
X120819589Y-91124560D01*
X120843414Y-91117333D01*
X120865370Y-91105597D01*
X120884616Y-91089803D01*
X120900410Y-91070557D01*
X120912146Y-91048601D01*
X120919373Y-91024776D01*
X120921813Y-91000227D01*
X120926773Y-88227000D01*
X127073000Y-88227000D01*
X127073000Y-94273000D01*
G37*
%TD.AperFunction*%
%TD*%
D25*
%TO.N,GND*%
X126015001Y-58325159D02*
X126015000Y-69674843D01*
X123572175Y-72117668D01*
X123542227Y-72142246D01*
X123517649Y-72172194D01*
X123517645Y-72172198D01*
X123506499Y-72185780D01*
X123444129Y-72261777D01*
X123407784Y-72329774D01*
X123371236Y-72398151D01*
X123326349Y-72546124D01*
X123311193Y-72700010D01*
X123314991Y-72738573D01*
X123314991Y-74347975D01*
X120084720Y-74353202D01*
X119185038Y-73453521D01*
X119185038Y-70055113D01*
X119246112Y-70073640D01*
X119399998Y-70088796D01*
X119553885Y-70073640D01*
X119701858Y-70028753D01*
X119838231Y-69955860D01*
X119957763Y-69857763D01*
X120055860Y-69738231D01*
X120128753Y-69601858D01*
X120173640Y-69453885D01*
X120188796Y-69299998D01*
X120173640Y-69146112D01*
X120128753Y-68998139D01*
X120055860Y-68861767D01*
X120035000Y-68836349D01*
X120035000Y-68798061D01*
X119995226Y-68598102D01*
X119917205Y-68409744D01*
X119803937Y-68240226D01*
X119659774Y-68096063D01*
X119490256Y-67982795D01*
X119301898Y-67904774D01*
X119101939Y-67865000D01*
X119034544Y-67865000D01*
X119044152Y-63935000D01*
X119101939Y-63935000D01*
X119301898Y-63895226D01*
X119490256Y-63817205D01*
X119659774Y-63703937D01*
X119803937Y-63559774D01*
X119917205Y-63390256D01*
X119995226Y-63201898D01*
X120035000Y-63001939D01*
X120035000Y-62798061D01*
X119995226Y-62598102D01*
X119917205Y-62409744D01*
X119910694Y-62400000D01*
X119917205Y-62390256D01*
X119995226Y-62201898D01*
X120035000Y-62001939D01*
X120035000Y-61798061D01*
X119995226Y-61598102D01*
X119917205Y-61409744D01*
X119803937Y-61240226D01*
X119659774Y-61096063D01*
X119490256Y-60982795D01*
X119301898Y-60904774D01*
X119101939Y-60865000D01*
X119051658Y-60865000D01*
X119062245Y-56535000D01*
X119101939Y-56535000D01*
X119301898Y-56495226D01*
X119490256Y-56417205D01*
X119659774Y-56303937D01*
X119678711Y-56285000D01*
X123974843Y-56285000D01*
X126015001Y-58325159D01*
%TA.AperFunction,Conductor*%
D26*
G36*
X126015001Y-58325159D02*
G01*
X126015000Y-69674843D01*
X123572175Y-72117668D01*
X123542227Y-72142246D01*
X123517649Y-72172194D01*
X123517645Y-72172198D01*
X123506499Y-72185780D01*
X123444129Y-72261777D01*
X123407784Y-72329774D01*
X123371236Y-72398151D01*
X123326349Y-72546124D01*
X123311193Y-72700010D01*
X123314991Y-72738573D01*
X123314991Y-74347975D01*
X120084720Y-74353202D01*
X119185038Y-73453521D01*
X119185038Y-70055113D01*
X119246112Y-70073640D01*
X119399998Y-70088796D01*
X119553885Y-70073640D01*
X119701858Y-70028753D01*
X119838231Y-69955860D01*
X119957763Y-69857763D01*
X120055860Y-69738231D01*
X120128753Y-69601858D01*
X120173640Y-69453885D01*
X120188796Y-69299998D01*
X120173640Y-69146112D01*
X120128753Y-68998139D01*
X120055860Y-68861767D01*
X120035000Y-68836349D01*
X120035000Y-68798061D01*
X119995226Y-68598102D01*
X119917205Y-68409744D01*
X119803937Y-68240226D01*
X119659774Y-68096063D01*
X119490256Y-67982795D01*
X119301898Y-67904774D01*
X119101939Y-67865000D01*
X119034544Y-67865000D01*
X119044152Y-63935000D01*
X119101939Y-63935000D01*
X119301898Y-63895226D01*
X119490256Y-63817205D01*
X119659774Y-63703937D01*
X119803937Y-63559774D01*
X119917205Y-63390256D01*
X119995226Y-63201898D01*
X120035000Y-63001939D01*
X120035000Y-62798061D01*
X119995226Y-62598102D01*
X119917205Y-62409744D01*
X119910694Y-62400000D01*
X119917205Y-62390256D01*
X119995226Y-62201898D01*
X120035000Y-62001939D01*
X120035000Y-61798061D01*
X119995226Y-61598102D01*
X119917205Y-61409744D01*
X119803937Y-61240226D01*
X119659774Y-61096063D01*
X119490256Y-60982795D01*
X119301898Y-60904774D01*
X119101939Y-60865000D01*
X119051658Y-60865000D01*
X119062245Y-56535000D01*
X119101939Y-56535000D01*
X119301898Y-56495226D01*
X119490256Y-56417205D01*
X119659774Y-56303937D01*
X119678711Y-56285000D01*
X123974843Y-56285000D01*
X126015001Y-58325159D01*
G37*
%TD.AperFunction*%
D25*
X145555330Y-31021161D02*
X145021161Y-31555330D01*
X144601467Y-32183446D01*
X144312377Y-32881372D01*
X144165000Y-33622285D01*
X144165000Y-34377715D01*
X144312377Y-35118628D01*
X144601467Y-35816554D01*
X145021161Y-36444670D01*
X145555330Y-36978839D01*
X146183446Y-37398533D01*
X146881372Y-37687623D01*
X147622285Y-37835000D01*
X148377715Y-37835000D01*
X149118628Y-37687623D01*
X149816554Y-37398533D01*
X150444670Y-36978839D01*
X150978839Y-36444670D01*
X151290000Y-35978985D01*
X151290000Y-61923000D01*
X140450000Y-61923000D01*
X140425224Y-61925440D01*
X140401399Y-61932667D01*
X140379443Y-61944403D01*
X140360197Y-61960197D01*
X140344403Y-61979443D01*
X140332667Y-62001399D01*
X140325440Y-62025224D01*
X140323000Y-62050000D01*
X140323000Y-74323000D01*
X138749794Y-74323000D01*
X125385000Y-74344626D01*
X125385000Y-73232277D01*
X127827821Y-70789456D01*
X127857774Y-70764874D01*
X127955872Y-70645343D01*
X128028764Y-70508970D01*
X128050222Y-70438233D01*
X128073652Y-70360997D01*
X128082304Y-70273141D01*
X128085010Y-70245671D01*
X128085010Y-70245666D01*
X128088807Y-70207110D01*
X128085010Y-70168554D01*
X128085010Y-54910000D01*
X143081928Y-54910000D01*
X143081928Y-56890000D01*
X143094188Y-57014482D01*
X143130498Y-57134180D01*
X143189463Y-57244494D01*
X143268815Y-57341185D01*
X143365506Y-57420537D01*
X143475820Y-57479502D01*
X143595518Y-57515812D01*
X143720000Y-57528072D01*
X147680000Y-57528072D01*
X147804482Y-57515812D01*
X147924180Y-57479502D01*
X148034494Y-57420537D01*
X148131185Y-57341185D01*
X148210537Y-57244494D01*
X148269502Y-57134180D01*
X148305812Y-57014482D01*
X148318072Y-56890000D01*
X148318072Y-54910000D01*
X148305812Y-54785518D01*
X148269502Y-54665820D01*
X148210537Y-54555506D01*
X148131185Y-54458815D01*
X148034494Y-54379463D01*
X147924180Y-54320498D01*
X147804482Y-54284188D01*
X147680000Y-54271928D01*
X143720000Y-54271928D01*
X143595518Y-54284188D01*
X143475820Y-54320498D01*
X143365506Y-54379463D01*
X143268815Y-54458815D01*
X143189463Y-54555506D01*
X143130498Y-54665820D01*
X143094188Y-54785518D01*
X143081928Y-54910000D01*
X128085010Y-54910000D01*
X128085010Y-50900000D01*
X143077138Y-50900000D01*
X143108513Y-51218556D01*
X143201432Y-51524869D01*
X143352325Y-51807170D01*
X143555392Y-52054608D01*
X143802830Y-52257675D01*
X144085131Y-52408568D01*
X144391444Y-52501487D01*
X144630176Y-52525000D01*
X146769824Y-52525000D01*
X147008556Y-52501487D01*
X147314869Y-52408568D01*
X147597170Y-52257675D01*
X147844608Y-52054608D01*
X148047675Y-51807170D01*
X148198568Y-51524869D01*
X148291487Y-51218556D01*
X148322862Y-50900000D01*
X148291487Y-50581444D01*
X148198568Y-50275131D01*
X148047675Y-49992830D01*
X147844608Y-49745392D01*
X147597170Y-49542325D01*
X147314869Y-49391432D01*
X147008556Y-49298513D01*
X146769824Y-49275000D01*
X144630176Y-49275000D01*
X144391444Y-49298513D01*
X144085131Y-49391432D01*
X143802830Y-49542325D01*
X143555392Y-49745392D01*
X143352325Y-49992830D01*
X143201432Y-50275131D01*
X143108513Y-50581444D01*
X143077138Y-50900000D01*
X128085010Y-50900000D01*
X128085010Y-48578701D01*
X128203937Y-48459774D01*
X128317205Y-48290256D01*
X128395226Y-48101898D01*
X128435000Y-47901939D01*
X128435000Y-47698061D01*
X128395226Y-47498102D01*
X128317205Y-47309744D01*
X128203937Y-47140226D01*
X128085010Y-47021299D01*
X128085010Y-45900000D01*
X143077138Y-45900000D01*
X143108513Y-46218556D01*
X143201432Y-46524869D01*
X143352325Y-46807170D01*
X143555392Y-47054608D01*
X143802830Y-47257675D01*
X144085131Y-47408568D01*
X144391444Y-47501487D01*
X144630176Y-47525000D01*
X146769824Y-47525000D01*
X147008556Y-47501487D01*
X147314869Y-47408568D01*
X147597170Y-47257675D01*
X147844608Y-47054608D01*
X148047675Y-46807170D01*
X148198568Y-46524869D01*
X148291487Y-46218556D01*
X148322862Y-45900000D01*
X148291487Y-45581444D01*
X148198568Y-45275131D01*
X148047675Y-44992830D01*
X147844608Y-44745392D01*
X147597170Y-44542325D01*
X147314869Y-44391432D01*
X147008556Y-44298513D01*
X146769824Y-44275000D01*
X144630176Y-44275000D01*
X144391444Y-44298513D01*
X144085131Y-44391432D01*
X143802830Y-44542325D01*
X143555392Y-44745392D01*
X143352325Y-44992830D01*
X143201432Y-45275131D01*
X143108513Y-45581444D01*
X143077138Y-45900000D01*
X128085010Y-45900000D01*
X128085010Y-45538562D01*
X128088807Y-45500009D01*
X128085010Y-45461456D01*
X128085010Y-45461449D01*
X128073651Y-45346123D01*
X128071261Y-45338242D01*
X128052116Y-45275131D01*
X128028764Y-45198150D01*
X127955872Y-45061777D01*
X127857774Y-44942246D01*
X127827826Y-44917668D01*
X124982347Y-42072190D01*
X124957764Y-42042236D01*
X124838233Y-41944138D01*
X124701860Y-41871246D01*
X124553887Y-41826359D01*
X124438561Y-41815000D01*
X124438553Y-41815000D01*
X124400000Y-41811203D01*
X124361447Y-41815000D01*
X120978711Y-41815000D01*
X120959774Y-41796063D01*
X120790256Y-41682795D01*
X120601898Y-41604774D01*
X120401939Y-41565000D01*
X120198061Y-41565000D01*
X119998102Y-41604774D01*
X119809744Y-41682795D01*
X119640226Y-41796063D01*
X119496063Y-41940226D01*
X119382795Y-42109744D01*
X119304774Y-42298102D01*
X119265000Y-42498061D01*
X119265000Y-42701939D01*
X119304774Y-42901898D01*
X119382795Y-43090256D01*
X119496063Y-43259774D01*
X119640226Y-43403937D01*
X119809744Y-43517205D01*
X119998102Y-43595226D01*
X120198061Y-43635000D01*
X120401939Y-43635000D01*
X120601898Y-43595226D01*
X120790256Y-43517205D01*
X120959774Y-43403937D01*
X120978711Y-43385000D01*
X124074843Y-43385000D01*
X126515011Y-45825169D01*
X126515011Y-47261529D01*
X126482795Y-47309744D01*
X126404774Y-47498102D01*
X126365000Y-47698061D01*
X126365000Y-47901939D01*
X126404774Y-48101898D01*
X126482795Y-48290256D01*
X126515011Y-48338471D01*
X126515011Y-56604853D01*
X124882347Y-54972190D01*
X124857764Y-54942236D01*
X124738233Y-54844138D01*
X124601860Y-54771246D01*
X124453887Y-54726359D01*
X124338561Y-54715000D01*
X124338553Y-54715000D01*
X124300000Y-54711203D01*
X124261447Y-54715000D01*
X119678711Y-54715000D01*
X119659774Y-54696063D01*
X119490256Y-54582795D01*
X119301898Y-54504774D01*
X119101939Y-54465000D01*
X119067306Y-54465000D01*
X119076915Y-50535000D01*
X119101939Y-50535000D01*
X119301898Y-50495226D01*
X119490256Y-50417205D01*
X119659774Y-50303937D01*
X119803937Y-50159774D01*
X119917205Y-49990256D01*
X119995226Y-49801898D01*
X120035000Y-49601939D01*
X120035000Y-49398061D01*
X119995226Y-49198102D01*
X119917205Y-49009744D01*
X119910694Y-49000000D01*
X119917205Y-48990256D01*
X119995226Y-48801898D01*
X120035000Y-48601939D01*
X120035000Y-48398061D01*
X119995226Y-48198102D01*
X119917205Y-48009744D01*
X119803937Y-47840226D01*
X119659774Y-47696063D01*
X119490256Y-47582795D01*
X119301898Y-47504774D01*
X119101939Y-47465000D01*
X119084421Y-47465000D01*
X119108537Y-37601621D01*
X119275158Y-37435000D01*
X119301939Y-37435000D01*
X119501898Y-37395226D01*
X119690256Y-37317205D01*
X119859774Y-37203937D01*
X120003937Y-37059774D01*
X120117205Y-36890256D01*
X120195226Y-36701898D01*
X120235000Y-36501939D01*
X120235000Y-36298061D01*
X120195226Y-36098102D01*
X120117205Y-35909744D01*
X120110694Y-35900000D01*
X120117205Y-35890256D01*
X120195226Y-35701898D01*
X120235000Y-35501939D01*
X120235000Y-35298061D01*
X120195226Y-35098102D01*
X120117205Y-34909744D01*
X120003937Y-34740226D01*
X119859774Y-34596063D01*
X119690256Y-34482795D01*
X119501898Y-34404774D01*
X119301939Y-34365000D01*
X119116450Y-34365000D01*
X119125387Y-30710000D01*
X146021015Y-30710000D01*
X145555330Y-31021161D01*
%TA.AperFunction,Conductor*%
D26*
G36*
X145555330Y-31021161D02*
G01*
X145021161Y-31555330D01*
X144601467Y-32183446D01*
X144312377Y-32881372D01*
X144165000Y-33622285D01*
X144165000Y-34377715D01*
X144312377Y-35118628D01*
X144601467Y-35816554D01*
X145021161Y-36444670D01*
X145555330Y-36978839D01*
X146183446Y-37398533D01*
X146881372Y-37687623D01*
X147622285Y-37835000D01*
X148377715Y-37835000D01*
X149118628Y-37687623D01*
X149816554Y-37398533D01*
X150444670Y-36978839D01*
X150978839Y-36444670D01*
X151290000Y-35978985D01*
X151290000Y-61923000D01*
X140450000Y-61923000D01*
X140425224Y-61925440D01*
X140401399Y-61932667D01*
X140379443Y-61944403D01*
X140360197Y-61960197D01*
X140344403Y-61979443D01*
X140332667Y-62001399D01*
X140325440Y-62025224D01*
X140323000Y-62050000D01*
X140323000Y-74323000D01*
X138749794Y-74323000D01*
X125385000Y-74344626D01*
X125385000Y-73232277D01*
X127827821Y-70789456D01*
X127857774Y-70764874D01*
X127955872Y-70645343D01*
X128028764Y-70508970D01*
X128050222Y-70438233D01*
X128073652Y-70360997D01*
X128082304Y-70273141D01*
X128085010Y-70245671D01*
X128085010Y-70245666D01*
X128088807Y-70207110D01*
X128085010Y-70168554D01*
X128085010Y-54910000D01*
X143081928Y-54910000D01*
X143081928Y-56890000D01*
X143094188Y-57014482D01*
X143130498Y-57134180D01*
X143189463Y-57244494D01*
X143268815Y-57341185D01*
X143365506Y-57420537D01*
X143475820Y-57479502D01*
X143595518Y-57515812D01*
X143720000Y-57528072D01*
X147680000Y-57528072D01*
X147804482Y-57515812D01*
X147924180Y-57479502D01*
X148034494Y-57420537D01*
X148131185Y-57341185D01*
X148210537Y-57244494D01*
X148269502Y-57134180D01*
X148305812Y-57014482D01*
X148318072Y-56890000D01*
X148318072Y-54910000D01*
X148305812Y-54785518D01*
X148269502Y-54665820D01*
X148210537Y-54555506D01*
X148131185Y-54458815D01*
X148034494Y-54379463D01*
X147924180Y-54320498D01*
X147804482Y-54284188D01*
X147680000Y-54271928D01*
X143720000Y-54271928D01*
X143595518Y-54284188D01*
X143475820Y-54320498D01*
X143365506Y-54379463D01*
X143268815Y-54458815D01*
X143189463Y-54555506D01*
X143130498Y-54665820D01*
X143094188Y-54785518D01*
X143081928Y-54910000D01*
X128085010Y-54910000D01*
X128085010Y-50900000D01*
X143077138Y-50900000D01*
X143108513Y-51218556D01*
X143201432Y-51524869D01*
X143352325Y-51807170D01*
X143555392Y-52054608D01*
X143802830Y-52257675D01*
X144085131Y-52408568D01*
X144391444Y-52501487D01*
X144630176Y-52525000D01*
X146769824Y-52525000D01*
X147008556Y-52501487D01*
X147314869Y-52408568D01*
X147597170Y-52257675D01*
X147844608Y-52054608D01*
X148047675Y-51807170D01*
X148198568Y-51524869D01*
X148291487Y-51218556D01*
X148322862Y-50900000D01*
X148291487Y-50581444D01*
X148198568Y-50275131D01*
X148047675Y-49992830D01*
X147844608Y-49745392D01*
X147597170Y-49542325D01*
X147314869Y-49391432D01*
X147008556Y-49298513D01*
X146769824Y-49275000D01*
X144630176Y-49275000D01*
X144391444Y-49298513D01*
X144085131Y-49391432D01*
X143802830Y-49542325D01*
X143555392Y-49745392D01*
X143352325Y-49992830D01*
X143201432Y-50275131D01*
X143108513Y-50581444D01*
X143077138Y-50900000D01*
X128085010Y-50900000D01*
X128085010Y-48578701D01*
X128203937Y-48459774D01*
X128317205Y-48290256D01*
X128395226Y-48101898D01*
X128435000Y-47901939D01*
X128435000Y-47698061D01*
X128395226Y-47498102D01*
X128317205Y-47309744D01*
X128203937Y-47140226D01*
X128085010Y-47021299D01*
X128085010Y-45900000D01*
X143077138Y-45900000D01*
X143108513Y-46218556D01*
X143201432Y-46524869D01*
X143352325Y-46807170D01*
X143555392Y-47054608D01*
X143802830Y-47257675D01*
X144085131Y-47408568D01*
X144391444Y-47501487D01*
X144630176Y-47525000D01*
X146769824Y-47525000D01*
X147008556Y-47501487D01*
X147314869Y-47408568D01*
X147597170Y-47257675D01*
X147844608Y-47054608D01*
X148047675Y-46807170D01*
X148198568Y-46524869D01*
X148291487Y-46218556D01*
X148322862Y-45900000D01*
X148291487Y-45581444D01*
X148198568Y-45275131D01*
X148047675Y-44992830D01*
X147844608Y-44745392D01*
X147597170Y-44542325D01*
X147314869Y-44391432D01*
X147008556Y-44298513D01*
X146769824Y-44275000D01*
X144630176Y-44275000D01*
X144391444Y-44298513D01*
X144085131Y-44391432D01*
X143802830Y-44542325D01*
X143555392Y-44745392D01*
X143352325Y-44992830D01*
X143201432Y-45275131D01*
X143108513Y-45581444D01*
X143077138Y-45900000D01*
X128085010Y-45900000D01*
X128085010Y-45538562D01*
X128088807Y-45500009D01*
X128085010Y-45461456D01*
X128085010Y-45461449D01*
X128073651Y-45346123D01*
X128071261Y-45338242D01*
X128052116Y-45275131D01*
X128028764Y-45198150D01*
X127955872Y-45061777D01*
X127857774Y-44942246D01*
X127827826Y-44917668D01*
X124982347Y-42072190D01*
X124957764Y-42042236D01*
X124838233Y-41944138D01*
X124701860Y-41871246D01*
X124553887Y-41826359D01*
X124438561Y-41815000D01*
X124438553Y-41815000D01*
X124400000Y-41811203D01*
X124361447Y-41815000D01*
X120978711Y-41815000D01*
X120959774Y-41796063D01*
X120790256Y-41682795D01*
X120601898Y-41604774D01*
X120401939Y-41565000D01*
X120198061Y-41565000D01*
X119998102Y-41604774D01*
X119809744Y-41682795D01*
X119640226Y-41796063D01*
X119496063Y-41940226D01*
X119382795Y-42109744D01*
X119304774Y-42298102D01*
X119265000Y-42498061D01*
X119265000Y-42701939D01*
X119304774Y-42901898D01*
X119382795Y-43090256D01*
X119496063Y-43259774D01*
X119640226Y-43403937D01*
X119809744Y-43517205D01*
X119998102Y-43595226D01*
X120198061Y-43635000D01*
X120401939Y-43635000D01*
X120601898Y-43595226D01*
X120790256Y-43517205D01*
X120959774Y-43403937D01*
X120978711Y-43385000D01*
X124074843Y-43385000D01*
X126515011Y-45825169D01*
X126515011Y-47261529D01*
X126482795Y-47309744D01*
X126404774Y-47498102D01*
X126365000Y-47698061D01*
X126365000Y-47901939D01*
X126404774Y-48101898D01*
X126482795Y-48290256D01*
X126515011Y-48338471D01*
X126515011Y-56604853D01*
X124882347Y-54972190D01*
X124857764Y-54942236D01*
X124738233Y-54844138D01*
X124601860Y-54771246D01*
X124453887Y-54726359D01*
X124338561Y-54715000D01*
X124338553Y-54715000D01*
X124300000Y-54711203D01*
X124261447Y-54715000D01*
X119678711Y-54715000D01*
X119659774Y-54696063D01*
X119490256Y-54582795D01*
X119301898Y-54504774D01*
X119101939Y-54465000D01*
X119067306Y-54465000D01*
X119076915Y-50535000D01*
X119101939Y-50535000D01*
X119301898Y-50495226D01*
X119490256Y-50417205D01*
X119659774Y-50303937D01*
X119803937Y-50159774D01*
X119917205Y-49990256D01*
X119995226Y-49801898D01*
X120035000Y-49601939D01*
X120035000Y-49398061D01*
X119995226Y-49198102D01*
X119917205Y-49009744D01*
X119910694Y-49000000D01*
X119917205Y-48990256D01*
X119995226Y-48801898D01*
X120035000Y-48601939D01*
X120035000Y-48398061D01*
X119995226Y-48198102D01*
X119917205Y-48009744D01*
X119803937Y-47840226D01*
X119659774Y-47696063D01*
X119490256Y-47582795D01*
X119301898Y-47504774D01*
X119101939Y-47465000D01*
X119084421Y-47465000D01*
X119108537Y-37601621D01*
X119275158Y-37435000D01*
X119301939Y-37435000D01*
X119501898Y-37395226D01*
X119690256Y-37317205D01*
X119859774Y-37203937D01*
X120003937Y-37059774D01*
X120117205Y-36890256D01*
X120195226Y-36701898D01*
X120235000Y-36501939D01*
X120235000Y-36298061D01*
X120195226Y-36098102D01*
X120117205Y-35909744D01*
X120110694Y-35900000D01*
X120117205Y-35890256D01*
X120195226Y-35701898D01*
X120235000Y-35501939D01*
X120235000Y-35298061D01*
X120195226Y-35098102D01*
X120117205Y-34909744D01*
X120003937Y-34740226D01*
X119859774Y-34596063D01*
X119690256Y-34482795D01*
X119501898Y-34404774D01*
X119301939Y-34365000D01*
X119116450Y-34365000D01*
X119125387Y-30710000D01*
X146021015Y-30710000D01*
X145555330Y-31021161D01*
G37*
%TD.AperFunction*%
D25*
X103923000Y-32338083D02*
X103840256Y-32282795D01*
X103651898Y-32204774D01*
X103451939Y-32165000D01*
X103248061Y-32165000D01*
X103048102Y-32204774D01*
X102859744Y-32282795D01*
X102690226Y-32396063D01*
X102546063Y-32540226D01*
X102432795Y-32709744D01*
X102354774Y-32898102D01*
X102315000Y-33098061D01*
X102315000Y-33301939D01*
X102354774Y-33501898D01*
X102432795Y-33690256D01*
X102546063Y-33859774D01*
X102690226Y-34003937D01*
X102859744Y-34117205D01*
X103048102Y-34195226D01*
X103248061Y-34235000D01*
X103451939Y-34235000D01*
X103651898Y-34195226D01*
X103840256Y-34117205D01*
X103923000Y-34061917D01*
X103923000Y-37731171D01*
X103878937Y-37665226D01*
X103734774Y-37521063D01*
X103565256Y-37407795D01*
X103376898Y-37329774D01*
X103176939Y-37290000D01*
X102973061Y-37290000D01*
X102773102Y-37329774D01*
X102584744Y-37407795D01*
X102415226Y-37521063D01*
X102271063Y-37665226D01*
X102157795Y-37834744D01*
X102079774Y-38023102D01*
X102040000Y-38223061D01*
X102040000Y-38426939D01*
X102079774Y-38626898D01*
X102157795Y-38815256D01*
X102271063Y-38984774D01*
X102415226Y-39128937D01*
X102584744Y-39242205D01*
X102773102Y-39320226D01*
X102973061Y-39360000D01*
X103176939Y-39360000D01*
X103376898Y-39320226D01*
X103565256Y-39242205D01*
X103670162Y-39172109D01*
X103665000Y-39198061D01*
X103665000Y-39401939D01*
X103704774Y-39601898D01*
X103782795Y-39790256D01*
X103789306Y-39800000D01*
X103782795Y-39809744D01*
X103704774Y-39998102D01*
X103665000Y-40198061D01*
X103665000Y-40401939D01*
X103704774Y-40601898D01*
X103782795Y-40790256D01*
X103896063Y-40959774D01*
X103923000Y-40986711D01*
X103923000Y-45659289D01*
X103859774Y-45596063D01*
X103690256Y-45482795D01*
X103501898Y-45404774D01*
X103301939Y-45365000D01*
X103098061Y-45365000D01*
X102898102Y-45404774D01*
X102709744Y-45482795D01*
X102540226Y-45596063D01*
X102396063Y-45740226D01*
X102282795Y-45909744D01*
X102204774Y-46098102D01*
X102165000Y-46298061D01*
X102165000Y-46501939D01*
X102204774Y-46701898D01*
X102282795Y-46890256D01*
X102396063Y-47059774D01*
X102540226Y-47203937D01*
X102709744Y-47317205D01*
X102898102Y-47395226D01*
X103098061Y-47435000D01*
X103301939Y-47435000D01*
X103501898Y-47395226D01*
X103690256Y-47317205D01*
X103859774Y-47203937D01*
X103923000Y-47140711D01*
X103923000Y-58965000D01*
X103798061Y-58965000D01*
X103598102Y-59004774D01*
X103409744Y-59082795D01*
X103240226Y-59196063D01*
X103096063Y-59340226D01*
X102982795Y-59509744D01*
X102904774Y-59698102D01*
X102865000Y-59898061D01*
X102865000Y-60101939D01*
X102904774Y-60301898D01*
X102982795Y-60490256D01*
X103096063Y-60659774D01*
X103240226Y-60803937D01*
X103409744Y-60917205D01*
X103598102Y-60995226D01*
X103798061Y-61035000D01*
X103824843Y-61035000D01*
X103923000Y-61133157D01*
X103923000Y-64250000D01*
X103925440Y-64274776D01*
X103932667Y-64298601D01*
X103944403Y-64320557D01*
X103960197Y-64339803D01*
X103979443Y-64355597D01*
X104001399Y-64367333D01*
X104025224Y-64374560D01*
X104051245Y-64376994D01*
X104664991Y-64370977D01*
X104664991Y-64910611D01*
X98152603Y-71423000D01*
X84127000Y-71423000D01*
X84127000Y-61500000D01*
X84124560Y-61475224D01*
X84117333Y-61451399D01*
X84105597Y-61429443D01*
X84089803Y-61410197D01*
X84070557Y-61394403D01*
X84048601Y-61382667D01*
X84024776Y-61375440D01*
X84000000Y-61373000D01*
X72710000Y-61373000D01*
X72710000Y-54910000D01*
X75981928Y-54910000D01*
X75981928Y-56890000D01*
X75994188Y-57014482D01*
X76030498Y-57134180D01*
X76089463Y-57244494D01*
X76168815Y-57341185D01*
X76265506Y-57420537D01*
X76375820Y-57479502D01*
X76495518Y-57515812D01*
X76620000Y-57528072D01*
X80580000Y-57528072D01*
X80704482Y-57515812D01*
X80824180Y-57479502D01*
X80934494Y-57420537D01*
X81031185Y-57341185D01*
X81110537Y-57244494D01*
X81169502Y-57134180D01*
X81205812Y-57014482D01*
X81218072Y-56890000D01*
X81218072Y-54910000D01*
X81205812Y-54785518D01*
X81169502Y-54665820D01*
X81110537Y-54555506D01*
X81031185Y-54458815D01*
X80934494Y-54379463D01*
X80824180Y-54320498D01*
X80704482Y-54284188D01*
X80580000Y-54271928D01*
X76620000Y-54271928D01*
X76495518Y-54284188D01*
X76375820Y-54320498D01*
X76265506Y-54379463D01*
X76168815Y-54458815D01*
X76089463Y-54555506D01*
X76030498Y-54665820D01*
X75994188Y-54785518D01*
X75981928Y-54910000D01*
X72710000Y-54910000D01*
X72710000Y-50900000D01*
X75977138Y-50900000D01*
X76008513Y-51218556D01*
X76101432Y-51524869D01*
X76252325Y-51807170D01*
X76455392Y-52054608D01*
X76702830Y-52257675D01*
X76985131Y-52408568D01*
X77291444Y-52501487D01*
X77530176Y-52525000D01*
X79669824Y-52525000D01*
X79908556Y-52501487D01*
X80214869Y-52408568D01*
X80497170Y-52257675D01*
X80744608Y-52054608D01*
X80947675Y-51807170D01*
X81098568Y-51524869D01*
X81191487Y-51218556D01*
X81222862Y-50900000D01*
X81191487Y-50581444D01*
X81098568Y-50275131D01*
X80947675Y-49992830D01*
X80744608Y-49745392D01*
X80497170Y-49542325D01*
X80214869Y-49391432D01*
X79908556Y-49298513D01*
X79669824Y-49275000D01*
X77530176Y-49275000D01*
X77291444Y-49298513D01*
X76985131Y-49391432D01*
X76702830Y-49542325D01*
X76455392Y-49745392D01*
X76252325Y-49992830D01*
X76101432Y-50275131D01*
X76008513Y-50581444D01*
X75977138Y-50900000D01*
X72710000Y-50900000D01*
X72710000Y-45900000D01*
X75977138Y-45900000D01*
X76008513Y-46218556D01*
X76101432Y-46524869D01*
X76252325Y-46807170D01*
X76455392Y-47054608D01*
X76702830Y-47257675D01*
X76985131Y-47408568D01*
X77291444Y-47501487D01*
X77530176Y-47525000D01*
X79669824Y-47525000D01*
X79908556Y-47501487D01*
X80214869Y-47408568D01*
X80497170Y-47257675D01*
X80744608Y-47054608D01*
X80947675Y-46807170D01*
X81098568Y-46524869D01*
X81191487Y-46218556D01*
X81222862Y-45900000D01*
X81191487Y-45581444D01*
X81098568Y-45275131D01*
X80947675Y-44992830D01*
X80744608Y-44745392D01*
X80497170Y-44542325D01*
X80214869Y-44391432D01*
X79908556Y-44298513D01*
X79669824Y-44275000D01*
X77530176Y-44275000D01*
X77291444Y-44298513D01*
X76985131Y-44391432D01*
X76702830Y-44542325D01*
X76455392Y-44745392D01*
X76252325Y-44992830D01*
X76101432Y-45275131D01*
X76008513Y-45581444D01*
X75977138Y-45900000D01*
X72710000Y-45900000D01*
X72710000Y-35978985D01*
X73021161Y-36444670D01*
X73555330Y-36978839D01*
X74183446Y-37398533D01*
X74881372Y-37687623D01*
X75622285Y-37835000D01*
X76377715Y-37835000D01*
X77118628Y-37687623D01*
X77816554Y-37398533D01*
X78444670Y-36978839D01*
X78978839Y-36444670D01*
X79398533Y-35816554D01*
X79687623Y-35118628D01*
X79835000Y-34377715D01*
X79835000Y-33622285D01*
X79687623Y-32881372D01*
X79398533Y-32183446D01*
X78978839Y-31555330D01*
X78444670Y-31021161D01*
X77978985Y-30710000D01*
X103923000Y-30710000D01*
X103923000Y-32338083D01*
%TA.AperFunction,Conductor*%
D26*
G36*
X103923000Y-32338083D02*
G01*
X103840256Y-32282795D01*
X103651898Y-32204774D01*
X103451939Y-32165000D01*
X103248061Y-32165000D01*
X103048102Y-32204774D01*
X102859744Y-32282795D01*
X102690226Y-32396063D01*
X102546063Y-32540226D01*
X102432795Y-32709744D01*
X102354774Y-32898102D01*
X102315000Y-33098061D01*
X102315000Y-33301939D01*
X102354774Y-33501898D01*
X102432795Y-33690256D01*
X102546063Y-33859774D01*
X102690226Y-34003937D01*
X102859744Y-34117205D01*
X103048102Y-34195226D01*
X103248061Y-34235000D01*
X103451939Y-34235000D01*
X103651898Y-34195226D01*
X103840256Y-34117205D01*
X103923000Y-34061917D01*
X103923000Y-37731171D01*
X103878937Y-37665226D01*
X103734774Y-37521063D01*
X103565256Y-37407795D01*
X103376898Y-37329774D01*
X103176939Y-37290000D01*
X102973061Y-37290000D01*
X102773102Y-37329774D01*
X102584744Y-37407795D01*
X102415226Y-37521063D01*
X102271063Y-37665226D01*
X102157795Y-37834744D01*
X102079774Y-38023102D01*
X102040000Y-38223061D01*
X102040000Y-38426939D01*
X102079774Y-38626898D01*
X102157795Y-38815256D01*
X102271063Y-38984774D01*
X102415226Y-39128937D01*
X102584744Y-39242205D01*
X102773102Y-39320226D01*
X102973061Y-39360000D01*
X103176939Y-39360000D01*
X103376898Y-39320226D01*
X103565256Y-39242205D01*
X103670162Y-39172109D01*
X103665000Y-39198061D01*
X103665000Y-39401939D01*
X103704774Y-39601898D01*
X103782795Y-39790256D01*
X103789306Y-39800000D01*
X103782795Y-39809744D01*
X103704774Y-39998102D01*
X103665000Y-40198061D01*
X103665000Y-40401939D01*
X103704774Y-40601898D01*
X103782795Y-40790256D01*
X103896063Y-40959774D01*
X103923000Y-40986711D01*
X103923000Y-45659289D01*
X103859774Y-45596063D01*
X103690256Y-45482795D01*
X103501898Y-45404774D01*
X103301939Y-45365000D01*
X103098061Y-45365000D01*
X102898102Y-45404774D01*
X102709744Y-45482795D01*
X102540226Y-45596063D01*
X102396063Y-45740226D01*
X102282795Y-45909744D01*
X102204774Y-46098102D01*
X102165000Y-46298061D01*
X102165000Y-46501939D01*
X102204774Y-46701898D01*
X102282795Y-46890256D01*
X102396063Y-47059774D01*
X102540226Y-47203937D01*
X102709744Y-47317205D01*
X102898102Y-47395226D01*
X103098061Y-47435000D01*
X103301939Y-47435000D01*
X103501898Y-47395226D01*
X103690256Y-47317205D01*
X103859774Y-47203937D01*
X103923000Y-47140711D01*
X103923000Y-58965000D01*
X103798061Y-58965000D01*
X103598102Y-59004774D01*
X103409744Y-59082795D01*
X103240226Y-59196063D01*
X103096063Y-59340226D01*
X102982795Y-59509744D01*
X102904774Y-59698102D01*
X102865000Y-59898061D01*
X102865000Y-60101939D01*
X102904774Y-60301898D01*
X102982795Y-60490256D01*
X103096063Y-60659774D01*
X103240226Y-60803937D01*
X103409744Y-60917205D01*
X103598102Y-60995226D01*
X103798061Y-61035000D01*
X103824843Y-61035000D01*
X103923000Y-61133157D01*
X103923000Y-64250000D01*
X103925440Y-64274776D01*
X103932667Y-64298601D01*
X103944403Y-64320557D01*
X103960197Y-64339803D01*
X103979443Y-64355597D01*
X104001399Y-64367333D01*
X104025224Y-64374560D01*
X104051245Y-64376994D01*
X104664991Y-64370977D01*
X104664991Y-64910611D01*
X98152603Y-71423000D01*
X84127000Y-71423000D01*
X84127000Y-61500000D01*
X84124560Y-61475224D01*
X84117333Y-61451399D01*
X84105597Y-61429443D01*
X84089803Y-61410197D01*
X84070557Y-61394403D01*
X84048601Y-61382667D01*
X84024776Y-61375440D01*
X84000000Y-61373000D01*
X72710000Y-61373000D01*
X72710000Y-54910000D01*
X75981928Y-54910000D01*
X75981928Y-56890000D01*
X75994188Y-57014482D01*
X76030498Y-57134180D01*
X76089463Y-57244494D01*
X76168815Y-57341185D01*
X76265506Y-57420537D01*
X76375820Y-57479502D01*
X76495518Y-57515812D01*
X76620000Y-57528072D01*
X80580000Y-57528072D01*
X80704482Y-57515812D01*
X80824180Y-57479502D01*
X80934494Y-57420537D01*
X81031185Y-57341185D01*
X81110537Y-57244494D01*
X81169502Y-57134180D01*
X81205812Y-57014482D01*
X81218072Y-56890000D01*
X81218072Y-54910000D01*
X81205812Y-54785518D01*
X81169502Y-54665820D01*
X81110537Y-54555506D01*
X81031185Y-54458815D01*
X80934494Y-54379463D01*
X80824180Y-54320498D01*
X80704482Y-54284188D01*
X80580000Y-54271928D01*
X76620000Y-54271928D01*
X76495518Y-54284188D01*
X76375820Y-54320498D01*
X76265506Y-54379463D01*
X76168815Y-54458815D01*
X76089463Y-54555506D01*
X76030498Y-54665820D01*
X75994188Y-54785518D01*
X75981928Y-54910000D01*
X72710000Y-54910000D01*
X72710000Y-50900000D01*
X75977138Y-50900000D01*
X76008513Y-51218556D01*
X76101432Y-51524869D01*
X76252325Y-51807170D01*
X76455392Y-52054608D01*
X76702830Y-52257675D01*
X76985131Y-52408568D01*
X77291444Y-52501487D01*
X77530176Y-52525000D01*
X79669824Y-52525000D01*
X79908556Y-52501487D01*
X80214869Y-52408568D01*
X80497170Y-52257675D01*
X80744608Y-52054608D01*
X80947675Y-51807170D01*
X81098568Y-51524869D01*
X81191487Y-51218556D01*
X81222862Y-50900000D01*
X81191487Y-50581444D01*
X81098568Y-50275131D01*
X80947675Y-49992830D01*
X80744608Y-49745392D01*
X80497170Y-49542325D01*
X80214869Y-49391432D01*
X79908556Y-49298513D01*
X79669824Y-49275000D01*
X77530176Y-49275000D01*
X77291444Y-49298513D01*
X76985131Y-49391432D01*
X76702830Y-49542325D01*
X76455392Y-49745392D01*
X76252325Y-49992830D01*
X76101432Y-50275131D01*
X76008513Y-50581444D01*
X75977138Y-50900000D01*
X72710000Y-50900000D01*
X72710000Y-45900000D01*
X75977138Y-45900000D01*
X76008513Y-46218556D01*
X76101432Y-46524869D01*
X76252325Y-46807170D01*
X76455392Y-47054608D01*
X76702830Y-47257675D01*
X76985131Y-47408568D01*
X77291444Y-47501487D01*
X77530176Y-47525000D01*
X79669824Y-47525000D01*
X79908556Y-47501487D01*
X80214869Y-47408568D01*
X80497170Y-47257675D01*
X80744608Y-47054608D01*
X80947675Y-46807170D01*
X81098568Y-46524869D01*
X81191487Y-46218556D01*
X81222862Y-45900000D01*
X81191487Y-45581444D01*
X81098568Y-45275131D01*
X80947675Y-44992830D01*
X80744608Y-44745392D01*
X80497170Y-44542325D01*
X80214869Y-44391432D01*
X79908556Y-44298513D01*
X79669824Y-44275000D01*
X77530176Y-44275000D01*
X77291444Y-44298513D01*
X76985131Y-44391432D01*
X76702830Y-44542325D01*
X76455392Y-44745392D01*
X76252325Y-44992830D01*
X76101432Y-45275131D01*
X76008513Y-45581444D01*
X75977138Y-45900000D01*
X72710000Y-45900000D01*
X72710000Y-35978985D01*
X73021161Y-36444670D01*
X73555330Y-36978839D01*
X74183446Y-37398533D01*
X74881372Y-37687623D01*
X75622285Y-37835000D01*
X76377715Y-37835000D01*
X77118628Y-37687623D01*
X77816554Y-37398533D01*
X78444670Y-36978839D01*
X78978839Y-36444670D01*
X79398533Y-35816554D01*
X79687623Y-35118628D01*
X79835000Y-34377715D01*
X79835000Y-33622285D01*
X79687623Y-32881372D01*
X79398533Y-32183446D01*
X78978839Y-31555330D01*
X78444670Y-31021161D01*
X77978985Y-30710000D01*
X103923000Y-30710000D01*
X103923000Y-32338083D01*
G37*
%TD.AperFunction*%
D25*
X111573000Y-67989844D02*
X110963628Y-68599216D01*
X110942795Y-68538912D01*
X110849814Y-68364956D01*
X110585413Y-68269192D01*
X109629605Y-69225000D01*
X109643748Y-69239143D01*
X109464143Y-69418748D01*
X109450000Y-69404605D01*
X109435858Y-69418748D01*
X109256253Y-69239143D01*
X109270395Y-69225000D01*
X108314587Y-68269192D01*
X108163519Y-68323908D01*
X108228754Y-68201860D01*
X108262812Y-68089587D01*
X108494192Y-68089587D01*
X109450000Y-69045395D01*
X110405808Y-68089587D01*
X110310044Y-67825186D01*
X110020429Y-67684296D01*
X109708892Y-67602616D01*
X109387405Y-67583282D01*
X109068325Y-67627039D01*
X108763912Y-67732205D01*
X108589956Y-67825186D01*
X108494192Y-68089587D01*
X108262812Y-68089587D01*
X108273642Y-68053887D01*
X108281331Y-67975812D01*
X108285000Y-67938561D01*
X108285000Y-67938556D01*
X108288797Y-67900000D01*
X108285000Y-67861445D01*
X108285000Y-64335486D01*
X111573000Y-64303251D01*
X111573000Y-67989844D01*
%TA.AperFunction,Conductor*%
D26*
G36*
X111573000Y-67989844D02*
G01*
X110963628Y-68599216D01*
X110942795Y-68538912D01*
X110849814Y-68364956D01*
X110585413Y-68269192D01*
X109629605Y-69225000D01*
X109643748Y-69239143D01*
X109464143Y-69418748D01*
X109450000Y-69404605D01*
X109435858Y-69418748D01*
X109256253Y-69239143D01*
X109270395Y-69225000D01*
X108314587Y-68269192D01*
X108163519Y-68323908D01*
X108228754Y-68201860D01*
X108262812Y-68089587D01*
X108494192Y-68089587D01*
X109450000Y-69045395D01*
X110405808Y-68089587D01*
X110310044Y-67825186D01*
X110020429Y-67684296D01*
X109708892Y-67602616D01*
X109387405Y-67583282D01*
X109068325Y-67627039D01*
X108763912Y-67732205D01*
X108589956Y-67825186D01*
X108494192Y-68089587D01*
X108262812Y-68089587D01*
X108273642Y-68053887D01*
X108281331Y-67975812D01*
X108285000Y-67938561D01*
X108285000Y-67938556D01*
X108288797Y-67900000D01*
X108285000Y-67861445D01*
X108285000Y-64335486D01*
X111573000Y-64303251D01*
X111573000Y-67989844D01*
G37*
%TD.AperFunction*%
%TD*%
M02*
