%TF.GenerationSoftware,KiCad,Pcbnew,5.1.9-73d0e3b20d~88~ubuntu20.04.1*%
%TF.CreationDate,2021-01-12T21:49:49+00:00*%
%TF.ProjectId,driva-x2,64726976-612d-4783-922e-6b696361645f,rev?*%
%TF.SameCoordinates,Original*%
%TF.FileFunction,Soldermask,Bot*%
%TF.FilePolarity,Negative*%
%FSLAX46Y46*%
G04 Gerber Fmt 4.6, Leading zero omitted, Abs format (unit mm)*
G04 Created by KiCad (PCBNEW 5.1.9-73d0e3b20d~88~ubuntu20.04.1) date 2021-01-12 21:49:49*
%MOMM*%
%LPD*%
G01*
G04 APERTURE LIST*
%ADD10R,2.000000X2.000000*%
%ADD11C,2.000000*%
%ADD12C,6.400000*%
%ADD13C,0.800000*%
%ADD14O,1.700000X1.700000*%
%ADD15R,1.700000X1.700000*%
%ADD16O,1.050000X1.900000*%
%ADD17O,3.960000X1.980000*%
%ADD18R,3.960000X1.980000*%
%ADD19R,1.980000X3.960000*%
%ADD20O,1.980000X3.960000*%
G04 APERTURE END LIST*
D10*
%TO.C,C11*%
X114450000Y-69225000D03*
D11*
X109450000Y-69225000D03*
%TD*%
D12*
%TO.C,H1*%
X76000000Y-34000000D03*
D13*
X78400000Y-34000000D03*
X77697056Y-35697056D03*
X76000000Y-36400000D03*
X74302944Y-35697056D03*
X73600000Y-34000000D03*
X74302944Y-32302944D03*
X76000000Y-31600000D03*
X77697056Y-32302944D03*
%TD*%
%TO.C,H2*%
X149697056Y-32302944D03*
X148000000Y-31600000D03*
X146302944Y-32302944D03*
X145600000Y-34000000D03*
X146302944Y-35697056D03*
X148000000Y-36400000D03*
X149697056Y-35697056D03*
X150400000Y-34000000D03*
D12*
X148000000Y-34000000D03*
%TD*%
%TO.C,H3*%
X148000000Y-105800000D03*
D13*
X150400000Y-105800000D03*
X149697056Y-107497056D03*
X148000000Y-108200000D03*
X146302944Y-107497056D03*
X145600000Y-105800000D03*
X146302944Y-104102944D03*
X148000000Y-103400000D03*
X149697056Y-104102944D03*
%TD*%
%TO.C,H4*%
X77897056Y-104102944D03*
X76200000Y-103400000D03*
X74502944Y-104102944D03*
X73800000Y-105800000D03*
X74502944Y-107497056D03*
X76200000Y-108200000D03*
X77897056Y-107497056D03*
X78600000Y-105800000D03*
D12*
X76200000Y-105800000D03*
%TD*%
D14*
%TO.C,J1*%
X75000000Y-76660000D03*
X75000000Y-74120000D03*
X75000000Y-71580000D03*
X75000000Y-69040000D03*
D15*
X75000000Y-66500000D03*
%TD*%
%TO.C,J2*%
X120900000Y-106600000D03*
D14*
X123440000Y-106600000D03*
X125980000Y-106600000D03*
X128520000Y-106600000D03*
%TD*%
D16*
%TO.C,J3*%
X109225000Y-106600000D03*
X116375000Y-106600000D03*
%TD*%
D17*
%TO.C,J4*%
X78600000Y-45900000D03*
X78600000Y-50900000D03*
D18*
X78600000Y-55900000D03*
%TD*%
D15*
%TO.C,J5*%
X133520000Y-106600000D03*
D14*
X136060000Y-106600000D03*
X138600000Y-106600000D03*
X141140000Y-106600000D03*
%TD*%
D18*
%TO.C,J6*%
X145700000Y-55900000D03*
D17*
X145700000Y-50900000D03*
X145700000Y-45900000D03*
%TD*%
D14*
%TO.C,J7*%
X75000000Y-96000000D03*
X75000000Y-93460000D03*
X75000000Y-90920000D03*
X75000000Y-88380000D03*
X75000000Y-85840000D03*
D15*
X75000000Y-83300000D03*
%TD*%
%TO.C,J8*%
X149200000Y-95800000D03*
D14*
X149200000Y-93260000D03*
X149200000Y-90720000D03*
X149200000Y-88180000D03*
X149200000Y-85640000D03*
X149200000Y-83100000D03*
%TD*%
D15*
%TO.C,J9*%
X149200000Y-76620000D03*
D14*
X149200000Y-74080000D03*
X149200000Y-71540000D03*
X149200000Y-69000000D03*
X149200000Y-66460000D03*
%TD*%
%TO.C,J10*%
X90420000Y-106300000D03*
X87880000Y-106300000D03*
X85340000Y-106300000D03*
D15*
X82800000Y-106300000D03*
%TD*%
D19*
%TO.C,J11*%
X110000000Y-36400000D03*
D20*
X115000000Y-36400000D03*
%TD*%
M02*
