%TF.GenerationSoftware,KiCad,Pcbnew,5.1.9-73d0e3b20d~88~ubuntu20.04.1*%
%TF.CreationDate,2021-02-13T15:49:50+00:00*%
%TF.ProjectId,driva-x2,64726976-612d-4783-922e-6b696361645f,rev?*%
%TF.SameCoordinates,Original*%
%TF.FileFunction,Legend,Top*%
%TF.FilePolarity,Positive*%
%FSLAX46Y46*%
G04 Gerber Fmt 4.6, Leading zero omitted, Abs format (unit mm)*
G04 Created by KiCad (PCBNEW 5.1.9-73d0e3b20d~88~ubuntu20.04.1) date 2021-02-13 15:49:50*
%MOMM*%
%LPD*%
G01*
G04 APERTURE LIST*
%ADD10C,0.120000*%
%ADD11C,0.150000*%
%ADD12C,0.300000*%
G04 APERTURE END LIST*
D10*
X78030116Y-75450000D02*
G75*
G03*
X78030116Y-75450000I-430116J0D01*
G01*
D11*
X105069047Y-56171428D02*
X105830952Y-56171428D01*
X105450000Y-56552380D02*
X105450000Y-55790476D01*
X121819047Y-47521428D02*
X122580952Y-47521428D01*
X122200000Y-47902380D02*
X122200000Y-47140476D01*
D12*
X81550000Y-75659523D02*
X81764285Y-75754761D01*
X82121428Y-75754761D01*
X82264285Y-75659523D01*
X82335714Y-75564285D01*
X82407142Y-75373809D01*
X82407142Y-75183333D01*
X82335714Y-74992857D01*
X82264285Y-74897619D01*
X82121428Y-74802380D01*
X81835714Y-74707142D01*
X81692857Y-74611904D01*
X81621428Y-74516666D01*
X81550000Y-74326190D01*
X81550000Y-74135714D01*
X81621428Y-73945238D01*
X81692857Y-73850000D01*
X81835714Y-73754761D01*
X82192857Y-73754761D01*
X82407142Y-73850000D01*
X83050000Y-75754761D02*
X83050000Y-74421428D01*
X83050000Y-73754761D02*
X82978571Y-73850000D01*
X83050000Y-73945238D01*
X83121428Y-73850000D01*
X83050000Y-73754761D01*
X83050000Y-73945238D01*
X83764285Y-75754761D02*
X83764285Y-74421428D01*
X83764285Y-74611904D02*
X83835714Y-74516666D01*
X83978571Y-74421428D01*
X84192857Y-74421428D01*
X84335714Y-74516666D01*
X84407142Y-74707142D01*
X84407142Y-75754761D01*
X84407142Y-74707142D02*
X84478571Y-74516666D01*
X84621428Y-74421428D01*
X84835714Y-74421428D01*
X84978571Y-74516666D01*
X85050000Y-74707142D01*
X85050000Y-75754761D01*
X85764285Y-74421428D02*
X85764285Y-76421428D01*
X85764285Y-74516666D02*
X85907142Y-74421428D01*
X86192857Y-74421428D01*
X86335714Y-74516666D01*
X86407142Y-74611904D01*
X86478571Y-74802380D01*
X86478571Y-75373809D01*
X86407142Y-75564285D01*
X86335714Y-75659523D01*
X86192857Y-75754761D01*
X85907142Y-75754761D01*
X85764285Y-75659523D01*
X87335714Y-75754761D02*
X87192857Y-75659523D01*
X87121428Y-75469047D01*
X87121428Y-73754761D01*
X88478571Y-75659523D02*
X88335714Y-75754761D01*
X88050000Y-75754761D01*
X87907142Y-75659523D01*
X87835714Y-75469047D01*
X87835714Y-74707142D01*
X87907142Y-74516666D01*
X88050000Y-74421428D01*
X88335714Y-74421428D01*
X88478571Y-74516666D01*
X88550000Y-74707142D01*
X88550000Y-74897619D01*
X87835714Y-75088095D01*
X89692857Y-74707142D02*
X89192857Y-74707142D01*
X89192857Y-75754761D02*
X89192857Y-73754761D01*
X89907142Y-73754761D01*
X90764285Y-73754761D02*
X91050000Y-73754761D01*
X91192857Y-73850000D01*
X91335714Y-74040476D01*
X91407142Y-74421428D01*
X91407142Y-75088095D01*
X91335714Y-75469047D01*
X91192857Y-75659523D01*
X91050000Y-75754761D01*
X90764285Y-75754761D01*
X90621428Y-75659523D01*
X90478571Y-75469047D01*
X90407142Y-75088095D01*
X90407142Y-74421428D01*
X90478571Y-74040476D01*
X90621428Y-73850000D01*
X90764285Y-73754761D01*
X92907142Y-75564285D02*
X92835714Y-75659523D01*
X92621428Y-75754761D01*
X92478571Y-75754761D01*
X92264285Y-75659523D01*
X92121428Y-75469047D01*
X92050000Y-75278571D01*
X91978571Y-74897619D01*
X91978571Y-74611904D01*
X92050000Y-74230952D01*
X92121428Y-74040476D01*
X92264285Y-73850000D01*
X92478571Y-73754761D01*
X92621428Y-73754761D01*
X92835714Y-73850000D01*
X92907142Y-73945238D01*
X78657142Y-79054761D02*
X78657142Y-77054761D01*
X79014285Y-77054761D01*
X79228571Y-77150000D01*
X79371428Y-77340476D01*
X79442857Y-77530952D01*
X79514285Y-77911904D01*
X79514285Y-78197619D01*
X79442857Y-78578571D01*
X79371428Y-78769047D01*
X79228571Y-78959523D01*
X79014285Y-79054761D01*
X78657142Y-79054761D01*
X80157142Y-79054761D02*
X80157142Y-77721428D01*
X80157142Y-78102380D02*
X80228571Y-77911904D01*
X80300000Y-77816666D01*
X80442857Y-77721428D01*
X80585714Y-77721428D01*
X81085714Y-79054761D02*
X81085714Y-77721428D01*
X81085714Y-77054761D02*
X81014285Y-77150000D01*
X81085714Y-77245238D01*
X81157142Y-77150000D01*
X81085714Y-77054761D01*
X81085714Y-77245238D01*
X81657142Y-77721428D02*
X82014285Y-79054761D01*
X82371428Y-77721428D01*
X83585714Y-79054761D02*
X83585714Y-78007142D01*
X83514285Y-77816666D01*
X83371428Y-77721428D01*
X83085714Y-77721428D01*
X82942857Y-77816666D01*
X83585714Y-78959523D02*
X83442857Y-79054761D01*
X83085714Y-79054761D01*
X82942857Y-78959523D01*
X82871428Y-78769047D01*
X82871428Y-78578571D01*
X82942857Y-78388095D01*
X83085714Y-78292857D01*
X83442857Y-78292857D01*
X83585714Y-78197619D01*
X85442857Y-79054761D02*
X85442857Y-77054761D01*
X85800000Y-77054761D01*
X86014285Y-77150000D01*
X86157142Y-77340476D01*
X86228571Y-77530952D01*
X86300000Y-77911904D01*
X86300000Y-78197619D01*
X86228571Y-78578571D01*
X86157142Y-78769047D01*
X86014285Y-78959523D01*
X85800000Y-79054761D01*
X85442857Y-79054761D01*
X87585714Y-77721428D02*
X87585714Y-79054761D01*
X86942857Y-77721428D02*
X86942857Y-78769047D01*
X87014285Y-78959523D01*
X87157142Y-79054761D01*
X87371428Y-79054761D01*
X87514285Y-78959523D01*
X87585714Y-78864285D01*
X88514285Y-79054761D02*
X88371428Y-78959523D01*
X88300000Y-78864285D01*
X88228571Y-78673809D01*
X88228571Y-78102380D01*
X88300000Y-77911904D01*
X88371428Y-77816666D01*
X88514285Y-77721428D01*
X88728571Y-77721428D01*
X88871428Y-77816666D01*
X88942857Y-77911904D01*
X89014285Y-78102380D01*
X89014285Y-78673809D01*
X88942857Y-78864285D01*
X88871428Y-78959523D01*
X88728571Y-79054761D01*
X88514285Y-79054761D01*
X90657142Y-77721428D02*
X91014285Y-79054761D01*
X91371428Y-77721428D01*
X92228571Y-77054761D02*
X92371428Y-77054761D01*
X92514285Y-77150000D01*
X92585714Y-77245238D01*
X92657142Y-77435714D01*
X92728571Y-77816666D01*
X92728571Y-78292857D01*
X92657142Y-78673809D01*
X92585714Y-78864285D01*
X92514285Y-78959523D01*
X92371428Y-79054761D01*
X92228571Y-79054761D01*
X92085714Y-78959523D01*
X92014285Y-78864285D01*
X91942857Y-78673809D01*
X91871428Y-78292857D01*
X91871428Y-77816666D01*
X91942857Y-77435714D01*
X92014285Y-77245238D01*
X92085714Y-77150000D01*
X92228571Y-77054761D01*
X93371428Y-78864285D02*
X93442857Y-78959523D01*
X93371428Y-79054761D01*
X93300000Y-78959523D01*
X93371428Y-78864285D01*
X93371428Y-79054761D01*
X94157142Y-79054761D02*
X94442857Y-79054761D01*
X94585714Y-78959523D01*
X94657142Y-78864285D01*
X94800000Y-78578571D01*
X94871428Y-78197619D01*
X94871428Y-77435714D01*
X94800000Y-77245238D01*
X94728571Y-77150000D01*
X94585714Y-77054761D01*
X94300000Y-77054761D01*
X94157142Y-77150000D01*
X94085714Y-77245238D01*
X94014285Y-77435714D01*
X94014285Y-77911904D01*
X94085714Y-78102380D01*
X94157142Y-78197619D01*
X94300000Y-78292857D01*
X94585714Y-78292857D01*
X94728571Y-78197619D01*
X94800000Y-78102380D01*
X94871428Y-77911904D01*
X95514285Y-78864285D02*
X95585714Y-78959523D01*
X95514285Y-79054761D01*
X95442857Y-78959523D01*
X95514285Y-78864285D01*
X95514285Y-79054761D01*
X97014285Y-79054761D02*
X96157142Y-79054761D01*
X96585714Y-79054761D02*
X96585714Y-77054761D01*
X96442857Y-77340476D01*
X96300000Y-77530952D01*
X96157142Y-77626190D01*
D11*
X149923809Y-85652380D02*
X149923809Y-84652380D01*
X150352380Y-84747619D02*
X150400000Y-84700000D01*
X150495238Y-84652380D01*
X150733333Y-84652380D01*
X150828571Y-84700000D01*
X150876190Y-84747619D01*
X150923809Y-84842857D01*
X150923809Y-84938095D01*
X150876190Y-85080952D01*
X150304761Y-85652380D01*
X150923809Y-85652380D01*
X151923809Y-85557142D02*
X151876190Y-85604761D01*
X151733333Y-85652380D01*
X151638095Y-85652380D01*
X151495238Y-85604761D01*
X151400000Y-85509523D01*
X151352380Y-85414285D01*
X151304761Y-85223809D01*
X151304761Y-85080952D01*
X151352380Y-84890476D01*
X151400000Y-84795238D01*
X151495238Y-84700000D01*
X151638095Y-84652380D01*
X151733333Y-84652380D01*
X151876190Y-84700000D01*
X151923809Y-84747619D01*
X93138095Y-85602380D02*
X92871428Y-85126190D01*
X92680952Y-85602380D02*
X92680952Y-84602380D01*
X92985714Y-84602380D01*
X93061904Y-84650000D01*
X93100000Y-84697619D01*
X93138095Y-84792857D01*
X93138095Y-84935714D01*
X93100000Y-85030952D01*
X93061904Y-85078571D01*
X92985714Y-85126190D01*
X92680952Y-85126190D01*
X93480952Y-85078571D02*
X93747619Y-85078571D01*
X93861904Y-85602380D02*
X93480952Y-85602380D01*
X93480952Y-84602380D01*
X93861904Y-84602380D01*
X94166666Y-85554761D02*
X94280952Y-85602380D01*
X94471428Y-85602380D01*
X94547619Y-85554761D01*
X94585714Y-85507142D01*
X94623809Y-85411904D01*
X94623809Y-85316666D01*
X94585714Y-85221428D01*
X94547619Y-85173809D01*
X94471428Y-85126190D01*
X94319047Y-85078571D01*
X94242857Y-85030952D01*
X94204761Y-84983333D01*
X94166666Y-84888095D01*
X94166666Y-84792857D01*
X94204761Y-84697619D01*
X94242857Y-84650000D01*
X94319047Y-84602380D01*
X94509523Y-84602380D01*
X94623809Y-84650000D01*
X94966666Y-85078571D02*
X95233333Y-85078571D01*
X95347619Y-85602380D02*
X94966666Y-85602380D01*
X94966666Y-84602380D01*
X95347619Y-84602380D01*
X95576190Y-84602380D02*
X96033333Y-84602380D01*
X95804761Y-85602380D02*
X95804761Y-84602380D01*
X87164285Y-85028571D02*
X87278571Y-85076190D01*
X87316666Y-85123809D01*
X87354761Y-85219047D01*
X87354761Y-85361904D01*
X87316666Y-85457142D01*
X87278571Y-85504761D01*
X87202380Y-85552380D01*
X86897619Y-85552380D01*
X86897619Y-84552380D01*
X87164285Y-84552380D01*
X87240476Y-84600000D01*
X87278571Y-84647619D01*
X87316666Y-84742857D01*
X87316666Y-84838095D01*
X87278571Y-84933333D01*
X87240476Y-84980952D01*
X87164285Y-85028571D01*
X86897619Y-85028571D01*
X87850000Y-84552380D02*
X88002380Y-84552380D01*
X88078571Y-84600000D01*
X88154761Y-84695238D01*
X88192857Y-84885714D01*
X88192857Y-85219047D01*
X88154761Y-85409523D01*
X88078571Y-85504761D01*
X88002380Y-85552380D01*
X87850000Y-85552380D01*
X87773809Y-85504761D01*
X87697619Y-85409523D01*
X87659523Y-85219047D01*
X87659523Y-84885714D01*
X87697619Y-84695238D01*
X87773809Y-84600000D01*
X87850000Y-84552380D01*
X88688095Y-84552380D02*
X88840476Y-84552380D01*
X88916666Y-84600000D01*
X88992857Y-84695238D01*
X89030952Y-84885714D01*
X89030952Y-85219047D01*
X88992857Y-85409523D01*
X88916666Y-85504761D01*
X88840476Y-85552380D01*
X88688095Y-85552380D01*
X88611904Y-85504761D01*
X88535714Y-85409523D01*
X88497619Y-85219047D01*
X88497619Y-84885714D01*
X88535714Y-84695238D01*
X88611904Y-84600000D01*
X88688095Y-84552380D01*
X89259523Y-84552380D02*
X89716666Y-84552380D01*
X89488095Y-85552380D02*
X89488095Y-84552380D01*
X82628571Y-84552380D02*
X82628571Y-85361904D01*
X82666666Y-85457142D01*
X82704761Y-85504761D01*
X82780952Y-85552380D01*
X82933333Y-85552380D01*
X83009523Y-85504761D01*
X83047619Y-85457142D01*
X83085714Y-85361904D01*
X83085714Y-84552380D01*
X83428571Y-85504761D02*
X83542857Y-85552380D01*
X83733333Y-85552380D01*
X83809523Y-85504761D01*
X83847619Y-85457142D01*
X83885714Y-85361904D01*
X83885714Y-85266666D01*
X83847619Y-85171428D01*
X83809523Y-85123809D01*
X83733333Y-85076190D01*
X83580952Y-85028571D01*
X83504761Y-84980952D01*
X83466666Y-84933333D01*
X83428571Y-84838095D01*
X83428571Y-84742857D01*
X83466666Y-84647619D01*
X83504761Y-84600000D01*
X83580952Y-84552380D01*
X83771428Y-84552380D01*
X83885714Y-84600000D01*
X84228571Y-85028571D02*
X84495238Y-85028571D01*
X84609523Y-85552380D02*
X84228571Y-85552380D01*
X84228571Y-84552380D01*
X84609523Y-84552380D01*
X85409523Y-85552380D02*
X85142857Y-85076190D01*
X84952380Y-85552380D02*
X84952380Y-84552380D01*
X85257142Y-84552380D01*
X85333333Y-84600000D01*
X85371428Y-84647619D01*
X85409523Y-84742857D01*
X85409523Y-84885714D01*
X85371428Y-84980952D01*
X85333333Y-85028571D01*
X85257142Y-85076190D01*
X84952380Y-85076190D01*
X109990476Y-40352380D02*
X109990476Y-39352380D01*
X110371428Y-39352380D01*
X110466666Y-39400000D01*
X110514285Y-39447619D01*
X110561904Y-39542857D01*
X110561904Y-39685714D01*
X110514285Y-39780952D01*
X110466666Y-39828571D01*
X110371428Y-39876190D01*
X109990476Y-39876190D01*
X111180952Y-39352380D02*
X111371428Y-39352380D01*
X111466666Y-39400000D01*
X111561904Y-39495238D01*
X111609523Y-39685714D01*
X111609523Y-40019047D01*
X111561904Y-40209523D01*
X111466666Y-40304761D01*
X111371428Y-40352380D01*
X111180952Y-40352380D01*
X111085714Y-40304761D01*
X110990476Y-40209523D01*
X110942857Y-40019047D01*
X110942857Y-39685714D01*
X110990476Y-39495238D01*
X111085714Y-39400000D01*
X111180952Y-39352380D01*
X111942857Y-39352380D02*
X112180952Y-40352380D01*
X112371428Y-39638095D01*
X112561904Y-40352380D01*
X112800000Y-39352380D01*
X113180952Y-39828571D02*
X113514285Y-39828571D01*
X113657142Y-40352380D02*
X113180952Y-40352380D01*
X113180952Y-39352380D01*
X113657142Y-39352380D01*
X114657142Y-40352380D02*
X114323809Y-39876190D01*
X114085714Y-40352380D02*
X114085714Y-39352380D01*
X114466666Y-39352380D01*
X114561904Y-39400000D01*
X114609523Y-39447619D01*
X114657142Y-39542857D01*
X114657142Y-39685714D01*
X114609523Y-39780952D01*
X114561904Y-39828571D01*
X114466666Y-39876190D01*
X114085714Y-39876190D01*
X136778571Y-84302380D02*
X136778571Y-85111904D01*
X136826190Y-85207142D01*
X136873809Y-85254761D01*
X136969047Y-85302380D01*
X137159523Y-85302380D01*
X137254761Y-85254761D01*
X137302380Y-85207142D01*
X137350000Y-85111904D01*
X137350000Y-84302380D01*
X137778571Y-85254761D02*
X137921428Y-85302380D01*
X138159523Y-85302380D01*
X138254761Y-85254761D01*
X138302380Y-85207142D01*
X138350000Y-85111904D01*
X138350000Y-85016666D01*
X138302380Y-84921428D01*
X138254761Y-84873809D01*
X138159523Y-84826190D01*
X137969047Y-84778571D01*
X137873809Y-84730952D01*
X137826190Y-84683333D01*
X137778571Y-84588095D01*
X137778571Y-84492857D01*
X137826190Y-84397619D01*
X137873809Y-84350000D01*
X137969047Y-84302380D01*
X138207142Y-84302380D01*
X138350000Y-84350000D01*
X138730952Y-85016666D02*
X139207142Y-85016666D01*
X138635714Y-85302380D02*
X138969047Y-84302380D01*
X139302380Y-85302380D01*
X140207142Y-85302380D02*
X139873809Y-84826190D01*
X139635714Y-85302380D02*
X139635714Y-84302380D01*
X140016666Y-84302380D01*
X140111904Y-84350000D01*
X140159523Y-84397619D01*
X140207142Y-84492857D01*
X140207142Y-84635714D01*
X140159523Y-84730952D01*
X140111904Y-84778571D01*
X140016666Y-84826190D01*
X139635714Y-84826190D01*
X140492857Y-84302380D02*
X141064285Y-84302380D01*
X140778571Y-85302380D02*
X140778571Y-84302380D01*
X124964285Y-85302380D02*
X124964285Y-84302380D01*
X125345238Y-84302380D01*
X125440476Y-84350000D01*
X125488095Y-84397619D01*
X125535714Y-84492857D01*
X125535714Y-84635714D01*
X125488095Y-84730952D01*
X125440476Y-84778571D01*
X125345238Y-84826190D01*
X124964285Y-84826190D01*
X126535714Y-85302380D02*
X126202380Y-84826190D01*
X125964285Y-85302380D02*
X125964285Y-84302380D01*
X126345238Y-84302380D01*
X126440476Y-84350000D01*
X126488095Y-84397619D01*
X126535714Y-84492857D01*
X126535714Y-84635714D01*
X126488095Y-84730952D01*
X126440476Y-84778571D01*
X126345238Y-84826190D01*
X125964285Y-84826190D01*
X127154761Y-84302380D02*
X127345238Y-84302380D01*
X127440476Y-84350000D01*
X127535714Y-84445238D01*
X127583333Y-84635714D01*
X127583333Y-84969047D01*
X127535714Y-85159523D01*
X127440476Y-85254761D01*
X127345238Y-85302380D01*
X127154761Y-85302380D01*
X127059523Y-85254761D01*
X126964285Y-85159523D01*
X126916666Y-84969047D01*
X126916666Y-84635714D01*
X126964285Y-84445238D01*
X127059523Y-84350000D01*
X127154761Y-84302380D01*
X128535714Y-84350000D02*
X128440476Y-84302380D01*
X128297619Y-84302380D01*
X128154761Y-84350000D01*
X128059523Y-84445238D01*
X128011904Y-84540476D01*
X127964285Y-84730952D01*
X127964285Y-84873809D01*
X128011904Y-85064285D01*
X128059523Y-85159523D01*
X128154761Y-85254761D01*
X128297619Y-85302380D01*
X128392857Y-85302380D01*
X128535714Y-85254761D01*
X128583333Y-85207142D01*
X128583333Y-84873809D01*
X128392857Y-84873809D01*
X77657142Y-85507142D02*
X77609523Y-85554761D01*
X77466666Y-85602380D01*
X77371428Y-85602380D01*
X77228571Y-85554761D01*
X77133333Y-85459523D01*
X77085714Y-85364285D01*
X77038095Y-85173809D01*
X77038095Y-85030952D01*
X77085714Y-84840476D01*
X77133333Y-84745238D01*
X77228571Y-84650000D01*
X77371428Y-84602380D01*
X77466666Y-84602380D01*
X77609523Y-84650000D01*
X77657142Y-84697619D01*
X78038095Y-85316666D02*
X78514285Y-85316666D01*
X77942857Y-85602380D02*
X78276190Y-84602380D01*
X78609523Y-85602380D01*
X78942857Y-85602380D02*
X78942857Y-84602380D01*
X79514285Y-85602380D01*
X79514285Y-84602380D01*
X66000000Y-71004761D02*
X66142857Y-71052380D01*
X66380952Y-71052380D01*
X66476190Y-71004761D01*
X66523809Y-70957142D01*
X66571428Y-70861904D01*
X66571428Y-70766666D01*
X66523809Y-70671428D01*
X66476190Y-70623809D01*
X66380952Y-70576190D01*
X66190476Y-70528571D01*
X66095238Y-70480952D01*
X66047619Y-70433333D01*
X66000000Y-70338095D01*
X66000000Y-70242857D01*
X66047619Y-70147619D01*
X66095238Y-70100000D01*
X66190476Y-70052380D01*
X66428571Y-70052380D01*
X66571428Y-70100000D01*
X67000000Y-71052380D02*
X67000000Y-70052380D01*
X67380952Y-70052380D01*
X67476190Y-70100000D01*
X67523809Y-70147619D01*
X67571428Y-70242857D01*
X67571428Y-70385714D01*
X67523809Y-70480952D01*
X67476190Y-70528571D01*
X67380952Y-70576190D01*
X67000000Y-70576190D01*
X68000000Y-71052380D02*
X68000000Y-70052380D01*
X69000000Y-71052380D02*
X68428571Y-71052380D01*
X68714285Y-71052380D02*
X68714285Y-70052380D01*
X68619047Y-70195238D01*
X68523809Y-70290476D01*
X68428571Y-70338095D01*
X66300000Y-54452380D02*
X66300000Y-53452380D01*
X66300000Y-53928571D02*
X66871428Y-53928571D01*
X66871428Y-54452380D02*
X66871428Y-53452380D01*
X67300000Y-54166666D02*
X67776190Y-54166666D01*
X67204761Y-54452380D02*
X67538095Y-53452380D01*
X67871428Y-54452380D01*
X68680952Y-54452380D02*
X68204761Y-54452380D01*
X68204761Y-53452380D01*
X69490476Y-54452380D02*
X69014285Y-54452380D01*
X69014285Y-53452380D01*
X70347619Y-54452380D02*
X69776190Y-54452380D01*
X70061904Y-54452380D02*
X70061904Y-53452380D01*
X69966666Y-53595238D01*
X69871428Y-53690476D01*
X69776190Y-53738095D01*
X154200000Y-68704761D02*
X154342857Y-68752380D01*
X154580952Y-68752380D01*
X154676190Y-68704761D01*
X154723809Y-68657142D01*
X154771428Y-68561904D01*
X154771428Y-68466666D01*
X154723809Y-68371428D01*
X154676190Y-68323809D01*
X154580952Y-68276190D01*
X154390476Y-68228571D01*
X154295238Y-68180952D01*
X154247619Y-68133333D01*
X154200000Y-68038095D01*
X154200000Y-67942857D01*
X154247619Y-67847619D01*
X154295238Y-67800000D01*
X154390476Y-67752380D01*
X154628571Y-67752380D01*
X154771428Y-67800000D01*
X155200000Y-68752380D02*
X155200000Y-67752380D01*
X155580952Y-67752380D01*
X155676190Y-67800000D01*
X155723809Y-67847619D01*
X155771428Y-67942857D01*
X155771428Y-68085714D01*
X155723809Y-68180952D01*
X155676190Y-68228571D01*
X155580952Y-68276190D01*
X155200000Y-68276190D01*
X156200000Y-68752380D02*
X156200000Y-67752380D01*
X156580952Y-67752380D02*
X157200000Y-67752380D01*
X156866666Y-68133333D01*
X157009523Y-68133333D01*
X157104761Y-68180952D01*
X157152380Y-68228571D01*
X157200000Y-68323809D01*
X157200000Y-68561904D01*
X157152380Y-68657142D01*
X157104761Y-68704761D01*
X157009523Y-68752380D01*
X156723809Y-68752380D01*
X156628571Y-68704761D01*
X156580952Y-68657142D01*
X153900000Y-54952380D02*
X153900000Y-53952380D01*
X153900000Y-54428571D02*
X154471428Y-54428571D01*
X154471428Y-54952380D02*
X154471428Y-53952380D01*
X154900000Y-54666666D02*
X155376190Y-54666666D01*
X154804761Y-54952380D02*
X155138095Y-53952380D01*
X155471428Y-54952380D01*
X156280952Y-54952380D02*
X155804761Y-54952380D01*
X155804761Y-53952380D01*
X157090476Y-54952380D02*
X156614285Y-54952380D01*
X156614285Y-53952380D01*
X157376190Y-54047619D02*
X157423809Y-54000000D01*
X157519047Y-53952380D01*
X157757142Y-53952380D01*
X157852380Y-54000000D01*
X157900000Y-54047619D01*
X157947619Y-54142857D01*
X157947619Y-54238095D01*
X157900000Y-54380952D01*
X157328571Y-54952380D01*
X157947619Y-54952380D01*
X155385714Y-40852380D02*
X155385714Y-39852380D01*
X155719047Y-40566666D01*
X156052380Y-39852380D01*
X156052380Y-40852380D01*
X156719047Y-39852380D02*
X156909523Y-39852380D01*
X157004761Y-39900000D01*
X157100000Y-39995238D01*
X157147619Y-40185714D01*
X157147619Y-40519047D01*
X157100000Y-40709523D01*
X157004761Y-40804761D01*
X156909523Y-40852380D01*
X156719047Y-40852380D01*
X156623809Y-40804761D01*
X156528571Y-40709523D01*
X156480952Y-40519047D01*
X156480952Y-40185714D01*
X156528571Y-39995238D01*
X156623809Y-39900000D01*
X156719047Y-39852380D01*
X157433333Y-39852380D02*
X158004761Y-39852380D01*
X157719047Y-40852380D02*
X157719047Y-39852380D01*
X158290476Y-39947619D02*
X158338095Y-39900000D01*
X158433333Y-39852380D01*
X158671428Y-39852380D01*
X158766666Y-39900000D01*
X158814285Y-39947619D01*
X158861904Y-40042857D01*
X158861904Y-40138095D01*
X158814285Y-40280952D01*
X158242857Y-40852380D01*
X158861904Y-40852380D01*
X68985714Y-36052380D02*
X68985714Y-35052380D01*
X69319047Y-35766666D01*
X69652380Y-35052380D01*
X69652380Y-36052380D01*
X70319047Y-35052380D02*
X70509523Y-35052380D01*
X70604761Y-35100000D01*
X70700000Y-35195238D01*
X70747619Y-35385714D01*
X70747619Y-35719047D01*
X70700000Y-35909523D01*
X70604761Y-36004761D01*
X70509523Y-36052380D01*
X70319047Y-36052380D01*
X70223809Y-36004761D01*
X70128571Y-35909523D01*
X70080952Y-35719047D01*
X70080952Y-35385714D01*
X70128571Y-35195238D01*
X70223809Y-35100000D01*
X70319047Y-35052380D01*
X71033333Y-35052380D02*
X71604761Y-35052380D01*
X71319047Y-36052380D02*
X71319047Y-35052380D01*
X72461904Y-36052380D02*
X71890476Y-36052380D01*
X72176190Y-36052380D02*
X72176190Y-35052380D01*
X72080952Y-35195238D01*
X71985714Y-35290476D01*
X71890476Y-35338095D01*
X151866666Y-45052380D02*
X152200000Y-46052380D01*
X152533333Y-45052380D01*
X152014285Y-39552380D02*
X152014285Y-40361904D01*
X152061904Y-40457142D01*
X152109523Y-40504761D01*
X152204761Y-40552380D01*
X152395238Y-40552380D01*
X152490476Y-40504761D01*
X152538095Y-40457142D01*
X152585714Y-40361904D01*
X152585714Y-39552380D01*
X151971428Y-50252380D02*
X152209523Y-51252380D01*
X152400000Y-50538095D01*
X152590476Y-51252380D01*
X152828571Y-50252380D01*
X71171428Y-50452380D02*
X71409523Y-51452380D01*
X71600000Y-50738095D01*
X71790476Y-51452380D01*
X72028571Y-50452380D01*
X71366666Y-45052380D02*
X71700000Y-46052380D01*
X72033333Y-45052380D01*
X71214285Y-40252380D02*
X71214285Y-41061904D01*
X71261904Y-41157142D01*
X71309523Y-41204761D01*
X71404761Y-41252380D01*
X71595238Y-41252380D01*
X71690476Y-41204761D01*
X71738095Y-41157142D01*
X71785714Y-41061904D01*
X71785714Y-40252380D01*
D10*
%TO.C,U2*%
X77260000Y-79950000D02*
X77260000Y-76500000D01*
X77260000Y-79950000D02*
X77260000Y-81900000D01*
X72140000Y-79950000D02*
X72140000Y-78000000D01*
X72140000Y-79950000D02*
X72140000Y-81900000D01*
%TO.C,C21*%
X70660000Y-84507836D02*
X70660000Y-84292164D01*
X69940000Y-84507836D02*
X69940000Y-84292164D01*
%TO.C,JP1*%
X118750000Y-56600000D02*
X118750000Y-59400000D01*
X118750000Y-59400000D02*
X116750000Y-59400000D01*
X116750000Y-59400000D02*
X116750000Y-56600000D01*
X116750000Y-56600000D02*
X118750000Y-56600000D01*
%TO.C,C56*%
X90540000Y-55515580D02*
X90540000Y-55234420D01*
X91560000Y-55515580D02*
X91560000Y-55234420D01*
%TO.C,C55*%
X92040000Y-55465580D02*
X92040000Y-55184420D01*
X93060000Y-55465580D02*
X93060000Y-55184420D01*
%TO.C,C54*%
X83859420Y-57190000D02*
X84140580Y-57190000D01*
X83859420Y-58210000D02*
X84140580Y-58210000D01*
%TO.C,C51*%
X91340000Y-42940580D02*
X91340000Y-42659420D01*
X92360000Y-42940580D02*
X92360000Y-42659420D01*
%TO.C,C50*%
X92840000Y-42940580D02*
X92840000Y-42659420D01*
X93860000Y-42940580D02*
X93860000Y-42659420D01*
%TO.C,C49*%
X83759420Y-43740000D02*
X84040580Y-43740000D01*
X83759420Y-44760000D02*
X84040580Y-44760000D01*
%TO.C,C46*%
X93360000Y-32134420D02*
X93360000Y-32415580D01*
X92340000Y-32134420D02*
X92340000Y-32415580D01*
%TO.C,C45*%
X91860000Y-32134420D02*
X91860000Y-32415580D01*
X90840000Y-32134420D02*
X90840000Y-32415580D01*
%TO.C,C44*%
X83184420Y-30740000D02*
X83465580Y-30740000D01*
X83184420Y-31760000D02*
X83465580Y-31760000D01*
%TO.C,C38*%
X132360000Y-70234420D02*
X132360000Y-70515580D01*
X131340000Y-70234420D02*
X131340000Y-70515580D01*
%TO.C,C37*%
X130860000Y-70259420D02*
X130860000Y-70540580D01*
X129840000Y-70259420D02*
X129840000Y-70540580D01*
%TO.C,C36*%
X140520580Y-71310000D02*
X140239420Y-71310000D01*
X140520580Y-70290000D02*
X140239420Y-70290000D01*
%TO.C,C33*%
X131310000Y-58179420D02*
X131310000Y-58460580D01*
X130290000Y-58179420D02*
X130290000Y-58460580D01*
%TO.C,C32*%
X132810000Y-58159420D02*
X132810000Y-58440580D01*
X131790000Y-58159420D02*
X131790000Y-58440580D01*
%TO.C,C31*%
X140520580Y-57710000D02*
X140239420Y-57710000D01*
X140520580Y-56690000D02*
X140239420Y-56690000D01*
%TO.C,C28*%
X131285000Y-45159420D02*
X131285000Y-45440580D01*
X130265000Y-45159420D02*
X130265000Y-45440580D01*
%TO.C,C27*%
X132760000Y-45159420D02*
X132760000Y-45440580D01*
X131740000Y-45159420D02*
X131740000Y-45440580D01*
%TO.C,C26*%
X140460580Y-44610000D02*
X140179420Y-44610000D01*
X140460580Y-43590000D02*
X140179420Y-43590000D01*
%TO.C,R52*%
X149506359Y-83170000D02*
X149813641Y-83170000D01*
X149506359Y-83930000D02*
X149813641Y-83930000D01*
%TO.C,R51*%
X153756359Y-78970000D02*
X154063641Y-78970000D01*
X153756359Y-79730000D02*
X154063641Y-79730000D01*
%TO.C,R14*%
X73772936Y-83940000D02*
X75227064Y-83940000D01*
X73772936Y-85760000D02*
X75227064Y-85760000D01*
%TO.C,J11*%
X106400000Y-28200000D02*
X106400000Y-40800000D01*
X106400000Y-40800000D02*
X116750000Y-40800000D01*
X116750000Y-40800000D02*
X116750000Y-39850000D01*
X116750000Y-39850000D02*
X117250000Y-40100000D01*
X117250000Y-40100000D02*
X117250000Y-38200000D01*
X117250000Y-38200000D02*
X117250000Y-38150000D01*
X117250000Y-38150000D02*
X116750000Y-38400000D01*
X116750000Y-38400000D02*
X116750000Y-33000000D01*
X116750000Y-33000000D02*
X117250000Y-33300000D01*
X117250000Y-33300000D02*
X117250000Y-28200000D01*
X117250000Y-28200000D02*
X106400000Y-28200000D01*
%TO.C,R11*%
X98222500Y-87612742D02*
X98222500Y-88087258D01*
X97177500Y-87612742D02*
X97177500Y-88087258D01*
%TO.C,C60*%
X114859698Y-48165000D02*
X114859698Y-47365000D01*
X115259698Y-47765000D02*
X114459698Y-47765000D01*
X106769000Y-45983000D02*
X106769000Y-44917000D01*
X106809000Y-46218000D02*
X106809000Y-44682000D01*
X106849000Y-46398000D02*
X106849000Y-44502000D01*
X106889000Y-46548000D02*
X106889000Y-44352000D01*
X106929000Y-46679000D02*
X106929000Y-44221000D01*
X106969000Y-46796000D02*
X106969000Y-44104000D01*
X107009000Y-46903000D02*
X107009000Y-43997000D01*
X107049000Y-47002000D02*
X107049000Y-43898000D01*
X107089000Y-47095000D02*
X107089000Y-43805000D01*
X107129000Y-47181000D02*
X107129000Y-43719000D01*
X107169000Y-47263000D02*
X107169000Y-43637000D01*
X107209000Y-47340000D02*
X107209000Y-43560000D01*
X107249000Y-47414000D02*
X107249000Y-43486000D01*
X107289000Y-47484000D02*
X107289000Y-43416000D01*
X107329000Y-44410000D02*
X107329000Y-43348000D01*
X107329000Y-47552000D02*
X107329000Y-46490000D01*
X107369000Y-44410000D02*
X107369000Y-43284000D01*
X107369000Y-47616000D02*
X107369000Y-46490000D01*
X107409000Y-44410000D02*
X107409000Y-43222000D01*
X107409000Y-47678000D02*
X107409000Y-46490000D01*
X107449000Y-44410000D02*
X107449000Y-43163000D01*
X107449000Y-47737000D02*
X107449000Y-46490000D01*
X107489000Y-44410000D02*
X107489000Y-43105000D01*
X107489000Y-47795000D02*
X107489000Y-46490000D01*
X107529000Y-44410000D02*
X107529000Y-43050000D01*
X107529000Y-47850000D02*
X107529000Y-46490000D01*
X107569000Y-44410000D02*
X107569000Y-42996000D01*
X107569000Y-47904000D02*
X107569000Y-46490000D01*
X107609000Y-44410000D02*
X107609000Y-42945000D01*
X107609000Y-47955000D02*
X107609000Y-46490000D01*
X107649000Y-44410000D02*
X107649000Y-42894000D01*
X107649000Y-48006000D02*
X107649000Y-46490000D01*
X107689000Y-44410000D02*
X107689000Y-42846000D01*
X107689000Y-48054000D02*
X107689000Y-46490000D01*
X107729000Y-44410000D02*
X107729000Y-42799000D01*
X107729000Y-48101000D02*
X107729000Y-46490000D01*
X107769000Y-44410000D02*
X107769000Y-42753000D01*
X107769000Y-48147000D02*
X107769000Y-46490000D01*
X107809000Y-44410000D02*
X107809000Y-42709000D01*
X107809000Y-48191000D02*
X107809000Y-46490000D01*
X107849000Y-44410000D02*
X107849000Y-42666000D01*
X107849000Y-48234000D02*
X107849000Y-46490000D01*
X107889000Y-44410000D02*
X107889000Y-42624000D01*
X107889000Y-48276000D02*
X107889000Y-46490000D01*
X107929000Y-44410000D02*
X107929000Y-42583000D01*
X107929000Y-48317000D02*
X107929000Y-46490000D01*
X107969000Y-44410000D02*
X107969000Y-42543000D01*
X107969000Y-48357000D02*
X107969000Y-46490000D01*
X108009000Y-44410000D02*
X108009000Y-42505000D01*
X108009000Y-48395000D02*
X108009000Y-46490000D01*
X108049000Y-44410000D02*
X108049000Y-42467000D01*
X108049000Y-48433000D02*
X108049000Y-46490000D01*
X108089000Y-44410000D02*
X108089000Y-42431000D01*
X108089000Y-48469000D02*
X108089000Y-46490000D01*
X108129000Y-44410000D02*
X108129000Y-42395000D01*
X108129000Y-48505000D02*
X108129000Y-46490000D01*
X108169000Y-44410000D02*
X108169000Y-42360000D01*
X108169000Y-48540000D02*
X108169000Y-46490000D01*
X108209000Y-44410000D02*
X108209000Y-42326000D01*
X108209000Y-48574000D02*
X108209000Y-46490000D01*
X108249000Y-44410000D02*
X108249000Y-42294000D01*
X108249000Y-48606000D02*
X108249000Y-46490000D01*
X108289000Y-44410000D02*
X108289000Y-42261000D01*
X108289000Y-48639000D02*
X108289000Y-46490000D01*
X108329000Y-44410000D02*
X108329000Y-42230000D01*
X108329000Y-48670000D02*
X108329000Y-46490000D01*
X108369000Y-44410000D02*
X108369000Y-42200000D01*
X108369000Y-48700000D02*
X108369000Y-46490000D01*
X108409000Y-44410000D02*
X108409000Y-42170000D01*
X108409000Y-48730000D02*
X108409000Y-46490000D01*
X108449000Y-44410000D02*
X108449000Y-42141000D01*
X108449000Y-48759000D02*
X108449000Y-46490000D01*
X108489000Y-44410000D02*
X108489000Y-42112000D01*
X108489000Y-48788000D02*
X108489000Y-46490000D01*
X108529000Y-44410000D02*
X108529000Y-42085000D01*
X108529000Y-48815000D02*
X108529000Y-46490000D01*
X108569000Y-44410000D02*
X108569000Y-42058000D01*
X108569000Y-48842000D02*
X108569000Y-46490000D01*
X108609000Y-44410000D02*
X108609000Y-42032000D01*
X108609000Y-48868000D02*
X108609000Y-46490000D01*
X108649000Y-44410000D02*
X108649000Y-42006000D01*
X108649000Y-48894000D02*
X108649000Y-46490000D01*
X108689000Y-44410000D02*
X108689000Y-41981000D01*
X108689000Y-48919000D02*
X108689000Y-46490000D01*
X108729000Y-44410000D02*
X108729000Y-41957000D01*
X108729000Y-48943000D02*
X108729000Y-46490000D01*
X108769000Y-44410000D02*
X108769000Y-41933000D01*
X108769000Y-48967000D02*
X108769000Y-46490000D01*
X108809000Y-44410000D02*
X108809000Y-41910000D01*
X108809000Y-48990000D02*
X108809000Y-46490000D01*
X108849000Y-44410000D02*
X108849000Y-41888000D01*
X108849000Y-49012000D02*
X108849000Y-46490000D01*
X108889000Y-44410000D02*
X108889000Y-41866000D01*
X108889000Y-49034000D02*
X108889000Y-46490000D01*
X108929000Y-44410000D02*
X108929000Y-41844000D01*
X108929000Y-49056000D02*
X108929000Y-46490000D01*
X108969000Y-44410000D02*
X108969000Y-41823000D01*
X108969000Y-49077000D02*
X108969000Y-46490000D01*
X109009000Y-44410000D02*
X109009000Y-41803000D01*
X109009000Y-49097000D02*
X109009000Y-46490000D01*
X109049000Y-44410000D02*
X109049000Y-41784000D01*
X109049000Y-49116000D02*
X109049000Y-46490000D01*
X109089000Y-44410000D02*
X109089000Y-41764000D01*
X109089000Y-49136000D02*
X109089000Y-46490000D01*
X109129000Y-44410000D02*
X109129000Y-41746000D01*
X109129000Y-49154000D02*
X109129000Y-46490000D01*
X109169000Y-44410000D02*
X109169000Y-41728000D01*
X109169000Y-49172000D02*
X109169000Y-46490000D01*
X109209000Y-44410000D02*
X109209000Y-41710000D01*
X109209000Y-49190000D02*
X109209000Y-46490000D01*
X109249000Y-44410000D02*
X109249000Y-41693000D01*
X109249000Y-49207000D02*
X109249000Y-46490000D01*
X109289000Y-44410000D02*
X109289000Y-41676000D01*
X109289000Y-49224000D02*
X109289000Y-46490000D01*
X109329000Y-44410000D02*
X109329000Y-41660000D01*
X109329000Y-49240000D02*
X109329000Y-46490000D01*
X109369000Y-44410000D02*
X109369000Y-41645000D01*
X109369000Y-49255000D02*
X109369000Y-46490000D01*
X109409000Y-49271000D02*
X109409000Y-41629000D01*
X109449000Y-49285000D02*
X109449000Y-41615000D01*
X109489000Y-49300000D02*
X109489000Y-41600000D01*
X109529000Y-49313000D02*
X109529000Y-41587000D01*
X109569000Y-49327000D02*
X109569000Y-41573000D01*
X109609000Y-49339000D02*
X109609000Y-41561000D01*
X109649000Y-49352000D02*
X109649000Y-41548000D01*
X109689000Y-49364000D02*
X109689000Y-41536000D01*
X109729000Y-49375000D02*
X109729000Y-41525000D01*
X109769000Y-49386000D02*
X109769000Y-41514000D01*
X109809000Y-49397000D02*
X109809000Y-41503000D01*
X109849000Y-49407000D02*
X109849000Y-41493000D01*
X109889000Y-49417000D02*
X109889000Y-41483000D01*
X109929000Y-49426000D02*
X109929000Y-41474000D01*
X109969000Y-49435000D02*
X109969000Y-41465000D01*
X110009000Y-49444000D02*
X110009000Y-41456000D01*
X110049000Y-49452000D02*
X110049000Y-41448000D01*
X110089000Y-49460000D02*
X110089000Y-41440000D01*
X110129000Y-49467000D02*
X110129000Y-41433000D01*
X110170000Y-49474000D02*
X110170000Y-41426000D01*
X110210000Y-49480000D02*
X110210000Y-41420000D01*
X110250000Y-49487000D02*
X110250000Y-41413000D01*
X110290000Y-49492000D02*
X110290000Y-41408000D01*
X110330000Y-49498000D02*
X110330000Y-41402000D01*
X110370000Y-49502000D02*
X110370000Y-41398000D01*
X110410000Y-49507000D02*
X110410000Y-41393000D01*
X110450000Y-49511000D02*
X110450000Y-41389000D01*
X110490000Y-49515000D02*
X110490000Y-41385000D01*
X110530000Y-49518000D02*
X110530000Y-41382000D01*
X110570000Y-49521000D02*
X110570000Y-41379000D01*
X110610000Y-49524000D02*
X110610000Y-41376000D01*
X110650000Y-49526000D02*
X110650000Y-41374000D01*
X110690000Y-49527000D02*
X110690000Y-41373000D01*
X110730000Y-49529000D02*
X110730000Y-41371000D01*
X110770000Y-49530000D02*
X110770000Y-41370000D01*
X110810000Y-49530000D02*
X110810000Y-41370000D01*
X110850000Y-49530000D02*
X110850000Y-41370000D01*
X114970000Y-45450000D02*
G75*
G03*
X114970000Y-45450000I-4120000J0D01*
G01*
%TO.C,C11*%
X113692164Y-57460000D02*
X113907836Y-57460000D01*
X113692164Y-56740000D02*
X113907836Y-56740000D01*
%TO.C,C59*%
X117342164Y-53540000D02*
X117557836Y-53540000D01*
X117342164Y-54260000D02*
X117557836Y-54260000D01*
%TO.C,C12*%
X116360000Y-56372164D02*
X116360000Y-56587836D01*
X115640000Y-56372164D02*
X115640000Y-56587836D01*
%TO.C,U1*%
X112700000Y-56410000D02*
X115150000Y-56410000D01*
X114500000Y-53190000D02*
X112700000Y-53190000D01*
%TO.C,R50*%
X115620000Y-54156359D02*
X115620000Y-54463641D01*
X116380000Y-54156359D02*
X116380000Y-54463641D01*
%TO.C,R49*%
X117563641Y-54520000D02*
X117256359Y-54520000D01*
X117563641Y-55280000D02*
X117256359Y-55280000D01*
%TO.C,R48*%
X153746359Y-81730000D02*
X154053641Y-81730000D01*
X153746359Y-80970000D02*
X154053641Y-80970000D01*
%TO.C,R47*%
X145346359Y-82780000D02*
X145653641Y-82780000D01*
X145346359Y-82020000D02*
X145653641Y-82020000D01*
%TO.C,R46*%
X145346359Y-81180000D02*
X145653641Y-81180000D01*
X145346359Y-80420000D02*
X145653641Y-80420000D01*
%TO.C,R45*%
X110853641Y-53420000D02*
X110546359Y-53420000D01*
X110853641Y-54180000D02*
X110546359Y-54180000D01*
%TO.C,L1*%
X108640000Y-56897936D02*
X108640000Y-58102064D01*
X111360000Y-56897936D02*
X111360000Y-58102064D01*
%TO.C,J12*%
X144370000Y-88980000D02*
X144370000Y-87650000D01*
X145700000Y-88980000D02*
X144370000Y-88980000D01*
X146970000Y-88980000D02*
X146970000Y-86320000D01*
X146970000Y-86320000D02*
X154650000Y-86320000D01*
X146970000Y-88980000D02*
X154650000Y-88980000D01*
X154650000Y-88980000D02*
X154650000Y-86320000D01*
D11*
%TO.C,J3*%
X114800000Y-89700000D02*
X115800000Y-89700000D01*
X111200000Y-89700000D02*
X110200000Y-89700000D01*
X111200000Y-89275000D02*
X111200000Y-89700000D01*
X111925000Y-89275000D02*
X111200000Y-89275000D01*
X117150000Y-92850000D02*
X117150000Y-91450000D01*
X117150000Y-95400000D02*
X117150000Y-95250000D01*
X116850000Y-95400000D02*
X117150000Y-95400000D01*
X116850000Y-95850000D02*
X116850000Y-95400000D01*
X109150000Y-95400000D02*
X109150000Y-95850000D01*
X108850000Y-95400000D02*
X109150000Y-95400000D01*
X108850000Y-95250000D02*
X108850000Y-95400000D01*
X108850000Y-91450000D02*
X108850000Y-92850000D01*
D10*
%TO.C,D5*%
X106100000Y-56800000D02*
X106100000Y-52900000D01*
X108100000Y-56800000D02*
X108100000Y-52900000D01*
X106100000Y-56800000D02*
X108100000Y-56800000D01*
%TO.C,C61*%
X153272164Y-82710000D02*
X153487836Y-82710000D01*
X153272164Y-81990000D02*
X153487836Y-81990000D01*
%TO.C,C13*%
X109688748Y-53035000D02*
X110211252Y-53035000D01*
X109688748Y-51565000D02*
X110211252Y-51565000D01*
%TO.C,C1*%
X120060000Y-82615580D02*
X120060000Y-82334420D01*
X119040000Y-82615580D02*
X119040000Y-82334420D01*
%TO.C,C2*%
X114227836Y-66240000D02*
X114012164Y-66240000D01*
X114227836Y-66960000D02*
X114012164Y-66960000D01*
%TO.C,C3*%
X114227836Y-67960000D02*
X114012164Y-67960000D01*
X114227836Y-67240000D02*
X114012164Y-67240000D01*
%TO.C,C4*%
X115440000Y-82287836D02*
X115440000Y-82072164D01*
X116160000Y-82287836D02*
X116160000Y-82072164D01*
%TO.C,C5*%
X102040000Y-81157836D02*
X102040000Y-80942164D01*
X102760000Y-81157836D02*
X102760000Y-80942164D01*
%TO.C,C6*%
X118660000Y-82487836D02*
X118660000Y-82272164D01*
X117940000Y-82487836D02*
X117940000Y-82272164D01*
%TO.C,C7*%
X103040000Y-81157836D02*
X103040000Y-80942164D01*
X103760000Y-81157836D02*
X103760000Y-80942164D01*
%TO.C,C8*%
X105692164Y-69640000D02*
X105907836Y-69640000D01*
X105692164Y-70360000D02*
X105907836Y-70360000D01*
%TO.C,C9*%
X116440000Y-82287836D02*
X116440000Y-82072164D01*
X117160000Y-82287836D02*
X117160000Y-82072164D01*
%TO.C,C10*%
X105712164Y-69360000D02*
X105927836Y-69360000D01*
X105712164Y-68640000D02*
X105927836Y-68640000D01*
%TO.C,C14*%
X123587836Y-72140000D02*
X123372164Y-72140000D01*
X123587836Y-72860000D02*
X123372164Y-72860000D01*
%TO.C,C15*%
X123587836Y-71140000D02*
X123372164Y-71140000D01*
X123587836Y-71860000D02*
X123372164Y-71860000D01*
%TO.C,C16*%
X121440000Y-78027836D02*
X121440000Y-77812164D01*
X122160000Y-78027836D02*
X122160000Y-77812164D01*
%TO.C,C17*%
X125742164Y-75240000D02*
X125957836Y-75240000D01*
X125742164Y-75960000D02*
X125957836Y-75960000D01*
%TO.C,C18*%
X112790000Y-85162164D02*
X112790000Y-85377836D01*
X113510000Y-85162164D02*
X113510000Y-85377836D01*
%TO.C,C19*%
X74865580Y-76010000D02*
X74584420Y-76010000D01*
X74865580Y-74990000D02*
X74584420Y-74990000D01*
%TO.C,C20*%
X119242164Y-75890000D02*
X119457836Y-75890000D01*
X119242164Y-76610000D02*
X119457836Y-76610000D01*
%TO.C,C22*%
X105965580Y-67310000D02*
X105684420Y-67310000D01*
X105965580Y-66290000D02*
X105684420Y-66290000D01*
%TO.C,C23*%
X101540580Y-78590000D02*
X101259420Y-78590000D01*
X101540580Y-79610000D02*
X101259420Y-79610000D01*
%TO.C,C24*%
X112090000Y-62434420D02*
X112090000Y-62715580D01*
X113110000Y-62434420D02*
X113110000Y-62715580D01*
%TO.C,C25*%
X81440000Y-85107836D02*
X81440000Y-84892164D01*
X82160000Y-85107836D02*
X82160000Y-84892164D01*
%TO.C,C29*%
X131327836Y-39840000D02*
X131112164Y-39840000D01*
X131327836Y-40560000D02*
X131112164Y-40560000D01*
%TO.C,C30*%
X131327836Y-38840000D02*
X131112164Y-38840000D01*
X131327836Y-39560000D02*
X131112164Y-39560000D01*
%TO.C,C34*%
X131407836Y-52840000D02*
X131192164Y-52840000D01*
X131407836Y-53560000D02*
X131192164Y-53560000D01*
%TO.C,C35*%
X131407836Y-51560000D02*
X131192164Y-51560000D01*
X131407836Y-50840000D02*
X131192164Y-50840000D01*
%TO.C,C39*%
X131507836Y-67510000D02*
X131292164Y-67510000D01*
X131507836Y-66790000D02*
X131292164Y-66790000D01*
%TO.C,C40*%
X131507836Y-63790000D02*
X131292164Y-63790000D01*
X131507836Y-64510000D02*
X131292164Y-64510000D01*
%TO.C,C41*%
X153007836Y-77540000D02*
X152792164Y-77540000D01*
X153007836Y-78260000D02*
X152792164Y-78260000D01*
%TO.C,C42*%
X154007836Y-80710000D02*
X153792164Y-80710000D01*
X154007836Y-79990000D02*
X153792164Y-79990000D01*
%TO.C,C43*%
X145412164Y-79960000D02*
X145627836Y-79960000D01*
X145412164Y-79240000D02*
X145627836Y-79240000D01*
%TO.C,C47*%
X92292164Y-34840000D02*
X92507836Y-34840000D01*
X92292164Y-35560000D02*
X92507836Y-35560000D01*
%TO.C,C48*%
X92292164Y-38560000D02*
X92507836Y-38560000D01*
X92292164Y-37840000D02*
X92507836Y-37840000D01*
%TO.C,C52*%
X92342164Y-48090000D02*
X92557836Y-48090000D01*
X92342164Y-48810000D02*
X92557836Y-48810000D01*
%TO.C,C53*%
X92342164Y-50090000D02*
X92557836Y-50090000D01*
X92342164Y-50810000D02*
X92557836Y-50810000D01*
%TO.C,C57*%
X92372164Y-61260000D02*
X92587836Y-61260000D01*
X92372164Y-60540000D02*
X92587836Y-60540000D01*
%TO.C,C58*%
X92372164Y-64260000D02*
X92587836Y-64260000D01*
X92372164Y-63540000D02*
X92587836Y-63540000D01*
%TO.C,D1*%
X119400000Y-51600000D02*
X121400000Y-51600000D01*
X121400000Y-51600000D02*
X121400000Y-47700000D01*
X119400000Y-51600000D02*
X119400000Y-47700000D01*
%TO.C,D2*%
X100785000Y-88662500D02*
X100785000Y-86377500D01*
X100785000Y-86377500D02*
X99315000Y-86377500D01*
X99315000Y-86377500D02*
X99315000Y-88662500D01*
%TO.C,D3*%
X105065000Y-87050000D02*
X105065000Y-89335000D01*
X105065000Y-89335000D02*
X106535000Y-89335000D01*
X106535000Y-89335000D02*
X106535000Y-87050000D01*
%TO.C,D4*%
X103635000Y-89347500D02*
X103635000Y-87062500D01*
X102165000Y-89347500D02*
X103635000Y-89347500D01*
X102165000Y-87062500D02*
X102165000Y-89347500D01*
%TO.C,FB1*%
X115700378Y-51240000D02*
X116499622Y-51240000D01*
X115700378Y-52360000D02*
X116499622Y-52360000D01*
%TO.C,FB2*%
X123199622Y-69540000D02*
X122400378Y-69540000D01*
X123199622Y-70660000D02*
X122400378Y-70660000D01*
%TO.C,HSE1*%
X122400000Y-76250000D02*
X122400000Y-79550000D01*
X122400000Y-79550000D02*
X126400000Y-79550000D01*
%TO.C,J1*%
X62970000Y-53620000D02*
X64300000Y-53620000D01*
X62970000Y-54950000D02*
X62970000Y-53620000D01*
X62970000Y-56220000D02*
X65630000Y-56220000D01*
X65630000Y-56220000D02*
X65630000Y-66440000D01*
X62970000Y-56220000D02*
X62970000Y-66440000D01*
X62970000Y-66440000D02*
X65630000Y-66440000D01*
%TO.C,J2*%
X132150000Y-88980000D02*
X132150000Y-86320000D01*
X124470000Y-88980000D02*
X132150000Y-88980000D01*
X124470000Y-86320000D02*
X132150000Y-86320000D01*
X124470000Y-88980000D02*
X124470000Y-86320000D01*
X123200000Y-88980000D02*
X121870000Y-88980000D01*
X121870000Y-88980000D02*
X121870000Y-87650000D01*
%TO.C,J4*%
X60100000Y-37050000D02*
X60100000Y-52950000D01*
X65150000Y-37050000D02*
X60100000Y-37050000D01*
X64900000Y-37550000D02*
X65150000Y-37050000D01*
X70300000Y-37550000D02*
X64900000Y-37550000D01*
X70050000Y-37050000D02*
X70300000Y-37550000D01*
X72050000Y-37050000D02*
X70050000Y-37050000D01*
X71750000Y-37550000D02*
X72050000Y-37050000D01*
X72700000Y-37550000D02*
X71750000Y-37550000D01*
X72700000Y-52950000D02*
X72700000Y-37550000D01*
X60100000Y-52950000D02*
X72700000Y-52950000D01*
%TO.C,J5*%
X143400000Y-88980000D02*
X143400000Y-86320000D01*
X135720000Y-88980000D02*
X143400000Y-88980000D01*
X135720000Y-86320000D02*
X143400000Y-86320000D01*
X135720000Y-88980000D02*
X135720000Y-86320000D01*
X134450000Y-88980000D02*
X133120000Y-88980000D01*
X133120000Y-88980000D02*
X133120000Y-87650000D01*
%TO.C,J6*%
X151300000Y-52850000D02*
X163900000Y-52850000D01*
X163900000Y-52850000D02*
X163900000Y-37450000D01*
X163900000Y-37450000D02*
X162950000Y-37450000D01*
X162950000Y-37450000D02*
X163250000Y-36950000D01*
X163250000Y-36950000D02*
X161250000Y-36950000D01*
X161250000Y-36950000D02*
X161500000Y-37450000D01*
X161500000Y-37450000D02*
X156100000Y-37450000D01*
X156100000Y-37450000D02*
X156350000Y-36950000D01*
X156350000Y-36950000D02*
X151300000Y-36950000D01*
X151300000Y-36950000D02*
X151300000Y-52850000D01*
%TO.C,J7*%
X62970000Y-67420000D02*
X64300000Y-67420000D01*
X62970000Y-68750000D02*
X62970000Y-67420000D01*
X62970000Y-70020000D02*
X65630000Y-70020000D01*
X65630000Y-70020000D02*
X65630000Y-82780000D01*
X62970000Y-70020000D02*
X62970000Y-82780000D01*
X62970000Y-82780000D02*
X65630000Y-82780000D01*
%TO.C,J8*%
X161030000Y-67270000D02*
X158370000Y-67270000D01*
X161030000Y-80030000D02*
X161030000Y-67270000D01*
X158370000Y-80030000D02*
X158370000Y-67270000D01*
X161030000Y-80030000D02*
X158370000Y-80030000D01*
X161030000Y-81300000D02*
X161030000Y-82630000D01*
X161030000Y-82630000D02*
X159700000Y-82630000D01*
%TO.C,J9*%
X161030000Y-53510000D02*
X158370000Y-53510000D01*
X161030000Y-63730000D02*
X161030000Y-53510000D01*
X158370000Y-63730000D02*
X158370000Y-53510000D01*
X161030000Y-63730000D02*
X158370000Y-63730000D01*
X161030000Y-65000000D02*
X161030000Y-66330000D01*
X161030000Y-66330000D02*
X159700000Y-66330000D01*
%TO.C,J10*%
X69370000Y-89130000D02*
X69370000Y-87800000D01*
X70700000Y-89130000D02*
X69370000Y-89130000D01*
X71970000Y-89130000D02*
X71970000Y-86470000D01*
X71970000Y-86470000D02*
X79650000Y-86470000D01*
X71970000Y-89130000D02*
X79650000Y-89130000D01*
X79650000Y-89130000D02*
X79650000Y-86470000D01*
%TO.C,R1*%
X114196359Y-86620000D02*
X114503641Y-86620000D01*
X114196359Y-87380000D02*
X114503641Y-87380000D01*
%TO.C,R2*%
X113280000Y-87336359D02*
X113280000Y-87643641D01*
X112520000Y-87336359D02*
X112520000Y-87643641D01*
%TO.C,R3*%
X111520000Y-87356359D02*
X111520000Y-87663641D01*
X112280000Y-87356359D02*
X112280000Y-87663641D01*
%TO.C,R4*%
X66520000Y-62853641D02*
X66520000Y-62546359D01*
X67280000Y-62853641D02*
X67280000Y-62546359D01*
%TO.C,R5*%
X66520000Y-59436359D02*
X66520000Y-59743641D01*
X67280000Y-59436359D02*
X67280000Y-59743641D01*
%TO.C,R6*%
X66520000Y-57853641D02*
X66520000Y-57546359D01*
X67280000Y-57853641D02*
X67280000Y-57546359D01*
%TO.C,R7*%
X156720000Y-57846359D02*
X156720000Y-58153641D01*
X157480000Y-57846359D02*
X157480000Y-58153641D01*
%TO.C,R8*%
X156720000Y-60043641D02*
X156720000Y-59736359D01*
X157480000Y-60043641D02*
X157480000Y-59736359D01*
%TO.C,R9*%
X156720000Y-61646359D02*
X156720000Y-61953641D01*
X157480000Y-61646359D02*
X157480000Y-61953641D01*
%TO.C,R10*%
X123836359Y-75220000D02*
X124143641Y-75220000D01*
X123836359Y-75980000D02*
X124143641Y-75980000D01*
%TO.C,R12*%
X108820000Y-65046359D02*
X108820000Y-65353641D01*
X109580000Y-65046359D02*
X109580000Y-65353641D01*
%TO.C,R13*%
X91653641Y-85830000D02*
X91346359Y-85830000D01*
X91653641Y-85070000D02*
X91346359Y-85070000D01*
%TO.C,R15*%
X111680000Y-63293641D02*
X111680000Y-62986359D01*
X110920000Y-63293641D02*
X110920000Y-62986359D01*
%TO.C,R16*%
X113520000Y-62986359D02*
X113520000Y-63293641D01*
X114280000Y-62986359D02*
X114280000Y-63293641D01*
%TO.C,R17*%
X80420000Y-85153641D02*
X80420000Y-84846359D01*
X81180000Y-85153641D02*
X81180000Y-84846359D01*
%TO.C,R18*%
X101680000Y-87453641D02*
X101680000Y-87146359D01*
X100920000Y-87453641D02*
X100920000Y-87146359D01*
%TO.C,R19*%
X107480000Y-88286359D02*
X107480000Y-88593641D01*
X106720000Y-88286359D02*
X106720000Y-88593641D01*
%TO.C,R20*%
X104580000Y-88286359D02*
X104580000Y-88593641D01*
X103820000Y-88286359D02*
X103820000Y-88593641D01*
%TO.C,R21*%
X131353641Y-35680000D02*
X131046359Y-35680000D01*
X131353641Y-34920000D02*
X131046359Y-34920000D01*
%TO.C,R22*%
X131343641Y-35920000D02*
X131036359Y-35920000D01*
X131343641Y-36680000D02*
X131036359Y-36680000D01*
%TO.C,R23*%
X131343641Y-40820000D02*
X131036359Y-40820000D01*
X131343641Y-41580000D02*
X131036359Y-41580000D01*
%TO.C,R24*%
X131343641Y-37820000D02*
X131036359Y-37820000D01*
X131343641Y-38580000D02*
X131036359Y-38580000D01*
%TO.C,R25*%
X131453641Y-48020000D02*
X131146359Y-48020000D01*
X131453641Y-48780000D02*
X131146359Y-48780000D01*
%TO.C,R26*%
X131443641Y-49780000D02*
X131136359Y-49780000D01*
X131443641Y-49020000D02*
X131136359Y-49020000D01*
%TO.C,R27*%
X131443641Y-54580000D02*
X131136359Y-54580000D01*
X131443641Y-53820000D02*
X131136359Y-53820000D01*
%TO.C,R28*%
X131453641Y-52580000D02*
X131146359Y-52580000D01*
X131453641Y-51820000D02*
X131146359Y-51820000D01*
%TO.C,R29*%
X131543641Y-61420000D02*
X131236359Y-61420000D01*
X131543641Y-62180000D02*
X131236359Y-62180000D01*
%TO.C,R30*%
X131543641Y-62420000D02*
X131236359Y-62420000D01*
X131543641Y-63180000D02*
X131236359Y-63180000D01*
%TO.C,R31*%
X131553641Y-66530000D02*
X131246359Y-66530000D01*
X131553641Y-65770000D02*
X131246359Y-65770000D01*
%TO.C,R32*%
X131553641Y-65530000D02*
X131246359Y-65530000D01*
X131553641Y-64770000D02*
X131246359Y-64770000D01*
%TO.C,R33*%
X92196359Y-40630000D02*
X92503641Y-40630000D01*
X92196359Y-39870000D02*
X92503641Y-39870000D01*
%TO.C,R34*%
X92196359Y-38870000D02*
X92503641Y-38870000D01*
X92196359Y-39630000D02*
X92503641Y-39630000D01*
%TO.C,R35*%
X92246359Y-36580000D02*
X92553641Y-36580000D01*
X92246359Y-35820000D02*
X92553641Y-35820000D01*
%TO.C,R36*%
X92246359Y-37580000D02*
X92553641Y-37580000D01*
X92246359Y-36820000D02*
X92553641Y-36820000D01*
%TO.C,R37*%
X92296359Y-53730000D02*
X92603641Y-53730000D01*
X92296359Y-52970000D02*
X92603641Y-52970000D01*
%TO.C,R38*%
X92296359Y-51970000D02*
X92603641Y-51970000D01*
X92296359Y-52730000D02*
X92603641Y-52730000D01*
%TO.C,R39*%
X92296359Y-47070000D02*
X92603641Y-47070000D01*
X92296359Y-47830000D02*
X92603641Y-47830000D01*
%TO.C,R40*%
X92296359Y-49070000D02*
X92603641Y-49070000D01*
X92296359Y-49830000D02*
X92603641Y-49830000D01*
%TO.C,R41*%
X92356359Y-66420000D02*
X92663641Y-66420000D01*
X92356359Y-67180000D02*
X92663641Y-67180000D01*
%TO.C,R42*%
X92356359Y-66180000D02*
X92663641Y-66180000D01*
X92356359Y-65420000D02*
X92663641Y-65420000D01*
%TO.C,R43*%
X92356359Y-62280000D02*
X92663641Y-62280000D01*
X92356359Y-61520000D02*
X92663641Y-61520000D01*
%TO.C,R44*%
X92356359Y-62520000D02*
X92663641Y-62520000D01*
X92356359Y-63280000D02*
X92663641Y-63280000D01*
%TO.C,SW1*%
X86580000Y-86130000D02*
X90720000Y-86130000D01*
X90720000Y-88970000D02*
X90720000Y-89270000D01*
X90720000Y-89270000D02*
X86580000Y-89270000D01*
X86580000Y-86430000D02*
X86580000Y-86130000D01*
X86580000Y-89270000D02*
X86580000Y-88970000D01*
X90720000Y-86130000D02*
X90720000Y-86430000D01*
%TO.C,SW2*%
X92130000Y-86130000D02*
X96270000Y-86130000D01*
X96270000Y-88970000D02*
X96270000Y-89270000D01*
X96270000Y-89270000D02*
X92130000Y-89270000D01*
X92130000Y-86430000D02*
X92130000Y-86130000D01*
X92130000Y-89270000D02*
X92130000Y-88970000D01*
X96270000Y-86130000D02*
X96270000Y-86430000D01*
%TO.C,SW3*%
X81030000Y-89270000D02*
X81030000Y-88970000D01*
X85170000Y-86130000D02*
X85170000Y-86430000D01*
X85170000Y-88970000D02*
X85170000Y-89270000D01*
X81030000Y-86130000D02*
X85170000Y-86130000D01*
X81030000Y-86430000D02*
X81030000Y-86130000D01*
X85170000Y-89270000D02*
X81030000Y-89270000D01*
%TO.C,U3*%
X106840000Y-70690000D02*
X105890000Y-70690000D01*
X105890000Y-70690000D02*
X105890000Y-71640000D01*
X115160000Y-70690000D02*
X116110000Y-70690000D01*
X116110000Y-70690000D02*
X116110000Y-71640000D01*
X106840000Y-80910000D02*
X105890000Y-80910000D01*
X105890000Y-80910000D02*
X105890000Y-79960000D01*
X115160000Y-80910000D02*
X116110000Y-80910000D01*
X116110000Y-80910000D02*
X116110000Y-79960000D01*
X116110000Y-79960000D02*
X117450000Y-79960000D01*
%TO.C,U4*%
X141250000Y-32475000D02*
X139750000Y-32475000D01*
X139750000Y-32475000D02*
X139750000Y-33165000D01*
X139750000Y-33165000D02*
X134625000Y-33165000D01*
X141250000Y-42875000D02*
X139750000Y-42875000D01*
X139750000Y-42875000D02*
X139750000Y-42185000D01*
X139750000Y-42185000D02*
X138650000Y-42185000D01*
%TO.C,U5*%
X141150000Y-45600000D02*
X139650000Y-45600000D01*
X139650000Y-45600000D02*
X139650000Y-46290000D01*
X139650000Y-46290000D02*
X134525000Y-46290000D01*
X141150000Y-56000000D02*
X139650000Y-56000000D01*
X139650000Y-56000000D02*
X139650000Y-55310000D01*
X139650000Y-55310000D02*
X138550000Y-55310000D01*
%TO.C,U6*%
X139750000Y-68785000D02*
X138650000Y-68785000D01*
X139750000Y-69475000D02*
X139750000Y-68785000D01*
X141250000Y-69475000D02*
X139750000Y-69475000D01*
X139750000Y-59765000D02*
X134625000Y-59765000D01*
X139750000Y-59075000D02*
X139750000Y-59765000D01*
X141250000Y-59075000D02*
X139750000Y-59075000D01*
D11*
%TO.C,U7*%
X147150000Y-78150000D02*
X147675000Y-78150000D01*
X151450000Y-82450000D02*
X150925000Y-82450000D01*
X151450000Y-78150000D02*
X150925000Y-78150000D01*
X147150000Y-82450000D02*
X147150000Y-81925000D01*
X151450000Y-82450000D02*
X151450000Y-81925000D01*
X151450000Y-78150000D02*
X151450000Y-78675000D01*
X147150000Y-78150000D02*
X147150000Y-78675000D01*
D10*
%TO.C,U8*%
X84175000Y-33140000D02*
X85275000Y-33140000D01*
X84175000Y-32450000D02*
X84175000Y-33140000D01*
X82675000Y-32450000D02*
X84175000Y-32450000D01*
X84175000Y-42160000D02*
X89300000Y-42160000D01*
X84175000Y-42850000D02*
X84175000Y-42160000D01*
X82675000Y-42850000D02*
X84175000Y-42850000D01*
%TO.C,U9*%
X82675000Y-55900000D02*
X84175000Y-55900000D01*
X84175000Y-55900000D02*
X84175000Y-55210000D01*
X84175000Y-55210000D02*
X89300000Y-55210000D01*
X82675000Y-45500000D02*
X84175000Y-45500000D01*
X84175000Y-45500000D02*
X84175000Y-46190000D01*
X84175000Y-46190000D02*
X85275000Y-46190000D01*
%TO.C,U10*%
X84175000Y-59740000D02*
X85275000Y-59740000D01*
X84175000Y-59050000D02*
X84175000Y-59740000D01*
X82675000Y-59050000D02*
X84175000Y-59050000D01*
X84175000Y-68760000D02*
X89300000Y-68760000D01*
X84175000Y-69450000D02*
X84175000Y-68760000D01*
X82675000Y-69450000D02*
X84175000Y-69450000D01*
%TO.C,U2*%
D11*
X77552380Y-80711904D02*
X78361904Y-80711904D01*
X78457142Y-80664285D01*
X78504761Y-80616666D01*
X78552380Y-80521428D01*
X78552380Y-80330952D01*
X78504761Y-80235714D01*
X78457142Y-80188095D01*
X78361904Y-80140476D01*
X77552380Y-80140476D01*
X77647619Y-79711904D02*
X77600000Y-79664285D01*
X77552380Y-79569047D01*
X77552380Y-79330952D01*
X77600000Y-79235714D01*
X77647619Y-79188095D01*
X77742857Y-79140476D01*
X77838095Y-79140476D01*
X77980952Y-79188095D01*
X78552380Y-79759523D01*
X78552380Y-79140476D01*
%TO.C,C21*%
X69497142Y-85042857D02*
X69544761Y-85090476D01*
X69592380Y-85233333D01*
X69592380Y-85328571D01*
X69544761Y-85471428D01*
X69449523Y-85566666D01*
X69354285Y-85614285D01*
X69163809Y-85661904D01*
X69020952Y-85661904D01*
X68830476Y-85614285D01*
X68735238Y-85566666D01*
X68640000Y-85471428D01*
X68592380Y-85328571D01*
X68592380Y-85233333D01*
X68640000Y-85090476D01*
X68687619Y-85042857D01*
X68687619Y-84661904D02*
X68640000Y-84614285D01*
X68592380Y-84519047D01*
X68592380Y-84280952D01*
X68640000Y-84185714D01*
X68687619Y-84138095D01*
X68782857Y-84090476D01*
X68878095Y-84090476D01*
X69020952Y-84138095D01*
X69592380Y-84709523D01*
X69592380Y-84090476D01*
X69592380Y-83138095D02*
X69592380Y-83709523D01*
X69592380Y-83423809D02*
X68592380Y-83423809D01*
X68735238Y-83519047D01*
X68830476Y-83614285D01*
X68878095Y-83709523D01*
%TO.C,C54*%
X83357142Y-56627142D02*
X83309523Y-56674761D01*
X83166666Y-56722380D01*
X83071428Y-56722380D01*
X82928571Y-56674761D01*
X82833333Y-56579523D01*
X82785714Y-56484285D01*
X82738095Y-56293809D01*
X82738095Y-56150952D01*
X82785714Y-55960476D01*
X82833333Y-55865238D01*
X82928571Y-55770000D01*
X83071428Y-55722380D01*
X83166666Y-55722380D01*
X83309523Y-55770000D01*
X83357142Y-55817619D01*
X84261904Y-55722380D02*
X83785714Y-55722380D01*
X83738095Y-56198571D01*
X83785714Y-56150952D01*
X83880952Y-56103333D01*
X84119047Y-56103333D01*
X84214285Y-56150952D01*
X84261904Y-56198571D01*
X84309523Y-56293809D01*
X84309523Y-56531904D01*
X84261904Y-56627142D01*
X84214285Y-56674761D01*
X84119047Y-56722380D01*
X83880952Y-56722380D01*
X83785714Y-56674761D01*
X83738095Y-56627142D01*
X85166666Y-56055714D02*
X85166666Y-56722380D01*
X84928571Y-55674761D02*
X84690476Y-56389047D01*
X85309523Y-56389047D01*
%TO.C,C31*%
X139737142Y-58987142D02*
X139689523Y-59034761D01*
X139546666Y-59082380D01*
X139451428Y-59082380D01*
X139308571Y-59034761D01*
X139213333Y-58939523D01*
X139165714Y-58844285D01*
X139118095Y-58653809D01*
X139118095Y-58510952D01*
X139165714Y-58320476D01*
X139213333Y-58225238D01*
X139308571Y-58130000D01*
X139451428Y-58082380D01*
X139546666Y-58082380D01*
X139689523Y-58130000D01*
X139737142Y-58177619D01*
X140070476Y-58082380D02*
X140689523Y-58082380D01*
X140356190Y-58463333D01*
X140499047Y-58463333D01*
X140594285Y-58510952D01*
X140641904Y-58558571D01*
X140689523Y-58653809D01*
X140689523Y-58891904D01*
X140641904Y-58987142D01*
X140594285Y-59034761D01*
X140499047Y-59082380D01*
X140213333Y-59082380D01*
X140118095Y-59034761D01*
X140070476Y-58987142D01*
X141641904Y-59082380D02*
X141070476Y-59082380D01*
X141356190Y-59082380D02*
X141356190Y-58082380D01*
X141260952Y-58225238D01*
X141165714Y-58320476D01*
X141070476Y-58368095D01*
%TD*%
M02*
