M48
; DRILL file {KiCad 5.1.9-73d0e3b20d~88~ubuntu20.04.1} date Sun Feb  7 18:58:05 2021
; FORMAT={3:3/ absolute / metric / suppress leading zeros}
; #@! TF.CreationDate,2021-02-07T18:58:05+00:00
; #@! TF.GenerationSoftware,Kicad,Pcbnew,5.1.9-73d0e3b20d~88~ubuntu20.04.1
FMAT,2
METRIC,TZ
T1C0.400
T2C0.550
T3C0.800
T4C0.850
T5C1.000
T6C1.320
T7C3.200
T8C0.800
%
G90
G05
T1
X63500Y-43250
X63600Y-52500
X66000Y-58600
X66900Y-82200
X66950Y-67300
X68800Y-72400
X68900Y-83100
X70600Y-34850
X71800Y-43700
X72900Y-75450
X74350Y-35150
X74400Y-33350
X74400Y-37250
X74400Y-39250
X74400Y-41350
X74800Y-62350
X74850Y-50800
X74850Y-52800
X74850Y-54550
X74850Y-60350
X74950Y-46850
X74950Y-48900
X74950Y-64200
X74950Y-66100
X74950Y-68000
X76500Y-44100
X76500Y-75500
X77150Y-46900
X77300Y-48850
X77300Y-50650
X77300Y-52750
X77350Y-54700
X77550Y-37250
X77700Y-39500
X77725Y-83975
X77850Y-35250
X77850Y-41600
X77850Y-66100
X77950Y-33300
X77950Y-68000
X78050Y-64400
X78200Y-57700
X78200Y-60300
X78200Y-62450
X78850Y-85450
X80450Y-33250
X80500Y-46850
X80500Y-48850
X80550Y-37400
X80550Y-50850
X80600Y-35200
X80600Y-54750
X80650Y-52950
X80750Y-40150
X80750Y-41850
X80750Y-65950
X80800Y-68050
X81050Y-62550
X81100Y-64300
X81150Y-60400
X83300Y-47700
X83600Y-35000
X83650Y-39250
X83650Y-40450
X83650Y-41650
X83650Y-42800
X83650Y-52250
X83650Y-53600
X83650Y-54950
X83650Y-56150
X83650Y-65950
X83650Y-66950
X83650Y-68100
X83750Y-69300
X83900Y-62000
X84700Y-69300
X85100Y-42800
X85150Y-56100
X85800Y-69400
X85950Y-31150
X86650Y-42800
X86700Y-56100
X86800Y-85150
X87000Y-69400
X87700Y-57200
X87850Y-56100
X87900Y-42700
X87900Y-87250
X88050Y-69550
X88900Y-69400
X89110Y-56140
X89150Y-42750
X89600Y-88150
X90250Y-41100
X90350Y-54200
X91100Y-33900
X92250Y-41350
X93000Y-59900
X93300Y-84700
X93400Y-53300
X93650Y-38200
X93700Y-37200
X93950Y-39250
X93950Y-40250
X94000Y-35400
X94100Y-87900
X94150Y-52300
X94400Y-65850
X94500Y-62900
X94550Y-59500
X94600Y-76100
X94650Y-49350
X94950Y-37700
X95150Y-85450
X95370Y-83580
X95450Y-68650
X95550Y-56500
X95900Y-39050
X96300Y-84600
X96350Y-47150
X97300Y-67700
X97400Y-66300
X97800Y-75400
X97850Y-78700
X98050Y-60450
X98350Y-54150
X98875Y-88675
X99450Y-78900
X99500Y-31300
X99500Y-32650
X99500Y-75100
X100200Y-80600
X100700Y-70100
X100850Y-82500
X100900Y-74500
X101380Y-80570
X101400Y-31300
X101400Y-32650
X101400Y-34000
X101400Y-88900
X101950Y-54950
X101950Y-73050
X102250Y-83500
X102850Y-50900
X103250Y-31300
X103250Y-32650
X103250Y-34250
X103300Y-74050
X103400Y-85450
X103650Y-84400
X103700Y-51850
X104300Y-80950
X104300Y-86850
X104400Y-66000
X104500Y-63800
X104850Y-48950
X105100Y-31300
X105150Y-32650
X105150Y-34050
X105400Y-62600
X105700Y-68000
X106150Y-85250
X106450Y-81800
X106700Y-68100
X106900Y-64900
X106950Y-76450
X107100Y-31250
X107100Y-32600
X107100Y-34000
X107400Y-73300
X107550Y-57850
X107600Y-80150
X107900Y-64900
X108300Y-84450
X108650Y-74050
X108700Y-64200
X108900Y-77250
X109000Y-83200
X109350Y-79500
X110000Y-77700
X110100Y-68100
X110100Y-73600
X110300Y-89350
X110700Y-85350
X111100Y-73700
X111300Y-61700
X111900Y-84800
X112250Y-31300
X112300Y-73700
X112350Y-83050
X112700Y-79150
X112800Y-75500
X112900Y-72000
X113400Y-76600
X113450Y-78250
X113640Y-65740
X113800Y-54750
X114050Y-75550
X114050Y-85800
X114200Y-79250
X114350Y-31300
X114650Y-62300
X115000Y-80000
X115050Y-74850
X115100Y-86050
X115150Y-78450
X115950Y-62950
X116550Y-31300
X116600Y-67000
X116800Y-80800
X116900Y-60650
X117100Y-55900
X117600Y-59950
X118150Y-81050
X118850Y-31300
X118850Y-33550
X119250Y-74750
X119550Y-64200
X120250Y-72650
X120300Y-76250
X121000Y-33450
X121050Y-31300
X121350Y-72450
X122150Y-62850
X122150Y-74600
X122300Y-76850
X122350Y-51300
X122400Y-81650
X122800Y-68700
X123150Y-31300
X123350Y-33450
X123800Y-82450
X124900Y-71500
X125150Y-83150
X125250Y-31300
X125250Y-33450
X126700Y-74300
X127300Y-33500
X127300Y-71500
X127350Y-31300
X127800Y-36300
X127850Y-35300
X127850Y-74300
X128350Y-71400
X128400Y-75400
X128800Y-66033
X129250Y-62800
X129350Y-61800
X129500Y-31300
X129500Y-33500
X129600Y-39800
X129600Y-52700
X129700Y-46100
X129900Y-48400
X129900Y-49400
X129900Y-55400
X130050Y-65100
X130500Y-60300
X130800Y-78050
X131100Y-47200
X131150Y-72850
X131600Y-60000
X131650Y-42500
X131800Y-46700
X131900Y-80700
X131950Y-31300
X132000Y-33200
X132950Y-71500
X133200Y-67500
X134100Y-33050
X134150Y-31350
X135050Y-58900
X135150Y-45650
X136100Y-45300
X136150Y-58900
X136500Y-31300
X136600Y-32900
X136900Y-44600
X137050Y-45600
X137200Y-58950
X138100Y-45550
X138250Y-58950
X138650Y-31400
X138750Y-32950
X138800Y-84050
X139100Y-45650
X139200Y-58950
X140100Y-45650
X140200Y-47000
X140250Y-48100
X140250Y-49200
X140300Y-59000
X140300Y-60200
X140350Y-61400
X140350Y-62650
X140400Y-39100
X140600Y-35400
X142050Y-77900
X142650Y-33250
X142650Y-35400
X142650Y-37050
X142750Y-39000
X142800Y-48550
X142850Y-41350
X142900Y-46950
X142900Y-50550
X143000Y-60650
X143050Y-64450
X143050Y-68400
X143100Y-52650
X143150Y-54750
X143150Y-62700
X143150Y-66550
X143200Y-82400
X143500Y-80800
X144100Y-81600
X144100Y-86400
X144900Y-83100
X145040Y-78910
X145300Y-44200
X145500Y-37150
X145600Y-35450
X145650Y-33400
X145700Y-39100
X145700Y-41450
X145700Y-46850
X145750Y-48650
X145800Y-52800
X145800Y-54700
X145850Y-50650
X145900Y-57500
X146000Y-60600
X146100Y-68350
X146150Y-62850
X146150Y-66600
X146250Y-64400
X146540Y-83310
X147150Y-78000
X148400Y-47000
X148550Y-48800
X148550Y-50800
X148600Y-37250
X148650Y-54700
X148700Y-33650
X148700Y-35500
X148700Y-52850
X148850Y-39050
X149000Y-41550
X149050Y-60550
X149050Y-64350
X149150Y-62800
X149150Y-68450
X149200Y-66600
X149650Y-85300
X150900Y-83550
X151550Y-78250
X153100Y-41400
X153100Y-83300
X153200Y-33050
X154200Y-77900
X154640Y-86100
X155350Y-80900
X156200Y-60900
X156800Y-79500
X157100Y-70750
X157300Y-55900
X157600Y-67400
X157600Y-82600
X157700Y-64500
X160300Y-37550
T3
X108350Y-45450
X113350Y-45450
T5
X64300Y-54950
X64300Y-57490
X64300Y-60030
X64300Y-62570
X64300Y-65110
X64300Y-68750
X64300Y-71290
X64300Y-73830
X64300Y-76370
X64300Y-78910
X64300Y-81450
X70700Y-87800
X73240Y-87800
X75780Y-87800
X78320Y-87800
X123200Y-87650
X125740Y-87650
X128280Y-87650
X130820Y-87650
X134450Y-87650
X136990Y-87650
X139530Y-87650
X142070Y-87650
X145700Y-87650
X148240Y-87650
X150780Y-87650
X153320Y-87650
X159700Y-54840
X159700Y-57380
X159700Y-59920
X159700Y-62460
X159700Y-65000
X159700Y-68600
X159700Y-71140
X159700Y-73680
X159700Y-76220
X159700Y-78760
X159700Y-81300
T6
X66400Y-40300
X66400Y-45300
X66400Y-50300
X109050Y-34500
X114050Y-34500
X157600Y-40200
X157600Y-45200
X157600Y-50200
T7
X65400Y-86500
X65600Y-33600
X158400Y-33500
X158400Y-86500
T8
X110500Y-91300
X115500Y-91300
T2
G00X109125Y-93725
M15
G01X109125Y-94375
M16
G05
G00X116875Y-93725
M15
G01X116875Y-94375
M16
G05
T4
G00X109275Y-89975
M15
G01X109275Y-90525
M16
G05
G00X116725Y-89975
M15
G01X116725Y-90525
M16
G05
T0
M30
