%TF.GenerationSoftware,KiCad,Pcbnew,5.1.8-db9833491~88~ubuntu20.04.1*%
%TF.CreationDate,2020-12-06T21:40:22+00:00*%
%TF.ProjectId,driva-x2,64726976-612d-4783-922e-6b696361645f,rev?*%
%TF.SameCoordinates,Original*%
%TF.FileFunction,Legend,Bot*%
%TF.FilePolarity,Positive*%
%FSLAX46Y46*%
G04 Gerber Fmt 4.6, Leading zero omitted, Abs format (unit mm)*
G04 Created by KiCad (PCBNEW 5.1.8-db9833491~88~ubuntu20.04.1) date 2020-12-06 21:40:22*
%MOMM*%
%LPD*%
G01*
G04 APERTURE LIST*
%ADD10C,0.150000*%
G04 APERTURE END LIST*
D10*
X131472380Y-33294285D02*
X130472380Y-33294285D01*
X130472380Y-33532380D01*
X130520000Y-33675238D01*
X130615238Y-33770476D01*
X130710476Y-33818095D01*
X130900952Y-33865714D01*
X131043809Y-33865714D01*
X131234285Y-33818095D01*
X131329523Y-33770476D01*
X131424761Y-33675238D01*
X131472380Y-33532380D01*
X131472380Y-33294285D01*
X131186666Y-34246666D02*
X131186666Y-34722857D01*
X131472380Y-34151428D02*
X130472380Y-34484761D01*
X131472380Y-34818095D01*
X131472380Y-35151428D02*
X130472380Y-35151428D01*
X131472380Y-35722857D01*
X130472380Y-35722857D01*
X130520000Y-36722857D02*
X130472380Y-36627619D01*
X130472380Y-36484761D01*
X130520000Y-36341904D01*
X130615238Y-36246666D01*
X130710476Y-36199047D01*
X130900952Y-36151428D01*
X131043809Y-36151428D01*
X131234285Y-36199047D01*
X131329523Y-36246666D01*
X131424761Y-36341904D01*
X131472380Y-36484761D01*
X131472380Y-36580000D01*
X131424761Y-36722857D01*
X131377142Y-36770476D01*
X131043809Y-36770476D01*
X131043809Y-36580000D01*
X130948571Y-37199047D02*
X130948571Y-37532380D01*
X131472380Y-37675238D02*
X131472380Y-37199047D01*
X130472380Y-37199047D01*
X130472380Y-37675238D01*
X131472380Y-38675238D02*
X130996190Y-38341904D01*
X131472380Y-38103809D02*
X130472380Y-38103809D01*
X130472380Y-38484761D01*
X130520000Y-38580000D01*
X130567619Y-38627619D01*
X130662857Y-38675238D01*
X130805714Y-38675238D01*
X130900952Y-38627619D01*
X130948571Y-38580000D01*
X130996190Y-38484761D01*
X130996190Y-38103809D01*
X131377142Y-39865714D02*
X131424761Y-39913333D01*
X131472380Y-39865714D01*
X131424761Y-39818095D01*
X131377142Y-39865714D01*
X131472380Y-39865714D01*
X131091428Y-39865714D02*
X130520000Y-39818095D01*
X130472380Y-39865714D01*
X130520000Y-39913333D01*
X131091428Y-39865714D01*
X130472380Y-39865714D01*
X127782380Y-33450952D02*
X128782380Y-33784285D01*
X127782380Y-34117619D01*
X128258571Y-34784285D02*
X128306190Y-34927142D01*
X128353809Y-34974761D01*
X128449047Y-35022380D01*
X128591904Y-35022380D01*
X128687142Y-34974761D01*
X128734761Y-34927142D01*
X128782380Y-34831904D01*
X128782380Y-34450952D01*
X127782380Y-34450952D01*
X127782380Y-34784285D01*
X127830000Y-34879523D01*
X127877619Y-34927142D01*
X127972857Y-34974761D01*
X128068095Y-34974761D01*
X128163333Y-34927142D01*
X128210952Y-34879523D01*
X128258571Y-34784285D01*
X128258571Y-34450952D01*
X127782380Y-35450952D02*
X128591904Y-35450952D01*
X128687142Y-35498571D01*
X128734761Y-35546190D01*
X128782380Y-35641428D01*
X128782380Y-35831904D01*
X128734761Y-35927142D01*
X128687142Y-35974761D01*
X128591904Y-36022380D01*
X127782380Y-36022380D01*
X128734761Y-36450952D02*
X128782380Y-36593809D01*
X128782380Y-36831904D01*
X128734761Y-36927142D01*
X128687142Y-36974761D01*
X128591904Y-37022380D01*
X128496666Y-37022380D01*
X128401428Y-36974761D01*
X128353809Y-36927142D01*
X128306190Y-36831904D01*
X128258571Y-36641428D01*
X128210952Y-36546190D01*
X128163333Y-36498571D01*
X128068095Y-36450952D01*
X127972857Y-36450952D01*
X127877619Y-36498571D01*
X127830000Y-36546190D01*
X127782380Y-36641428D01*
X127782380Y-36879523D01*
X127830000Y-37022380D01*
X127782380Y-38689047D02*
X127782380Y-38212857D01*
X128258571Y-38165238D01*
X128210952Y-38212857D01*
X128163333Y-38308095D01*
X128163333Y-38546190D01*
X128210952Y-38641428D01*
X128258571Y-38689047D01*
X128353809Y-38736666D01*
X128591904Y-38736666D01*
X128687142Y-38689047D01*
X128734761Y-38641428D01*
X128782380Y-38546190D01*
X128782380Y-38308095D01*
X128734761Y-38212857D01*
X128687142Y-38165238D01*
X127782380Y-39022380D02*
X128782380Y-39355714D01*
X127782380Y-39689047D01*
X120212380Y-31532380D02*
X121021904Y-31532380D01*
X121117142Y-31580000D01*
X121164761Y-31627619D01*
X121212380Y-31722857D01*
X121212380Y-31913333D01*
X121164761Y-32008571D01*
X121117142Y-32056190D01*
X121021904Y-32103809D01*
X120212380Y-32103809D01*
X121164761Y-32532380D02*
X121212380Y-32675238D01*
X121212380Y-32913333D01*
X121164761Y-33008571D01*
X121117142Y-33056190D01*
X121021904Y-33103809D01*
X120926666Y-33103809D01*
X120831428Y-33056190D01*
X120783809Y-33008571D01*
X120736190Y-32913333D01*
X120688571Y-32722857D01*
X120640952Y-32627619D01*
X120593333Y-32580000D01*
X120498095Y-32532380D01*
X120402857Y-32532380D01*
X120307619Y-32580000D01*
X120260000Y-32627619D01*
X120212380Y-32722857D01*
X120212380Y-32960952D01*
X120260000Y-33103809D01*
X120688571Y-33865714D02*
X120736190Y-34008571D01*
X120783809Y-34056190D01*
X120879047Y-34103809D01*
X121021904Y-34103809D01*
X121117142Y-34056190D01*
X121164761Y-34008571D01*
X121212380Y-33913333D01*
X121212380Y-33532380D01*
X120212380Y-33532380D01*
X120212380Y-33865714D01*
X120260000Y-33960952D01*
X120307619Y-34008571D01*
X120402857Y-34056190D01*
X120498095Y-34056190D01*
X120593333Y-34008571D01*
X120640952Y-33960952D01*
X120688571Y-33865714D01*
X120688571Y-33532380D01*
X120212380Y-35484761D02*
X120212380Y-35675238D01*
X120260000Y-35770476D01*
X120355238Y-35865714D01*
X120545714Y-35913333D01*
X120879047Y-35913333D01*
X121069523Y-35865714D01*
X121164761Y-35770476D01*
X121212380Y-35675238D01*
X121212380Y-35484761D01*
X121164761Y-35389523D01*
X121069523Y-35294285D01*
X120879047Y-35246666D01*
X120545714Y-35246666D01*
X120355238Y-35294285D01*
X120260000Y-35389523D01*
X120212380Y-35484761D01*
X120212380Y-36199047D02*
X120212380Y-36770476D01*
X121212380Y-36484761D02*
X120212380Y-36484761D01*
X120260000Y-37627619D02*
X120212380Y-37532380D01*
X120212380Y-37389523D01*
X120260000Y-37246666D01*
X120355238Y-37151428D01*
X120450476Y-37103809D01*
X120640952Y-37056190D01*
X120783809Y-37056190D01*
X120974285Y-37103809D01*
X121069523Y-37151428D01*
X121164761Y-37246666D01*
X121212380Y-37389523D01*
X121212380Y-37484761D01*
X121164761Y-37627619D01*
X121117142Y-37675238D01*
X120783809Y-37675238D01*
X120783809Y-37484761D01*
X137154761Y-65924761D02*
X137202380Y-66067619D01*
X137202380Y-66305714D01*
X137154761Y-66400952D01*
X137107142Y-66448571D01*
X137011904Y-66496190D01*
X136916666Y-66496190D01*
X136821428Y-66448571D01*
X136773809Y-66400952D01*
X136726190Y-66305714D01*
X136678571Y-66115238D01*
X136630952Y-66020000D01*
X136583333Y-65972380D01*
X136488095Y-65924761D01*
X136392857Y-65924761D01*
X136297619Y-65972380D01*
X136250000Y-66020000D01*
X136202380Y-66115238D01*
X136202380Y-66353333D01*
X136250000Y-66496190D01*
X137107142Y-67496190D02*
X137154761Y-67448571D01*
X137202380Y-67305714D01*
X137202380Y-67210476D01*
X137154761Y-67067619D01*
X137059523Y-66972380D01*
X136964285Y-66924761D01*
X136773809Y-66877142D01*
X136630952Y-66877142D01*
X136440476Y-66924761D01*
X136345238Y-66972380D01*
X136250000Y-67067619D01*
X136202380Y-67210476D01*
X136202380Y-67305714D01*
X136250000Y-67448571D01*
X136297619Y-67496190D01*
X137202380Y-68400952D02*
X137202380Y-67924761D01*
X136202380Y-67924761D01*
X137297619Y-68496190D02*
X137297619Y-69258095D01*
X137202380Y-69496190D02*
X136202380Y-69496190D01*
X136678571Y-69496190D02*
X136678571Y-70067619D01*
X137202380Y-70067619D02*
X136202380Y-70067619D01*
X136916666Y-70496190D02*
X136916666Y-70972380D01*
X137202380Y-70400952D02*
X136202380Y-70734285D01*
X137202380Y-71067619D01*
X137202380Y-71877142D02*
X137202380Y-71400952D01*
X136202380Y-71400952D01*
X137202380Y-72686666D02*
X137202380Y-72210476D01*
X136202380Y-72210476D01*
X137297619Y-72781904D02*
X137297619Y-73543809D01*
X136202380Y-73781904D02*
X137011904Y-73781904D01*
X137107142Y-73829523D01*
X137154761Y-73877142D01*
X137202380Y-73972380D01*
X137202380Y-74162857D01*
X137154761Y-74258095D01*
X137107142Y-74305714D01*
X137011904Y-74353333D01*
X136202380Y-74353333D01*
X137297619Y-74591428D02*
X137297619Y-75353333D01*
X136297619Y-75543809D02*
X136250000Y-75591428D01*
X136202380Y-75686666D01*
X136202380Y-75924761D01*
X136250000Y-76020000D01*
X136297619Y-76067619D01*
X136392857Y-76115238D01*
X136488095Y-76115238D01*
X136630952Y-76067619D01*
X137202380Y-75496190D01*
X137202380Y-76115238D01*
X134434761Y-66046190D02*
X134482380Y-66189047D01*
X134482380Y-66427142D01*
X134434761Y-66522380D01*
X134387142Y-66570000D01*
X134291904Y-66617619D01*
X134196666Y-66617619D01*
X134101428Y-66570000D01*
X134053809Y-66522380D01*
X134006190Y-66427142D01*
X133958571Y-66236666D01*
X133910952Y-66141428D01*
X133863333Y-66093809D01*
X133768095Y-66046190D01*
X133672857Y-66046190D01*
X133577619Y-66093809D01*
X133530000Y-66141428D01*
X133482380Y-66236666D01*
X133482380Y-66474761D01*
X133530000Y-66617619D01*
X134482380Y-67046190D02*
X133482380Y-67046190D01*
X133482380Y-67284285D01*
X133530000Y-67427142D01*
X133625238Y-67522380D01*
X133720476Y-67570000D01*
X133910952Y-67617619D01*
X134053809Y-67617619D01*
X134244285Y-67570000D01*
X134339523Y-67522380D01*
X134434761Y-67427142D01*
X134482380Y-67284285D01*
X134482380Y-67046190D01*
X134196666Y-67998571D02*
X134196666Y-68474761D01*
X134482380Y-67903333D02*
X133482380Y-68236666D01*
X134482380Y-68570000D01*
X134577619Y-68665238D02*
X134577619Y-69427142D01*
X134482380Y-69665238D02*
X133482380Y-69665238D01*
X133958571Y-69665238D02*
X133958571Y-70236666D01*
X134482380Y-70236666D02*
X133482380Y-70236666D01*
X134196666Y-70665238D02*
X134196666Y-71141428D01*
X134482380Y-70570000D02*
X133482380Y-70903333D01*
X134482380Y-71236666D01*
X134482380Y-72046190D02*
X134482380Y-71570000D01*
X133482380Y-71570000D01*
X134482380Y-72855714D02*
X134482380Y-72379523D01*
X133482380Y-72379523D01*
X134577619Y-72950952D02*
X134577619Y-73712857D01*
X133482380Y-73808095D02*
X134482380Y-74141428D01*
X133482380Y-74474761D01*
X134577619Y-74570000D02*
X134577619Y-75331904D01*
X133577619Y-75522380D02*
X133530000Y-75570000D01*
X133482380Y-75665238D01*
X133482380Y-75903333D01*
X133530000Y-75998571D01*
X133577619Y-76046190D01*
X133672857Y-76093809D01*
X133768095Y-76093809D01*
X133910952Y-76046190D01*
X134482380Y-75474761D01*
X134482380Y-76093809D01*
X131942380Y-69306666D02*
X130942380Y-69306666D01*
X131418571Y-69306666D02*
X131418571Y-69878095D01*
X131942380Y-69878095D02*
X130942380Y-69878095D01*
X131656666Y-70306666D02*
X131656666Y-70782857D01*
X131942380Y-70211428D02*
X130942380Y-70544761D01*
X131942380Y-70878095D01*
X131942380Y-71687619D02*
X131942380Y-71211428D01*
X130942380Y-71211428D01*
X131942380Y-72497142D02*
X131942380Y-72020952D01*
X130942380Y-72020952D01*
X132037619Y-72592380D02*
X132037619Y-73354285D01*
X130942380Y-73497142D02*
X131942380Y-73735238D01*
X131228095Y-73925714D01*
X131942380Y-74116190D01*
X130942380Y-74354285D01*
X132037619Y-74497142D02*
X132037619Y-75259047D01*
X131037619Y-75449523D02*
X130990000Y-75497142D01*
X130942380Y-75592380D01*
X130942380Y-75830476D01*
X130990000Y-75925714D01*
X131037619Y-75973333D01*
X131132857Y-76020952D01*
X131228095Y-76020952D01*
X131370952Y-75973333D01*
X131942380Y-75401904D01*
X131942380Y-76020952D01*
X112762380Y-69974285D02*
X111762380Y-69974285D01*
X112238571Y-69974285D02*
X112238571Y-70545714D01*
X112762380Y-70545714D02*
X111762380Y-70545714D01*
X112476666Y-70974285D02*
X112476666Y-71450476D01*
X112762380Y-70879047D02*
X111762380Y-71212380D01*
X112762380Y-71545714D01*
X112762380Y-72355238D02*
X112762380Y-71879047D01*
X111762380Y-71879047D01*
X112762380Y-73164761D02*
X112762380Y-72688571D01*
X111762380Y-72688571D01*
X112857619Y-73260000D02*
X112857619Y-74021904D01*
X111762380Y-74260000D02*
X112571904Y-74260000D01*
X112667142Y-74307619D01*
X112714761Y-74355238D01*
X112762380Y-74450476D01*
X112762380Y-74640952D01*
X112714761Y-74736190D01*
X112667142Y-74783809D01*
X112571904Y-74831428D01*
X111762380Y-74831428D01*
X112857619Y-75069523D02*
X112857619Y-75831428D01*
X112762380Y-76593333D02*
X112762380Y-76021904D01*
X112762380Y-76307619D02*
X111762380Y-76307619D01*
X111905238Y-76212380D01*
X112000476Y-76117142D01*
X112048095Y-76021904D01*
X110142380Y-69919523D02*
X109142380Y-69919523D01*
X109618571Y-69919523D02*
X109618571Y-70490952D01*
X110142380Y-70490952D02*
X109142380Y-70490952D01*
X109856666Y-70919523D02*
X109856666Y-71395714D01*
X110142380Y-70824285D02*
X109142380Y-71157619D01*
X110142380Y-71490952D01*
X110142380Y-72300476D02*
X110142380Y-71824285D01*
X109142380Y-71824285D01*
X110142380Y-73110000D02*
X110142380Y-72633809D01*
X109142380Y-72633809D01*
X110237619Y-73205238D02*
X110237619Y-73967142D01*
X109142380Y-74062380D02*
X110142380Y-74395714D01*
X109142380Y-74729047D01*
X110237619Y-74824285D02*
X110237619Y-75586190D01*
X110142380Y-76348095D02*
X110142380Y-75776666D01*
X110142380Y-76062380D02*
X109142380Y-76062380D01*
X109285238Y-75967142D01*
X109380476Y-75871904D01*
X109428095Y-75776666D01*
X107552380Y-69696666D02*
X106552380Y-69696666D01*
X107028571Y-69696666D02*
X107028571Y-70268095D01*
X107552380Y-70268095D02*
X106552380Y-70268095D01*
X107266666Y-70696666D02*
X107266666Y-71172857D01*
X107552380Y-70601428D02*
X106552380Y-70934761D01*
X107552380Y-71268095D01*
X107552380Y-72077619D02*
X107552380Y-71601428D01*
X106552380Y-71601428D01*
X107552380Y-72887142D02*
X107552380Y-72410952D01*
X106552380Y-72410952D01*
X107647619Y-72982380D02*
X107647619Y-73744285D01*
X106552380Y-73887142D02*
X107552380Y-74125238D01*
X106838095Y-74315714D01*
X107552380Y-74506190D01*
X106552380Y-74744285D01*
X107647619Y-74887142D02*
X107647619Y-75649047D01*
X107552380Y-76410952D02*
X107552380Y-75839523D01*
X107552380Y-76125238D02*
X106552380Y-76125238D01*
X106695238Y-76030000D01*
X106790476Y-75934761D01*
X106838095Y-75839523D01*
X145814761Y-72749523D02*
X145862380Y-72892380D01*
X145862380Y-73130476D01*
X145814761Y-73225714D01*
X145767142Y-73273333D01*
X145671904Y-73320952D01*
X145576666Y-73320952D01*
X145481428Y-73273333D01*
X145433809Y-73225714D01*
X145386190Y-73130476D01*
X145338571Y-72940000D01*
X145290952Y-72844761D01*
X145243333Y-72797142D01*
X145148095Y-72749523D01*
X145052857Y-72749523D01*
X144957619Y-72797142D01*
X144910000Y-72844761D01*
X144862380Y-72940000D01*
X144862380Y-73178095D01*
X144910000Y-73320952D01*
X145767142Y-74320952D02*
X145814761Y-74273333D01*
X145862380Y-74130476D01*
X145862380Y-74035238D01*
X145814761Y-73892380D01*
X145719523Y-73797142D01*
X145624285Y-73749523D01*
X145433809Y-73701904D01*
X145290952Y-73701904D01*
X145100476Y-73749523D01*
X145005238Y-73797142D01*
X144910000Y-73892380D01*
X144862380Y-74035238D01*
X144862380Y-74130476D01*
X144910000Y-74273333D01*
X144957619Y-74320952D01*
X145862380Y-75225714D02*
X145862380Y-74749523D01*
X144862380Y-74749523D01*
X145862380Y-75559047D02*
X144862380Y-75559047D01*
X145862380Y-76130476D02*
X145290952Y-75701904D01*
X144862380Y-76130476D02*
X145433809Y-75559047D01*
X148232380Y-73018571D02*
X147232380Y-73018571D01*
X147946666Y-73351904D01*
X147232380Y-73685238D01*
X148232380Y-73685238D01*
X147232380Y-74351904D02*
X147232380Y-74542380D01*
X147280000Y-74637619D01*
X147375238Y-74732857D01*
X147565714Y-74780476D01*
X147899047Y-74780476D01*
X148089523Y-74732857D01*
X148184761Y-74637619D01*
X148232380Y-74542380D01*
X148232380Y-74351904D01*
X148184761Y-74256666D01*
X148089523Y-74161428D01*
X147899047Y-74113809D01*
X147565714Y-74113809D01*
X147375238Y-74161428D01*
X147280000Y-74256666D01*
X147232380Y-74351904D01*
X148184761Y-75161428D02*
X148232380Y-75304285D01*
X148232380Y-75542380D01*
X148184761Y-75637619D01*
X148137142Y-75685238D01*
X148041904Y-75732857D01*
X147946666Y-75732857D01*
X147851428Y-75685238D01*
X147803809Y-75637619D01*
X147756190Y-75542380D01*
X147708571Y-75351904D01*
X147660952Y-75256666D01*
X147613333Y-75209047D01*
X147518095Y-75161428D01*
X147422857Y-75161428D01*
X147327619Y-75209047D01*
X147280000Y-75256666D01*
X147232380Y-75351904D01*
X147232380Y-75590000D01*
X147280000Y-75732857D01*
X148232380Y-76161428D02*
X147232380Y-76161428D01*
X150712380Y-73018571D02*
X149712380Y-73018571D01*
X150426666Y-73351904D01*
X149712380Y-73685238D01*
X150712380Y-73685238D01*
X150712380Y-74161428D02*
X149712380Y-74161428D01*
X150664761Y-74590000D02*
X150712380Y-74732857D01*
X150712380Y-74970952D01*
X150664761Y-75066190D01*
X150617142Y-75113809D01*
X150521904Y-75161428D01*
X150426666Y-75161428D01*
X150331428Y-75113809D01*
X150283809Y-75066190D01*
X150236190Y-74970952D01*
X150188571Y-74780476D01*
X150140952Y-74685238D01*
X150093333Y-74637619D01*
X149998095Y-74590000D01*
X149902857Y-74590000D01*
X149807619Y-74637619D01*
X149760000Y-74685238D01*
X149712380Y-74780476D01*
X149712380Y-75018571D01*
X149760000Y-75161428D01*
X149712380Y-75780476D02*
X149712380Y-75970952D01*
X149760000Y-76066190D01*
X149855238Y-76161428D01*
X150045714Y-76209047D01*
X150379047Y-76209047D01*
X150569523Y-76161428D01*
X150664761Y-76066190D01*
X150712380Y-75970952D01*
X150712380Y-75780476D01*
X150664761Y-75685238D01*
X150569523Y-75590000D01*
X150379047Y-75542380D01*
X150045714Y-75542380D01*
X149855238Y-75590000D01*
X149760000Y-75685238D01*
X149712380Y-75780476D01*
X153384761Y-73691904D02*
X153432380Y-73834761D01*
X153432380Y-74072857D01*
X153384761Y-74168095D01*
X153337142Y-74215714D01*
X153241904Y-74263333D01*
X153146666Y-74263333D01*
X153051428Y-74215714D01*
X153003809Y-74168095D01*
X152956190Y-74072857D01*
X152908571Y-73882380D01*
X152860952Y-73787142D01*
X152813333Y-73739523D01*
X152718095Y-73691904D01*
X152622857Y-73691904D01*
X152527619Y-73739523D01*
X152480000Y-73787142D01*
X152432380Y-73882380D01*
X152432380Y-74120476D01*
X152480000Y-74263333D01*
X153384761Y-74644285D02*
X153432380Y-74787142D01*
X153432380Y-75025238D01*
X153384761Y-75120476D01*
X153337142Y-75168095D01*
X153241904Y-75215714D01*
X153146666Y-75215714D01*
X153051428Y-75168095D01*
X153003809Y-75120476D01*
X152956190Y-75025238D01*
X152908571Y-74834761D01*
X152860952Y-74739523D01*
X152813333Y-74691904D01*
X152718095Y-74644285D01*
X152622857Y-74644285D01*
X152527619Y-74691904D01*
X152480000Y-74739523D01*
X152432380Y-74834761D01*
X152432380Y-75072857D01*
X152480000Y-75215714D01*
X152527619Y-75596666D02*
X152480000Y-75644285D01*
X152432380Y-75739523D01*
X152432380Y-75977619D01*
X152480000Y-76072857D01*
X152527619Y-76120476D01*
X152622857Y-76168095D01*
X152718095Y-76168095D01*
X152860952Y-76120476D01*
X153432380Y-75549047D01*
X153432380Y-76168095D01*
X98844761Y-73921904D02*
X98892380Y-74064761D01*
X98892380Y-74302857D01*
X98844761Y-74398095D01*
X98797142Y-74445714D01*
X98701904Y-74493333D01*
X98606666Y-74493333D01*
X98511428Y-74445714D01*
X98463809Y-74398095D01*
X98416190Y-74302857D01*
X98368571Y-74112380D01*
X98320952Y-74017142D01*
X98273333Y-73969523D01*
X98178095Y-73921904D01*
X98082857Y-73921904D01*
X97987619Y-73969523D01*
X97940000Y-74017142D01*
X97892380Y-74112380D01*
X97892380Y-74350476D01*
X97940000Y-74493333D01*
X98844761Y-74874285D02*
X98892380Y-75017142D01*
X98892380Y-75255238D01*
X98844761Y-75350476D01*
X98797142Y-75398095D01*
X98701904Y-75445714D01*
X98606666Y-75445714D01*
X98511428Y-75398095D01*
X98463809Y-75350476D01*
X98416190Y-75255238D01*
X98368571Y-75064761D01*
X98320952Y-74969523D01*
X98273333Y-74921904D01*
X98178095Y-74874285D01*
X98082857Y-74874285D01*
X97987619Y-74921904D01*
X97940000Y-74969523D01*
X97892380Y-75064761D01*
X97892380Y-75302857D01*
X97940000Y-75445714D01*
X98892380Y-76398095D02*
X98892380Y-75826666D01*
X98892380Y-76112380D02*
X97892380Y-76112380D01*
X98035238Y-76017142D01*
X98130476Y-75921904D01*
X98178095Y-75826666D01*
X96412380Y-73168571D02*
X95412380Y-73168571D01*
X96126666Y-73501904D01*
X95412380Y-73835238D01*
X96412380Y-73835238D01*
X96412380Y-74311428D02*
X95412380Y-74311428D01*
X96364761Y-74740000D02*
X96412380Y-74882857D01*
X96412380Y-75120952D01*
X96364761Y-75216190D01*
X96317142Y-75263809D01*
X96221904Y-75311428D01*
X96126666Y-75311428D01*
X96031428Y-75263809D01*
X95983809Y-75216190D01*
X95936190Y-75120952D01*
X95888571Y-74930476D01*
X95840952Y-74835238D01*
X95793333Y-74787619D01*
X95698095Y-74740000D01*
X95602857Y-74740000D01*
X95507619Y-74787619D01*
X95460000Y-74835238D01*
X95412380Y-74930476D01*
X95412380Y-75168571D01*
X95460000Y-75311428D01*
X95412380Y-75930476D02*
X95412380Y-76120952D01*
X95460000Y-76216190D01*
X95555238Y-76311428D01*
X95745714Y-76359047D01*
X96079047Y-76359047D01*
X96269523Y-76311428D01*
X96364761Y-76216190D01*
X96412380Y-76120952D01*
X96412380Y-75930476D01*
X96364761Y-75835238D01*
X96269523Y-75740000D01*
X96079047Y-75692380D01*
X95745714Y-75692380D01*
X95555238Y-75740000D01*
X95460000Y-75835238D01*
X95412380Y-75930476D01*
X93892380Y-73138571D02*
X92892380Y-73138571D01*
X93606666Y-73471904D01*
X92892380Y-73805238D01*
X93892380Y-73805238D01*
X92892380Y-74471904D02*
X92892380Y-74662380D01*
X92940000Y-74757619D01*
X93035238Y-74852857D01*
X93225714Y-74900476D01*
X93559047Y-74900476D01*
X93749523Y-74852857D01*
X93844761Y-74757619D01*
X93892380Y-74662380D01*
X93892380Y-74471904D01*
X93844761Y-74376666D01*
X93749523Y-74281428D01*
X93559047Y-74233809D01*
X93225714Y-74233809D01*
X93035238Y-74281428D01*
X92940000Y-74376666D01*
X92892380Y-74471904D01*
X93844761Y-75281428D02*
X93892380Y-75424285D01*
X93892380Y-75662380D01*
X93844761Y-75757619D01*
X93797142Y-75805238D01*
X93701904Y-75852857D01*
X93606666Y-75852857D01*
X93511428Y-75805238D01*
X93463809Y-75757619D01*
X93416190Y-75662380D01*
X93368571Y-75471904D01*
X93320952Y-75376666D01*
X93273333Y-75329047D01*
X93178095Y-75281428D01*
X93082857Y-75281428D01*
X92987619Y-75329047D01*
X92940000Y-75376666D01*
X92892380Y-75471904D01*
X92892380Y-75710000D01*
X92940000Y-75852857D01*
X93892380Y-76281428D02*
X92892380Y-76281428D01*
X91374761Y-72839523D02*
X91422380Y-72982380D01*
X91422380Y-73220476D01*
X91374761Y-73315714D01*
X91327142Y-73363333D01*
X91231904Y-73410952D01*
X91136666Y-73410952D01*
X91041428Y-73363333D01*
X90993809Y-73315714D01*
X90946190Y-73220476D01*
X90898571Y-73030000D01*
X90850952Y-72934761D01*
X90803333Y-72887142D01*
X90708095Y-72839523D01*
X90612857Y-72839523D01*
X90517619Y-72887142D01*
X90470000Y-72934761D01*
X90422380Y-73030000D01*
X90422380Y-73268095D01*
X90470000Y-73410952D01*
X91327142Y-74410952D02*
X91374761Y-74363333D01*
X91422380Y-74220476D01*
X91422380Y-74125238D01*
X91374761Y-73982380D01*
X91279523Y-73887142D01*
X91184285Y-73839523D01*
X90993809Y-73791904D01*
X90850952Y-73791904D01*
X90660476Y-73839523D01*
X90565238Y-73887142D01*
X90470000Y-73982380D01*
X90422380Y-74125238D01*
X90422380Y-74220476D01*
X90470000Y-74363333D01*
X90517619Y-74410952D01*
X91422380Y-75315714D02*
X91422380Y-74839523D01*
X90422380Y-74839523D01*
X91422380Y-75649047D02*
X90422380Y-75649047D01*
X91422380Y-76220476D02*
X90850952Y-75791904D01*
X90422380Y-76220476D02*
X90993809Y-75649047D01*
X140454761Y-33765714D02*
X140502380Y-33908571D01*
X140502380Y-34146666D01*
X140454761Y-34241904D01*
X140407142Y-34289523D01*
X140311904Y-34337142D01*
X140216666Y-34337142D01*
X140121428Y-34289523D01*
X140073809Y-34241904D01*
X140026190Y-34146666D01*
X139978571Y-33956190D01*
X139930952Y-33860952D01*
X139883333Y-33813333D01*
X139788095Y-33765714D01*
X139692857Y-33765714D01*
X139597619Y-33813333D01*
X139550000Y-33860952D01*
X139502380Y-33956190D01*
X139502380Y-34194285D01*
X139550000Y-34337142D01*
X140502380Y-34765714D02*
X139502380Y-34765714D01*
X139502380Y-35003809D01*
X139550000Y-35146666D01*
X139645238Y-35241904D01*
X139740476Y-35289523D01*
X139930952Y-35337142D01*
X140073809Y-35337142D01*
X140264285Y-35289523D01*
X140359523Y-35241904D01*
X140454761Y-35146666D01*
X140502380Y-35003809D01*
X140502380Y-34765714D01*
X140216666Y-35718095D02*
X140216666Y-36194285D01*
X140502380Y-35622857D02*
X139502380Y-35956190D01*
X140502380Y-36289523D01*
X137854761Y-33829523D02*
X137902380Y-33972380D01*
X137902380Y-34210476D01*
X137854761Y-34305714D01*
X137807142Y-34353333D01*
X137711904Y-34400952D01*
X137616666Y-34400952D01*
X137521428Y-34353333D01*
X137473809Y-34305714D01*
X137426190Y-34210476D01*
X137378571Y-34020000D01*
X137330952Y-33924761D01*
X137283333Y-33877142D01*
X137188095Y-33829523D01*
X137092857Y-33829523D01*
X136997619Y-33877142D01*
X136950000Y-33924761D01*
X136902380Y-34020000D01*
X136902380Y-34258095D01*
X136950000Y-34400952D01*
X137807142Y-35400952D02*
X137854761Y-35353333D01*
X137902380Y-35210476D01*
X137902380Y-35115238D01*
X137854761Y-34972380D01*
X137759523Y-34877142D01*
X137664285Y-34829523D01*
X137473809Y-34781904D01*
X137330952Y-34781904D01*
X137140476Y-34829523D01*
X137045238Y-34877142D01*
X136950000Y-34972380D01*
X136902380Y-35115238D01*
X136902380Y-35210476D01*
X136950000Y-35353333D01*
X136997619Y-35400952D01*
X137902380Y-36305714D02*
X137902380Y-35829523D01*
X136902380Y-35829523D01*
X145572380Y-33938571D02*
X146286666Y-33938571D01*
X146429523Y-33890952D01*
X146524761Y-33795714D01*
X146572380Y-33652857D01*
X146572380Y-33557619D01*
X145572380Y-34271904D02*
X145572380Y-34843333D01*
X146572380Y-34557619D02*
X145572380Y-34557619D01*
X146286666Y-35129047D02*
X146286666Y-35605238D01*
X146572380Y-35033809D02*
X145572380Y-35367142D01*
X146572380Y-35700476D01*
X145620000Y-36557619D02*
X145572380Y-36462380D01*
X145572380Y-36319523D01*
X145620000Y-36176666D01*
X145715238Y-36081428D01*
X145810476Y-36033809D01*
X146000952Y-35986190D01*
X146143809Y-35986190D01*
X146334285Y-36033809D01*
X146429523Y-36081428D01*
X146524761Y-36176666D01*
X146572380Y-36319523D01*
X146572380Y-36414761D01*
X146524761Y-36557619D01*
X146477142Y-36605238D01*
X146143809Y-36605238D01*
X146143809Y-36414761D01*
X146667619Y-36795714D02*
X146667619Y-37557619D01*
X146572380Y-37795714D02*
X145572380Y-37795714D01*
X145572380Y-38033809D01*
X145620000Y-38176666D01*
X145715238Y-38271904D01*
X145810476Y-38319523D01*
X146000952Y-38367142D01*
X146143809Y-38367142D01*
X146334285Y-38319523D01*
X146429523Y-38271904D01*
X146524761Y-38176666D01*
X146572380Y-38033809D01*
X146572380Y-37795714D01*
X145572380Y-38986190D02*
X145572380Y-39176666D01*
X145620000Y-39271904D01*
X145715238Y-39367142D01*
X145905714Y-39414761D01*
X146239047Y-39414761D01*
X146429523Y-39367142D01*
X146524761Y-39271904D01*
X146572380Y-39176666D01*
X146572380Y-38986190D01*
X146524761Y-38890952D01*
X146429523Y-38795714D01*
X146239047Y-38748095D01*
X145905714Y-38748095D01*
X145715238Y-38795714D01*
X145620000Y-38890952D01*
X145572380Y-38986190D01*
X148212380Y-34024285D02*
X148926666Y-34024285D01*
X149069523Y-33976666D01*
X149164761Y-33881428D01*
X149212380Y-33738571D01*
X149212380Y-33643333D01*
X148212380Y-34357619D02*
X148212380Y-34929047D01*
X149212380Y-34643333D02*
X148212380Y-34643333D01*
X148926666Y-35214761D02*
X148926666Y-35690952D01*
X149212380Y-35119523D02*
X148212380Y-35452857D01*
X149212380Y-35786190D01*
X148260000Y-36643333D02*
X148212380Y-36548095D01*
X148212380Y-36405238D01*
X148260000Y-36262380D01*
X148355238Y-36167142D01*
X148450476Y-36119523D01*
X148640952Y-36071904D01*
X148783809Y-36071904D01*
X148974285Y-36119523D01*
X149069523Y-36167142D01*
X149164761Y-36262380D01*
X149212380Y-36405238D01*
X149212380Y-36500476D01*
X149164761Y-36643333D01*
X149117142Y-36690952D01*
X148783809Y-36690952D01*
X148783809Y-36500476D01*
X149307619Y-36881428D02*
X149307619Y-37643333D01*
X149212380Y-37881428D02*
X148212380Y-37881428D01*
X148212380Y-38119523D01*
X148260000Y-38262380D01*
X148355238Y-38357619D01*
X148450476Y-38405238D01*
X148640952Y-38452857D01*
X148783809Y-38452857D01*
X148974285Y-38405238D01*
X149069523Y-38357619D01*
X149164761Y-38262380D01*
X149212380Y-38119523D01*
X149212380Y-37881428D01*
X149212380Y-38881428D02*
X148212380Y-38881428D01*
X157024761Y-33740952D02*
X157072380Y-33883809D01*
X157072380Y-34121904D01*
X157024761Y-34217142D01*
X156977142Y-34264761D01*
X156881904Y-34312380D01*
X156786666Y-34312380D01*
X156691428Y-34264761D01*
X156643809Y-34217142D01*
X156596190Y-34121904D01*
X156548571Y-33931428D01*
X156500952Y-33836190D01*
X156453333Y-33788571D01*
X156358095Y-33740952D01*
X156262857Y-33740952D01*
X156167619Y-33788571D01*
X156120000Y-33836190D01*
X156072380Y-33931428D01*
X156072380Y-34169523D01*
X156120000Y-34312380D01*
X156072380Y-34645714D02*
X157072380Y-34883809D01*
X156358095Y-35074285D01*
X157072380Y-35264761D01*
X156072380Y-35502857D01*
X157072380Y-35883809D02*
X156072380Y-35883809D01*
X156072380Y-36121904D01*
X156120000Y-36264761D01*
X156215238Y-36360000D01*
X156310476Y-36407619D01*
X156500952Y-36455238D01*
X156643809Y-36455238D01*
X156834285Y-36407619D01*
X156929523Y-36360000D01*
X157024761Y-36264761D01*
X157072380Y-36121904D01*
X157072380Y-35883809D01*
X157072380Y-36883809D02*
X156072380Y-36883809D01*
X156072380Y-37550476D02*
X156072380Y-37740952D01*
X156120000Y-37836190D01*
X156215238Y-37931428D01*
X156405714Y-37979047D01*
X156739047Y-37979047D01*
X156929523Y-37931428D01*
X157024761Y-37836190D01*
X157072380Y-37740952D01*
X157072380Y-37550476D01*
X157024761Y-37455238D01*
X156929523Y-37360000D01*
X156739047Y-37312380D01*
X156405714Y-37312380D01*
X156215238Y-37360000D01*
X156120000Y-37455238D01*
X156072380Y-37550476D01*
X151804761Y-33658095D02*
X151852380Y-33800952D01*
X151852380Y-34039047D01*
X151804761Y-34134285D01*
X151757142Y-34181904D01*
X151661904Y-34229523D01*
X151566666Y-34229523D01*
X151471428Y-34181904D01*
X151423809Y-34134285D01*
X151376190Y-34039047D01*
X151328571Y-33848571D01*
X151280952Y-33753333D01*
X151233333Y-33705714D01*
X151138095Y-33658095D01*
X151042857Y-33658095D01*
X150947619Y-33705714D01*
X150900000Y-33753333D01*
X150852380Y-33848571D01*
X150852380Y-34086666D01*
X150900000Y-34229523D01*
X150852380Y-34562857D02*
X151852380Y-34800952D01*
X151138095Y-34991428D01*
X151852380Y-35181904D01*
X150852380Y-35420000D01*
X151757142Y-36372380D02*
X151804761Y-36324761D01*
X151852380Y-36181904D01*
X151852380Y-36086666D01*
X151804761Y-35943809D01*
X151709523Y-35848571D01*
X151614285Y-35800952D01*
X151423809Y-35753333D01*
X151280952Y-35753333D01*
X151090476Y-35800952D01*
X150995238Y-35848571D01*
X150900000Y-35943809D01*
X150852380Y-36086666D01*
X150852380Y-36181904D01*
X150900000Y-36324761D01*
X150947619Y-36372380D01*
X151852380Y-37277142D02*
X151852380Y-36800952D01*
X150852380Y-36800952D01*
X151852380Y-37610476D02*
X150852380Y-37610476D01*
X151852380Y-38181904D02*
X151280952Y-37753333D01*
X150852380Y-38181904D02*
X151423809Y-37610476D01*
X100720000Y-74078095D02*
X100672380Y-73982857D01*
X100672380Y-73840000D01*
X100720000Y-73697142D01*
X100815238Y-73601904D01*
X100910476Y-73554285D01*
X101100952Y-73506666D01*
X101243809Y-73506666D01*
X101434285Y-73554285D01*
X101529523Y-73601904D01*
X101624761Y-73697142D01*
X101672380Y-73840000D01*
X101672380Y-73935238D01*
X101624761Y-74078095D01*
X101577142Y-74125714D01*
X101243809Y-74125714D01*
X101243809Y-73935238D01*
X101672380Y-74554285D02*
X100672380Y-74554285D01*
X101672380Y-75125714D01*
X100672380Y-75125714D01*
X101672380Y-75601904D02*
X100672380Y-75601904D01*
X100672380Y-75840000D01*
X100720000Y-75982857D01*
X100815238Y-76078095D01*
X100910476Y-76125714D01*
X101100952Y-76173333D01*
X101243809Y-76173333D01*
X101434285Y-76125714D01*
X101529523Y-76078095D01*
X101624761Y-75982857D01*
X101672380Y-75840000D01*
X101672380Y-75601904D01*
X114350000Y-74218095D02*
X114302380Y-74122857D01*
X114302380Y-73980000D01*
X114350000Y-73837142D01*
X114445238Y-73741904D01*
X114540476Y-73694285D01*
X114730952Y-73646666D01*
X114873809Y-73646666D01*
X115064285Y-73694285D01*
X115159523Y-73741904D01*
X115254761Y-73837142D01*
X115302380Y-73980000D01*
X115302380Y-74075238D01*
X115254761Y-74218095D01*
X115207142Y-74265714D01*
X114873809Y-74265714D01*
X114873809Y-74075238D01*
X115302380Y-74694285D02*
X114302380Y-74694285D01*
X115302380Y-75265714D01*
X114302380Y-75265714D01*
X115302380Y-75741904D02*
X114302380Y-75741904D01*
X114302380Y-75980000D01*
X114350000Y-76122857D01*
X114445238Y-76218095D01*
X114540476Y-76265714D01*
X114730952Y-76313333D01*
X114873809Y-76313333D01*
X115064285Y-76265714D01*
X115159523Y-76218095D01*
X115254761Y-76122857D01*
X115302380Y-75980000D01*
X115302380Y-75741904D01*
X138730000Y-74328095D02*
X138682380Y-74232857D01*
X138682380Y-74090000D01*
X138730000Y-73947142D01*
X138825238Y-73851904D01*
X138920476Y-73804285D01*
X139110952Y-73756666D01*
X139253809Y-73756666D01*
X139444285Y-73804285D01*
X139539523Y-73851904D01*
X139634761Y-73947142D01*
X139682380Y-74090000D01*
X139682380Y-74185238D01*
X139634761Y-74328095D01*
X139587142Y-74375714D01*
X139253809Y-74375714D01*
X139253809Y-74185238D01*
X139682380Y-74804285D02*
X138682380Y-74804285D01*
X139682380Y-75375714D01*
X138682380Y-75375714D01*
X139682380Y-75851904D02*
X138682380Y-75851904D01*
X138682380Y-76090000D01*
X138730000Y-76232857D01*
X138825238Y-76328095D01*
X138920476Y-76375714D01*
X139110952Y-76423333D01*
X139253809Y-76423333D01*
X139444285Y-76375714D01*
X139539523Y-76328095D01*
X139634761Y-76232857D01*
X139682380Y-76090000D01*
X139682380Y-75851904D01*
X155130000Y-74118095D02*
X155082380Y-74022857D01*
X155082380Y-73880000D01*
X155130000Y-73737142D01*
X155225238Y-73641904D01*
X155320476Y-73594285D01*
X155510952Y-73546666D01*
X155653809Y-73546666D01*
X155844285Y-73594285D01*
X155939523Y-73641904D01*
X156034761Y-73737142D01*
X156082380Y-73880000D01*
X156082380Y-73975238D01*
X156034761Y-74118095D01*
X155987142Y-74165714D01*
X155653809Y-74165714D01*
X155653809Y-73975238D01*
X156082380Y-74594285D02*
X155082380Y-74594285D01*
X156082380Y-75165714D01*
X155082380Y-75165714D01*
X156082380Y-75641904D02*
X155082380Y-75641904D01*
X155082380Y-75880000D01*
X155130000Y-76022857D01*
X155225238Y-76118095D01*
X155320476Y-76165714D01*
X155510952Y-76213333D01*
X155653809Y-76213333D01*
X155844285Y-76165714D01*
X155939523Y-76118095D01*
X156034761Y-76022857D01*
X156082380Y-75880000D01*
X156082380Y-75641904D01*
X153380000Y-34208095D02*
X153332380Y-34112857D01*
X153332380Y-33970000D01*
X153380000Y-33827142D01*
X153475238Y-33731904D01*
X153570476Y-33684285D01*
X153760952Y-33636666D01*
X153903809Y-33636666D01*
X154094285Y-33684285D01*
X154189523Y-33731904D01*
X154284761Y-33827142D01*
X154332380Y-33970000D01*
X154332380Y-34065238D01*
X154284761Y-34208095D01*
X154237142Y-34255714D01*
X153903809Y-34255714D01*
X153903809Y-34065238D01*
X154332380Y-34684285D02*
X153332380Y-34684285D01*
X154332380Y-35255714D01*
X153332380Y-35255714D01*
X154332380Y-35731904D02*
X153332380Y-35731904D01*
X153332380Y-35970000D01*
X153380000Y-36112857D01*
X153475238Y-36208095D01*
X153570476Y-36255714D01*
X153760952Y-36303333D01*
X153903809Y-36303333D01*
X154094285Y-36255714D01*
X154189523Y-36208095D01*
X154284761Y-36112857D01*
X154332380Y-35970000D01*
X154332380Y-35731904D01*
X134210000Y-34458095D02*
X134162380Y-34362857D01*
X134162380Y-34220000D01*
X134210000Y-34077142D01*
X134305238Y-33981904D01*
X134400476Y-33934285D01*
X134590952Y-33886666D01*
X134733809Y-33886666D01*
X134924285Y-33934285D01*
X135019523Y-33981904D01*
X135114761Y-34077142D01*
X135162380Y-34220000D01*
X135162380Y-34315238D01*
X135114761Y-34458095D01*
X135067142Y-34505714D01*
X134733809Y-34505714D01*
X134733809Y-34315238D01*
X135162380Y-34934285D02*
X134162380Y-34934285D01*
X135162380Y-35505714D01*
X134162380Y-35505714D01*
X135162380Y-35981904D02*
X134162380Y-35981904D01*
X134162380Y-36220000D01*
X134210000Y-36362857D01*
X134305238Y-36458095D01*
X134400476Y-36505714D01*
X134590952Y-36553333D01*
X134733809Y-36553333D01*
X134924285Y-36505714D01*
X135019523Y-36458095D01*
X135114761Y-36362857D01*
X135162380Y-36220000D01*
X135162380Y-35981904D01*
X142701428Y-33598095D02*
X142701428Y-34360000D01*
X143082380Y-33979047D02*
X142320476Y-33979047D01*
X142082380Y-34740952D02*
X142082380Y-35360000D01*
X142463333Y-35026666D01*
X142463333Y-35169523D01*
X142510952Y-35264761D01*
X142558571Y-35312380D01*
X142653809Y-35360000D01*
X142891904Y-35360000D01*
X142987142Y-35312380D01*
X143034761Y-35264761D01*
X143082380Y-35169523D01*
X143082380Y-34883809D01*
X143034761Y-34788571D01*
X142987142Y-34740952D01*
X142082380Y-35645714D02*
X143082380Y-35979047D01*
X142082380Y-36312380D01*
X142082380Y-36550476D02*
X142082380Y-37169523D01*
X142463333Y-36836190D01*
X142463333Y-36979047D01*
X142510952Y-37074285D01*
X142558571Y-37121904D01*
X142653809Y-37169523D01*
X142891904Y-37169523D01*
X142987142Y-37121904D01*
X143034761Y-37074285D01*
X143082380Y-36979047D01*
X143082380Y-36693333D01*
X143034761Y-36598095D01*
X142987142Y-36550476D01*
X142981428Y-72418095D02*
X142981428Y-73180000D01*
X143362380Y-72799047D02*
X142600476Y-72799047D01*
X142362380Y-73560952D02*
X142362380Y-74180000D01*
X142743333Y-73846666D01*
X142743333Y-73989523D01*
X142790952Y-74084761D01*
X142838571Y-74132380D01*
X142933809Y-74180000D01*
X143171904Y-74180000D01*
X143267142Y-74132380D01*
X143314761Y-74084761D01*
X143362380Y-73989523D01*
X143362380Y-73703809D01*
X143314761Y-73608571D01*
X143267142Y-73560952D01*
X142362380Y-74465714D02*
X143362380Y-74799047D01*
X142362380Y-75132380D01*
X142362380Y-75370476D02*
X142362380Y-75989523D01*
X142743333Y-75656190D01*
X142743333Y-75799047D01*
X142790952Y-75894285D01*
X142838571Y-75941904D01*
X142933809Y-75989523D01*
X143171904Y-75989523D01*
X143267142Y-75941904D01*
X143314761Y-75894285D01*
X143362380Y-75799047D01*
X143362380Y-75513333D01*
X143314761Y-75418095D01*
X143267142Y-75370476D01*
X129181428Y-72418095D02*
X129181428Y-73180000D01*
X129562380Y-72799047D02*
X128800476Y-72799047D01*
X128562380Y-73560952D02*
X128562380Y-74180000D01*
X128943333Y-73846666D01*
X128943333Y-73989523D01*
X128990952Y-74084761D01*
X129038571Y-74132380D01*
X129133809Y-74180000D01*
X129371904Y-74180000D01*
X129467142Y-74132380D01*
X129514761Y-74084761D01*
X129562380Y-73989523D01*
X129562380Y-73703809D01*
X129514761Y-73608571D01*
X129467142Y-73560952D01*
X128562380Y-74465714D02*
X129562380Y-74799047D01*
X128562380Y-75132380D01*
X128562380Y-75370476D02*
X128562380Y-75989523D01*
X128943333Y-75656190D01*
X128943333Y-75799047D01*
X128990952Y-75894285D01*
X129038571Y-75941904D01*
X129133809Y-75989523D01*
X129371904Y-75989523D01*
X129467142Y-75941904D01*
X129514761Y-75894285D01*
X129562380Y-75799047D01*
X129562380Y-75513333D01*
X129514761Y-75418095D01*
X129467142Y-75370476D01*
X104831428Y-71468095D02*
X104831428Y-72230000D01*
X105212380Y-71849047D02*
X104450476Y-71849047D01*
X104212380Y-72610952D02*
X104212380Y-73230000D01*
X104593333Y-72896666D01*
X104593333Y-73039523D01*
X104640952Y-73134761D01*
X104688571Y-73182380D01*
X104783809Y-73230000D01*
X105021904Y-73230000D01*
X105117142Y-73182380D01*
X105164761Y-73134761D01*
X105212380Y-73039523D01*
X105212380Y-72753809D01*
X105164761Y-72658571D01*
X105117142Y-72610952D01*
X104212380Y-73515714D02*
X105212380Y-73849047D01*
X104212380Y-74182380D01*
X104212380Y-74420476D02*
X104212380Y-75039523D01*
X104593333Y-74706190D01*
X104593333Y-74849047D01*
X104640952Y-74944285D01*
X104688571Y-74991904D01*
X104783809Y-75039523D01*
X105021904Y-75039523D01*
X105117142Y-74991904D01*
X105164761Y-74944285D01*
X105212380Y-74849047D01*
X105212380Y-74563333D01*
X105164761Y-74468095D01*
X105117142Y-74420476D01*
X88681428Y-72658095D02*
X88681428Y-73420000D01*
X89062380Y-73039047D02*
X88300476Y-73039047D01*
X88062380Y-73800952D02*
X88062380Y-74420000D01*
X88443333Y-74086666D01*
X88443333Y-74229523D01*
X88490952Y-74324761D01*
X88538571Y-74372380D01*
X88633809Y-74420000D01*
X88871904Y-74420000D01*
X88967142Y-74372380D01*
X89014761Y-74324761D01*
X89062380Y-74229523D01*
X89062380Y-73943809D01*
X89014761Y-73848571D01*
X88967142Y-73800952D01*
X88062380Y-74705714D02*
X89062380Y-75039047D01*
X88062380Y-75372380D01*
X88062380Y-75610476D02*
X88062380Y-76229523D01*
X88443333Y-75896190D01*
X88443333Y-76039047D01*
X88490952Y-76134285D01*
X88538571Y-76181904D01*
X88633809Y-76229523D01*
X88871904Y-76229523D01*
X88967142Y-76181904D01*
X89014761Y-76134285D01*
X89062380Y-76039047D01*
X89062380Y-75753333D01*
X89014761Y-75658095D01*
X88967142Y-75610476D01*
X100231428Y-33588095D02*
X100231428Y-34350000D01*
X100612380Y-33969047D02*
X99850476Y-33969047D01*
X99612380Y-34730952D02*
X99612380Y-35350000D01*
X99993333Y-35016666D01*
X99993333Y-35159523D01*
X100040952Y-35254761D01*
X100088571Y-35302380D01*
X100183809Y-35350000D01*
X100421904Y-35350000D01*
X100517142Y-35302380D01*
X100564761Y-35254761D01*
X100612380Y-35159523D01*
X100612380Y-34873809D01*
X100564761Y-34778571D01*
X100517142Y-34730952D01*
X99612380Y-35635714D02*
X100612380Y-35969047D01*
X99612380Y-36302380D01*
X99612380Y-36540476D02*
X99612380Y-37159523D01*
X99993333Y-36826190D01*
X99993333Y-36969047D01*
X100040952Y-37064285D01*
X100088571Y-37111904D01*
X100183809Y-37159523D01*
X100421904Y-37159523D01*
X100517142Y-37111904D01*
X100564761Y-37064285D01*
X100612380Y-36969047D01*
X100612380Y-36683333D01*
X100564761Y-36588095D01*
X100517142Y-36540476D01*
X98114761Y-33699523D02*
X98162380Y-33842380D01*
X98162380Y-34080476D01*
X98114761Y-34175714D01*
X98067142Y-34223333D01*
X97971904Y-34270952D01*
X97876666Y-34270952D01*
X97781428Y-34223333D01*
X97733809Y-34175714D01*
X97686190Y-34080476D01*
X97638571Y-33890000D01*
X97590952Y-33794761D01*
X97543333Y-33747142D01*
X97448095Y-33699523D01*
X97352857Y-33699523D01*
X97257619Y-33747142D01*
X97210000Y-33794761D01*
X97162380Y-33890000D01*
X97162380Y-34128095D01*
X97210000Y-34270952D01*
X97638571Y-34699523D02*
X97638571Y-35032857D01*
X98162380Y-35175714D02*
X98162380Y-34699523D01*
X97162380Y-34699523D01*
X97162380Y-35175714D01*
X98162380Y-36175714D02*
X97686190Y-35842380D01*
X98162380Y-35604285D02*
X97162380Y-35604285D01*
X97162380Y-35985238D01*
X97210000Y-36080476D01*
X97257619Y-36128095D01*
X97352857Y-36175714D01*
X97495714Y-36175714D01*
X97590952Y-36128095D01*
X97638571Y-36080476D01*
X97686190Y-35985238D01*
X97686190Y-35604285D01*
X97162380Y-36461428D02*
X98162380Y-36794761D01*
X97162380Y-37128095D01*
X97162380Y-37651904D02*
X97162380Y-37842380D01*
X97210000Y-37937619D01*
X97305238Y-38032857D01*
X97495714Y-38080476D01*
X97829047Y-38080476D01*
X98019523Y-38032857D01*
X98114761Y-37937619D01*
X98162380Y-37842380D01*
X98162380Y-37651904D01*
X98114761Y-37556666D01*
X98019523Y-37461428D01*
X97829047Y-37413809D01*
X97495714Y-37413809D01*
X97305238Y-37461428D01*
X97210000Y-37556666D01*
X97162380Y-37651904D01*
X95422380Y-34353333D02*
X94946190Y-34020000D01*
X95422380Y-33781904D02*
X94422380Y-33781904D01*
X94422380Y-34162857D01*
X94470000Y-34258095D01*
X94517619Y-34305714D01*
X94612857Y-34353333D01*
X94755714Y-34353333D01*
X94850952Y-34305714D01*
X94898571Y-34258095D01*
X94946190Y-34162857D01*
X94946190Y-33781904D01*
X94422380Y-34686666D02*
X95422380Y-35353333D01*
X94422380Y-35353333D02*
X95422380Y-34686666D01*
X91772380Y-33678095D02*
X91772380Y-34249523D01*
X92772380Y-33963809D02*
X91772380Y-33963809D01*
X91772380Y-34487619D02*
X92772380Y-35154285D01*
X91772380Y-35154285D02*
X92772380Y-34487619D01*
X89280000Y-34328095D02*
X89232380Y-34232857D01*
X89232380Y-34090000D01*
X89280000Y-33947142D01*
X89375238Y-33851904D01*
X89470476Y-33804285D01*
X89660952Y-33756666D01*
X89803809Y-33756666D01*
X89994285Y-33804285D01*
X90089523Y-33851904D01*
X90184761Y-33947142D01*
X90232380Y-34090000D01*
X90232380Y-34185238D01*
X90184761Y-34328095D01*
X90137142Y-34375714D01*
X89803809Y-34375714D01*
X89803809Y-34185238D01*
X90232380Y-34804285D02*
X89232380Y-34804285D01*
X90232380Y-35375714D01*
X89232380Y-35375714D01*
X90232380Y-35851904D02*
X89232380Y-35851904D01*
X89232380Y-36090000D01*
X89280000Y-36232857D01*
X89375238Y-36328095D01*
X89470476Y-36375714D01*
X89660952Y-36423333D01*
X89803809Y-36423333D01*
X89994285Y-36375714D01*
X90089523Y-36328095D01*
X90184761Y-36232857D01*
X90232380Y-36090000D01*
X90232380Y-35851904D01*
X104530000Y-34038095D02*
X104482380Y-33942857D01*
X104482380Y-33800000D01*
X104530000Y-33657142D01*
X104625238Y-33561904D01*
X104720476Y-33514285D01*
X104910952Y-33466666D01*
X105053809Y-33466666D01*
X105244285Y-33514285D01*
X105339523Y-33561904D01*
X105434761Y-33657142D01*
X105482380Y-33800000D01*
X105482380Y-33895238D01*
X105434761Y-34038095D01*
X105387142Y-34085714D01*
X105053809Y-34085714D01*
X105053809Y-33895238D01*
X105482380Y-34514285D02*
X104482380Y-34514285D01*
X105482380Y-35085714D01*
X104482380Y-35085714D01*
X105482380Y-35561904D02*
X104482380Y-35561904D01*
X104482380Y-35800000D01*
X104530000Y-35942857D01*
X104625238Y-36038095D01*
X104720476Y-36085714D01*
X104910952Y-36133333D01*
X105053809Y-36133333D01*
X105244285Y-36085714D01*
X105339523Y-36038095D01*
X105434761Y-35942857D01*
X105482380Y-35800000D01*
X105482380Y-35561904D01*
X112721428Y-33288095D02*
X112721428Y-34050000D01*
X113102380Y-33669047D02*
X112340476Y-33669047D01*
X112102380Y-34430952D02*
X112102380Y-35050000D01*
X112483333Y-34716666D01*
X112483333Y-34859523D01*
X112530952Y-34954761D01*
X112578571Y-35002380D01*
X112673809Y-35050000D01*
X112911904Y-35050000D01*
X113007142Y-35002380D01*
X113054761Y-34954761D01*
X113102380Y-34859523D01*
X113102380Y-34573809D01*
X113054761Y-34478571D01*
X113007142Y-34430952D01*
X112102380Y-35335714D02*
X113102380Y-35669047D01*
X112102380Y-36002380D01*
X112102380Y-36240476D02*
X112102380Y-36859523D01*
X112483333Y-36526190D01*
X112483333Y-36669047D01*
X112530952Y-36764285D01*
X112578571Y-36811904D01*
X112673809Y-36859523D01*
X112911904Y-36859523D01*
X113007142Y-36811904D01*
X113054761Y-36764285D01*
X113102380Y-36669047D01*
X113102380Y-36383333D01*
X113054761Y-36288095D01*
X113007142Y-36240476D01*
X110711142Y-34169428D02*
X110758761Y-34121809D01*
X110806380Y-33978952D01*
X110806380Y-33883714D01*
X110758761Y-33740857D01*
X110663523Y-33645619D01*
X110568285Y-33598000D01*
X110377809Y-33550380D01*
X110234952Y-33550380D01*
X110044476Y-33598000D01*
X109949238Y-33645619D01*
X109854000Y-33740857D01*
X109806380Y-33883714D01*
X109806380Y-33978952D01*
X109854000Y-34121809D01*
X109901619Y-34169428D01*
X110520666Y-34550380D02*
X110520666Y-35026571D01*
X110806380Y-34455142D02*
X109806380Y-34788476D01*
X110806380Y-35121809D01*
X110806380Y-35455142D02*
X109806380Y-35455142D01*
X110806380Y-36026571D01*
X109806380Y-36026571D01*
X110901619Y-36264666D02*
X110901619Y-37026571D01*
X110806380Y-37740857D02*
X110806380Y-37264666D01*
X109806380Y-37264666D01*
X108171142Y-34050380D02*
X108218761Y-34002761D01*
X108266380Y-33859904D01*
X108266380Y-33764666D01*
X108218761Y-33621809D01*
X108123523Y-33526571D01*
X108028285Y-33478952D01*
X107837809Y-33431333D01*
X107694952Y-33431333D01*
X107504476Y-33478952D01*
X107409238Y-33526571D01*
X107314000Y-33621809D01*
X107266380Y-33764666D01*
X107266380Y-33859904D01*
X107314000Y-34002761D01*
X107361619Y-34050380D01*
X107980666Y-34431333D02*
X107980666Y-34907523D01*
X108266380Y-34336095D02*
X107266380Y-34669428D01*
X108266380Y-35002761D01*
X108266380Y-35336095D02*
X107266380Y-35336095D01*
X108266380Y-35907523D01*
X107266380Y-35907523D01*
X108361619Y-36145619D02*
X108361619Y-36907523D01*
X108266380Y-37145619D02*
X107266380Y-37145619D01*
X107742571Y-37145619D02*
X107742571Y-37717047D01*
X108266380Y-37717047D02*
X107266380Y-37717047D01*
M02*
