%TF.GenerationSoftware,KiCad,Pcbnew,5.1.9-73d0e3b20d~88~ubuntu20.04.1*%
%TF.CreationDate,2021-01-12T21:49:49+00:00*%
%TF.ProjectId,driva-x2,64726976-612d-4783-922e-6b696361645f,rev?*%
%TF.SameCoordinates,Original*%
%TF.FileFunction,Copper,L3,Inr*%
%TF.FilePolarity,Positive*%
%FSLAX46Y46*%
G04 Gerber Fmt 4.6, Leading zero omitted, Abs format (unit mm)*
G04 Created by KiCad (PCBNEW 5.1.9-73d0e3b20d~88~ubuntu20.04.1) date 2021-01-12 21:49:49*
%MOMM*%
%LPD*%
G01*
G04 APERTURE LIST*
%TA.AperFunction,ComponentPad*%
%ADD10R,2.000000X2.000000*%
%TD*%
%TA.AperFunction,ComponentPad*%
%ADD11C,2.000000*%
%TD*%
%TA.AperFunction,ComponentPad*%
%ADD12C,6.400000*%
%TD*%
%TA.AperFunction,ComponentPad*%
%ADD13C,0.800000*%
%TD*%
%TA.AperFunction,ComponentPad*%
%ADD14O,1.700000X1.700000*%
%TD*%
%TA.AperFunction,ComponentPad*%
%ADD15R,1.700000X1.700000*%
%TD*%
%TA.AperFunction,ComponentPad*%
%ADD16O,1.050000X1.900000*%
%TD*%
%TA.AperFunction,ComponentPad*%
%ADD17O,3.960000X1.980000*%
%TD*%
%TA.AperFunction,ComponentPad*%
%ADD18R,3.960000X1.980000*%
%TD*%
%TA.AperFunction,ComponentPad*%
%ADD19R,1.980000X3.960000*%
%TD*%
%TA.AperFunction,ComponentPad*%
%ADD20O,1.980000X3.960000*%
%TD*%
%TA.AperFunction,ViaPad*%
%ADD21C,0.800000*%
%TD*%
%TA.AperFunction,Conductor*%
%ADD22C,0.300000*%
%TD*%
%TA.AperFunction,Conductor*%
%ADD23C,0.250000*%
%TD*%
%TA.AperFunction,Conductor*%
%ADD24C,0.254000*%
%TD*%
%TA.AperFunction,Conductor*%
%ADD25C,0.100000*%
%TD*%
G04 APERTURE END LIST*
D10*
%TO.N,VCC*%
%TO.C,C11*%
X114450000Y-69225000D03*
D11*
%TO.N,GND*%
X109450000Y-69225000D03*
%TD*%
D12*
%TO.N,N/C*%
%TO.C,H1*%
X76000000Y-34000000D03*
D13*
X78400000Y-34000000D03*
X77697056Y-35697056D03*
X76000000Y-36400000D03*
X74302944Y-35697056D03*
X73600000Y-34000000D03*
X74302944Y-32302944D03*
X76000000Y-31600000D03*
X77697056Y-32302944D03*
%TD*%
%TO.N,N/C*%
%TO.C,H2*%
X149697056Y-32302944D03*
X148000000Y-31600000D03*
X146302944Y-32302944D03*
X145600000Y-34000000D03*
X146302944Y-35697056D03*
X148000000Y-36400000D03*
X149697056Y-35697056D03*
X150400000Y-34000000D03*
D12*
X148000000Y-34000000D03*
%TD*%
%TO.N,N/C*%
%TO.C,H3*%
X148000000Y-105800000D03*
D13*
X150400000Y-105800000D03*
X149697056Y-107497056D03*
X148000000Y-108200000D03*
X146302944Y-107497056D03*
X145600000Y-105800000D03*
X146302944Y-104102944D03*
X148000000Y-103400000D03*
X149697056Y-104102944D03*
%TD*%
%TO.N,N/C*%
%TO.C,H4*%
X77897056Y-104102944D03*
X76200000Y-103400000D03*
X74502944Y-104102944D03*
X73800000Y-105800000D03*
X74502944Y-107497056D03*
X76200000Y-108200000D03*
X77897056Y-107497056D03*
X78600000Y-105800000D03*
D12*
X76200000Y-105800000D03*
%TD*%
D14*
%TO.N,+3V3*%
%TO.C,J1*%
X75000000Y-76660000D03*
%TO.N,/mcu/HALL_W1*%
X75000000Y-74120000D03*
%TO.N,/mcu/HALL_V1*%
X75000000Y-71580000D03*
%TO.N,/mcu/HALL_U1*%
X75000000Y-69040000D03*
D15*
%TO.N,GND*%
X75000000Y-66500000D03*
%TD*%
%TO.N,/mcu/SWO*%
%TO.C,J2*%
X120900000Y-106600000D03*
D14*
%TO.N,/mcu/SWCLK*%
X123440000Y-106600000D03*
%TO.N,GND*%
X125980000Y-106600000D03*
%TO.N,/mcu/SWDIO*%
X128520000Y-106600000D03*
%TD*%
D16*
%TO.N,GND*%
%TO.C,J3*%
X109225000Y-106600000D03*
X116375000Y-106600000D03*
%TD*%
D17*
%TO.N,/driver-1/OUT_U*%
%TO.C,J4*%
X78600000Y-45900000D03*
%TO.N,/driver-1/OUT_V*%
X78600000Y-50900000D03*
D18*
%TO.N,/driver-1/OUT_W*%
X78600000Y-55900000D03*
%TD*%
D15*
%TO.N,GND*%
%TO.C,J5*%
X133520000Y-106600000D03*
D14*
%TO.N,/mcu/USART1_TX*%
X136060000Y-106600000D03*
%TO.N,/mcu/USART1_RX*%
X138600000Y-106600000D03*
%TO.N,+3V3*%
X141140000Y-106600000D03*
%TD*%
D18*
%TO.N,/driver-2/OUT_W*%
%TO.C,J6*%
X145700000Y-55900000D03*
D17*
%TO.N,/driver-2/OUT_V*%
X145700000Y-50900000D03*
%TO.N,/driver-2/OUT_U*%
X145700000Y-45900000D03*
%TD*%
D14*
%TO.N,+3V3*%
%TO.C,J7*%
X75000000Y-96000000D03*
%TO.N,SPI3_SCLK*%
X75000000Y-93460000D03*
%TO.N,SPI3_MISO*%
X75000000Y-90920000D03*
%TO.N,SPI3_MOSI*%
X75000000Y-88380000D03*
%TO.N,/mcu/SPI3_SS1*%
X75000000Y-85840000D03*
D15*
%TO.N,GND*%
X75000000Y-83300000D03*
%TD*%
%TO.N,GND*%
%TO.C,J8*%
X149200000Y-95800000D03*
D14*
%TO.N,/mcu/SPI3_SS2*%
X149200000Y-93260000D03*
%TO.N,SPI3_MOSI*%
X149200000Y-90720000D03*
%TO.N,SPI3_MISO*%
X149200000Y-88180000D03*
%TO.N,SPI3_SCLK*%
X149200000Y-85640000D03*
%TO.N,+3V3*%
X149200000Y-83100000D03*
%TD*%
D15*
%TO.N,GND*%
%TO.C,J9*%
X149200000Y-76620000D03*
D14*
%TO.N,/mcu/HALL_U2*%
X149200000Y-74080000D03*
%TO.N,/mcu/HALL_V2*%
X149200000Y-71540000D03*
%TO.N,/mcu/HALL_W2*%
X149200000Y-69000000D03*
%TO.N,+3V3*%
X149200000Y-66460000D03*
%TD*%
%TO.N,+3V3*%
%TO.C,J10*%
X90420000Y-106300000D03*
%TO.N,/mcu/CAN_H*%
X87880000Y-106300000D03*
%TO.N,/mcu/CAN_L*%
X85340000Y-106300000D03*
D15*
%TO.N,GND*%
X82800000Y-106300000D03*
%TD*%
D19*
%TO.N,GND*%
%TO.C,J11*%
X110000000Y-36400000D03*
D20*
%TO.N,VCC*%
X115000000Y-36400000D03*
%TD*%
D21*
%TO.N,GND*%
X132400000Y-44300000D03*
X118700000Y-88500000D03*
X113400000Y-98600000D03*
X86300000Y-89100000D03*
X99800000Y-105300000D03*
X96300000Y-104900000D03*
X100900000Y-88700000D03*
X108700000Y-78400000D03*
X126700000Y-88500000D03*
X126800000Y-86900000D03*
X128500000Y-86100000D03*
X124900000Y-85700000D03*
X124200000Y-58900000D03*
X97900000Y-30949990D03*
X104700000Y-34600000D03*
X118900000Y-39900000D03*
X118800000Y-46200000D03*
X104600000Y-62900000D03*
X101000000Y-75500000D03*
X105200000Y-77300000D03*
X115000000Y-75800000D03*
X116300000Y-78300000D03*
X119000000Y-66300000D03*
X104500000Y-41500000D03*
X104900000Y-48900000D03*
X99900000Y-56200000D03*
X103200000Y-54800000D03*
X99600000Y-69500000D03*
X98400000Y-69500000D03*
X120200000Y-73100000D03*
X118700000Y-52800000D03*
X115000000Y-94200000D03*
X116000000Y-80800000D03*
X96400000Y-67900000D03*
X96300000Y-69000000D03*
X96300000Y-66500000D03*
X97300000Y-69400000D03*
X122400000Y-59300000D03*
X126000000Y-59300000D03*
X125200000Y-58400000D03*
X123200000Y-58400000D03*
X124000000Y-44700000D03*
X125200000Y-45200000D03*
X126000000Y-45900000D03*
X124200000Y-45900000D03*
X122500000Y-46000000D03*
X123200000Y-45400000D03*
X122000000Y-32700000D03*
X122000000Y-31800000D03*
X123400000Y-31800000D03*
X124900000Y-31700000D03*
X126200000Y-31700000D03*
X126200000Y-32800000D03*
X124100000Y-32800000D03*
X96200000Y-40000000D03*
X96200000Y-41200000D03*
X96100000Y-42600000D03*
X97600000Y-42900000D03*
X99300000Y-43100000D03*
X100900000Y-43000000D03*
X96100000Y-52600000D03*
X96100000Y-54200000D03*
X96300000Y-55200000D03*
X97300000Y-56200000D03*
X98700000Y-56400000D03*
X100300000Y-57300000D03*
X120700000Y-60100000D03*
X119600000Y-60400000D03*
X120200000Y-47300000D03*
X120900000Y-46800000D03*
X104200000Y-55100000D03*
X103000000Y-41400000D03*
X122300000Y-71600000D03*
X123500000Y-71600000D03*
X86200000Y-76600000D03*
X93400000Y-77500000D03*
X94800000Y-77500000D03*
X87000000Y-91800000D03*
X81500000Y-101300000D03*
X82500000Y-102300000D03*
X101200000Y-101600000D03*
X132100000Y-104600000D03*
X108200000Y-74200000D03*
X107700000Y-75900000D03*
X79500000Y-87100000D03*
X144200000Y-93900000D03*
X122000000Y-88800000D03*
X133000000Y-57600000D03*
X78600000Y-39600000D03*
X73700000Y-51100000D03*
X78200000Y-60300000D03*
X90800000Y-57800000D03*
X89100000Y-44200000D03*
X96500000Y-62100000D03*
X95900000Y-47800000D03*
X96200000Y-35100000D03*
X127700000Y-35500000D03*
X127500000Y-39200000D03*
%TO.N,VCC*%
X106175000Y-73325000D03*
X111300000Y-75900000D03*
%TO.N,+3V3*%
X86400000Y-74850000D03*
X137800000Y-91400000D03*
X141950000Y-81150000D03*
X145300000Y-72500000D03*
X114900000Y-99900000D03*
X122500000Y-82900000D03*
X113640000Y-79940000D03*
X106700000Y-82300000D03*
X105700000Y-82200000D03*
X84000000Y-92400000D03*
X81700000Y-98300000D03*
X103180000Y-94720000D03*
X102300000Y-95600000D03*
X102812500Y-105412500D03*
X118150000Y-95250000D03*
X116800000Y-95000000D03*
X76700000Y-70200000D03*
X132300000Y-94300000D03*
%TO.N,BOOT0*%
X112100000Y-97200000D03*
X137220000Y-83080000D03*
%TO.N,/mcu/SWCLK*%
X105500000Y-98400000D03*
X91900000Y-94200000D03*
%TO.N,/mcu/SWDIO*%
X109100000Y-94000000D03*
%TO.N,/mcu/USART1_RX*%
X113000000Y-94000000D03*
X118400000Y-101400000D03*
%TO.N,/mcu/USART1_TX*%
X111750000Y-93950000D03*
X118600000Y-102500000D03*
%TO.N,/mcu/SPI3_SS1*%
X111600000Y-92000000D03*
X100700000Y-84300000D03*
%TO.N,/mcu/USB_OTG_FS_DL*%
X110000000Y-93307120D03*
X114100000Y-101100000D03*
%TO.N,/mcu/USB_OTG_FS_DM*%
X109650000Y-91750000D03*
X111900000Y-100500000D03*
%TO.N,/driver-2/SENSE_U*%
X127400000Y-47800000D03*
X113200000Y-90800000D03*
X120300000Y-42600000D03*
%TO.N,/driver-2/SENSE_V*%
X114100000Y-90000000D03*
X119000000Y-55500000D03*
%TO.N,/driver-2/SENSE_W*%
X114900000Y-88900000D03*
X119000000Y-68900000D03*
%TO.N,/driver-1/SENSE_U*%
X103350000Y-33200000D03*
X118600000Y-78400000D03*
X113000000Y-46300000D03*
%TO.N,Net-(C48-Pad1)*%
X103075000Y-38325000D03*
%TO.N,/driver-1/SENSE_V*%
X103200000Y-46400000D03*
X110400000Y-52100000D03*
X117350000Y-78350000D03*
%TO.N,/driver-1/SENSE_W*%
X103900000Y-60000000D03*
X107500000Y-93900000D03*
%TO.N,/mcu/SWO*%
X109600000Y-100300000D03*
%TO.N,SPI3_SCLK*%
X106600000Y-98400000D03*
X91600000Y-95600000D03*
X137800000Y-95800000D03*
%TO.N,SPI3_MISO*%
X108900000Y-98400000D03*
X138100000Y-97700000D03*
%TO.N,SPI3_MOSI*%
X107800000Y-98400000D03*
X137900000Y-99200000D03*
%TO.N,/driver-2/IN_U*%
X119200000Y-35400000D03*
X108200000Y-88800000D03*
%TO.N,/driver-2/EN_U*%
X119200000Y-36400000D03*
X115950000Y-77150000D03*
%TO.N,/driver-2/IN_V*%
X119000000Y-48500000D03*
X111600000Y-89000000D03*
%TO.N,/driver-2/EN_V*%
X119000000Y-49500000D03*
X101950000Y-87250000D03*
X111800000Y-41200000D03*
%TO.N,/driver-2/IN_W*%
X119000000Y-61900000D03*
X112800000Y-89700000D03*
%TO.N,/driver-2/EN_W*%
X119000000Y-62900000D03*
X108550000Y-87750000D03*
X102900000Y-88700000D03*
X113000000Y-62700000D03*
%TO.N,/driver-1/IN_U*%
X99500000Y-89300000D03*
X104700000Y-40300000D03*
%TO.N,/driver-1/EN_U*%
X104700000Y-39300000D03*
X109800000Y-76500000D03*
%TO.N,/driver-1/IN_V*%
X97800000Y-89600000D03*
X105000000Y-53400000D03*
%TO.N,/driver-1/EN_V*%
X105200000Y-52400000D03*
X108800000Y-76800000D03*
%TO.N,/driver-1/IN_W*%
X94600000Y-90300000D03*
X94400000Y-83400000D03*
%TO.N,/driver-1/EN_W*%
X110100000Y-82300000D03*
X107512954Y-69487046D03*
%TO.N,/imu/INT*%
X112900000Y-86200000D03*
X136000000Y-94800000D03*
%TO.N,/mcu/HALL_W1*%
X110100000Y-87800000D03*
X95700000Y-81700000D03*
%TO.N,/mcu/HALL_V1*%
X111100000Y-87900000D03*
X97299980Y-81900000D03*
%TO.N,/mcu/HALL_U1*%
X112300000Y-87900000D03*
X97400000Y-80500000D03*
%TO.N,/mcu/HALL_U2*%
X127200000Y-77500000D03*
X107900000Y-79100000D03*
%TO.N,/mcu/HALL_V2*%
X126600000Y-76700000D03*
X106900000Y-79100000D03*
%TO.N,/mcu/HALL_W2*%
X127200000Y-75800000D03*
X111900000Y-90800000D03*
%TO.N,/mcu/I2C1_SCL*%
X128800000Y-101100000D03*
X131000000Y-87400000D03*
%TO.N,/mcu/I2C1_SDA*%
X129000000Y-100000000D03*
X132500000Y-88200000D03*
%TD*%
D22*
%TO.N,+3V3*%
X117637500Y-83937500D02*
X113640000Y-79940000D01*
X121437500Y-83937500D02*
X117637500Y-83937500D01*
X109060000Y-79940000D02*
X106700000Y-82300000D01*
X113640000Y-79940000D02*
X109060000Y-79940000D01*
D23*
X121437500Y-83862500D02*
X122400000Y-82900000D01*
X121437500Y-83937500D02*
X121437500Y-83862500D01*
D22*
%TO.N,/mcu/SWDIO*%
X109650001Y-98760001D02*
X109650001Y-94550001D01*
X109650001Y-94550001D02*
X109100000Y-94000000D01*
X108849999Y-99560003D02*
X109650001Y-98760001D01*
X108849999Y-100660001D02*
X108849999Y-99560003D01*
X113489988Y-105299990D02*
X108849999Y-100660001D01*
X127219990Y-105299990D02*
X113489988Y-105299990D01*
X128520000Y-106600000D02*
X127219990Y-105299990D01*
%TO.N,/mcu/USART1_RX*%
X118400000Y-101400000D02*
X112900000Y-95900000D01*
X112900000Y-94100000D02*
X113000000Y-94000000D01*
X112900000Y-95900000D02*
X112900000Y-94100000D01*
%TO.N,/mcu/USART1_TX*%
X111750000Y-93950000D02*
X111750000Y-95550000D01*
X118034315Y-102500000D02*
X118600000Y-102500000D01*
X117649999Y-101449999D02*
X117649999Y-102115684D01*
X117649999Y-102115684D02*
X118034315Y-102500000D01*
X111750000Y-95550000D02*
X117649999Y-101449999D01*
%TO.N,/mcu/SPI3_SS1*%
X110599999Y-90999999D02*
X107399999Y-90999999D01*
X111600000Y-92000000D02*
X110599999Y-90999999D01*
X107399999Y-90999999D02*
X100700000Y-84300000D01*
X100700000Y-84300000D02*
X100700000Y-84300000D01*
%TO.N,/mcu/USB_OTG_FS_DL*%
X113700001Y-101499999D02*
X111799999Y-101499999D01*
X114100000Y-101100000D02*
X113700001Y-101499999D01*
X110400001Y-93707121D02*
X110000000Y-93307120D01*
X110400001Y-100100001D02*
X110400001Y-93707121D01*
X111799999Y-101499999D02*
X110400001Y-100100001D01*
%TO.N,/mcu/USB_OTG_FS_DM*%
X110900011Y-93000011D02*
X109650000Y-91750000D01*
X110900011Y-99500011D02*
X110900011Y-93000011D01*
X111900000Y-100500000D02*
X110900011Y-99500011D01*
%TO.N,/driver-1/SENSE_U*%
X103350000Y-36677195D02*
X112500000Y-45827195D01*
X103350000Y-33200000D02*
X103350000Y-36677195D01*
X112500000Y-45827195D02*
X112527195Y-45827195D01*
X112527195Y-45827195D02*
X112700000Y-46000000D01*
X112700000Y-46000000D02*
X113000000Y-46300000D01*
X113000000Y-46300000D02*
X113000000Y-46300000D01*
%TO.N,/driver-1/SENSE_V*%
X103200000Y-46400000D02*
X104700000Y-46400000D01*
X104700000Y-46400000D02*
X110400000Y-52100000D01*
X110400000Y-52100000D02*
X110400000Y-52100000D01*
%TO.N,/driver-2/EN_V*%
X118889998Y-49500000D02*
X119000000Y-49500000D01*
X111800000Y-42410002D02*
X118889998Y-49500000D01*
X111800000Y-41200000D02*
X111800000Y-42410002D01*
%TO.N,/driver-2/EN_W*%
X118800000Y-62700000D02*
X119000000Y-62900000D01*
X113000000Y-62700000D02*
X118800000Y-62700000D01*
%TO.N,/driver-1/EN_U*%
X105265685Y-39300000D02*
X104700000Y-39300000D01*
X111800019Y-45834334D02*
X105265685Y-39300000D01*
X111800019Y-69580103D02*
X111800019Y-45834334D01*
X109600000Y-71780122D02*
X111800019Y-69580103D01*
X109600000Y-76300000D02*
X109600000Y-71780122D01*
X109800000Y-76500000D02*
X109600000Y-76300000D01*
%TO.N,/driver-1/EN_V*%
X111300009Y-69372993D02*
X111300009Y-58500009D01*
X111300009Y-58500009D02*
X105200000Y-52400000D01*
X109000000Y-71673002D02*
X111300009Y-69372993D01*
X109000000Y-76800000D02*
X109000000Y-71673002D01*
%TO.N,/mcu/HALL_W1*%
X96650001Y-82650001D02*
X101142881Y-82650001D01*
X101142881Y-82650001D02*
X105092880Y-86600000D01*
X95700000Y-81700000D02*
X96650001Y-82650001D01*
X108900000Y-86600000D02*
X110100000Y-87800000D01*
X105092880Y-86600000D02*
X108900000Y-86600000D01*
%TO.N,/mcu/HALL_V1*%
X97299980Y-81900000D02*
X101100000Y-81900000D01*
X101100000Y-81900000D02*
X105200000Y-86000000D01*
X111100000Y-87334315D02*
X111100000Y-87900000D01*
X109765685Y-86000000D02*
X111100000Y-87334315D01*
X105200000Y-86000000D02*
X109765685Y-86000000D01*
%TO.N,/mcu/HALL_U1*%
X97400000Y-80500000D02*
X100500000Y-80500000D01*
X110465675Y-85499990D02*
X112300000Y-87334315D01*
X105499990Y-85499990D02*
X110465675Y-85499990D01*
X112300000Y-87334315D02*
X112300000Y-87900000D01*
X100500000Y-80500000D02*
X105499990Y-85499990D01*
%TO.N,/mcu/HALL_U2*%
X107989999Y-79189999D02*
X115189999Y-79189999D01*
X107900000Y-79100000D02*
X107989999Y-79189999D01*
X115189999Y-79189999D02*
X115800000Y-79800000D01*
X124900000Y-79800000D02*
X127200000Y-77500000D01*
X115800000Y-79800000D02*
X124900000Y-79800000D01*
%TO.N,/mcu/HALL_V2*%
X108239999Y-77649999D02*
X109549999Y-77649999D01*
X107149999Y-78739999D02*
X108239999Y-77649999D01*
X107149999Y-79050001D02*
X107149999Y-78739999D01*
X107100000Y-79100000D02*
X107149999Y-79050001D01*
X106900000Y-79100000D02*
X107100000Y-79100000D01*
X109549999Y-77649999D02*
X110589989Y-78689989D01*
X110589989Y-78689989D02*
X115489989Y-78689989D01*
X124149999Y-79150001D02*
X126600000Y-76700000D01*
X115950001Y-79150001D02*
X124149999Y-79150001D01*
X115489989Y-78689989D02*
X115950001Y-79150001D01*
%TO.N,/mcu/HALL_W2*%
X112650001Y-91550001D02*
X114449999Y-91550001D01*
X111900000Y-90800000D02*
X112650001Y-91550001D01*
X127950001Y-76550001D02*
X127200000Y-75800000D01*
X127950001Y-78535001D02*
X127950001Y-76550001D01*
X121797501Y-84687501D02*
X127950001Y-78535001D01*
X121312499Y-84687501D02*
X121797501Y-84687501D01*
X114449999Y-91550001D02*
X121312499Y-84687501D01*
%TO.N,/mcu/I2C1_SCL*%
X128249999Y-100549999D02*
X128800000Y-101100000D01*
X128249999Y-89584316D02*
X128249999Y-100549999D01*
X130434315Y-87400000D02*
X128249999Y-89584316D01*
X131000000Y-87400000D02*
X130434315Y-87400000D01*
%TO.N,/mcu/I2C1_SDA*%
X132450001Y-88150001D02*
X132500000Y-88200000D01*
X130949999Y-88150001D02*
X132450001Y-88150001D01*
X129000000Y-90100000D02*
X130949999Y-88150001D01*
X129000000Y-100000000D02*
X129000000Y-90100000D01*
%TD*%
D24*
%TO.N,GND*%
X83139088Y-72400000D02*
X83141528Y-72424776D01*
X83148755Y-72448601D01*
X83160491Y-72470557D01*
X83176285Y-72489803D01*
X83195531Y-72505597D01*
X83217487Y-72517333D01*
X83241312Y-72524560D01*
X83266088Y-72527000D01*
X105509289Y-72527000D01*
X105371063Y-72665226D01*
X105257795Y-72834744D01*
X105179774Y-73023102D01*
X105140000Y-73223061D01*
X105140000Y-73426939D01*
X105179774Y-73626898D01*
X105257795Y-73815256D01*
X105371063Y-73984774D01*
X105515226Y-74128937D01*
X105684744Y-74242205D01*
X105873102Y-74320226D01*
X106073061Y-74360000D01*
X106276939Y-74360000D01*
X106476898Y-74320226D01*
X106665256Y-74242205D01*
X106834774Y-74128937D01*
X106978937Y-73984774D01*
X107039088Y-73894751D01*
X107039088Y-75200000D01*
X107041528Y-75224776D01*
X107048755Y-75248601D01*
X107060491Y-75270557D01*
X107076285Y-75289803D01*
X107095531Y-75305597D01*
X107117487Y-75317333D01*
X107141312Y-75324560D01*
X107166088Y-75327000D01*
X108215000Y-75327000D01*
X108215000Y-75946101D01*
X108140226Y-75996063D01*
X107996063Y-76140226D01*
X107882795Y-76309744D01*
X107804774Y-76498102D01*
X107765000Y-76698061D01*
X107765000Y-76901939D01*
X107785925Y-77007137D01*
X107682235Y-77092235D01*
X107657652Y-77122189D01*
X106694177Y-78085664D01*
X106598102Y-78104774D01*
X106409744Y-78182795D01*
X106240226Y-78296063D01*
X106096063Y-78440226D01*
X105982795Y-78609744D01*
X105904774Y-78798102D01*
X105865000Y-78998061D01*
X105865000Y-79201939D01*
X105904774Y-79401898D01*
X105982795Y-79590256D01*
X106096063Y-79759774D01*
X106240226Y-79903937D01*
X106409744Y-80017205D01*
X106598102Y-80095226D01*
X106798061Y-80135000D01*
X107001939Y-80135000D01*
X107201898Y-80095226D01*
X107390256Y-80017205D01*
X107400000Y-80010694D01*
X107409744Y-80017205D01*
X107598102Y-80095226D01*
X107762013Y-80127830D01*
X106624843Y-81265000D01*
X106598061Y-81265000D01*
X106398102Y-81304774D01*
X106290102Y-81349510D01*
X106190256Y-81282795D01*
X106001898Y-81204774D01*
X105801939Y-81165000D01*
X105598061Y-81165000D01*
X105398102Y-81204774D01*
X105209744Y-81282795D01*
X105040226Y-81396063D01*
X104896063Y-81540226D01*
X104782795Y-81709744D01*
X104704774Y-81898102D01*
X104665000Y-82098061D01*
X104665000Y-82301939D01*
X104704774Y-82501898D01*
X104782795Y-82690256D01*
X104896063Y-82859774D01*
X105040226Y-83003937D01*
X105209744Y-83117205D01*
X105398102Y-83195226D01*
X105598061Y-83235000D01*
X105801939Y-83235000D01*
X106001898Y-83195226D01*
X106109898Y-83150490D01*
X106209744Y-83217205D01*
X106398102Y-83295226D01*
X106598061Y-83335000D01*
X106801939Y-83335000D01*
X107001898Y-83295226D01*
X107190256Y-83217205D01*
X107359774Y-83103937D01*
X107503937Y-82959774D01*
X107617205Y-82790256D01*
X107695226Y-82601898D01*
X107735000Y-82401939D01*
X107735000Y-82375157D01*
X107912096Y-82198061D01*
X109065000Y-82198061D01*
X109065000Y-82401939D01*
X109104774Y-82601898D01*
X109182795Y-82790256D01*
X109296063Y-82959774D01*
X109440226Y-83103937D01*
X109609744Y-83217205D01*
X109798102Y-83295226D01*
X109998061Y-83335000D01*
X110201939Y-83335000D01*
X110401898Y-83295226D01*
X110590256Y-83217205D01*
X110759774Y-83103937D01*
X110903937Y-82959774D01*
X111017205Y-82790256D01*
X111095226Y-82601898D01*
X111135000Y-82401939D01*
X111135000Y-82198061D01*
X111095226Y-81998102D01*
X111017205Y-81809744D01*
X110903937Y-81640226D01*
X110759774Y-81496063D01*
X110590256Y-81382795D01*
X110401898Y-81304774D01*
X110201939Y-81265000D01*
X109998061Y-81265000D01*
X109798102Y-81304774D01*
X109609744Y-81382795D01*
X109440226Y-81496063D01*
X109296063Y-81640226D01*
X109182795Y-81809744D01*
X109104774Y-81998102D01*
X109065000Y-82198061D01*
X107912096Y-82198061D01*
X109385158Y-80725000D01*
X112961289Y-80725000D01*
X112980226Y-80743937D01*
X113149744Y-80857205D01*
X113338102Y-80935226D01*
X113538061Y-80975000D01*
X113564843Y-80975000D01*
X117055153Y-84465310D01*
X117079736Y-84495264D01*
X117199267Y-84593362D01*
X117335640Y-84666254D01*
X117483613Y-84711142D01*
X117558526Y-84718520D01*
X117598939Y-84722500D01*
X117598944Y-84722500D01*
X117637500Y-84726297D01*
X117676056Y-84722500D01*
X120167343Y-84722500D01*
X115935000Y-88954843D01*
X115935000Y-88798061D01*
X115895226Y-88598102D01*
X115817205Y-88409744D01*
X115703937Y-88240226D01*
X115559774Y-88096063D01*
X115390256Y-87982795D01*
X115201898Y-87904774D01*
X115001939Y-87865000D01*
X114798061Y-87865000D01*
X114598102Y-87904774D01*
X114409744Y-87982795D01*
X114240226Y-88096063D01*
X114096063Y-88240226D01*
X113982795Y-88409744D01*
X113904774Y-88598102D01*
X113865000Y-88798061D01*
X113865000Y-88991467D01*
X113798102Y-89004774D01*
X113627474Y-89075451D01*
X113603937Y-89040226D01*
X113459774Y-88896063D01*
X113290256Y-88782795D01*
X113101898Y-88704774D01*
X112982656Y-88681055D01*
X113103937Y-88559774D01*
X113217205Y-88390256D01*
X113295226Y-88201898D01*
X113335000Y-88001939D01*
X113335000Y-87798061D01*
X113295226Y-87598102D01*
X113217205Y-87409744D01*
X113103937Y-87240226D01*
X113082656Y-87218945D01*
X113201898Y-87195226D01*
X113390256Y-87117205D01*
X113559774Y-87003937D01*
X113703937Y-86859774D01*
X113817205Y-86690256D01*
X113895226Y-86501898D01*
X113935000Y-86301939D01*
X113935000Y-86098061D01*
X113895226Y-85898102D01*
X113817205Y-85709744D01*
X113703937Y-85540226D01*
X113559774Y-85396063D01*
X113390256Y-85282795D01*
X113201898Y-85204774D01*
X113001939Y-85165000D01*
X112798061Y-85165000D01*
X112598102Y-85204774D01*
X112409744Y-85282795D01*
X112240226Y-85396063D01*
X112096063Y-85540226D01*
X111982795Y-85709744D01*
X111925034Y-85849191D01*
X111048020Y-84972178D01*
X111023439Y-84942226D01*
X110903908Y-84844128D01*
X110767535Y-84771236D01*
X110619562Y-84726349D01*
X110504236Y-84714990D01*
X110504228Y-84714990D01*
X110465675Y-84711193D01*
X110427122Y-84714990D01*
X105825147Y-84714990D01*
X101082347Y-79972190D01*
X101057764Y-79942236D01*
X100938233Y-79844138D01*
X100801860Y-79771246D01*
X100653887Y-79726359D01*
X100538561Y-79715000D01*
X100538553Y-79715000D01*
X100500000Y-79711203D01*
X100461447Y-79715000D01*
X98078711Y-79715000D01*
X98059774Y-79696063D01*
X97890256Y-79582795D01*
X97701898Y-79504774D01*
X97501939Y-79465000D01*
X97298061Y-79465000D01*
X97098102Y-79504774D01*
X96909744Y-79582795D01*
X96740226Y-79696063D01*
X96596063Y-79840226D01*
X96482795Y-80009744D01*
X96404774Y-80198102D01*
X96365000Y-80398061D01*
X96365000Y-80601939D01*
X96404774Y-80801898D01*
X96482795Y-80990256D01*
X96588225Y-81148044D01*
X96580884Y-81155385D01*
X96503937Y-81040226D01*
X96359774Y-80896063D01*
X96190256Y-80782795D01*
X96001898Y-80704774D01*
X95801939Y-80665000D01*
X95598061Y-80665000D01*
X95398102Y-80704774D01*
X95209744Y-80782795D01*
X95040226Y-80896063D01*
X94896063Y-81040226D01*
X94782795Y-81209744D01*
X94704774Y-81398102D01*
X94665000Y-81598061D01*
X94665000Y-81801939D01*
X94704774Y-82001898D01*
X94782795Y-82190256D01*
X94896063Y-82359774D01*
X95040226Y-82503937D01*
X95209744Y-82617205D01*
X95398102Y-82695226D01*
X95598061Y-82735000D01*
X95624842Y-82735000D01*
X96067658Y-83177816D01*
X96092237Y-83207765D01*
X96122185Y-83232343D01*
X96122188Y-83232346D01*
X96151560Y-83256451D01*
X96211768Y-83305863D01*
X96348141Y-83378755D01*
X96450114Y-83409688D01*
X96496113Y-83423642D01*
X96510491Y-83425058D01*
X96611440Y-83435001D01*
X96611447Y-83435001D01*
X96650000Y-83438798D01*
X96688553Y-83435001D01*
X100131612Y-83435001D01*
X100040226Y-83496063D01*
X99896063Y-83640226D01*
X99782795Y-83809744D01*
X99704774Y-83998102D01*
X99665000Y-84198061D01*
X99665000Y-84401939D01*
X99704774Y-84601898D01*
X99782795Y-84790256D01*
X99896063Y-84959774D01*
X100040226Y-85103937D01*
X100209744Y-85217205D01*
X100398102Y-85295226D01*
X100598061Y-85335000D01*
X100624843Y-85335000D01*
X101574927Y-86285084D01*
X101459744Y-86332795D01*
X101290226Y-86446063D01*
X101146063Y-86590226D01*
X101032795Y-86759744D01*
X100954774Y-86948102D01*
X100915000Y-87148061D01*
X100915000Y-87351939D01*
X100954774Y-87551898D01*
X101032795Y-87740256D01*
X101146063Y-87909774D01*
X101290226Y-88053937D01*
X101459744Y-88167205D01*
X101648102Y-88245226D01*
X101848061Y-88285000D01*
X101951623Y-88285000D01*
X101904774Y-88398102D01*
X101865000Y-88598061D01*
X101865000Y-88801939D01*
X101904774Y-89001898D01*
X101982795Y-89190256D01*
X102096063Y-89359774D01*
X102240226Y-89503937D01*
X102409744Y-89617205D01*
X102598102Y-89695226D01*
X102798061Y-89735000D01*
X103001939Y-89735000D01*
X103201898Y-89695226D01*
X103390256Y-89617205D01*
X103559774Y-89503937D01*
X103703937Y-89359774D01*
X103817205Y-89190256D01*
X103895226Y-89001898D01*
X103935000Y-88801939D01*
X103935000Y-88645158D01*
X106817657Y-91527815D01*
X106842235Y-91557763D01*
X106872183Y-91582341D01*
X106872186Y-91582344D01*
X106888903Y-91596063D01*
X106961766Y-91655861D01*
X107098139Y-91728753D01*
X107211671Y-91763193D01*
X107246111Y-91773640D01*
X107259920Y-91775000D01*
X107361438Y-91784999D01*
X107361445Y-91784999D01*
X107399998Y-91788796D01*
X107438551Y-91784999D01*
X108615000Y-91784999D01*
X108615000Y-91851939D01*
X108654774Y-92051898D01*
X108732795Y-92240256D01*
X108846063Y-92409774D01*
X108990226Y-92553937D01*
X109159744Y-92667205D01*
X109177797Y-92674683D01*
X109082795Y-92816864D01*
X109021435Y-92965000D01*
X108998061Y-92965000D01*
X108798102Y-93004774D01*
X108609744Y-93082795D01*
X108440226Y-93196063D01*
X108340837Y-93295452D01*
X108303937Y-93240226D01*
X108159774Y-93096063D01*
X107990256Y-92982795D01*
X107801898Y-92904774D01*
X107601939Y-92865000D01*
X107398061Y-92865000D01*
X107198102Y-92904774D01*
X107009744Y-92982795D01*
X106840226Y-93096063D01*
X106696063Y-93240226D01*
X106582795Y-93409744D01*
X106504774Y-93598102D01*
X106465000Y-93798061D01*
X106465000Y-94001939D01*
X106504774Y-94201898D01*
X106582795Y-94390256D01*
X106696063Y-94559774D01*
X106840226Y-94703937D01*
X107009744Y-94817205D01*
X107198102Y-94895226D01*
X107398061Y-94935000D01*
X107601939Y-94935000D01*
X107801898Y-94895226D01*
X107990256Y-94817205D01*
X108159774Y-94703937D01*
X108259163Y-94604548D01*
X108296063Y-94659774D01*
X108440226Y-94803937D01*
X108609744Y-94917205D01*
X108798102Y-94995226D01*
X108865002Y-95008533D01*
X108865001Y-97365000D01*
X108798061Y-97365000D01*
X108598102Y-97404774D01*
X108409744Y-97482795D01*
X108350000Y-97522715D01*
X108290256Y-97482795D01*
X108101898Y-97404774D01*
X107901939Y-97365000D01*
X107698061Y-97365000D01*
X107498102Y-97404774D01*
X107309744Y-97482795D01*
X107200000Y-97556123D01*
X107090256Y-97482795D01*
X106901898Y-97404774D01*
X106701939Y-97365000D01*
X106498061Y-97365000D01*
X106298102Y-97404774D01*
X106109744Y-97482795D01*
X106050000Y-97522715D01*
X105990256Y-97482795D01*
X105801898Y-97404774D01*
X105601939Y-97365000D01*
X105398061Y-97365000D01*
X105198102Y-97404774D01*
X105009744Y-97482795D01*
X104840226Y-97596063D01*
X104696063Y-97740226D01*
X104582795Y-97909744D01*
X104504774Y-98098102D01*
X104465000Y-98298061D01*
X104465000Y-98501939D01*
X104504774Y-98701898D01*
X104582795Y-98890256D01*
X104696063Y-99059774D01*
X104840226Y-99203937D01*
X105009744Y-99317205D01*
X105198102Y-99395226D01*
X105398061Y-99435000D01*
X105601939Y-99435000D01*
X105801898Y-99395226D01*
X105990256Y-99317205D01*
X106050000Y-99277285D01*
X106109744Y-99317205D01*
X106298102Y-99395226D01*
X106498061Y-99435000D01*
X106701939Y-99435000D01*
X106901898Y-99395226D01*
X107090256Y-99317205D01*
X107200000Y-99243877D01*
X107309744Y-99317205D01*
X107498102Y-99395226D01*
X107698061Y-99435000D01*
X107901939Y-99435000D01*
X108078234Y-99399933D01*
X108076358Y-99406117D01*
X108061202Y-99560003D01*
X108065000Y-99598565D01*
X108064999Y-100621448D01*
X108061202Y-100660001D01*
X108064999Y-100698554D01*
X108064999Y-100698561D01*
X108076358Y-100813887D01*
X108121245Y-100961860D01*
X108194137Y-101098233D01*
X108292235Y-101217765D01*
X108322189Y-101242348D01*
X112907646Y-105827806D01*
X112932224Y-105857754D01*
X112962172Y-105882332D01*
X112962175Y-105882335D01*
X112979544Y-105896589D01*
X113051755Y-105955852D01*
X113188128Y-106028744D01*
X113301660Y-106063184D01*
X113336100Y-106073631D01*
X113350478Y-106075047D01*
X113451427Y-106084990D01*
X113451434Y-106084990D01*
X113489987Y-106088787D01*
X113528540Y-106084990D01*
X115215000Y-106084990D01*
X115215000Y-106473000D01*
X116248000Y-106473000D01*
X116248000Y-106453000D01*
X116502000Y-106453000D01*
X116502000Y-106473000D01*
X117535000Y-106473000D01*
X117535000Y-106084990D01*
X119411928Y-106084990D01*
X119411928Y-107450000D01*
X119424188Y-107574482D01*
X119460498Y-107694180D01*
X119519463Y-107804494D01*
X119598815Y-107901185D01*
X119695506Y-107980537D01*
X119805820Y-108039502D01*
X119925518Y-108075812D01*
X120050000Y-108088072D01*
X121750000Y-108088072D01*
X121874482Y-108075812D01*
X121994180Y-108039502D01*
X122104494Y-107980537D01*
X122201185Y-107901185D01*
X122280537Y-107804494D01*
X122339502Y-107694180D01*
X122361513Y-107621620D01*
X122493368Y-107753475D01*
X122736589Y-107915990D01*
X123006842Y-108027932D01*
X123293740Y-108085000D01*
X123586260Y-108085000D01*
X123873158Y-108027932D01*
X124143411Y-107915990D01*
X124386632Y-107753475D01*
X124593475Y-107546632D01*
X124715195Y-107364466D01*
X124784822Y-107481355D01*
X124979731Y-107697588D01*
X125213080Y-107871641D01*
X125475901Y-107996825D01*
X125623110Y-108041476D01*
X125853000Y-107920155D01*
X125853000Y-106727000D01*
X125833000Y-106727000D01*
X125833000Y-106473000D01*
X125853000Y-106473000D01*
X125853000Y-106453000D01*
X126107000Y-106453000D01*
X126107000Y-106473000D01*
X126127000Y-106473000D01*
X126127000Y-106727000D01*
X126107000Y-106727000D01*
X126107000Y-107920155D01*
X126336890Y-108041476D01*
X126484099Y-107996825D01*
X126746920Y-107871641D01*
X126980269Y-107697588D01*
X127175178Y-107481355D01*
X127244805Y-107364466D01*
X127366525Y-107546632D01*
X127573368Y-107753475D01*
X127816589Y-107915990D01*
X128086842Y-108027932D01*
X128373740Y-108085000D01*
X128666260Y-108085000D01*
X128953158Y-108027932D01*
X129223411Y-107915990D01*
X129466632Y-107753475D01*
X129673475Y-107546632D01*
X129738042Y-107450000D01*
X132031928Y-107450000D01*
X132044188Y-107574482D01*
X132080498Y-107694180D01*
X132139463Y-107804494D01*
X132218815Y-107901185D01*
X132315506Y-107980537D01*
X132425820Y-108039502D01*
X132545518Y-108075812D01*
X132670000Y-108088072D01*
X133234250Y-108085000D01*
X133393000Y-107926250D01*
X133393000Y-106727000D01*
X132193750Y-106727000D01*
X132035000Y-106885750D01*
X132031928Y-107450000D01*
X129738042Y-107450000D01*
X129835990Y-107303411D01*
X129947932Y-107033158D01*
X130005000Y-106746260D01*
X130005000Y-106453740D01*
X129947932Y-106166842D01*
X129835990Y-105896589D01*
X129738043Y-105750000D01*
X132031928Y-105750000D01*
X132035000Y-106314250D01*
X132193750Y-106473000D01*
X133393000Y-106473000D01*
X133393000Y-105273750D01*
X133647000Y-105273750D01*
X133647000Y-106473000D01*
X133667000Y-106473000D01*
X133667000Y-106727000D01*
X133647000Y-106727000D01*
X133647000Y-107926250D01*
X133805750Y-108085000D01*
X134370000Y-108088072D01*
X134494482Y-108075812D01*
X134614180Y-108039502D01*
X134724494Y-107980537D01*
X134821185Y-107901185D01*
X134900537Y-107804494D01*
X134959502Y-107694180D01*
X134981513Y-107621620D01*
X135113368Y-107753475D01*
X135356589Y-107915990D01*
X135626842Y-108027932D01*
X135913740Y-108085000D01*
X136206260Y-108085000D01*
X136493158Y-108027932D01*
X136763411Y-107915990D01*
X137006632Y-107753475D01*
X137213475Y-107546632D01*
X137330000Y-107372240D01*
X137446525Y-107546632D01*
X137653368Y-107753475D01*
X137896589Y-107915990D01*
X138166842Y-108027932D01*
X138453740Y-108085000D01*
X138746260Y-108085000D01*
X139033158Y-108027932D01*
X139303411Y-107915990D01*
X139546632Y-107753475D01*
X139753475Y-107546632D01*
X139870000Y-107372240D01*
X139986525Y-107546632D01*
X140193368Y-107753475D01*
X140436589Y-107915990D01*
X140706842Y-108027932D01*
X140993740Y-108085000D01*
X141286260Y-108085000D01*
X141573158Y-108027932D01*
X141843411Y-107915990D01*
X142086632Y-107753475D01*
X142293475Y-107546632D01*
X142455990Y-107303411D01*
X142567932Y-107033158D01*
X142625000Y-106746260D01*
X142625000Y-106453740D01*
X142567932Y-106166842D01*
X142455990Y-105896589D01*
X142293475Y-105653368D01*
X142086632Y-105446525D01*
X141843411Y-105284010D01*
X141573158Y-105172068D01*
X141286260Y-105115000D01*
X140993740Y-105115000D01*
X140706842Y-105172068D01*
X140436589Y-105284010D01*
X140193368Y-105446525D01*
X139986525Y-105653368D01*
X139870000Y-105827760D01*
X139753475Y-105653368D01*
X139546632Y-105446525D01*
X139303411Y-105284010D01*
X139033158Y-105172068D01*
X138746260Y-105115000D01*
X138453740Y-105115000D01*
X138166842Y-105172068D01*
X137896589Y-105284010D01*
X137653368Y-105446525D01*
X137446525Y-105653368D01*
X137330000Y-105827760D01*
X137213475Y-105653368D01*
X137006632Y-105446525D01*
X136763411Y-105284010D01*
X136493158Y-105172068D01*
X136206260Y-105115000D01*
X135913740Y-105115000D01*
X135626842Y-105172068D01*
X135356589Y-105284010D01*
X135113368Y-105446525D01*
X134981513Y-105578380D01*
X134959502Y-105505820D01*
X134900537Y-105395506D01*
X134821185Y-105298815D01*
X134724494Y-105219463D01*
X134614180Y-105160498D01*
X134494482Y-105124188D01*
X134370000Y-105111928D01*
X133805750Y-105115000D01*
X133647000Y-105273750D01*
X133393000Y-105273750D01*
X133234250Y-105115000D01*
X132670000Y-105111928D01*
X132545518Y-105124188D01*
X132425820Y-105160498D01*
X132315506Y-105219463D01*
X132218815Y-105298815D01*
X132139463Y-105395506D01*
X132080498Y-105505820D01*
X132044188Y-105625518D01*
X132031928Y-105750000D01*
X129738043Y-105750000D01*
X129673475Y-105653368D01*
X129466632Y-105446525D01*
X129223411Y-105284010D01*
X128953158Y-105172068D01*
X128666260Y-105115000D01*
X128373740Y-105115000D01*
X128183082Y-105152925D01*
X127802337Y-104772180D01*
X127777754Y-104742226D01*
X127658223Y-104644128D01*
X127521850Y-104571236D01*
X127373877Y-104526349D01*
X127258551Y-104514990D01*
X127258543Y-104514990D01*
X127219990Y-104511193D01*
X127181437Y-104514990D01*
X113815146Y-104514990D01*
X111542307Y-102242151D01*
X111646111Y-102273640D01*
X111660489Y-102275056D01*
X111761438Y-102284999D01*
X111761445Y-102284999D01*
X111799998Y-102288796D01*
X111838551Y-102284999D01*
X113661448Y-102284999D01*
X113700001Y-102288796D01*
X113738554Y-102284999D01*
X113738562Y-102284999D01*
X113853888Y-102273640D01*
X114001861Y-102228753D01*
X114138234Y-102155861D01*
X114163653Y-102135000D01*
X114201939Y-102135000D01*
X114401898Y-102095226D01*
X114590256Y-102017205D01*
X114759774Y-101903937D01*
X114903937Y-101759774D01*
X115017205Y-101590256D01*
X115095226Y-101401898D01*
X115135000Y-101201939D01*
X115135000Y-100998061D01*
X115117870Y-100911940D01*
X115201898Y-100895226D01*
X115390256Y-100817205D01*
X115559774Y-100703937D01*
X115676777Y-100586934D01*
X116864999Y-101775156D01*
X116864999Y-102077131D01*
X116861202Y-102115684D01*
X116864999Y-102154237D01*
X116864999Y-102154245D01*
X116876358Y-102269571D01*
X116881038Y-102284999D01*
X116921245Y-102417543D01*
X116921246Y-102417544D01*
X116994138Y-102553917D01*
X117028727Y-102596063D01*
X117067654Y-102643496D01*
X117067658Y-102643500D01*
X117092236Y-102673448D01*
X117122184Y-102698026D01*
X117451968Y-103027810D01*
X117476551Y-103057764D01*
X117596082Y-103155862D01*
X117732455Y-103228754D01*
X117880428Y-103273642D01*
X117913154Y-103276865D01*
X117940226Y-103303937D01*
X118109744Y-103417205D01*
X118298102Y-103495226D01*
X118498061Y-103535000D01*
X118701939Y-103535000D01*
X118901898Y-103495226D01*
X119090256Y-103417205D01*
X119259774Y-103303937D01*
X119403937Y-103159774D01*
X119517205Y-102990256D01*
X119595226Y-102801898D01*
X119635000Y-102601939D01*
X119635000Y-102398061D01*
X119595226Y-102198102D01*
X119517205Y-102009744D01*
X119403937Y-101840226D01*
X119357262Y-101793551D01*
X119395226Y-101701898D01*
X119435000Y-101501939D01*
X119435000Y-101298061D01*
X119395226Y-101098102D01*
X119317205Y-100909744D01*
X119203937Y-100740226D01*
X119059774Y-100596063D01*
X118890256Y-100482795D01*
X118701898Y-100404774D01*
X118501939Y-100365000D01*
X118475157Y-100365000D01*
X113685000Y-95574843D01*
X113685000Y-94898061D01*
X115765000Y-94898061D01*
X115765000Y-95101939D01*
X115804774Y-95301898D01*
X115882795Y-95490256D01*
X115996063Y-95659774D01*
X116140226Y-95803937D01*
X116309744Y-95917205D01*
X116498102Y-95995226D01*
X116698061Y-96035000D01*
X116901939Y-96035000D01*
X117101898Y-95995226D01*
X117290256Y-95917205D01*
X117332270Y-95889132D01*
X117346063Y-95909774D01*
X117490226Y-96053937D01*
X117659744Y-96167205D01*
X117848102Y-96245226D01*
X118048061Y-96285000D01*
X118251939Y-96285000D01*
X118451898Y-96245226D01*
X118640256Y-96167205D01*
X118809774Y-96053937D01*
X118953937Y-95909774D01*
X119067205Y-95740256D01*
X119145226Y-95551898D01*
X119185000Y-95351939D01*
X119185000Y-95148061D01*
X119145226Y-94948102D01*
X119067205Y-94759744D01*
X118953937Y-94590226D01*
X118809774Y-94446063D01*
X118640256Y-94332795D01*
X118451898Y-94254774D01*
X118251939Y-94215000D01*
X118048061Y-94215000D01*
X117848102Y-94254774D01*
X117659744Y-94332795D01*
X117617730Y-94360868D01*
X117603937Y-94340226D01*
X117459774Y-94196063D01*
X117290256Y-94082795D01*
X117101898Y-94004774D01*
X116901939Y-93965000D01*
X116698061Y-93965000D01*
X116498102Y-94004774D01*
X116309744Y-94082795D01*
X116140226Y-94196063D01*
X115996063Y-94340226D01*
X115882795Y-94509744D01*
X115804774Y-94698102D01*
X115765000Y-94898061D01*
X113685000Y-94898061D01*
X113685000Y-94778711D01*
X113803937Y-94659774D01*
X113917205Y-94490256D01*
X113995226Y-94301898D01*
X114035000Y-94101939D01*
X114035000Y-93898061D01*
X113995226Y-93698102D01*
X113917205Y-93509744D01*
X113803937Y-93340226D01*
X113659774Y-93196063D01*
X113490256Y-93082795D01*
X113301898Y-93004774D01*
X113101939Y-92965000D01*
X112898061Y-92965000D01*
X112698102Y-93004774D01*
X112509744Y-93082795D01*
X112411890Y-93148179D01*
X112409774Y-93146063D01*
X112240256Y-93032795D01*
X112051898Y-92954774D01*
X112016538Y-92947740D01*
X112090256Y-92917205D01*
X112259774Y-92803937D01*
X112403937Y-92659774D01*
X112517205Y-92490256D01*
X112582687Y-92332169D01*
X112611440Y-92335001D01*
X112611445Y-92335001D01*
X112650001Y-92338798D01*
X112688557Y-92335001D01*
X114411446Y-92335001D01*
X114449999Y-92338798D01*
X114488552Y-92335001D01*
X114488560Y-92335001D01*
X114603886Y-92323642D01*
X114751859Y-92278755D01*
X114839088Y-92232131D01*
X114839088Y-92400000D01*
X114841528Y-92424776D01*
X114848755Y-92448601D01*
X114860491Y-92470557D01*
X114876285Y-92489803D01*
X114895531Y-92505597D01*
X114917487Y-92517333D01*
X114941312Y-92524560D01*
X114966088Y-92527000D01*
X120139088Y-92527000D01*
X120139088Y-95200000D01*
X120141528Y-95224776D01*
X120148755Y-95248601D01*
X120160491Y-95270557D01*
X120176285Y-95289803D01*
X120195531Y-95305597D01*
X120217487Y-95317333D01*
X120241312Y-95324560D01*
X120266088Y-95327000D01*
X127465000Y-95327000D01*
X127465000Y-100511436D01*
X127461202Y-100549999D01*
X127476358Y-100703885D01*
X127521245Y-100851858D01*
X127542827Y-100892235D01*
X127594138Y-100988232D01*
X127613453Y-101011767D01*
X127667654Y-101077811D01*
X127667658Y-101077815D01*
X127692236Y-101107763D01*
X127722184Y-101132341D01*
X127765000Y-101175157D01*
X127765000Y-101201939D01*
X127804774Y-101401898D01*
X127882795Y-101590256D01*
X127996063Y-101759774D01*
X128140226Y-101903937D01*
X128309744Y-102017205D01*
X128498102Y-102095226D01*
X128698061Y-102135000D01*
X128901939Y-102135000D01*
X129101898Y-102095226D01*
X129290256Y-102017205D01*
X129459774Y-101903937D01*
X129603937Y-101759774D01*
X129717205Y-101590256D01*
X129795226Y-101401898D01*
X129835000Y-101201939D01*
X129835000Y-100998061D01*
X129795226Y-100798102D01*
X129757262Y-100706449D01*
X129803937Y-100659774D01*
X129917205Y-100490256D01*
X129995226Y-100301898D01*
X130035000Y-100101939D01*
X130035000Y-99898061D01*
X129995226Y-99698102D01*
X129917205Y-99509744D01*
X129803937Y-99340226D01*
X129785000Y-99321289D01*
X129785000Y-90425157D01*
X131275157Y-88935001D01*
X131771290Y-88935001D01*
X131840226Y-89003937D01*
X131943586Y-89073000D01*
X131566088Y-89073000D01*
X131541312Y-89075440D01*
X131517487Y-89082667D01*
X131495531Y-89094403D01*
X131476285Y-89110197D01*
X131460491Y-89129443D01*
X131448755Y-89151399D01*
X131441528Y-89175224D01*
X131439088Y-89200000D01*
X131439088Y-93300000D01*
X131441528Y-93324776D01*
X131448755Y-93348601D01*
X131460491Y-93370557D01*
X131476285Y-93389803D01*
X131495531Y-93405597D01*
X131517487Y-93417333D01*
X131541312Y-93424560D01*
X131566088Y-93427000D01*
X131743586Y-93427000D01*
X131640226Y-93496063D01*
X131496063Y-93640226D01*
X131382795Y-93809744D01*
X131304774Y-93998102D01*
X131265000Y-94198061D01*
X131265000Y-94401939D01*
X131304774Y-94601898D01*
X131382795Y-94790256D01*
X131496063Y-94959774D01*
X131640226Y-95103937D01*
X131809744Y-95217205D01*
X131998102Y-95295226D01*
X132198061Y-95335000D01*
X132401939Y-95335000D01*
X132601898Y-95295226D01*
X132790256Y-95217205D01*
X132959774Y-95103937D01*
X133103937Y-94959774D01*
X133217205Y-94790256D01*
X133255393Y-94698061D01*
X134965000Y-94698061D01*
X134965000Y-94901939D01*
X135004774Y-95101898D01*
X135082795Y-95290256D01*
X135196063Y-95459774D01*
X135340226Y-95603937D01*
X135509744Y-95717205D01*
X135698102Y-95795226D01*
X135898061Y-95835000D01*
X136101939Y-95835000D01*
X136301898Y-95795226D01*
X136490256Y-95717205D01*
X136659774Y-95603937D01*
X136803937Y-95459774D01*
X136847910Y-95393964D01*
X136804774Y-95498102D01*
X136765000Y-95698061D01*
X136765000Y-95901939D01*
X136804774Y-96101898D01*
X136882795Y-96290256D01*
X136996063Y-96459774D01*
X137140226Y-96603937D01*
X137309744Y-96717205D01*
X137498102Y-96795226D01*
X137569797Y-96809487D01*
X137440226Y-96896063D01*
X137296063Y-97040226D01*
X137182795Y-97209744D01*
X137104774Y-97398102D01*
X137065000Y-97598061D01*
X137065000Y-97801939D01*
X137104774Y-98001898D01*
X137182795Y-98190256D01*
X137295592Y-98359069D01*
X137240226Y-98396063D01*
X137096063Y-98540226D01*
X136982795Y-98709744D01*
X136904774Y-98898102D01*
X136865000Y-99098061D01*
X136865000Y-99301939D01*
X136904774Y-99501898D01*
X136982795Y-99690256D01*
X137096063Y-99859774D01*
X137240226Y-100003937D01*
X137409744Y-100117205D01*
X137598102Y-100195226D01*
X137798061Y-100235000D01*
X138001939Y-100235000D01*
X138201898Y-100195226D01*
X138390256Y-100117205D01*
X138559774Y-100003937D01*
X138703937Y-99859774D01*
X138817205Y-99690256D01*
X138895226Y-99501898D01*
X138935000Y-99301939D01*
X138935000Y-99098061D01*
X138895226Y-98898102D01*
X138817205Y-98709744D01*
X138704408Y-98540931D01*
X138759774Y-98503937D01*
X138903937Y-98359774D01*
X139017205Y-98190256D01*
X139095226Y-98001898D01*
X139135000Y-97801939D01*
X139135000Y-97598061D01*
X139095226Y-97398102D01*
X139017205Y-97209744D01*
X138903937Y-97040226D01*
X138759774Y-96896063D01*
X138590256Y-96782795D01*
X138401898Y-96704774D01*
X138330203Y-96690513D01*
X138390835Y-96650000D01*
X147711928Y-96650000D01*
X147724188Y-96774482D01*
X147760498Y-96894180D01*
X147819463Y-97004494D01*
X147898815Y-97101185D01*
X147995506Y-97180537D01*
X148105820Y-97239502D01*
X148225518Y-97275812D01*
X148350000Y-97288072D01*
X148914250Y-97285000D01*
X149073000Y-97126250D01*
X149073000Y-95927000D01*
X149327000Y-95927000D01*
X149327000Y-97126250D01*
X149485750Y-97285000D01*
X150050000Y-97288072D01*
X150174482Y-97275812D01*
X150294180Y-97239502D01*
X150404494Y-97180537D01*
X150501185Y-97101185D01*
X150580537Y-97004494D01*
X150639502Y-96894180D01*
X150675812Y-96774482D01*
X150688072Y-96650000D01*
X150685000Y-96085750D01*
X150526250Y-95927000D01*
X149327000Y-95927000D01*
X149073000Y-95927000D01*
X147873750Y-95927000D01*
X147715000Y-96085750D01*
X147711928Y-96650000D01*
X138390835Y-96650000D01*
X138459774Y-96603937D01*
X138603937Y-96459774D01*
X138717205Y-96290256D01*
X138795226Y-96101898D01*
X138835000Y-95901939D01*
X138835000Y-95698061D01*
X138795226Y-95498102D01*
X138717205Y-95309744D01*
X138603937Y-95140226D01*
X138459774Y-94996063D01*
X138390836Y-94950000D01*
X147711928Y-94950000D01*
X147715000Y-95514250D01*
X147873750Y-95673000D01*
X149073000Y-95673000D01*
X149073000Y-95653000D01*
X149327000Y-95653000D01*
X149327000Y-95673000D01*
X150526250Y-95673000D01*
X150685000Y-95514250D01*
X150688072Y-94950000D01*
X150675812Y-94825518D01*
X150639502Y-94705820D01*
X150580537Y-94595506D01*
X150501185Y-94498815D01*
X150404494Y-94419463D01*
X150294180Y-94360498D01*
X150221620Y-94338487D01*
X150353475Y-94206632D01*
X150515990Y-93963411D01*
X150627932Y-93693158D01*
X150685000Y-93406260D01*
X150685000Y-93113740D01*
X150627932Y-92826842D01*
X150515990Y-92556589D01*
X150353475Y-92313368D01*
X150146632Y-92106525D01*
X149972240Y-91990000D01*
X150146632Y-91873475D01*
X150353475Y-91666632D01*
X150515990Y-91423411D01*
X150627932Y-91153158D01*
X150685000Y-90866260D01*
X150685000Y-90573740D01*
X150627932Y-90286842D01*
X150515990Y-90016589D01*
X150353475Y-89773368D01*
X150146632Y-89566525D01*
X149972240Y-89450000D01*
X150146632Y-89333475D01*
X150353475Y-89126632D01*
X150515990Y-88883411D01*
X150627932Y-88613158D01*
X150685000Y-88326260D01*
X150685000Y-88033740D01*
X150627932Y-87746842D01*
X150515990Y-87476589D01*
X150353475Y-87233368D01*
X150146632Y-87026525D01*
X149972240Y-86910000D01*
X150146632Y-86793475D01*
X150353475Y-86586632D01*
X150515990Y-86343411D01*
X150627932Y-86073158D01*
X150685000Y-85786260D01*
X150685000Y-85493740D01*
X150627932Y-85206842D01*
X150515990Y-84936589D01*
X150353475Y-84693368D01*
X150146632Y-84486525D01*
X149972240Y-84370000D01*
X150146632Y-84253475D01*
X150353475Y-84046632D01*
X150515990Y-83803411D01*
X150627932Y-83533158D01*
X150685000Y-83246260D01*
X150685000Y-82953740D01*
X150627932Y-82666842D01*
X150515990Y-82396589D01*
X150353475Y-82153368D01*
X150146632Y-81946525D01*
X149903411Y-81784010D01*
X149633158Y-81672068D01*
X149346260Y-81615000D01*
X149053740Y-81615000D01*
X148766842Y-81672068D01*
X148496589Y-81784010D01*
X148253368Y-81946525D01*
X148046525Y-82153368D01*
X147884010Y-82396589D01*
X147772068Y-82666842D01*
X147715000Y-82953740D01*
X147715000Y-83246260D01*
X147772068Y-83533158D01*
X147884010Y-83803411D01*
X148046525Y-84046632D01*
X148253368Y-84253475D01*
X148427760Y-84370000D01*
X148253368Y-84486525D01*
X148046525Y-84693368D01*
X147884010Y-84936589D01*
X147772068Y-85206842D01*
X147715000Y-85493740D01*
X147715000Y-85786260D01*
X147772068Y-86073158D01*
X147884010Y-86343411D01*
X148046525Y-86586632D01*
X148253368Y-86793475D01*
X148427760Y-86910000D01*
X148253368Y-87026525D01*
X148046525Y-87233368D01*
X147884010Y-87476589D01*
X147772068Y-87746842D01*
X147715000Y-88033740D01*
X147715000Y-88326260D01*
X147772068Y-88613158D01*
X147884010Y-88883411D01*
X148046525Y-89126632D01*
X148253368Y-89333475D01*
X148427760Y-89450000D01*
X148253368Y-89566525D01*
X148046525Y-89773368D01*
X147884010Y-90016589D01*
X147772068Y-90286842D01*
X147715000Y-90573740D01*
X147715000Y-90866260D01*
X147772068Y-91153158D01*
X147884010Y-91423411D01*
X148046525Y-91666632D01*
X148253368Y-91873475D01*
X148427760Y-91990000D01*
X148253368Y-92106525D01*
X148046525Y-92313368D01*
X147884010Y-92556589D01*
X147772068Y-92826842D01*
X147715000Y-93113740D01*
X147715000Y-93406260D01*
X147772068Y-93693158D01*
X147884010Y-93963411D01*
X148046525Y-94206632D01*
X148178380Y-94338487D01*
X148105820Y-94360498D01*
X147995506Y-94419463D01*
X147898815Y-94498815D01*
X147819463Y-94595506D01*
X147760498Y-94705820D01*
X147724188Y-94825518D01*
X147711928Y-94950000D01*
X138390836Y-94950000D01*
X138290256Y-94882795D01*
X138101898Y-94804774D01*
X137901939Y-94765000D01*
X137698061Y-94765000D01*
X137498102Y-94804774D01*
X137309744Y-94882795D01*
X137140226Y-94996063D01*
X136996063Y-95140226D01*
X136952090Y-95206036D01*
X136995226Y-95101898D01*
X137035000Y-94901939D01*
X137035000Y-94698061D01*
X136995226Y-94498102D01*
X136917205Y-94309744D01*
X136803937Y-94140226D01*
X136659774Y-93996063D01*
X136490256Y-93882795D01*
X136301898Y-93804774D01*
X136101939Y-93765000D01*
X135898061Y-93765000D01*
X135698102Y-93804774D01*
X135509744Y-93882795D01*
X135340226Y-93996063D01*
X135196063Y-94140226D01*
X135082795Y-94309744D01*
X135004774Y-94498102D01*
X134965000Y-94698061D01*
X133255393Y-94698061D01*
X133295226Y-94601898D01*
X133335000Y-94401939D01*
X133335000Y-94198061D01*
X133295226Y-93998102D01*
X133217205Y-93809744D01*
X133103937Y-93640226D01*
X132959774Y-93496063D01*
X132856414Y-93427000D01*
X136166088Y-93427000D01*
X136190864Y-93424560D01*
X136214689Y-93417333D01*
X136236645Y-93405597D01*
X136255891Y-93389803D01*
X136271685Y-93370557D01*
X136283421Y-93348601D01*
X136290648Y-93324776D01*
X136293088Y-93300000D01*
X136293088Y-91298061D01*
X136765000Y-91298061D01*
X136765000Y-91501939D01*
X136804774Y-91701898D01*
X136882795Y-91890256D01*
X136996063Y-92059774D01*
X137140226Y-92203937D01*
X137309744Y-92317205D01*
X137498102Y-92395226D01*
X137698061Y-92435000D01*
X137901939Y-92435000D01*
X138101898Y-92395226D01*
X138290256Y-92317205D01*
X138459774Y-92203937D01*
X138603937Y-92059774D01*
X138717205Y-91890256D01*
X138795226Y-91701898D01*
X138835000Y-91501939D01*
X138835000Y-91298061D01*
X138795226Y-91098102D01*
X138717205Y-90909744D01*
X138603937Y-90740226D01*
X138459774Y-90596063D01*
X138290256Y-90482795D01*
X138101898Y-90404774D01*
X137901939Y-90365000D01*
X137698061Y-90365000D01*
X137498102Y-90404774D01*
X137309744Y-90482795D01*
X137140226Y-90596063D01*
X136996063Y-90740226D01*
X136882795Y-90909744D01*
X136804774Y-91098102D01*
X136765000Y-91298061D01*
X136293088Y-91298061D01*
X136293088Y-89200000D01*
X136290648Y-89175224D01*
X136283421Y-89151399D01*
X136271685Y-89129443D01*
X136255891Y-89110197D01*
X136236645Y-89094403D01*
X136214689Y-89082667D01*
X136190864Y-89075440D01*
X136166088Y-89073000D01*
X133056414Y-89073000D01*
X133159774Y-89003937D01*
X133303937Y-88859774D01*
X133417205Y-88690256D01*
X133495226Y-88501898D01*
X133535000Y-88301939D01*
X133535000Y-88098061D01*
X133495226Y-87898102D01*
X133417205Y-87709744D01*
X133303937Y-87540226D01*
X133159774Y-87396063D01*
X132990256Y-87282795D01*
X132801898Y-87204774D01*
X132601939Y-87165000D01*
X132398061Y-87165000D01*
X132198102Y-87204774D01*
X132030272Y-87274292D01*
X131995226Y-87098102D01*
X131917205Y-86909744D01*
X131803937Y-86740226D01*
X131659774Y-86596063D01*
X131490256Y-86482795D01*
X131301898Y-86404774D01*
X131101939Y-86365000D01*
X130898061Y-86365000D01*
X130698102Y-86404774D01*
X130509744Y-86482795D01*
X130340226Y-86596063D01*
X130313153Y-86623136D01*
X130294805Y-86624943D01*
X130280427Y-86626359D01*
X130245987Y-86636806D01*
X130132455Y-86671246D01*
X129996082Y-86744138D01*
X129946292Y-86785000D01*
X129906502Y-86817655D01*
X129906499Y-86817658D01*
X129876551Y-86842236D01*
X129851973Y-86872184D01*
X128073264Y-88650894D01*
X128093069Y-87502189D01*
X128091056Y-87477374D01*
X128084241Y-87453429D01*
X128072885Y-87431273D01*
X128057425Y-87411759D01*
X128038455Y-87395635D01*
X128016704Y-87383523D01*
X127993008Y-87375886D01*
X127966088Y-87373000D01*
X119866088Y-87373000D01*
X119841312Y-87375440D01*
X119817487Y-87382667D01*
X119795531Y-87394403D01*
X119776285Y-87410197D01*
X119760491Y-87429443D01*
X119748755Y-87451399D01*
X119741528Y-87475224D01*
X119739088Y-87500000D01*
X119739088Y-90373000D01*
X116737157Y-90373000D01*
X121637656Y-85472501D01*
X121758948Y-85472501D01*
X121797501Y-85476298D01*
X121836054Y-85472501D01*
X121836062Y-85472501D01*
X121951388Y-85461142D01*
X122099361Y-85416255D01*
X122235734Y-85343363D01*
X122355265Y-85245265D01*
X122379848Y-85215311D01*
X124617098Y-82978061D01*
X136185000Y-82978061D01*
X136185000Y-83181939D01*
X136224774Y-83381898D01*
X136302795Y-83570256D01*
X136416063Y-83739774D01*
X136560226Y-83883937D01*
X136729744Y-83997205D01*
X136918102Y-84075226D01*
X137118061Y-84115000D01*
X137321939Y-84115000D01*
X137521898Y-84075226D01*
X137710256Y-83997205D01*
X137879774Y-83883937D01*
X138023937Y-83739774D01*
X138137205Y-83570256D01*
X138215226Y-83381898D01*
X138255000Y-83181939D01*
X138255000Y-82978061D01*
X138215226Y-82778102D01*
X138137205Y-82589744D01*
X138023937Y-82420226D01*
X137879774Y-82276063D01*
X137710256Y-82162795D01*
X137521898Y-82084774D01*
X137321939Y-82045000D01*
X137118061Y-82045000D01*
X136918102Y-82084774D01*
X136729744Y-82162795D01*
X136560226Y-82276063D01*
X136416063Y-82420226D01*
X136302795Y-82589744D01*
X136224774Y-82778102D01*
X136185000Y-82978061D01*
X124617098Y-82978061D01*
X126547098Y-81048061D01*
X140915000Y-81048061D01*
X140915000Y-81251939D01*
X140954774Y-81451898D01*
X141032795Y-81640256D01*
X141146063Y-81809774D01*
X141290226Y-81953937D01*
X141459744Y-82067205D01*
X141648102Y-82145226D01*
X141848061Y-82185000D01*
X142051939Y-82185000D01*
X142251898Y-82145226D01*
X142440256Y-82067205D01*
X142609774Y-81953937D01*
X142753937Y-81809774D01*
X142867205Y-81640256D01*
X142945226Y-81451898D01*
X142985000Y-81251939D01*
X142985000Y-81048061D01*
X142945226Y-80848102D01*
X142867205Y-80659744D01*
X142753937Y-80490226D01*
X142609774Y-80346063D01*
X142440256Y-80232795D01*
X142251898Y-80154774D01*
X142051939Y-80115000D01*
X141848061Y-80115000D01*
X141648102Y-80154774D01*
X141459744Y-80232795D01*
X141290226Y-80346063D01*
X141146063Y-80490226D01*
X141032795Y-80659744D01*
X140954774Y-80848102D01*
X140915000Y-81048061D01*
X126547098Y-81048061D01*
X128477818Y-79117342D01*
X128507765Y-79092765D01*
X128534841Y-79059774D01*
X128575875Y-79009774D01*
X128605863Y-78973234D01*
X128678755Y-78836861D01*
X128690501Y-78798140D01*
X128723643Y-78688888D01*
X128731643Y-78607654D01*
X128735001Y-78573562D01*
X128735001Y-78573557D01*
X128738798Y-78535001D01*
X128735001Y-78496446D01*
X128735001Y-77470000D01*
X147711928Y-77470000D01*
X147724188Y-77594482D01*
X147760498Y-77714180D01*
X147819463Y-77824494D01*
X147898815Y-77921185D01*
X147995506Y-78000537D01*
X148105820Y-78059502D01*
X148225518Y-78095812D01*
X148350000Y-78108072D01*
X148914250Y-78105000D01*
X149073000Y-77946250D01*
X149073000Y-76747000D01*
X149327000Y-76747000D01*
X149327000Y-77946250D01*
X149485750Y-78105000D01*
X150050000Y-78108072D01*
X150174482Y-78095812D01*
X150294180Y-78059502D01*
X150404494Y-78000537D01*
X150501185Y-77921185D01*
X150580537Y-77824494D01*
X150639502Y-77714180D01*
X150675812Y-77594482D01*
X150688072Y-77470000D01*
X150685000Y-76905750D01*
X150526250Y-76747000D01*
X149327000Y-76747000D01*
X149073000Y-76747000D01*
X147873750Y-76747000D01*
X147715000Y-76905750D01*
X147711928Y-77470000D01*
X128735001Y-77470000D01*
X128735001Y-76588557D01*
X128738798Y-76550001D01*
X128735001Y-76511445D01*
X128735001Y-76511440D01*
X128729912Y-76459774D01*
X128723643Y-76396114D01*
X128678755Y-76248141D01*
X128605863Y-76111768D01*
X128507765Y-75992237D01*
X128477811Y-75967654D01*
X128280157Y-75770000D01*
X147711928Y-75770000D01*
X147715000Y-76334250D01*
X147873750Y-76493000D01*
X149073000Y-76493000D01*
X149073000Y-76473000D01*
X149327000Y-76473000D01*
X149327000Y-76493000D01*
X150526250Y-76493000D01*
X150685000Y-76334250D01*
X150688072Y-75770000D01*
X150675812Y-75645518D01*
X150639502Y-75525820D01*
X150580537Y-75415506D01*
X150501185Y-75318815D01*
X150404494Y-75239463D01*
X150294180Y-75180498D01*
X150221620Y-75158487D01*
X150353475Y-75026632D01*
X150515990Y-74783411D01*
X150627932Y-74513158D01*
X150685000Y-74226260D01*
X150685000Y-73933740D01*
X150627932Y-73646842D01*
X150515990Y-73376589D01*
X150353475Y-73133368D01*
X150146632Y-72926525D01*
X149972240Y-72810000D01*
X150146632Y-72693475D01*
X150353475Y-72486632D01*
X150515990Y-72243411D01*
X150627932Y-71973158D01*
X150685000Y-71686260D01*
X150685000Y-71393740D01*
X150627932Y-71106842D01*
X150515990Y-70836589D01*
X150353475Y-70593368D01*
X150146632Y-70386525D01*
X149972240Y-70270000D01*
X150146632Y-70153475D01*
X150353475Y-69946632D01*
X150515990Y-69703411D01*
X150627932Y-69433158D01*
X150685000Y-69146260D01*
X150685000Y-68853740D01*
X150627932Y-68566842D01*
X150515990Y-68296589D01*
X150353475Y-68053368D01*
X150146632Y-67846525D01*
X149972240Y-67730000D01*
X150146632Y-67613475D01*
X150353475Y-67406632D01*
X150515990Y-67163411D01*
X150627932Y-66893158D01*
X150685000Y-66606260D01*
X150685000Y-66313740D01*
X150627932Y-66026842D01*
X150515990Y-65756589D01*
X150353475Y-65513368D01*
X150146632Y-65306525D01*
X149903411Y-65144010D01*
X149633158Y-65032068D01*
X149346260Y-64975000D01*
X149053740Y-64975000D01*
X148766842Y-65032068D01*
X148496589Y-65144010D01*
X148253368Y-65306525D01*
X148046525Y-65513368D01*
X147884010Y-65756589D01*
X147772068Y-66026842D01*
X147715000Y-66313740D01*
X147715000Y-66606260D01*
X147772068Y-66893158D01*
X147884010Y-67163411D01*
X148046525Y-67406632D01*
X148253368Y-67613475D01*
X148427760Y-67730000D01*
X148253368Y-67846525D01*
X148046525Y-68053368D01*
X147884010Y-68296589D01*
X147772068Y-68566842D01*
X147715000Y-68853740D01*
X147715000Y-69146260D01*
X147772068Y-69433158D01*
X147884010Y-69703411D01*
X148046525Y-69946632D01*
X148253368Y-70153475D01*
X148427760Y-70270000D01*
X148253368Y-70386525D01*
X148046525Y-70593368D01*
X147884010Y-70836589D01*
X147772068Y-71106842D01*
X147715000Y-71393740D01*
X147715000Y-71686260D01*
X147772068Y-71973158D01*
X147884010Y-72243411D01*
X148046525Y-72486632D01*
X148253368Y-72693475D01*
X148427760Y-72810000D01*
X148253368Y-72926525D01*
X148046525Y-73133368D01*
X147884010Y-73376589D01*
X147772068Y-73646842D01*
X147715000Y-73933740D01*
X147715000Y-74226260D01*
X147772068Y-74513158D01*
X147884010Y-74783411D01*
X148046525Y-75026632D01*
X148178380Y-75158487D01*
X148105820Y-75180498D01*
X147995506Y-75239463D01*
X147898815Y-75318815D01*
X147819463Y-75415506D01*
X147760498Y-75525820D01*
X147724188Y-75645518D01*
X147711928Y-75770000D01*
X128280157Y-75770000D01*
X128235000Y-75724843D01*
X128235000Y-75698061D01*
X128195226Y-75498102D01*
X128124353Y-75327000D01*
X141066088Y-75327000D01*
X141090864Y-75324560D01*
X141114689Y-75317333D01*
X141136645Y-75305597D01*
X141155891Y-75289803D01*
X141171685Y-75270557D01*
X141183421Y-75248601D01*
X141190648Y-75224776D01*
X141193084Y-75201050D01*
X141216249Y-72398061D01*
X144265000Y-72398061D01*
X144265000Y-72601939D01*
X144304774Y-72801898D01*
X144382795Y-72990256D01*
X144496063Y-73159774D01*
X144640226Y-73303937D01*
X144809744Y-73417205D01*
X144998102Y-73495226D01*
X145198061Y-73535000D01*
X145401939Y-73535000D01*
X145601898Y-73495226D01*
X145790256Y-73417205D01*
X145959774Y-73303937D01*
X146103937Y-73159774D01*
X146217205Y-72990256D01*
X146295226Y-72801898D01*
X146335000Y-72601939D01*
X146335000Y-72398061D01*
X146295226Y-72198102D01*
X146217205Y-72009744D01*
X146103937Y-71840226D01*
X145959774Y-71696063D01*
X145790256Y-71582795D01*
X145601898Y-71504774D01*
X145401939Y-71465000D01*
X145198061Y-71465000D01*
X144998102Y-71504774D01*
X144809744Y-71582795D01*
X144640226Y-71696063D01*
X144496063Y-71840226D01*
X144382795Y-72009744D01*
X144304774Y-72198102D01*
X144265000Y-72398061D01*
X141216249Y-72398061D01*
X141292043Y-63227000D01*
X151290000Y-63227000D01*
X151290001Y-103821016D01*
X150978839Y-103355330D01*
X150444670Y-102821161D01*
X149816554Y-102401467D01*
X149118628Y-102112377D01*
X148377715Y-101965000D01*
X147622285Y-101965000D01*
X146881372Y-102112377D01*
X146183446Y-102401467D01*
X145555330Y-102821161D01*
X145021161Y-103355330D01*
X144601467Y-103983446D01*
X144312377Y-104681372D01*
X144165000Y-105422285D01*
X144165000Y-106177715D01*
X144312377Y-106918628D01*
X144601467Y-107616554D01*
X145021161Y-108244670D01*
X145555330Y-108778839D01*
X146183446Y-109198533D01*
X146404267Y-109290000D01*
X77795733Y-109290000D01*
X78016554Y-109198533D01*
X78644670Y-108778839D01*
X79178839Y-108244670D01*
X79598533Y-107616554D01*
X79791785Y-107150000D01*
X81311928Y-107150000D01*
X81324188Y-107274482D01*
X81360498Y-107394180D01*
X81419463Y-107504494D01*
X81498815Y-107601185D01*
X81595506Y-107680537D01*
X81705820Y-107739502D01*
X81825518Y-107775812D01*
X81950000Y-107788072D01*
X82514250Y-107785000D01*
X82673000Y-107626250D01*
X82673000Y-106427000D01*
X81473750Y-106427000D01*
X81315000Y-106585750D01*
X81311928Y-107150000D01*
X79791785Y-107150000D01*
X79887623Y-106918628D01*
X80035000Y-106177715D01*
X80035000Y-105450000D01*
X81311928Y-105450000D01*
X81315000Y-106014250D01*
X81473750Y-106173000D01*
X82673000Y-106173000D01*
X82673000Y-104973750D01*
X82927000Y-104973750D01*
X82927000Y-106173000D01*
X82947000Y-106173000D01*
X82947000Y-106427000D01*
X82927000Y-106427000D01*
X82927000Y-107626250D01*
X83085750Y-107785000D01*
X83650000Y-107788072D01*
X83774482Y-107775812D01*
X83894180Y-107739502D01*
X84004494Y-107680537D01*
X84101185Y-107601185D01*
X84180537Y-107504494D01*
X84239502Y-107394180D01*
X84261513Y-107321620D01*
X84393368Y-107453475D01*
X84636589Y-107615990D01*
X84906842Y-107727932D01*
X85193740Y-107785000D01*
X85486260Y-107785000D01*
X85773158Y-107727932D01*
X86043411Y-107615990D01*
X86286632Y-107453475D01*
X86493475Y-107246632D01*
X86610000Y-107072240D01*
X86726525Y-107246632D01*
X86933368Y-107453475D01*
X87176589Y-107615990D01*
X87446842Y-107727932D01*
X87733740Y-107785000D01*
X88026260Y-107785000D01*
X88313158Y-107727932D01*
X88583411Y-107615990D01*
X88826632Y-107453475D01*
X89033475Y-107246632D01*
X89150000Y-107072240D01*
X89266525Y-107246632D01*
X89473368Y-107453475D01*
X89716589Y-107615990D01*
X89986842Y-107727932D01*
X90273740Y-107785000D01*
X90566260Y-107785000D01*
X90853158Y-107727932D01*
X91123411Y-107615990D01*
X91366632Y-107453475D01*
X91573475Y-107246632D01*
X91735990Y-107003411D01*
X91847932Y-106733158D01*
X91849156Y-106727000D01*
X108065000Y-106727000D01*
X108065000Y-107152000D01*
X108112066Y-107375865D01*
X108201901Y-107586246D01*
X108331053Y-107775059D01*
X108494559Y-107935047D01*
X108686136Y-108060063D01*
X108919190Y-108143964D01*
X109098000Y-108018163D01*
X109098000Y-106727000D01*
X109352000Y-106727000D01*
X109352000Y-108018163D01*
X109530810Y-108143964D01*
X109763864Y-108060063D01*
X109955441Y-107935047D01*
X110118947Y-107775059D01*
X110248099Y-107586246D01*
X110337934Y-107375865D01*
X110385000Y-107152000D01*
X110385000Y-106727000D01*
X115215000Y-106727000D01*
X115215000Y-107152000D01*
X115262066Y-107375865D01*
X115351901Y-107586246D01*
X115481053Y-107775059D01*
X115644559Y-107935047D01*
X115836136Y-108060063D01*
X116069190Y-108143964D01*
X116248000Y-108018163D01*
X116248000Y-106727000D01*
X116502000Y-106727000D01*
X116502000Y-108018163D01*
X116680810Y-108143964D01*
X116913864Y-108060063D01*
X117105441Y-107935047D01*
X117268947Y-107775059D01*
X117398099Y-107586246D01*
X117487934Y-107375865D01*
X117535000Y-107152000D01*
X117535000Y-106727000D01*
X116502000Y-106727000D01*
X116248000Y-106727000D01*
X115215000Y-106727000D01*
X110385000Y-106727000D01*
X109352000Y-106727000D01*
X109098000Y-106727000D01*
X108065000Y-106727000D01*
X91849156Y-106727000D01*
X91905000Y-106446260D01*
X91905000Y-106153740D01*
X91847932Y-105866842D01*
X91735990Y-105596589D01*
X91573475Y-105353368D01*
X91530668Y-105310561D01*
X101777500Y-105310561D01*
X101777500Y-105514439D01*
X101817274Y-105714398D01*
X101895295Y-105902756D01*
X102008563Y-106072274D01*
X102152726Y-106216437D01*
X102322244Y-106329705D01*
X102510602Y-106407726D01*
X102710561Y-106447500D01*
X102914439Y-106447500D01*
X103114398Y-106407726D01*
X103302756Y-106329705D01*
X103472274Y-106216437D01*
X103616437Y-106072274D01*
X103632656Y-106048000D01*
X108065000Y-106048000D01*
X108065000Y-106473000D01*
X109098000Y-106473000D01*
X109098000Y-105181837D01*
X109352000Y-105181837D01*
X109352000Y-106473000D01*
X110385000Y-106473000D01*
X110385000Y-106048000D01*
X110337934Y-105824135D01*
X110248099Y-105613754D01*
X110118947Y-105424941D01*
X109955441Y-105264953D01*
X109763864Y-105139937D01*
X109530810Y-105056036D01*
X109352000Y-105181837D01*
X109098000Y-105181837D01*
X108919190Y-105056036D01*
X108686136Y-105139937D01*
X108494559Y-105264953D01*
X108331053Y-105424941D01*
X108201901Y-105613754D01*
X108112066Y-105824135D01*
X108065000Y-106048000D01*
X103632656Y-106048000D01*
X103729705Y-105902756D01*
X103807726Y-105714398D01*
X103847500Y-105514439D01*
X103847500Y-105310561D01*
X103807726Y-105110602D01*
X103729705Y-104922244D01*
X103616437Y-104752726D01*
X103472274Y-104608563D01*
X103302756Y-104495295D01*
X103114398Y-104417274D01*
X102914439Y-104377500D01*
X102710561Y-104377500D01*
X102510602Y-104417274D01*
X102322244Y-104495295D01*
X102152726Y-104608563D01*
X102008563Y-104752726D01*
X101895295Y-104922244D01*
X101817274Y-105110602D01*
X101777500Y-105310561D01*
X91530668Y-105310561D01*
X91366632Y-105146525D01*
X91123411Y-104984010D01*
X90853158Y-104872068D01*
X90566260Y-104815000D01*
X90273740Y-104815000D01*
X89986842Y-104872068D01*
X89716589Y-104984010D01*
X89473368Y-105146525D01*
X89266525Y-105353368D01*
X89150000Y-105527760D01*
X89033475Y-105353368D01*
X88826632Y-105146525D01*
X88583411Y-104984010D01*
X88313158Y-104872068D01*
X88026260Y-104815000D01*
X87733740Y-104815000D01*
X87446842Y-104872068D01*
X87176589Y-104984010D01*
X86933368Y-105146525D01*
X86726525Y-105353368D01*
X86610000Y-105527760D01*
X86493475Y-105353368D01*
X86286632Y-105146525D01*
X86043411Y-104984010D01*
X85773158Y-104872068D01*
X85486260Y-104815000D01*
X85193740Y-104815000D01*
X84906842Y-104872068D01*
X84636589Y-104984010D01*
X84393368Y-105146525D01*
X84261513Y-105278380D01*
X84239502Y-105205820D01*
X84180537Y-105095506D01*
X84101185Y-104998815D01*
X84004494Y-104919463D01*
X83894180Y-104860498D01*
X83774482Y-104824188D01*
X83650000Y-104811928D01*
X83085750Y-104815000D01*
X82927000Y-104973750D01*
X82673000Y-104973750D01*
X82514250Y-104815000D01*
X81950000Y-104811928D01*
X81825518Y-104824188D01*
X81705820Y-104860498D01*
X81595506Y-104919463D01*
X81498815Y-104998815D01*
X81419463Y-105095506D01*
X81360498Y-105205820D01*
X81324188Y-105325518D01*
X81311928Y-105450000D01*
X80035000Y-105450000D01*
X80035000Y-105422285D01*
X79887623Y-104681372D01*
X79598533Y-103983446D01*
X79178839Y-103355330D01*
X78644670Y-102821161D01*
X78016554Y-102401467D01*
X77318628Y-102112377D01*
X76577715Y-101965000D01*
X75822285Y-101965000D01*
X75081372Y-102112377D01*
X74383446Y-102401467D01*
X73755330Y-102821161D01*
X73221161Y-103355330D01*
X72801467Y-103983446D01*
X72710000Y-104204267D01*
X72710000Y-98198061D01*
X80665000Y-98198061D01*
X80665000Y-98401939D01*
X80704774Y-98601898D01*
X80782795Y-98790256D01*
X80896063Y-98959774D01*
X81040226Y-99103937D01*
X81209744Y-99217205D01*
X81398102Y-99295226D01*
X81598061Y-99335000D01*
X81801939Y-99335000D01*
X82001898Y-99295226D01*
X82190256Y-99217205D01*
X82359774Y-99103937D01*
X82503937Y-98959774D01*
X82617205Y-98790256D01*
X82695226Y-98601898D01*
X82735000Y-98401939D01*
X82735000Y-98198061D01*
X82695226Y-97998102D01*
X82617205Y-97809744D01*
X82503937Y-97640226D01*
X82359774Y-97496063D01*
X82190256Y-97382795D01*
X82001898Y-97304774D01*
X81801939Y-97265000D01*
X81598061Y-97265000D01*
X81398102Y-97304774D01*
X81209744Y-97382795D01*
X81040226Y-97496063D01*
X80896063Y-97640226D01*
X80782795Y-97809744D01*
X80704774Y-97998102D01*
X80665000Y-98198061D01*
X72710000Y-98198061D01*
X72710000Y-84150000D01*
X73511928Y-84150000D01*
X73524188Y-84274482D01*
X73560498Y-84394180D01*
X73619463Y-84504494D01*
X73698815Y-84601185D01*
X73795506Y-84680537D01*
X73905820Y-84739502D01*
X73978380Y-84761513D01*
X73846525Y-84893368D01*
X73684010Y-85136589D01*
X73572068Y-85406842D01*
X73515000Y-85693740D01*
X73515000Y-85986260D01*
X73572068Y-86273158D01*
X73684010Y-86543411D01*
X73846525Y-86786632D01*
X74053368Y-86993475D01*
X74227760Y-87110000D01*
X74053368Y-87226525D01*
X73846525Y-87433368D01*
X73684010Y-87676589D01*
X73572068Y-87946842D01*
X73515000Y-88233740D01*
X73515000Y-88526260D01*
X73572068Y-88813158D01*
X73684010Y-89083411D01*
X73846525Y-89326632D01*
X74053368Y-89533475D01*
X74227760Y-89650000D01*
X74053368Y-89766525D01*
X73846525Y-89973368D01*
X73684010Y-90216589D01*
X73572068Y-90486842D01*
X73515000Y-90773740D01*
X73515000Y-91066260D01*
X73572068Y-91353158D01*
X73684010Y-91623411D01*
X73846525Y-91866632D01*
X74053368Y-92073475D01*
X74227760Y-92190000D01*
X74053368Y-92306525D01*
X73846525Y-92513368D01*
X73684010Y-92756589D01*
X73572068Y-93026842D01*
X73515000Y-93313740D01*
X73515000Y-93606260D01*
X73572068Y-93893158D01*
X73684010Y-94163411D01*
X73846525Y-94406632D01*
X74053368Y-94613475D01*
X74227760Y-94730000D01*
X74053368Y-94846525D01*
X73846525Y-95053368D01*
X73684010Y-95296589D01*
X73572068Y-95566842D01*
X73515000Y-95853740D01*
X73515000Y-96146260D01*
X73572068Y-96433158D01*
X73684010Y-96703411D01*
X73846525Y-96946632D01*
X74053368Y-97153475D01*
X74296589Y-97315990D01*
X74566842Y-97427932D01*
X74853740Y-97485000D01*
X75146260Y-97485000D01*
X75433158Y-97427932D01*
X75703411Y-97315990D01*
X75946632Y-97153475D01*
X76153475Y-96946632D01*
X76315990Y-96703411D01*
X76427932Y-96433158D01*
X76485000Y-96146260D01*
X76485000Y-95853740D01*
X76427932Y-95566842D01*
X76399443Y-95498061D01*
X90565000Y-95498061D01*
X90565000Y-95701939D01*
X90604774Y-95901898D01*
X90682795Y-96090256D01*
X90796063Y-96259774D01*
X90940226Y-96403937D01*
X91109744Y-96517205D01*
X91298102Y-96595226D01*
X91498061Y-96635000D01*
X91701939Y-96635000D01*
X91901898Y-96595226D01*
X92090256Y-96517205D01*
X92259774Y-96403937D01*
X92403937Y-96259774D01*
X92517205Y-96090256D01*
X92595226Y-95901898D01*
X92635000Y-95701939D01*
X92635000Y-95498061D01*
X101265000Y-95498061D01*
X101265000Y-95701939D01*
X101304774Y-95901898D01*
X101382795Y-96090256D01*
X101496063Y-96259774D01*
X101640226Y-96403937D01*
X101809744Y-96517205D01*
X101998102Y-96595226D01*
X102198061Y-96635000D01*
X102401939Y-96635000D01*
X102601898Y-96595226D01*
X102790256Y-96517205D01*
X102959774Y-96403937D01*
X103103937Y-96259774D01*
X103217205Y-96090256D01*
X103295226Y-95901898D01*
X103326197Y-95746197D01*
X103481898Y-95715226D01*
X103670256Y-95637205D01*
X103839774Y-95523937D01*
X103983937Y-95379774D01*
X104097205Y-95210256D01*
X104175226Y-95021898D01*
X104215000Y-94821939D01*
X104215000Y-94618061D01*
X104175226Y-94418102D01*
X104097205Y-94229744D01*
X103983937Y-94060226D01*
X103839774Y-93916063D01*
X103670256Y-93802795D01*
X103481898Y-93724774D01*
X103281939Y-93685000D01*
X103078061Y-93685000D01*
X102878102Y-93724774D01*
X102689744Y-93802795D01*
X102520226Y-93916063D01*
X102376063Y-94060226D01*
X102262795Y-94229744D01*
X102184774Y-94418102D01*
X102153803Y-94573803D01*
X101998102Y-94604774D01*
X101809744Y-94682795D01*
X101640226Y-94796063D01*
X101496063Y-94940226D01*
X101382795Y-95109744D01*
X101304774Y-95298102D01*
X101265000Y-95498061D01*
X92635000Y-95498061D01*
X92595226Y-95298102D01*
X92517205Y-95109744D01*
X92481468Y-95056259D01*
X92559774Y-95003937D01*
X92703937Y-94859774D01*
X92817205Y-94690256D01*
X92895226Y-94501898D01*
X92935000Y-94301939D01*
X92935000Y-94098061D01*
X92895226Y-93898102D01*
X92817205Y-93709744D01*
X92703937Y-93540226D01*
X92559774Y-93396063D01*
X92390256Y-93282795D01*
X92201898Y-93204774D01*
X92001939Y-93165000D01*
X91798061Y-93165000D01*
X91598102Y-93204774D01*
X91409744Y-93282795D01*
X91240226Y-93396063D01*
X91096063Y-93540226D01*
X90982795Y-93709744D01*
X90904774Y-93898102D01*
X90865000Y-94098061D01*
X90865000Y-94301939D01*
X90904774Y-94501898D01*
X90982795Y-94690256D01*
X91018532Y-94743741D01*
X90940226Y-94796063D01*
X90796063Y-94940226D01*
X90682795Y-95109744D01*
X90604774Y-95298102D01*
X90565000Y-95498061D01*
X76399443Y-95498061D01*
X76315990Y-95296589D01*
X76153475Y-95053368D01*
X75946632Y-94846525D01*
X75772240Y-94730000D01*
X75946632Y-94613475D01*
X76153475Y-94406632D01*
X76315990Y-94163411D01*
X76427932Y-93893158D01*
X76485000Y-93606260D01*
X76485000Y-93313740D01*
X76427932Y-93026842D01*
X76315990Y-92756589D01*
X76153475Y-92513368D01*
X75946632Y-92306525D01*
X75933965Y-92298061D01*
X82965000Y-92298061D01*
X82965000Y-92501939D01*
X83004774Y-92701898D01*
X83082795Y-92890256D01*
X83196063Y-93059774D01*
X83340226Y-93203937D01*
X83509744Y-93317205D01*
X83698102Y-93395226D01*
X83898061Y-93435000D01*
X84101939Y-93435000D01*
X84301898Y-93395226D01*
X84490256Y-93317205D01*
X84659774Y-93203937D01*
X84803937Y-93059774D01*
X84917205Y-92890256D01*
X84995226Y-92701898D01*
X85035000Y-92501939D01*
X85035000Y-92298061D01*
X84995226Y-92098102D01*
X84917205Y-91909744D01*
X84803937Y-91740226D01*
X84659774Y-91596063D01*
X84490256Y-91482795D01*
X84301898Y-91404774D01*
X84101939Y-91365000D01*
X83898061Y-91365000D01*
X83698102Y-91404774D01*
X83509744Y-91482795D01*
X83340226Y-91596063D01*
X83196063Y-91740226D01*
X83082795Y-91909744D01*
X83004774Y-92098102D01*
X82965000Y-92298061D01*
X75933965Y-92298061D01*
X75772240Y-92190000D01*
X75946632Y-92073475D01*
X76153475Y-91866632D01*
X76315990Y-91623411D01*
X76427932Y-91353158D01*
X76485000Y-91066260D01*
X76485000Y-90773740D01*
X76427932Y-90486842D01*
X76315990Y-90216589D01*
X76303610Y-90198061D01*
X93565000Y-90198061D01*
X93565000Y-90401939D01*
X93604774Y-90601898D01*
X93682795Y-90790256D01*
X93796063Y-90959774D01*
X93940226Y-91103937D01*
X94109744Y-91217205D01*
X94298102Y-91295226D01*
X94498061Y-91335000D01*
X94701939Y-91335000D01*
X94901898Y-91295226D01*
X95090256Y-91217205D01*
X95259774Y-91103937D01*
X95403937Y-90959774D01*
X95517205Y-90790256D01*
X95595226Y-90601898D01*
X95635000Y-90401939D01*
X95635000Y-90198061D01*
X95595226Y-89998102D01*
X95517205Y-89809744D01*
X95403937Y-89640226D01*
X95261772Y-89498061D01*
X96765000Y-89498061D01*
X96765000Y-89701939D01*
X96804774Y-89901898D01*
X96882795Y-90090256D01*
X96996063Y-90259774D01*
X97140226Y-90403937D01*
X97309744Y-90517205D01*
X97498102Y-90595226D01*
X97698061Y-90635000D01*
X97901939Y-90635000D01*
X98101898Y-90595226D01*
X98290256Y-90517205D01*
X98459774Y-90403937D01*
X98603937Y-90259774D01*
X98717205Y-90090256D01*
X98749230Y-90012941D01*
X98840226Y-90103937D01*
X99009744Y-90217205D01*
X99198102Y-90295226D01*
X99398061Y-90335000D01*
X99601939Y-90335000D01*
X99801898Y-90295226D01*
X99990256Y-90217205D01*
X100159774Y-90103937D01*
X100303937Y-89959774D01*
X100417205Y-89790256D01*
X100495226Y-89601898D01*
X100535000Y-89401939D01*
X100535000Y-89198061D01*
X100495226Y-88998102D01*
X100417205Y-88809744D01*
X100303937Y-88640226D01*
X100159774Y-88496063D01*
X99990256Y-88382795D01*
X99801898Y-88304774D01*
X99601939Y-88265000D01*
X99398061Y-88265000D01*
X99198102Y-88304774D01*
X99009744Y-88382795D01*
X98840226Y-88496063D01*
X98696063Y-88640226D01*
X98582795Y-88809744D01*
X98550770Y-88887059D01*
X98459774Y-88796063D01*
X98290256Y-88682795D01*
X98101898Y-88604774D01*
X97901939Y-88565000D01*
X97698061Y-88565000D01*
X97498102Y-88604774D01*
X97309744Y-88682795D01*
X97140226Y-88796063D01*
X96996063Y-88940226D01*
X96882795Y-89109744D01*
X96804774Y-89298102D01*
X96765000Y-89498061D01*
X95261772Y-89498061D01*
X95259774Y-89496063D01*
X95090256Y-89382795D01*
X94901898Y-89304774D01*
X94701939Y-89265000D01*
X94498061Y-89265000D01*
X94298102Y-89304774D01*
X94109744Y-89382795D01*
X93940226Y-89496063D01*
X93796063Y-89640226D01*
X93682795Y-89809744D01*
X93604774Y-89998102D01*
X93565000Y-90198061D01*
X76303610Y-90198061D01*
X76153475Y-89973368D01*
X75946632Y-89766525D01*
X75772240Y-89650000D01*
X75946632Y-89533475D01*
X76153475Y-89326632D01*
X76315990Y-89083411D01*
X76427932Y-88813158D01*
X76485000Y-88526260D01*
X76485000Y-88233740D01*
X76427932Y-87946842D01*
X76315990Y-87676589D01*
X76153475Y-87433368D01*
X75946632Y-87226525D01*
X75772240Y-87110000D01*
X75946632Y-86993475D01*
X76153475Y-86786632D01*
X76315990Y-86543411D01*
X76427932Y-86273158D01*
X76485000Y-85986260D01*
X76485000Y-85693740D01*
X76427932Y-85406842D01*
X76315990Y-85136589D01*
X76153475Y-84893368D01*
X76021620Y-84761513D01*
X76094180Y-84739502D01*
X76204494Y-84680537D01*
X76301185Y-84601185D01*
X76380537Y-84504494D01*
X76439502Y-84394180D01*
X76475812Y-84274482D01*
X76488072Y-84150000D01*
X76485000Y-83585750D01*
X76326250Y-83427000D01*
X75127000Y-83427000D01*
X75127000Y-83447000D01*
X74873000Y-83447000D01*
X74873000Y-83427000D01*
X73673750Y-83427000D01*
X73515000Y-83585750D01*
X73511928Y-84150000D01*
X72710000Y-84150000D01*
X72710000Y-83298061D01*
X93365000Y-83298061D01*
X93365000Y-83501939D01*
X93404774Y-83701898D01*
X93482795Y-83890256D01*
X93596063Y-84059774D01*
X93740226Y-84203937D01*
X93909744Y-84317205D01*
X94098102Y-84395226D01*
X94298061Y-84435000D01*
X94501939Y-84435000D01*
X94701898Y-84395226D01*
X94890256Y-84317205D01*
X95059774Y-84203937D01*
X95203937Y-84059774D01*
X95317205Y-83890256D01*
X95395226Y-83701898D01*
X95435000Y-83501939D01*
X95435000Y-83298061D01*
X95395226Y-83098102D01*
X95317205Y-82909744D01*
X95203937Y-82740226D01*
X95059774Y-82596063D01*
X94890256Y-82482795D01*
X94701898Y-82404774D01*
X94501939Y-82365000D01*
X94298061Y-82365000D01*
X94098102Y-82404774D01*
X93909744Y-82482795D01*
X93740226Y-82596063D01*
X93596063Y-82740226D01*
X93482795Y-82909744D01*
X93404774Y-83098102D01*
X93365000Y-83298061D01*
X72710000Y-83298061D01*
X72710000Y-82450000D01*
X73511928Y-82450000D01*
X73515000Y-83014250D01*
X73673750Y-83173000D01*
X74873000Y-83173000D01*
X74873000Y-81973750D01*
X75127000Y-81973750D01*
X75127000Y-83173000D01*
X76326250Y-83173000D01*
X76485000Y-83014250D01*
X76488072Y-82450000D01*
X76475812Y-82325518D01*
X76439502Y-82205820D01*
X76380537Y-82095506D01*
X76301185Y-81998815D01*
X76204494Y-81919463D01*
X76094180Y-81860498D01*
X75974482Y-81824188D01*
X75850000Y-81811928D01*
X75285750Y-81815000D01*
X75127000Y-81973750D01*
X74873000Y-81973750D01*
X74714250Y-81815000D01*
X74150000Y-81811928D01*
X74025518Y-81824188D01*
X73905820Y-81860498D01*
X73795506Y-81919463D01*
X73698815Y-81998815D01*
X73619463Y-82095506D01*
X73560498Y-82205820D01*
X73524188Y-82325518D01*
X73511928Y-82450000D01*
X72710000Y-82450000D01*
X72710000Y-67350000D01*
X73511928Y-67350000D01*
X73524188Y-67474482D01*
X73560498Y-67594180D01*
X73619463Y-67704494D01*
X73698815Y-67801185D01*
X73795506Y-67880537D01*
X73905820Y-67939502D01*
X73978380Y-67961513D01*
X73846525Y-68093368D01*
X73684010Y-68336589D01*
X73572068Y-68606842D01*
X73515000Y-68893740D01*
X73515000Y-69186260D01*
X73572068Y-69473158D01*
X73684010Y-69743411D01*
X73846525Y-69986632D01*
X74053368Y-70193475D01*
X74227760Y-70310000D01*
X74053368Y-70426525D01*
X73846525Y-70633368D01*
X73684010Y-70876589D01*
X73572068Y-71146842D01*
X73515000Y-71433740D01*
X73515000Y-71726260D01*
X73572068Y-72013158D01*
X73684010Y-72283411D01*
X73846525Y-72526632D01*
X74053368Y-72733475D01*
X74227760Y-72850000D01*
X74053368Y-72966525D01*
X73846525Y-73173368D01*
X73684010Y-73416589D01*
X73572068Y-73686842D01*
X73515000Y-73973740D01*
X73515000Y-74266260D01*
X73572068Y-74553158D01*
X73684010Y-74823411D01*
X73846525Y-75066632D01*
X74053368Y-75273475D01*
X74227760Y-75390000D01*
X74053368Y-75506525D01*
X73846525Y-75713368D01*
X73684010Y-75956589D01*
X73572068Y-76226842D01*
X73515000Y-76513740D01*
X73515000Y-76806260D01*
X73572068Y-77093158D01*
X73684010Y-77363411D01*
X73846525Y-77606632D01*
X74053368Y-77813475D01*
X74296589Y-77975990D01*
X74566842Y-78087932D01*
X74853740Y-78145000D01*
X75146260Y-78145000D01*
X75433158Y-78087932D01*
X75703411Y-77975990D01*
X75946632Y-77813475D01*
X76153475Y-77606632D01*
X76315990Y-77363411D01*
X76427932Y-77093158D01*
X76485000Y-76806260D01*
X76485000Y-76513740D01*
X76427932Y-76226842D01*
X76315990Y-75956589D01*
X76153475Y-75713368D01*
X75946632Y-75506525D01*
X75772240Y-75390000D01*
X75946632Y-75273475D01*
X76153475Y-75066632D01*
X76315990Y-74823411D01*
X76347200Y-74748061D01*
X85365000Y-74748061D01*
X85365000Y-74951939D01*
X85404774Y-75151898D01*
X85482795Y-75340256D01*
X85596063Y-75509774D01*
X85740226Y-75653937D01*
X85909744Y-75767205D01*
X86098102Y-75845226D01*
X86298061Y-75885000D01*
X86501939Y-75885000D01*
X86701898Y-75845226D01*
X86890256Y-75767205D01*
X87059774Y-75653937D01*
X87203937Y-75509774D01*
X87317205Y-75340256D01*
X87395226Y-75151898D01*
X87435000Y-74951939D01*
X87435000Y-74748061D01*
X87395226Y-74548102D01*
X87317205Y-74359744D01*
X87203937Y-74190226D01*
X87059774Y-74046063D01*
X86890256Y-73932795D01*
X86701898Y-73854774D01*
X86501939Y-73815000D01*
X86298061Y-73815000D01*
X86098102Y-73854774D01*
X85909744Y-73932795D01*
X85740226Y-74046063D01*
X85596063Y-74190226D01*
X85482795Y-74359744D01*
X85404774Y-74548102D01*
X85365000Y-74748061D01*
X76347200Y-74748061D01*
X76427932Y-74553158D01*
X76485000Y-74266260D01*
X76485000Y-73973740D01*
X76427932Y-73686842D01*
X76315990Y-73416589D01*
X76153475Y-73173368D01*
X75946632Y-72966525D01*
X75772240Y-72850000D01*
X75946632Y-72733475D01*
X76153475Y-72526632D01*
X76315990Y-72283411D01*
X76427932Y-72013158D01*
X76485000Y-71726260D01*
X76485000Y-71433740D01*
X76439182Y-71203397D01*
X76598061Y-71235000D01*
X76801939Y-71235000D01*
X77001898Y-71195226D01*
X77190256Y-71117205D01*
X77359774Y-71003937D01*
X77503937Y-70859774D01*
X77617205Y-70690256D01*
X77695226Y-70501898D01*
X77735000Y-70301939D01*
X77735000Y-70098061D01*
X77695226Y-69898102D01*
X77617205Y-69709744D01*
X77503937Y-69540226D01*
X77359774Y-69396063D01*
X77190256Y-69282795D01*
X77001898Y-69204774D01*
X76801939Y-69165000D01*
X76598061Y-69165000D01*
X76484745Y-69187540D01*
X76485000Y-69186260D01*
X76485000Y-68893740D01*
X76427932Y-68606842D01*
X76315990Y-68336589D01*
X76153475Y-68093368D01*
X76021620Y-67961513D01*
X76094180Y-67939502D01*
X76204494Y-67880537D01*
X76301185Y-67801185D01*
X76380537Y-67704494D01*
X76439502Y-67594180D01*
X76475812Y-67474482D01*
X76488072Y-67350000D01*
X76485000Y-66785750D01*
X76326250Y-66627000D01*
X75127000Y-66627000D01*
X75127000Y-66647000D01*
X74873000Y-66647000D01*
X74873000Y-66627000D01*
X73673750Y-66627000D01*
X73515000Y-66785750D01*
X73511928Y-67350000D01*
X72710000Y-67350000D01*
X72710000Y-65650000D01*
X73511928Y-65650000D01*
X73515000Y-66214250D01*
X73673750Y-66373000D01*
X74873000Y-66373000D01*
X74873000Y-65173750D01*
X75127000Y-65173750D01*
X75127000Y-66373000D01*
X76326250Y-66373000D01*
X76485000Y-66214250D01*
X76488072Y-65650000D01*
X76475812Y-65525518D01*
X76439502Y-65405820D01*
X76380537Y-65295506D01*
X76301185Y-65198815D01*
X76204494Y-65119463D01*
X76094180Y-65060498D01*
X75974482Y-65024188D01*
X75850000Y-65011928D01*
X75285750Y-65015000D01*
X75127000Y-65173750D01*
X74873000Y-65173750D01*
X74714250Y-65015000D01*
X74150000Y-65011928D01*
X74025518Y-65024188D01*
X73905820Y-65060498D01*
X73795506Y-65119463D01*
X73698815Y-65198815D01*
X73619463Y-65295506D01*
X73560498Y-65405820D01*
X73524188Y-65525518D01*
X73511928Y-65650000D01*
X72710000Y-65650000D01*
X72710000Y-63027000D01*
X83139088Y-63027000D01*
X83139088Y-72400000D01*
%TA.AperFunction,Conductor*%
D25*
G36*
X83139088Y-72400000D02*
G01*
X83141528Y-72424776D01*
X83148755Y-72448601D01*
X83160491Y-72470557D01*
X83176285Y-72489803D01*
X83195531Y-72505597D01*
X83217487Y-72517333D01*
X83241312Y-72524560D01*
X83266088Y-72527000D01*
X105509289Y-72527000D01*
X105371063Y-72665226D01*
X105257795Y-72834744D01*
X105179774Y-73023102D01*
X105140000Y-73223061D01*
X105140000Y-73426939D01*
X105179774Y-73626898D01*
X105257795Y-73815256D01*
X105371063Y-73984774D01*
X105515226Y-74128937D01*
X105684744Y-74242205D01*
X105873102Y-74320226D01*
X106073061Y-74360000D01*
X106276939Y-74360000D01*
X106476898Y-74320226D01*
X106665256Y-74242205D01*
X106834774Y-74128937D01*
X106978937Y-73984774D01*
X107039088Y-73894751D01*
X107039088Y-75200000D01*
X107041528Y-75224776D01*
X107048755Y-75248601D01*
X107060491Y-75270557D01*
X107076285Y-75289803D01*
X107095531Y-75305597D01*
X107117487Y-75317333D01*
X107141312Y-75324560D01*
X107166088Y-75327000D01*
X108215000Y-75327000D01*
X108215000Y-75946101D01*
X108140226Y-75996063D01*
X107996063Y-76140226D01*
X107882795Y-76309744D01*
X107804774Y-76498102D01*
X107765000Y-76698061D01*
X107765000Y-76901939D01*
X107785925Y-77007137D01*
X107682235Y-77092235D01*
X107657652Y-77122189D01*
X106694177Y-78085664D01*
X106598102Y-78104774D01*
X106409744Y-78182795D01*
X106240226Y-78296063D01*
X106096063Y-78440226D01*
X105982795Y-78609744D01*
X105904774Y-78798102D01*
X105865000Y-78998061D01*
X105865000Y-79201939D01*
X105904774Y-79401898D01*
X105982795Y-79590256D01*
X106096063Y-79759774D01*
X106240226Y-79903937D01*
X106409744Y-80017205D01*
X106598102Y-80095226D01*
X106798061Y-80135000D01*
X107001939Y-80135000D01*
X107201898Y-80095226D01*
X107390256Y-80017205D01*
X107400000Y-80010694D01*
X107409744Y-80017205D01*
X107598102Y-80095226D01*
X107762013Y-80127830D01*
X106624843Y-81265000D01*
X106598061Y-81265000D01*
X106398102Y-81304774D01*
X106290102Y-81349510D01*
X106190256Y-81282795D01*
X106001898Y-81204774D01*
X105801939Y-81165000D01*
X105598061Y-81165000D01*
X105398102Y-81204774D01*
X105209744Y-81282795D01*
X105040226Y-81396063D01*
X104896063Y-81540226D01*
X104782795Y-81709744D01*
X104704774Y-81898102D01*
X104665000Y-82098061D01*
X104665000Y-82301939D01*
X104704774Y-82501898D01*
X104782795Y-82690256D01*
X104896063Y-82859774D01*
X105040226Y-83003937D01*
X105209744Y-83117205D01*
X105398102Y-83195226D01*
X105598061Y-83235000D01*
X105801939Y-83235000D01*
X106001898Y-83195226D01*
X106109898Y-83150490D01*
X106209744Y-83217205D01*
X106398102Y-83295226D01*
X106598061Y-83335000D01*
X106801939Y-83335000D01*
X107001898Y-83295226D01*
X107190256Y-83217205D01*
X107359774Y-83103937D01*
X107503937Y-82959774D01*
X107617205Y-82790256D01*
X107695226Y-82601898D01*
X107735000Y-82401939D01*
X107735000Y-82375157D01*
X107912096Y-82198061D01*
X109065000Y-82198061D01*
X109065000Y-82401939D01*
X109104774Y-82601898D01*
X109182795Y-82790256D01*
X109296063Y-82959774D01*
X109440226Y-83103937D01*
X109609744Y-83217205D01*
X109798102Y-83295226D01*
X109998061Y-83335000D01*
X110201939Y-83335000D01*
X110401898Y-83295226D01*
X110590256Y-83217205D01*
X110759774Y-83103937D01*
X110903937Y-82959774D01*
X111017205Y-82790256D01*
X111095226Y-82601898D01*
X111135000Y-82401939D01*
X111135000Y-82198061D01*
X111095226Y-81998102D01*
X111017205Y-81809744D01*
X110903937Y-81640226D01*
X110759774Y-81496063D01*
X110590256Y-81382795D01*
X110401898Y-81304774D01*
X110201939Y-81265000D01*
X109998061Y-81265000D01*
X109798102Y-81304774D01*
X109609744Y-81382795D01*
X109440226Y-81496063D01*
X109296063Y-81640226D01*
X109182795Y-81809744D01*
X109104774Y-81998102D01*
X109065000Y-82198061D01*
X107912096Y-82198061D01*
X109385158Y-80725000D01*
X112961289Y-80725000D01*
X112980226Y-80743937D01*
X113149744Y-80857205D01*
X113338102Y-80935226D01*
X113538061Y-80975000D01*
X113564843Y-80975000D01*
X117055153Y-84465310D01*
X117079736Y-84495264D01*
X117199267Y-84593362D01*
X117335640Y-84666254D01*
X117483613Y-84711142D01*
X117558526Y-84718520D01*
X117598939Y-84722500D01*
X117598944Y-84722500D01*
X117637500Y-84726297D01*
X117676056Y-84722500D01*
X120167343Y-84722500D01*
X115935000Y-88954843D01*
X115935000Y-88798061D01*
X115895226Y-88598102D01*
X115817205Y-88409744D01*
X115703937Y-88240226D01*
X115559774Y-88096063D01*
X115390256Y-87982795D01*
X115201898Y-87904774D01*
X115001939Y-87865000D01*
X114798061Y-87865000D01*
X114598102Y-87904774D01*
X114409744Y-87982795D01*
X114240226Y-88096063D01*
X114096063Y-88240226D01*
X113982795Y-88409744D01*
X113904774Y-88598102D01*
X113865000Y-88798061D01*
X113865000Y-88991467D01*
X113798102Y-89004774D01*
X113627474Y-89075451D01*
X113603937Y-89040226D01*
X113459774Y-88896063D01*
X113290256Y-88782795D01*
X113101898Y-88704774D01*
X112982656Y-88681055D01*
X113103937Y-88559774D01*
X113217205Y-88390256D01*
X113295226Y-88201898D01*
X113335000Y-88001939D01*
X113335000Y-87798061D01*
X113295226Y-87598102D01*
X113217205Y-87409744D01*
X113103937Y-87240226D01*
X113082656Y-87218945D01*
X113201898Y-87195226D01*
X113390256Y-87117205D01*
X113559774Y-87003937D01*
X113703937Y-86859774D01*
X113817205Y-86690256D01*
X113895226Y-86501898D01*
X113935000Y-86301939D01*
X113935000Y-86098061D01*
X113895226Y-85898102D01*
X113817205Y-85709744D01*
X113703937Y-85540226D01*
X113559774Y-85396063D01*
X113390256Y-85282795D01*
X113201898Y-85204774D01*
X113001939Y-85165000D01*
X112798061Y-85165000D01*
X112598102Y-85204774D01*
X112409744Y-85282795D01*
X112240226Y-85396063D01*
X112096063Y-85540226D01*
X111982795Y-85709744D01*
X111925034Y-85849191D01*
X111048020Y-84972178D01*
X111023439Y-84942226D01*
X110903908Y-84844128D01*
X110767535Y-84771236D01*
X110619562Y-84726349D01*
X110504236Y-84714990D01*
X110504228Y-84714990D01*
X110465675Y-84711193D01*
X110427122Y-84714990D01*
X105825147Y-84714990D01*
X101082347Y-79972190D01*
X101057764Y-79942236D01*
X100938233Y-79844138D01*
X100801860Y-79771246D01*
X100653887Y-79726359D01*
X100538561Y-79715000D01*
X100538553Y-79715000D01*
X100500000Y-79711203D01*
X100461447Y-79715000D01*
X98078711Y-79715000D01*
X98059774Y-79696063D01*
X97890256Y-79582795D01*
X97701898Y-79504774D01*
X97501939Y-79465000D01*
X97298061Y-79465000D01*
X97098102Y-79504774D01*
X96909744Y-79582795D01*
X96740226Y-79696063D01*
X96596063Y-79840226D01*
X96482795Y-80009744D01*
X96404774Y-80198102D01*
X96365000Y-80398061D01*
X96365000Y-80601939D01*
X96404774Y-80801898D01*
X96482795Y-80990256D01*
X96588225Y-81148044D01*
X96580884Y-81155385D01*
X96503937Y-81040226D01*
X96359774Y-80896063D01*
X96190256Y-80782795D01*
X96001898Y-80704774D01*
X95801939Y-80665000D01*
X95598061Y-80665000D01*
X95398102Y-80704774D01*
X95209744Y-80782795D01*
X95040226Y-80896063D01*
X94896063Y-81040226D01*
X94782795Y-81209744D01*
X94704774Y-81398102D01*
X94665000Y-81598061D01*
X94665000Y-81801939D01*
X94704774Y-82001898D01*
X94782795Y-82190256D01*
X94896063Y-82359774D01*
X95040226Y-82503937D01*
X95209744Y-82617205D01*
X95398102Y-82695226D01*
X95598061Y-82735000D01*
X95624842Y-82735000D01*
X96067658Y-83177816D01*
X96092237Y-83207765D01*
X96122185Y-83232343D01*
X96122188Y-83232346D01*
X96151560Y-83256451D01*
X96211768Y-83305863D01*
X96348141Y-83378755D01*
X96450114Y-83409688D01*
X96496113Y-83423642D01*
X96510491Y-83425058D01*
X96611440Y-83435001D01*
X96611447Y-83435001D01*
X96650000Y-83438798D01*
X96688553Y-83435001D01*
X100131612Y-83435001D01*
X100040226Y-83496063D01*
X99896063Y-83640226D01*
X99782795Y-83809744D01*
X99704774Y-83998102D01*
X99665000Y-84198061D01*
X99665000Y-84401939D01*
X99704774Y-84601898D01*
X99782795Y-84790256D01*
X99896063Y-84959774D01*
X100040226Y-85103937D01*
X100209744Y-85217205D01*
X100398102Y-85295226D01*
X100598061Y-85335000D01*
X100624843Y-85335000D01*
X101574927Y-86285084D01*
X101459744Y-86332795D01*
X101290226Y-86446063D01*
X101146063Y-86590226D01*
X101032795Y-86759744D01*
X100954774Y-86948102D01*
X100915000Y-87148061D01*
X100915000Y-87351939D01*
X100954774Y-87551898D01*
X101032795Y-87740256D01*
X101146063Y-87909774D01*
X101290226Y-88053937D01*
X101459744Y-88167205D01*
X101648102Y-88245226D01*
X101848061Y-88285000D01*
X101951623Y-88285000D01*
X101904774Y-88398102D01*
X101865000Y-88598061D01*
X101865000Y-88801939D01*
X101904774Y-89001898D01*
X101982795Y-89190256D01*
X102096063Y-89359774D01*
X102240226Y-89503937D01*
X102409744Y-89617205D01*
X102598102Y-89695226D01*
X102798061Y-89735000D01*
X103001939Y-89735000D01*
X103201898Y-89695226D01*
X103390256Y-89617205D01*
X103559774Y-89503937D01*
X103703937Y-89359774D01*
X103817205Y-89190256D01*
X103895226Y-89001898D01*
X103935000Y-88801939D01*
X103935000Y-88645158D01*
X106817657Y-91527815D01*
X106842235Y-91557763D01*
X106872183Y-91582341D01*
X106872186Y-91582344D01*
X106888903Y-91596063D01*
X106961766Y-91655861D01*
X107098139Y-91728753D01*
X107211671Y-91763193D01*
X107246111Y-91773640D01*
X107259920Y-91775000D01*
X107361438Y-91784999D01*
X107361445Y-91784999D01*
X107399998Y-91788796D01*
X107438551Y-91784999D01*
X108615000Y-91784999D01*
X108615000Y-91851939D01*
X108654774Y-92051898D01*
X108732795Y-92240256D01*
X108846063Y-92409774D01*
X108990226Y-92553937D01*
X109159744Y-92667205D01*
X109177797Y-92674683D01*
X109082795Y-92816864D01*
X109021435Y-92965000D01*
X108998061Y-92965000D01*
X108798102Y-93004774D01*
X108609744Y-93082795D01*
X108440226Y-93196063D01*
X108340837Y-93295452D01*
X108303937Y-93240226D01*
X108159774Y-93096063D01*
X107990256Y-92982795D01*
X107801898Y-92904774D01*
X107601939Y-92865000D01*
X107398061Y-92865000D01*
X107198102Y-92904774D01*
X107009744Y-92982795D01*
X106840226Y-93096063D01*
X106696063Y-93240226D01*
X106582795Y-93409744D01*
X106504774Y-93598102D01*
X106465000Y-93798061D01*
X106465000Y-94001939D01*
X106504774Y-94201898D01*
X106582795Y-94390256D01*
X106696063Y-94559774D01*
X106840226Y-94703937D01*
X107009744Y-94817205D01*
X107198102Y-94895226D01*
X107398061Y-94935000D01*
X107601939Y-94935000D01*
X107801898Y-94895226D01*
X107990256Y-94817205D01*
X108159774Y-94703937D01*
X108259163Y-94604548D01*
X108296063Y-94659774D01*
X108440226Y-94803937D01*
X108609744Y-94917205D01*
X108798102Y-94995226D01*
X108865002Y-95008533D01*
X108865001Y-97365000D01*
X108798061Y-97365000D01*
X108598102Y-97404774D01*
X108409744Y-97482795D01*
X108350000Y-97522715D01*
X108290256Y-97482795D01*
X108101898Y-97404774D01*
X107901939Y-97365000D01*
X107698061Y-97365000D01*
X107498102Y-97404774D01*
X107309744Y-97482795D01*
X107200000Y-97556123D01*
X107090256Y-97482795D01*
X106901898Y-97404774D01*
X106701939Y-97365000D01*
X106498061Y-97365000D01*
X106298102Y-97404774D01*
X106109744Y-97482795D01*
X106050000Y-97522715D01*
X105990256Y-97482795D01*
X105801898Y-97404774D01*
X105601939Y-97365000D01*
X105398061Y-97365000D01*
X105198102Y-97404774D01*
X105009744Y-97482795D01*
X104840226Y-97596063D01*
X104696063Y-97740226D01*
X104582795Y-97909744D01*
X104504774Y-98098102D01*
X104465000Y-98298061D01*
X104465000Y-98501939D01*
X104504774Y-98701898D01*
X104582795Y-98890256D01*
X104696063Y-99059774D01*
X104840226Y-99203937D01*
X105009744Y-99317205D01*
X105198102Y-99395226D01*
X105398061Y-99435000D01*
X105601939Y-99435000D01*
X105801898Y-99395226D01*
X105990256Y-99317205D01*
X106050000Y-99277285D01*
X106109744Y-99317205D01*
X106298102Y-99395226D01*
X106498061Y-99435000D01*
X106701939Y-99435000D01*
X106901898Y-99395226D01*
X107090256Y-99317205D01*
X107200000Y-99243877D01*
X107309744Y-99317205D01*
X107498102Y-99395226D01*
X107698061Y-99435000D01*
X107901939Y-99435000D01*
X108078234Y-99399933D01*
X108076358Y-99406117D01*
X108061202Y-99560003D01*
X108065000Y-99598565D01*
X108064999Y-100621448D01*
X108061202Y-100660001D01*
X108064999Y-100698554D01*
X108064999Y-100698561D01*
X108076358Y-100813887D01*
X108121245Y-100961860D01*
X108194137Y-101098233D01*
X108292235Y-101217765D01*
X108322189Y-101242348D01*
X112907646Y-105827806D01*
X112932224Y-105857754D01*
X112962172Y-105882332D01*
X112962175Y-105882335D01*
X112979544Y-105896589D01*
X113051755Y-105955852D01*
X113188128Y-106028744D01*
X113301660Y-106063184D01*
X113336100Y-106073631D01*
X113350478Y-106075047D01*
X113451427Y-106084990D01*
X113451434Y-106084990D01*
X113489987Y-106088787D01*
X113528540Y-106084990D01*
X115215000Y-106084990D01*
X115215000Y-106473000D01*
X116248000Y-106473000D01*
X116248000Y-106453000D01*
X116502000Y-106453000D01*
X116502000Y-106473000D01*
X117535000Y-106473000D01*
X117535000Y-106084990D01*
X119411928Y-106084990D01*
X119411928Y-107450000D01*
X119424188Y-107574482D01*
X119460498Y-107694180D01*
X119519463Y-107804494D01*
X119598815Y-107901185D01*
X119695506Y-107980537D01*
X119805820Y-108039502D01*
X119925518Y-108075812D01*
X120050000Y-108088072D01*
X121750000Y-108088072D01*
X121874482Y-108075812D01*
X121994180Y-108039502D01*
X122104494Y-107980537D01*
X122201185Y-107901185D01*
X122280537Y-107804494D01*
X122339502Y-107694180D01*
X122361513Y-107621620D01*
X122493368Y-107753475D01*
X122736589Y-107915990D01*
X123006842Y-108027932D01*
X123293740Y-108085000D01*
X123586260Y-108085000D01*
X123873158Y-108027932D01*
X124143411Y-107915990D01*
X124386632Y-107753475D01*
X124593475Y-107546632D01*
X124715195Y-107364466D01*
X124784822Y-107481355D01*
X124979731Y-107697588D01*
X125213080Y-107871641D01*
X125475901Y-107996825D01*
X125623110Y-108041476D01*
X125853000Y-107920155D01*
X125853000Y-106727000D01*
X125833000Y-106727000D01*
X125833000Y-106473000D01*
X125853000Y-106473000D01*
X125853000Y-106453000D01*
X126107000Y-106453000D01*
X126107000Y-106473000D01*
X126127000Y-106473000D01*
X126127000Y-106727000D01*
X126107000Y-106727000D01*
X126107000Y-107920155D01*
X126336890Y-108041476D01*
X126484099Y-107996825D01*
X126746920Y-107871641D01*
X126980269Y-107697588D01*
X127175178Y-107481355D01*
X127244805Y-107364466D01*
X127366525Y-107546632D01*
X127573368Y-107753475D01*
X127816589Y-107915990D01*
X128086842Y-108027932D01*
X128373740Y-108085000D01*
X128666260Y-108085000D01*
X128953158Y-108027932D01*
X129223411Y-107915990D01*
X129466632Y-107753475D01*
X129673475Y-107546632D01*
X129738042Y-107450000D01*
X132031928Y-107450000D01*
X132044188Y-107574482D01*
X132080498Y-107694180D01*
X132139463Y-107804494D01*
X132218815Y-107901185D01*
X132315506Y-107980537D01*
X132425820Y-108039502D01*
X132545518Y-108075812D01*
X132670000Y-108088072D01*
X133234250Y-108085000D01*
X133393000Y-107926250D01*
X133393000Y-106727000D01*
X132193750Y-106727000D01*
X132035000Y-106885750D01*
X132031928Y-107450000D01*
X129738042Y-107450000D01*
X129835990Y-107303411D01*
X129947932Y-107033158D01*
X130005000Y-106746260D01*
X130005000Y-106453740D01*
X129947932Y-106166842D01*
X129835990Y-105896589D01*
X129738043Y-105750000D01*
X132031928Y-105750000D01*
X132035000Y-106314250D01*
X132193750Y-106473000D01*
X133393000Y-106473000D01*
X133393000Y-105273750D01*
X133647000Y-105273750D01*
X133647000Y-106473000D01*
X133667000Y-106473000D01*
X133667000Y-106727000D01*
X133647000Y-106727000D01*
X133647000Y-107926250D01*
X133805750Y-108085000D01*
X134370000Y-108088072D01*
X134494482Y-108075812D01*
X134614180Y-108039502D01*
X134724494Y-107980537D01*
X134821185Y-107901185D01*
X134900537Y-107804494D01*
X134959502Y-107694180D01*
X134981513Y-107621620D01*
X135113368Y-107753475D01*
X135356589Y-107915990D01*
X135626842Y-108027932D01*
X135913740Y-108085000D01*
X136206260Y-108085000D01*
X136493158Y-108027932D01*
X136763411Y-107915990D01*
X137006632Y-107753475D01*
X137213475Y-107546632D01*
X137330000Y-107372240D01*
X137446525Y-107546632D01*
X137653368Y-107753475D01*
X137896589Y-107915990D01*
X138166842Y-108027932D01*
X138453740Y-108085000D01*
X138746260Y-108085000D01*
X139033158Y-108027932D01*
X139303411Y-107915990D01*
X139546632Y-107753475D01*
X139753475Y-107546632D01*
X139870000Y-107372240D01*
X139986525Y-107546632D01*
X140193368Y-107753475D01*
X140436589Y-107915990D01*
X140706842Y-108027932D01*
X140993740Y-108085000D01*
X141286260Y-108085000D01*
X141573158Y-108027932D01*
X141843411Y-107915990D01*
X142086632Y-107753475D01*
X142293475Y-107546632D01*
X142455990Y-107303411D01*
X142567932Y-107033158D01*
X142625000Y-106746260D01*
X142625000Y-106453740D01*
X142567932Y-106166842D01*
X142455990Y-105896589D01*
X142293475Y-105653368D01*
X142086632Y-105446525D01*
X141843411Y-105284010D01*
X141573158Y-105172068D01*
X141286260Y-105115000D01*
X140993740Y-105115000D01*
X140706842Y-105172068D01*
X140436589Y-105284010D01*
X140193368Y-105446525D01*
X139986525Y-105653368D01*
X139870000Y-105827760D01*
X139753475Y-105653368D01*
X139546632Y-105446525D01*
X139303411Y-105284010D01*
X139033158Y-105172068D01*
X138746260Y-105115000D01*
X138453740Y-105115000D01*
X138166842Y-105172068D01*
X137896589Y-105284010D01*
X137653368Y-105446525D01*
X137446525Y-105653368D01*
X137330000Y-105827760D01*
X137213475Y-105653368D01*
X137006632Y-105446525D01*
X136763411Y-105284010D01*
X136493158Y-105172068D01*
X136206260Y-105115000D01*
X135913740Y-105115000D01*
X135626842Y-105172068D01*
X135356589Y-105284010D01*
X135113368Y-105446525D01*
X134981513Y-105578380D01*
X134959502Y-105505820D01*
X134900537Y-105395506D01*
X134821185Y-105298815D01*
X134724494Y-105219463D01*
X134614180Y-105160498D01*
X134494482Y-105124188D01*
X134370000Y-105111928D01*
X133805750Y-105115000D01*
X133647000Y-105273750D01*
X133393000Y-105273750D01*
X133234250Y-105115000D01*
X132670000Y-105111928D01*
X132545518Y-105124188D01*
X132425820Y-105160498D01*
X132315506Y-105219463D01*
X132218815Y-105298815D01*
X132139463Y-105395506D01*
X132080498Y-105505820D01*
X132044188Y-105625518D01*
X132031928Y-105750000D01*
X129738043Y-105750000D01*
X129673475Y-105653368D01*
X129466632Y-105446525D01*
X129223411Y-105284010D01*
X128953158Y-105172068D01*
X128666260Y-105115000D01*
X128373740Y-105115000D01*
X128183082Y-105152925D01*
X127802337Y-104772180D01*
X127777754Y-104742226D01*
X127658223Y-104644128D01*
X127521850Y-104571236D01*
X127373877Y-104526349D01*
X127258551Y-104514990D01*
X127258543Y-104514990D01*
X127219990Y-104511193D01*
X127181437Y-104514990D01*
X113815146Y-104514990D01*
X111542307Y-102242151D01*
X111646111Y-102273640D01*
X111660489Y-102275056D01*
X111761438Y-102284999D01*
X111761445Y-102284999D01*
X111799998Y-102288796D01*
X111838551Y-102284999D01*
X113661448Y-102284999D01*
X113700001Y-102288796D01*
X113738554Y-102284999D01*
X113738562Y-102284999D01*
X113853888Y-102273640D01*
X114001861Y-102228753D01*
X114138234Y-102155861D01*
X114163653Y-102135000D01*
X114201939Y-102135000D01*
X114401898Y-102095226D01*
X114590256Y-102017205D01*
X114759774Y-101903937D01*
X114903937Y-101759774D01*
X115017205Y-101590256D01*
X115095226Y-101401898D01*
X115135000Y-101201939D01*
X115135000Y-100998061D01*
X115117870Y-100911940D01*
X115201898Y-100895226D01*
X115390256Y-100817205D01*
X115559774Y-100703937D01*
X115676777Y-100586934D01*
X116864999Y-101775156D01*
X116864999Y-102077131D01*
X116861202Y-102115684D01*
X116864999Y-102154237D01*
X116864999Y-102154245D01*
X116876358Y-102269571D01*
X116881038Y-102284999D01*
X116921245Y-102417543D01*
X116921246Y-102417544D01*
X116994138Y-102553917D01*
X117028727Y-102596063D01*
X117067654Y-102643496D01*
X117067658Y-102643500D01*
X117092236Y-102673448D01*
X117122184Y-102698026D01*
X117451968Y-103027810D01*
X117476551Y-103057764D01*
X117596082Y-103155862D01*
X117732455Y-103228754D01*
X117880428Y-103273642D01*
X117913154Y-103276865D01*
X117940226Y-103303937D01*
X118109744Y-103417205D01*
X118298102Y-103495226D01*
X118498061Y-103535000D01*
X118701939Y-103535000D01*
X118901898Y-103495226D01*
X119090256Y-103417205D01*
X119259774Y-103303937D01*
X119403937Y-103159774D01*
X119517205Y-102990256D01*
X119595226Y-102801898D01*
X119635000Y-102601939D01*
X119635000Y-102398061D01*
X119595226Y-102198102D01*
X119517205Y-102009744D01*
X119403937Y-101840226D01*
X119357262Y-101793551D01*
X119395226Y-101701898D01*
X119435000Y-101501939D01*
X119435000Y-101298061D01*
X119395226Y-101098102D01*
X119317205Y-100909744D01*
X119203937Y-100740226D01*
X119059774Y-100596063D01*
X118890256Y-100482795D01*
X118701898Y-100404774D01*
X118501939Y-100365000D01*
X118475157Y-100365000D01*
X113685000Y-95574843D01*
X113685000Y-94898061D01*
X115765000Y-94898061D01*
X115765000Y-95101939D01*
X115804774Y-95301898D01*
X115882795Y-95490256D01*
X115996063Y-95659774D01*
X116140226Y-95803937D01*
X116309744Y-95917205D01*
X116498102Y-95995226D01*
X116698061Y-96035000D01*
X116901939Y-96035000D01*
X117101898Y-95995226D01*
X117290256Y-95917205D01*
X117332270Y-95889132D01*
X117346063Y-95909774D01*
X117490226Y-96053937D01*
X117659744Y-96167205D01*
X117848102Y-96245226D01*
X118048061Y-96285000D01*
X118251939Y-96285000D01*
X118451898Y-96245226D01*
X118640256Y-96167205D01*
X118809774Y-96053937D01*
X118953937Y-95909774D01*
X119067205Y-95740256D01*
X119145226Y-95551898D01*
X119185000Y-95351939D01*
X119185000Y-95148061D01*
X119145226Y-94948102D01*
X119067205Y-94759744D01*
X118953937Y-94590226D01*
X118809774Y-94446063D01*
X118640256Y-94332795D01*
X118451898Y-94254774D01*
X118251939Y-94215000D01*
X118048061Y-94215000D01*
X117848102Y-94254774D01*
X117659744Y-94332795D01*
X117617730Y-94360868D01*
X117603937Y-94340226D01*
X117459774Y-94196063D01*
X117290256Y-94082795D01*
X117101898Y-94004774D01*
X116901939Y-93965000D01*
X116698061Y-93965000D01*
X116498102Y-94004774D01*
X116309744Y-94082795D01*
X116140226Y-94196063D01*
X115996063Y-94340226D01*
X115882795Y-94509744D01*
X115804774Y-94698102D01*
X115765000Y-94898061D01*
X113685000Y-94898061D01*
X113685000Y-94778711D01*
X113803937Y-94659774D01*
X113917205Y-94490256D01*
X113995226Y-94301898D01*
X114035000Y-94101939D01*
X114035000Y-93898061D01*
X113995226Y-93698102D01*
X113917205Y-93509744D01*
X113803937Y-93340226D01*
X113659774Y-93196063D01*
X113490256Y-93082795D01*
X113301898Y-93004774D01*
X113101939Y-92965000D01*
X112898061Y-92965000D01*
X112698102Y-93004774D01*
X112509744Y-93082795D01*
X112411890Y-93148179D01*
X112409774Y-93146063D01*
X112240256Y-93032795D01*
X112051898Y-92954774D01*
X112016538Y-92947740D01*
X112090256Y-92917205D01*
X112259774Y-92803937D01*
X112403937Y-92659774D01*
X112517205Y-92490256D01*
X112582687Y-92332169D01*
X112611440Y-92335001D01*
X112611445Y-92335001D01*
X112650001Y-92338798D01*
X112688557Y-92335001D01*
X114411446Y-92335001D01*
X114449999Y-92338798D01*
X114488552Y-92335001D01*
X114488560Y-92335001D01*
X114603886Y-92323642D01*
X114751859Y-92278755D01*
X114839088Y-92232131D01*
X114839088Y-92400000D01*
X114841528Y-92424776D01*
X114848755Y-92448601D01*
X114860491Y-92470557D01*
X114876285Y-92489803D01*
X114895531Y-92505597D01*
X114917487Y-92517333D01*
X114941312Y-92524560D01*
X114966088Y-92527000D01*
X120139088Y-92527000D01*
X120139088Y-95200000D01*
X120141528Y-95224776D01*
X120148755Y-95248601D01*
X120160491Y-95270557D01*
X120176285Y-95289803D01*
X120195531Y-95305597D01*
X120217487Y-95317333D01*
X120241312Y-95324560D01*
X120266088Y-95327000D01*
X127465000Y-95327000D01*
X127465000Y-100511436D01*
X127461202Y-100549999D01*
X127476358Y-100703885D01*
X127521245Y-100851858D01*
X127542827Y-100892235D01*
X127594138Y-100988232D01*
X127613453Y-101011767D01*
X127667654Y-101077811D01*
X127667658Y-101077815D01*
X127692236Y-101107763D01*
X127722184Y-101132341D01*
X127765000Y-101175157D01*
X127765000Y-101201939D01*
X127804774Y-101401898D01*
X127882795Y-101590256D01*
X127996063Y-101759774D01*
X128140226Y-101903937D01*
X128309744Y-102017205D01*
X128498102Y-102095226D01*
X128698061Y-102135000D01*
X128901939Y-102135000D01*
X129101898Y-102095226D01*
X129290256Y-102017205D01*
X129459774Y-101903937D01*
X129603937Y-101759774D01*
X129717205Y-101590256D01*
X129795226Y-101401898D01*
X129835000Y-101201939D01*
X129835000Y-100998061D01*
X129795226Y-100798102D01*
X129757262Y-100706449D01*
X129803937Y-100659774D01*
X129917205Y-100490256D01*
X129995226Y-100301898D01*
X130035000Y-100101939D01*
X130035000Y-99898061D01*
X129995226Y-99698102D01*
X129917205Y-99509744D01*
X129803937Y-99340226D01*
X129785000Y-99321289D01*
X129785000Y-90425157D01*
X131275157Y-88935001D01*
X131771290Y-88935001D01*
X131840226Y-89003937D01*
X131943586Y-89073000D01*
X131566088Y-89073000D01*
X131541312Y-89075440D01*
X131517487Y-89082667D01*
X131495531Y-89094403D01*
X131476285Y-89110197D01*
X131460491Y-89129443D01*
X131448755Y-89151399D01*
X131441528Y-89175224D01*
X131439088Y-89200000D01*
X131439088Y-93300000D01*
X131441528Y-93324776D01*
X131448755Y-93348601D01*
X131460491Y-93370557D01*
X131476285Y-93389803D01*
X131495531Y-93405597D01*
X131517487Y-93417333D01*
X131541312Y-93424560D01*
X131566088Y-93427000D01*
X131743586Y-93427000D01*
X131640226Y-93496063D01*
X131496063Y-93640226D01*
X131382795Y-93809744D01*
X131304774Y-93998102D01*
X131265000Y-94198061D01*
X131265000Y-94401939D01*
X131304774Y-94601898D01*
X131382795Y-94790256D01*
X131496063Y-94959774D01*
X131640226Y-95103937D01*
X131809744Y-95217205D01*
X131998102Y-95295226D01*
X132198061Y-95335000D01*
X132401939Y-95335000D01*
X132601898Y-95295226D01*
X132790256Y-95217205D01*
X132959774Y-95103937D01*
X133103937Y-94959774D01*
X133217205Y-94790256D01*
X133255393Y-94698061D01*
X134965000Y-94698061D01*
X134965000Y-94901939D01*
X135004774Y-95101898D01*
X135082795Y-95290256D01*
X135196063Y-95459774D01*
X135340226Y-95603937D01*
X135509744Y-95717205D01*
X135698102Y-95795226D01*
X135898061Y-95835000D01*
X136101939Y-95835000D01*
X136301898Y-95795226D01*
X136490256Y-95717205D01*
X136659774Y-95603937D01*
X136803937Y-95459774D01*
X136847910Y-95393964D01*
X136804774Y-95498102D01*
X136765000Y-95698061D01*
X136765000Y-95901939D01*
X136804774Y-96101898D01*
X136882795Y-96290256D01*
X136996063Y-96459774D01*
X137140226Y-96603937D01*
X137309744Y-96717205D01*
X137498102Y-96795226D01*
X137569797Y-96809487D01*
X137440226Y-96896063D01*
X137296063Y-97040226D01*
X137182795Y-97209744D01*
X137104774Y-97398102D01*
X137065000Y-97598061D01*
X137065000Y-97801939D01*
X137104774Y-98001898D01*
X137182795Y-98190256D01*
X137295592Y-98359069D01*
X137240226Y-98396063D01*
X137096063Y-98540226D01*
X136982795Y-98709744D01*
X136904774Y-98898102D01*
X136865000Y-99098061D01*
X136865000Y-99301939D01*
X136904774Y-99501898D01*
X136982795Y-99690256D01*
X137096063Y-99859774D01*
X137240226Y-100003937D01*
X137409744Y-100117205D01*
X137598102Y-100195226D01*
X137798061Y-100235000D01*
X138001939Y-100235000D01*
X138201898Y-100195226D01*
X138390256Y-100117205D01*
X138559774Y-100003937D01*
X138703937Y-99859774D01*
X138817205Y-99690256D01*
X138895226Y-99501898D01*
X138935000Y-99301939D01*
X138935000Y-99098061D01*
X138895226Y-98898102D01*
X138817205Y-98709744D01*
X138704408Y-98540931D01*
X138759774Y-98503937D01*
X138903937Y-98359774D01*
X139017205Y-98190256D01*
X139095226Y-98001898D01*
X139135000Y-97801939D01*
X139135000Y-97598061D01*
X139095226Y-97398102D01*
X139017205Y-97209744D01*
X138903937Y-97040226D01*
X138759774Y-96896063D01*
X138590256Y-96782795D01*
X138401898Y-96704774D01*
X138330203Y-96690513D01*
X138390835Y-96650000D01*
X147711928Y-96650000D01*
X147724188Y-96774482D01*
X147760498Y-96894180D01*
X147819463Y-97004494D01*
X147898815Y-97101185D01*
X147995506Y-97180537D01*
X148105820Y-97239502D01*
X148225518Y-97275812D01*
X148350000Y-97288072D01*
X148914250Y-97285000D01*
X149073000Y-97126250D01*
X149073000Y-95927000D01*
X149327000Y-95927000D01*
X149327000Y-97126250D01*
X149485750Y-97285000D01*
X150050000Y-97288072D01*
X150174482Y-97275812D01*
X150294180Y-97239502D01*
X150404494Y-97180537D01*
X150501185Y-97101185D01*
X150580537Y-97004494D01*
X150639502Y-96894180D01*
X150675812Y-96774482D01*
X150688072Y-96650000D01*
X150685000Y-96085750D01*
X150526250Y-95927000D01*
X149327000Y-95927000D01*
X149073000Y-95927000D01*
X147873750Y-95927000D01*
X147715000Y-96085750D01*
X147711928Y-96650000D01*
X138390835Y-96650000D01*
X138459774Y-96603937D01*
X138603937Y-96459774D01*
X138717205Y-96290256D01*
X138795226Y-96101898D01*
X138835000Y-95901939D01*
X138835000Y-95698061D01*
X138795226Y-95498102D01*
X138717205Y-95309744D01*
X138603937Y-95140226D01*
X138459774Y-94996063D01*
X138390836Y-94950000D01*
X147711928Y-94950000D01*
X147715000Y-95514250D01*
X147873750Y-95673000D01*
X149073000Y-95673000D01*
X149073000Y-95653000D01*
X149327000Y-95653000D01*
X149327000Y-95673000D01*
X150526250Y-95673000D01*
X150685000Y-95514250D01*
X150688072Y-94950000D01*
X150675812Y-94825518D01*
X150639502Y-94705820D01*
X150580537Y-94595506D01*
X150501185Y-94498815D01*
X150404494Y-94419463D01*
X150294180Y-94360498D01*
X150221620Y-94338487D01*
X150353475Y-94206632D01*
X150515990Y-93963411D01*
X150627932Y-93693158D01*
X150685000Y-93406260D01*
X150685000Y-93113740D01*
X150627932Y-92826842D01*
X150515990Y-92556589D01*
X150353475Y-92313368D01*
X150146632Y-92106525D01*
X149972240Y-91990000D01*
X150146632Y-91873475D01*
X150353475Y-91666632D01*
X150515990Y-91423411D01*
X150627932Y-91153158D01*
X150685000Y-90866260D01*
X150685000Y-90573740D01*
X150627932Y-90286842D01*
X150515990Y-90016589D01*
X150353475Y-89773368D01*
X150146632Y-89566525D01*
X149972240Y-89450000D01*
X150146632Y-89333475D01*
X150353475Y-89126632D01*
X150515990Y-88883411D01*
X150627932Y-88613158D01*
X150685000Y-88326260D01*
X150685000Y-88033740D01*
X150627932Y-87746842D01*
X150515990Y-87476589D01*
X150353475Y-87233368D01*
X150146632Y-87026525D01*
X149972240Y-86910000D01*
X150146632Y-86793475D01*
X150353475Y-86586632D01*
X150515990Y-86343411D01*
X150627932Y-86073158D01*
X150685000Y-85786260D01*
X150685000Y-85493740D01*
X150627932Y-85206842D01*
X150515990Y-84936589D01*
X150353475Y-84693368D01*
X150146632Y-84486525D01*
X149972240Y-84370000D01*
X150146632Y-84253475D01*
X150353475Y-84046632D01*
X150515990Y-83803411D01*
X150627932Y-83533158D01*
X150685000Y-83246260D01*
X150685000Y-82953740D01*
X150627932Y-82666842D01*
X150515990Y-82396589D01*
X150353475Y-82153368D01*
X150146632Y-81946525D01*
X149903411Y-81784010D01*
X149633158Y-81672068D01*
X149346260Y-81615000D01*
X149053740Y-81615000D01*
X148766842Y-81672068D01*
X148496589Y-81784010D01*
X148253368Y-81946525D01*
X148046525Y-82153368D01*
X147884010Y-82396589D01*
X147772068Y-82666842D01*
X147715000Y-82953740D01*
X147715000Y-83246260D01*
X147772068Y-83533158D01*
X147884010Y-83803411D01*
X148046525Y-84046632D01*
X148253368Y-84253475D01*
X148427760Y-84370000D01*
X148253368Y-84486525D01*
X148046525Y-84693368D01*
X147884010Y-84936589D01*
X147772068Y-85206842D01*
X147715000Y-85493740D01*
X147715000Y-85786260D01*
X147772068Y-86073158D01*
X147884010Y-86343411D01*
X148046525Y-86586632D01*
X148253368Y-86793475D01*
X148427760Y-86910000D01*
X148253368Y-87026525D01*
X148046525Y-87233368D01*
X147884010Y-87476589D01*
X147772068Y-87746842D01*
X147715000Y-88033740D01*
X147715000Y-88326260D01*
X147772068Y-88613158D01*
X147884010Y-88883411D01*
X148046525Y-89126632D01*
X148253368Y-89333475D01*
X148427760Y-89450000D01*
X148253368Y-89566525D01*
X148046525Y-89773368D01*
X147884010Y-90016589D01*
X147772068Y-90286842D01*
X147715000Y-90573740D01*
X147715000Y-90866260D01*
X147772068Y-91153158D01*
X147884010Y-91423411D01*
X148046525Y-91666632D01*
X148253368Y-91873475D01*
X148427760Y-91990000D01*
X148253368Y-92106525D01*
X148046525Y-92313368D01*
X147884010Y-92556589D01*
X147772068Y-92826842D01*
X147715000Y-93113740D01*
X147715000Y-93406260D01*
X147772068Y-93693158D01*
X147884010Y-93963411D01*
X148046525Y-94206632D01*
X148178380Y-94338487D01*
X148105820Y-94360498D01*
X147995506Y-94419463D01*
X147898815Y-94498815D01*
X147819463Y-94595506D01*
X147760498Y-94705820D01*
X147724188Y-94825518D01*
X147711928Y-94950000D01*
X138390836Y-94950000D01*
X138290256Y-94882795D01*
X138101898Y-94804774D01*
X137901939Y-94765000D01*
X137698061Y-94765000D01*
X137498102Y-94804774D01*
X137309744Y-94882795D01*
X137140226Y-94996063D01*
X136996063Y-95140226D01*
X136952090Y-95206036D01*
X136995226Y-95101898D01*
X137035000Y-94901939D01*
X137035000Y-94698061D01*
X136995226Y-94498102D01*
X136917205Y-94309744D01*
X136803937Y-94140226D01*
X136659774Y-93996063D01*
X136490256Y-93882795D01*
X136301898Y-93804774D01*
X136101939Y-93765000D01*
X135898061Y-93765000D01*
X135698102Y-93804774D01*
X135509744Y-93882795D01*
X135340226Y-93996063D01*
X135196063Y-94140226D01*
X135082795Y-94309744D01*
X135004774Y-94498102D01*
X134965000Y-94698061D01*
X133255393Y-94698061D01*
X133295226Y-94601898D01*
X133335000Y-94401939D01*
X133335000Y-94198061D01*
X133295226Y-93998102D01*
X133217205Y-93809744D01*
X133103937Y-93640226D01*
X132959774Y-93496063D01*
X132856414Y-93427000D01*
X136166088Y-93427000D01*
X136190864Y-93424560D01*
X136214689Y-93417333D01*
X136236645Y-93405597D01*
X136255891Y-93389803D01*
X136271685Y-93370557D01*
X136283421Y-93348601D01*
X136290648Y-93324776D01*
X136293088Y-93300000D01*
X136293088Y-91298061D01*
X136765000Y-91298061D01*
X136765000Y-91501939D01*
X136804774Y-91701898D01*
X136882795Y-91890256D01*
X136996063Y-92059774D01*
X137140226Y-92203937D01*
X137309744Y-92317205D01*
X137498102Y-92395226D01*
X137698061Y-92435000D01*
X137901939Y-92435000D01*
X138101898Y-92395226D01*
X138290256Y-92317205D01*
X138459774Y-92203937D01*
X138603937Y-92059774D01*
X138717205Y-91890256D01*
X138795226Y-91701898D01*
X138835000Y-91501939D01*
X138835000Y-91298061D01*
X138795226Y-91098102D01*
X138717205Y-90909744D01*
X138603937Y-90740226D01*
X138459774Y-90596063D01*
X138290256Y-90482795D01*
X138101898Y-90404774D01*
X137901939Y-90365000D01*
X137698061Y-90365000D01*
X137498102Y-90404774D01*
X137309744Y-90482795D01*
X137140226Y-90596063D01*
X136996063Y-90740226D01*
X136882795Y-90909744D01*
X136804774Y-91098102D01*
X136765000Y-91298061D01*
X136293088Y-91298061D01*
X136293088Y-89200000D01*
X136290648Y-89175224D01*
X136283421Y-89151399D01*
X136271685Y-89129443D01*
X136255891Y-89110197D01*
X136236645Y-89094403D01*
X136214689Y-89082667D01*
X136190864Y-89075440D01*
X136166088Y-89073000D01*
X133056414Y-89073000D01*
X133159774Y-89003937D01*
X133303937Y-88859774D01*
X133417205Y-88690256D01*
X133495226Y-88501898D01*
X133535000Y-88301939D01*
X133535000Y-88098061D01*
X133495226Y-87898102D01*
X133417205Y-87709744D01*
X133303937Y-87540226D01*
X133159774Y-87396063D01*
X132990256Y-87282795D01*
X132801898Y-87204774D01*
X132601939Y-87165000D01*
X132398061Y-87165000D01*
X132198102Y-87204774D01*
X132030272Y-87274292D01*
X131995226Y-87098102D01*
X131917205Y-86909744D01*
X131803937Y-86740226D01*
X131659774Y-86596063D01*
X131490256Y-86482795D01*
X131301898Y-86404774D01*
X131101939Y-86365000D01*
X130898061Y-86365000D01*
X130698102Y-86404774D01*
X130509744Y-86482795D01*
X130340226Y-86596063D01*
X130313153Y-86623136D01*
X130294805Y-86624943D01*
X130280427Y-86626359D01*
X130245987Y-86636806D01*
X130132455Y-86671246D01*
X129996082Y-86744138D01*
X129946292Y-86785000D01*
X129906502Y-86817655D01*
X129906499Y-86817658D01*
X129876551Y-86842236D01*
X129851973Y-86872184D01*
X128073264Y-88650894D01*
X128093069Y-87502189D01*
X128091056Y-87477374D01*
X128084241Y-87453429D01*
X128072885Y-87431273D01*
X128057425Y-87411759D01*
X128038455Y-87395635D01*
X128016704Y-87383523D01*
X127993008Y-87375886D01*
X127966088Y-87373000D01*
X119866088Y-87373000D01*
X119841312Y-87375440D01*
X119817487Y-87382667D01*
X119795531Y-87394403D01*
X119776285Y-87410197D01*
X119760491Y-87429443D01*
X119748755Y-87451399D01*
X119741528Y-87475224D01*
X119739088Y-87500000D01*
X119739088Y-90373000D01*
X116737157Y-90373000D01*
X121637656Y-85472501D01*
X121758948Y-85472501D01*
X121797501Y-85476298D01*
X121836054Y-85472501D01*
X121836062Y-85472501D01*
X121951388Y-85461142D01*
X122099361Y-85416255D01*
X122235734Y-85343363D01*
X122355265Y-85245265D01*
X122379848Y-85215311D01*
X124617098Y-82978061D01*
X136185000Y-82978061D01*
X136185000Y-83181939D01*
X136224774Y-83381898D01*
X136302795Y-83570256D01*
X136416063Y-83739774D01*
X136560226Y-83883937D01*
X136729744Y-83997205D01*
X136918102Y-84075226D01*
X137118061Y-84115000D01*
X137321939Y-84115000D01*
X137521898Y-84075226D01*
X137710256Y-83997205D01*
X137879774Y-83883937D01*
X138023937Y-83739774D01*
X138137205Y-83570256D01*
X138215226Y-83381898D01*
X138255000Y-83181939D01*
X138255000Y-82978061D01*
X138215226Y-82778102D01*
X138137205Y-82589744D01*
X138023937Y-82420226D01*
X137879774Y-82276063D01*
X137710256Y-82162795D01*
X137521898Y-82084774D01*
X137321939Y-82045000D01*
X137118061Y-82045000D01*
X136918102Y-82084774D01*
X136729744Y-82162795D01*
X136560226Y-82276063D01*
X136416063Y-82420226D01*
X136302795Y-82589744D01*
X136224774Y-82778102D01*
X136185000Y-82978061D01*
X124617098Y-82978061D01*
X126547098Y-81048061D01*
X140915000Y-81048061D01*
X140915000Y-81251939D01*
X140954774Y-81451898D01*
X141032795Y-81640256D01*
X141146063Y-81809774D01*
X141290226Y-81953937D01*
X141459744Y-82067205D01*
X141648102Y-82145226D01*
X141848061Y-82185000D01*
X142051939Y-82185000D01*
X142251898Y-82145226D01*
X142440256Y-82067205D01*
X142609774Y-81953937D01*
X142753937Y-81809774D01*
X142867205Y-81640256D01*
X142945226Y-81451898D01*
X142985000Y-81251939D01*
X142985000Y-81048061D01*
X142945226Y-80848102D01*
X142867205Y-80659744D01*
X142753937Y-80490226D01*
X142609774Y-80346063D01*
X142440256Y-80232795D01*
X142251898Y-80154774D01*
X142051939Y-80115000D01*
X141848061Y-80115000D01*
X141648102Y-80154774D01*
X141459744Y-80232795D01*
X141290226Y-80346063D01*
X141146063Y-80490226D01*
X141032795Y-80659744D01*
X140954774Y-80848102D01*
X140915000Y-81048061D01*
X126547098Y-81048061D01*
X128477818Y-79117342D01*
X128507765Y-79092765D01*
X128534841Y-79059774D01*
X128575875Y-79009774D01*
X128605863Y-78973234D01*
X128678755Y-78836861D01*
X128690501Y-78798140D01*
X128723643Y-78688888D01*
X128731643Y-78607654D01*
X128735001Y-78573562D01*
X128735001Y-78573557D01*
X128738798Y-78535001D01*
X128735001Y-78496446D01*
X128735001Y-77470000D01*
X147711928Y-77470000D01*
X147724188Y-77594482D01*
X147760498Y-77714180D01*
X147819463Y-77824494D01*
X147898815Y-77921185D01*
X147995506Y-78000537D01*
X148105820Y-78059502D01*
X148225518Y-78095812D01*
X148350000Y-78108072D01*
X148914250Y-78105000D01*
X149073000Y-77946250D01*
X149073000Y-76747000D01*
X149327000Y-76747000D01*
X149327000Y-77946250D01*
X149485750Y-78105000D01*
X150050000Y-78108072D01*
X150174482Y-78095812D01*
X150294180Y-78059502D01*
X150404494Y-78000537D01*
X150501185Y-77921185D01*
X150580537Y-77824494D01*
X150639502Y-77714180D01*
X150675812Y-77594482D01*
X150688072Y-77470000D01*
X150685000Y-76905750D01*
X150526250Y-76747000D01*
X149327000Y-76747000D01*
X149073000Y-76747000D01*
X147873750Y-76747000D01*
X147715000Y-76905750D01*
X147711928Y-77470000D01*
X128735001Y-77470000D01*
X128735001Y-76588557D01*
X128738798Y-76550001D01*
X128735001Y-76511445D01*
X128735001Y-76511440D01*
X128729912Y-76459774D01*
X128723643Y-76396114D01*
X128678755Y-76248141D01*
X128605863Y-76111768D01*
X128507765Y-75992237D01*
X128477811Y-75967654D01*
X128280157Y-75770000D01*
X147711928Y-75770000D01*
X147715000Y-76334250D01*
X147873750Y-76493000D01*
X149073000Y-76493000D01*
X149073000Y-76473000D01*
X149327000Y-76473000D01*
X149327000Y-76493000D01*
X150526250Y-76493000D01*
X150685000Y-76334250D01*
X150688072Y-75770000D01*
X150675812Y-75645518D01*
X150639502Y-75525820D01*
X150580537Y-75415506D01*
X150501185Y-75318815D01*
X150404494Y-75239463D01*
X150294180Y-75180498D01*
X150221620Y-75158487D01*
X150353475Y-75026632D01*
X150515990Y-74783411D01*
X150627932Y-74513158D01*
X150685000Y-74226260D01*
X150685000Y-73933740D01*
X150627932Y-73646842D01*
X150515990Y-73376589D01*
X150353475Y-73133368D01*
X150146632Y-72926525D01*
X149972240Y-72810000D01*
X150146632Y-72693475D01*
X150353475Y-72486632D01*
X150515990Y-72243411D01*
X150627932Y-71973158D01*
X150685000Y-71686260D01*
X150685000Y-71393740D01*
X150627932Y-71106842D01*
X150515990Y-70836589D01*
X150353475Y-70593368D01*
X150146632Y-70386525D01*
X149972240Y-70270000D01*
X150146632Y-70153475D01*
X150353475Y-69946632D01*
X150515990Y-69703411D01*
X150627932Y-69433158D01*
X150685000Y-69146260D01*
X150685000Y-68853740D01*
X150627932Y-68566842D01*
X150515990Y-68296589D01*
X150353475Y-68053368D01*
X150146632Y-67846525D01*
X149972240Y-67730000D01*
X150146632Y-67613475D01*
X150353475Y-67406632D01*
X150515990Y-67163411D01*
X150627932Y-66893158D01*
X150685000Y-66606260D01*
X150685000Y-66313740D01*
X150627932Y-66026842D01*
X150515990Y-65756589D01*
X150353475Y-65513368D01*
X150146632Y-65306525D01*
X149903411Y-65144010D01*
X149633158Y-65032068D01*
X149346260Y-64975000D01*
X149053740Y-64975000D01*
X148766842Y-65032068D01*
X148496589Y-65144010D01*
X148253368Y-65306525D01*
X148046525Y-65513368D01*
X147884010Y-65756589D01*
X147772068Y-66026842D01*
X147715000Y-66313740D01*
X147715000Y-66606260D01*
X147772068Y-66893158D01*
X147884010Y-67163411D01*
X148046525Y-67406632D01*
X148253368Y-67613475D01*
X148427760Y-67730000D01*
X148253368Y-67846525D01*
X148046525Y-68053368D01*
X147884010Y-68296589D01*
X147772068Y-68566842D01*
X147715000Y-68853740D01*
X147715000Y-69146260D01*
X147772068Y-69433158D01*
X147884010Y-69703411D01*
X148046525Y-69946632D01*
X148253368Y-70153475D01*
X148427760Y-70270000D01*
X148253368Y-70386525D01*
X148046525Y-70593368D01*
X147884010Y-70836589D01*
X147772068Y-71106842D01*
X147715000Y-71393740D01*
X147715000Y-71686260D01*
X147772068Y-71973158D01*
X147884010Y-72243411D01*
X148046525Y-72486632D01*
X148253368Y-72693475D01*
X148427760Y-72810000D01*
X148253368Y-72926525D01*
X148046525Y-73133368D01*
X147884010Y-73376589D01*
X147772068Y-73646842D01*
X147715000Y-73933740D01*
X147715000Y-74226260D01*
X147772068Y-74513158D01*
X147884010Y-74783411D01*
X148046525Y-75026632D01*
X148178380Y-75158487D01*
X148105820Y-75180498D01*
X147995506Y-75239463D01*
X147898815Y-75318815D01*
X147819463Y-75415506D01*
X147760498Y-75525820D01*
X147724188Y-75645518D01*
X147711928Y-75770000D01*
X128280157Y-75770000D01*
X128235000Y-75724843D01*
X128235000Y-75698061D01*
X128195226Y-75498102D01*
X128124353Y-75327000D01*
X141066088Y-75327000D01*
X141090864Y-75324560D01*
X141114689Y-75317333D01*
X141136645Y-75305597D01*
X141155891Y-75289803D01*
X141171685Y-75270557D01*
X141183421Y-75248601D01*
X141190648Y-75224776D01*
X141193084Y-75201050D01*
X141216249Y-72398061D01*
X144265000Y-72398061D01*
X144265000Y-72601939D01*
X144304774Y-72801898D01*
X144382795Y-72990256D01*
X144496063Y-73159774D01*
X144640226Y-73303937D01*
X144809744Y-73417205D01*
X144998102Y-73495226D01*
X145198061Y-73535000D01*
X145401939Y-73535000D01*
X145601898Y-73495226D01*
X145790256Y-73417205D01*
X145959774Y-73303937D01*
X146103937Y-73159774D01*
X146217205Y-72990256D01*
X146295226Y-72801898D01*
X146335000Y-72601939D01*
X146335000Y-72398061D01*
X146295226Y-72198102D01*
X146217205Y-72009744D01*
X146103937Y-71840226D01*
X145959774Y-71696063D01*
X145790256Y-71582795D01*
X145601898Y-71504774D01*
X145401939Y-71465000D01*
X145198061Y-71465000D01*
X144998102Y-71504774D01*
X144809744Y-71582795D01*
X144640226Y-71696063D01*
X144496063Y-71840226D01*
X144382795Y-72009744D01*
X144304774Y-72198102D01*
X144265000Y-72398061D01*
X141216249Y-72398061D01*
X141292043Y-63227000D01*
X151290000Y-63227000D01*
X151290001Y-103821016D01*
X150978839Y-103355330D01*
X150444670Y-102821161D01*
X149816554Y-102401467D01*
X149118628Y-102112377D01*
X148377715Y-101965000D01*
X147622285Y-101965000D01*
X146881372Y-102112377D01*
X146183446Y-102401467D01*
X145555330Y-102821161D01*
X145021161Y-103355330D01*
X144601467Y-103983446D01*
X144312377Y-104681372D01*
X144165000Y-105422285D01*
X144165000Y-106177715D01*
X144312377Y-106918628D01*
X144601467Y-107616554D01*
X145021161Y-108244670D01*
X145555330Y-108778839D01*
X146183446Y-109198533D01*
X146404267Y-109290000D01*
X77795733Y-109290000D01*
X78016554Y-109198533D01*
X78644670Y-108778839D01*
X79178839Y-108244670D01*
X79598533Y-107616554D01*
X79791785Y-107150000D01*
X81311928Y-107150000D01*
X81324188Y-107274482D01*
X81360498Y-107394180D01*
X81419463Y-107504494D01*
X81498815Y-107601185D01*
X81595506Y-107680537D01*
X81705820Y-107739502D01*
X81825518Y-107775812D01*
X81950000Y-107788072D01*
X82514250Y-107785000D01*
X82673000Y-107626250D01*
X82673000Y-106427000D01*
X81473750Y-106427000D01*
X81315000Y-106585750D01*
X81311928Y-107150000D01*
X79791785Y-107150000D01*
X79887623Y-106918628D01*
X80035000Y-106177715D01*
X80035000Y-105450000D01*
X81311928Y-105450000D01*
X81315000Y-106014250D01*
X81473750Y-106173000D01*
X82673000Y-106173000D01*
X82673000Y-104973750D01*
X82927000Y-104973750D01*
X82927000Y-106173000D01*
X82947000Y-106173000D01*
X82947000Y-106427000D01*
X82927000Y-106427000D01*
X82927000Y-107626250D01*
X83085750Y-107785000D01*
X83650000Y-107788072D01*
X83774482Y-107775812D01*
X83894180Y-107739502D01*
X84004494Y-107680537D01*
X84101185Y-107601185D01*
X84180537Y-107504494D01*
X84239502Y-107394180D01*
X84261513Y-107321620D01*
X84393368Y-107453475D01*
X84636589Y-107615990D01*
X84906842Y-107727932D01*
X85193740Y-107785000D01*
X85486260Y-107785000D01*
X85773158Y-107727932D01*
X86043411Y-107615990D01*
X86286632Y-107453475D01*
X86493475Y-107246632D01*
X86610000Y-107072240D01*
X86726525Y-107246632D01*
X86933368Y-107453475D01*
X87176589Y-107615990D01*
X87446842Y-107727932D01*
X87733740Y-107785000D01*
X88026260Y-107785000D01*
X88313158Y-107727932D01*
X88583411Y-107615990D01*
X88826632Y-107453475D01*
X89033475Y-107246632D01*
X89150000Y-107072240D01*
X89266525Y-107246632D01*
X89473368Y-107453475D01*
X89716589Y-107615990D01*
X89986842Y-107727932D01*
X90273740Y-107785000D01*
X90566260Y-107785000D01*
X90853158Y-107727932D01*
X91123411Y-107615990D01*
X91366632Y-107453475D01*
X91573475Y-107246632D01*
X91735990Y-107003411D01*
X91847932Y-106733158D01*
X91849156Y-106727000D01*
X108065000Y-106727000D01*
X108065000Y-107152000D01*
X108112066Y-107375865D01*
X108201901Y-107586246D01*
X108331053Y-107775059D01*
X108494559Y-107935047D01*
X108686136Y-108060063D01*
X108919190Y-108143964D01*
X109098000Y-108018163D01*
X109098000Y-106727000D01*
X109352000Y-106727000D01*
X109352000Y-108018163D01*
X109530810Y-108143964D01*
X109763864Y-108060063D01*
X109955441Y-107935047D01*
X110118947Y-107775059D01*
X110248099Y-107586246D01*
X110337934Y-107375865D01*
X110385000Y-107152000D01*
X110385000Y-106727000D01*
X115215000Y-106727000D01*
X115215000Y-107152000D01*
X115262066Y-107375865D01*
X115351901Y-107586246D01*
X115481053Y-107775059D01*
X115644559Y-107935047D01*
X115836136Y-108060063D01*
X116069190Y-108143964D01*
X116248000Y-108018163D01*
X116248000Y-106727000D01*
X116502000Y-106727000D01*
X116502000Y-108018163D01*
X116680810Y-108143964D01*
X116913864Y-108060063D01*
X117105441Y-107935047D01*
X117268947Y-107775059D01*
X117398099Y-107586246D01*
X117487934Y-107375865D01*
X117535000Y-107152000D01*
X117535000Y-106727000D01*
X116502000Y-106727000D01*
X116248000Y-106727000D01*
X115215000Y-106727000D01*
X110385000Y-106727000D01*
X109352000Y-106727000D01*
X109098000Y-106727000D01*
X108065000Y-106727000D01*
X91849156Y-106727000D01*
X91905000Y-106446260D01*
X91905000Y-106153740D01*
X91847932Y-105866842D01*
X91735990Y-105596589D01*
X91573475Y-105353368D01*
X91530668Y-105310561D01*
X101777500Y-105310561D01*
X101777500Y-105514439D01*
X101817274Y-105714398D01*
X101895295Y-105902756D01*
X102008563Y-106072274D01*
X102152726Y-106216437D01*
X102322244Y-106329705D01*
X102510602Y-106407726D01*
X102710561Y-106447500D01*
X102914439Y-106447500D01*
X103114398Y-106407726D01*
X103302756Y-106329705D01*
X103472274Y-106216437D01*
X103616437Y-106072274D01*
X103632656Y-106048000D01*
X108065000Y-106048000D01*
X108065000Y-106473000D01*
X109098000Y-106473000D01*
X109098000Y-105181837D01*
X109352000Y-105181837D01*
X109352000Y-106473000D01*
X110385000Y-106473000D01*
X110385000Y-106048000D01*
X110337934Y-105824135D01*
X110248099Y-105613754D01*
X110118947Y-105424941D01*
X109955441Y-105264953D01*
X109763864Y-105139937D01*
X109530810Y-105056036D01*
X109352000Y-105181837D01*
X109098000Y-105181837D01*
X108919190Y-105056036D01*
X108686136Y-105139937D01*
X108494559Y-105264953D01*
X108331053Y-105424941D01*
X108201901Y-105613754D01*
X108112066Y-105824135D01*
X108065000Y-106048000D01*
X103632656Y-106048000D01*
X103729705Y-105902756D01*
X103807726Y-105714398D01*
X103847500Y-105514439D01*
X103847500Y-105310561D01*
X103807726Y-105110602D01*
X103729705Y-104922244D01*
X103616437Y-104752726D01*
X103472274Y-104608563D01*
X103302756Y-104495295D01*
X103114398Y-104417274D01*
X102914439Y-104377500D01*
X102710561Y-104377500D01*
X102510602Y-104417274D01*
X102322244Y-104495295D01*
X102152726Y-104608563D01*
X102008563Y-104752726D01*
X101895295Y-104922244D01*
X101817274Y-105110602D01*
X101777500Y-105310561D01*
X91530668Y-105310561D01*
X91366632Y-105146525D01*
X91123411Y-104984010D01*
X90853158Y-104872068D01*
X90566260Y-104815000D01*
X90273740Y-104815000D01*
X89986842Y-104872068D01*
X89716589Y-104984010D01*
X89473368Y-105146525D01*
X89266525Y-105353368D01*
X89150000Y-105527760D01*
X89033475Y-105353368D01*
X88826632Y-105146525D01*
X88583411Y-104984010D01*
X88313158Y-104872068D01*
X88026260Y-104815000D01*
X87733740Y-104815000D01*
X87446842Y-104872068D01*
X87176589Y-104984010D01*
X86933368Y-105146525D01*
X86726525Y-105353368D01*
X86610000Y-105527760D01*
X86493475Y-105353368D01*
X86286632Y-105146525D01*
X86043411Y-104984010D01*
X85773158Y-104872068D01*
X85486260Y-104815000D01*
X85193740Y-104815000D01*
X84906842Y-104872068D01*
X84636589Y-104984010D01*
X84393368Y-105146525D01*
X84261513Y-105278380D01*
X84239502Y-105205820D01*
X84180537Y-105095506D01*
X84101185Y-104998815D01*
X84004494Y-104919463D01*
X83894180Y-104860498D01*
X83774482Y-104824188D01*
X83650000Y-104811928D01*
X83085750Y-104815000D01*
X82927000Y-104973750D01*
X82673000Y-104973750D01*
X82514250Y-104815000D01*
X81950000Y-104811928D01*
X81825518Y-104824188D01*
X81705820Y-104860498D01*
X81595506Y-104919463D01*
X81498815Y-104998815D01*
X81419463Y-105095506D01*
X81360498Y-105205820D01*
X81324188Y-105325518D01*
X81311928Y-105450000D01*
X80035000Y-105450000D01*
X80035000Y-105422285D01*
X79887623Y-104681372D01*
X79598533Y-103983446D01*
X79178839Y-103355330D01*
X78644670Y-102821161D01*
X78016554Y-102401467D01*
X77318628Y-102112377D01*
X76577715Y-101965000D01*
X75822285Y-101965000D01*
X75081372Y-102112377D01*
X74383446Y-102401467D01*
X73755330Y-102821161D01*
X73221161Y-103355330D01*
X72801467Y-103983446D01*
X72710000Y-104204267D01*
X72710000Y-98198061D01*
X80665000Y-98198061D01*
X80665000Y-98401939D01*
X80704774Y-98601898D01*
X80782795Y-98790256D01*
X80896063Y-98959774D01*
X81040226Y-99103937D01*
X81209744Y-99217205D01*
X81398102Y-99295226D01*
X81598061Y-99335000D01*
X81801939Y-99335000D01*
X82001898Y-99295226D01*
X82190256Y-99217205D01*
X82359774Y-99103937D01*
X82503937Y-98959774D01*
X82617205Y-98790256D01*
X82695226Y-98601898D01*
X82735000Y-98401939D01*
X82735000Y-98198061D01*
X82695226Y-97998102D01*
X82617205Y-97809744D01*
X82503937Y-97640226D01*
X82359774Y-97496063D01*
X82190256Y-97382795D01*
X82001898Y-97304774D01*
X81801939Y-97265000D01*
X81598061Y-97265000D01*
X81398102Y-97304774D01*
X81209744Y-97382795D01*
X81040226Y-97496063D01*
X80896063Y-97640226D01*
X80782795Y-97809744D01*
X80704774Y-97998102D01*
X80665000Y-98198061D01*
X72710000Y-98198061D01*
X72710000Y-84150000D01*
X73511928Y-84150000D01*
X73524188Y-84274482D01*
X73560498Y-84394180D01*
X73619463Y-84504494D01*
X73698815Y-84601185D01*
X73795506Y-84680537D01*
X73905820Y-84739502D01*
X73978380Y-84761513D01*
X73846525Y-84893368D01*
X73684010Y-85136589D01*
X73572068Y-85406842D01*
X73515000Y-85693740D01*
X73515000Y-85986260D01*
X73572068Y-86273158D01*
X73684010Y-86543411D01*
X73846525Y-86786632D01*
X74053368Y-86993475D01*
X74227760Y-87110000D01*
X74053368Y-87226525D01*
X73846525Y-87433368D01*
X73684010Y-87676589D01*
X73572068Y-87946842D01*
X73515000Y-88233740D01*
X73515000Y-88526260D01*
X73572068Y-88813158D01*
X73684010Y-89083411D01*
X73846525Y-89326632D01*
X74053368Y-89533475D01*
X74227760Y-89650000D01*
X74053368Y-89766525D01*
X73846525Y-89973368D01*
X73684010Y-90216589D01*
X73572068Y-90486842D01*
X73515000Y-90773740D01*
X73515000Y-91066260D01*
X73572068Y-91353158D01*
X73684010Y-91623411D01*
X73846525Y-91866632D01*
X74053368Y-92073475D01*
X74227760Y-92190000D01*
X74053368Y-92306525D01*
X73846525Y-92513368D01*
X73684010Y-92756589D01*
X73572068Y-93026842D01*
X73515000Y-93313740D01*
X73515000Y-93606260D01*
X73572068Y-93893158D01*
X73684010Y-94163411D01*
X73846525Y-94406632D01*
X74053368Y-94613475D01*
X74227760Y-94730000D01*
X74053368Y-94846525D01*
X73846525Y-95053368D01*
X73684010Y-95296589D01*
X73572068Y-95566842D01*
X73515000Y-95853740D01*
X73515000Y-96146260D01*
X73572068Y-96433158D01*
X73684010Y-96703411D01*
X73846525Y-96946632D01*
X74053368Y-97153475D01*
X74296589Y-97315990D01*
X74566842Y-97427932D01*
X74853740Y-97485000D01*
X75146260Y-97485000D01*
X75433158Y-97427932D01*
X75703411Y-97315990D01*
X75946632Y-97153475D01*
X76153475Y-96946632D01*
X76315990Y-96703411D01*
X76427932Y-96433158D01*
X76485000Y-96146260D01*
X76485000Y-95853740D01*
X76427932Y-95566842D01*
X76399443Y-95498061D01*
X90565000Y-95498061D01*
X90565000Y-95701939D01*
X90604774Y-95901898D01*
X90682795Y-96090256D01*
X90796063Y-96259774D01*
X90940226Y-96403937D01*
X91109744Y-96517205D01*
X91298102Y-96595226D01*
X91498061Y-96635000D01*
X91701939Y-96635000D01*
X91901898Y-96595226D01*
X92090256Y-96517205D01*
X92259774Y-96403937D01*
X92403937Y-96259774D01*
X92517205Y-96090256D01*
X92595226Y-95901898D01*
X92635000Y-95701939D01*
X92635000Y-95498061D01*
X101265000Y-95498061D01*
X101265000Y-95701939D01*
X101304774Y-95901898D01*
X101382795Y-96090256D01*
X101496063Y-96259774D01*
X101640226Y-96403937D01*
X101809744Y-96517205D01*
X101998102Y-96595226D01*
X102198061Y-96635000D01*
X102401939Y-96635000D01*
X102601898Y-96595226D01*
X102790256Y-96517205D01*
X102959774Y-96403937D01*
X103103937Y-96259774D01*
X103217205Y-96090256D01*
X103295226Y-95901898D01*
X103326197Y-95746197D01*
X103481898Y-95715226D01*
X103670256Y-95637205D01*
X103839774Y-95523937D01*
X103983937Y-95379774D01*
X104097205Y-95210256D01*
X104175226Y-95021898D01*
X104215000Y-94821939D01*
X104215000Y-94618061D01*
X104175226Y-94418102D01*
X104097205Y-94229744D01*
X103983937Y-94060226D01*
X103839774Y-93916063D01*
X103670256Y-93802795D01*
X103481898Y-93724774D01*
X103281939Y-93685000D01*
X103078061Y-93685000D01*
X102878102Y-93724774D01*
X102689744Y-93802795D01*
X102520226Y-93916063D01*
X102376063Y-94060226D01*
X102262795Y-94229744D01*
X102184774Y-94418102D01*
X102153803Y-94573803D01*
X101998102Y-94604774D01*
X101809744Y-94682795D01*
X101640226Y-94796063D01*
X101496063Y-94940226D01*
X101382795Y-95109744D01*
X101304774Y-95298102D01*
X101265000Y-95498061D01*
X92635000Y-95498061D01*
X92595226Y-95298102D01*
X92517205Y-95109744D01*
X92481468Y-95056259D01*
X92559774Y-95003937D01*
X92703937Y-94859774D01*
X92817205Y-94690256D01*
X92895226Y-94501898D01*
X92935000Y-94301939D01*
X92935000Y-94098061D01*
X92895226Y-93898102D01*
X92817205Y-93709744D01*
X92703937Y-93540226D01*
X92559774Y-93396063D01*
X92390256Y-93282795D01*
X92201898Y-93204774D01*
X92001939Y-93165000D01*
X91798061Y-93165000D01*
X91598102Y-93204774D01*
X91409744Y-93282795D01*
X91240226Y-93396063D01*
X91096063Y-93540226D01*
X90982795Y-93709744D01*
X90904774Y-93898102D01*
X90865000Y-94098061D01*
X90865000Y-94301939D01*
X90904774Y-94501898D01*
X90982795Y-94690256D01*
X91018532Y-94743741D01*
X90940226Y-94796063D01*
X90796063Y-94940226D01*
X90682795Y-95109744D01*
X90604774Y-95298102D01*
X90565000Y-95498061D01*
X76399443Y-95498061D01*
X76315990Y-95296589D01*
X76153475Y-95053368D01*
X75946632Y-94846525D01*
X75772240Y-94730000D01*
X75946632Y-94613475D01*
X76153475Y-94406632D01*
X76315990Y-94163411D01*
X76427932Y-93893158D01*
X76485000Y-93606260D01*
X76485000Y-93313740D01*
X76427932Y-93026842D01*
X76315990Y-92756589D01*
X76153475Y-92513368D01*
X75946632Y-92306525D01*
X75933965Y-92298061D01*
X82965000Y-92298061D01*
X82965000Y-92501939D01*
X83004774Y-92701898D01*
X83082795Y-92890256D01*
X83196063Y-93059774D01*
X83340226Y-93203937D01*
X83509744Y-93317205D01*
X83698102Y-93395226D01*
X83898061Y-93435000D01*
X84101939Y-93435000D01*
X84301898Y-93395226D01*
X84490256Y-93317205D01*
X84659774Y-93203937D01*
X84803937Y-93059774D01*
X84917205Y-92890256D01*
X84995226Y-92701898D01*
X85035000Y-92501939D01*
X85035000Y-92298061D01*
X84995226Y-92098102D01*
X84917205Y-91909744D01*
X84803937Y-91740226D01*
X84659774Y-91596063D01*
X84490256Y-91482795D01*
X84301898Y-91404774D01*
X84101939Y-91365000D01*
X83898061Y-91365000D01*
X83698102Y-91404774D01*
X83509744Y-91482795D01*
X83340226Y-91596063D01*
X83196063Y-91740226D01*
X83082795Y-91909744D01*
X83004774Y-92098102D01*
X82965000Y-92298061D01*
X75933965Y-92298061D01*
X75772240Y-92190000D01*
X75946632Y-92073475D01*
X76153475Y-91866632D01*
X76315990Y-91623411D01*
X76427932Y-91353158D01*
X76485000Y-91066260D01*
X76485000Y-90773740D01*
X76427932Y-90486842D01*
X76315990Y-90216589D01*
X76303610Y-90198061D01*
X93565000Y-90198061D01*
X93565000Y-90401939D01*
X93604774Y-90601898D01*
X93682795Y-90790256D01*
X93796063Y-90959774D01*
X93940226Y-91103937D01*
X94109744Y-91217205D01*
X94298102Y-91295226D01*
X94498061Y-91335000D01*
X94701939Y-91335000D01*
X94901898Y-91295226D01*
X95090256Y-91217205D01*
X95259774Y-91103937D01*
X95403937Y-90959774D01*
X95517205Y-90790256D01*
X95595226Y-90601898D01*
X95635000Y-90401939D01*
X95635000Y-90198061D01*
X95595226Y-89998102D01*
X95517205Y-89809744D01*
X95403937Y-89640226D01*
X95261772Y-89498061D01*
X96765000Y-89498061D01*
X96765000Y-89701939D01*
X96804774Y-89901898D01*
X96882795Y-90090256D01*
X96996063Y-90259774D01*
X97140226Y-90403937D01*
X97309744Y-90517205D01*
X97498102Y-90595226D01*
X97698061Y-90635000D01*
X97901939Y-90635000D01*
X98101898Y-90595226D01*
X98290256Y-90517205D01*
X98459774Y-90403937D01*
X98603937Y-90259774D01*
X98717205Y-90090256D01*
X98749230Y-90012941D01*
X98840226Y-90103937D01*
X99009744Y-90217205D01*
X99198102Y-90295226D01*
X99398061Y-90335000D01*
X99601939Y-90335000D01*
X99801898Y-90295226D01*
X99990256Y-90217205D01*
X100159774Y-90103937D01*
X100303937Y-89959774D01*
X100417205Y-89790256D01*
X100495226Y-89601898D01*
X100535000Y-89401939D01*
X100535000Y-89198061D01*
X100495226Y-88998102D01*
X100417205Y-88809744D01*
X100303937Y-88640226D01*
X100159774Y-88496063D01*
X99990256Y-88382795D01*
X99801898Y-88304774D01*
X99601939Y-88265000D01*
X99398061Y-88265000D01*
X99198102Y-88304774D01*
X99009744Y-88382795D01*
X98840226Y-88496063D01*
X98696063Y-88640226D01*
X98582795Y-88809744D01*
X98550770Y-88887059D01*
X98459774Y-88796063D01*
X98290256Y-88682795D01*
X98101898Y-88604774D01*
X97901939Y-88565000D01*
X97698061Y-88565000D01*
X97498102Y-88604774D01*
X97309744Y-88682795D01*
X97140226Y-88796063D01*
X96996063Y-88940226D01*
X96882795Y-89109744D01*
X96804774Y-89298102D01*
X96765000Y-89498061D01*
X95261772Y-89498061D01*
X95259774Y-89496063D01*
X95090256Y-89382795D01*
X94901898Y-89304774D01*
X94701939Y-89265000D01*
X94498061Y-89265000D01*
X94298102Y-89304774D01*
X94109744Y-89382795D01*
X93940226Y-89496063D01*
X93796063Y-89640226D01*
X93682795Y-89809744D01*
X93604774Y-89998102D01*
X93565000Y-90198061D01*
X76303610Y-90198061D01*
X76153475Y-89973368D01*
X75946632Y-89766525D01*
X75772240Y-89650000D01*
X75946632Y-89533475D01*
X76153475Y-89326632D01*
X76315990Y-89083411D01*
X76427932Y-88813158D01*
X76485000Y-88526260D01*
X76485000Y-88233740D01*
X76427932Y-87946842D01*
X76315990Y-87676589D01*
X76153475Y-87433368D01*
X75946632Y-87226525D01*
X75772240Y-87110000D01*
X75946632Y-86993475D01*
X76153475Y-86786632D01*
X76315990Y-86543411D01*
X76427932Y-86273158D01*
X76485000Y-85986260D01*
X76485000Y-85693740D01*
X76427932Y-85406842D01*
X76315990Y-85136589D01*
X76153475Y-84893368D01*
X76021620Y-84761513D01*
X76094180Y-84739502D01*
X76204494Y-84680537D01*
X76301185Y-84601185D01*
X76380537Y-84504494D01*
X76439502Y-84394180D01*
X76475812Y-84274482D01*
X76488072Y-84150000D01*
X76485000Y-83585750D01*
X76326250Y-83427000D01*
X75127000Y-83427000D01*
X75127000Y-83447000D01*
X74873000Y-83447000D01*
X74873000Y-83427000D01*
X73673750Y-83427000D01*
X73515000Y-83585750D01*
X73511928Y-84150000D01*
X72710000Y-84150000D01*
X72710000Y-83298061D01*
X93365000Y-83298061D01*
X93365000Y-83501939D01*
X93404774Y-83701898D01*
X93482795Y-83890256D01*
X93596063Y-84059774D01*
X93740226Y-84203937D01*
X93909744Y-84317205D01*
X94098102Y-84395226D01*
X94298061Y-84435000D01*
X94501939Y-84435000D01*
X94701898Y-84395226D01*
X94890256Y-84317205D01*
X95059774Y-84203937D01*
X95203937Y-84059774D01*
X95317205Y-83890256D01*
X95395226Y-83701898D01*
X95435000Y-83501939D01*
X95435000Y-83298061D01*
X95395226Y-83098102D01*
X95317205Y-82909744D01*
X95203937Y-82740226D01*
X95059774Y-82596063D01*
X94890256Y-82482795D01*
X94701898Y-82404774D01*
X94501939Y-82365000D01*
X94298061Y-82365000D01*
X94098102Y-82404774D01*
X93909744Y-82482795D01*
X93740226Y-82596063D01*
X93596063Y-82740226D01*
X93482795Y-82909744D01*
X93404774Y-83098102D01*
X93365000Y-83298061D01*
X72710000Y-83298061D01*
X72710000Y-82450000D01*
X73511928Y-82450000D01*
X73515000Y-83014250D01*
X73673750Y-83173000D01*
X74873000Y-83173000D01*
X74873000Y-81973750D01*
X75127000Y-81973750D01*
X75127000Y-83173000D01*
X76326250Y-83173000D01*
X76485000Y-83014250D01*
X76488072Y-82450000D01*
X76475812Y-82325518D01*
X76439502Y-82205820D01*
X76380537Y-82095506D01*
X76301185Y-81998815D01*
X76204494Y-81919463D01*
X76094180Y-81860498D01*
X75974482Y-81824188D01*
X75850000Y-81811928D01*
X75285750Y-81815000D01*
X75127000Y-81973750D01*
X74873000Y-81973750D01*
X74714250Y-81815000D01*
X74150000Y-81811928D01*
X74025518Y-81824188D01*
X73905820Y-81860498D01*
X73795506Y-81919463D01*
X73698815Y-81998815D01*
X73619463Y-82095506D01*
X73560498Y-82205820D01*
X73524188Y-82325518D01*
X73511928Y-82450000D01*
X72710000Y-82450000D01*
X72710000Y-67350000D01*
X73511928Y-67350000D01*
X73524188Y-67474482D01*
X73560498Y-67594180D01*
X73619463Y-67704494D01*
X73698815Y-67801185D01*
X73795506Y-67880537D01*
X73905820Y-67939502D01*
X73978380Y-67961513D01*
X73846525Y-68093368D01*
X73684010Y-68336589D01*
X73572068Y-68606842D01*
X73515000Y-68893740D01*
X73515000Y-69186260D01*
X73572068Y-69473158D01*
X73684010Y-69743411D01*
X73846525Y-69986632D01*
X74053368Y-70193475D01*
X74227760Y-70310000D01*
X74053368Y-70426525D01*
X73846525Y-70633368D01*
X73684010Y-70876589D01*
X73572068Y-71146842D01*
X73515000Y-71433740D01*
X73515000Y-71726260D01*
X73572068Y-72013158D01*
X73684010Y-72283411D01*
X73846525Y-72526632D01*
X74053368Y-72733475D01*
X74227760Y-72850000D01*
X74053368Y-72966525D01*
X73846525Y-73173368D01*
X73684010Y-73416589D01*
X73572068Y-73686842D01*
X73515000Y-73973740D01*
X73515000Y-74266260D01*
X73572068Y-74553158D01*
X73684010Y-74823411D01*
X73846525Y-75066632D01*
X74053368Y-75273475D01*
X74227760Y-75390000D01*
X74053368Y-75506525D01*
X73846525Y-75713368D01*
X73684010Y-75956589D01*
X73572068Y-76226842D01*
X73515000Y-76513740D01*
X73515000Y-76806260D01*
X73572068Y-77093158D01*
X73684010Y-77363411D01*
X73846525Y-77606632D01*
X74053368Y-77813475D01*
X74296589Y-77975990D01*
X74566842Y-78087932D01*
X74853740Y-78145000D01*
X75146260Y-78145000D01*
X75433158Y-78087932D01*
X75703411Y-77975990D01*
X75946632Y-77813475D01*
X76153475Y-77606632D01*
X76315990Y-77363411D01*
X76427932Y-77093158D01*
X76485000Y-76806260D01*
X76485000Y-76513740D01*
X76427932Y-76226842D01*
X76315990Y-75956589D01*
X76153475Y-75713368D01*
X75946632Y-75506525D01*
X75772240Y-75390000D01*
X75946632Y-75273475D01*
X76153475Y-75066632D01*
X76315990Y-74823411D01*
X76347200Y-74748061D01*
X85365000Y-74748061D01*
X85365000Y-74951939D01*
X85404774Y-75151898D01*
X85482795Y-75340256D01*
X85596063Y-75509774D01*
X85740226Y-75653937D01*
X85909744Y-75767205D01*
X86098102Y-75845226D01*
X86298061Y-75885000D01*
X86501939Y-75885000D01*
X86701898Y-75845226D01*
X86890256Y-75767205D01*
X87059774Y-75653937D01*
X87203937Y-75509774D01*
X87317205Y-75340256D01*
X87395226Y-75151898D01*
X87435000Y-74951939D01*
X87435000Y-74748061D01*
X87395226Y-74548102D01*
X87317205Y-74359744D01*
X87203937Y-74190226D01*
X87059774Y-74046063D01*
X86890256Y-73932795D01*
X86701898Y-73854774D01*
X86501939Y-73815000D01*
X86298061Y-73815000D01*
X86098102Y-73854774D01*
X85909744Y-73932795D01*
X85740226Y-74046063D01*
X85596063Y-74190226D01*
X85482795Y-74359744D01*
X85404774Y-74548102D01*
X85365000Y-74748061D01*
X76347200Y-74748061D01*
X76427932Y-74553158D01*
X76485000Y-74266260D01*
X76485000Y-73973740D01*
X76427932Y-73686842D01*
X76315990Y-73416589D01*
X76153475Y-73173368D01*
X75946632Y-72966525D01*
X75772240Y-72850000D01*
X75946632Y-72733475D01*
X76153475Y-72526632D01*
X76315990Y-72283411D01*
X76427932Y-72013158D01*
X76485000Y-71726260D01*
X76485000Y-71433740D01*
X76439182Y-71203397D01*
X76598061Y-71235000D01*
X76801939Y-71235000D01*
X77001898Y-71195226D01*
X77190256Y-71117205D01*
X77359774Y-71003937D01*
X77503937Y-70859774D01*
X77617205Y-70690256D01*
X77695226Y-70501898D01*
X77735000Y-70301939D01*
X77735000Y-70098061D01*
X77695226Y-69898102D01*
X77617205Y-69709744D01*
X77503937Y-69540226D01*
X77359774Y-69396063D01*
X77190256Y-69282795D01*
X77001898Y-69204774D01*
X76801939Y-69165000D01*
X76598061Y-69165000D01*
X76484745Y-69187540D01*
X76485000Y-69186260D01*
X76485000Y-68893740D01*
X76427932Y-68606842D01*
X76315990Y-68336589D01*
X76153475Y-68093368D01*
X76021620Y-67961513D01*
X76094180Y-67939502D01*
X76204494Y-67880537D01*
X76301185Y-67801185D01*
X76380537Y-67704494D01*
X76439502Y-67594180D01*
X76475812Y-67474482D01*
X76488072Y-67350000D01*
X76485000Y-66785750D01*
X76326250Y-66627000D01*
X75127000Y-66627000D01*
X75127000Y-66647000D01*
X74873000Y-66647000D01*
X74873000Y-66627000D01*
X73673750Y-66627000D01*
X73515000Y-66785750D01*
X73511928Y-67350000D01*
X72710000Y-67350000D01*
X72710000Y-65650000D01*
X73511928Y-65650000D01*
X73515000Y-66214250D01*
X73673750Y-66373000D01*
X74873000Y-66373000D01*
X74873000Y-65173750D01*
X75127000Y-65173750D01*
X75127000Y-66373000D01*
X76326250Y-66373000D01*
X76485000Y-66214250D01*
X76488072Y-65650000D01*
X76475812Y-65525518D01*
X76439502Y-65405820D01*
X76380537Y-65295506D01*
X76301185Y-65198815D01*
X76204494Y-65119463D01*
X76094180Y-65060498D01*
X75974482Y-65024188D01*
X75850000Y-65011928D01*
X75285750Y-65015000D01*
X75127000Y-65173750D01*
X74873000Y-65173750D01*
X74714250Y-65015000D01*
X74150000Y-65011928D01*
X74025518Y-65024188D01*
X73905820Y-65060498D01*
X73795506Y-65119463D01*
X73698815Y-65198815D01*
X73619463Y-65295506D01*
X73560498Y-65405820D01*
X73524188Y-65525518D01*
X73511928Y-65650000D01*
X72710000Y-65650000D01*
X72710000Y-63027000D01*
X83139088Y-63027000D01*
X83139088Y-72400000D01*
G37*
%TD.AperFunction*%
D24*
X114213066Y-99123223D02*
X114096063Y-99240226D01*
X113982795Y-99409744D01*
X113904774Y-99598102D01*
X113865000Y-99798061D01*
X113865000Y-100001939D01*
X113882130Y-100088060D01*
X113798102Y-100104774D01*
X113609744Y-100182795D01*
X113440226Y-100296063D01*
X113296063Y-100440226D01*
X113182795Y-100609744D01*
X113139197Y-100714999D01*
X112912511Y-100714999D01*
X112935000Y-100601939D01*
X112935000Y-100398061D01*
X112895226Y-100198102D01*
X112817205Y-100009744D01*
X112703937Y-99840226D01*
X112559774Y-99696063D01*
X112390256Y-99582795D01*
X112201898Y-99504774D01*
X112001939Y-99465000D01*
X111975158Y-99465000D01*
X111685011Y-99174854D01*
X111685011Y-98148382D01*
X111798102Y-98195226D01*
X111998061Y-98235000D01*
X112201939Y-98235000D01*
X112401898Y-98195226D01*
X112590256Y-98117205D01*
X112759774Y-98003937D01*
X112903937Y-97859774D01*
X112922234Y-97832391D01*
X114213066Y-99123223D01*
%TA.AperFunction,Conductor*%
D25*
G36*
X114213066Y-99123223D02*
G01*
X114096063Y-99240226D01*
X113982795Y-99409744D01*
X113904774Y-99598102D01*
X113865000Y-99798061D01*
X113865000Y-100001939D01*
X113882130Y-100088060D01*
X113798102Y-100104774D01*
X113609744Y-100182795D01*
X113440226Y-100296063D01*
X113296063Y-100440226D01*
X113182795Y-100609744D01*
X113139197Y-100714999D01*
X112912511Y-100714999D01*
X112935000Y-100601939D01*
X112935000Y-100398061D01*
X112895226Y-100198102D01*
X112817205Y-100009744D01*
X112703937Y-99840226D01*
X112559774Y-99696063D01*
X112390256Y-99582795D01*
X112201898Y-99504774D01*
X112001939Y-99465000D01*
X111975158Y-99465000D01*
X111685011Y-99174854D01*
X111685011Y-98148382D01*
X111798102Y-98195226D01*
X111998061Y-98235000D01*
X112201939Y-98235000D01*
X112401898Y-98195226D01*
X112590256Y-98117205D01*
X112759774Y-98003937D01*
X112903937Y-97859774D01*
X112922234Y-97832391D01*
X114213066Y-99123223D01*
G37*
%TD.AperFunction*%
D24*
X115217653Y-80327810D02*
X115242236Y-80357764D01*
X115361767Y-80455862D01*
X115498140Y-80528754D01*
X115646113Y-80573642D01*
X115721026Y-80581020D01*
X115761439Y-80585000D01*
X115761444Y-80585000D01*
X115800000Y-80588797D01*
X115838556Y-80585000D01*
X124789844Y-80585000D01*
X123219278Y-82155567D01*
X123159774Y-82096063D01*
X122990256Y-81982795D01*
X122801898Y-81904774D01*
X122601939Y-81865000D01*
X122398061Y-81865000D01*
X122198102Y-81904774D01*
X122009744Y-81982795D01*
X121840226Y-82096063D01*
X121696063Y-82240226D01*
X121582795Y-82409744D01*
X121504774Y-82598102D01*
X121474401Y-82750797D01*
X121072699Y-83152500D01*
X117962657Y-83152500D01*
X114785156Y-79974999D01*
X114864842Y-79974999D01*
X115217653Y-80327810D01*
%TA.AperFunction,Conductor*%
D25*
G36*
X115217653Y-80327810D02*
G01*
X115242236Y-80357764D01*
X115361767Y-80455862D01*
X115498140Y-80528754D01*
X115646113Y-80573642D01*
X115721026Y-80581020D01*
X115761439Y-80585000D01*
X115761444Y-80585000D01*
X115800000Y-80588797D01*
X115838556Y-80585000D01*
X124789844Y-80585000D01*
X123219278Y-82155567D01*
X123159774Y-82096063D01*
X122990256Y-81982795D01*
X122801898Y-81904774D01*
X122601939Y-81865000D01*
X122398061Y-81865000D01*
X122198102Y-81904774D01*
X122009744Y-81982795D01*
X121840226Y-82096063D01*
X121696063Y-82240226D01*
X121582795Y-82409744D01*
X121504774Y-82598102D01*
X121474401Y-82750797D01*
X121072699Y-83152500D01*
X117962657Y-83152500D01*
X114785156Y-79974999D01*
X114864842Y-79974999D01*
X115217653Y-80327810D01*
G37*
%TD.AperFunction*%
D24*
X126204774Y-75498102D02*
X126165000Y-75698061D01*
X126165000Y-75759907D01*
X126109744Y-75782795D01*
X125940226Y-75896063D01*
X125796063Y-76040226D01*
X125682795Y-76209744D01*
X125604774Y-76398102D01*
X125565000Y-76598061D01*
X125565000Y-76624843D01*
X123824842Y-78365001D01*
X119635000Y-78365001D01*
X119635000Y-78298061D01*
X119595226Y-78098102D01*
X119517205Y-77909744D01*
X119403937Y-77740226D01*
X119259774Y-77596063D01*
X119090256Y-77482795D01*
X118901898Y-77404774D01*
X118701939Y-77365000D01*
X118498061Y-77365000D01*
X118298102Y-77404774D01*
X118109744Y-77482795D01*
X118011890Y-77548179D01*
X118009774Y-77546063D01*
X117840256Y-77432795D01*
X117651898Y-77354774D01*
X117451939Y-77315000D01*
X117248061Y-77315000D01*
X117048102Y-77354774D01*
X116957042Y-77392492D01*
X116985000Y-77251939D01*
X116985000Y-77048061D01*
X116945226Y-76848102D01*
X116867205Y-76659744D01*
X116753937Y-76490226D01*
X116609774Y-76346063D01*
X116440256Y-76232795D01*
X116251898Y-76154774D01*
X116051939Y-76115000D01*
X115848061Y-76115000D01*
X115648102Y-76154774D01*
X115459744Y-76232795D01*
X115290226Y-76346063D01*
X115146063Y-76490226D01*
X115032795Y-76659744D01*
X114954774Y-76848102D01*
X114915000Y-77048061D01*
X114915000Y-77251939D01*
X114954774Y-77451898D01*
X115032795Y-77640256D01*
X115146063Y-77809774D01*
X115241278Y-77904989D01*
X110915147Y-77904989D01*
X110372445Y-77362288D01*
X110459774Y-77303937D01*
X110603937Y-77159774D01*
X110717205Y-76990256D01*
X110793407Y-76806289D01*
X110809744Y-76817205D01*
X110998102Y-76895226D01*
X111198061Y-76935000D01*
X111401939Y-76935000D01*
X111601898Y-76895226D01*
X111790256Y-76817205D01*
X111959774Y-76703937D01*
X112103937Y-76559774D01*
X112217205Y-76390256D01*
X112295226Y-76201898D01*
X112335000Y-76001939D01*
X112335000Y-75798061D01*
X112295226Y-75598102D01*
X112217205Y-75409744D01*
X112161917Y-75327000D01*
X126275647Y-75327000D01*
X126204774Y-75498102D01*
%TA.AperFunction,Conductor*%
D25*
G36*
X126204774Y-75498102D02*
G01*
X126165000Y-75698061D01*
X126165000Y-75759907D01*
X126109744Y-75782795D01*
X125940226Y-75896063D01*
X125796063Y-76040226D01*
X125682795Y-76209744D01*
X125604774Y-76398102D01*
X125565000Y-76598061D01*
X125565000Y-76624843D01*
X123824842Y-78365001D01*
X119635000Y-78365001D01*
X119635000Y-78298061D01*
X119595226Y-78098102D01*
X119517205Y-77909744D01*
X119403937Y-77740226D01*
X119259774Y-77596063D01*
X119090256Y-77482795D01*
X118901898Y-77404774D01*
X118701939Y-77365000D01*
X118498061Y-77365000D01*
X118298102Y-77404774D01*
X118109744Y-77482795D01*
X118011890Y-77548179D01*
X118009774Y-77546063D01*
X117840256Y-77432795D01*
X117651898Y-77354774D01*
X117451939Y-77315000D01*
X117248061Y-77315000D01*
X117048102Y-77354774D01*
X116957042Y-77392492D01*
X116985000Y-77251939D01*
X116985000Y-77048061D01*
X116945226Y-76848102D01*
X116867205Y-76659744D01*
X116753937Y-76490226D01*
X116609774Y-76346063D01*
X116440256Y-76232795D01*
X116251898Y-76154774D01*
X116051939Y-76115000D01*
X115848061Y-76115000D01*
X115648102Y-76154774D01*
X115459744Y-76232795D01*
X115290226Y-76346063D01*
X115146063Y-76490226D01*
X115032795Y-76659744D01*
X114954774Y-76848102D01*
X114915000Y-77048061D01*
X114915000Y-77251939D01*
X114954774Y-77451898D01*
X115032795Y-77640256D01*
X115146063Y-77809774D01*
X115241278Y-77904989D01*
X110915147Y-77904989D01*
X110372445Y-77362288D01*
X110459774Y-77303937D01*
X110603937Y-77159774D01*
X110717205Y-76990256D01*
X110793407Y-76806289D01*
X110809744Y-76817205D01*
X110998102Y-76895226D01*
X111198061Y-76935000D01*
X111401939Y-76935000D01*
X111601898Y-76895226D01*
X111790256Y-76817205D01*
X111959774Y-76703937D01*
X112103937Y-76559774D01*
X112217205Y-76390256D01*
X112295226Y-76201898D01*
X112335000Y-76001939D01*
X112335000Y-75798061D01*
X112295226Y-75598102D01*
X112217205Y-75409744D01*
X112161917Y-75327000D01*
X126275647Y-75327000D01*
X126204774Y-75498102D01*
G37*
%TD.AperFunction*%
D24*
X116315000Y-78248061D02*
X116315000Y-78365001D01*
X116275158Y-78365001D01*
X116087987Y-78177830D01*
X116251898Y-78145226D01*
X116342958Y-78107508D01*
X116315000Y-78248061D01*
%TA.AperFunction,Conductor*%
D25*
G36*
X116315000Y-78248061D02*
G01*
X116315000Y-78365001D01*
X116275158Y-78365001D01*
X116087987Y-78177830D01*
X116251898Y-78145226D01*
X116342958Y-78107508D01*
X116315000Y-78248061D01*
G37*
%TD.AperFunction*%
%TD*%
D24*
%TO.N,GND*%
X127073000Y-94273000D02*
X120927000Y-94273000D01*
X120927000Y-92000000D01*
X120924560Y-91975224D01*
X120917333Y-91951399D01*
X120905597Y-91929443D01*
X120889803Y-91910197D01*
X120870557Y-91894403D01*
X120848601Y-91882667D01*
X120824776Y-91875440D01*
X120800000Y-91873000D01*
X115827000Y-91873000D01*
X115827000Y-91283157D01*
X115983157Y-91127000D01*
X120800000Y-91127000D01*
X120824776Y-91124560D01*
X120848601Y-91117333D01*
X120870557Y-91105597D01*
X120889803Y-91089803D01*
X120905597Y-91070557D01*
X120917333Y-91048601D01*
X120924560Y-91024776D01*
X120927000Y-91000000D01*
X120927000Y-88127000D01*
X127073000Y-88127000D01*
X127073000Y-94273000D01*
%TA.AperFunction,Conductor*%
D25*
G36*
X127073000Y-94273000D02*
G01*
X120927000Y-94273000D01*
X120927000Y-92000000D01*
X120924560Y-91975224D01*
X120917333Y-91951399D01*
X120905597Y-91929443D01*
X120889803Y-91910197D01*
X120870557Y-91894403D01*
X120848601Y-91882667D01*
X120824776Y-91875440D01*
X120800000Y-91873000D01*
X115827000Y-91873000D01*
X115827000Y-91283157D01*
X115983157Y-91127000D01*
X120800000Y-91127000D01*
X120824776Y-91124560D01*
X120848601Y-91117333D01*
X120870557Y-91105597D01*
X120889803Y-91089803D01*
X120905597Y-91070557D01*
X120917333Y-91048601D01*
X120924560Y-91024776D01*
X120927000Y-91000000D01*
X120927000Y-88127000D01*
X127073000Y-88127000D01*
X127073000Y-94273000D01*
G37*
%TD.AperFunction*%
%TD*%
D24*
%TO.N,GND*%
X104023000Y-32409289D02*
X104009774Y-32396063D01*
X103840256Y-32282795D01*
X103651898Y-32204774D01*
X103451939Y-32165000D01*
X103248061Y-32165000D01*
X103048102Y-32204774D01*
X102859744Y-32282795D01*
X102690226Y-32396063D01*
X102546063Y-32540226D01*
X102432795Y-32709744D01*
X102354774Y-32898102D01*
X102315000Y-33098061D01*
X102315000Y-33301939D01*
X102354774Y-33501898D01*
X102432795Y-33690256D01*
X102546063Y-33859774D01*
X102565000Y-33878711D01*
X102565001Y-36638632D01*
X102561203Y-36677195D01*
X102576359Y-36831081D01*
X102621246Y-36979054D01*
X102621247Y-36979055D01*
X102694139Y-37115428D01*
X102734690Y-37164839D01*
X102767655Y-37205007D01*
X102767659Y-37205011D01*
X102792237Y-37234959D01*
X102822185Y-37259537D01*
X102872626Y-37309978D01*
X102773102Y-37329774D01*
X102584744Y-37407795D01*
X102415226Y-37521063D01*
X102271063Y-37665226D01*
X102157795Y-37834744D01*
X102079774Y-38023102D01*
X102040000Y-38223061D01*
X102040000Y-38426939D01*
X102079774Y-38626898D01*
X102157795Y-38815256D01*
X102271063Y-38984774D01*
X102415226Y-39128937D01*
X102584744Y-39242205D01*
X102773102Y-39320226D01*
X102973061Y-39360000D01*
X103176939Y-39360000D01*
X103376898Y-39320226D01*
X103565256Y-39242205D01*
X103670162Y-39172109D01*
X103665000Y-39198061D01*
X103665000Y-39401939D01*
X103704774Y-39601898D01*
X103782795Y-39790256D01*
X103789306Y-39800000D01*
X103782795Y-39809744D01*
X103704774Y-39998102D01*
X103665000Y-40198061D01*
X103665000Y-40401939D01*
X103704774Y-40601898D01*
X103782795Y-40790256D01*
X103896063Y-40959774D01*
X104023000Y-41086711D01*
X104023000Y-45615000D01*
X103878711Y-45615000D01*
X103859774Y-45596063D01*
X103690256Y-45482795D01*
X103501898Y-45404774D01*
X103301939Y-45365000D01*
X103098061Y-45365000D01*
X102898102Y-45404774D01*
X102709744Y-45482795D01*
X102540226Y-45596063D01*
X102396063Y-45740226D01*
X102282795Y-45909744D01*
X102204774Y-46098102D01*
X102165000Y-46298061D01*
X102165000Y-46501939D01*
X102204774Y-46701898D01*
X102282795Y-46890256D01*
X102396063Y-47059774D01*
X102540226Y-47203937D01*
X102709744Y-47317205D01*
X102898102Y-47395226D01*
X103098061Y-47435000D01*
X103301939Y-47435000D01*
X103501898Y-47395226D01*
X103690256Y-47317205D01*
X103859774Y-47203937D01*
X103878711Y-47185000D01*
X104023000Y-47185000D01*
X104023000Y-53054101D01*
X104004774Y-53098102D01*
X103965000Y-53298061D01*
X103965000Y-53501939D01*
X104004774Y-53701898D01*
X104023000Y-53745899D01*
X104023000Y-58969189D01*
X104001939Y-58965000D01*
X103798061Y-58965000D01*
X103598102Y-59004774D01*
X103409744Y-59082795D01*
X103240226Y-59196063D01*
X103096063Y-59340226D01*
X102982795Y-59509744D01*
X102904774Y-59698102D01*
X102865000Y-59898061D01*
X102865000Y-60101939D01*
X102904774Y-60301898D01*
X102982795Y-60490256D01*
X103096063Y-60659774D01*
X103240226Y-60803937D01*
X103409744Y-60917205D01*
X103598102Y-60995226D01*
X103798061Y-61035000D01*
X104001939Y-61035000D01*
X104023000Y-61030811D01*
X104023000Y-64270725D01*
X104025440Y-64295501D01*
X104032667Y-64319326D01*
X104044403Y-64341282D01*
X104060197Y-64360528D01*
X104079443Y-64376322D01*
X104101399Y-64388058D01*
X104125224Y-64395285D01*
X104151245Y-64397719D01*
X110515009Y-64335329D01*
X110515009Y-67980383D01*
X110405807Y-68089585D01*
X110310044Y-67825186D01*
X110020429Y-67684296D01*
X109708892Y-67602616D01*
X109387405Y-67583282D01*
X109068325Y-67627039D01*
X108763912Y-67732205D01*
X108589956Y-67825186D01*
X108494192Y-68089587D01*
X109450000Y-69045395D01*
X109464143Y-69031253D01*
X109643748Y-69210858D01*
X109629605Y-69225000D01*
X109643748Y-69239143D01*
X109464143Y-69418748D01*
X109450000Y-69404605D01*
X108494192Y-70360413D01*
X108589956Y-70624814D01*
X108824117Y-70738727D01*
X108472185Y-71090660D01*
X108442237Y-71115238D01*
X108417659Y-71145186D01*
X108417655Y-71145190D01*
X108384690Y-71185358D01*
X108344139Y-71234769D01*
X108305177Y-71307662D01*
X108271246Y-71371143D01*
X108226359Y-71519116D01*
X108211203Y-71673002D01*
X108215001Y-71711565D01*
X108215000Y-74393296D01*
X108077000Y-74393519D01*
X108077000Y-71570725D01*
X108074560Y-71545949D01*
X108067333Y-71522124D01*
X108055597Y-71500168D01*
X108039803Y-71480922D01*
X108020557Y-71465128D01*
X107998601Y-71453392D01*
X107974776Y-71446165D01*
X107950000Y-71443725D01*
X84227000Y-71443725D01*
X84227000Y-69385107D01*
X106477954Y-69385107D01*
X106477954Y-69588985D01*
X106517728Y-69788944D01*
X106595749Y-69977302D01*
X106709017Y-70146820D01*
X106853180Y-70290983D01*
X107022698Y-70404251D01*
X107211056Y-70482272D01*
X107411015Y-70522046D01*
X107614893Y-70522046D01*
X107814852Y-70482272D01*
X108003210Y-70404251D01*
X108172728Y-70290983D01*
X108291327Y-70172384D01*
X108314587Y-70180808D01*
X109270395Y-69225000D01*
X108314587Y-68269192D01*
X108050186Y-68364956D01*
X107959352Y-68551674D01*
X107814852Y-68491820D01*
X107614893Y-68452046D01*
X107411015Y-68452046D01*
X107211056Y-68491820D01*
X107022698Y-68569841D01*
X106853180Y-68683109D01*
X106709017Y-68827272D01*
X106595749Y-68996790D01*
X106517728Y-69185148D01*
X106477954Y-69385107D01*
X84227000Y-69385107D01*
X84227000Y-61520725D01*
X84224560Y-61495949D01*
X84217333Y-61472124D01*
X84205597Y-61450168D01*
X84189803Y-61430922D01*
X84170557Y-61415128D01*
X84148601Y-61403392D01*
X84124776Y-61396165D01*
X84100000Y-61393725D01*
X72710000Y-61393725D01*
X72710000Y-54910000D01*
X75981928Y-54910000D01*
X75981928Y-56890000D01*
X75994188Y-57014482D01*
X76030498Y-57134180D01*
X76089463Y-57244494D01*
X76168815Y-57341185D01*
X76265506Y-57420537D01*
X76375820Y-57479502D01*
X76495518Y-57515812D01*
X76620000Y-57528072D01*
X80580000Y-57528072D01*
X80704482Y-57515812D01*
X80824180Y-57479502D01*
X80934494Y-57420537D01*
X81031185Y-57341185D01*
X81110537Y-57244494D01*
X81169502Y-57134180D01*
X81205812Y-57014482D01*
X81218072Y-56890000D01*
X81218072Y-54910000D01*
X81205812Y-54785518D01*
X81169502Y-54665820D01*
X81110537Y-54555506D01*
X81031185Y-54458815D01*
X80934494Y-54379463D01*
X80824180Y-54320498D01*
X80704482Y-54284188D01*
X80580000Y-54271928D01*
X76620000Y-54271928D01*
X76495518Y-54284188D01*
X76375820Y-54320498D01*
X76265506Y-54379463D01*
X76168815Y-54458815D01*
X76089463Y-54555506D01*
X76030498Y-54665820D01*
X75994188Y-54785518D01*
X75981928Y-54910000D01*
X72710000Y-54910000D01*
X72710000Y-50900000D01*
X75977138Y-50900000D01*
X76008513Y-51218556D01*
X76101432Y-51524869D01*
X76252325Y-51807170D01*
X76455392Y-52054608D01*
X76702830Y-52257675D01*
X76985131Y-52408568D01*
X77291444Y-52501487D01*
X77530176Y-52525000D01*
X79669824Y-52525000D01*
X79908556Y-52501487D01*
X80214869Y-52408568D01*
X80497170Y-52257675D01*
X80744608Y-52054608D01*
X80947675Y-51807170D01*
X81098568Y-51524869D01*
X81191487Y-51218556D01*
X81222862Y-50900000D01*
X81191487Y-50581444D01*
X81098568Y-50275131D01*
X80947675Y-49992830D01*
X80744608Y-49745392D01*
X80497170Y-49542325D01*
X80214869Y-49391432D01*
X79908556Y-49298513D01*
X79669824Y-49275000D01*
X77530176Y-49275000D01*
X77291444Y-49298513D01*
X76985131Y-49391432D01*
X76702830Y-49542325D01*
X76455392Y-49745392D01*
X76252325Y-49992830D01*
X76101432Y-50275131D01*
X76008513Y-50581444D01*
X75977138Y-50900000D01*
X72710000Y-50900000D01*
X72710000Y-45900000D01*
X75977138Y-45900000D01*
X76008513Y-46218556D01*
X76101432Y-46524869D01*
X76252325Y-46807170D01*
X76455392Y-47054608D01*
X76702830Y-47257675D01*
X76985131Y-47408568D01*
X77291444Y-47501487D01*
X77530176Y-47525000D01*
X79669824Y-47525000D01*
X79908556Y-47501487D01*
X80214869Y-47408568D01*
X80497170Y-47257675D01*
X80744608Y-47054608D01*
X80947675Y-46807170D01*
X81098568Y-46524869D01*
X81191487Y-46218556D01*
X81222862Y-45900000D01*
X81191487Y-45581444D01*
X81098568Y-45275131D01*
X80947675Y-44992830D01*
X80744608Y-44745392D01*
X80497170Y-44542325D01*
X80214869Y-44391432D01*
X79908556Y-44298513D01*
X79669824Y-44275000D01*
X77530176Y-44275000D01*
X77291444Y-44298513D01*
X76985131Y-44391432D01*
X76702830Y-44542325D01*
X76455392Y-44745392D01*
X76252325Y-44992830D01*
X76101432Y-45275131D01*
X76008513Y-45581444D01*
X75977138Y-45900000D01*
X72710000Y-45900000D01*
X72710000Y-35978985D01*
X73021161Y-36444670D01*
X73555330Y-36978839D01*
X74183446Y-37398533D01*
X74881372Y-37687623D01*
X75622285Y-37835000D01*
X76377715Y-37835000D01*
X77118628Y-37687623D01*
X77816554Y-37398533D01*
X78444670Y-36978839D01*
X78978839Y-36444670D01*
X79398533Y-35816554D01*
X79687623Y-35118628D01*
X79835000Y-34377715D01*
X79835000Y-33622285D01*
X79687623Y-32881372D01*
X79398533Y-32183446D01*
X78978839Y-31555330D01*
X78444670Y-31021161D01*
X77978985Y-30710000D01*
X104023000Y-30710000D01*
X104023000Y-32409289D01*
%TA.AperFunction,Conductor*%
D25*
G36*
X104023000Y-32409289D02*
G01*
X104009774Y-32396063D01*
X103840256Y-32282795D01*
X103651898Y-32204774D01*
X103451939Y-32165000D01*
X103248061Y-32165000D01*
X103048102Y-32204774D01*
X102859744Y-32282795D01*
X102690226Y-32396063D01*
X102546063Y-32540226D01*
X102432795Y-32709744D01*
X102354774Y-32898102D01*
X102315000Y-33098061D01*
X102315000Y-33301939D01*
X102354774Y-33501898D01*
X102432795Y-33690256D01*
X102546063Y-33859774D01*
X102565000Y-33878711D01*
X102565001Y-36638632D01*
X102561203Y-36677195D01*
X102576359Y-36831081D01*
X102621246Y-36979054D01*
X102621247Y-36979055D01*
X102694139Y-37115428D01*
X102734690Y-37164839D01*
X102767655Y-37205007D01*
X102767659Y-37205011D01*
X102792237Y-37234959D01*
X102822185Y-37259537D01*
X102872626Y-37309978D01*
X102773102Y-37329774D01*
X102584744Y-37407795D01*
X102415226Y-37521063D01*
X102271063Y-37665226D01*
X102157795Y-37834744D01*
X102079774Y-38023102D01*
X102040000Y-38223061D01*
X102040000Y-38426939D01*
X102079774Y-38626898D01*
X102157795Y-38815256D01*
X102271063Y-38984774D01*
X102415226Y-39128937D01*
X102584744Y-39242205D01*
X102773102Y-39320226D01*
X102973061Y-39360000D01*
X103176939Y-39360000D01*
X103376898Y-39320226D01*
X103565256Y-39242205D01*
X103670162Y-39172109D01*
X103665000Y-39198061D01*
X103665000Y-39401939D01*
X103704774Y-39601898D01*
X103782795Y-39790256D01*
X103789306Y-39800000D01*
X103782795Y-39809744D01*
X103704774Y-39998102D01*
X103665000Y-40198061D01*
X103665000Y-40401939D01*
X103704774Y-40601898D01*
X103782795Y-40790256D01*
X103896063Y-40959774D01*
X104023000Y-41086711D01*
X104023000Y-45615000D01*
X103878711Y-45615000D01*
X103859774Y-45596063D01*
X103690256Y-45482795D01*
X103501898Y-45404774D01*
X103301939Y-45365000D01*
X103098061Y-45365000D01*
X102898102Y-45404774D01*
X102709744Y-45482795D01*
X102540226Y-45596063D01*
X102396063Y-45740226D01*
X102282795Y-45909744D01*
X102204774Y-46098102D01*
X102165000Y-46298061D01*
X102165000Y-46501939D01*
X102204774Y-46701898D01*
X102282795Y-46890256D01*
X102396063Y-47059774D01*
X102540226Y-47203937D01*
X102709744Y-47317205D01*
X102898102Y-47395226D01*
X103098061Y-47435000D01*
X103301939Y-47435000D01*
X103501898Y-47395226D01*
X103690256Y-47317205D01*
X103859774Y-47203937D01*
X103878711Y-47185000D01*
X104023000Y-47185000D01*
X104023000Y-53054101D01*
X104004774Y-53098102D01*
X103965000Y-53298061D01*
X103965000Y-53501939D01*
X104004774Y-53701898D01*
X104023000Y-53745899D01*
X104023000Y-58969189D01*
X104001939Y-58965000D01*
X103798061Y-58965000D01*
X103598102Y-59004774D01*
X103409744Y-59082795D01*
X103240226Y-59196063D01*
X103096063Y-59340226D01*
X102982795Y-59509744D01*
X102904774Y-59698102D01*
X102865000Y-59898061D01*
X102865000Y-60101939D01*
X102904774Y-60301898D01*
X102982795Y-60490256D01*
X103096063Y-60659774D01*
X103240226Y-60803937D01*
X103409744Y-60917205D01*
X103598102Y-60995226D01*
X103798061Y-61035000D01*
X104001939Y-61035000D01*
X104023000Y-61030811D01*
X104023000Y-64270725D01*
X104025440Y-64295501D01*
X104032667Y-64319326D01*
X104044403Y-64341282D01*
X104060197Y-64360528D01*
X104079443Y-64376322D01*
X104101399Y-64388058D01*
X104125224Y-64395285D01*
X104151245Y-64397719D01*
X110515009Y-64335329D01*
X110515009Y-67980383D01*
X110405807Y-68089585D01*
X110310044Y-67825186D01*
X110020429Y-67684296D01*
X109708892Y-67602616D01*
X109387405Y-67583282D01*
X109068325Y-67627039D01*
X108763912Y-67732205D01*
X108589956Y-67825186D01*
X108494192Y-68089587D01*
X109450000Y-69045395D01*
X109464143Y-69031253D01*
X109643748Y-69210858D01*
X109629605Y-69225000D01*
X109643748Y-69239143D01*
X109464143Y-69418748D01*
X109450000Y-69404605D01*
X108494192Y-70360413D01*
X108589956Y-70624814D01*
X108824117Y-70738727D01*
X108472185Y-71090660D01*
X108442237Y-71115238D01*
X108417659Y-71145186D01*
X108417655Y-71145190D01*
X108384690Y-71185358D01*
X108344139Y-71234769D01*
X108305177Y-71307662D01*
X108271246Y-71371143D01*
X108226359Y-71519116D01*
X108211203Y-71673002D01*
X108215001Y-71711565D01*
X108215000Y-74393296D01*
X108077000Y-74393519D01*
X108077000Y-71570725D01*
X108074560Y-71545949D01*
X108067333Y-71522124D01*
X108055597Y-71500168D01*
X108039803Y-71480922D01*
X108020557Y-71465128D01*
X107998601Y-71453392D01*
X107974776Y-71446165D01*
X107950000Y-71443725D01*
X84227000Y-71443725D01*
X84227000Y-69385107D01*
X106477954Y-69385107D01*
X106477954Y-69588985D01*
X106517728Y-69788944D01*
X106595749Y-69977302D01*
X106709017Y-70146820D01*
X106853180Y-70290983D01*
X107022698Y-70404251D01*
X107211056Y-70482272D01*
X107411015Y-70522046D01*
X107614893Y-70522046D01*
X107814852Y-70482272D01*
X108003210Y-70404251D01*
X108172728Y-70290983D01*
X108291327Y-70172384D01*
X108314587Y-70180808D01*
X109270395Y-69225000D01*
X108314587Y-68269192D01*
X108050186Y-68364956D01*
X107959352Y-68551674D01*
X107814852Y-68491820D01*
X107614893Y-68452046D01*
X107411015Y-68452046D01*
X107211056Y-68491820D01*
X107022698Y-68569841D01*
X106853180Y-68683109D01*
X106709017Y-68827272D01*
X106595749Y-68996790D01*
X106517728Y-69185148D01*
X106477954Y-69385107D01*
X84227000Y-69385107D01*
X84227000Y-61520725D01*
X84224560Y-61495949D01*
X84217333Y-61472124D01*
X84205597Y-61450168D01*
X84189803Y-61430922D01*
X84170557Y-61415128D01*
X84148601Y-61403392D01*
X84124776Y-61396165D01*
X84100000Y-61393725D01*
X72710000Y-61393725D01*
X72710000Y-54910000D01*
X75981928Y-54910000D01*
X75981928Y-56890000D01*
X75994188Y-57014482D01*
X76030498Y-57134180D01*
X76089463Y-57244494D01*
X76168815Y-57341185D01*
X76265506Y-57420537D01*
X76375820Y-57479502D01*
X76495518Y-57515812D01*
X76620000Y-57528072D01*
X80580000Y-57528072D01*
X80704482Y-57515812D01*
X80824180Y-57479502D01*
X80934494Y-57420537D01*
X81031185Y-57341185D01*
X81110537Y-57244494D01*
X81169502Y-57134180D01*
X81205812Y-57014482D01*
X81218072Y-56890000D01*
X81218072Y-54910000D01*
X81205812Y-54785518D01*
X81169502Y-54665820D01*
X81110537Y-54555506D01*
X81031185Y-54458815D01*
X80934494Y-54379463D01*
X80824180Y-54320498D01*
X80704482Y-54284188D01*
X80580000Y-54271928D01*
X76620000Y-54271928D01*
X76495518Y-54284188D01*
X76375820Y-54320498D01*
X76265506Y-54379463D01*
X76168815Y-54458815D01*
X76089463Y-54555506D01*
X76030498Y-54665820D01*
X75994188Y-54785518D01*
X75981928Y-54910000D01*
X72710000Y-54910000D01*
X72710000Y-50900000D01*
X75977138Y-50900000D01*
X76008513Y-51218556D01*
X76101432Y-51524869D01*
X76252325Y-51807170D01*
X76455392Y-52054608D01*
X76702830Y-52257675D01*
X76985131Y-52408568D01*
X77291444Y-52501487D01*
X77530176Y-52525000D01*
X79669824Y-52525000D01*
X79908556Y-52501487D01*
X80214869Y-52408568D01*
X80497170Y-52257675D01*
X80744608Y-52054608D01*
X80947675Y-51807170D01*
X81098568Y-51524869D01*
X81191487Y-51218556D01*
X81222862Y-50900000D01*
X81191487Y-50581444D01*
X81098568Y-50275131D01*
X80947675Y-49992830D01*
X80744608Y-49745392D01*
X80497170Y-49542325D01*
X80214869Y-49391432D01*
X79908556Y-49298513D01*
X79669824Y-49275000D01*
X77530176Y-49275000D01*
X77291444Y-49298513D01*
X76985131Y-49391432D01*
X76702830Y-49542325D01*
X76455392Y-49745392D01*
X76252325Y-49992830D01*
X76101432Y-50275131D01*
X76008513Y-50581444D01*
X75977138Y-50900000D01*
X72710000Y-50900000D01*
X72710000Y-45900000D01*
X75977138Y-45900000D01*
X76008513Y-46218556D01*
X76101432Y-46524869D01*
X76252325Y-46807170D01*
X76455392Y-47054608D01*
X76702830Y-47257675D01*
X76985131Y-47408568D01*
X77291444Y-47501487D01*
X77530176Y-47525000D01*
X79669824Y-47525000D01*
X79908556Y-47501487D01*
X80214869Y-47408568D01*
X80497170Y-47257675D01*
X80744608Y-47054608D01*
X80947675Y-46807170D01*
X81098568Y-46524869D01*
X81191487Y-46218556D01*
X81222862Y-45900000D01*
X81191487Y-45581444D01*
X81098568Y-45275131D01*
X80947675Y-44992830D01*
X80744608Y-44745392D01*
X80497170Y-44542325D01*
X80214869Y-44391432D01*
X79908556Y-44298513D01*
X79669824Y-44275000D01*
X77530176Y-44275000D01*
X77291444Y-44298513D01*
X76985131Y-44391432D01*
X76702830Y-44542325D01*
X76455392Y-44745392D01*
X76252325Y-44992830D01*
X76101432Y-45275131D01*
X76008513Y-45581444D01*
X75977138Y-45900000D01*
X72710000Y-45900000D01*
X72710000Y-35978985D01*
X73021161Y-36444670D01*
X73555330Y-36978839D01*
X74183446Y-37398533D01*
X74881372Y-37687623D01*
X75622285Y-37835000D01*
X76377715Y-37835000D01*
X77118628Y-37687623D01*
X77816554Y-37398533D01*
X78444670Y-36978839D01*
X78978839Y-36444670D01*
X79398533Y-35816554D01*
X79687623Y-35118628D01*
X79835000Y-34377715D01*
X79835000Y-33622285D01*
X79687623Y-32881372D01*
X79398533Y-32183446D01*
X78978839Y-31555330D01*
X78444670Y-31021161D01*
X77978985Y-30710000D01*
X104023000Y-30710000D01*
X104023000Y-32409289D01*
G37*
%TD.AperFunction*%
D24*
X145555330Y-31021161D02*
X145021161Y-31555330D01*
X144601467Y-32183446D01*
X144312377Y-32881372D01*
X144165000Y-33622285D01*
X144165000Y-34377715D01*
X144312377Y-35118628D01*
X144601467Y-35816554D01*
X145021161Y-36444670D01*
X145555330Y-36978839D01*
X146183446Y-37398533D01*
X146881372Y-37687623D01*
X147622285Y-37835000D01*
X148377715Y-37835000D01*
X149118628Y-37687623D01*
X149816554Y-37398533D01*
X150444670Y-36978839D01*
X150978839Y-36444670D01*
X151290000Y-35978985D01*
X151290000Y-61943725D01*
X140550000Y-61943725D01*
X140525224Y-61946165D01*
X140501399Y-61953392D01*
X140479443Y-61965128D01*
X140460197Y-61980922D01*
X140444403Y-62000168D01*
X140432667Y-62022124D01*
X140425440Y-62045949D01*
X140423000Y-62070725D01*
X140423000Y-74343725D01*
X138849794Y-74343725D01*
X110385000Y-74389784D01*
X110385000Y-72105279D01*
X111673000Y-70817279D01*
X111673000Y-71145725D01*
X111675440Y-71170501D01*
X111682667Y-71194326D01*
X111694403Y-71216282D01*
X111710197Y-71235528D01*
X111729443Y-71251322D01*
X111751399Y-71263058D01*
X111775224Y-71270285D01*
X111803086Y-71272688D01*
X119003086Y-71097688D01*
X119027796Y-71094646D01*
X119051437Y-71086842D01*
X119073102Y-71074576D01*
X119091958Y-71058319D01*
X119107280Y-71038696D01*
X119118479Y-71016460D01*
X119125125Y-70992468D01*
X119127000Y-70971036D01*
X119129547Y-69929509D01*
X119301898Y-69895226D01*
X119490256Y-69817205D01*
X119659774Y-69703937D01*
X119803937Y-69559774D01*
X119917205Y-69390256D01*
X119995226Y-69201898D01*
X120035000Y-69001939D01*
X120035000Y-68798061D01*
X119995226Y-68598102D01*
X119917205Y-68409744D01*
X119803937Y-68240226D01*
X119659774Y-68096063D01*
X119490256Y-67982795D01*
X119301898Y-67904774D01*
X119134578Y-67871492D01*
X119144224Y-63926589D01*
X119301898Y-63895226D01*
X119490256Y-63817205D01*
X119659774Y-63703937D01*
X119803937Y-63559774D01*
X119917205Y-63390256D01*
X119995226Y-63201898D01*
X120035000Y-63001939D01*
X120035000Y-62798061D01*
X119995226Y-62598102D01*
X119917205Y-62409744D01*
X119910694Y-62400000D01*
X119917205Y-62390256D01*
X119995226Y-62201898D01*
X120035000Y-62001939D01*
X120035000Y-61798061D01*
X119995226Y-61598102D01*
X119917205Y-61409744D01*
X119803937Y-61240226D01*
X119659774Y-61096063D01*
X119490256Y-60982795D01*
X119301898Y-60904774D01*
X119151685Y-60874895D01*
X119162325Y-56522989D01*
X119301898Y-56495226D01*
X119490256Y-56417205D01*
X119659774Y-56303937D01*
X119803937Y-56159774D01*
X119917205Y-55990256D01*
X119995226Y-55801898D01*
X120035000Y-55601939D01*
X120035000Y-55398061D01*
X119995226Y-55198102D01*
X119917205Y-55009744D01*
X119850559Y-54910000D01*
X143081928Y-54910000D01*
X143081928Y-56890000D01*
X143094188Y-57014482D01*
X143130498Y-57134180D01*
X143189463Y-57244494D01*
X143268815Y-57341185D01*
X143365506Y-57420537D01*
X143475820Y-57479502D01*
X143595518Y-57515812D01*
X143720000Y-57528072D01*
X147680000Y-57528072D01*
X147804482Y-57515812D01*
X147924180Y-57479502D01*
X148034494Y-57420537D01*
X148131185Y-57341185D01*
X148210537Y-57244494D01*
X148269502Y-57134180D01*
X148305812Y-57014482D01*
X148318072Y-56890000D01*
X148318072Y-54910000D01*
X148305812Y-54785518D01*
X148269502Y-54665820D01*
X148210537Y-54555506D01*
X148131185Y-54458815D01*
X148034494Y-54379463D01*
X147924180Y-54320498D01*
X147804482Y-54284188D01*
X147680000Y-54271928D01*
X143720000Y-54271928D01*
X143595518Y-54284188D01*
X143475820Y-54320498D01*
X143365506Y-54379463D01*
X143268815Y-54458815D01*
X143189463Y-54555506D01*
X143130498Y-54665820D01*
X143094188Y-54785518D01*
X143081928Y-54910000D01*
X119850559Y-54910000D01*
X119803937Y-54840226D01*
X119659774Y-54696063D01*
X119490256Y-54582795D01*
X119301898Y-54504774D01*
X119167325Y-54478006D01*
X119176073Y-50900000D01*
X143077138Y-50900000D01*
X143108513Y-51218556D01*
X143201432Y-51524869D01*
X143352325Y-51807170D01*
X143555392Y-52054608D01*
X143802830Y-52257675D01*
X144085131Y-52408568D01*
X144391444Y-52501487D01*
X144630176Y-52525000D01*
X146769824Y-52525000D01*
X147008556Y-52501487D01*
X147314869Y-52408568D01*
X147597170Y-52257675D01*
X147844608Y-52054608D01*
X148047675Y-51807170D01*
X148198568Y-51524869D01*
X148291487Y-51218556D01*
X148322862Y-50900000D01*
X148291487Y-50581444D01*
X148198568Y-50275131D01*
X148047675Y-49992830D01*
X147844608Y-49745392D01*
X147597170Y-49542325D01*
X147314869Y-49391432D01*
X147008556Y-49298513D01*
X146769824Y-49275000D01*
X144630176Y-49275000D01*
X144391444Y-49298513D01*
X144085131Y-49391432D01*
X143802830Y-49542325D01*
X143555392Y-49745392D01*
X143352325Y-49992830D01*
X143201432Y-50275131D01*
X143108513Y-50581444D01*
X143077138Y-50900000D01*
X119176073Y-50900000D01*
X119177002Y-50520069D01*
X119301898Y-50495226D01*
X119490256Y-50417205D01*
X119659774Y-50303937D01*
X119803937Y-50159774D01*
X119917205Y-49990256D01*
X119995226Y-49801898D01*
X120035000Y-49601939D01*
X120035000Y-49398061D01*
X119995226Y-49198102D01*
X119917205Y-49009744D01*
X119910694Y-49000000D01*
X119917205Y-48990256D01*
X119995226Y-48801898D01*
X120035000Y-48601939D01*
X120035000Y-48398061D01*
X119995226Y-48198102D01*
X119917205Y-48009744D01*
X119803937Y-47840226D01*
X119661772Y-47698061D01*
X126365000Y-47698061D01*
X126365000Y-47901939D01*
X126404774Y-48101898D01*
X126482795Y-48290256D01*
X126596063Y-48459774D01*
X126740226Y-48603937D01*
X126909744Y-48717205D01*
X127098102Y-48795226D01*
X127298061Y-48835000D01*
X127501939Y-48835000D01*
X127701898Y-48795226D01*
X127890256Y-48717205D01*
X128059774Y-48603937D01*
X128203937Y-48459774D01*
X128317205Y-48290256D01*
X128395226Y-48101898D01*
X128435000Y-47901939D01*
X128435000Y-47698061D01*
X128395226Y-47498102D01*
X128317205Y-47309744D01*
X128203937Y-47140226D01*
X128059774Y-46996063D01*
X127890256Y-46882795D01*
X127701898Y-46804774D01*
X127501939Y-46765000D01*
X127298061Y-46765000D01*
X127098102Y-46804774D01*
X126909744Y-46882795D01*
X126740226Y-46996063D01*
X126596063Y-47140226D01*
X126482795Y-47309744D01*
X126404774Y-47498102D01*
X126365000Y-47698061D01*
X119661772Y-47698061D01*
X119659774Y-47696063D01*
X119490256Y-47582795D01*
X119301898Y-47504774D01*
X119184432Y-47481409D01*
X119188298Y-45900000D01*
X143077138Y-45900000D01*
X143108513Y-46218556D01*
X143201432Y-46524869D01*
X143352325Y-46807170D01*
X143555392Y-47054608D01*
X143802830Y-47257675D01*
X144085131Y-47408568D01*
X144391444Y-47501487D01*
X144630176Y-47525000D01*
X146769824Y-47525000D01*
X147008556Y-47501487D01*
X147314869Y-47408568D01*
X147597170Y-47257675D01*
X147844608Y-47054608D01*
X148047675Y-46807170D01*
X148198568Y-46524869D01*
X148291487Y-46218556D01*
X148322862Y-45900000D01*
X148291487Y-45581444D01*
X148198568Y-45275131D01*
X148047675Y-44992830D01*
X147844608Y-44745392D01*
X147597170Y-44542325D01*
X147314869Y-44391432D01*
X147008556Y-44298513D01*
X146769824Y-44275000D01*
X144630176Y-44275000D01*
X144391444Y-44298513D01*
X144085131Y-44391432D01*
X143802830Y-44542325D01*
X143555392Y-44745392D01*
X143352325Y-44992830D01*
X143201432Y-45275131D01*
X143108513Y-45581444D01*
X143077138Y-45900000D01*
X119188298Y-45900000D01*
X119196616Y-42498061D01*
X119265000Y-42498061D01*
X119265000Y-42701939D01*
X119304774Y-42901898D01*
X119382795Y-43090256D01*
X119496063Y-43259774D01*
X119640226Y-43403937D01*
X119809744Y-43517205D01*
X119998102Y-43595226D01*
X120198061Y-43635000D01*
X120401939Y-43635000D01*
X120601898Y-43595226D01*
X120790256Y-43517205D01*
X120959774Y-43403937D01*
X121103937Y-43259774D01*
X121217205Y-43090256D01*
X121295226Y-42901898D01*
X121335000Y-42701939D01*
X121335000Y-42498061D01*
X121295226Y-42298102D01*
X121217205Y-42109744D01*
X121103937Y-41940226D01*
X120959774Y-41796063D01*
X120790256Y-41682795D01*
X120601898Y-41604774D01*
X120401939Y-41565000D01*
X120198061Y-41565000D01*
X119998102Y-41604774D01*
X119809744Y-41682795D01*
X119640226Y-41796063D01*
X119496063Y-41940226D01*
X119382795Y-42109744D01*
X119304774Y-42298102D01*
X119265000Y-42498061D01*
X119196616Y-42498061D01*
X119208995Y-37435000D01*
X119301939Y-37435000D01*
X119501898Y-37395226D01*
X119690256Y-37317205D01*
X119859774Y-37203937D01*
X120003937Y-37059774D01*
X120117205Y-36890256D01*
X120195226Y-36701898D01*
X120235000Y-36501939D01*
X120235000Y-36298061D01*
X120195226Y-36098102D01*
X120117205Y-35909744D01*
X120110694Y-35900000D01*
X120117205Y-35890256D01*
X120195226Y-35701898D01*
X120235000Y-35501939D01*
X120235000Y-35298061D01*
X120195226Y-35098102D01*
X120117205Y-34909744D01*
X120003937Y-34740226D01*
X119859774Y-34596063D01*
X119690256Y-34482795D01*
X119501898Y-34404774D01*
X119301939Y-34365000D01*
X119216501Y-34365000D01*
X119225438Y-30710000D01*
X146021015Y-30710000D01*
X145555330Y-31021161D01*
%TA.AperFunction,Conductor*%
D25*
G36*
X145555330Y-31021161D02*
G01*
X145021161Y-31555330D01*
X144601467Y-32183446D01*
X144312377Y-32881372D01*
X144165000Y-33622285D01*
X144165000Y-34377715D01*
X144312377Y-35118628D01*
X144601467Y-35816554D01*
X145021161Y-36444670D01*
X145555330Y-36978839D01*
X146183446Y-37398533D01*
X146881372Y-37687623D01*
X147622285Y-37835000D01*
X148377715Y-37835000D01*
X149118628Y-37687623D01*
X149816554Y-37398533D01*
X150444670Y-36978839D01*
X150978839Y-36444670D01*
X151290000Y-35978985D01*
X151290000Y-61943725D01*
X140550000Y-61943725D01*
X140525224Y-61946165D01*
X140501399Y-61953392D01*
X140479443Y-61965128D01*
X140460197Y-61980922D01*
X140444403Y-62000168D01*
X140432667Y-62022124D01*
X140425440Y-62045949D01*
X140423000Y-62070725D01*
X140423000Y-74343725D01*
X138849794Y-74343725D01*
X110385000Y-74389784D01*
X110385000Y-72105279D01*
X111673000Y-70817279D01*
X111673000Y-71145725D01*
X111675440Y-71170501D01*
X111682667Y-71194326D01*
X111694403Y-71216282D01*
X111710197Y-71235528D01*
X111729443Y-71251322D01*
X111751399Y-71263058D01*
X111775224Y-71270285D01*
X111803086Y-71272688D01*
X119003086Y-71097688D01*
X119027796Y-71094646D01*
X119051437Y-71086842D01*
X119073102Y-71074576D01*
X119091958Y-71058319D01*
X119107280Y-71038696D01*
X119118479Y-71016460D01*
X119125125Y-70992468D01*
X119127000Y-70971036D01*
X119129547Y-69929509D01*
X119301898Y-69895226D01*
X119490256Y-69817205D01*
X119659774Y-69703937D01*
X119803937Y-69559774D01*
X119917205Y-69390256D01*
X119995226Y-69201898D01*
X120035000Y-69001939D01*
X120035000Y-68798061D01*
X119995226Y-68598102D01*
X119917205Y-68409744D01*
X119803937Y-68240226D01*
X119659774Y-68096063D01*
X119490256Y-67982795D01*
X119301898Y-67904774D01*
X119134578Y-67871492D01*
X119144224Y-63926589D01*
X119301898Y-63895226D01*
X119490256Y-63817205D01*
X119659774Y-63703937D01*
X119803937Y-63559774D01*
X119917205Y-63390256D01*
X119995226Y-63201898D01*
X120035000Y-63001939D01*
X120035000Y-62798061D01*
X119995226Y-62598102D01*
X119917205Y-62409744D01*
X119910694Y-62400000D01*
X119917205Y-62390256D01*
X119995226Y-62201898D01*
X120035000Y-62001939D01*
X120035000Y-61798061D01*
X119995226Y-61598102D01*
X119917205Y-61409744D01*
X119803937Y-61240226D01*
X119659774Y-61096063D01*
X119490256Y-60982795D01*
X119301898Y-60904774D01*
X119151685Y-60874895D01*
X119162325Y-56522989D01*
X119301898Y-56495226D01*
X119490256Y-56417205D01*
X119659774Y-56303937D01*
X119803937Y-56159774D01*
X119917205Y-55990256D01*
X119995226Y-55801898D01*
X120035000Y-55601939D01*
X120035000Y-55398061D01*
X119995226Y-55198102D01*
X119917205Y-55009744D01*
X119850559Y-54910000D01*
X143081928Y-54910000D01*
X143081928Y-56890000D01*
X143094188Y-57014482D01*
X143130498Y-57134180D01*
X143189463Y-57244494D01*
X143268815Y-57341185D01*
X143365506Y-57420537D01*
X143475820Y-57479502D01*
X143595518Y-57515812D01*
X143720000Y-57528072D01*
X147680000Y-57528072D01*
X147804482Y-57515812D01*
X147924180Y-57479502D01*
X148034494Y-57420537D01*
X148131185Y-57341185D01*
X148210537Y-57244494D01*
X148269502Y-57134180D01*
X148305812Y-57014482D01*
X148318072Y-56890000D01*
X148318072Y-54910000D01*
X148305812Y-54785518D01*
X148269502Y-54665820D01*
X148210537Y-54555506D01*
X148131185Y-54458815D01*
X148034494Y-54379463D01*
X147924180Y-54320498D01*
X147804482Y-54284188D01*
X147680000Y-54271928D01*
X143720000Y-54271928D01*
X143595518Y-54284188D01*
X143475820Y-54320498D01*
X143365506Y-54379463D01*
X143268815Y-54458815D01*
X143189463Y-54555506D01*
X143130498Y-54665820D01*
X143094188Y-54785518D01*
X143081928Y-54910000D01*
X119850559Y-54910000D01*
X119803937Y-54840226D01*
X119659774Y-54696063D01*
X119490256Y-54582795D01*
X119301898Y-54504774D01*
X119167325Y-54478006D01*
X119176073Y-50900000D01*
X143077138Y-50900000D01*
X143108513Y-51218556D01*
X143201432Y-51524869D01*
X143352325Y-51807170D01*
X143555392Y-52054608D01*
X143802830Y-52257675D01*
X144085131Y-52408568D01*
X144391444Y-52501487D01*
X144630176Y-52525000D01*
X146769824Y-52525000D01*
X147008556Y-52501487D01*
X147314869Y-52408568D01*
X147597170Y-52257675D01*
X147844608Y-52054608D01*
X148047675Y-51807170D01*
X148198568Y-51524869D01*
X148291487Y-51218556D01*
X148322862Y-50900000D01*
X148291487Y-50581444D01*
X148198568Y-50275131D01*
X148047675Y-49992830D01*
X147844608Y-49745392D01*
X147597170Y-49542325D01*
X147314869Y-49391432D01*
X147008556Y-49298513D01*
X146769824Y-49275000D01*
X144630176Y-49275000D01*
X144391444Y-49298513D01*
X144085131Y-49391432D01*
X143802830Y-49542325D01*
X143555392Y-49745392D01*
X143352325Y-49992830D01*
X143201432Y-50275131D01*
X143108513Y-50581444D01*
X143077138Y-50900000D01*
X119176073Y-50900000D01*
X119177002Y-50520069D01*
X119301898Y-50495226D01*
X119490256Y-50417205D01*
X119659774Y-50303937D01*
X119803937Y-50159774D01*
X119917205Y-49990256D01*
X119995226Y-49801898D01*
X120035000Y-49601939D01*
X120035000Y-49398061D01*
X119995226Y-49198102D01*
X119917205Y-49009744D01*
X119910694Y-49000000D01*
X119917205Y-48990256D01*
X119995226Y-48801898D01*
X120035000Y-48601939D01*
X120035000Y-48398061D01*
X119995226Y-48198102D01*
X119917205Y-48009744D01*
X119803937Y-47840226D01*
X119661772Y-47698061D01*
X126365000Y-47698061D01*
X126365000Y-47901939D01*
X126404774Y-48101898D01*
X126482795Y-48290256D01*
X126596063Y-48459774D01*
X126740226Y-48603937D01*
X126909744Y-48717205D01*
X127098102Y-48795226D01*
X127298061Y-48835000D01*
X127501939Y-48835000D01*
X127701898Y-48795226D01*
X127890256Y-48717205D01*
X128059774Y-48603937D01*
X128203937Y-48459774D01*
X128317205Y-48290256D01*
X128395226Y-48101898D01*
X128435000Y-47901939D01*
X128435000Y-47698061D01*
X128395226Y-47498102D01*
X128317205Y-47309744D01*
X128203937Y-47140226D01*
X128059774Y-46996063D01*
X127890256Y-46882795D01*
X127701898Y-46804774D01*
X127501939Y-46765000D01*
X127298061Y-46765000D01*
X127098102Y-46804774D01*
X126909744Y-46882795D01*
X126740226Y-46996063D01*
X126596063Y-47140226D01*
X126482795Y-47309744D01*
X126404774Y-47498102D01*
X126365000Y-47698061D01*
X119661772Y-47698061D01*
X119659774Y-47696063D01*
X119490256Y-47582795D01*
X119301898Y-47504774D01*
X119184432Y-47481409D01*
X119188298Y-45900000D01*
X143077138Y-45900000D01*
X143108513Y-46218556D01*
X143201432Y-46524869D01*
X143352325Y-46807170D01*
X143555392Y-47054608D01*
X143802830Y-47257675D01*
X144085131Y-47408568D01*
X144391444Y-47501487D01*
X144630176Y-47525000D01*
X146769824Y-47525000D01*
X147008556Y-47501487D01*
X147314869Y-47408568D01*
X147597170Y-47257675D01*
X147844608Y-47054608D01*
X148047675Y-46807170D01*
X148198568Y-46524869D01*
X148291487Y-46218556D01*
X148322862Y-45900000D01*
X148291487Y-45581444D01*
X148198568Y-45275131D01*
X148047675Y-44992830D01*
X147844608Y-44745392D01*
X147597170Y-44542325D01*
X147314869Y-44391432D01*
X147008556Y-44298513D01*
X146769824Y-44275000D01*
X144630176Y-44275000D01*
X144391444Y-44298513D01*
X144085131Y-44391432D01*
X143802830Y-44542325D01*
X143555392Y-44745392D01*
X143352325Y-44992830D01*
X143201432Y-45275131D01*
X143108513Y-45581444D01*
X143077138Y-45900000D01*
X119188298Y-45900000D01*
X119196616Y-42498061D01*
X119265000Y-42498061D01*
X119265000Y-42701939D01*
X119304774Y-42901898D01*
X119382795Y-43090256D01*
X119496063Y-43259774D01*
X119640226Y-43403937D01*
X119809744Y-43517205D01*
X119998102Y-43595226D01*
X120198061Y-43635000D01*
X120401939Y-43635000D01*
X120601898Y-43595226D01*
X120790256Y-43517205D01*
X120959774Y-43403937D01*
X121103937Y-43259774D01*
X121217205Y-43090256D01*
X121295226Y-42901898D01*
X121335000Y-42701939D01*
X121335000Y-42498061D01*
X121295226Y-42298102D01*
X121217205Y-42109744D01*
X121103937Y-41940226D01*
X120959774Y-41796063D01*
X120790256Y-41682795D01*
X120601898Y-41604774D01*
X120401939Y-41565000D01*
X120198061Y-41565000D01*
X119998102Y-41604774D01*
X119809744Y-41682795D01*
X119640226Y-41796063D01*
X119496063Y-41940226D01*
X119382795Y-42109744D01*
X119304774Y-42298102D01*
X119265000Y-42498061D01*
X119196616Y-42498061D01*
X119208995Y-37435000D01*
X119301939Y-37435000D01*
X119501898Y-37395226D01*
X119690256Y-37317205D01*
X119859774Y-37203937D01*
X120003937Y-37059774D01*
X120117205Y-36890256D01*
X120195226Y-36701898D01*
X120235000Y-36501939D01*
X120235000Y-36298061D01*
X120195226Y-36098102D01*
X120117205Y-35909744D01*
X120110694Y-35900000D01*
X120117205Y-35890256D01*
X120195226Y-35701898D01*
X120235000Y-35501939D01*
X120235000Y-35298061D01*
X120195226Y-35098102D01*
X120117205Y-34909744D01*
X120003937Y-34740226D01*
X119859774Y-34596063D01*
X119690256Y-34482795D01*
X119501898Y-34404774D01*
X119301939Y-34365000D01*
X119216501Y-34365000D01*
X119225438Y-30710000D01*
X146021015Y-30710000D01*
X145555330Y-31021161D01*
G37*
%TD.AperFunction*%
%TD*%
M02*
