%TF.GenerationSoftware,KiCad,Pcbnew,5.1.9-73d0e3b20d~88~ubuntu20.04.1*%
%TF.CreationDate,2021-02-07T18:57:00+00:00*%
%TF.ProjectId,driva-x2,64726976-612d-4783-922e-6b696361645f,rev?*%
%TF.SameCoordinates,Original*%
%TF.FileFunction,Soldermask,Top*%
%TF.FilePolarity,Negative*%
%FSLAX46Y46*%
G04 Gerber Fmt 4.6, Leading zero omitted, Abs format (unit mm)*
G04 Created by KiCad (PCBNEW 5.1.9-73d0e3b20d~88~ubuntu20.04.1) date 2021-02-07 18:57:00*
%MOMM*%
%LPD*%
G01*
G04 APERTURE LIST*
%ADD10C,0.150000*%
%ADD11R,1.500000X1.000000*%
%ADD12R,1.980000X3.960000*%
%ADD13O,1.980000X3.960000*%
%ADD14C,5.500000*%
%ADD15C,3.600000*%
%ADD16C,1.600000*%
%ADD17R,1.600000X1.600000*%
%ADD18R,1.060000X0.650000*%
%ADD19O,1.700000X1.700000*%
%ADD20R,1.700000X1.700000*%
%ADD21O,0.800000X0.800000*%
%ADD22O,1.150000X1.800000*%
%ADD23O,1.450000X2.000000*%
%ADD24R,0.450000X1.300000*%
%ADD25R,1.200000X0.900000*%
%ADD26R,1.400000X1.200000*%
%ADD27O,3.960000X1.980000*%
%ADD28R,3.960000X1.980000*%
%ADD29R,4.600000X0.800000*%
%ADD30R,9.400000X10.800000*%
G04 APERTURE END LIST*
D10*
X147850000Y-83450000D02*
G75*
G03*
X147850000Y-83450000I-400000J0D01*
G01*
X118000000Y-80500000D02*
G75*
G03*
X118000000Y-80500000I-400000J0D01*
G01*
X115469047Y-45321428D02*
X116230952Y-45321428D01*
X115850000Y-45702380D02*
X115850000Y-44940476D01*
X105319047Y-45371428D02*
X106080952Y-45371428D01*
D11*
%TO.C,JP1*%
X117750000Y-58650000D03*
X117750000Y-57350000D03*
%TD*%
%TO.C,C56*%
G36*
G01*
X91300000Y-55050000D02*
X90800000Y-55050000D01*
G75*
G02*
X90575000Y-54825000I0J225000D01*
G01*
X90575000Y-54375000D01*
G75*
G02*
X90800000Y-54150000I225000J0D01*
G01*
X91300000Y-54150000D01*
G75*
G02*
X91525000Y-54375000I0J-225000D01*
G01*
X91525000Y-54825000D01*
G75*
G02*
X91300000Y-55050000I-225000J0D01*
G01*
G37*
G36*
G01*
X91300000Y-56600000D02*
X90800000Y-56600000D01*
G75*
G02*
X90575000Y-56375000I0J225000D01*
G01*
X90575000Y-55925000D01*
G75*
G02*
X90800000Y-55700000I225000J0D01*
G01*
X91300000Y-55700000D01*
G75*
G02*
X91525000Y-55925000I0J-225000D01*
G01*
X91525000Y-56375000D01*
G75*
G02*
X91300000Y-56600000I-225000J0D01*
G01*
G37*
%TD*%
%TO.C,C55*%
G36*
G01*
X92800000Y-55000000D02*
X92300000Y-55000000D01*
G75*
G02*
X92075000Y-54775000I0J225000D01*
G01*
X92075000Y-54325000D01*
G75*
G02*
X92300000Y-54100000I225000J0D01*
G01*
X92800000Y-54100000D01*
G75*
G02*
X93025000Y-54325000I0J-225000D01*
G01*
X93025000Y-54775000D01*
G75*
G02*
X92800000Y-55000000I-225000J0D01*
G01*
G37*
G36*
G01*
X92800000Y-56550000D02*
X92300000Y-56550000D01*
G75*
G02*
X92075000Y-56325000I0J225000D01*
G01*
X92075000Y-55875000D01*
G75*
G02*
X92300000Y-55650000I225000J0D01*
G01*
X92800000Y-55650000D01*
G75*
G02*
X93025000Y-55875000I0J-225000D01*
G01*
X93025000Y-56325000D01*
G75*
G02*
X92800000Y-56550000I-225000J0D01*
G01*
G37*
%TD*%
%TO.C,C54*%
G36*
G01*
X84325000Y-57950000D02*
X84325000Y-57450000D01*
G75*
G02*
X84550000Y-57225000I225000J0D01*
G01*
X85000000Y-57225000D01*
G75*
G02*
X85225000Y-57450000I0J-225000D01*
G01*
X85225000Y-57950000D01*
G75*
G02*
X85000000Y-58175000I-225000J0D01*
G01*
X84550000Y-58175000D01*
G75*
G02*
X84325000Y-57950000I0J225000D01*
G01*
G37*
G36*
G01*
X82775000Y-57950000D02*
X82775000Y-57450000D01*
G75*
G02*
X83000000Y-57225000I225000J0D01*
G01*
X83450000Y-57225000D01*
G75*
G02*
X83675000Y-57450000I0J-225000D01*
G01*
X83675000Y-57950000D01*
G75*
G02*
X83450000Y-58175000I-225000J0D01*
G01*
X83000000Y-58175000D01*
G75*
G02*
X82775000Y-57950000I0J225000D01*
G01*
G37*
%TD*%
%TO.C,C51*%
G36*
G01*
X92100000Y-42475000D02*
X91600000Y-42475000D01*
G75*
G02*
X91375000Y-42250000I0J225000D01*
G01*
X91375000Y-41800000D01*
G75*
G02*
X91600000Y-41575000I225000J0D01*
G01*
X92100000Y-41575000D01*
G75*
G02*
X92325000Y-41800000I0J-225000D01*
G01*
X92325000Y-42250000D01*
G75*
G02*
X92100000Y-42475000I-225000J0D01*
G01*
G37*
G36*
G01*
X92100000Y-44025000D02*
X91600000Y-44025000D01*
G75*
G02*
X91375000Y-43800000I0J225000D01*
G01*
X91375000Y-43350000D01*
G75*
G02*
X91600000Y-43125000I225000J0D01*
G01*
X92100000Y-43125000D01*
G75*
G02*
X92325000Y-43350000I0J-225000D01*
G01*
X92325000Y-43800000D01*
G75*
G02*
X92100000Y-44025000I-225000J0D01*
G01*
G37*
%TD*%
%TO.C,C50*%
G36*
G01*
X93600000Y-42475000D02*
X93100000Y-42475000D01*
G75*
G02*
X92875000Y-42250000I0J225000D01*
G01*
X92875000Y-41800000D01*
G75*
G02*
X93100000Y-41575000I225000J0D01*
G01*
X93600000Y-41575000D01*
G75*
G02*
X93825000Y-41800000I0J-225000D01*
G01*
X93825000Y-42250000D01*
G75*
G02*
X93600000Y-42475000I-225000J0D01*
G01*
G37*
G36*
G01*
X93600000Y-44025000D02*
X93100000Y-44025000D01*
G75*
G02*
X92875000Y-43800000I0J225000D01*
G01*
X92875000Y-43350000D01*
G75*
G02*
X93100000Y-43125000I225000J0D01*
G01*
X93600000Y-43125000D01*
G75*
G02*
X93825000Y-43350000I0J-225000D01*
G01*
X93825000Y-43800000D01*
G75*
G02*
X93600000Y-44025000I-225000J0D01*
G01*
G37*
%TD*%
%TO.C,C49*%
G36*
G01*
X84225000Y-44500000D02*
X84225000Y-44000000D01*
G75*
G02*
X84450000Y-43775000I225000J0D01*
G01*
X84900000Y-43775000D01*
G75*
G02*
X85125000Y-44000000I0J-225000D01*
G01*
X85125000Y-44500000D01*
G75*
G02*
X84900000Y-44725000I-225000J0D01*
G01*
X84450000Y-44725000D01*
G75*
G02*
X84225000Y-44500000I0J225000D01*
G01*
G37*
G36*
G01*
X82675000Y-44500000D02*
X82675000Y-44000000D01*
G75*
G02*
X82900000Y-43775000I225000J0D01*
G01*
X83350000Y-43775000D01*
G75*
G02*
X83575000Y-44000000I0J-225000D01*
G01*
X83575000Y-44500000D01*
G75*
G02*
X83350000Y-44725000I-225000J0D01*
G01*
X82900000Y-44725000D01*
G75*
G02*
X82675000Y-44500000I0J225000D01*
G01*
G37*
%TD*%
%TO.C,C46*%
G36*
G01*
X92600000Y-32600000D02*
X93100000Y-32600000D01*
G75*
G02*
X93325000Y-32825000I0J-225000D01*
G01*
X93325000Y-33275000D01*
G75*
G02*
X93100000Y-33500000I-225000J0D01*
G01*
X92600000Y-33500000D01*
G75*
G02*
X92375000Y-33275000I0J225000D01*
G01*
X92375000Y-32825000D01*
G75*
G02*
X92600000Y-32600000I225000J0D01*
G01*
G37*
G36*
G01*
X92600000Y-31050000D02*
X93100000Y-31050000D01*
G75*
G02*
X93325000Y-31275000I0J-225000D01*
G01*
X93325000Y-31725000D01*
G75*
G02*
X93100000Y-31950000I-225000J0D01*
G01*
X92600000Y-31950000D01*
G75*
G02*
X92375000Y-31725000I0J225000D01*
G01*
X92375000Y-31275000D01*
G75*
G02*
X92600000Y-31050000I225000J0D01*
G01*
G37*
%TD*%
%TO.C,C45*%
G36*
G01*
X91100000Y-32600000D02*
X91600000Y-32600000D01*
G75*
G02*
X91825000Y-32825000I0J-225000D01*
G01*
X91825000Y-33275000D01*
G75*
G02*
X91600000Y-33500000I-225000J0D01*
G01*
X91100000Y-33500000D01*
G75*
G02*
X90875000Y-33275000I0J225000D01*
G01*
X90875000Y-32825000D01*
G75*
G02*
X91100000Y-32600000I225000J0D01*
G01*
G37*
G36*
G01*
X91100000Y-31050000D02*
X91600000Y-31050000D01*
G75*
G02*
X91825000Y-31275000I0J-225000D01*
G01*
X91825000Y-31725000D01*
G75*
G02*
X91600000Y-31950000I-225000J0D01*
G01*
X91100000Y-31950000D01*
G75*
G02*
X90875000Y-31725000I0J225000D01*
G01*
X90875000Y-31275000D01*
G75*
G02*
X91100000Y-31050000I225000J0D01*
G01*
G37*
%TD*%
%TO.C,C44*%
G36*
G01*
X83650000Y-31500000D02*
X83650000Y-31000000D01*
G75*
G02*
X83875000Y-30775000I225000J0D01*
G01*
X84325000Y-30775000D01*
G75*
G02*
X84550000Y-31000000I0J-225000D01*
G01*
X84550000Y-31500000D01*
G75*
G02*
X84325000Y-31725000I-225000J0D01*
G01*
X83875000Y-31725000D01*
G75*
G02*
X83650000Y-31500000I0J225000D01*
G01*
G37*
G36*
G01*
X82100000Y-31500000D02*
X82100000Y-31000000D01*
G75*
G02*
X82325000Y-30775000I225000J0D01*
G01*
X82775000Y-30775000D01*
G75*
G02*
X83000000Y-31000000I0J-225000D01*
G01*
X83000000Y-31500000D01*
G75*
G02*
X82775000Y-31725000I-225000J0D01*
G01*
X82325000Y-31725000D01*
G75*
G02*
X82100000Y-31500000I0J225000D01*
G01*
G37*
%TD*%
%TO.C,C38*%
G36*
G01*
X131600000Y-70700000D02*
X132100000Y-70700000D01*
G75*
G02*
X132325000Y-70925000I0J-225000D01*
G01*
X132325000Y-71375000D01*
G75*
G02*
X132100000Y-71600000I-225000J0D01*
G01*
X131600000Y-71600000D01*
G75*
G02*
X131375000Y-71375000I0J225000D01*
G01*
X131375000Y-70925000D01*
G75*
G02*
X131600000Y-70700000I225000J0D01*
G01*
G37*
G36*
G01*
X131600000Y-69150000D02*
X132100000Y-69150000D01*
G75*
G02*
X132325000Y-69375000I0J-225000D01*
G01*
X132325000Y-69825000D01*
G75*
G02*
X132100000Y-70050000I-225000J0D01*
G01*
X131600000Y-70050000D01*
G75*
G02*
X131375000Y-69825000I0J225000D01*
G01*
X131375000Y-69375000D01*
G75*
G02*
X131600000Y-69150000I225000J0D01*
G01*
G37*
%TD*%
%TO.C,C37*%
G36*
G01*
X130100000Y-70725000D02*
X130600000Y-70725000D01*
G75*
G02*
X130825000Y-70950000I0J-225000D01*
G01*
X130825000Y-71400000D01*
G75*
G02*
X130600000Y-71625000I-225000J0D01*
G01*
X130100000Y-71625000D01*
G75*
G02*
X129875000Y-71400000I0J225000D01*
G01*
X129875000Y-70950000D01*
G75*
G02*
X130100000Y-70725000I225000J0D01*
G01*
G37*
G36*
G01*
X130100000Y-69175000D02*
X130600000Y-69175000D01*
G75*
G02*
X130825000Y-69400000I0J-225000D01*
G01*
X130825000Y-69850000D01*
G75*
G02*
X130600000Y-70075000I-225000J0D01*
G01*
X130100000Y-70075000D01*
G75*
G02*
X129875000Y-69850000I0J225000D01*
G01*
X129875000Y-69400000D01*
G75*
G02*
X130100000Y-69175000I225000J0D01*
G01*
G37*
%TD*%
%TO.C,C36*%
G36*
G01*
X140055000Y-70550000D02*
X140055000Y-71050000D01*
G75*
G02*
X139830000Y-71275000I-225000J0D01*
G01*
X139380000Y-71275000D01*
G75*
G02*
X139155000Y-71050000I0J225000D01*
G01*
X139155000Y-70550000D01*
G75*
G02*
X139380000Y-70325000I225000J0D01*
G01*
X139830000Y-70325000D01*
G75*
G02*
X140055000Y-70550000I0J-225000D01*
G01*
G37*
G36*
G01*
X141605000Y-70550000D02*
X141605000Y-71050000D01*
G75*
G02*
X141380000Y-71275000I-225000J0D01*
G01*
X140930000Y-71275000D01*
G75*
G02*
X140705000Y-71050000I0J225000D01*
G01*
X140705000Y-70550000D01*
G75*
G02*
X140930000Y-70325000I225000J0D01*
G01*
X141380000Y-70325000D01*
G75*
G02*
X141605000Y-70550000I0J-225000D01*
G01*
G37*
%TD*%
%TO.C,C33*%
G36*
G01*
X130550000Y-58645000D02*
X131050000Y-58645000D01*
G75*
G02*
X131275000Y-58870000I0J-225000D01*
G01*
X131275000Y-59320000D01*
G75*
G02*
X131050000Y-59545000I-225000J0D01*
G01*
X130550000Y-59545000D01*
G75*
G02*
X130325000Y-59320000I0J225000D01*
G01*
X130325000Y-58870000D01*
G75*
G02*
X130550000Y-58645000I225000J0D01*
G01*
G37*
G36*
G01*
X130550000Y-57095000D02*
X131050000Y-57095000D01*
G75*
G02*
X131275000Y-57320000I0J-225000D01*
G01*
X131275000Y-57770000D01*
G75*
G02*
X131050000Y-57995000I-225000J0D01*
G01*
X130550000Y-57995000D01*
G75*
G02*
X130325000Y-57770000I0J225000D01*
G01*
X130325000Y-57320000D01*
G75*
G02*
X130550000Y-57095000I225000J0D01*
G01*
G37*
%TD*%
%TO.C,C32*%
G36*
G01*
X132050000Y-58625000D02*
X132550000Y-58625000D01*
G75*
G02*
X132775000Y-58850000I0J-225000D01*
G01*
X132775000Y-59300000D01*
G75*
G02*
X132550000Y-59525000I-225000J0D01*
G01*
X132050000Y-59525000D01*
G75*
G02*
X131825000Y-59300000I0J225000D01*
G01*
X131825000Y-58850000D01*
G75*
G02*
X132050000Y-58625000I225000J0D01*
G01*
G37*
G36*
G01*
X132050000Y-57075000D02*
X132550000Y-57075000D01*
G75*
G02*
X132775000Y-57300000I0J-225000D01*
G01*
X132775000Y-57750000D01*
G75*
G02*
X132550000Y-57975000I-225000J0D01*
G01*
X132050000Y-57975000D01*
G75*
G02*
X131825000Y-57750000I0J225000D01*
G01*
X131825000Y-57300000D01*
G75*
G02*
X132050000Y-57075000I225000J0D01*
G01*
G37*
%TD*%
%TO.C,C31*%
G36*
G01*
X140055000Y-56950000D02*
X140055000Y-57450000D01*
G75*
G02*
X139830000Y-57675000I-225000J0D01*
G01*
X139380000Y-57675000D01*
G75*
G02*
X139155000Y-57450000I0J225000D01*
G01*
X139155000Y-56950000D01*
G75*
G02*
X139380000Y-56725000I225000J0D01*
G01*
X139830000Y-56725000D01*
G75*
G02*
X140055000Y-56950000I0J-225000D01*
G01*
G37*
G36*
G01*
X141605000Y-56950000D02*
X141605000Y-57450000D01*
G75*
G02*
X141380000Y-57675000I-225000J0D01*
G01*
X140930000Y-57675000D01*
G75*
G02*
X140705000Y-57450000I0J225000D01*
G01*
X140705000Y-56950000D01*
G75*
G02*
X140930000Y-56725000I225000J0D01*
G01*
X141380000Y-56725000D01*
G75*
G02*
X141605000Y-56950000I0J-225000D01*
G01*
G37*
%TD*%
%TO.C,C28*%
G36*
G01*
X130525000Y-45625000D02*
X131025000Y-45625000D01*
G75*
G02*
X131250000Y-45850000I0J-225000D01*
G01*
X131250000Y-46300000D01*
G75*
G02*
X131025000Y-46525000I-225000J0D01*
G01*
X130525000Y-46525000D01*
G75*
G02*
X130300000Y-46300000I0J225000D01*
G01*
X130300000Y-45850000D01*
G75*
G02*
X130525000Y-45625000I225000J0D01*
G01*
G37*
G36*
G01*
X130525000Y-44075000D02*
X131025000Y-44075000D01*
G75*
G02*
X131250000Y-44300000I0J-225000D01*
G01*
X131250000Y-44750000D01*
G75*
G02*
X131025000Y-44975000I-225000J0D01*
G01*
X130525000Y-44975000D01*
G75*
G02*
X130300000Y-44750000I0J225000D01*
G01*
X130300000Y-44300000D01*
G75*
G02*
X130525000Y-44075000I225000J0D01*
G01*
G37*
%TD*%
%TO.C,C27*%
G36*
G01*
X132000000Y-45625000D02*
X132500000Y-45625000D01*
G75*
G02*
X132725000Y-45850000I0J-225000D01*
G01*
X132725000Y-46300000D01*
G75*
G02*
X132500000Y-46525000I-225000J0D01*
G01*
X132000000Y-46525000D01*
G75*
G02*
X131775000Y-46300000I0J225000D01*
G01*
X131775000Y-45850000D01*
G75*
G02*
X132000000Y-45625000I225000J0D01*
G01*
G37*
G36*
G01*
X132000000Y-44075000D02*
X132500000Y-44075000D01*
G75*
G02*
X132725000Y-44300000I0J-225000D01*
G01*
X132725000Y-44750000D01*
G75*
G02*
X132500000Y-44975000I-225000J0D01*
G01*
X132000000Y-44975000D01*
G75*
G02*
X131775000Y-44750000I0J225000D01*
G01*
X131775000Y-44300000D01*
G75*
G02*
X132000000Y-44075000I225000J0D01*
G01*
G37*
%TD*%
%TO.C,C26*%
G36*
G01*
X139995000Y-43850000D02*
X139995000Y-44350000D01*
G75*
G02*
X139770000Y-44575000I-225000J0D01*
G01*
X139320000Y-44575000D01*
G75*
G02*
X139095000Y-44350000I0J225000D01*
G01*
X139095000Y-43850000D01*
G75*
G02*
X139320000Y-43625000I225000J0D01*
G01*
X139770000Y-43625000D01*
G75*
G02*
X139995000Y-43850000I0J-225000D01*
G01*
G37*
G36*
G01*
X141545000Y-43850000D02*
X141545000Y-44350000D01*
G75*
G02*
X141320000Y-44575000I-225000J0D01*
G01*
X140870000Y-44575000D01*
G75*
G02*
X140645000Y-44350000I0J225000D01*
G01*
X140645000Y-43850000D01*
G75*
G02*
X140870000Y-43625000I225000J0D01*
G01*
X141320000Y-43625000D01*
G75*
G02*
X141545000Y-43850000I0J-225000D01*
G01*
G37*
%TD*%
%TO.C,R52*%
G36*
G01*
X149900000Y-83735000D02*
X149900000Y-83365000D01*
G75*
G02*
X150035000Y-83230000I135000J0D01*
G01*
X150305000Y-83230000D01*
G75*
G02*
X150440000Y-83365000I0J-135000D01*
G01*
X150440000Y-83735000D01*
G75*
G02*
X150305000Y-83870000I-135000J0D01*
G01*
X150035000Y-83870000D01*
G75*
G02*
X149900000Y-83735000I0J135000D01*
G01*
G37*
G36*
G01*
X148880000Y-83735000D02*
X148880000Y-83365000D01*
G75*
G02*
X149015000Y-83230000I135000J0D01*
G01*
X149285000Y-83230000D01*
G75*
G02*
X149420000Y-83365000I0J-135000D01*
G01*
X149420000Y-83735000D01*
G75*
G02*
X149285000Y-83870000I-135000J0D01*
G01*
X149015000Y-83870000D01*
G75*
G02*
X148880000Y-83735000I0J135000D01*
G01*
G37*
%TD*%
%TO.C,R51*%
G36*
G01*
X154150000Y-79535000D02*
X154150000Y-79165000D01*
G75*
G02*
X154285000Y-79030000I135000J0D01*
G01*
X154555000Y-79030000D01*
G75*
G02*
X154690000Y-79165000I0J-135000D01*
G01*
X154690000Y-79535000D01*
G75*
G02*
X154555000Y-79670000I-135000J0D01*
G01*
X154285000Y-79670000D01*
G75*
G02*
X154150000Y-79535000I0J135000D01*
G01*
G37*
G36*
G01*
X153130000Y-79535000D02*
X153130000Y-79165000D01*
G75*
G02*
X153265000Y-79030000I135000J0D01*
G01*
X153535000Y-79030000D01*
G75*
G02*
X153670000Y-79165000I0J-135000D01*
G01*
X153670000Y-79535000D01*
G75*
G02*
X153535000Y-79670000I-135000J0D01*
G01*
X153265000Y-79670000D01*
G75*
G02*
X153130000Y-79535000I0J135000D01*
G01*
G37*
%TD*%
%TO.C,R14*%
G36*
G01*
X75400000Y-85475001D02*
X75400000Y-84224999D01*
G75*
G02*
X75649999Y-83975000I249999J0D01*
G01*
X76275001Y-83975000D01*
G75*
G02*
X76525000Y-84224999I0J-249999D01*
G01*
X76525000Y-85475001D01*
G75*
G02*
X76275001Y-85725000I-249999J0D01*
G01*
X75649999Y-85725000D01*
G75*
G02*
X75400000Y-85475001I0J249999D01*
G01*
G37*
G36*
G01*
X72475000Y-85475001D02*
X72475000Y-84224999D01*
G75*
G02*
X72724999Y-83975000I249999J0D01*
G01*
X73350001Y-83975000D01*
G75*
G02*
X73600000Y-84224999I0J-249999D01*
G01*
X73600000Y-85475001D01*
G75*
G02*
X73350001Y-85725000I-249999J0D01*
G01*
X72724999Y-85725000D01*
G75*
G02*
X72475000Y-85475001I0J249999D01*
G01*
G37*
%TD*%
D12*
%TO.C,J11*%
X109050000Y-34500000D03*
D13*
X114050000Y-34500000D03*
%TD*%
%TO.C,R11*%
G36*
G01*
X97425000Y-86625000D02*
X97975000Y-86625000D01*
G75*
G02*
X98175000Y-86825000I0J-200000D01*
G01*
X98175000Y-87225000D01*
G75*
G02*
X97975000Y-87425000I-200000J0D01*
G01*
X97425000Y-87425000D01*
G75*
G02*
X97225000Y-87225000I0J200000D01*
G01*
X97225000Y-86825000D01*
G75*
G02*
X97425000Y-86625000I200000J0D01*
G01*
G37*
G36*
G01*
X97425000Y-88275000D02*
X97975000Y-88275000D01*
G75*
G02*
X98175000Y-88475000I0J-200000D01*
G01*
X98175000Y-88875000D01*
G75*
G02*
X97975000Y-89075000I-200000J0D01*
G01*
X97425000Y-89075000D01*
G75*
G02*
X97225000Y-88875000I0J200000D01*
G01*
X97225000Y-88475000D01*
G75*
G02*
X97425000Y-88275000I200000J0D01*
G01*
G37*
%TD*%
D14*
%TO.C,H4*%
X65400000Y-86500000D03*
D15*
X65400000Y-86500000D03*
%TD*%
D14*
%TO.C,H3*%
X158400000Y-86500000D03*
D15*
X158400000Y-86500000D03*
%TD*%
D14*
%TO.C,H2*%
X158400000Y-33500000D03*
D15*
X158400000Y-33500000D03*
%TD*%
D14*
%TO.C,H1*%
X65600000Y-33600000D03*
D15*
X65600000Y-33600000D03*
%TD*%
D16*
%TO.C,C60*%
X108350000Y-45450000D03*
D17*
X113350000Y-45450000D03*
%TD*%
%TO.C,C11*%
G36*
G01*
X114000000Y-57270000D02*
X114000000Y-56930000D01*
G75*
G02*
X114140000Y-56790000I140000J0D01*
G01*
X114420000Y-56790000D01*
G75*
G02*
X114560000Y-56930000I0J-140000D01*
G01*
X114560000Y-57270000D01*
G75*
G02*
X114420000Y-57410000I-140000J0D01*
G01*
X114140000Y-57410000D01*
G75*
G02*
X114000000Y-57270000I0J140000D01*
G01*
G37*
G36*
G01*
X113040000Y-57270000D02*
X113040000Y-56930000D01*
G75*
G02*
X113180000Y-56790000I140000J0D01*
G01*
X113460000Y-56790000D01*
G75*
G02*
X113600000Y-56930000I0J-140000D01*
G01*
X113600000Y-57270000D01*
G75*
G02*
X113460000Y-57410000I-140000J0D01*
G01*
X113180000Y-57410000D01*
G75*
G02*
X113040000Y-57270000I0J140000D01*
G01*
G37*
%TD*%
%TO.C,C59*%
G36*
G01*
X117650000Y-54070000D02*
X117650000Y-53730000D01*
G75*
G02*
X117790000Y-53590000I140000J0D01*
G01*
X118070000Y-53590000D01*
G75*
G02*
X118210000Y-53730000I0J-140000D01*
G01*
X118210000Y-54070000D01*
G75*
G02*
X118070000Y-54210000I-140000J0D01*
G01*
X117790000Y-54210000D01*
G75*
G02*
X117650000Y-54070000I0J140000D01*
G01*
G37*
G36*
G01*
X116690000Y-54070000D02*
X116690000Y-53730000D01*
G75*
G02*
X116830000Y-53590000I140000J0D01*
G01*
X117110000Y-53590000D01*
G75*
G02*
X117250000Y-53730000I0J-140000D01*
G01*
X117250000Y-54070000D01*
G75*
G02*
X117110000Y-54210000I-140000J0D01*
G01*
X116830000Y-54210000D01*
G75*
G02*
X116690000Y-54070000I0J140000D01*
G01*
G37*
%TD*%
%TO.C,C12*%
G36*
G01*
X115830000Y-56680000D02*
X116170000Y-56680000D01*
G75*
G02*
X116310000Y-56820000I0J-140000D01*
G01*
X116310000Y-57100000D01*
G75*
G02*
X116170000Y-57240000I-140000J0D01*
G01*
X115830000Y-57240000D01*
G75*
G02*
X115690000Y-57100000I0J140000D01*
G01*
X115690000Y-56820000D01*
G75*
G02*
X115830000Y-56680000I140000J0D01*
G01*
G37*
G36*
G01*
X115830000Y-55720000D02*
X116170000Y-55720000D01*
G75*
G02*
X116310000Y-55860000I0J-140000D01*
G01*
X116310000Y-56140000D01*
G75*
G02*
X116170000Y-56280000I-140000J0D01*
G01*
X115830000Y-56280000D01*
G75*
G02*
X115690000Y-56140000I0J140000D01*
G01*
X115690000Y-55860000D01*
G75*
G02*
X115830000Y-55720000I140000J0D01*
G01*
G37*
%TD*%
D18*
%TO.C,U1*%
X112500000Y-54800000D03*
X112500000Y-55750000D03*
X112500000Y-53850000D03*
X114700000Y-53850000D03*
X114700000Y-54800000D03*
X114700000Y-55750000D03*
%TD*%
%TO.C,R50*%
G36*
G01*
X115815000Y-54550000D02*
X116185000Y-54550000D01*
G75*
G02*
X116320000Y-54685000I0J-135000D01*
G01*
X116320000Y-54955000D01*
G75*
G02*
X116185000Y-55090000I-135000J0D01*
G01*
X115815000Y-55090000D01*
G75*
G02*
X115680000Y-54955000I0J135000D01*
G01*
X115680000Y-54685000D01*
G75*
G02*
X115815000Y-54550000I135000J0D01*
G01*
G37*
G36*
G01*
X115815000Y-53530000D02*
X116185000Y-53530000D01*
G75*
G02*
X116320000Y-53665000I0J-135000D01*
G01*
X116320000Y-53935000D01*
G75*
G02*
X116185000Y-54070000I-135000J0D01*
G01*
X115815000Y-54070000D01*
G75*
G02*
X115680000Y-53935000I0J135000D01*
G01*
X115680000Y-53665000D01*
G75*
G02*
X115815000Y-53530000I135000J0D01*
G01*
G37*
%TD*%
%TO.C,R49*%
G36*
G01*
X117170000Y-54715000D02*
X117170000Y-55085000D01*
G75*
G02*
X117035000Y-55220000I-135000J0D01*
G01*
X116765000Y-55220000D01*
G75*
G02*
X116630000Y-55085000I0J135000D01*
G01*
X116630000Y-54715000D01*
G75*
G02*
X116765000Y-54580000I135000J0D01*
G01*
X117035000Y-54580000D01*
G75*
G02*
X117170000Y-54715000I0J-135000D01*
G01*
G37*
G36*
G01*
X118190000Y-54715000D02*
X118190000Y-55085000D01*
G75*
G02*
X118055000Y-55220000I-135000J0D01*
G01*
X117785000Y-55220000D01*
G75*
G02*
X117650000Y-55085000I0J135000D01*
G01*
X117650000Y-54715000D01*
G75*
G02*
X117785000Y-54580000I135000J0D01*
G01*
X118055000Y-54580000D01*
G75*
G02*
X118190000Y-54715000I0J-135000D01*
G01*
G37*
%TD*%
%TO.C,R48*%
G36*
G01*
X154140000Y-81535000D02*
X154140000Y-81165000D01*
G75*
G02*
X154275000Y-81030000I135000J0D01*
G01*
X154545000Y-81030000D01*
G75*
G02*
X154680000Y-81165000I0J-135000D01*
G01*
X154680000Y-81535000D01*
G75*
G02*
X154545000Y-81670000I-135000J0D01*
G01*
X154275000Y-81670000D01*
G75*
G02*
X154140000Y-81535000I0J135000D01*
G01*
G37*
G36*
G01*
X153120000Y-81535000D02*
X153120000Y-81165000D01*
G75*
G02*
X153255000Y-81030000I135000J0D01*
G01*
X153525000Y-81030000D01*
G75*
G02*
X153660000Y-81165000I0J-135000D01*
G01*
X153660000Y-81535000D01*
G75*
G02*
X153525000Y-81670000I-135000J0D01*
G01*
X153255000Y-81670000D01*
G75*
G02*
X153120000Y-81535000I0J135000D01*
G01*
G37*
%TD*%
%TO.C,R47*%
G36*
G01*
X145740000Y-82585000D02*
X145740000Y-82215000D01*
G75*
G02*
X145875000Y-82080000I135000J0D01*
G01*
X146145000Y-82080000D01*
G75*
G02*
X146280000Y-82215000I0J-135000D01*
G01*
X146280000Y-82585000D01*
G75*
G02*
X146145000Y-82720000I-135000J0D01*
G01*
X145875000Y-82720000D01*
G75*
G02*
X145740000Y-82585000I0J135000D01*
G01*
G37*
G36*
G01*
X144720000Y-82585000D02*
X144720000Y-82215000D01*
G75*
G02*
X144855000Y-82080000I135000J0D01*
G01*
X145125000Y-82080000D01*
G75*
G02*
X145260000Y-82215000I0J-135000D01*
G01*
X145260000Y-82585000D01*
G75*
G02*
X145125000Y-82720000I-135000J0D01*
G01*
X144855000Y-82720000D01*
G75*
G02*
X144720000Y-82585000I0J135000D01*
G01*
G37*
%TD*%
%TO.C,R46*%
G36*
G01*
X145740000Y-80985000D02*
X145740000Y-80615000D01*
G75*
G02*
X145875000Y-80480000I135000J0D01*
G01*
X146145000Y-80480000D01*
G75*
G02*
X146280000Y-80615000I0J-135000D01*
G01*
X146280000Y-80985000D01*
G75*
G02*
X146145000Y-81120000I-135000J0D01*
G01*
X145875000Y-81120000D01*
G75*
G02*
X145740000Y-80985000I0J135000D01*
G01*
G37*
G36*
G01*
X144720000Y-80985000D02*
X144720000Y-80615000D01*
G75*
G02*
X144855000Y-80480000I135000J0D01*
G01*
X145125000Y-80480000D01*
G75*
G02*
X145260000Y-80615000I0J-135000D01*
G01*
X145260000Y-80985000D01*
G75*
G02*
X145125000Y-81120000I-135000J0D01*
G01*
X144855000Y-81120000D01*
G75*
G02*
X144720000Y-80985000I0J135000D01*
G01*
G37*
%TD*%
%TO.C,R45*%
G36*
G01*
X110460000Y-53615000D02*
X110460000Y-53985000D01*
G75*
G02*
X110325000Y-54120000I-135000J0D01*
G01*
X110055000Y-54120000D01*
G75*
G02*
X109920000Y-53985000I0J135000D01*
G01*
X109920000Y-53615000D01*
G75*
G02*
X110055000Y-53480000I135000J0D01*
G01*
X110325000Y-53480000D01*
G75*
G02*
X110460000Y-53615000I0J-135000D01*
G01*
G37*
G36*
G01*
X111480000Y-53615000D02*
X111480000Y-53985000D01*
G75*
G02*
X111345000Y-54120000I-135000J0D01*
G01*
X111075000Y-54120000D01*
G75*
G02*
X110940000Y-53985000I0J135000D01*
G01*
X110940000Y-53615000D01*
G75*
G02*
X111075000Y-53480000I135000J0D01*
G01*
X111345000Y-53480000D01*
G75*
G02*
X111480000Y-53615000I0J-135000D01*
G01*
G37*
%TD*%
%TO.C,L1*%
G36*
G01*
X108925000Y-58275000D02*
X111075000Y-58275000D01*
G75*
G02*
X111325000Y-58525000I0J-250000D01*
G01*
X111325000Y-59275000D01*
G75*
G02*
X111075000Y-59525000I-250000J0D01*
G01*
X108925000Y-59525000D01*
G75*
G02*
X108675000Y-59275000I0J250000D01*
G01*
X108675000Y-58525000D01*
G75*
G02*
X108925000Y-58275000I250000J0D01*
G01*
G37*
G36*
G01*
X108925000Y-55475000D02*
X111075000Y-55475000D01*
G75*
G02*
X111325000Y-55725000I0J-250000D01*
G01*
X111325000Y-56475000D01*
G75*
G02*
X111075000Y-56725000I-250000J0D01*
G01*
X108925000Y-56725000D01*
G75*
G02*
X108675000Y-56475000I0J250000D01*
G01*
X108675000Y-55725000D01*
G75*
G02*
X108925000Y-55475000I250000J0D01*
G01*
G37*
%TD*%
D19*
%TO.C,J12*%
X153320000Y-87650000D03*
X150780000Y-87650000D03*
X148240000Y-87650000D03*
D20*
X145700000Y-87650000D03*
%TD*%
D21*
%TO.C,J3*%
X115500000Y-91300000D03*
X110500000Y-91300000D03*
D22*
X116875000Y-94050000D03*
X109125000Y-94050000D03*
D23*
X116725000Y-90250000D03*
X109275000Y-90250000D03*
D24*
X114300000Y-90200000D03*
X113650000Y-90200000D03*
X113000000Y-90200000D03*
X112350000Y-90200000D03*
X111700000Y-90200000D03*
%TD*%
D25*
%TO.C,D5*%
X107100000Y-52900000D03*
X107100000Y-56200000D03*
%TD*%
%TO.C,C61*%
G36*
G01*
X153580000Y-82520000D02*
X153580000Y-82180000D01*
G75*
G02*
X153720000Y-82040000I140000J0D01*
G01*
X154000000Y-82040000D01*
G75*
G02*
X154140000Y-82180000I0J-140000D01*
G01*
X154140000Y-82520000D01*
G75*
G02*
X154000000Y-82660000I-140000J0D01*
G01*
X153720000Y-82660000D01*
G75*
G02*
X153580000Y-82520000I0J140000D01*
G01*
G37*
G36*
G01*
X152620000Y-82520000D02*
X152620000Y-82180000D01*
G75*
G02*
X152760000Y-82040000I140000J0D01*
G01*
X153040000Y-82040000D01*
G75*
G02*
X153180000Y-82180000I0J-140000D01*
G01*
X153180000Y-82520000D01*
G75*
G02*
X153040000Y-82660000I-140000J0D01*
G01*
X152760000Y-82660000D01*
G75*
G02*
X152620000Y-82520000I0J140000D01*
G01*
G37*
%TD*%
%TO.C,C13*%
G36*
G01*
X110400000Y-52775000D02*
X110400000Y-51825000D01*
G75*
G02*
X110650000Y-51575000I250000J0D01*
G01*
X111150000Y-51575000D01*
G75*
G02*
X111400000Y-51825000I0J-250000D01*
G01*
X111400000Y-52775000D01*
G75*
G02*
X111150000Y-53025000I-250000J0D01*
G01*
X110650000Y-53025000D01*
G75*
G02*
X110400000Y-52775000I0J250000D01*
G01*
G37*
G36*
G01*
X108500000Y-52775000D02*
X108500000Y-51825000D01*
G75*
G02*
X108750000Y-51575000I250000J0D01*
G01*
X109250000Y-51575000D01*
G75*
G02*
X109500000Y-51825000I0J-250000D01*
G01*
X109500000Y-52775000D01*
G75*
G02*
X109250000Y-53025000I-250000J0D01*
G01*
X108750000Y-53025000D01*
G75*
G02*
X108500000Y-52775000I0J250000D01*
G01*
G37*
%TD*%
%TO.C,C1*%
G36*
G01*
X119800000Y-82150000D02*
X119300000Y-82150000D01*
G75*
G02*
X119075000Y-81925000I0J225000D01*
G01*
X119075000Y-81475000D01*
G75*
G02*
X119300000Y-81250000I225000J0D01*
G01*
X119800000Y-81250000D01*
G75*
G02*
X120025000Y-81475000I0J-225000D01*
G01*
X120025000Y-81925000D01*
G75*
G02*
X119800000Y-82150000I-225000J0D01*
G01*
G37*
G36*
G01*
X119800000Y-83700000D02*
X119300000Y-83700000D01*
G75*
G02*
X119075000Y-83475000I0J225000D01*
G01*
X119075000Y-83025000D01*
G75*
G02*
X119300000Y-82800000I225000J0D01*
G01*
X119800000Y-82800000D01*
G75*
G02*
X120025000Y-83025000I0J-225000D01*
G01*
X120025000Y-83475000D01*
G75*
G02*
X119800000Y-83700000I-225000J0D01*
G01*
G37*
%TD*%
%TO.C,C2*%
G36*
G01*
X113920000Y-66430000D02*
X113920000Y-66770000D01*
G75*
G02*
X113780000Y-66910000I-140000J0D01*
G01*
X113500000Y-66910000D01*
G75*
G02*
X113360000Y-66770000I0J140000D01*
G01*
X113360000Y-66430000D01*
G75*
G02*
X113500000Y-66290000I140000J0D01*
G01*
X113780000Y-66290000D01*
G75*
G02*
X113920000Y-66430000I0J-140000D01*
G01*
G37*
G36*
G01*
X114880000Y-66430000D02*
X114880000Y-66770000D01*
G75*
G02*
X114740000Y-66910000I-140000J0D01*
G01*
X114460000Y-66910000D01*
G75*
G02*
X114320000Y-66770000I0J140000D01*
G01*
X114320000Y-66430000D01*
G75*
G02*
X114460000Y-66290000I140000J0D01*
G01*
X114740000Y-66290000D01*
G75*
G02*
X114880000Y-66430000I0J-140000D01*
G01*
G37*
%TD*%
%TO.C,C3*%
G36*
G01*
X114880000Y-67430000D02*
X114880000Y-67770000D01*
G75*
G02*
X114740000Y-67910000I-140000J0D01*
G01*
X114460000Y-67910000D01*
G75*
G02*
X114320000Y-67770000I0J140000D01*
G01*
X114320000Y-67430000D01*
G75*
G02*
X114460000Y-67290000I140000J0D01*
G01*
X114740000Y-67290000D01*
G75*
G02*
X114880000Y-67430000I0J-140000D01*
G01*
G37*
G36*
G01*
X113920000Y-67430000D02*
X113920000Y-67770000D01*
G75*
G02*
X113780000Y-67910000I-140000J0D01*
G01*
X113500000Y-67910000D01*
G75*
G02*
X113360000Y-67770000I0J140000D01*
G01*
X113360000Y-67430000D01*
G75*
G02*
X113500000Y-67290000I140000J0D01*
G01*
X113780000Y-67290000D01*
G75*
G02*
X113920000Y-67430000I0J-140000D01*
G01*
G37*
%TD*%
%TO.C,C4*%
G36*
G01*
X115970000Y-82940000D02*
X115630000Y-82940000D01*
G75*
G02*
X115490000Y-82800000I0J140000D01*
G01*
X115490000Y-82520000D01*
G75*
G02*
X115630000Y-82380000I140000J0D01*
G01*
X115970000Y-82380000D01*
G75*
G02*
X116110000Y-82520000I0J-140000D01*
G01*
X116110000Y-82800000D01*
G75*
G02*
X115970000Y-82940000I-140000J0D01*
G01*
G37*
G36*
G01*
X115970000Y-81980000D02*
X115630000Y-81980000D01*
G75*
G02*
X115490000Y-81840000I0J140000D01*
G01*
X115490000Y-81560000D01*
G75*
G02*
X115630000Y-81420000I140000J0D01*
G01*
X115970000Y-81420000D01*
G75*
G02*
X116110000Y-81560000I0J-140000D01*
G01*
X116110000Y-81840000D01*
G75*
G02*
X115970000Y-81980000I-140000J0D01*
G01*
G37*
%TD*%
%TO.C,C5*%
G36*
G01*
X102570000Y-81810000D02*
X102230000Y-81810000D01*
G75*
G02*
X102090000Y-81670000I0J140000D01*
G01*
X102090000Y-81390000D01*
G75*
G02*
X102230000Y-81250000I140000J0D01*
G01*
X102570000Y-81250000D01*
G75*
G02*
X102710000Y-81390000I0J-140000D01*
G01*
X102710000Y-81670000D01*
G75*
G02*
X102570000Y-81810000I-140000J0D01*
G01*
G37*
G36*
G01*
X102570000Y-80850000D02*
X102230000Y-80850000D01*
G75*
G02*
X102090000Y-80710000I0J140000D01*
G01*
X102090000Y-80430000D01*
G75*
G02*
X102230000Y-80290000I140000J0D01*
G01*
X102570000Y-80290000D01*
G75*
G02*
X102710000Y-80430000I0J-140000D01*
G01*
X102710000Y-80710000D01*
G75*
G02*
X102570000Y-80850000I-140000J0D01*
G01*
G37*
%TD*%
%TO.C,C6*%
G36*
G01*
X118470000Y-82180000D02*
X118130000Y-82180000D01*
G75*
G02*
X117990000Y-82040000I0J140000D01*
G01*
X117990000Y-81760000D01*
G75*
G02*
X118130000Y-81620000I140000J0D01*
G01*
X118470000Y-81620000D01*
G75*
G02*
X118610000Y-81760000I0J-140000D01*
G01*
X118610000Y-82040000D01*
G75*
G02*
X118470000Y-82180000I-140000J0D01*
G01*
G37*
G36*
G01*
X118470000Y-83140000D02*
X118130000Y-83140000D01*
G75*
G02*
X117990000Y-83000000I0J140000D01*
G01*
X117990000Y-82720000D01*
G75*
G02*
X118130000Y-82580000I140000J0D01*
G01*
X118470000Y-82580000D01*
G75*
G02*
X118610000Y-82720000I0J-140000D01*
G01*
X118610000Y-83000000D01*
G75*
G02*
X118470000Y-83140000I-140000J0D01*
G01*
G37*
%TD*%
%TO.C,C7*%
G36*
G01*
X103570000Y-81810000D02*
X103230000Y-81810000D01*
G75*
G02*
X103090000Y-81670000I0J140000D01*
G01*
X103090000Y-81390000D01*
G75*
G02*
X103230000Y-81250000I140000J0D01*
G01*
X103570000Y-81250000D01*
G75*
G02*
X103710000Y-81390000I0J-140000D01*
G01*
X103710000Y-81670000D01*
G75*
G02*
X103570000Y-81810000I-140000J0D01*
G01*
G37*
G36*
G01*
X103570000Y-80850000D02*
X103230000Y-80850000D01*
G75*
G02*
X103090000Y-80710000I0J140000D01*
G01*
X103090000Y-80430000D01*
G75*
G02*
X103230000Y-80290000I140000J0D01*
G01*
X103570000Y-80290000D01*
G75*
G02*
X103710000Y-80430000I0J-140000D01*
G01*
X103710000Y-80710000D01*
G75*
G02*
X103570000Y-80850000I-140000J0D01*
G01*
G37*
%TD*%
%TO.C,C8*%
G36*
G01*
X105040000Y-70170000D02*
X105040000Y-69830000D01*
G75*
G02*
X105180000Y-69690000I140000J0D01*
G01*
X105460000Y-69690000D01*
G75*
G02*
X105600000Y-69830000I0J-140000D01*
G01*
X105600000Y-70170000D01*
G75*
G02*
X105460000Y-70310000I-140000J0D01*
G01*
X105180000Y-70310000D01*
G75*
G02*
X105040000Y-70170000I0J140000D01*
G01*
G37*
G36*
G01*
X106000000Y-70170000D02*
X106000000Y-69830000D01*
G75*
G02*
X106140000Y-69690000I140000J0D01*
G01*
X106420000Y-69690000D01*
G75*
G02*
X106560000Y-69830000I0J-140000D01*
G01*
X106560000Y-70170000D01*
G75*
G02*
X106420000Y-70310000I-140000J0D01*
G01*
X106140000Y-70310000D01*
G75*
G02*
X106000000Y-70170000I0J140000D01*
G01*
G37*
%TD*%
%TO.C,C9*%
G36*
G01*
X116970000Y-82940000D02*
X116630000Y-82940000D01*
G75*
G02*
X116490000Y-82800000I0J140000D01*
G01*
X116490000Y-82520000D01*
G75*
G02*
X116630000Y-82380000I140000J0D01*
G01*
X116970000Y-82380000D01*
G75*
G02*
X117110000Y-82520000I0J-140000D01*
G01*
X117110000Y-82800000D01*
G75*
G02*
X116970000Y-82940000I-140000J0D01*
G01*
G37*
G36*
G01*
X116970000Y-81980000D02*
X116630000Y-81980000D01*
G75*
G02*
X116490000Y-81840000I0J140000D01*
G01*
X116490000Y-81560000D01*
G75*
G02*
X116630000Y-81420000I140000J0D01*
G01*
X116970000Y-81420000D01*
G75*
G02*
X117110000Y-81560000I0J-140000D01*
G01*
X117110000Y-81840000D01*
G75*
G02*
X116970000Y-81980000I-140000J0D01*
G01*
G37*
%TD*%
%TO.C,C10*%
G36*
G01*
X106020000Y-69170000D02*
X106020000Y-68830000D01*
G75*
G02*
X106160000Y-68690000I140000J0D01*
G01*
X106440000Y-68690000D01*
G75*
G02*
X106580000Y-68830000I0J-140000D01*
G01*
X106580000Y-69170000D01*
G75*
G02*
X106440000Y-69310000I-140000J0D01*
G01*
X106160000Y-69310000D01*
G75*
G02*
X106020000Y-69170000I0J140000D01*
G01*
G37*
G36*
G01*
X105060000Y-69170000D02*
X105060000Y-68830000D01*
G75*
G02*
X105200000Y-68690000I140000J0D01*
G01*
X105480000Y-68690000D01*
G75*
G02*
X105620000Y-68830000I0J-140000D01*
G01*
X105620000Y-69170000D01*
G75*
G02*
X105480000Y-69310000I-140000J0D01*
G01*
X105200000Y-69310000D01*
G75*
G02*
X105060000Y-69170000I0J140000D01*
G01*
G37*
%TD*%
%TO.C,C14*%
G36*
G01*
X123280000Y-72330000D02*
X123280000Y-72670000D01*
G75*
G02*
X123140000Y-72810000I-140000J0D01*
G01*
X122860000Y-72810000D01*
G75*
G02*
X122720000Y-72670000I0J140000D01*
G01*
X122720000Y-72330000D01*
G75*
G02*
X122860000Y-72190000I140000J0D01*
G01*
X123140000Y-72190000D01*
G75*
G02*
X123280000Y-72330000I0J-140000D01*
G01*
G37*
G36*
G01*
X124240000Y-72330000D02*
X124240000Y-72670000D01*
G75*
G02*
X124100000Y-72810000I-140000J0D01*
G01*
X123820000Y-72810000D01*
G75*
G02*
X123680000Y-72670000I0J140000D01*
G01*
X123680000Y-72330000D01*
G75*
G02*
X123820000Y-72190000I140000J0D01*
G01*
X124100000Y-72190000D01*
G75*
G02*
X124240000Y-72330000I0J-140000D01*
G01*
G37*
%TD*%
%TO.C,C15*%
G36*
G01*
X123280000Y-71330000D02*
X123280000Y-71670000D01*
G75*
G02*
X123140000Y-71810000I-140000J0D01*
G01*
X122860000Y-71810000D01*
G75*
G02*
X122720000Y-71670000I0J140000D01*
G01*
X122720000Y-71330000D01*
G75*
G02*
X122860000Y-71190000I140000J0D01*
G01*
X123140000Y-71190000D01*
G75*
G02*
X123280000Y-71330000I0J-140000D01*
G01*
G37*
G36*
G01*
X124240000Y-71330000D02*
X124240000Y-71670000D01*
G75*
G02*
X124100000Y-71810000I-140000J0D01*
G01*
X123820000Y-71810000D01*
G75*
G02*
X123680000Y-71670000I0J140000D01*
G01*
X123680000Y-71330000D01*
G75*
G02*
X123820000Y-71190000I140000J0D01*
G01*
X124100000Y-71190000D01*
G75*
G02*
X124240000Y-71330000I0J-140000D01*
G01*
G37*
%TD*%
%TO.C,C16*%
G36*
G01*
X121970000Y-78680000D02*
X121630000Y-78680000D01*
G75*
G02*
X121490000Y-78540000I0J140000D01*
G01*
X121490000Y-78260000D01*
G75*
G02*
X121630000Y-78120000I140000J0D01*
G01*
X121970000Y-78120000D01*
G75*
G02*
X122110000Y-78260000I0J-140000D01*
G01*
X122110000Y-78540000D01*
G75*
G02*
X121970000Y-78680000I-140000J0D01*
G01*
G37*
G36*
G01*
X121970000Y-77720000D02*
X121630000Y-77720000D01*
G75*
G02*
X121490000Y-77580000I0J140000D01*
G01*
X121490000Y-77300000D01*
G75*
G02*
X121630000Y-77160000I140000J0D01*
G01*
X121970000Y-77160000D01*
G75*
G02*
X122110000Y-77300000I0J-140000D01*
G01*
X122110000Y-77580000D01*
G75*
G02*
X121970000Y-77720000I-140000J0D01*
G01*
G37*
%TD*%
%TO.C,C17*%
G36*
G01*
X125090000Y-75770000D02*
X125090000Y-75430000D01*
G75*
G02*
X125230000Y-75290000I140000J0D01*
G01*
X125510000Y-75290000D01*
G75*
G02*
X125650000Y-75430000I0J-140000D01*
G01*
X125650000Y-75770000D01*
G75*
G02*
X125510000Y-75910000I-140000J0D01*
G01*
X125230000Y-75910000D01*
G75*
G02*
X125090000Y-75770000I0J140000D01*
G01*
G37*
G36*
G01*
X126050000Y-75770000D02*
X126050000Y-75430000D01*
G75*
G02*
X126190000Y-75290000I140000J0D01*
G01*
X126470000Y-75290000D01*
G75*
G02*
X126610000Y-75430000I0J-140000D01*
G01*
X126610000Y-75770000D01*
G75*
G02*
X126470000Y-75910000I-140000J0D01*
G01*
X126190000Y-75910000D01*
G75*
G02*
X126050000Y-75770000I0J140000D01*
G01*
G37*
%TD*%
%TO.C,C18*%
G36*
G01*
X112980000Y-85470000D02*
X113320000Y-85470000D01*
G75*
G02*
X113460000Y-85610000I0J-140000D01*
G01*
X113460000Y-85890000D01*
G75*
G02*
X113320000Y-86030000I-140000J0D01*
G01*
X112980000Y-86030000D01*
G75*
G02*
X112840000Y-85890000I0J140000D01*
G01*
X112840000Y-85610000D01*
G75*
G02*
X112980000Y-85470000I140000J0D01*
G01*
G37*
G36*
G01*
X112980000Y-84510000D02*
X113320000Y-84510000D01*
G75*
G02*
X113460000Y-84650000I0J-140000D01*
G01*
X113460000Y-84930000D01*
G75*
G02*
X113320000Y-85070000I-140000J0D01*
G01*
X112980000Y-85070000D01*
G75*
G02*
X112840000Y-84930000I0J140000D01*
G01*
X112840000Y-84650000D01*
G75*
G02*
X112980000Y-84510000I140000J0D01*
G01*
G37*
%TD*%
%TO.C,C19*%
G36*
G01*
X75950000Y-75250000D02*
X75950000Y-75750000D01*
G75*
G02*
X75725000Y-75975000I-225000J0D01*
G01*
X75275000Y-75975000D01*
G75*
G02*
X75050000Y-75750000I0J225000D01*
G01*
X75050000Y-75250000D01*
G75*
G02*
X75275000Y-75025000I225000J0D01*
G01*
X75725000Y-75025000D01*
G75*
G02*
X75950000Y-75250000I0J-225000D01*
G01*
G37*
G36*
G01*
X74400000Y-75250000D02*
X74400000Y-75750000D01*
G75*
G02*
X74175000Y-75975000I-225000J0D01*
G01*
X73725000Y-75975000D01*
G75*
G02*
X73500000Y-75750000I0J225000D01*
G01*
X73500000Y-75250000D01*
G75*
G02*
X73725000Y-75025000I225000J0D01*
G01*
X74175000Y-75025000D01*
G75*
G02*
X74400000Y-75250000I0J-225000D01*
G01*
G37*
%TD*%
%TO.C,C20*%
G36*
G01*
X118590000Y-76420000D02*
X118590000Y-76080000D01*
G75*
G02*
X118730000Y-75940000I140000J0D01*
G01*
X119010000Y-75940000D01*
G75*
G02*
X119150000Y-76080000I0J-140000D01*
G01*
X119150000Y-76420000D01*
G75*
G02*
X119010000Y-76560000I-140000J0D01*
G01*
X118730000Y-76560000D01*
G75*
G02*
X118590000Y-76420000I0J140000D01*
G01*
G37*
G36*
G01*
X119550000Y-76420000D02*
X119550000Y-76080000D01*
G75*
G02*
X119690000Y-75940000I140000J0D01*
G01*
X119970000Y-75940000D01*
G75*
G02*
X120110000Y-76080000I0J-140000D01*
G01*
X120110000Y-76420000D01*
G75*
G02*
X119970000Y-76560000I-140000J0D01*
G01*
X119690000Y-76560000D01*
G75*
G02*
X119550000Y-76420000I0J140000D01*
G01*
G37*
%TD*%
%TO.C,C21*%
G36*
G01*
X70550000Y-85625000D02*
X70050000Y-85625000D01*
G75*
G02*
X69825000Y-85400000I0J225000D01*
G01*
X69825000Y-84950000D01*
G75*
G02*
X70050000Y-84725000I225000J0D01*
G01*
X70550000Y-84725000D01*
G75*
G02*
X70775000Y-84950000I0J-225000D01*
G01*
X70775000Y-85400000D01*
G75*
G02*
X70550000Y-85625000I-225000J0D01*
G01*
G37*
G36*
G01*
X70550000Y-84075000D02*
X70050000Y-84075000D01*
G75*
G02*
X69825000Y-83850000I0J225000D01*
G01*
X69825000Y-83400000D01*
G75*
G02*
X70050000Y-83175000I225000J0D01*
G01*
X70550000Y-83175000D01*
G75*
G02*
X70775000Y-83400000I0J-225000D01*
G01*
X70775000Y-83850000D01*
G75*
G02*
X70550000Y-84075000I-225000J0D01*
G01*
G37*
%TD*%
%TO.C,C22*%
G36*
G01*
X107050000Y-66550000D02*
X107050000Y-67050000D01*
G75*
G02*
X106825000Y-67275000I-225000J0D01*
G01*
X106375000Y-67275000D01*
G75*
G02*
X106150000Y-67050000I0J225000D01*
G01*
X106150000Y-66550000D01*
G75*
G02*
X106375000Y-66325000I225000J0D01*
G01*
X106825000Y-66325000D01*
G75*
G02*
X107050000Y-66550000I0J-225000D01*
G01*
G37*
G36*
G01*
X105500000Y-66550000D02*
X105500000Y-67050000D01*
G75*
G02*
X105275000Y-67275000I-225000J0D01*
G01*
X104825000Y-67275000D01*
G75*
G02*
X104600000Y-67050000I0J225000D01*
G01*
X104600000Y-66550000D01*
G75*
G02*
X104825000Y-66325000I225000J0D01*
G01*
X105275000Y-66325000D01*
G75*
G02*
X105500000Y-66550000I0J-225000D01*
G01*
G37*
%TD*%
%TO.C,C23*%
G36*
G01*
X101075000Y-78850000D02*
X101075000Y-79350000D01*
G75*
G02*
X100850000Y-79575000I-225000J0D01*
G01*
X100400000Y-79575000D01*
G75*
G02*
X100175000Y-79350000I0J225000D01*
G01*
X100175000Y-78850000D01*
G75*
G02*
X100400000Y-78625000I225000J0D01*
G01*
X100850000Y-78625000D01*
G75*
G02*
X101075000Y-78850000I0J-225000D01*
G01*
G37*
G36*
G01*
X102625000Y-78850000D02*
X102625000Y-79350000D01*
G75*
G02*
X102400000Y-79575000I-225000J0D01*
G01*
X101950000Y-79575000D01*
G75*
G02*
X101725000Y-79350000I0J225000D01*
G01*
X101725000Y-78850000D01*
G75*
G02*
X101950000Y-78625000I225000J0D01*
G01*
X102400000Y-78625000D01*
G75*
G02*
X102625000Y-78850000I0J-225000D01*
G01*
G37*
%TD*%
%TO.C,C24*%
G36*
G01*
X112350000Y-62900000D02*
X112850000Y-62900000D01*
G75*
G02*
X113075000Y-63125000I0J-225000D01*
G01*
X113075000Y-63575000D01*
G75*
G02*
X112850000Y-63800000I-225000J0D01*
G01*
X112350000Y-63800000D01*
G75*
G02*
X112125000Y-63575000I0J225000D01*
G01*
X112125000Y-63125000D01*
G75*
G02*
X112350000Y-62900000I225000J0D01*
G01*
G37*
G36*
G01*
X112350000Y-61350000D02*
X112850000Y-61350000D01*
G75*
G02*
X113075000Y-61575000I0J-225000D01*
G01*
X113075000Y-62025000D01*
G75*
G02*
X112850000Y-62250000I-225000J0D01*
G01*
X112350000Y-62250000D01*
G75*
G02*
X112125000Y-62025000I0J225000D01*
G01*
X112125000Y-61575000D01*
G75*
G02*
X112350000Y-61350000I225000J0D01*
G01*
G37*
%TD*%
%TO.C,C25*%
G36*
G01*
X81970000Y-85760000D02*
X81630000Y-85760000D01*
G75*
G02*
X81490000Y-85620000I0J140000D01*
G01*
X81490000Y-85340000D01*
G75*
G02*
X81630000Y-85200000I140000J0D01*
G01*
X81970000Y-85200000D01*
G75*
G02*
X82110000Y-85340000I0J-140000D01*
G01*
X82110000Y-85620000D01*
G75*
G02*
X81970000Y-85760000I-140000J0D01*
G01*
G37*
G36*
G01*
X81970000Y-84800000D02*
X81630000Y-84800000D01*
G75*
G02*
X81490000Y-84660000I0J140000D01*
G01*
X81490000Y-84380000D01*
G75*
G02*
X81630000Y-84240000I140000J0D01*
G01*
X81970000Y-84240000D01*
G75*
G02*
X82110000Y-84380000I0J-140000D01*
G01*
X82110000Y-84660000D01*
G75*
G02*
X81970000Y-84800000I-140000J0D01*
G01*
G37*
%TD*%
%TO.C,C29*%
G36*
G01*
X131020000Y-40030000D02*
X131020000Y-40370000D01*
G75*
G02*
X130880000Y-40510000I-140000J0D01*
G01*
X130600000Y-40510000D01*
G75*
G02*
X130460000Y-40370000I0J140000D01*
G01*
X130460000Y-40030000D01*
G75*
G02*
X130600000Y-39890000I140000J0D01*
G01*
X130880000Y-39890000D01*
G75*
G02*
X131020000Y-40030000I0J-140000D01*
G01*
G37*
G36*
G01*
X131980000Y-40030000D02*
X131980000Y-40370000D01*
G75*
G02*
X131840000Y-40510000I-140000J0D01*
G01*
X131560000Y-40510000D01*
G75*
G02*
X131420000Y-40370000I0J140000D01*
G01*
X131420000Y-40030000D01*
G75*
G02*
X131560000Y-39890000I140000J0D01*
G01*
X131840000Y-39890000D01*
G75*
G02*
X131980000Y-40030000I0J-140000D01*
G01*
G37*
%TD*%
%TO.C,C30*%
G36*
G01*
X131020000Y-39030000D02*
X131020000Y-39370000D01*
G75*
G02*
X130880000Y-39510000I-140000J0D01*
G01*
X130600000Y-39510000D01*
G75*
G02*
X130460000Y-39370000I0J140000D01*
G01*
X130460000Y-39030000D01*
G75*
G02*
X130600000Y-38890000I140000J0D01*
G01*
X130880000Y-38890000D01*
G75*
G02*
X131020000Y-39030000I0J-140000D01*
G01*
G37*
G36*
G01*
X131980000Y-39030000D02*
X131980000Y-39370000D01*
G75*
G02*
X131840000Y-39510000I-140000J0D01*
G01*
X131560000Y-39510000D01*
G75*
G02*
X131420000Y-39370000I0J140000D01*
G01*
X131420000Y-39030000D01*
G75*
G02*
X131560000Y-38890000I140000J0D01*
G01*
X131840000Y-38890000D01*
G75*
G02*
X131980000Y-39030000I0J-140000D01*
G01*
G37*
%TD*%
%TO.C,C34*%
G36*
G01*
X131100000Y-53030000D02*
X131100000Y-53370000D01*
G75*
G02*
X130960000Y-53510000I-140000J0D01*
G01*
X130680000Y-53510000D01*
G75*
G02*
X130540000Y-53370000I0J140000D01*
G01*
X130540000Y-53030000D01*
G75*
G02*
X130680000Y-52890000I140000J0D01*
G01*
X130960000Y-52890000D01*
G75*
G02*
X131100000Y-53030000I0J-140000D01*
G01*
G37*
G36*
G01*
X132060000Y-53030000D02*
X132060000Y-53370000D01*
G75*
G02*
X131920000Y-53510000I-140000J0D01*
G01*
X131640000Y-53510000D01*
G75*
G02*
X131500000Y-53370000I0J140000D01*
G01*
X131500000Y-53030000D01*
G75*
G02*
X131640000Y-52890000I140000J0D01*
G01*
X131920000Y-52890000D01*
G75*
G02*
X132060000Y-53030000I0J-140000D01*
G01*
G37*
%TD*%
%TO.C,C35*%
G36*
G01*
X132060000Y-51030000D02*
X132060000Y-51370000D01*
G75*
G02*
X131920000Y-51510000I-140000J0D01*
G01*
X131640000Y-51510000D01*
G75*
G02*
X131500000Y-51370000I0J140000D01*
G01*
X131500000Y-51030000D01*
G75*
G02*
X131640000Y-50890000I140000J0D01*
G01*
X131920000Y-50890000D01*
G75*
G02*
X132060000Y-51030000I0J-140000D01*
G01*
G37*
G36*
G01*
X131100000Y-51030000D02*
X131100000Y-51370000D01*
G75*
G02*
X130960000Y-51510000I-140000J0D01*
G01*
X130680000Y-51510000D01*
G75*
G02*
X130540000Y-51370000I0J140000D01*
G01*
X130540000Y-51030000D01*
G75*
G02*
X130680000Y-50890000I140000J0D01*
G01*
X130960000Y-50890000D01*
G75*
G02*
X131100000Y-51030000I0J-140000D01*
G01*
G37*
%TD*%
%TO.C,C39*%
G36*
G01*
X132160000Y-66980000D02*
X132160000Y-67320000D01*
G75*
G02*
X132020000Y-67460000I-140000J0D01*
G01*
X131740000Y-67460000D01*
G75*
G02*
X131600000Y-67320000I0J140000D01*
G01*
X131600000Y-66980000D01*
G75*
G02*
X131740000Y-66840000I140000J0D01*
G01*
X132020000Y-66840000D01*
G75*
G02*
X132160000Y-66980000I0J-140000D01*
G01*
G37*
G36*
G01*
X131200000Y-66980000D02*
X131200000Y-67320000D01*
G75*
G02*
X131060000Y-67460000I-140000J0D01*
G01*
X130780000Y-67460000D01*
G75*
G02*
X130640000Y-67320000I0J140000D01*
G01*
X130640000Y-66980000D01*
G75*
G02*
X130780000Y-66840000I140000J0D01*
G01*
X131060000Y-66840000D01*
G75*
G02*
X131200000Y-66980000I0J-140000D01*
G01*
G37*
%TD*%
%TO.C,C40*%
G36*
G01*
X131200000Y-63980000D02*
X131200000Y-64320000D01*
G75*
G02*
X131060000Y-64460000I-140000J0D01*
G01*
X130780000Y-64460000D01*
G75*
G02*
X130640000Y-64320000I0J140000D01*
G01*
X130640000Y-63980000D01*
G75*
G02*
X130780000Y-63840000I140000J0D01*
G01*
X131060000Y-63840000D01*
G75*
G02*
X131200000Y-63980000I0J-140000D01*
G01*
G37*
G36*
G01*
X132160000Y-63980000D02*
X132160000Y-64320000D01*
G75*
G02*
X132020000Y-64460000I-140000J0D01*
G01*
X131740000Y-64460000D01*
G75*
G02*
X131600000Y-64320000I0J140000D01*
G01*
X131600000Y-63980000D01*
G75*
G02*
X131740000Y-63840000I140000J0D01*
G01*
X132020000Y-63840000D01*
G75*
G02*
X132160000Y-63980000I0J-140000D01*
G01*
G37*
%TD*%
%TO.C,C41*%
G36*
G01*
X152700000Y-77730000D02*
X152700000Y-78070000D01*
G75*
G02*
X152560000Y-78210000I-140000J0D01*
G01*
X152280000Y-78210000D01*
G75*
G02*
X152140000Y-78070000I0J140000D01*
G01*
X152140000Y-77730000D01*
G75*
G02*
X152280000Y-77590000I140000J0D01*
G01*
X152560000Y-77590000D01*
G75*
G02*
X152700000Y-77730000I0J-140000D01*
G01*
G37*
G36*
G01*
X153660000Y-77730000D02*
X153660000Y-78070000D01*
G75*
G02*
X153520000Y-78210000I-140000J0D01*
G01*
X153240000Y-78210000D01*
G75*
G02*
X153100000Y-78070000I0J140000D01*
G01*
X153100000Y-77730000D01*
G75*
G02*
X153240000Y-77590000I140000J0D01*
G01*
X153520000Y-77590000D01*
G75*
G02*
X153660000Y-77730000I0J-140000D01*
G01*
G37*
%TD*%
%TO.C,C42*%
G36*
G01*
X154660000Y-80180000D02*
X154660000Y-80520000D01*
G75*
G02*
X154520000Y-80660000I-140000J0D01*
G01*
X154240000Y-80660000D01*
G75*
G02*
X154100000Y-80520000I0J140000D01*
G01*
X154100000Y-80180000D01*
G75*
G02*
X154240000Y-80040000I140000J0D01*
G01*
X154520000Y-80040000D01*
G75*
G02*
X154660000Y-80180000I0J-140000D01*
G01*
G37*
G36*
G01*
X153700000Y-80180000D02*
X153700000Y-80520000D01*
G75*
G02*
X153560000Y-80660000I-140000J0D01*
G01*
X153280000Y-80660000D01*
G75*
G02*
X153140000Y-80520000I0J140000D01*
G01*
X153140000Y-80180000D01*
G75*
G02*
X153280000Y-80040000I140000J0D01*
G01*
X153560000Y-80040000D01*
G75*
G02*
X153700000Y-80180000I0J-140000D01*
G01*
G37*
%TD*%
%TO.C,C43*%
G36*
G01*
X145720000Y-79770000D02*
X145720000Y-79430000D01*
G75*
G02*
X145860000Y-79290000I140000J0D01*
G01*
X146140000Y-79290000D01*
G75*
G02*
X146280000Y-79430000I0J-140000D01*
G01*
X146280000Y-79770000D01*
G75*
G02*
X146140000Y-79910000I-140000J0D01*
G01*
X145860000Y-79910000D01*
G75*
G02*
X145720000Y-79770000I0J140000D01*
G01*
G37*
G36*
G01*
X144760000Y-79770000D02*
X144760000Y-79430000D01*
G75*
G02*
X144900000Y-79290000I140000J0D01*
G01*
X145180000Y-79290000D01*
G75*
G02*
X145320000Y-79430000I0J-140000D01*
G01*
X145320000Y-79770000D01*
G75*
G02*
X145180000Y-79910000I-140000J0D01*
G01*
X144900000Y-79910000D01*
G75*
G02*
X144760000Y-79770000I0J140000D01*
G01*
G37*
%TD*%
%TO.C,C47*%
G36*
G01*
X91640000Y-35370000D02*
X91640000Y-35030000D01*
G75*
G02*
X91780000Y-34890000I140000J0D01*
G01*
X92060000Y-34890000D01*
G75*
G02*
X92200000Y-35030000I0J-140000D01*
G01*
X92200000Y-35370000D01*
G75*
G02*
X92060000Y-35510000I-140000J0D01*
G01*
X91780000Y-35510000D01*
G75*
G02*
X91640000Y-35370000I0J140000D01*
G01*
G37*
G36*
G01*
X92600000Y-35370000D02*
X92600000Y-35030000D01*
G75*
G02*
X92740000Y-34890000I140000J0D01*
G01*
X93020000Y-34890000D01*
G75*
G02*
X93160000Y-35030000I0J-140000D01*
G01*
X93160000Y-35370000D01*
G75*
G02*
X93020000Y-35510000I-140000J0D01*
G01*
X92740000Y-35510000D01*
G75*
G02*
X92600000Y-35370000I0J140000D01*
G01*
G37*
%TD*%
%TO.C,C48*%
G36*
G01*
X92600000Y-38370000D02*
X92600000Y-38030000D01*
G75*
G02*
X92740000Y-37890000I140000J0D01*
G01*
X93020000Y-37890000D01*
G75*
G02*
X93160000Y-38030000I0J-140000D01*
G01*
X93160000Y-38370000D01*
G75*
G02*
X93020000Y-38510000I-140000J0D01*
G01*
X92740000Y-38510000D01*
G75*
G02*
X92600000Y-38370000I0J140000D01*
G01*
G37*
G36*
G01*
X91640000Y-38370000D02*
X91640000Y-38030000D01*
G75*
G02*
X91780000Y-37890000I140000J0D01*
G01*
X92060000Y-37890000D01*
G75*
G02*
X92200000Y-38030000I0J-140000D01*
G01*
X92200000Y-38370000D01*
G75*
G02*
X92060000Y-38510000I-140000J0D01*
G01*
X91780000Y-38510000D01*
G75*
G02*
X91640000Y-38370000I0J140000D01*
G01*
G37*
%TD*%
%TO.C,C52*%
G36*
G01*
X91690000Y-48620000D02*
X91690000Y-48280000D01*
G75*
G02*
X91830000Y-48140000I140000J0D01*
G01*
X92110000Y-48140000D01*
G75*
G02*
X92250000Y-48280000I0J-140000D01*
G01*
X92250000Y-48620000D01*
G75*
G02*
X92110000Y-48760000I-140000J0D01*
G01*
X91830000Y-48760000D01*
G75*
G02*
X91690000Y-48620000I0J140000D01*
G01*
G37*
G36*
G01*
X92650000Y-48620000D02*
X92650000Y-48280000D01*
G75*
G02*
X92790000Y-48140000I140000J0D01*
G01*
X93070000Y-48140000D01*
G75*
G02*
X93210000Y-48280000I0J-140000D01*
G01*
X93210000Y-48620000D01*
G75*
G02*
X93070000Y-48760000I-140000J0D01*
G01*
X92790000Y-48760000D01*
G75*
G02*
X92650000Y-48620000I0J140000D01*
G01*
G37*
%TD*%
%TO.C,C53*%
G36*
G01*
X91690000Y-50620000D02*
X91690000Y-50280000D01*
G75*
G02*
X91830000Y-50140000I140000J0D01*
G01*
X92110000Y-50140000D01*
G75*
G02*
X92250000Y-50280000I0J-140000D01*
G01*
X92250000Y-50620000D01*
G75*
G02*
X92110000Y-50760000I-140000J0D01*
G01*
X91830000Y-50760000D01*
G75*
G02*
X91690000Y-50620000I0J140000D01*
G01*
G37*
G36*
G01*
X92650000Y-50620000D02*
X92650000Y-50280000D01*
G75*
G02*
X92790000Y-50140000I140000J0D01*
G01*
X93070000Y-50140000D01*
G75*
G02*
X93210000Y-50280000I0J-140000D01*
G01*
X93210000Y-50620000D01*
G75*
G02*
X93070000Y-50760000I-140000J0D01*
G01*
X92790000Y-50760000D01*
G75*
G02*
X92650000Y-50620000I0J140000D01*
G01*
G37*
%TD*%
%TO.C,C57*%
G36*
G01*
X92680000Y-61070000D02*
X92680000Y-60730000D01*
G75*
G02*
X92820000Y-60590000I140000J0D01*
G01*
X93100000Y-60590000D01*
G75*
G02*
X93240000Y-60730000I0J-140000D01*
G01*
X93240000Y-61070000D01*
G75*
G02*
X93100000Y-61210000I-140000J0D01*
G01*
X92820000Y-61210000D01*
G75*
G02*
X92680000Y-61070000I0J140000D01*
G01*
G37*
G36*
G01*
X91720000Y-61070000D02*
X91720000Y-60730000D01*
G75*
G02*
X91860000Y-60590000I140000J0D01*
G01*
X92140000Y-60590000D01*
G75*
G02*
X92280000Y-60730000I0J-140000D01*
G01*
X92280000Y-61070000D01*
G75*
G02*
X92140000Y-61210000I-140000J0D01*
G01*
X91860000Y-61210000D01*
G75*
G02*
X91720000Y-61070000I0J140000D01*
G01*
G37*
%TD*%
%TO.C,C58*%
G36*
G01*
X92680000Y-64070000D02*
X92680000Y-63730000D01*
G75*
G02*
X92820000Y-63590000I140000J0D01*
G01*
X93100000Y-63590000D01*
G75*
G02*
X93240000Y-63730000I0J-140000D01*
G01*
X93240000Y-64070000D01*
G75*
G02*
X93100000Y-64210000I-140000J0D01*
G01*
X92820000Y-64210000D01*
G75*
G02*
X92680000Y-64070000I0J140000D01*
G01*
G37*
G36*
G01*
X91720000Y-64070000D02*
X91720000Y-63730000D01*
G75*
G02*
X91860000Y-63590000I140000J0D01*
G01*
X92140000Y-63590000D01*
G75*
G02*
X92280000Y-63730000I0J-140000D01*
G01*
X92280000Y-64070000D01*
G75*
G02*
X92140000Y-64210000I-140000J0D01*
G01*
X91860000Y-64210000D01*
G75*
G02*
X91720000Y-64070000I0J140000D01*
G01*
G37*
%TD*%
%TO.C,D1*%
X120400000Y-51000000D03*
X120400000Y-47700000D03*
%TD*%
%TO.C,D2*%
G36*
G01*
X99793750Y-86637500D02*
X100306250Y-86637500D01*
G75*
G02*
X100525000Y-86856250I0J-218750D01*
G01*
X100525000Y-87293750D01*
G75*
G02*
X100306250Y-87512500I-218750J0D01*
G01*
X99793750Y-87512500D01*
G75*
G02*
X99575000Y-87293750I0J218750D01*
G01*
X99575000Y-86856250D01*
G75*
G02*
X99793750Y-86637500I218750J0D01*
G01*
G37*
G36*
G01*
X99793750Y-88212500D02*
X100306250Y-88212500D01*
G75*
G02*
X100525000Y-88431250I0J-218750D01*
G01*
X100525000Y-88868750D01*
G75*
G02*
X100306250Y-89087500I-218750J0D01*
G01*
X99793750Y-89087500D01*
G75*
G02*
X99575000Y-88868750I0J218750D01*
G01*
X99575000Y-88431250D01*
G75*
G02*
X99793750Y-88212500I218750J0D01*
G01*
G37*
%TD*%
%TO.C,D3*%
G36*
G01*
X106056250Y-89075000D02*
X105543750Y-89075000D01*
G75*
G02*
X105325000Y-88856250I0J218750D01*
G01*
X105325000Y-88418750D01*
G75*
G02*
X105543750Y-88200000I218750J0D01*
G01*
X106056250Y-88200000D01*
G75*
G02*
X106275000Y-88418750I0J-218750D01*
G01*
X106275000Y-88856250D01*
G75*
G02*
X106056250Y-89075000I-218750J0D01*
G01*
G37*
G36*
G01*
X106056250Y-87500000D02*
X105543750Y-87500000D01*
G75*
G02*
X105325000Y-87281250I0J218750D01*
G01*
X105325000Y-86843750D01*
G75*
G02*
X105543750Y-86625000I218750J0D01*
G01*
X106056250Y-86625000D01*
G75*
G02*
X106275000Y-86843750I0J-218750D01*
G01*
X106275000Y-87281250D01*
G75*
G02*
X106056250Y-87500000I-218750J0D01*
G01*
G37*
%TD*%
%TO.C,D4*%
G36*
G01*
X103156250Y-87512500D02*
X102643750Y-87512500D01*
G75*
G02*
X102425000Y-87293750I0J218750D01*
G01*
X102425000Y-86856250D01*
G75*
G02*
X102643750Y-86637500I218750J0D01*
G01*
X103156250Y-86637500D01*
G75*
G02*
X103375000Y-86856250I0J-218750D01*
G01*
X103375000Y-87293750D01*
G75*
G02*
X103156250Y-87512500I-218750J0D01*
G01*
G37*
G36*
G01*
X103156250Y-89087500D02*
X102643750Y-89087500D01*
G75*
G02*
X102425000Y-88868750I0J218750D01*
G01*
X102425000Y-88431250D01*
G75*
G02*
X102643750Y-88212500I218750J0D01*
G01*
X103156250Y-88212500D01*
G75*
G02*
X103375000Y-88431250I0J-218750D01*
G01*
X103375000Y-88868750D01*
G75*
G02*
X103156250Y-89087500I-218750J0D01*
G01*
G37*
%TD*%
%TO.C,FB1*%
G36*
G01*
X114600000Y-52181250D02*
X114600000Y-51418750D01*
G75*
G02*
X114818750Y-51200000I218750J0D01*
G01*
X115256250Y-51200000D01*
G75*
G02*
X115475000Y-51418750I0J-218750D01*
G01*
X115475000Y-52181250D01*
G75*
G02*
X115256250Y-52400000I-218750J0D01*
G01*
X114818750Y-52400000D01*
G75*
G02*
X114600000Y-52181250I0J218750D01*
G01*
G37*
G36*
G01*
X116725000Y-52181250D02*
X116725000Y-51418750D01*
G75*
G02*
X116943750Y-51200000I218750J0D01*
G01*
X117381250Y-51200000D01*
G75*
G02*
X117600000Y-51418750I0J-218750D01*
G01*
X117600000Y-52181250D01*
G75*
G02*
X117381250Y-52400000I-218750J0D01*
G01*
X116943750Y-52400000D01*
G75*
G02*
X116725000Y-52181250I0J218750D01*
G01*
G37*
%TD*%
%TO.C,FB2*%
G36*
G01*
X122175000Y-69718750D02*
X122175000Y-70481250D01*
G75*
G02*
X121956250Y-70700000I-218750J0D01*
G01*
X121518750Y-70700000D01*
G75*
G02*
X121300000Y-70481250I0J218750D01*
G01*
X121300000Y-69718750D01*
G75*
G02*
X121518750Y-69500000I218750J0D01*
G01*
X121956250Y-69500000D01*
G75*
G02*
X122175000Y-69718750I0J-218750D01*
G01*
G37*
G36*
G01*
X124300000Y-69718750D02*
X124300000Y-70481250D01*
G75*
G02*
X124081250Y-70700000I-218750J0D01*
G01*
X123643750Y-70700000D01*
G75*
G02*
X123425000Y-70481250I0J218750D01*
G01*
X123425000Y-69718750D01*
G75*
G02*
X123643750Y-69500000I218750J0D01*
G01*
X124081250Y-69500000D01*
G75*
G02*
X124300000Y-69718750I0J-218750D01*
G01*
G37*
%TD*%
D26*
%TO.C,HSE1*%
X123300000Y-78750000D03*
X125500000Y-78750000D03*
X125500000Y-77050000D03*
X123300000Y-77050000D03*
%TD*%
D19*
%TO.C,J1*%
X64300000Y-65110000D03*
X64300000Y-62570000D03*
X64300000Y-60030000D03*
X64300000Y-57490000D03*
D20*
X64300000Y-54950000D03*
%TD*%
%TO.C,J2*%
X123200000Y-87650000D03*
D19*
X125740000Y-87650000D03*
X128280000Y-87650000D03*
X130820000Y-87650000D03*
%TD*%
D27*
%TO.C,J4*%
X66400000Y-40300000D03*
X66400000Y-45300000D03*
D28*
X66400000Y-50300000D03*
%TD*%
D20*
%TO.C,J5*%
X134450000Y-87650000D03*
D19*
X136990000Y-87650000D03*
X139530000Y-87650000D03*
X142070000Y-87650000D03*
%TD*%
D28*
%TO.C,J6*%
X157600000Y-50200000D03*
D27*
X157600000Y-45200000D03*
X157600000Y-40200000D03*
%TD*%
D19*
%TO.C,J7*%
X64300000Y-81450000D03*
X64300000Y-78910000D03*
X64300000Y-76370000D03*
X64300000Y-73830000D03*
X64300000Y-71290000D03*
D20*
X64300000Y-68750000D03*
%TD*%
%TO.C,J8*%
X159700000Y-81300000D03*
D19*
X159700000Y-78760000D03*
X159700000Y-76220000D03*
X159700000Y-73680000D03*
X159700000Y-71140000D03*
X159700000Y-68600000D03*
%TD*%
D20*
%TO.C,J9*%
X159700000Y-65000000D03*
D19*
X159700000Y-62460000D03*
X159700000Y-59920000D03*
X159700000Y-57380000D03*
X159700000Y-54840000D03*
%TD*%
%TO.C,J10*%
X78320000Y-87800000D03*
X75780000Y-87800000D03*
X73240000Y-87800000D03*
D20*
X70700000Y-87800000D03*
%TD*%
%TO.C,R1*%
G36*
G01*
X113570000Y-87185000D02*
X113570000Y-86815000D01*
G75*
G02*
X113705000Y-86680000I135000J0D01*
G01*
X113975000Y-86680000D01*
G75*
G02*
X114110000Y-86815000I0J-135000D01*
G01*
X114110000Y-87185000D01*
G75*
G02*
X113975000Y-87320000I-135000J0D01*
G01*
X113705000Y-87320000D01*
G75*
G02*
X113570000Y-87185000I0J135000D01*
G01*
G37*
G36*
G01*
X114590000Y-87185000D02*
X114590000Y-86815000D01*
G75*
G02*
X114725000Y-86680000I135000J0D01*
G01*
X114995000Y-86680000D01*
G75*
G02*
X115130000Y-86815000I0J-135000D01*
G01*
X115130000Y-87185000D01*
G75*
G02*
X114995000Y-87320000I-135000J0D01*
G01*
X114725000Y-87320000D01*
G75*
G02*
X114590000Y-87185000I0J135000D01*
G01*
G37*
%TD*%
%TO.C,R2*%
G36*
G01*
X112715000Y-86710000D02*
X113085000Y-86710000D01*
G75*
G02*
X113220000Y-86845000I0J-135000D01*
G01*
X113220000Y-87115000D01*
G75*
G02*
X113085000Y-87250000I-135000J0D01*
G01*
X112715000Y-87250000D01*
G75*
G02*
X112580000Y-87115000I0J135000D01*
G01*
X112580000Y-86845000D01*
G75*
G02*
X112715000Y-86710000I135000J0D01*
G01*
G37*
G36*
G01*
X112715000Y-87730000D02*
X113085000Y-87730000D01*
G75*
G02*
X113220000Y-87865000I0J-135000D01*
G01*
X113220000Y-88135000D01*
G75*
G02*
X113085000Y-88270000I-135000J0D01*
G01*
X112715000Y-88270000D01*
G75*
G02*
X112580000Y-88135000I0J135000D01*
G01*
X112580000Y-87865000D01*
G75*
G02*
X112715000Y-87730000I135000J0D01*
G01*
G37*
%TD*%
%TO.C,R3*%
G36*
G01*
X111715000Y-87750000D02*
X112085000Y-87750000D01*
G75*
G02*
X112220000Y-87885000I0J-135000D01*
G01*
X112220000Y-88155000D01*
G75*
G02*
X112085000Y-88290000I-135000J0D01*
G01*
X111715000Y-88290000D01*
G75*
G02*
X111580000Y-88155000I0J135000D01*
G01*
X111580000Y-87885000D01*
G75*
G02*
X111715000Y-87750000I135000J0D01*
G01*
G37*
G36*
G01*
X111715000Y-86730000D02*
X112085000Y-86730000D01*
G75*
G02*
X112220000Y-86865000I0J-135000D01*
G01*
X112220000Y-87135000D01*
G75*
G02*
X112085000Y-87270000I-135000J0D01*
G01*
X111715000Y-87270000D01*
G75*
G02*
X111580000Y-87135000I0J135000D01*
G01*
X111580000Y-86865000D01*
G75*
G02*
X111715000Y-86730000I135000J0D01*
G01*
G37*
%TD*%
%TO.C,R4*%
G36*
G01*
X67085000Y-63480000D02*
X66715000Y-63480000D01*
G75*
G02*
X66580000Y-63345000I0J135000D01*
G01*
X66580000Y-63075000D01*
G75*
G02*
X66715000Y-62940000I135000J0D01*
G01*
X67085000Y-62940000D01*
G75*
G02*
X67220000Y-63075000I0J-135000D01*
G01*
X67220000Y-63345000D01*
G75*
G02*
X67085000Y-63480000I-135000J0D01*
G01*
G37*
G36*
G01*
X67085000Y-62460000D02*
X66715000Y-62460000D01*
G75*
G02*
X66580000Y-62325000I0J135000D01*
G01*
X66580000Y-62055000D01*
G75*
G02*
X66715000Y-61920000I135000J0D01*
G01*
X67085000Y-61920000D01*
G75*
G02*
X67220000Y-62055000I0J-135000D01*
G01*
X67220000Y-62325000D01*
G75*
G02*
X67085000Y-62460000I-135000J0D01*
G01*
G37*
%TD*%
%TO.C,R5*%
G36*
G01*
X66715000Y-59830000D02*
X67085000Y-59830000D01*
G75*
G02*
X67220000Y-59965000I0J-135000D01*
G01*
X67220000Y-60235000D01*
G75*
G02*
X67085000Y-60370000I-135000J0D01*
G01*
X66715000Y-60370000D01*
G75*
G02*
X66580000Y-60235000I0J135000D01*
G01*
X66580000Y-59965000D01*
G75*
G02*
X66715000Y-59830000I135000J0D01*
G01*
G37*
G36*
G01*
X66715000Y-58810000D02*
X67085000Y-58810000D01*
G75*
G02*
X67220000Y-58945000I0J-135000D01*
G01*
X67220000Y-59215000D01*
G75*
G02*
X67085000Y-59350000I-135000J0D01*
G01*
X66715000Y-59350000D01*
G75*
G02*
X66580000Y-59215000I0J135000D01*
G01*
X66580000Y-58945000D01*
G75*
G02*
X66715000Y-58810000I135000J0D01*
G01*
G37*
%TD*%
%TO.C,R6*%
G36*
G01*
X67085000Y-58480000D02*
X66715000Y-58480000D01*
G75*
G02*
X66580000Y-58345000I0J135000D01*
G01*
X66580000Y-58075000D01*
G75*
G02*
X66715000Y-57940000I135000J0D01*
G01*
X67085000Y-57940000D01*
G75*
G02*
X67220000Y-58075000I0J-135000D01*
G01*
X67220000Y-58345000D01*
G75*
G02*
X67085000Y-58480000I-135000J0D01*
G01*
G37*
G36*
G01*
X67085000Y-57460000D02*
X66715000Y-57460000D01*
G75*
G02*
X66580000Y-57325000I0J135000D01*
G01*
X66580000Y-57055000D01*
G75*
G02*
X66715000Y-56920000I135000J0D01*
G01*
X67085000Y-56920000D01*
G75*
G02*
X67220000Y-57055000I0J-135000D01*
G01*
X67220000Y-57325000D01*
G75*
G02*
X67085000Y-57460000I-135000J0D01*
G01*
G37*
%TD*%
%TO.C,R7*%
G36*
G01*
X156915000Y-58240000D02*
X157285000Y-58240000D01*
G75*
G02*
X157420000Y-58375000I0J-135000D01*
G01*
X157420000Y-58645000D01*
G75*
G02*
X157285000Y-58780000I-135000J0D01*
G01*
X156915000Y-58780000D01*
G75*
G02*
X156780000Y-58645000I0J135000D01*
G01*
X156780000Y-58375000D01*
G75*
G02*
X156915000Y-58240000I135000J0D01*
G01*
G37*
G36*
G01*
X156915000Y-57220000D02*
X157285000Y-57220000D01*
G75*
G02*
X157420000Y-57355000I0J-135000D01*
G01*
X157420000Y-57625000D01*
G75*
G02*
X157285000Y-57760000I-135000J0D01*
G01*
X156915000Y-57760000D01*
G75*
G02*
X156780000Y-57625000I0J135000D01*
G01*
X156780000Y-57355000D01*
G75*
G02*
X156915000Y-57220000I135000J0D01*
G01*
G37*
%TD*%
%TO.C,R8*%
G36*
G01*
X157285000Y-60670000D02*
X156915000Y-60670000D01*
G75*
G02*
X156780000Y-60535000I0J135000D01*
G01*
X156780000Y-60265000D01*
G75*
G02*
X156915000Y-60130000I135000J0D01*
G01*
X157285000Y-60130000D01*
G75*
G02*
X157420000Y-60265000I0J-135000D01*
G01*
X157420000Y-60535000D01*
G75*
G02*
X157285000Y-60670000I-135000J0D01*
G01*
G37*
G36*
G01*
X157285000Y-59650000D02*
X156915000Y-59650000D01*
G75*
G02*
X156780000Y-59515000I0J135000D01*
G01*
X156780000Y-59245000D01*
G75*
G02*
X156915000Y-59110000I135000J0D01*
G01*
X157285000Y-59110000D01*
G75*
G02*
X157420000Y-59245000I0J-135000D01*
G01*
X157420000Y-59515000D01*
G75*
G02*
X157285000Y-59650000I-135000J0D01*
G01*
G37*
%TD*%
%TO.C,R9*%
G36*
G01*
X156915000Y-62040000D02*
X157285000Y-62040000D01*
G75*
G02*
X157420000Y-62175000I0J-135000D01*
G01*
X157420000Y-62445000D01*
G75*
G02*
X157285000Y-62580000I-135000J0D01*
G01*
X156915000Y-62580000D01*
G75*
G02*
X156780000Y-62445000I0J135000D01*
G01*
X156780000Y-62175000D01*
G75*
G02*
X156915000Y-62040000I135000J0D01*
G01*
G37*
G36*
G01*
X156915000Y-61020000D02*
X157285000Y-61020000D01*
G75*
G02*
X157420000Y-61155000I0J-135000D01*
G01*
X157420000Y-61425000D01*
G75*
G02*
X157285000Y-61560000I-135000J0D01*
G01*
X156915000Y-61560000D01*
G75*
G02*
X156780000Y-61425000I0J135000D01*
G01*
X156780000Y-61155000D01*
G75*
G02*
X156915000Y-61020000I135000J0D01*
G01*
G37*
%TD*%
%TO.C,R10*%
G36*
G01*
X123210000Y-75785000D02*
X123210000Y-75415000D01*
G75*
G02*
X123345000Y-75280000I135000J0D01*
G01*
X123615000Y-75280000D01*
G75*
G02*
X123750000Y-75415000I0J-135000D01*
G01*
X123750000Y-75785000D01*
G75*
G02*
X123615000Y-75920000I-135000J0D01*
G01*
X123345000Y-75920000D01*
G75*
G02*
X123210000Y-75785000I0J135000D01*
G01*
G37*
G36*
G01*
X124230000Y-75785000D02*
X124230000Y-75415000D01*
G75*
G02*
X124365000Y-75280000I135000J0D01*
G01*
X124635000Y-75280000D01*
G75*
G02*
X124770000Y-75415000I0J-135000D01*
G01*
X124770000Y-75785000D01*
G75*
G02*
X124635000Y-75920000I-135000J0D01*
G01*
X124365000Y-75920000D01*
G75*
G02*
X124230000Y-75785000I0J135000D01*
G01*
G37*
%TD*%
%TO.C,R12*%
G36*
G01*
X109015000Y-65440000D02*
X109385000Y-65440000D01*
G75*
G02*
X109520000Y-65575000I0J-135000D01*
G01*
X109520000Y-65845000D01*
G75*
G02*
X109385000Y-65980000I-135000J0D01*
G01*
X109015000Y-65980000D01*
G75*
G02*
X108880000Y-65845000I0J135000D01*
G01*
X108880000Y-65575000D01*
G75*
G02*
X109015000Y-65440000I135000J0D01*
G01*
G37*
G36*
G01*
X109015000Y-64420000D02*
X109385000Y-64420000D01*
G75*
G02*
X109520000Y-64555000I0J-135000D01*
G01*
X109520000Y-64825000D01*
G75*
G02*
X109385000Y-64960000I-135000J0D01*
G01*
X109015000Y-64960000D01*
G75*
G02*
X108880000Y-64825000I0J135000D01*
G01*
X108880000Y-64555000D01*
G75*
G02*
X109015000Y-64420000I135000J0D01*
G01*
G37*
%TD*%
%TO.C,R13*%
G36*
G01*
X92280000Y-85265000D02*
X92280000Y-85635000D01*
G75*
G02*
X92145000Y-85770000I-135000J0D01*
G01*
X91875000Y-85770000D01*
G75*
G02*
X91740000Y-85635000I0J135000D01*
G01*
X91740000Y-85265000D01*
G75*
G02*
X91875000Y-85130000I135000J0D01*
G01*
X92145000Y-85130000D01*
G75*
G02*
X92280000Y-85265000I0J-135000D01*
G01*
G37*
G36*
G01*
X91260000Y-85265000D02*
X91260000Y-85635000D01*
G75*
G02*
X91125000Y-85770000I-135000J0D01*
G01*
X90855000Y-85770000D01*
G75*
G02*
X90720000Y-85635000I0J135000D01*
G01*
X90720000Y-85265000D01*
G75*
G02*
X90855000Y-85130000I135000J0D01*
G01*
X91125000Y-85130000D01*
G75*
G02*
X91260000Y-85265000I0J-135000D01*
G01*
G37*
%TD*%
%TO.C,R15*%
G36*
G01*
X111485000Y-62900000D02*
X111115000Y-62900000D01*
G75*
G02*
X110980000Y-62765000I0J135000D01*
G01*
X110980000Y-62495000D01*
G75*
G02*
X111115000Y-62360000I135000J0D01*
G01*
X111485000Y-62360000D01*
G75*
G02*
X111620000Y-62495000I0J-135000D01*
G01*
X111620000Y-62765000D01*
G75*
G02*
X111485000Y-62900000I-135000J0D01*
G01*
G37*
G36*
G01*
X111485000Y-63920000D02*
X111115000Y-63920000D01*
G75*
G02*
X110980000Y-63785000I0J135000D01*
G01*
X110980000Y-63515000D01*
G75*
G02*
X111115000Y-63380000I135000J0D01*
G01*
X111485000Y-63380000D01*
G75*
G02*
X111620000Y-63515000I0J-135000D01*
G01*
X111620000Y-63785000D01*
G75*
G02*
X111485000Y-63920000I-135000J0D01*
G01*
G37*
%TD*%
%TO.C,R16*%
G36*
G01*
X113715000Y-63380000D02*
X114085000Y-63380000D01*
G75*
G02*
X114220000Y-63515000I0J-135000D01*
G01*
X114220000Y-63785000D01*
G75*
G02*
X114085000Y-63920000I-135000J0D01*
G01*
X113715000Y-63920000D01*
G75*
G02*
X113580000Y-63785000I0J135000D01*
G01*
X113580000Y-63515000D01*
G75*
G02*
X113715000Y-63380000I135000J0D01*
G01*
G37*
G36*
G01*
X113715000Y-62360000D02*
X114085000Y-62360000D01*
G75*
G02*
X114220000Y-62495000I0J-135000D01*
G01*
X114220000Y-62765000D01*
G75*
G02*
X114085000Y-62900000I-135000J0D01*
G01*
X113715000Y-62900000D01*
G75*
G02*
X113580000Y-62765000I0J135000D01*
G01*
X113580000Y-62495000D01*
G75*
G02*
X113715000Y-62360000I135000J0D01*
G01*
G37*
%TD*%
%TO.C,R17*%
G36*
G01*
X80985000Y-85780000D02*
X80615000Y-85780000D01*
G75*
G02*
X80480000Y-85645000I0J135000D01*
G01*
X80480000Y-85375000D01*
G75*
G02*
X80615000Y-85240000I135000J0D01*
G01*
X80985000Y-85240000D01*
G75*
G02*
X81120000Y-85375000I0J-135000D01*
G01*
X81120000Y-85645000D01*
G75*
G02*
X80985000Y-85780000I-135000J0D01*
G01*
G37*
G36*
G01*
X80985000Y-84760000D02*
X80615000Y-84760000D01*
G75*
G02*
X80480000Y-84625000I0J135000D01*
G01*
X80480000Y-84355000D01*
G75*
G02*
X80615000Y-84220000I135000J0D01*
G01*
X80985000Y-84220000D01*
G75*
G02*
X81120000Y-84355000I0J-135000D01*
G01*
X81120000Y-84625000D01*
G75*
G02*
X80985000Y-84760000I-135000J0D01*
G01*
G37*
%TD*%
%TO.C,R18*%
G36*
G01*
X101485000Y-87060000D02*
X101115000Y-87060000D01*
G75*
G02*
X100980000Y-86925000I0J135000D01*
G01*
X100980000Y-86655000D01*
G75*
G02*
X101115000Y-86520000I135000J0D01*
G01*
X101485000Y-86520000D01*
G75*
G02*
X101620000Y-86655000I0J-135000D01*
G01*
X101620000Y-86925000D01*
G75*
G02*
X101485000Y-87060000I-135000J0D01*
G01*
G37*
G36*
G01*
X101485000Y-88080000D02*
X101115000Y-88080000D01*
G75*
G02*
X100980000Y-87945000I0J135000D01*
G01*
X100980000Y-87675000D01*
G75*
G02*
X101115000Y-87540000I135000J0D01*
G01*
X101485000Y-87540000D01*
G75*
G02*
X101620000Y-87675000I0J-135000D01*
G01*
X101620000Y-87945000D01*
G75*
G02*
X101485000Y-88080000I-135000J0D01*
G01*
G37*
%TD*%
%TO.C,R19*%
G36*
G01*
X106915000Y-87660000D02*
X107285000Y-87660000D01*
G75*
G02*
X107420000Y-87795000I0J-135000D01*
G01*
X107420000Y-88065000D01*
G75*
G02*
X107285000Y-88200000I-135000J0D01*
G01*
X106915000Y-88200000D01*
G75*
G02*
X106780000Y-88065000I0J135000D01*
G01*
X106780000Y-87795000D01*
G75*
G02*
X106915000Y-87660000I135000J0D01*
G01*
G37*
G36*
G01*
X106915000Y-88680000D02*
X107285000Y-88680000D01*
G75*
G02*
X107420000Y-88815000I0J-135000D01*
G01*
X107420000Y-89085000D01*
G75*
G02*
X107285000Y-89220000I-135000J0D01*
G01*
X106915000Y-89220000D01*
G75*
G02*
X106780000Y-89085000I0J135000D01*
G01*
X106780000Y-88815000D01*
G75*
G02*
X106915000Y-88680000I135000J0D01*
G01*
G37*
%TD*%
%TO.C,R20*%
G36*
G01*
X104015000Y-87660000D02*
X104385000Y-87660000D01*
G75*
G02*
X104520000Y-87795000I0J-135000D01*
G01*
X104520000Y-88065000D01*
G75*
G02*
X104385000Y-88200000I-135000J0D01*
G01*
X104015000Y-88200000D01*
G75*
G02*
X103880000Y-88065000I0J135000D01*
G01*
X103880000Y-87795000D01*
G75*
G02*
X104015000Y-87660000I135000J0D01*
G01*
G37*
G36*
G01*
X104015000Y-88680000D02*
X104385000Y-88680000D01*
G75*
G02*
X104520000Y-88815000I0J-135000D01*
G01*
X104520000Y-89085000D01*
G75*
G02*
X104385000Y-89220000I-135000J0D01*
G01*
X104015000Y-89220000D01*
G75*
G02*
X103880000Y-89085000I0J135000D01*
G01*
X103880000Y-88815000D01*
G75*
G02*
X104015000Y-88680000I135000J0D01*
G01*
G37*
%TD*%
%TO.C,R21*%
G36*
G01*
X131980000Y-35115000D02*
X131980000Y-35485000D01*
G75*
G02*
X131845000Y-35620000I-135000J0D01*
G01*
X131575000Y-35620000D01*
G75*
G02*
X131440000Y-35485000I0J135000D01*
G01*
X131440000Y-35115000D01*
G75*
G02*
X131575000Y-34980000I135000J0D01*
G01*
X131845000Y-34980000D01*
G75*
G02*
X131980000Y-35115000I0J-135000D01*
G01*
G37*
G36*
G01*
X130960000Y-35115000D02*
X130960000Y-35485000D01*
G75*
G02*
X130825000Y-35620000I-135000J0D01*
G01*
X130555000Y-35620000D01*
G75*
G02*
X130420000Y-35485000I0J135000D01*
G01*
X130420000Y-35115000D01*
G75*
G02*
X130555000Y-34980000I135000J0D01*
G01*
X130825000Y-34980000D01*
G75*
G02*
X130960000Y-35115000I0J-135000D01*
G01*
G37*
%TD*%
%TO.C,R22*%
G36*
G01*
X130950000Y-36115000D02*
X130950000Y-36485000D01*
G75*
G02*
X130815000Y-36620000I-135000J0D01*
G01*
X130545000Y-36620000D01*
G75*
G02*
X130410000Y-36485000I0J135000D01*
G01*
X130410000Y-36115000D01*
G75*
G02*
X130545000Y-35980000I135000J0D01*
G01*
X130815000Y-35980000D01*
G75*
G02*
X130950000Y-36115000I0J-135000D01*
G01*
G37*
G36*
G01*
X131970000Y-36115000D02*
X131970000Y-36485000D01*
G75*
G02*
X131835000Y-36620000I-135000J0D01*
G01*
X131565000Y-36620000D01*
G75*
G02*
X131430000Y-36485000I0J135000D01*
G01*
X131430000Y-36115000D01*
G75*
G02*
X131565000Y-35980000I135000J0D01*
G01*
X131835000Y-35980000D01*
G75*
G02*
X131970000Y-36115000I0J-135000D01*
G01*
G37*
%TD*%
%TO.C,R23*%
G36*
G01*
X130950000Y-41015000D02*
X130950000Y-41385000D01*
G75*
G02*
X130815000Y-41520000I-135000J0D01*
G01*
X130545000Y-41520000D01*
G75*
G02*
X130410000Y-41385000I0J135000D01*
G01*
X130410000Y-41015000D01*
G75*
G02*
X130545000Y-40880000I135000J0D01*
G01*
X130815000Y-40880000D01*
G75*
G02*
X130950000Y-41015000I0J-135000D01*
G01*
G37*
G36*
G01*
X131970000Y-41015000D02*
X131970000Y-41385000D01*
G75*
G02*
X131835000Y-41520000I-135000J0D01*
G01*
X131565000Y-41520000D01*
G75*
G02*
X131430000Y-41385000I0J135000D01*
G01*
X131430000Y-41015000D01*
G75*
G02*
X131565000Y-40880000I135000J0D01*
G01*
X131835000Y-40880000D01*
G75*
G02*
X131970000Y-41015000I0J-135000D01*
G01*
G37*
%TD*%
%TO.C,R24*%
G36*
G01*
X130950000Y-38015000D02*
X130950000Y-38385000D01*
G75*
G02*
X130815000Y-38520000I-135000J0D01*
G01*
X130545000Y-38520000D01*
G75*
G02*
X130410000Y-38385000I0J135000D01*
G01*
X130410000Y-38015000D01*
G75*
G02*
X130545000Y-37880000I135000J0D01*
G01*
X130815000Y-37880000D01*
G75*
G02*
X130950000Y-38015000I0J-135000D01*
G01*
G37*
G36*
G01*
X131970000Y-38015000D02*
X131970000Y-38385000D01*
G75*
G02*
X131835000Y-38520000I-135000J0D01*
G01*
X131565000Y-38520000D01*
G75*
G02*
X131430000Y-38385000I0J135000D01*
G01*
X131430000Y-38015000D01*
G75*
G02*
X131565000Y-37880000I135000J0D01*
G01*
X131835000Y-37880000D01*
G75*
G02*
X131970000Y-38015000I0J-135000D01*
G01*
G37*
%TD*%
%TO.C,R25*%
G36*
G01*
X131060000Y-48215000D02*
X131060000Y-48585000D01*
G75*
G02*
X130925000Y-48720000I-135000J0D01*
G01*
X130655000Y-48720000D01*
G75*
G02*
X130520000Y-48585000I0J135000D01*
G01*
X130520000Y-48215000D01*
G75*
G02*
X130655000Y-48080000I135000J0D01*
G01*
X130925000Y-48080000D01*
G75*
G02*
X131060000Y-48215000I0J-135000D01*
G01*
G37*
G36*
G01*
X132080000Y-48215000D02*
X132080000Y-48585000D01*
G75*
G02*
X131945000Y-48720000I-135000J0D01*
G01*
X131675000Y-48720000D01*
G75*
G02*
X131540000Y-48585000I0J135000D01*
G01*
X131540000Y-48215000D01*
G75*
G02*
X131675000Y-48080000I135000J0D01*
G01*
X131945000Y-48080000D01*
G75*
G02*
X132080000Y-48215000I0J-135000D01*
G01*
G37*
%TD*%
%TO.C,R26*%
G36*
G01*
X132070000Y-49215000D02*
X132070000Y-49585000D01*
G75*
G02*
X131935000Y-49720000I-135000J0D01*
G01*
X131665000Y-49720000D01*
G75*
G02*
X131530000Y-49585000I0J135000D01*
G01*
X131530000Y-49215000D01*
G75*
G02*
X131665000Y-49080000I135000J0D01*
G01*
X131935000Y-49080000D01*
G75*
G02*
X132070000Y-49215000I0J-135000D01*
G01*
G37*
G36*
G01*
X131050000Y-49215000D02*
X131050000Y-49585000D01*
G75*
G02*
X130915000Y-49720000I-135000J0D01*
G01*
X130645000Y-49720000D01*
G75*
G02*
X130510000Y-49585000I0J135000D01*
G01*
X130510000Y-49215000D01*
G75*
G02*
X130645000Y-49080000I135000J0D01*
G01*
X130915000Y-49080000D01*
G75*
G02*
X131050000Y-49215000I0J-135000D01*
G01*
G37*
%TD*%
%TO.C,R27*%
G36*
G01*
X132070000Y-54015000D02*
X132070000Y-54385000D01*
G75*
G02*
X131935000Y-54520000I-135000J0D01*
G01*
X131665000Y-54520000D01*
G75*
G02*
X131530000Y-54385000I0J135000D01*
G01*
X131530000Y-54015000D01*
G75*
G02*
X131665000Y-53880000I135000J0D01*
G01*
X131935000Y-53880000D01*
G75*
G02*
X132070000Y-54015000I0J-135000D01*
G01*
G37*
G36*
G01*
X131050000Y-54015000D02*
X131050000Y-54385000D01*
G75*
G02*
X130915000Y-54520000I-135000J0D01*
G01*
X130645000Y-54520000D01*
G75*
G02*
X130510000Y-54385000I0J135000D01*
G01*
X130510000Y-54015000D01*
G75*
G02*
X130645000Y-53880000I135000J0D01*
G01*
X130915000Y-53880000D01*
G75*
G02*
X131050000Y-54015000I0J-135000D01*
G01*
G37*
%TD*%
%TO.C,R28*%
G36*
G01*
X132080000Y-52015000D02*
X132080000Y-52385000D01*
G75*
G02*
X131945000Y-52520000I-135000J0D01*
G01*
X131675000Y-52520000D01*
G75*
G02*
X131540000Y-52385000I0J135000D01*
G01*
X131540000Y-52015000D01*
G75*
G02*
X131675000Y-51880000I135000J0D01*
G01*
X131945000Y-51880000D01*
G75*
G02*
X132080000Y-52015000I0J-135000D01*
G01*
G37*
G36*
G01*
X131060000Y-52015000D02*
X131060000Y-52385000D01*
G75*
G02*
X130925000Y-52520000I-135000J0D01*
G01*
X130655000Y-52520000D01*
G75*
G02*
X130520000Y-52385000I0J135000D01*
G01*
X130520000Y-52015000D01*
G75*
G02*
X130655000Y-51880000I135000J0D01*
G01*
X130925000Y-51880000D01*
G75*
G02*
X131060000Y-52015000I0J-135000D01*
G01*
G37*
%TD*%
%TO.C,R29*%
G36*
G01*
X131150000Y-61615000D02*
X131150000Y-61985000D01*
G75*
G02*
X131015000Y-62120000I-135000J0D01*
G01*
X130745000Y-62120000D01*
G75*
G02*
X130610000Y-61985000I0J135000D01*
G01*
X130610000Y-61615000D01*
G75*
G02*
X130745000Y-61480000I135000J0D01*
G01*
X131015000Y-61480000D01*
G75*
G02*
X131150000Y-61615000I0J-135000D01*
G01*
G37*
G36*
G01*
X132170000Y-61615000D02*
X132170000Y-61985000D01*
G75*
G02*
X132035000Y-62120000I-135000J0D01*
G01*
X131765000Y-62120000D01*
G75*
G02*
X131630000Y-61985000I0J135000D01*
G01*
X131630000Y-61615000D01*
G75*
G02*
X131765000Y-61480000I135000J0D01*
G01*
X132035000Y-61480000D01*
G75*
G02*
X132170000Y-61615000I0J-135000D01*
G01*
G37*
%TD*%
%TO.C,R30*%
G36*
G01*
X131150000Y-62615000D02*
X131150000Y-62985000D01*
G75*
G02*
X131015000Y-63120000I-135000J0D01*
G01*
X130745000Y-63120000D01*
G75*
G02*
X130610000Y-62985000I0J135000D01*
G01*
X130610000Y-62615000D01*
G75*
G02*
X130745000Y-62480000I135000J0D01*
G01*
X131015000Y-62480000D01*
G75*
G02*
X131150000Y-62615000I0J-135000D01*
G01*
G37*
G36*
G01*
X132170000Y-62615000D02*
X132170000Y-62985000D01*
G75*
G02*
X132035000Y-63120000I-135000J0D01*
G01*
X131765000Y-63120000D01*
G75*
G02*
X131630000Y-62985000I0J135000D01*
G01*
X131630000Y-62615000D01*
G75*
G02*
X131765000Y-62480000I135000J0D01*
G01*
X132035000Y-62480000D01*
G75*
G02*
X132170000Y-62615000I0J-135000D01*
G01*
G37*
%TD*%
%TO.C,R31*%
G36*
G01*
X132180000Y-65965000D02*
X132180000Y-66335000D01*
G75*
G02*
X132045000Y-66470000I-135000J0D01*
G01*
X131775000Y-66470000D01*
G75*
G02*
X131640000Y-66335000I0J135000D01*
G01*
X131640000Y-65965000D01*
G75*
G02*
X131775000Y-65830000I135000J0D01*
G01*
X132045000Y-65830000D01*
G75*
G02*
X132180000Y-65965000I0J-135000D01*
G01*
G37*
G36*
G01*
X131160000Y-65965000D02*
X131160000Y-66335000D01*
G75*
G02*
X131025000Y-66470000I-135000J0D01*
G01*
X130755000Y-66470000D01*
G75*
G02*
X130620000Y-66335000I0J135000D01*
G01*
X130620000Y-65965000D01*
G75*
G02*
X130755000Y-65830000I135000J0D01*
G01*
X131025000Y-65830000D01*
G75*
G02*
X131160000Y-65965000I0J-135000D01*
G01*
G37*
%TD*%
%TO.C,R32*%
G36*
G01*
X132180000Y-64965000D02*
X132180000Y-65335000D01*
G75*
G02*
X132045000Y-65470000I-135000J0D01*
G01*
X131775000Y-65470000D01*
G75*
G02*
X131640000Y-65335000I0J135000D01*
G01*
X131640000Y-64965000D01*
G75*
G02*
X131775000Y-64830000I135000J0D01*
G01*
X132045000Y-64830000D01*
G75*
G02*
X132180000Y-64965000I0J-135000D01*
G01*
G37*
G36*
G01*
X131160000Y-64965000D02*
X131160000Y-65335000D01*
G75*
G02*
X131025000Y-65470000I-135000J0D01*
G01*
X130755000Y-65470000D01*
G75*
G02*
X130620000Y-65335000I0J135000D01*
G01*
X130620000Y-64965000D01*
G75*
G02*
X130755000Y-64830000I135000J0D01*
G01*
X131025000Y-64830000D01*
G75*
G02*
X131160000Y-64965000I0J-135000D01*
G01*
G37*
%TD*%
%TO.C,R33*%
G36*
G01*
X92590000Y-40435000D02*
X92590000Y-40065000D01*
G75*
G02*
X92725000Y-39930000I135000J0D01*
G01*
X92995000Y-39930000D01*
G75*
G02*
X93130000Y-40065000I0J-135000D01*
G01*
X93130000Y-40435000D01*
G75*
G02*
X92995000Y-40570000I-135000J0D01*
G01*
X92725000Y-40570000D01*
G75*
G02*
X92590000Y-40435000I0J135000D01*
G01*
G37*
G36*
G01*
X91570000Y-40435000D02*
X91570000Y-40065000D01*
G75*
G02*
X91705000Y-39930000I135000J0D01*
G01*
X91975000Y-39930000D01*
G75*
G02*
X92110000Y-40065000I0J-135000D01*
G01*
X92110000Y-40435000D01*
G75*
G02*
X91975000Y-40570000I-135000J0D01*
G01*
X91705000Y-40570000D01*
G75*
G02*
X91570000Y-40435000I0J135000D01*
G01*
G37*
%TD*%
%TO.C,R34*%
G36*
G01*
X91570000Y-39435000D02*
X91570000Y-39065000D01*
G75*
G02*
X91705000Y-38930000I135000J0D01*
G01*
X91975000Y-38930000D01*
G75*
G02*
X92110000Y-39065000I0J-135000D01*
G01*
X92110000Y-39435000D01*
G75*
G02*
X91975000Y-39570000I-135000J0D01*
G01*
X91705000Y-39570000D01*
G75*
G02*
X91570000Y-39435000I0J135000D01*
G01*
G37*
G36*
G01*
X92590000Y-39435000D02*
X92590000Y-39065000D01*
G75*
G02*
X92725000Y-38930000I135000J0D01*
G01*
X92995000Y-38930000D01*
G75*
G02*
X93130000Y-39065000I0J-135000D01*
G01*
X93130000Y-39435000D01*
G75*
G02*
X92995000Y-39570000I-135000J0D01*
G01*
X92725000Y-39570000D01*
G75*
G02*
X92590000Y-39435000I0J135000D01*
G01*
G37*
%TD*%
%TO.C,R35*%
G36*
G01*
X92640000Y-36385000D02*
X92640000Y-36015000D01*
G75*
G02*
X92775000Y-35880000I135000J0D01*
G01*
X93045000Y-35880000D01*
G75*
G02*
X93180000Y-36015000I0J-135000D01*
G01*
X93180000Y-36385000D01*
G75*
G02*
X93045000Y-36520000I-135000J0D01*
G01*
X92775000Y-36520000D01*
G75*
G02*
X92640000Y-36385000I0J135000D01*
G01*
G37*
G36*
G01*
X91620000Y-36385000D02*
X91620000Y-36015000D01*
G75*
G02*
X91755000Y-35880000I135000J0D01*
G01*
X92025000Y-35880000D01*
G75*
G02*
X92160000Y-36015000I0J-135000D01*
G01*
X92160000Y-36385000D01*
G75*
G02*
X92025000Y-36520000I-135000J0D01*
G01*
X91755000Y-36520000D01*
G75*
G02*
X91620000Y-36385000I0J135000D01*
G01*
G37*
%TD*%
%TO.C,R36*%
G36*
G01*
X92640000Y-37385000D02*
X92640000Y-37015000D01*
G75*
G02*
X92775000Y-36880000I135000J0D01*
G01*
X93045000Y-36880000D01*
G75*
G02*
X93180000Y-37015000I0J-135000D01*
G01*
X93180000Y-37385000D01*
G75*
G02*
X93045000Y-37520000I-135000J0D01*
G01*
X92775000Y-37520000D01*
G75*
G02*
X92640000Y-37385000I0J135000D01*
G01*
G37*
G36*
G01*
X91620000Y-37385000D02*
X91620000Y-37015000D01*
G75*
G02*
X91755000Y-36880000I135000J0D01*
G01*
X92025000Y-36880000D01*
G75*
G02*
X92160000Y-37015000I0J-135000D01*
G01*
X92160000Y-37385000D01*
G75*
G02*
X92025000Y-37520000I-135000J0D01*
G01*
X91755000Y-37520000D01*
G75*
G02*
X91620000Y-37385000I0J135000D01*
G01*
G37*
%TD*%
%TO.C,R37*%
G36*
G01*
X92690000Y-53535000D02*
X92690000Y-53165000D01*
G75*
G02*
X92825000Y-53030000I135000J0D01*
G01*
X93095000Y-53030000D01*
G75*
G02*
X93230000Y-53165000I0J-135000D01*
G01*
X93230000Y-53535000D01*
G75*
G02*
X93095000Y-53670000I-135000J0D01*
G01*
X92825000Y-53670000D01*
G75*
G02*
X92690000Y-53535000I0J135000D01*
G01*
G37*
G36*
G01*
X91670000Y-53535000D02*
X91670000Y-53165000D01*
G75*
G02*
X91805000Y-53030000I135000J0D01*
G01*
X92075000Y-53030000D01*
G75*
G02*
X92210000Y-53165000I0J-135000D01*
G01*
X92210000Y-53535000D01*
G75*
G02*
X92075000Y-53670000I-135000J0D01*
G01*
X91805000Y-53670000D01*
G75*
G02*
X91670000Y-53535000I0J135000D01*
G01*
G37*
%TD*%
%TO.C,R38*%
G36*
G01*
X91670000Y-52535000D02*
X91670000Y-52165000D01*
G75*
G02*
X91805000Y-52030000I135000J0D01*
G01*
X92075000Y-52030000D01*
G75*
G02*
X92210000Y-52165000I0J-135000D01*
G01*
X92210000Y-52535000D01*
G75*
G02*
X92075000Y-52670000I-135000J0D01*
G01*
X91805000Y-52670000D01*
G75*
G02*
X91670000Y-52535000I0J135000D01*
G01*
G37*
G36*
G01*
X92690000Y-52535000D02*
X92690000Y-52165000D01*
G75*
G02*
X92825000Y-52030000I135000J0D01*
G01*
X93095000Y-52030000D01*
G75*
G02*
X93230000Y-52165000I0J-135000D01*
G01*
X93230000Y-52535000D01*
G75*
G02*
X93095000Y-52670000I-135000J0D01*
G01*
X92825000Y-52670000D01*
G75*
G02*
X92690000Y-52535000I0J135000D01*
G01*
G37*
%TD*%
%TO.C,R39*%
G36*
G01*
X91670000Y-47635000D02*
X91670000Y-47265000D01*
G75*
G02*
X91805000Y-47130000I135000J0D01*
G01*
X92075000Y-47130000D01*
G75*
G02*
X92210000Y-47265000I0J-135000D01*
G01*
X92210000Y-47635000D01*
G75*
G02*
X92075000Y-47770000I-135000J0D01*
G01*
X91805000Y-47770000D01*
G75*
G02*
X91670000Y-47635000I0J135000D01*
G01*
G37*
G36*
G01*
X92690000Y-47635000D02*
X92690000Y-47265000D01*
G75*
G02*
X92825000Y-47130000I135000J0D01*
G01*
X93095000Y-47130000D01*
G75*
G02*
X93230000Y-47265000I0J-135000D01*
G01*
X93230000Y-47635000D01*
G75*
G02*
X93095000Y-47770000I-135000J0D01*
G01*
X92825000Y-47770000D01*
G75*
G02*
X92690000Y-47635000I0J135000D01*
G01*
G37*
%TD*%
%TO.C,R40*%
G36*
G01*
X91670000Y-49635000D02*
X91670000Y-49265000D01*
G75*
G02*
X91805000Y-49130000I135000J0D01*
G01*
X92075000Y-49130000D01*
G75*
G02*
X92210000Y-49265000I0J-135000D01*
G01*
X92210000Y-49635000D01*
G75*
G02*
X92075000Y-49770000I-135000J0D01*
G01*
X91805000Y-49770000D01*
G75*
G02*
X91670000Y-49635000I0J135000D01*
G01*
G37*
G36*
G01*
X92690000Y-49635000D02*
X92690000Y-49265000D01*
G75*
G02*
X92825000Y-49130000I135000J0D01*
G01*
X93095000Y-49130000D01*
G75*
G02*
X93230000Y-49265000I0J-135000D01*
G01*
X93230000Y-49635000D01*
G75*
G02*
X93095000Y-49770000I-135000J0D01*
G01*
X92825000Y-49770000D01*
G75*
G02*
X92690000Y-49635000I0J135000D01*
G01*
G37*
%TD*%
%TO.C,R41*%
G36*
G01*
X91730000Y-66985000D02*
X91730000Y-66615000D01*
G75*
G02*
X91865000Y-66480000I135000J0D01*
G01*
X92135000Y-66480000D01*
G75*
G02*
X92270000Y-66615000I0J-135000D01*
G01*
X92270000Y-66985000D01*
G75*
G02*
X92135000Y-67120000I-135000J0D01*
G01*
X91865000Y-67120000D01*
G75*
G02*
X91730000Y-66985000I0J135000D01*
G01*
G37*
G36*
G01*
X92750000Y-66985000D02*
X92750000Y-66615000D01*
G75*
G02*
X92885000Y-66480000I135000J0D01*
G01*
X93155000Y-66480000D01*
G75*
G02*
X93290000Y-66615000I0J-135000D01*
G01*
X93290000Y-66985000D01*
G75*
G02*
X93155000Y-67120000I-135000J0D01*
G01*
X92885000Y-67120000D01*
G75*
G02*
X92750000Y-66985000I0J135000D01*
G01*
G37*
%TD*%
%TO.C,R42*%
G36*
G01*
X92750000Y-65985000D02*
X92750000Y-65615000D01*
G75*
G02*
X92885000Y-65480000I135000J0D01*
G01*
X93155000Y-65480000D01*
G75*
G02*
X93290000Y-65615000I0J-135000D01*
G01*
X93290000Y-65985000D01*
G75*
G02*
X93155000Y-66120000I-135000J0D01*
G01*
X92885000Y-66120000D01*
G75*
G02*
X92750000Y-65985000I0J135000D01*
G01*
G37*
G36*
G01*
X91730000Y-65985000D02*
X91730000Y-65615000D01*
G75*
G02*
X91865000Y-65480000I135000J0D01*
G01*
X92135000Y-65480000D01*
G75*
G02*
X92270000Y-65615000I0J-135000D01*
G01*
X92270000Y-65985000D01*
G75*
G02*
X92135000Y-66120000I-135000J0D01*
G01*
X91865000Y-66120000D01*
G75*
G02*
X91730000Y-65985000I0J135000D01*
G01*
G37*
%TD*%
%TO.C,R43*%
G36*
G01*
X92750000Y-62085000D02*
X92750000Y-61715000D01*
G75*
G02*
X92885000Y-61580000I135000J0D01*
G01*
X93155000Y-61580000D01*
G75*
G02*
X93290000Y-61715000I0J-135000D01*
G01*
X93290000Y-62085000D01*
G75*
G02*
X93155000Y-62220000I-135000J0D01*
G01*
X92885000Y-62220000D01*
G75*
G02*
X92750000Y-62085000I0J135000D01*
G01*
G37*
G36*
G01*
X91730000Y-62085000D02*
X91730000Y-61715000D01*
G75*
G02*
X91865000Y-61580000I135000J0D01*
G01*
X92135000Y-61580000D01*
G75*
G02*
X92270000Y-61715000I0J-135000D01*
G01*
X92270000Y-62085000D01*
G75*
G02*
X92135000Y-62220000I-135000J0D01*
G01*
X91865000Y-62220000D01*
G75*
G02*
X91730000Y-62085000I0J135000D01*
G01*
G37*
%TD*%
%TO.C,R44*%
G36*
G01*
X91730000Y-63085000D02*
X91730000Y-62715000D01*
G75*
G02*
X91865000Y-62580000I135000J0D01*
G01*
X92135000Y-62580000D01*
G75*
G02*
X92270000Y-62715000I0J-135000D01*
G01*
X92270000Y-63085000D01*
G75*
G02*
X92135000Y-63220000I-135000J0D01*
G01*
X91865000Y-63220000D01*
G75*
G02*
X91730000Y-63085000I0J135000D01*
G01*
G37*
G36*
G01*
X92750000Y-63085000D02*
X92750000Y-62715000D01*
G75*
G02*
X92885000Y-62580000I135000J0D01*
G01*
X93155000Y-62580000D01*
G75*
G02*
X93290000Y-62715000I0J-135000D01*
G01*
X93290000Y-63085000D01*
G75*
G02*
X93155000Y-63220000I-135000J0D01*
G01*
X92885000Y-63220000D01*
G75*
G02*
X92750000Y-63085000I0J135000D01*
G01*
G37*
%TD*%
%TO.C,SW1*%
G36*
G01*
X90350000Y-88500000D02*
X90350000Y-86900000D01*
G75*
G02*
X90550000Y-86700000I200000J0D01*
G01*
X90950000Y-86700000D01*
G75*
G02*
X91150000Y-86900000I0J-200000D01*
G01*
X91150000Y-88500000D01*
G75*
G02*
X90950000Y-88700000I-200000J0D01*
G01*
X90550000Y-88700000D01*
G75*
G02*
X90350000Y-88500000I0J200000D01*
G01*
G37*
G36*
G01*
X86150000Y-88500000D02*
X86150000Y-86900000D01*
G75*
G02*
X86350000Y-86700000I200000J0D01*
G01*
X86750000Y-86700000D01*
G75*
G02*
X86950000Y-86900000I0J-200000D01*
G01*
X86950000Y-88500000D01*
G75*
G02*
X86750000Y-88700000I-200000J0D01*
G01*
X86350000Y-88700000D01*
G75*
G02*
X86150000Y-88500000I0J200000D01*
G01*
G37*
%TD*%
%TO.C,SW2*%
G36*
G01*
X95900000Y-88500000D02*
X95900000Y-86900000D01*
G75*
G02*
X96100000Y-86700000I200000J0D01*
G01*
X96500000Y-86700000D01*
G75*
G02*
X96700000Y-86900000I0J-200000D01*
G01*
X96700000Y-88500000D01*
G75*
G02*
X96500000Y-88700000I-200000J0D01*
G01*
X96100000Y-88700000D01*
G75*
G02*
X95900000Y-88500000I0J200000D01*
G01*
G37*
G36*
G01*
X91700000Y-88500000D02*
X91700000Y-86900000D01*
G75*
G02*
X91900000Y-86700000I200000J0D01*
G01*
X92300000Y-86700000D01*
G75*
G02*
X92500000Y-86900000I0J-200000D01*
G01*
X92500000Y-88500000D01*
G75*
G02*
X92300000Y-88700000I-200000J0D01*
G01*
X91900000Y-88700000D01*
G75*
G02*
X91700000Y-88500000I0J200000D01*
G01*
G37*
%TD*%
%TO.C,SW3*%
G36*
G01*
X85600000Y-86900000D02*
X85600000Y-88500000D01*
G75*
G02*
X85400000Y-88700000I-200000J0D01*
G01*
X85000000Y-88700000D01*
G75*
G02*
X84800000Y-88500000I0J200000D01*
G01*
X84800000Y-86900000D01*
G75*
G02*
X85000000Y-86700000I200000J0D01*
G01*
X85400000Y-86700000D01*
G75*
G02*
X85600000Y-86900000I0J-200000D01*
G01*
G37*
G36*
G01*
X81400000Y-86900000D02*
X81400000Y-88500000D01*
G75*
G02*
X81200000Y-88700000I-200000J0D01*
G01*
X80800000Y-88700000D01*
G75*
G02*
X80600000Y-88500000I0J200000D01*
G01*
X80600000Y-86900000D01*
G75*
G02*
X80800000Y-86700000I200000J0D01*
G01*
X81200000Y-86700000D01*
G75*
G02*
X81400000Y-86900000I0J-200000D01*
G01*
G37*
%TD*%
%TO.C,U2*%
G36*
G01*
X76455000Y-76500000D02*
X76755000Y-76500000D01*
G75*
G02*
X76905000Y-76650000I0J-150000D01*
G01*
X76905000Y-78300000D01*
G75*
G02*
X76755000Y-78450000I-150000J0D01*
G01*
X76455000Y-78450000D01*
G75*
G02*
X76305000Y-78300000I0J150000D01*
G01*
X76305000Y-76650000D01*
G75*
G02*
X76455000Y-76500000I150000J0D01*
G01*
G37*
G36*
G01*
X75185000Y-76500000D02*
X75485000Y-76500000D01*
G75*
G02*
X75635000Y-76650000I0J-150000D01*
G01*
X75635000Y-78300000D01*
G75*
G02*
X75485000Y-78450000I-150000J0D01*
G01*
X75185000Y-78450000D01*
G75*
G02*
X75035000Y-78300000I0J150000D01*
G01*
X75035000Y-76650000D01*
G75*
G02*
X75185000Y-76500000I150000J0D01*
G01*
G37*
G36*
G01*
X73915000Y-76500000D02*
X74215000Y-76500000D01*
G75*
G02*
X74365000Y-76650000I0J-150000D01*
G01*
X74365000Y-78300000D01*
G75*
G02*
X74215000Y-78450000I-150000J0D01*
G01*
X73915000Y-78450000D01*
G75*
G02*
X73765000Y-78300000I0J150000D01*
G01*
X73765000Y-76650000D01*
G75*
G02*
X73915000Y-76500000I150000J0D01*
G01*
G37*
G36*
G01*
X72645000Y-76500000D02*
X72945000Y-76500000D01*
G75*
G02*
X73095000Y-76650000I0J-150000D01*
G01*
X73095000Y-78300000D01*
G75*
G02*
X72945000Y-78450000I-150000J0D01*
G01*
X72645000Y-78450000D01*
G75*
G02*
X72495000Y-78300000I0J150000D01*
G01*
X72495000Y-76650000D01*
G75*
G02*
X72645000Y-76500000I150000J0D01*
G01*
G37*
G36*
G01*
X72645000Y-81450000D02*
X72945000Y-81450000D01*
G75*
G02*
X73095000Y-81600000I0J-150000D01*
G01*
X73095000Y-83250000D01*
G75*
G02*
X72945000Y-83400000I-150000J0D01*
G01*
X72645000Y-83400000D01*
G75*
G02*
X72495000Y-83250000I0J150000D01*
G01*
X72495000Y-81600000D01*
G75*
G02*
X72645000Y-81450000I150000J0D01*
G01*
G37*
G36*
G01*
X73915000Y-81450000D02*
X74215000Y-81450000D01*
G75*
G02*
X74365000Y-81600000I0J-150000D01*
G01*
X74365000Y-83250000D01*
G75*
G02*
X74215000Y-83400000I-150000J0D01*
G01*
X73915000Y-83400000D01*
G75*
G02*
X73765000Y-83250000I0J150000D01*
G01*
X73765000Y-81600000D01*
G75*
G02*
X73915000Y-81450000I150000J0D01*
G01*
G37*
G36*
G01*
X75185000Y-81450000D02*
X75485000Y-81450000D01*
G75*
G02*
X75635000Y-81600000I0J-150000D01*
G01*
X75635000Y-83250000D01*
G75*
G02*
X75485000Y-83400000I-150000J0D01*
G01*
X75185000Y-83400000D01*
G75*
G02*
X75035000Y-83250000I0J150000D01*
G01*
X75035000Y-81600000D01*
G75*
G02*
X75185000Y-81450000I150000J0D01*
G01*
G37*
G36*
G01*
X76455000Y-81450000D02*
X76755000Y-81450000D01*
G75*
G02*
X76905000Y-81600000I0J-150000D01*
G01*
X76905000Y-83250000D01*
G75*
G02*
X76755000Y-83400000I-150000J0D01*
G01*
X76455000Y-83400000D01*
G75*
G02*
X76305000Y-83250000I0J150000D01*
G01*
X76305000Y-81600000D01*
G75*
G02*
X76455000Y-81450000I150000J0D01*
G01*
G37*
%TD*%
%TO.C,U3*%
G36*
G01*
X117450000Y-79475000D02*
X117450000Y-79625000D01*
G75*
G02*
X117375000Y-79700000I-75000J0D01*
G01*
X115975000Y-79700000D01*
G75*
G02*
X115900000Y-79625000I0J75000D01*
G01*
X115900000Y-79475000D01*
G75*
G02*
X115975000Y-79400000I75000J0D01*
G01*
X117375000Y-79400000D01*
G75*
G02*
X117450000Y-79475000I0J-75000D01*
G01*
G37*
G36*
G01*
X117450000Y-78975000D02*
X117450000Y-79125000D01*
G75*
G02*
X117375000Y-79200000I-75000J0D01*
G01*
X115975000Y-79200000D01*
G75*
G02*
X115900000Y-79125000I0J75000D01*
G01*
X115900000Y-78975000D01*
G75*
G02*
X115975000Y-78900000I75000J0D01*
G01*
X117375000Y-78900000D01*
G75*
G02*
X117450000Y-78975000I0J-75000D01*
G01*
G37*
G36*
G01*
X117450000Y-78475000D02*
X117450000Y-78625000D01*
G75*
G02*
X117375000Y-78700000I-75000J0D01*
G01*
X115975000Y-78700000D01*
G75*
G02*
X115900000Y-78625000I0J75000D01*
G01*
X115900000Y-78475000D01*
G75*
G02*
X115975000Y-78400000I75000J0D01*
G01*
X117375000Y-78400000D01*
G75*
G02*
X117450000Y-78475000I0J-75000D01*
G01*
G37*
G36*
G01*
X117450000Y-77975000D02*
X117450000Y-78125000D01*
G75*
G02*
X117375000Y-78200000I-75000J0D01*
G01*
X115975000Y-78200000D01*
G75*
G02*
X115900000Y-78125000I0J75000D01*
G01*
X115900000Y-77975000D01*
G75*
G02*
X115975000Y-77900000I75000J0D01*
G01*
X117375000Y-77900000D01*
G75*
G02*
X117450000Y-77975000I0J-75000D01*
G01*
G37*
G36*
G01*
X117450000Y-77475000D02*
X117450000Y-77625000D01*
G75*
G02*
X117375000Y-77700000I-75000J0D01*
G01*
X115975000Y-77700000D01*
G75*
G02*
X115900000Y-77625000I0J75000D01*
G01*
X115900000Y-77475000D01*
G75*
G02*
X115975000Y-77400000I75000J0D01*
G01*
X117375000Y-77400000D01*
G75*
G02*
X117450000Y-77475000I0J-75000D01*
G01*
G37*
G36*
G01*
X117450000Y-76975000D02*
X117450000Y-77125000D01*
G75*
G02*
X117375000Y-77200000I-75000J0D01*
G01*
X115975000Y-77200000D01*
G75*
G02*
X115900000Y-77125000I0J75000D01*
G01*
X115900000Y-76975000D01*
G75*
G02*
X115975000Y-76900000I75000J0D01*
G01*
X117375000Y-76900000D01*
G75*
G02*
X117450000Y-76975000I0J-75000D01*
G01*
G37*
G36*
G01*
X117450000Y-76475000D02*
X117450000Y-76625000D01*
G75*
G02*
X117375000Y-76700000I-75000J0D01*
G01*
X115975000Y-76700000D01*
G75*
G02*
X115900000Y-76625000I0J75000D01*
G01*
X115900000Y-76475000D01*
G75*
G02*
X115975000Y-76400000I75000J0D01*
G01*
X117375000Y-76400000D01*
G75*
G02*
X117450000Y-76475000I0J-75000D01*
G01*
G37*
G36*
G01*
X117450000Y-75975000D02*
X117450000Y-76125000D01*
G75*
G02*
X117375000Y-76200000I-75000J0D01*
G01*
X115975000Y-76200000D01*
G75*
G02*
X115900000Y-76125000I0J75000D01*
G01*
X115900000Y-75975000D01*
G75*
G02*
X115975000Y-75900000I75000J0D01*
G01*
X117375000Y-75900000D01*
G75*
G02*
X117450000Y-75975000I0J-75000D01*
G01*
G37*
G36*
G01*
X117450000Y-75475000D02*
X117450000Y-75625000D01*
G75*
G02*
X117375000Y-75700000I-75000J0D01*
G01*
X115975000Y-75700000D01*
G75*
G02*
X115900000Y-75625000I0J75000D01*
G01*
X115900000Y-75475000D01*
G75*
G02*
X115975000Y-75400000I75000J0D01*
G01*
X117375000Y-75400000D01*
G75*
G02*
X117450000Y-75475000I0J-75000D01*
G01*
G37*
G36*
G01*
X117450000Y-74975000D02*
X117450000Y-75125000D01*
G75*
G02*
X117375000Y-75200000I-75000J0D01*
G01*
X115975000Y-75200000D01*
G75*
G02*
X115900000Y-75125000I0J75000D01*
G01*
X115900000Y-74975000D01*
G75*
G02*
X115975000Y-74900000I75000J0D01*
G01*
X117375000Y-74900000D01*
G75*
G02*
X117450000Y-74975000I0J-75000D01*
G01*
G37*
G36*
G01*
X117450000Y-74475000D02*
X117450000Y-74625000D01*
G75*
G02*
X117375000Y-74700000I-75000J0D01*
G01*
X115975000Y-74700000D01*
G75*
G02*
X115900000Y-74625000I0J75000D01*
G01*
X115900000Y-74475000D01*
G75*
G02*
X115975000Y-74400000I75000J0D01*
G01*
X117375000Y-74400000D01*
G75*
G02*
X117450000Y-74475000I0J-75000D01*
G01*
G37*
G36*
G01*
X117450000Y-73975000D02*
X117450000Y-74125000D01*
G75*
G02*
X117375000Y-74200000I-75000J0D01*
G01*
X115975000Y-74200000D01*
G75*
G02*
X115900000Y-74125000I0J75000D01*
G01*
X115900000Y-73975000D01*
G75*
G02*
X115975000Y-73900000I75000J0D01*
G01*
X117375000Y-73900000D01*
G75*
G02*
X117450000Y-73975000I0J-75000D01*
G01*
G37*
G36*
G01*
X117450000Y-73475000D02*
X117450000Y-73625000D01*
G75*
G02*
X117375000Y-73700000I-75000J0D01*
G01*
X115975000Y-73700000D01*
G75*
G02*
X115900000Y-73625000I0J75000D01*
G01*
X115900000Y-73475000D01*
G75*
G02*
X115975000Y-73400000I75000J0D01*
G01*
X117375000Y-73400000D01*
G75*
G02*
X117450000Y-73475000I0J-75000D01*
G01*
G37*
G36*
G01*
X117450000Y-72975000D02*
X117450000Y-73125000D01*
G75*
G02*
X117375000Y-73200000I-75000J0D01*
G01*
X115975000Y-73200000D01*
G75*
G02*
X115900000Y-73125000I0J75000D01*
G01*
X115900000Y-72975000D01*
G75*
G02*
X115975000Y-72900000I75000J0D01*
G01*
X117375000Y-72900000D01*
G75*
G02*
X117450000Y-72975000I0J-75000D01*
G01*
G37*
G36*
G01*
X117450000Y-72475000D02*
X117450000Y-72625000D01*
G75*
G02*
X117375000Y-72700000I-75000J0D01*
G01*
X115975000Y-72700000D01*
G75*
G02*
X115900000Y-72625000I0J75000D01*
G01*
X115900000Y-72475000D01*
G75*
G02*
X115975000Y-72400000I75000J0D01*
G01*
X117375000Y-72400000D01*
G75*
G02*
X117450000Y-72475000I0J-75000D01*
G01*
G37*
G36*
G01*
X117450000Y-71975000D02*
X117450000Y-72125000D01*
G75*
G02*
X117375000Y-72200000I-75000J0D01*
G01*
X115975000Y-72200000D01*
G75*
G02*
X115900000Y-72125000I0J75000D01*
G01*
X115900000Y-71975000D01*
G75*
G02*
X115975000Y-71900000I75000J0D01*
G01*
X117375000Y-71900000D01*
G75*
G02*
X117450000Y-71975000I0J-75000D01*
G01*
G37*
G36*
G01*
X114900000Y-69425000D02*
X114900000Y-70825000D01*
G75*
G02*
X114825000Y-70900000I-75000J0D01*
G01*
X114675000Y-70900000D01*
G75*
G02*
X114600000Y-70825000I0J75000D01*
G01*
X114600000Y-69425000D01*
G75*
G02*
X114675000Y-69350000I75000J0D01*
G01*
X114825000Y-69350000D01*
G75*
G02*
X114900000Y-69425000I0J-75000D01*
G01*
G37*
G36*
G01*
X114400000Y-69425000D02*
X114400000Y-70825000D01*
G75*
G02*
X114325000Y-70900000I-75000J0D01*
G01*
X114175000Y-70900000D01*
G75*
G02*
X114100000Y-70825000I0J75000D01*
G01*
X114100000Y-69425000D01*
G75*
G02*
X114175000Y-69350000I75000J0D01*
G01*
X114325000Y-69350000D01*
G75*
G02*
X114400000Y-69425000I0J-75000D01*
G01*
G37*
G36*
G01*
X113900000Y-69425000D02*
X113900000Y-70825000D01*
G75*
G02*
X113825000Y-70900000I-75000J0D01*
G01*
X113675000Y-70900000D01*
G75*
G02*
X113600000Y-70825000I0J75000D01*
G01*
X113600000Y-69425000D01*
G75*
G02*
X113675000Y-69350000I75000J0D01*
G01*
X113825000Y-69350000D01*
G75*
G02*
X113900000Y-69425000I0J-75000D01*
G01*
G37*
G36*
G01*
X113400000Y-69425000D02*
X113400000Y-70825000D01*
G75*
G02*
X113325000Y-70900000I-75000J0D01*
G01*
X113175000Y-70900000D01*
G75*
G02*
X113100000Y-70825000I0J75000D01*
G01*
X113100000Y-69425000D01*
G75*
G02*
X113175000Y-69350000I75000J0D01*
G01*
X113325000Y-69350000D01*
G75*
G02*
X113400000Y-69425000I0J-75000D01*
G01*
G37*
G36*
G01*
X112900000Y-69425000D02*
X112900000Y-70825000D01*
G75*
G02*
X112825000Y-70900000I-75000J0D01*
G01*
X112675000Y-70900000D01*
G75*
G02*
X112600000Y-70825000I0J75000D01*
G01*
X112600000Y-69425000D01*
G75*
G02*
X112675000Y-69350000I75000J0D01*
G01*
X112825000Y-69350000D01*
G75*
G02*
X112900000Y-69425000I0J-75000D01*
G01*
G37*
G36*
G01*
X112400000Y-69425000D02*
X112400000Y-70825000D01*
G75*
G02*
X112325000Y-70900000I-75000J0D01*
G01*
X112175000Y-70900000D01*
G75*
G02*
X112100000Y-70825000I0J75000D01*
G01*
X112100000Y-69425000D01*
G75*
G02*
X112175000Y-69350000I75000J0D01*
G01*
X112325000Y-69350000D01*
G75*
G02*
X112400000Y-69425000I0J-75000D01*
G01*
G37*
G36*
G01*
X111900000Y-69425000D02*
X111900000Y-70825000D01*
G75*
G02*
X111825000Y-70900000I-75000J0D01*
G01*
X111675000Y-70900000D01*
G75*
G02*
X111600000Y-70825000I0J75000D01*
G01*
X111600000Y-69425000D01*
G75*
G02*
X111675000Y-69350000I75000J0D01*
G01*
X111825000Y-69350000D01*
G75*
G02*
X111900000Y-69425000I0J-75000D01*
G01*
G37*
G36*
G01*
X111400000Y-69425000D02*
X111400000Y-70825000D01*
G75*
G02*
X111325000Y-70900000I-75000J0D01*
G01*
X111175000Y-70900000D01*
G75*
G02*
X111100000Y-70825000I0J75000D01*
G01*
X111100000Y-69425000D01*
G75*
G02*
X111175000Y-69350000I75000J0D01*
G01*
X111325000Y-69350000D01*
G75*
G02*
X111400000Y-69425000I0J-75000D01*
G01*
G37*
G36*
G01*
X110900000Y-69425000D02*
X110900000Y-70825000D01*
G75*
G02*
X110825000Y-70900000I-75000J0D01*
G01*
X110675000Y-70900000D01*
G75*
G02*
X110600000Y-70825000I0J75000D01*
G01*
X110600000Y-69425000D01*
G75*
G02*
X110675000Y-69350000I75000J0D01*
G01*
X110825000Y-69350000D01*
G75*
G02*
X110900000Y-69425000I0J-75000D01*
G01*
G37*
G36*
G01*
X110400000Y-69425000D02*
X110400000Y-70825000D01*
G75*
G02*
X110325000Y-70900000I-75000J0D01*
G01*
X110175000Y-70900000D01*
G75*
G02*
X110100000Y-70825000I0J75000D01*
G01*
X110100000Y-69425000D01*
G75*
G02*
X110175000Y-69350000I75000J0D01*
G01*
X110325000Y-69350000D01*
G75*
G02*
X110400000Y-69425000I0J-75000D01*
G01*
G37*
G36*
G01*
X109900000Y-69425000D02*
X109900000Y-70825000D01*
G75*
G02*
X109825000Y-70900000I-75000J0D01*
G01*
X109675000Y-70900000D01*
G75*
G02*
X109600000Y-70825000I0J75000D01*
G01*
X109600000Y-69425000D01*
G75*
G02*
X109675000Y-69350000I75000J0D01*
G01*
X109825000Y-69350000D01*
G75*
G02*
X109900000Y-69425000I0J-75000D01*
G01*
G37*
G36*
G01*
X109400000Y-69425000D02*
X109400000Y-70825000D01*
G75*
G02*
X109325000Y-70900000I-75000J0D01*
G01*
X109175000Y-70900000D01*
G75*
G02*
X109100000Y-70825000I0J75000D01*
G01*
X109100000Y-69425000D01*
G75*
G02*
X109175000Y-69350000I75000J0D01*
G01*
X109325000Y-69350000D01*
G75*
G02*
X109400000Y-69425000I0J-75000D01*
G01*
G37*
G36*
G01*
X108900000Y-69425000D02*
X108900000Y-70825000D01*
G75*
G02*
X108825000Y-70900000I-75000J0D01*
G01*
X108675000Y-70900000D01*
G75*
G02*
X108600000Y-70825000I0J75000D01*
G01*
X108600000Y-69425000D01*
G75*
G02*
X108675000Y-69350000I75000J0D01*
G01*
X108825000Y-69350000D01*
G75*
G02*
X108900000Y-69425000I0J-75000D01*
G01*
G37*
G36*
G01*
X108400000Y-69425000D02*
X108400000Y-70825000D01*
G75*
G02*
X108325000Y-70900000I-75000J0D01*
G01*
X108175000Y-70900000D01*
G75*
G02*
X108100000Y-70825000I0J75000D01*
G01*
X108100000Y-69425000D01*
G75*
G02*
X108175000Y-69350000I75000J0D01*
G01*
X108325000Y-69350000D01*
G75*
G02*
X108400000Y-69425000I0J-75000D01*
G01*
G37*
G36*
G01*
X107900000Y-69425000D02*
X107900000Y-70825000D01*
G75*
G02*
X107825000Y-70900000I-75000J0D01*
G01*
X107675000Y-70900000D01*
G75*
G02*
X107600000Y-70825000I0J75000D01*
G01*
X107600000Y-69425000D01*
G75*
G02*
X107675000Y-69350000I75000J0D01*
G01*
X107825000Y-69350000D01*
G75*
G02*
X107900000Y-69425000I0J-75000D01*
G01*
G37*
G36*
G01*
X107400000Y-69425000D02*
X107400000Y-70825000D01*
G75*
G02*
X107325000Y-70900000I-75000J0D01*
G01*
X107175000Y-70900000D01*
G75*
G02*
X107100000Y-70825000I0J75000D01*
G01*
X107100000Y-69425000D01*
G75*
G02*
X107175000Y-69350000I75000J0D01*
G01*
X107325000Y-69350000D01*
G75*
G02*
X107400000Y-69425000I0J-75000D01*
G01*
G37*
G36*
G01*
X106100000Y-71975000D02*
X106100000Y-72125000D01*
G75*
G02*
X106025000Y-72200000I-75000J0D01*
G01*
X104625000Y-72200000D01*
G75*
G02*
X104550000Y-72125000I0J75000D01*
G01*
X104550000Y-71975000D01*
G75*
G02*
X104625000Y-71900000I75000J0D01*
G01*
X106025000Y-71900000D01*
G75*
G02*
X106100000Y-71975000I0J-75000D01*
G01*
G37*
G36*
G01*
X106100000Y-72475000D02*
X106100000Y-72625000D01*
G75*
G02*
X106025000Y-72700000I-75000J0D01*
G01*
X104625000Y-72700000D01*
G75*
G02*
X104550000Y-72625000I0J75000D01*
G01*
X104550000Y-72475000D01*
G75*
G02*
X104625000Y-72400000I75000J0D01*
G01*
X106025000Y-72400000D01*
G75*
G02*
X106100000Y-72475000I0J-75000D01*
G01*
G37*
G36*
G01*
X106100000Y-72975000D02*
X106100000Y-73125000D01*
G75*
G02*
X106025000Y-73200000I-75000J0D01*
G01*
X104625000Y-73200000D01*
G75*
G02*
X104550000Y-73125000I0J75000D01*
G01*
X104550000Y-72975000D01*
G75*
G02*
X104625000Y-72900000I75000J0D01*
G01*
X106025000Y-72900000D01*
G75*
G02*
X106100000Y-72975000I0J-75000D01*
G01*
G37*
G36*
G01*
X106100000Y-73475000D02*
X106100000Y-73625000D01*
G75*
G02*
X106025000Y-73700000I-75000J0D01*
G01*
X104625000Y-73700000D01*
G75*
G02*
X104550000Y-73625000I0J75000D01*
G01*
X104550000Y-73475000D01*
G75*
G02*
X104625000Y-73400000I75000J0D01*
G01*
X106025000Y-73400000D01*
G75*
G02*
X106100000Y-73475000I0J-75000D01*
G01*
G37*
G36*
G01*
X106100000Y-73975000D02*
X106100000Y-74125000D01*
G75*
G02*
X106025000Y-74200000I-75000J0D01*
G01*
X104625000Y-74200000D01*
G75*
G02*
X104550000Y-74125000I0J75000D01*
G01*
X104550000Y-73975000D01*
G75*
G02*
X104625000Y-73900000I75000J0D01*
G01*
X106025000Y-73900000D01*
G75*
G02*
X106100000Y-73975000I0J-75000D01*
G01*
G37*
G36*
G01*
X106100000Y-74475000D02*
X106100000Y-74625000D01*
G75*
G02*
X106025000Y-74700000I-75000J0D01*
G01*
X104625000Y-74700000D01*
G75*
G02*
X104550000Y-74625000I0J75000D01*
G01*
X104550000Y-74475000D01*
G75*
G02*
X104625000Y-74400000I75000J0D01*
G01*
X106025000Y-74400000D01*
G75*
G02*
X106100000Y-74475000I0J-75000D01*
G01*
G37*
G36*
G01*
X106100000Y-74975000D02*
X106100000Y-75125000D01*
G75*
G02*
X106025000Y-75200000I-75000J0D01*
G01*
X104625000Y-75200000D01*
G75*
G02*
X104550000Y-75125000I0J75000D01*
G01*
X104550000Y-74975000D01*
G75*
G02*
X104625000Y-74900000I75000J0D01*
G01*
X106025000Y-74900000D01*
G75*
G02*
X106100000Y-74975000I0J-75000D01*
G01*
G37*
G36*
G01*
X106100000Y-75475000D02*
X106100000Y-75625000D01*
G75*
G02*
X106025000Y-75700000I-75000J0D01*
G01*
X104625000Y-75700000D01*
G75*
G02*
X104550000Y-75625000I0J75000D01*
G01*
X104550000Y-75475000D01*
G75*
G02*
X104625000Y-75400000I75000J0D01*
G01*
X106025000Y-75400000D01*
G75*
G02*
X106100000Y-75475000I0J-75000D01*
G01*
G37*
G36*
G01*
X106100000Y-75975000D02*
X106100000Y-76125000D01*
G75*
G02*
X106025000Y-76200000I-75000J0D01*
G01*
X104625000Y-76200000D01*
G75*
G02*
X104550000Y-76125000I0J75000D01*
G01*
X104550000Y-75975000D01*
G75*
G02*
X104625000Y-75900000I75000J0D01*
G01*
X106025000Y-75900000D01*
G75*
G02*
X106100000Y-75975000I0J-75000D01*
G01*
G37*
G36*
G01*
X106100000Y-76475000D02*
X106100000Y-76625000D01*
G75*
G02*
X106025000Y-76700000I-75000J0D01*
G01*
X104625000Y-76700000D01*
G75*
G02*
X104550000Y-76625000I0J75000D01*
G01*
X104550000Y-76475000D01*
G75*
G02*
X104625000Y-76400000I75000J0D01*
G01*
X106025000Y-76400000D01*
G75*
G02*
X106100000Y-76475000I0J-75000D01*
G01*
G37*
G36*
G01*
X106100000Y-76975000D02*
X106100000Y-77125000D01*
G75*
G02*
X106025000Y-77200000I-75000J0D01*
G01*
X104625000Y-77200000D01*
G75*
G02*
X104550000Y-77125000I0J75000D01*
G01*
X104550000Y-76975000D01*
G75*
G02*
X104625000Y-76900000I75000J0D01*
G01*
X106025000Y-76900000D01*
G75*
G02*
X106100000Y-76975000I0J-75000D01*
G01*
G37*
G36*
G01*
X106100000Y-77475000D02*
X106100000Y-77625000D01*
G75*
G02*
X106025000Y-77700000I-75000J0D01*
G01*
X104625000Y-77700000D01*
G75*
G02*
X104550000Y-77625000I0J75000D01*
G01*
X104550000Y-77475000D01*
G75*
G02*
X104625000Y-77400000I75000J0D01*
G01*
X106025000Y-77400000D01*
G75*
G02*
X106100000Y-77475000I0J-75000D01*
G01*
G37*
G36*
G01*
X106100000Y-77975000D02*
X106100000Y-78125000D01*
G75*
G02*
X106025000Y-78200000I-75000J0D01*
G01*
X104625000Y-78200000D01*
G75*
G02*
X104550000Y-78125000I0J75000D01*
G01*
X104550000Y-77975000D01*
G75*
G02*
X104625000Y-77900000I75000J0D01*
G01*
X106025000Y-77900000D01*
G75*
G02*
X106100000Y-77975000I0J-75000D01*
G01*
G37*
G36*
G01*
X106100000Y-78475000D02*
X106100000Y-78625000D01*
G75*
G02*
X106025000Y-78700000I-75000J0D01*
G01*
X104625000Y-78700000D01*
G75*
G02*
X104550000Y-78625000I0J75000D01*
G01*
X104550000Y-78475000D01*
G75*
G02*
X104625000Y-78400000I75000J0D01*
G01*
X106025000Y-78400000D01*
G75*
G02*
X106100000Y-78475000I0J-75000D01*
G01*
G37*
G36*
G01*
X106100000Y-78975000D02*
X106100000Y-79125000D01*
G75*
G02*
X106025000Y-79200000I-75000J0D01*
G01*
X104625000Y-79200000D01*
G75*
G02*
X104550000Y-79125000I0J75000D01*
G01*
X104550000Y-78975000D01*
G75*
G02*
X104625000Y-78900000I75000J0D01*
G01*
X106025000Y-78900000D01*
G75*
G02*
X106100000Y-78975000I0J-75000D01*
G01*
G37*
G36*
G01*
X106100000Y-79475000D02*
X106100000Y-79625000D01*
G75*
G02*
X106025000Y-79700000I-75000J0D01*
G01*
X104625000Y-79700000D01*
G75*
G02*
X104550000Y-79625000I0J75000D01*
G01*
X104550000Y-79475000D01*
G75*
G02*
X104625000Y-79400000I75000J0D01*
G01*
X106025000Y-79400000D01*
G75*
G02*
X106100000Y-79475000I0J-75000D01*
G01*
G37*
G36*
G01*
X107400000Y-80775000D02*
X107400000Y-82175000D01*
G75*
G02*
X107325000Y-82250000I-75000J0D01*
G01*
X107175000Y-82250000D01*
G75*
G02*
X107100000Y-82175000I0J75000D01*
G01*
X107100000Y-80775000D01*
G75*
G02*
X107175000Y-80700000I75000J0D01*
G01*
X107325000Y-80700000D01*
G75*
G02*
X107400000Y-80775000I0J-75000D01*
G01*
G37*
G36*
G01*
X107900000Y-80775000D02*
X107900000Y-82175000D01*
G75*
G02*
X107825000Y-82250000I-75000J0D01*
G01*
X107675000Y-82250000D01*
G75*
G02*
X107600000Y-82175000I0J75000D01*
G01*
X107600000Y-80775000D01*
G75*
G02*
X107675000Y-80700000I75000J0D01*
G01*
X107825000Y-80700000D01*
G75*
G02*
X107900000Y-80775000I0J-75000D01*
G01*
G37*
G36*
G01*
X108400000Y-80775000D02*
X108400000Y-82175000D01*
G75*
G02*
X108325000Y-82250000I-75000J0D01*
G01*
X108175000Y-82250000D01*
G75*
G02*
X108100000Y-82175000I0J75000D01*
G01*
X108100000Y-80775000D01*
G75*
G02*
X108175000Y-80700000I75000J0D01*
G01*
X108325000Y-80700000D01*
G75*
G02*
X108400000Y-80775000I0J-75000D01*
G01*
G37*
G36*
G01*
X108900000Y-80775000D02*
X108900000Y-82175000D01*
G75*
G02*
X108825000Y-82250000I-75000J0D01*
G01*
X108675000Y-82250000D01*
G75*
G02*
X108600000Y-82175000I0J75000D01*
G01*
X108600000Y-80775000D01*
G75*
G02*
X108675000Y-80700000I75000J0D01*
G01*
X108825000Y-80700000D01*
G75*
G02*
X108900000Y-80775000I0J-75000D01*
G01*
G37*
G36*
G01*
X109400000Y-80775000D02*
X109400000Y-82175000D01*
G75*
G02*
X109325000Y-82250000I-75000J0D01*
G01*
X109175000Y-82250000D01*
G75*
G02*
X109100000Y-82175000I0J75000D01*
G01*
X109100000Y-80775000D01*
G75*
G02*
X109175000Y-80700000I75000J0D01*
G01*
X109325000Y-80700000D01*
G75*
G02*
X109400000Y-80775000I0J-75000D01*
G01*
G37*
G36*
G01*
X109900000Y-80775000D02*
X109900000Y-82175000D01*
G75*
G02*
X109825000Y-82250000I-75000J0D01*
G01*
X109675000Y-82250000D01*
G75*
G02*
X109600000Y-82175000I0J75000D01*
G01*
X109600000Y-80775000D01*
G75*
G02*
X109675000Y-80700000I75000J0D01*
G01*
X109825000Y-80700000D01*
G75*
G02*
X109900000Y-80775000I0J-75000D01*
G01*
G37*
G36*
G01*
X110400000Y-80775000D02*
X110400000Y-82175000D01*
G75*
G02*
X110325000Y-82250000I-75000J0D01*
G01*
X110175000Y-82250000D01*
G75*
G02*
X110100000Y-82175000I0J75000D01*
G01*
X110100000Y-80775000D01*
G75*
G02*
X110175000Y-80700000I75000J0D01*
G01*
X110325000Y-80700000D01*
G75*
G02*
X110400000Y-80775000I0J-75000D01*
G01*
G37*
G36*
G01*
X110900000Y-80775000D02*
X110900000Y-82175000D01*
G75*
G02*
X110825000Y-82250000I-75000J0D01*
G01*
X110675000Y-82250000D01*
G75*
G02*
X110600000Y-82175000I0J75000D01*
G01*
X110600000Y-80775000D01*
G75*
G02*
X110675000Y-80700000I75000J0D01*
G01*
X110825000Y-80700000D01*
G75*
G02*
X110900000Y-80775000I0J-75000D01*
G01*
G37*
G36*
G01*
X111400000Y-80775000D02*
X111400000Y-82175000D01*
G75*
G02*
X111325000Y-82250000I-75000J0D01*
G01*
X111175000Y-82250000D01*
G75*
G02*
X111100000Y-82175000I0J75000D01*
G01*
X111100000Y-80775000D01*
G75*
G02*
X111175000Y-80700000I75000J0D01*
G01*
X111325000Y-80700000D01*
G75*
G02*
X111400000Y-80775000I0J-75000D01*
G01*
G37*
G36*
G01*
X111900000Y-80775000D02*
X111900000Y-82175000D01*
G75*
G02*
X111825000Y-82250000I-75000J0D01*
G01*
X111675000Y-82250000D01*
G75*
G02*
X111600000Y-82175000I0J75000D01*
G01*
X111600000Y-80775000D01*
G75*
G02*
X111675000Y-80700000I75000J0D01*
G01*
X111825000Y-80700000D01*
G75*
G02*
X111900000Y-80775000I0J-75000D01*
G01*
G37*
G36*
G01*
X112400000Y-80775000D02*
X112400000Y-82175000D01*
G75*
G02*
X112325000Y-82250000I-75000J0D01*
G01*
X112175000Y-82250000D01*
G75*
G02*
X112100000Y-82175000I0J75000D01*
G01*
X112100000Y-80775000D01*
G75*
G02*
X112175000Y-80700000I75000J0D01*
G01*
X112325000Y-80700000D01*
G75*
G02*
X112400000Y-80775000I0J-75000D01*
G01*
G37*
G36*
G01*
X112900000Y-80775000D02*
X112900000Y-82175000D01*
G75*
G02*
X112825000Y-82250000I-75000J0D01*
G01*
X112675000Y-82250000D01*
G75*
G02*
X112600000Y-82175000I0J75000D01*
G01*
X112600000Y-80775000D01*
G75*
G02*
X112675000Y-80700000I75000J0D01*
G01*
X112825000Y-80700000D01*
G75*
G02*
X112900000Y-80775000I0J-75000D01*
G01*
G37*
G36*
G01*
X113400000Y-80775000D02*
X113400000Y-82175000D01*
G75*
G02*
X113325000Y-82250000I-75000J0D01*
G01*
X113175000Y-82250000D01*
G75*
G02*
X113100000Y-82175000I0J75000D01*
G01*
X113100000Y-80775000D01*
G75*
G02*
X113175000Y-80700000I75000J0D01*
G01*
X113325000Y-80700000D01*
G75*
G02*
X113400000Y-80775000I0J-75000D01*
G01*
G37*
G36*
G01*
X113900000Y-80775000D02*
X113900000Y-82175000D01*
G75*
G02*
X113825000Y-82250000I-75000J0D01*
G01*
X113675000Y-82250000D01*
G75*
G02*
X113600000Y-82175000I0J75000D01*
G01*
X113600000Y-80775000D01*
G75*
G02*
X113675000Y-80700000I75000J0D01*
G01*
X113825000Y-80700000D01*
G75*
G02*
X113900000Y-80775000I0J-75000D01*
G01*
G37*
G36*
G01*
X114400000Y-80775000D02*
X114400000Y-82175000D01*
G75*
G02*
X114325000Y-82250000I-75000J0D01*
G01*
X114175000Y-82250000D01*
G75*
G02*
X114100000Y-82175000I0J75000D01*
G01*
X114100000Y-80775000D01*
G75*
G02*
X114175000Y-80700000I75000J0D01*
G01*
X114325000Y-80700000D01*
G75*
G02*
X114400000Y-80775000I0J-75000D01*
G01*
G37*
G36*
G01*
X114900000Y-80775000D02*
X114900000Y-82175000D01*
G75*
G02*
X114825000Y-82250000I-75000J0D01*
G01*
X114675000Y-82250000D01*
G75*
G02*
X114600000Y-82175000I0J75000D01*
G01*
X114600000Y-80775000D01*
G75*
G02*
X114675000Y-80700000I75000J0D01*
G01*
X114825000Y-80700000D01*
G75*
G02*
X114900000Y-80775000I0J-75000D01*
G01*
G37*
%TD*%
D29*
%TO.C,U4*%
X136925000Y-33865000D03*
X136925000Y-35135000D03*
X136925000Y-36405000D03*
X136925000Y-37675000D03*
X136925000Y-38945000D03*
X136925000Y-40215000D03*
X136925000Y-41485000D03*
D30*
X146075000Y-37675000D03*
%TD*%
D29*
%TO.C,U5*%
X136825000Y-46990000D03*
X136825000Y-48260000D03*
X136825000Y-49530000D03*
X136825000Y-50800000D03*
X136825000Y-52070000D03*
X136825000Y-53340000D03*
X136825000Y-54610000D03*
D30*
X145975000Y-50800000D03*
%TD*%
%TO.C,U6*%
X146075000Y-64275000D03*
D29*
X136925000Y-68085000D03*
X136925000Y-66815000D03*
X136925000Y-65545000D03*
X136925000Y-64275000D03*
X136925000Y-63005000D03*
X136925000Y-61735000D03*
X136925000Y-60465000D03*
%TD*%
%TO.C,U7*%
G36*
G01*
X148125000Y-82675000D02*
X147975000Y-82675000D01*
G75*
G02*
X147900000Y-82600000I0J75000D01*
G01*
X147900000Y-81900000D01*
G75*
G02*
X147975000Y-81825000I75000J0D01*
G01*
X148125000Y-81825000D01*
G75*
G02*
X148200000Y-81900000I0J-75000D01*
G01*
X148200000Y-82600000D01*
G75*
G02*
X148125000Y-82675000I-75000J0D01*
G01*
G37*
G36*
G01*
X148625000Y-82675000D02*
X148475000Y-82675000D01*
G75*
G02*
X148400000Y-82600000I0J75000D01*
G01*
X148400000Y-81900000D01*
G75*
G02*
X148475000Y-81825000I75000J0D01*
G01*
X148625000Y-81825000D01*
G75*
G02*
X148700000Y-81900000I0J-75000D01*
G01*
X148700000Y-82600000D01*
G75*
G02*
X148625000Y-82675000I-75000J0D01*
G01*
G37*
G36*
G01*
X149125000Y-82675000D02*
X148975000Y-82675000D01*
G75*
G02*
X148900000Y-82600000I0J75000D01*
G01*
X148900000Y-81900000D01*
G75*
G02*
X148975000Y-81825000I75000J0D01*
G01*
X149125000Y-81825000D01*
G75*
G02*
X149200000Y-81900000I0J-75000D01*
G01*
X149200000Y-82600000D01*
G75*
G02*
X149125000Y-82675000I-75000J0D01*
G01*
G37*
G36*
G01*
X149625000Y-82675000D02*
X149475000Y-82675000D01*
G75*
G02*
X149400000Y-82600000I0J75000D01*
G01*
X149400000Y-81900000D01*
G75*
G02*
X149475000Y-81825000I75000J0D01*
G01*
X149625000Y-81825000D01*
G75*
G02*
X149700000Y-81900000I0J-75000D01*
G01*
X149700000Y-82600000D01*
G75*
G02*
X149625000Y-82675000I-75000J0D01*
G01*
G37*
G36*
G01*
X150125000Y-82675000D02*
X149975000Y-82675000D01*
G75*
G02*
X149900000Y-82600000I0J75000D01*
G01*
X149900000Y-81900000D01*
G75*
G02*
X149975000Y-81825000I75000J0D01*
G01*
X150125000Y-81825000D01*
G75*
G02*
X150200000Y-81900000I0J-75000D01*
G01*
X150200000Y-82600000D01*
G75*
G02*
X150125000Y-82675000I-75000J0D01*
G01*
G37*
G36*
G01*
X150625000Y-82675000D02*
X150475000Y-82675000D01*
G75*
G02*
X150400000Y-82600000I0J75000D01*
G01*
X150400000Y-81900000D01*
G75*
G02*
X150475000Y-81825000I75000J0D01*
G01*
X150625000Y-81825000D01*
G75*
G02*
X150700000Y-81900000I0J-75000D01*
G01*
X150700000Y-82600000D01*
G75*
G02*
X150625000Y-82675000I-75000J0D01*
G01*
G37*
G36*
G01*
X151675000Y-81475000D02*
X151675000Y-81625000D01*
G75*
G02*
X151600000Y-81700000I-75000J0D01*
G01*
X150900000Y-81700000D01*
G75*
G02*
X150825000Y-81625000I0J75000D01*
G01*
X150825000Y-81475000D01*
G75*
G02*
X150900000Y-81400000I75000J0D01*
G01*
X151600000Y-81400000D01*
G75*
G02*
X151675000Y-81475000I0J-75000D01*
G01*
G37*
G36*
G01*
X151675000Y-80975000D02*
X151675000Y-81125000D01*
G75*
G02*
X151600000Y-81200000I-75000J0D01*
G01*
X150900000Y-81200000D01*
G75*
G02*
X150825000Y-81125000I0J75000D01*
G01*
X150825000Y-80975000D01*
G75*
G02*
X150900000Y-80900000I75000J0D01*
G01*
X151600000Y-80900000D01*
G75*
G02*
X151675000Y-80975000I0J-75000D01*
G01*
G37*
G36*
G01*
X151675000Y-80475000D02*
X151675000Y-80625000D01*
G75*
G02*
X151600000Y-80700000I-75000J0D01*
G01*
X150900000Y-80700000D01*
G75*
G02*
X150825000Y-80625000I0J75000D01*
G01*
X150825000Y-80475000D01*
G75*
G02*
X150900000Y-80400000I75000J0D01*
G01*
X151600000Y-80400000D01*
G75*
G02*
X151675000Y-80475000I0J-75000D01*
G01*
G37*
G36*
G01*
X151675000Y-79975000D02*
X151675000Y-80125000D01*
G75*
G02*
X151600000Y-80200000I-75000J0D01*
G01*
X150900000Y-80200000D01*
G75*
G02*
X150825000Y-80125000I0J75000D01*
G01*
X150825000Y-79975000D01*
G75*
G02*
X150900000Y-79900000I75000J0D01*
G01*
X151600000Y-79900000D01*
G75*
G02*
X151675000Y-79975000I0J-75000D01*
G01*
G37*
G36*
G01*
X151675000Y-79475000D02*
X151675000Y-79625000D01*
G75*
G02*
X151600000Y-79700000I-75000J0D01*
G01*
X150900000Y-79700000D01*
G75*
G02*
X150825000Y-79625000I0J75000D01*
G01*
X150825000Y-79475000D01*
G75*
G02*
X150900000Y-79400000I75000J0D01*
G01*
X151600000Y-79400000D01*
G75*
G02*
X151675000Y-79475000I0J-75000D01*
G01*
G37*
G36*
G01*
X151675000Y-78975000D02*
X151675000Y-79125000D01*
G75*
G02*
X151600000Y-79200000I-75000J0D01*
G01*
X150900000Y-79200000D01*
G75*
G02*
X150825000Y-79125000I0J75000D01*
G01*
X150825000Y-78975000D01*
G75*
G02*
X150900000Y-78900000I75000J0D01*
G01*
X151600000Y-78900000D01*
G75*
G02*
X151675000Y-78975000I0J-75000D01*
G01*
G37*
G36*
G01*
X150625000Y-78775000D02*
X150475000Y-78775000D01*
G75*
G02*
X150400000Y-78700000I0J75000D01*
G01*
X150400000Y-78000000D01*
G75*
G02*
X150475000Y-77925000I75000J0D01*
G01*
X150625000Y-77925000D01*
G75*
G02*
X150700000Y-78000000I0J-75000D01*
G01*
X150700000Y-78700000D01*
G75*
G02*
X150625000Y-78775000I-75000J0D01*
G01*
G37*
G36*
G01*
X150125000Y-78775000D02*
X149975000Y-78775000D01*
G75*
G02*
X149900000Y-78700000I0J75000D01*
G01*
X149900000Y-78000000D01*
G75*
G02*
X149975000Y-77925000I75000J0D01*
G01*
X150125000Y-77925000D01*
G75*
G02*
X150200000Y-78000000I0J-75000D01*
G01*
X150200000Y-78700000D01*
G75*
G02*
X150125000Y-78775000I-75000J0D01*
G01*
G37*
G36*
G01*
X149625000Y-78775000D02*
X149475000Y-78775000D01*
G75*
G02*
X149400000Y-78700000I0J75000D01*
G01*
X149400000Y-78000000D01*
G75*
G02*
X149475000Y-77925000I75000J0D01*
G01*
X149625000Y-77925000D01*
G75*
G02*
X149700000Y-78000000I0J-75000D01*
G01*
X149700000Y-78700000D01*
G75*
G02*
X149625000Y-78775000I-75000J0D01*
G01*
G37*
G36*
G01*
X149125000Y-78775000D02*
X148975000Y-78775000D01*
G75*
G02*
X148900000Y-78700000I0J75000D01*
G01*
X148900000Y-78000000D01*
G75*
G02*
X148975000Y-77925000I75000J0D01*
G01*
X149125000Y-77925000D01*
G75*
G02*
X149200000Y-78000000I0J-75000D01*
G01*
X149200000Y-78700000D01*
G75*
G02*
X149125000Y-78775000I-75000J0D01*
G01*
G37*
G36*
G01*
X148625000Y-78775000D02*
X148475000Y-78775000D01*
G75*
G02*
X148400000Y-78700000I0J75000D01*
G01*
X148400000Y-78000000D01*
G75*
G02*
X148475000Y-77925000I75000J0D01*
G01*
X148625000Y-77925000D01*
G75*
G02*
X148700000Y-78000000I0J-75000D01*
G01*
X148700000Y-78700000D01*
G75*
G02*
X148625000Y-78775000I-75000J0D01*
G01*
G37*
G36*
G01*
X148125000Y-78775000D02*
X147975000Y-78775000D01*
G75*
G02*
X147900000Y-78700000I0J75000D01*
G01*
X147900000Y-78000000D01*
G75*
G02*
X147975000Y-77925000I75000J0D01*
G01*
X148125000Y-77925000D01*
G75*
G02*
X148200000Y-78000000I0J-75000D01*
G01*
X148200000Y-78700000D01*
G75*
G02*
X148125000Y-78775000I-75000J0D01*
G01*
G37*
G36*
G01*
X147775000Y-78975000D02*
X147775000Y-79125000D01*
G75*
G02*
X147700000Y-79200000I-75000J0D01*
G01*
X147000000Y-79200000D01*
G75*
G02*
X146925000Y-79125000I0J75000D01*
G01*
X146925000Y-78975000D01*
G75*
G02*
X147000000Y-78900000I75000J0D01*
G01*
X147700000Y-78900000D01*
G75*
G02*
X147775000Y-78975000I0J-75000D01*
G01*
G37*
G36*
G01*
X147775000Y-79475000D02*
X147775000Y-79625000D01*
G75*
G02*
X147700000Y-79700000I-75000J0D01*
G01*
X147000000Y-79700000D01*
G75*
G02*
X146925000Y-79625000I0J75000D01*
G01*
X146925000Y-79475000D01*
G75*
G02*
X147000000Y-79400000I75000J0D01*
G01*
X147700000Y-79400000D01*
G75*
G02*
X147775000Y-79475000I0J-75000D01*
G01*
G37*
G36*
G01*
X147775000Y-79975000D02*
X147775000Y-80125000D01*
G75*
G02*
X147700000Y-80200000I-75000J0D01*
G01*
X147000000Y-80200000D01*
G75*
G02*
X146925000Y-80125000I0J75000D01*
G01*
X146925000Y-79975000D01*
G75*
G02*
X147000000Y-79900000I75000J0D01*
G01*
X147700000Y-79900000D01*
G75*
G02*
X147775000Y-79975000I0J-75000D01*
G01*
G37*
G36*
G01*
X147775000Y-80475000D02*
X147775000Y-80625000D01*
G75*
G02*
X147700000Y-80700000I-75000J0D01*
G01*
X147000000Y-80700000D01*
G75*
G02*
X146925000Y-80625000I0J75000D01*
G01*
X146925000Y-80475000D01*
G75*
G02*
X147000000Y-80400000I75000J0D01*
G01*
X147700000Y-80400000D01*
G75*
G02*
X147775000Y-80475000I0J-75000D01*
G01*
G37*
G36*
G01*
X147775000Y-80975000D02*
X147775000Y-81125000D01*
G75*
G02*
X147700000Y-81200000I-75000J0D01*
G01*
X147000000Y-81200000D01*
G75*
G02*
X146925000Y-81125000I0J75000D01*
G01*
X146925000Y-80975000D01*
G75*
G02*
X147000000Y-80900000I75000J0D01*
G01*
X147700000Y-80900000D01*
G75*
G02*
X147775000Y-80975000I0J-75000D01*
G01*
G37*
G36*
G01*
X147775000Y-81475000D02*
X147775000Y-81625000D01*
G75*
G02*
X147700000Y-81700000I-75000J0D01*
G01*
X147000000Y-81700000D01*
G75*
G02*
X146925000Y-81625000I0J75000D01*
G01*
X146925000Y-81475000D01*
G75*
G02*
X147000000Y-81400000I75000J0D01*
G01*
X147700000Y-81400000D01*
G75*
G02*
X147775000Y-81475000I0J-75000D01*
G01*
G37*
%TD*%
D30*
%TO.C,U8*%
X77850000Y-37650000D03*
D29*
X87000000Y-33840000D03*
X87000000Y-35110000D03*
X87000000Y-36380000D03*
X87000000Y-37650000D03*
X87000000Y-38920000D03*
X87000000Y-40190000D03*
X87000000Y-41460000D03*
%TD*%
%TO.C,U9*%
X87000000Y-54510000D03*
X87000000Y-53240000D03*
X87000000Y-51970000D03*
X87000000Y-50700000D03*
X87000000Y-49430000D03*
X87000000Y-48160000D03*
X87000000Y-46890000D03*
D30*
X77850000Y-50700000D03*
%TD*%
%TO.C,U10*%
X77850000Y-64250000D03*
D29*
X87000000Y-60440000D03*
X87000000Y-61710000D03*
X87000000Y-62980000D03*
X87000000Y-64250000D03*
X87000000Y-65520000D03*
X87000000Y-66790000D03*
X87000000Y-68060000D03*
%TD*%
M02*
