M48
; DRILL file {KiCad 5.1.9-73d0e3b20d~88~ubuntu20.04.1} date Tue Jan 12 21:49:33 2021
; FORMAT={3:3/ absolute / metric / suppress leading zeros}
; #@! TF.CreationDate,2021-01-12T21:49:33+00:00
; #@! TF.GenerationSoftware,Kicad,Pcbnew,5.1.9-73d0e3b20d~88~ubuntu20.04.1
FMAT,2
METRIC,TZ
T1C0.400
T2C0.450
T3C0.500
T4C1.000
T5C1.320
T6C3.200
%
G90
G05
T1
X73700Y-51100
X76700Y-70200
X78200Y-60300
X78600Y-39600
X79500Y-87100
X81500Y-101300
X81700Y-98300
X82500Y-102300
X84000Y-92400
X86200Y-76600
X86300Y-89100
X86400Y-74850
X87000Y-91800
X89100Y-44200
X90800Y-57800
X91600Y-95600
X91900Y-94200
X93400Y-77500
X94400Y-83400
X94600Y-90300
X94800Y-77500
X95700Y-81700
X95900Y-47800
X96100Y-42600
X96100Y-52600
X96100Y-54200
X96200Y-35100
X96200Y-40000
X96200Y-41200
X96300Y-55200
X96300Y-66500
X96300Y-69000
X96300Y-104900
X96400Y-67900
X96500Y-62100
X97300Y-81900
X97300Y-56200
X97300Y-69400
X97400Y-80500
X97600Y-42900
X97800Y-89600
X97900Y-30950
X98400Y-69500
X98700Y-56400
X99300Y-43100
X99500Y-89300
X99600Y-69500
X99800Y-105300
X99900Y-56200
X100300Y-57300
X100700Y-84300
X100900Y-43000
X100900Y-88700
X101000Y-75500
X101200Y-101600
X101950Y-87250
X102300Y-95600
X102813Y-105413
X102900Y-88700
X103000Y-41400
X103075Y-38325
X103180Y-94720
X103200Y-46400
X103200Y-54800
X103350Y-33200
X103900Y-60000
X104200Y-55100
X104500Y-41500
X104600Y-62900
X104700Y-34600
X104700Y-39300
X104700Y-40300
X104900Y-48900
X105000Y-53400
X105200Y-52400
X105200Y-77300
X105500Y-98400
X105700Y-82200
X106175Y-73325
X106600Y-98400
X106700Y-82300
X106900Y-79100
X107500Y-93900
X107513Y-69487
X107700Y-75900
X107800Y-98400
X107900Y-79100
X108200Y-74200
X108200Y-88800
X108550Y-87750
X108700Y-78400
X108800Y-76800
X108900Y-98400
X109100Y-94000
X109600Y-100300
X109650Y-91750
X109800Y-76500
X110000Y-93307
X110100Y-82300
X110100Y-87800
X110400Y-52100
X111100Y-87900
X111300Y-75900
X111600Y-89000
X111600Y-92000
X111750Y-93950
X111800Y-41200
X111900Y-90800
X111900Y-100500
X112100Y-97200
X112300Y-87900
X112800Y-89700
X112900Y-86200
X113000Y-46300
X113000Y-62700
X113000Y-94000
X113200Y-90800
X113400Y-98600
X113640Y-79940
X114100Y-90000
X114100Y-101100
X114900Y-88900
X114900Y-99900
X115000Y-75800
X115000Y-94200
X115950Y-77150
X116000Y-80800
X116300Y-78300
X116800Y-95000
X117350Y-78350
X118150Y-95250
X118400Y-101400
X118600Y-78400
X118600Y-102500
X118700Y-52800
X118700Y-88500
X118800Y-46200
X118900Y-39900
X119000Y-48500
X119000Y-49500
X119000Y-55500
X119000Y-61900
X119000Y-62900
X119000Y-66300
X119000Y-68900
X119200Y-35400
X119200Y-36400
X119600Y-60400
X120200Y-47300
X120200Y-73100
X120300Y-42600
X120700Y-60100
X120900Y-46800
X122000Y-31800
X122000Y-32700
X122000Y-88800
X122300Y-71600
X122400Y-59300
X122500Y-46000
X122500Y-82900
X123200Y-45400
X123200Y-58400
X123400Y-31800
X123500Y-71600
X124000Y-44700
X124100Y-32800
X124200Y-45900
X124200Y-58900
X124900Y-31700
X124900Y-85700
X125200Y-45200
X125200Y-58400
X126000Y-45900
X126000Y-59300
X126200Y-31700
X126200Y-32800
X126600Y-76700
X126700Y-88500
X126800Y-86900
X127200Y-75800
X127200Y-77500
X127400Y-47800
X127500Y-39200
X127700Y-35500
X128500Y-86100
X128800Y-101100
X129000Y-100000
X131000Y-87400
X132100Y-104600
X132300Y-94300
X132400Y-44300
X132500Y-88200
X133000Y-57600
X136000Y-94800
X137220Y-83080
X137800Y-91400
X137800Y-95800
X137900Y-99200
X138100Y-97700
X141950Y-81150
X144200Y-93900
X145300Y-72500
T3
X73600Y-34000
X73800Y-105800
X74303Y-32303
X74303Y-35697
X74503Y-104103
X74503Y-107497
X76000Y-31600
X76000Y-36400
X76200Y-103400
X76200Y-108200
X77697Y-32303
X77697Y-35697
X77897Y-104103
X77897Y-107497
X78400Y-34000
X78600Y-105800
X145600Y-34000
X145600Y-105800
X146303Y-32303
X146303Y-35697
X146303Y-104103
X146303Y-107497
X148000Y-31600
X148000Y-36400
X148000Y-103400
X148000Y-108200
X149697Y-32303
X149697Y-35697
X149697Y-104103
X149697Y-107497
X150400Y-34000
X150400Y-105800
T4
X75000Y-66500
X75000Y-69040
X75000Y-71580
X75000Y-74120
X75000Y-76660
X75000Y-83300
X75000Y-85840
X75000Y-88380
X75000Y-90920
X75000Y-93460
X75000Y-96000
X82800Y-106300
X85340Y-106300
X87880Y-106300
X90420Y-106300
X109450Y-69225
X114450Y-69225
X120900Y-106600
X123440Y-106600
X125980Y-106600
X128520Y-106600
X133520Y-106600
X136060Y-106600
X138600Y-106600
X141140Y-106600
X149200Y-66460
X149200Y-69000
X149200Y-71540
X149200Y-74080
X149200Y-76620
X149200Y-83100
X149200Y-85640
X149200Y-88180
X149200Y-90720
X149200Y-93260
X149200Y-95800
T5
X78600Y-45900
X78600Y-50900
X78600Y-55900
X110000Y-36400
X115000Y-36400
X145700Y-45900
X145700Y-50900
X145700Y-55900
T6
X76000Y-34000
X76200Y-105800
X148000Y-34000
X148000Y-105800
T2
G00X109225Y-107000
M15
G01X109225Y-106200
M16
G05
G00X116375Y-106200
M15
G01X116375Y-107000
M16
G05
T0
M30
