M48
; DRILL file {KiCad 5.1.8-db9833491~88~ubuntu20.04.1} date Sun Dec  6 21:40:18 2020
; FORMAT={3:3/ absolute / metric / suppress leading zeros}
; #@! TF.CreationDate,2020-12-06T21:40:18+00:00
; #@! TF.GenerationSoftware,Kicad,Pcbnew,5.1.8-db9833491~88~ubuntu20.04.1
FMAT,2
METRIC,TZ
T1C0.400
T2C0.450
T3C0.500
T4C0.510
T5C1.000
T6C3.000
T7C3.200
T8C4.500
%
G90
G05
T1
X73400Y-37610
X73738Y-68147
X73738Y-71585
X75600Y-41810
X75800Y-71510
X77100Y-70410
X77150Y-68560
X77425Y-41785
X77600Y-51510
X77900Y-70910
X78072Y-79310
X78100Y-53110
X78125Y-41785
X78200Y-39610
X78350Y-40678
X78600Y-51810
X78800Y-50710
X79112Y-66586
X79112Y-79310
X79300Y-52910
X79390Y-37620
X79500Y-78010
X79550Y-31660
X79775Y-60010
X79800Y-58660
X79900Y-76410
X80000Y-50910
X80000Y-51910
X80320Y-78690
X80400Y-75610
X80400Y-77210
X86700Y-73984
X87475Y-52127
X88075Y-49495
X88075Y-70235
X88150Y-68710
X89272Y-43472
X89300Y-60410
X89300Y-62010
X89780Y-49568
X90034Y-62776
X90450Y-45760
X90796Y-64046
X92066Y-62522
X92066Y-64808
X93336Y-62522
X93640Y-33090
X94550Y-40910
X96350Y-33260
X96775Y-47035
X96892Y-59474
X96892Y-64808
X97550Y-45635
X98700Y-49260
X98800Y-33170
X99700Y-74410
X99750Y-75610
X99800Y-45410
X100050Y-40110
X100150Y-37110
X100220Y-41330
X101150Y-40510
X101600Y-62410
X101800Y-61310
X102350Y-47935
X102734Y-51346
X102775Y-68910
X103756Y-50204
X103850Y-58110
X103900Y-48935
X104454Y-60040
X104640Y-69508
X104640Y-70522
X104640Y-76112
X105195Y-41375
X105274Y-36868
X105470Y-60040
X105528Y-45758
X106036Y-52362
X106036Y-69126
X106290Y-69888
X107052Y-41440
X107705Y-57705
X107725Y-56435
X107814Y-59728
X109000Y-60810
X109005Y-41535
X109350Y-63860
X109475Y-59360
X109600Y-62710
X109650Y-64910
X110100Y-37780
X110200Y-55310
X110800Y-37010
X110950Y-57100
X111110Y-46000
X111250Y-50320
X112350Y-46710
X112500Y-48885
X112570Y-45010
X112750Y-51910
X112910Y-48300
X112990Y-34420
X113170Y-70660
X113270Y-42860
X113275Y-69253
X113405Y-51255
X113460Y-46310
X113535Y-74800
X113590Y-72160
X113770Y-53650
X113840Y-35240
X114130Y-47110
X114900Y-38210
X114900Y-56360
X114930Y-37250
X115850Y-75810
X116000Y-63410
X116050Y-54410
X116450Y-38138
X116450Y-62110
X116650Y-54010
X117212Y-38646
X117300Y-44710
X117400Y-43010
X117466Y-35344
X117466Y-36614
X117560Y-55370
X117650Y-66160
X117900Y-43900
X117900Y-67310
X117900Y-68460
X118130Y-46250
X118190Y-49990
X118550Y-54010
X118960Y-47400
X120390Y-49730
X120514Y-46774
X120550Y-38910
X120550Y-43910
X121450Y-48660
X121650Y-44610
X121784Y-47282
X121980Y-57170
X122038Y-53632
X122250Y-42710
X122620Y-49840
X122800Y-54394
X122900Y-36635
X123020Y-48920
X123094Y-43574
X123200Y-58685
X123308Y-46774
X123488Y-35997
X123750Y-47910
X123900Y-45810
X124340Y-48860
X124700Y-45010
X125050Y-47160
X125075Y-35860
X125100Y-59510
X126075Y-67760
X126130Y-56860
X126250Y-59260
X126296Y-64106
X126325Y-66535
X126375Y-65560
X126720Y-40000
X126725Y-51835
X126800Y-54110
X127075Y-71210
X127263Y-69972
X127425Y-59210
X127626Y-39154
X127650Y-53410
X127650Y-56960
X128450Y-51660
X128800Y-48660
X129000Y-43620
X129100Y-40185
X129250Y-41460
X129350Y-45610
X129598Y-48863
X129718Y-64240
X129750Y-71110
X130050Y-41200
X130080Y-62768
X130100Y-43560
X130650Y-71110
X130674Y-37884
X130734Y-64240
X130850Y-46510
X130900Y-66210
X131182Y-49568
X131220Y-48440
X131436Y-40678
X131465Y-75685
X131690Y-39662
X131800Y-67010
X131850Y-62610
X132004Y-64240
X132100Y-66110
X132525Y-55160
X132800Y-66810
X132960Y-37884
X133020Y-64240
X133214Y-48806
X133400Y-70710
X133600Y-44460
X133800Y-75890
X134180Y-53010
X134325Y-39735
X134675Y-35835
X135741Y-75971
X136700Y-40235
X136750Y-41885
X136775Y-35935
X137230Y-76540
X138025Y-65960
X138040Y-56680
X138450Y-64035
X139250Y-64910
X139325Y-36310
X139818Y-69888
X140200Y-48310
X140580Y-69126
X141088Y-77254
X141200Y-36210
X142100Y-58810
X142104Y-39662
X142600Y-67185
X143275Y-59910
X143350Y-66485
X143374Y-73698
X143628Y-51346
X144390Y-77508
X144450Y-66485
X144950Y-45610
X145152Y-43980
X145525Y-66660
X146400Y-67760
X146676Y-72682
X146930Y-77508
X147700Y-37360
X147946Y-38646
X148150Y-35960
X149216Y-43980
X149216Y-45758
X149470Y-77508
X150486Y-43980
X150486Y-45758
X152772Y-44488
X152772Y-45504
X153026Y-64808
X153280Y-63792
X153575Y-72685
X153788Y-45504
X153788Y-55664
X154042Y-64554
X154100Y-50035
X154300Y-51810
X154324Y-65796
X155312Y-68364
X155820Y-60998
X155925Y-72635
X156582Y-59982
X157290Y-35036
X160646Y-31026
X160646Y-33058
X160646Y-58458
X160900Y-56680
X161916Y-31026
X161916Y-33058
X161916Y-56680
X161916Y-58458
X163700Y-32410
X163948Y-31026
X164202Y-67602
X164300Y-33010
X164456Y-50330
X164456Y-52362
X164456Y-57188
X164456Y-58458
X164456Y-78270
X164700Y-59510
X164710Y-31788
X164964Y-31026
X165218Y-67348
X165220Y-72680
X165300Y-36810
X165400Y-57210
X165500Y-58410
X165726Y-42526
X166234Y-69380
X166261Y-39635
X166869Y-70015
X167123Y-38773
X167504Y-40424
X168644Y-69510
X170044Y-42456
X170125Y-71460
T3
X165800Y-76210
X166503Y-74513
X166503Y-77907
X168200Y-73810
X168200Y-78610
X169897Y-74513
X169897Y-77907
X170600Y-76210
X73425Y-33810
X74128Y-32113
X74128Y-35507
X75825Y-31410
X75825Y-36210
X77522Y-32113
X77522Y-35507
X78225Y-33810
X165800Y-33810
X166503Y-32113
X166503Y-35507
X168200Y-31410
X168200Y-36210
X169897Y-32113
X169897Y-35507
X170600Y-33810
X73400Y-76210
X74103Y-74513
X74103Y-77907
X75800Y-73810
X75800Y-78610
X77497Y-74513
X77497Y-77907
X78200Y-76210
T4
X82220Y-60890
X82220Y-63430
X83490Y-60890
X83490Y-63430
X84760Y-60890
X84760Y-63430
X159440Y-34800
X159440Y-37340
X160710Y-34800
X160710Y-37340
X161980Y-34800
X161980Y-37340
X159515Y-60450
X159515Y-62990
X160785Y-60450
X160785Y-62990
X162055Y-60450
X162055Y-62990
X82330Y-34840
X82330Y-37380
X83600Y-34840
X83600Y-37380
X84870Y-34840
X84870Y-37380
X159520Y-72150
X159520Y-74690
X160790Y-72150
X160790Y-74690
X162060Y-72150
X162060Y-74690
X92030Y-46540
X92030Y-49080
X93300Y-46540
X93300Y-49080
X94570Y-46540
X94570Y-49080
X159440Y-46510
X159440Y-49050
X160710Y-46510
X160710Y-49050
X161980Y-46510
X161980Y-49050
X82330Y-72640
X82330Y-75180
X83600Y-72640
X83600Y-75180
X84870Y-72640
X84870Y-75180
X92065Y-58290
X92065Y-60830
X93335Y-58290
X93335Y-60830
X94605Y-58290
X94605Y-60830
X148030Y-47740
X148030Y-50280
X149300Y-47740
X149300Y-50280
X150570Y-47740
X150570Y-50280
X82330Y-46540
X82330Y-49080
X83600Y-46540
X83600Y-49080
X84870Y-46540
X84870Y-49080
X148030Y-59440
X148030Y-61980
X149300Y-59440
X149300Y-61980
X150570Y-59440
X150570Y-61980
T5
X73600Y-44742
X73600Y-52910
X73600Y-60744
X118000Y-70610
X118400Y-77610
X170500Y-52410
X170500Y-60490
X170552Y-44488
X142800Y-78210
X145340Y-78210
X147880Y-78210
X150420Y-78210
X152960Y-78210
X155500Y-78210
X89890Y-31880
X92430Y-31880
X94970Y-31880
X97510Y-31880
X100050Y-31880
X104640Y-78210
X107180Y-78210
X109720Y-78210
X112260Y-78210
X114800Y-78210
X128940Y-78210
X131480Y-78210
X134020Y-78210
X136560Y-78210
X139100Y-78210
X88300Y-78210
X90840Y-78210
X93380Y-78210
X95920Y-78210
X98460Y-78210
X101000Y-78210
X105020Y-31810
X107560Y-31810
X110100Y-31810
X112640Y-31810
X134925Y-31810
X137465Y-31810
X140005Y-31810
X142545Y-31810
X146200Y-31810
X148740Y-31810
X151280Y-31810
X153820Y-31810
X156360Y-31810
X128285Y-31820
X130825Y-31820
T6
X169028Y-63792
X169028Y-47790
X169000Y-55810
X75000Y-48044
X75000Y-64046
X75000Y-56310
T7
X168200Y-76210
X75825Y-33810
X168200Y-33810
X75800Y-76210
T8
X122000Y-68110
X122000Y-75310
T2
G00X117350Y-32210
M15
G01X117350Y-31410
M16
G05
G00X124500Y-31410
M15
G01X124500Y-32210
M16
G05
T0
M30
